<?xml version="1.0" encoding="UTF-8" standalone="no"?>
<!-- Generator: Adobe Illustrator 14.0.0, SVG Export Plug-In . SVG Version: 6.00 Build 43363)  -->

<svg
   xmlns:dc="http://purl.org/dc/elements/1.1/"
   xmlns:cc="http://creativecommons.org/ns#"
   xmlns:rdf="http://www.w3.org/1999/02/22-rdf-syntax-ns#"
   xmlns:svg="http://www.w3.org/2000/svg"
   xmlns="http://www.w3.org/2000/svg"
   xmlns:sodipodi="http://sodipodi.sourceforge.net/DTD/sodipodi-0.dtd"
   xmlns:inkscape="http://www.inkscape.org/namespaces/inkscape"
   version="1.0"
   id="Layer_1"
   x="0px"
   y="0px"
   width="98.918px"
   height="100px"
   viewBox="0 0 98.918 100"
   enable-background="new 0 0 98.918 100"
   xml:space="preserve"
   inkscape:version="0.91 r13725"
   sodipodi:docname="rss.svg"
   inkscape:export-filename="C:\Utilisateurs\fr23972\Downloads\feedpushr.png"
   inkscape:export-xdpi="130"
   inkscape:export-ydpi="130"><metadata
     id="metadata4147"><rdf:RDF><cc:Work
         rdf:about=""><dc:format>image/svg+xml</dc:format><dc:type
           rdf:resource="http://purl.org/dc/dcmitype/StillImage" /><dc:title></dc:title></cc:Work></rdf:RDF></metadata><defs
     id="defs4145" /><sodipodi:namedview
     pagecolor="#ffffff"
     bordercolor="#666666"
     borderopacity="1"
     objecttolerance="10"
     gridtolerance="10"
     guidetolerance="10"
     inkscape:pageopacity="0"
     inkscape:pageshadow="2"
     inkscape:window-width="1920"
     inkscape:window-height="1018"
     id="namedview4143"
     showgrid="false"
     inkscape:zoom="0.530625"
     inkscape:cx="-93.720608"
     inkscape:cy="210.49096"
     inkscape:window-x="-8"
     inkscape:window-y="-8"
     inkscape:window-maximized="1"
     inkscape:current-layer="Layer_1" /><g
     id="g4181"
     transform="matrix(1.5628173,0,0,1.5628173,-23.424039,-34.320316)"><g
       transform="matrix(0.36866904,0,0,0.36866904,41.460542,22.143699)"
       id="g4149"><ellipse
         cx="13.566"
         cy="86.286003"
         rx="13.566"
         ry="13.714"
         id="ellipse4137"
         style="fill:#ff9955" /><path
         inkscape:connector-curvature="0"
         d="M 65.569,100 46.35,100 C 46.35,74.121 25.598,53.142 0,53.142 l 0,0 0,-19.427 c 36.214,0 65.569,29.676 65.569,66.285 z"
         id="path4139"
         style="fill:#ff9955" /><path
         inkscape:connector-curvature="0"
         d="M 79.135,100 C 79.135,55.817 43.706,20 0,20 L 0,0 c 54.631,0 98.918,44.772 98.918,100 l -19.783,0 z"
         id="path4141"
         style="fill:#ff9955" /></g><path
       style="fill:#5599ff"
       id="path4139-6"
       d="m 27.290604,48.897488 7.08545,0 c 0,9.540786 7.65062,17.275094 17.08781,17.275094 l 0,0 0,7.162133 c -13.350981,0 -24.17326,-10.940622 -24.17326,-24.437227 z"
       inkscape:connector-curvature="0" /><path
       style="fill:#5599ff"
       id="path4141-0"
       d="m 22.637545,48.624511 c -0.153321,16.288184 12.783386,29.615161 28.895722,29.766827 l -0.0694,7.373054 C 31.323998,85.574815 15.15284,68.915814 15.344488,48.555865 l 7.293057,0.06865 z"
       inkscape:connector-curvature="0" /></g></svg>