<?xml version="1.0" encoding="UTF-8" standalone="no"?>
<!-- Created with Inkscape (http://www.inkscape.org/) -->
<svg xmlns:dc="http://purl.org/dc/elements/1.1/" xmlns:cc="http://creativecommons.org/ns#" xmlns:rdf="http://www.w3.org/1999/02/22-rdf-syntax-ns#" xmlns:svg="http://www.w3.org/2000/svg" xmlns="http://www.w3.org/2000/svg" xmlns:sodipodi="http://sodipodi.sourceforge.net/DTD/sodipodi-0.dtd" xmlns:inkscape="http://www.inkscape.org/namespaces/inkscape" width="42.763126mm" height="42.786716mm" viewBox="0 0 151.52289 151.60647" id="svg2" version="1.1" inkscape:version="0.91 r13725" sodipodi:docname="keeper.svg">
  <defs id="defs4"/>
  <sodipodi:namedview id="base" pagecolor="#ffffff" bordercolor="#666666" borderopacity="1.0" inkscape:pageopacity="0.0" inkscape:pageshadow="2" inkscape:zoom="2.8" inkscape:cx="51.550558" inkscape:cy="54.118763" inkscape:document-units="px" inkscape:current-layer="layer1" showgrid="false" inkscape:window-width="1920" inkscape:window-height="1018" inkscape:window-x="1358" inkscape:window-y="-8" inkscape:window-maximized="1" fit-margin-top="0" fit-margin-left="0" fit-margin-right="0" fit-margin-bottom="0"/>
  <metadata id="metadata7">
    <rdf:RDF>
      <cc:Work rdf:about="">
        <dc:format>image/svg+xml</dc:format>
        <dc:type rdf:resource="http://purl.org/dc/dcmitype/StillImage"/>
        <dc:title/>
      </cc:Work>
    </rdf:RDF>
  </metadata>
  <g inkscape:label="Calque 1" inkscape:groupmode="layer" id="layer1" transform="translate(-20.324426,-22.275079)">
    <g id="g4702" transform="translate(-341.43156,-406.08132)">
      <g transform="translate(327.16908,-41.672562)" id="g4158">
        <rect ry="9.8375502" y="470.02896" x="34.586906" height="151.52287" width="151.52289" id="rect4184" style="color:#000000;clip-rule:nonzero;display:inline;overflow:visible;visibility:visible;opacity:1;isolation:auto;mix-blend-mode:normal;color-interpolation:sRGB;color-interpolation-filters:linearRGB;solid-color:#000000;solid-opacity:1;fill:#02a7f2;fill-opacity:1;fill-rule:evenodd;stroke:none;stroke-width:1px;stroke-linecap:butt;stroke-linejoin:miter;stroke-miterlimit:4;stroke-dasharray:none;stroke-dashoffset:0;stroke-opacity:1;color-rendering:auto;image-rendering:auto;shape-rendering:auto;text-rendering:auto;enable-background:accumulate"/>
      </g>
      <path sodipodi:nodetypes="cccccccc" inkscape:connector-curvature="0" id="path4220" d="m 419.91792,579.96287 -38.75,-40.62499 97.94643,-59.10715 34.10714,34.01785 0.0446,56.02679 c 0,0 -0.0783,4.05337 -2.42417,6.23693 -2.09559,2.78372 -6.10262,3.22736 -6.10262,3.22736 z" style="fill:#6b6b6b;fill-opacity:0.1592357;fill-rule:evenodd;stroke:none;stroke-width:1px;stroke-linecap:butt;stroke-linejoin:miter;stroke-opacity:1"/>
      <path inkscape:connector-curvature="0" id="path4186" d="m 425.08579,458.53385 a 32.82996,30.809652 0 0 0 -32.83008,30.80859 32.82996,30.809652 0 0 0 0.51172,5.375 25.885159,28.284271 0 0 0 -17.43164,26.69727 25.885159,28.284271 0 0 0 25.88671,28.28515 25.885159,28.284271 0 0 0 3.88086,-0.35547 l 64.73047,0 a 25.535715,24.642857 0 0 0 4.33985,0.35743 25.535715,24.642857 0 0 0 25.52539,-24.64258 l 0,-0.041 a 25.535715,24.642857 0 0 0 -19.59766,-23.89844 16.160713,16.696428 0 0 0 3.16992,-9.90039 l 0,-0.0273 a 16.160713,16.696428 0 0 0 -16.17969,-16.66992 16.160713,16.696428 0 0 0 -11.08398,4.57812 32.82996,30.809652 0 0 0 -30.92187,-20.5664 z" style="color:#000000;clip-rule:nonzero;display:inline;overflow:visible;visibility:visible;opacity:1;isolation:auto;mix-blend-mode:normal;color-interpolation:sRGB;color-interpolation-filters:linearRGB;solid-color:#000000;solid-opacity:1;fill:#ffffff;fill-opacity:1;fill-rule:evenodd;stroke:none;stroke-width:1px;stroke-linecap:butt;stroke-linejoin:miter;stroke-miterlimit:4;stroke-dasharray:none;stroke-dashoffset:0;stroke-opacity:1;color-rendering:auto;image-rendering:auto;shape-rendering:auto;text-rendering:auto;enable-background:accumulate"/>
      <path sodipodi:nodetypes="cccccccccc" inkscape:connector-curvature="0" id="path4222" d="m 427.43356,482.25117 0,24.24366 -15.65737,-0.13393 c -1.78571,0.40179 -1.26269,2.15424 -1.26269,2.15424 l 25.40307,25.59564 24.60714,-25.06124 c 0,0 0.51536,-2.59168 -1.27035,-2.68097 l -14.89975,0.12626 -0.3788,-24.36993 z" style="fill:#02a7f2;fill-opacity:1;fill-rule:evenodd;stroke:none;stroke-width:1px;stroke-linecap:butt;stroke-linejoin:miter;stroke-opacity:1"/>
    </g>
  </g>
</svg>