<?xml version="1.0" encoding="UTF-8" standalone="no"?>
<svg
   xmlns:dc="http://purl.org/dc/elements/1.1/"
   xmlns:cc="http://creativecommons.org/ns#"
   xmlns:rdf="http://www.w3.org/1999/02/22-rdf-syntax-ns#"
   xmlns:svg="http://www.w3.org/2000/svg"
   xmlns="http://www.w3.org/2000/svg"
   xmlns:sodipodi="http://sodipodi.sourceforge.net/DTD/sodipodi-0.dtd"
   xmlns:inkscape="http://www.inkscape.org/namespaces/inkscape"
   id="icon-logo"
   viewBox="0 0 95.632996 31.990852"
   version="1.1"
   sodipodi:docname="code-lutin.svg"
   inkscape:version="0.92.2 2405546, 2018-03-11"
   width="86.939087"
   height="29.082592">
  <metadata
     id="metadata15">
    <rdf:RDF>
      <cc:Work
         rdf:about="">
        <dc:format>image/svg+xml</dc:format>
        <dc:type
           rdf:resource="http://purl.org/dc/dcmitype/StillImage" />
        <dc:title>logo</dc:title>
      </cc:Work>
    </rdf:RDF>
  </metadata>
  <defs
     id="defs13" />
  <sodipodi:namedview
     pagecolor="#ffffff"
     bordercolor="#666666"
     borderopacity="1"
     objecttolerance="10"
     gridtolerance="10"
     guidetolerance="10"
     inkscape:pageopacity="0"
     inkscape:pageshadow="2"
     inkscape:window-width="1039"
     inkscape:window-height="614"
     id="namedview11"
     showgrid="false"
     inkscape:zoom="3.3020833"
     inkscape:cx="-36.492115"
     inkscape:cy="13.086773"
     inkscape:window-x="0"
     inkscape:window-y="31"
     inkscape:window-maximized="0"
     inkscape:current-layer="icon-logo"
     scale-x="1.1"
     fit-margin-top="0"
     fit-margin-left="0"
     fit-margin-right="0"
     fit-margin-bottom="0" />
  <title
     id="title2">logo</title>
  <path
     style="fill:#000000"
     d="m 28.322,19.077638 c -0.02,0.593 -0.163,1.144 -0.388,1.635 -0.225,0.491 -0.552,0.92 -0.96,1.267 -0.408,0.347 -0.899,0.633 -1.471,0.817 -0.572,0.204 -1.206,0.286 -1.921,0.286 -0.756,0 -1.451,-0.123 -2.043,-0.388 -0.592,-0.265 -1.103,-0.633 -1.533,-1.103 -0.409,-0.47 -0.736,-1.063 -0.96,-1.757 -0.224,-0.694 -0.327,-1.471 -0.327,-2.329 v -0.613 c 0,-0.858 0.123,-1.635 0.347,-2.329 0.224,-0.694 0.552,-1.267 0.981,-1.757 0.429,-0.49 0.92,-0.858 1.512,-1.103 0.593,-0.266 1.247,-0.388 1.982,-0.388 0.735,0 1.41,0.102 1.982,0.306 0.572,0.204 1.063,0.49 1.451,0.858 0.388,0.368 0.715,0.797 0.94,1.308 0.225,0.511 0.368,1.042 0.409,1.635 h -2.759 c -0.02,-0.327 -0.061,-0.593 -0.123,-0.858 -0.082,-0.245 -0.204,-0.45 -0.368,-0.613 -0.164,-0.163 -0.368,-0.286 -0.613,-0.368 -0.245,-0.082 -0.552,-0.123 -0.92,-0.123 -0.347,0 -0.633,0.061 -0.879,0.184 -0.246,0.123 -0.47,0.327 -0.633,0.593 -0.163,0.266 -0.286,0.633 -0.368,1.063 -0.082,0.429 -0.123,0.96 -0.123,1.553 v 0.633 c 0,0.613 0.041,1.124 0.102,1.553 0.082,0.429 0.184,0.776 0.347,1.063 0.163,0.266 0.368,0.47 0.633,0.593 0.265,0.123 0.572,0.184 0.96,0.184 0.633,0 1.124,-0.143 1.451,-0.45 0.327,-0.307 0.511,-0.776 0.531,-1.43 h 2.759 v 0.082 z m 0.858,-0.45 c 0,-0.613 0.082,-1.185 0.266,-1.716 0.184,-0.531 0.45,-0.981 0.776,-1.369 0.347,-0.388 0.776,-0.695 1.287,-0.899 0.511,-0.225 1.103,-0.327 1.757,-0.327 0.674,0 1.267,0.102 1.778,0.327 0.511,0.225 0.94,0.511 1.287,0.899 0.347,0.388 0.613,0.838 0.776,1.369 0.184,0.531 0.266,1.103 0.266,1.716 v 0.163 c 0,0.633 -0.082,1.206 -0.266,1.716 -0.184,0.531 -0.429,0.981 -0.776,1.369 -0.347,0.388 -0.776,0.695 -1.287,0.899 -0.511,0.225 -1.103,0.327 -1.757,0.327 -0.674,0 -1.246,-0.102 -1.757,-0.327 -0.511,-0.225 -0.94,-0.511 -1.287,-0.899 -0.347,-0.388 -0.613,-0.838 -0.797,-1.369 -0.184,-0.531 -0.266,-1.103 -0.266,-1.716 z m 2.636,0.163 c 0,0.327 0.02,0.613 0.061,0.899 0.041,0.286 0.123,0.511 0.245,0.715 0.122,0.204 0.266,0.368 0.45,0.49 0.184,0.122 0.429,0.184 0.715,0.184 0.286,0 0.511,-0.061 0.695,-0.184 0.184,-0.123 0.327,-0.286 0.45,-0.49 0.102,-0.204 0.184,-0.45 0.245,-0.715 0.041,-0.286 0.061,-0.572 0.061,-0.899 v -0.163 c 0,-0.306 -0.02,-0.593 -0.061,-0.879 -0.041,-0.286 -0.123,-0.511 -0.245,-0.736 -0.123,-0.204 -0.266,-0.368 -0.45,-0.49 -0.184,-0.122 -0.429,-0.184 -0.715,-0.184 -0.286,0 -0.511,0.061 -0.695,0.184 -0.184,0.123 -0.327,0.286 -0.45,0.49 -0.102,0.204 -0.184,0.45 -0.245,0.736 -0.041,0.286 -0.061,0.572 -0.061,0.879 z m 6.396,-0.143 c 0,-0.654 0.061,-1.226 0.204,-1.778 0.143,-0.531 0.347,-1.001 0.633,-1.369 0.286,-0.388 0.613,-0.674 1.042,-0.879 0.409,-0.204 0.899,-0.306 1.43,-0.306 0.409,0 0.756,0.082 1.083,0.245 0.306,0.163 0.593,0.368 0.838,0.654 v -4.332 h 2.656 v 12.077 h -2.391 l -0.143,-0.92 c -0.245,0.327 -0.552,0.593 -0.879,0.776 -0.347,0.184 -0.736,0.286 -1.185,0.286 -0.531,0 -1.022,-0.102 -1.43,-0.327 -0.408,-0.225 -0.756,-0.511 -1.022,-0.899 -0.286,-0.388 -0.49,-0.838 -0.633,-1.369 -0.143,-0.531 -0.204,-1.103 -0.204,-1.716 v -0.143 z m 2.656,0.164 c 0,0.327 0.02,0.613 0.061,0.899 0.041,0.266 0.123,0.511 0.225,0.715 0.102,0.204 0.245,0.368 0.409,0.47 0.163,0.123 0.388,0.163 0.633,0.163 0.306,0 0.552,-0.061 0.756,-0.184 0.204,-0.123 0.368,-0.306 0.49,-0.552 v -3.229 c -0.245,-0.511 -0.654,-0.756 -1.246,-0.756 -0.245,0 -0.45,0.061 -0.633,0.163 -0.163,0.123 -0.306,0.286 -0.409,0.49 -0.103,0.204 -0.184,0.45 -0.225,0.736 -0.041,0.286 -0.061,0.593 -0.061,0.92 v 0.163 z m 10.851,4.291 c -0.695,0 -1.308,-0.102 -1.859,-0.327 -0.551,-0.225 -1.001,-0.511 -1.369,-0.899 -0.368,-0.368 -0.654,-0.817 -0.858,-1.308 -0.204,-0.491 -0.286,-1.022 -0.286,-1.594 v -0.306 c 0,-0.613 0.082,-1.206 0.245,-1.737 0.163,-0.531 0.429,-1.001 0.776,-1.39 0.347,-0.389 0.776,-0.695 1.287,-0.92 0.511,-0.225 1.103,-0.347 1.778,-0.347 0.593,0 1.144,0.102 1.614,0.286 0.47,0.184 0.879,0.47 1.226,0.838 0.327,0.368 0.593,0.797 0.756,1.308 0.184,0.511 0.266,1.083 0.266,1.737 v 1.083 h -5.272 c 0.102,0.47 0.306,0.858 0.613,1.124 0.327,0.266 0.736,0.409 1.246,0.409 0.368,0 0.715,-0.061 1.063,-0.204 0.348,-0.143 0.654,-0.368 0.899,-0.674 l 1.206,1.43 c -0.143,0.184 -0.306,0.368 -0.531,0.552 -0.204,0.184 -0.45,0.327 -0.736,0.47 -0.286,0.143 -0.593,0.245 -0.96,0.347 -0.327,0.082 -0.695,0.123 -1.103,0.123 z m -0.306,-6.764 c -0.225,0 -0.429,0.041 -0.572,0.123 -0.163,0.082 -0.306,0.184 -0.409,0.327 -0.103,0.143 -0.184,0.306 -0.245,0.49 -0.061,0.184 -0.102,0.388 -0.143,0.613 h 2.677 v -0.204 c 0.02,-0.429 -0.102,-0.756 -0.327,-0.981 -0.225,-0.245 -0.552,-0.368 -0.981,-0.368 z"
     id="path4"
     inkscape:connector-curvature="0" />
  <path
     style="fill:#ff6600"
     d="m 8.766,27.986638 c -0.368,0.225 -0.736,0.388 -1.144,0.531 -0.286,0.082 -0.49,0.368 -0.47,0.674 0.02,0.511 0.225,1.063 0.593,1.573 0.777,1.083 2.003,1.533 2.718,1.001 0.736,-0.531 0.695,-1.819 -0.082,-2.902 -0.266,-0.388 -0.593,-0.674 -0.94,-0.899 -0.184,-0.123 -0.47,-0.123 -0.674,0.02 z m -5.047,0.082 c -0.225,-0.123 -0.531,-0.123 -0.736,0.041 -0.266,0.204 -0.531,0.45 -0.756,0.756 -0.776,1.083 -0.797,2.391 -0.082,2.902 0.736,0.531 1.962,0.082 2.718,-1.001 0.327,-0.47 0.531,-0.981 0.593,-1.471 0.041,-0.327 -0.184,-0.654 -0.511,-0.736 -0.409,-0.082 -0.817,-0.266 -1.226,-0.49 z m 2.493,-12.731 c 2.146,0 3.719,-1.962 3.29,-4.046 C 8.909,8.4516376 8.276,7.0416376 8.01,5.0996376 c -0.102,-0.674 -0.654,-3.351 0.123,-3.821 1.246,-0.75600003 0.96,1.246 1.042,1.349 0.429,0.654 1.042,-0.92 0.797,-1.69600003 -0.306,-1.001 -1.39,-1.063 -2.268,-0.797 -1.614,0.511 -2.452,2.80000003 -2.963,4.20900003 -0.776,2.105 -1.471,3.985 -1.941,7.1520004 -0.286,2.023 1.267,3.842 3.331,3.842 h 0.082 z m -0.041,12.118 c -2.023,0 -3.821,-1.328 -4.598,-3.372 -0.143,-0.347 -0.347,-0.695 -0.613,-1.001 -0.633,-0.674 -0.96,-1.471 -0.96,-2.268 0,-1.165 0.654,-2.227 1.859,-3.045 1.165,-0.776 2.697,-1.206 4.312,-1.206 1.615,0 3.167,0.429 4.312,1.206 1.185,0.797 1.86,1.88 1.86,3.045 0,0.817 -0.327,1.594 -0.96,2.268 -0.286,0.306 -0.49,0.633 -0.633,1.001 -0.756,2.064 -2.575,3.372 -4.577,3.372 z"
     id="path6"
     inkscape:connector-curvature="0" />
  <path
     style="fill:#000000"
     d="m 63.264,20.834638 h 4.802 v 2.125 h -7.561 v -11.443 h 2.759 z m 10.79,1.206 c -0.266,0.347 -0.593,0.613 -0.96,0.797 -0.367,0.184 -0.817,0.286 -1.308,0.286 -0.429,0 -0.797,-0.061 -1.144,-0.184 -0.347,-0.123 -0.654,-0.306 -0.899,-0.552 -0.245,-0.246 -0.45,-0.572 -0.572,-0.981 -0.143,-0.409 -0.204,-0.879 -0.204,-1.451 v -5.497 h 2.656 v 5.517 c 0,0.368 0.082,0.654 0.266,0.838 0.184,0.184 0.45,0.266 0.797,0.266 0.327,0 0.593,-0.061 0.797,-0.163 0.204,-0.123 0.368,-0.266 0.49,-0.47 v -5.967 h 2.656 v 8.501 h -2.493 z m 7.111,-9.707 v 2.125 h 1.39 v 1.839 h -1.39 v 3.883 c 0,0.163 0.02,0.306 0.041,0.409 0.021,0.103 0.082,0.204 0.143,0.266 0.061,0.062 0.163,0.102 0.266,0.143 0.102,0.02 0.245,0.041 0.409,0.041 0.143,0 0.286,0 0.368,-0.02 0.102,0 0.184,-0.02 0.286,-0.041 v 1.9 c -0.225,0.082 -0.47,0.123 -0.715,0.163 -0.245,0.04 -0.511,0.061 -0.776,0.061 -0.429,0 -0.797,-0.041 -1.144,-0.143 -0.327,-0.102 -0.613,-0.245 -0.838,-0.47 -0.225,-0.204 -0.409,-0.47 -0.511,-0.817 -0.123,-0.327 -0.184,-0.736 -0.184,-1.185 v -4.23 h -1.083 v -1.839 h 1.083 v -2.125 h 2.656 v 0.041 z m 5.231,10.626 H 83.74 v -5.783 h 2.656 z m 4.066,-8.501 0.082,1.001 c 0.286,-0.368 0.633,-0.674 1.042,-0.858 0.409,-0.204 0.879,-0.286 1.39,-0.286 0.388,0 0.756,0.061 1.083,0.163 0.327,0.123 0.613,0.306 0.838,0.552 0.245,0.266 0.409,0.593 0.552,1.022 0.123,0.429 0.184,0.94 0.184,1.553 v 5.354 h -2.656 v -5.354 c 0,-0.266 -0.02,-0.47 -0.082,-0.633 -0.062,-0.163 -0.143,-0.286 -0.245,-0.388 -0.102,-0.102 -0.225,-0.163 -0.368,-0.184 -0.143,-0.041 -0.327,-0.061 -0.511,-0.061 -0.286,0 -0.511,0.061 -0.695,0.163 -0.184,0.102 -0.327,0.266 -0.45,0.45 v 6.008 H 87.97 v -8.501 h 2.493 z m -5.353,1.86 c 0.879,0 1.553,-0.817 1.369,-1.676 -0.245,-1.165 -0.511,-1.757 -0.613,-2.575 -0.041,-0.286 -0.266,-1.39 0.061,-1.594 0.511,-0.327 0.409,0.511 0.429,0.572 0.184,0.266 0.429,-0.388 0.327,-0.715 -0.123,-0.4090004 -0.572,-0.4500004 -0.94,-0.327 -0.674,0.204 -1.022,1.165 -1.226,1.737 -0.327,0.879 -0.613,1.655 -0.797,2.963 -0.123,0.838 0.531,1.594 1.369,1.594 h 0.02 v 0.02 z"
     id="path8"
     inkscape:connector-curvature="0" />
</svg>
