<?xml version="1.0" encoding="UTF-8" standalone="no"?>
<svg
   xmlns:dc="http://purl.org/dc/elements/1.1/"
   xmlns:cc="http://creativecommons.org/ns#"
   xmlns:rdf="http://www.w3.org/1999/02/22-rdf-syntax-ns#"
   xmlns:svg="http://www.w3.org/2000/svg"
   xmlns="http://www.w3.org/2000/svg"
   xmlns:sodipodi="http://sodipodi.sourceforge.net/DTD/sodipodi-0.dtd"
   xmlns:inkscape="http://www.inkscape.org/namespaces/inkscape"
   viewBox="0 0 1280 640"
   version="1.1"
   id="svg4585"
   inkscape:version="0.92.2 2405546, 2018-03-11"
   sodipodi:docname="readflow.svg"
   width="1280"
   height="640"
   inkscape:export-filename="/home/nicolas/workspace/readflow/readflow.svg.png"
   inkscape:export-xdpi="96"
   inkscape:export-ydpi="96">
  <sodipodi:namedview
     pagecolor="#ffffff"
     bordercolor="#666666"
     borderopacity="1"
     objecttolerance="10"
     gridtolerance="10"
     guidetolerance="10"
     inkscape:pageopacity="0"
     inkscape:pageshadow="2"
     inkscape:window-width="1920"
     inkscape:window-height="922"
     id="namedview25"
     showgrid="false"
     inkscape:zoom="0.37473685"
     inkscape:cx="602.64084"
     inkscape:cy="236.19005"
     inkscape:window-x="0"
     inkscape:window-y="31"
     inkscape:window-maximized="1"
     inkscape:current-layer="text838" />
  <metadata
     id="metadata4589">
    <rdf:RDF>
      <cc:Work
         rdf:about="">
        <dc:format>image/svg+xml</dc:format>
        <dc:type
           rdf:resource="http://purl.org/dc/dcmitype/StillImage" />
        <dc:title>integration-tile</dc:title>
      </cc:Work>
    </rdf:RDF>
  </metadata>
  <defs
     id="defs4559">
    <style
       id="style4557">.a{fill:#c73a63;}.b{fill:#4b4b4b;}.c{fill:#4a4a4a;}</style>
  </defs>
  <title
     id="title4561">integration-tile</title>
  <g
     aria-label="flow"
     style="font-style:italic;font-variant:normal;font-weight:normal;font-stretch:normal;font-size:64px;line-height:125%;font-family:'Brush Script MT';-inkscape-font-specification:'Brush Script MT, Italic';font-variant-ligatures:normal;font-variant-caps:normal;font-variant-numeric:normal;font-feature-settings:normal;text-align:start;letter-spacing:0px;word-spacing:0px;writing-mode:lr-tb;text-anchor:start;fill:#374845;fill-opacity:1;stroke:none;stroke-width:1px;stroke-linecap:butt;stroke-linejoin:miter;stroke-opacity:1"
     id="text838"
     transform="translate(0,430)">
    <g
       transform="matrix(2.7514425,2.7514425,-2.7514425,2.7514425,374.78324,-410.40442)"
       id="g4181"
       style="fill:#009be5;fill-opacity:1">
      <g
         id="g4149"
         transform="matrix(-0.26068838,-0.26068838,0.26068838,-0.26068838,-3.5884967,84.826762)"
         style="fill:#009be5;fill-opacity:1">
        <ellipse
           style="fill:#009be5;fill-opacity:1"
           id="ellipse4137"
           ry="13.714"
           rx="13.566"
           cy="86.286003"
           cx="13.566"
           transform="translate(-103.05255,144.73673)" />
        <path
           style="fill:#009be5;fill-opacity:1"
           id="path4139"
           d="M 65.569,100 H 46.35 C 46.35,74.121 25.598,53.142 0,53.142 v 0 -19.427 c 36.214,0 65.569,29.676 65.569,66.285 z"
           inkscape:connector-curvature="0"
           transform="translate(-103.05255,144.73673)" />
        <path
           style="fill:#009be5;fill-opacity:1"
           id="path4141"
           d="M 79.135,100 C 79.135,55.817 43.706,20 0,20 V 0 c 54.631,0 98.918,44.772 98.918,100 z"
           inkscape:connector-curvature="0"
           transform="translate(-103.05255,144.73673)" />
      </g>
    </g>
    <g
       aria-label="read"
       style="font-style:normal;font-variant:normal;font-weight:bold;font-stretch:normal;font-size:40px;line-height:125%;font-family:Calibri;-inkscape-font-specification:'Calibri, Bold';font-variant-ligatures:normal;font-variant-caps:normal;font-variant-numeric:normal;font-feature-settings:normal;text-align:start;letter-spacing:0px;word-spacing:0px;writing-mode:lr-tb;text-anchor:start;fill:#009be5;fill-opacity:1;stroke:none;stroke-width:1px;stroke-linecap:butt;stroke-linejoin:miter;stroke-opacity:1"
       id="text834"
       transform="matrix(2.4898159,0,0,2.4898159,48.668742,-371.43068)">
      <path
         d="m 196.37248,101.37891 q 0,0.84375 -0.0469,1.38281 -0.0469,0.53906 -0.14063,0.84375 -0.0937,0.30469 -0.25781,0.42187 -0.14063,0.11719 -0.375,0.11719 -0.1875,0 -0.42188,-0.0703 -0.23437,-0.0937 -0.53906,-0.1875 -0.28125,-0.0937 -0.63281,-0.16406 -0.35156,-0.0937 -0.77344,-0.0937 -0.49219,0 -0.98437,0.21093 -0.49219,0.1875 -1.03125,0.60938 -0.51563,0.42187 -1.10157,1.125 -0.5625,0.70312 -1.21875,1.73437 v 13.03125 q 0,0.23438 -0.14062,0.42188 -0.14063,0.16406 -0.49219,0.28125 -0.32812,0.11719 -0.89062,0.16406 -0.5625,0.0703 -1.42969,0.0703 -0.86719,0 -1.42969,-0.0703 -0.5625,-0.0469 -0.91406,-0.16406 -0.32813,-0.11719 -0.46875,-0.28125 -0.14063,-0.1875 -0.14063,-0.42188 V 99.433594 q 0,-0.234375 0.11719,-0.398438 0.11719,-0.1875 0.42188,-0.304687 0.30468,-0.117188 0.77343,-0.164063 0.49219,-0.07031 1.21875,-0.07031 0.75,0 1.24219,0.07031 0.49219,0.04687 0.75,0.164063 0.28125,0.117187 0.39844,0.304687 0.11719,0.164063 0.11719,0.398438 v 2.601566 q 0.82031,-1.17188 1.54687,-1.92188 0.72656,-0.773436 1.38281,-1.218749 0.65625,-0.445312 1.3125,-0.609375 0.65625,-0.1875 1.3125,-0.1875 0.30469,0 0.65625,0.04687 0.35157,0.02344 0.72657,0.117188 0.375,0.07031 0.65625,0.1875 0.28125,0.09375 0.39843,0.210937 0.14063,0.117188 0.1875,0.257813 0.0703,0.140625 0.11719,0.398437 0.0469,0.234375 0.0703,0.726559 0.0234,0.49219 0.0234,1.33594 z"
         style="font-style:normal;font-variant:normal;font-weight:bold;font-stretch:normal;font-size:48px;font-family:Calibri;-inkscape-font-specification:'Calibri, Bold';font-variant-ligatures:normal;font-variant-caps:normal;font-variant-numeric:normal;font-feature-settings:normal;text-align:start;writing-mode:lr-tb;text-anchor:start;fill:#009be5;fill-opacity:1"
         id="path897"
         inkscape:connector-curvature="0" />
      <path
         d="m 218.75529,109.27734 q 0,1.07813 -0.49218,1.59375 -0.46875,0.51563 -1.3125,0.51563 h -12.72657 q 0,1.33594 0.30469,2.4375 0.32813,1.07812 1.00781,1.85156 0.70313,0.75 1.78125,1.14844 1.10157,0.39844 2.625,0.39844 1.54688,0 2.71875,-0.21094 1.17188,-0.23438 2.01563,-0.49219 0.86719,-0.28125 1.42969,-0.49219 0.5625,-0.23437 0.91406,-0.23437 0.21094,0 0.35156,0.0937 0.14063,0.0703 0.23438,0.28125 0.0937,0.21094 0.11718,0.60937 0.0469,0.375 0.0469,0.96094 0,0.51563 -0.0234,0.89063 -0.0234,0.35156 -0.0703,0.60937 -0.0469,0.25781 -0.14063,0.44531 -0.0937,0.16407 -0.25781,0.32813 -0.14062,0.16406 -0.82031,0.44531 -0.67969,0.28125 -1.73438,0.5625 -1.05468,0.25781 -2.41406,0.44531 -1.35937,0.21094 -2.90625,0.21094 -2.78906,0 -4.89844,-0.70312 -2.08593,-0.70313 -3.49218,-2.13282 -1.40625,-1.42968 -2.10938,-3.60937 -0.67969,-2.17969 -0.67969,-5.10938 0,-2.78906 0.72657,-5.01562 0.72656,-2.25 2.10937,-3.79688 1.38281,-1.570309 3.35156,-2.390621 1.99219,-0.820313 4.47657,-0.820313 2.625,0 4.47656,0.773438 1.875,0.773437 3.07031,2.156246 1.19531,1.35938 1.75781,3.23438 0.5625,1.875 0.5625,4.07812 z m -5.71875,-1.6875 q 0.0703,-2.48437 -1.00781,-3.89062 -1.05469,-1.42969 -3.28125,-1.42969 -1.125,0 -1.96875,0.42188 -0.82031,0.42187 -1.38281,1.14843 -0.53906,0.70313 -0.84375,1.6875 -0.28125,0.96094 -0.32813,2.0625 z"
         style="font-style:normal;font-variant:normal;font-weight:bold;font-stretch:normal;font-size:48px;font-family:Calibri;-inkscape-font-specification:'Calibri, Bold';font-variant-ligatures:normal;font-variant-caps:normal;font-variant-numeric:normal;font-feature-settings:normal;text-align:start;writing-mode:lr-tb;text-anchor:start;fill:#009be5;fill-opacity:1"
         id="path899"
         inkscape:connector-curvature="0" />
      <path
         d="m 241.44279,120.41016 q 0,0.32812 -0.23437,0.51562 -0.23438,0.1875 -0.75,0.25781 -0.49219,0.0937 -1.47656,0.0937 -1.05469,0 -1.54688,-0.0937 -0.46875,-0.0703 -0.67969,-0.25781 -0.1875,-0.1875 -0.1875,-0.51562 v -1.66407 q -1.28906,1.38282 -2.95312,2.15625 -1.64063,0.77344 -3.65625,0.77344 -1.66406,0 -3.07031,-0.44531 -1.38282,-0.42188 -2.41407,-1.26563 -1.00781,-0.86718 -1.57031,-2.13281 -0.5625,-1.26562 -0.5625,-2.95312 0,-1.82813 0.70313,-3.16407 0.72656,-1.35937 2.13281,-2.22656 1.42969,-0.89062 3.53906,-1.3125 2.10938,-0.42187 4.89844,-0.42187 h 2.03906 v -1.26563 q 0,-0.98437 -0.21094,-1.71094 -0.1875,-0.75 -0.65625,-1.24218 -0.44531,-0.49219 -1.21875,-0.72657 -0.75,-0.23437 -1.875,-0.23437 -1.47656,0 -2.64843,0.32812 -1.14844,0.32813 -2.03907,0.72657 -0.89062,0.39843 -1.5,0.72656 -0.58593,0.32812 -0.96093,0.32812 -0.25782,0 -0.46875,-0.16406 -0.1875,-0.16406 -0.32813,-0.46875 -0.11719,-0.30469 -0.1875,-0.75 -0.0703,-0.44531 -0.0703,-0.98437 0,-0.72657 0.11719,-1.14844 0.11718,-0.42188 0.44531,-0.75 0.32812,-0.35156 1.14844,-0.750001 0.82031,-0.421875 1.92187,-0.773438 1.10156,-0.351562 2.39063,-0.5625 1.3125,-0.234375 2.69531,-0.234375 2.46094,0 4.19531,0.492188 1.75781,0.46875 2.88281,1.476566 1.125,0.98437 1.64063,2.55468 0.51562,1.57032 0.51562,3.72657 z m -5.78906,-8.95313 h -2.25 q -1.42969,0 -2.4375,0.21094 -1.00781,0.21094 -1.64062,0.63281 -0.63282,0.42188 -0.9375,1.03125 -0.28125,0.58594 -0.28125,1.35938 0,1.3125 0.82031,2.0625 0.84375,0.75 2.32031,0.75 1.24219,0 2.27344,-0.63282 1.05469,-0.63281 2.13281,-1.85156 z"
         style="font-style:normal;font-variant:normal;font-weight:bold;font-stretch:normal;font-size:48px;font-family:Calibri;-inkscape-font-specification:'Calibri, Bold';font-variant-ligatures:normal;font-variant-caps:normal;font-variant-numeric:normal;font-feature-settings:normal;text-align:start;writing-mode:lr-tb;text-anchor:start;fill:#009be5;fill-opacity:1"
         id="path901"
         inkscape:connector-curvature="0" />
      <path
         d="m 267.17717,120.33984 q 0,0.25782 -0.11719,0.44532 -0.11719,0.16406 -0.39844,0.28125 -0.28125,0.11718 -0.77343,0.16406 -0.46875,0.0469 -1.17188,0.0469 -0.75,0 -1.21875,-0.0469 -0.46875,-0.0469 -0.77344,-0.16406 -0.28125,-0.11719 -0.42187,-0.28125 -0.11719,-0.1875 -0.11719,-0.44532 v -2.32031 q -1.61719,1.73438 -3.39844,2.69531 -1.75781,0.96094 -3.91406,0.96094 -2.39062,0 -4.05469,-0.91406 -1.64062,-0.9375 -2.69531,-2.50781 -1.03125,-1.57032 -1.5,-3.65625 -0.46875,-2.10938 -0.46875,-4.42969 0,-2.78906 0.58594,-5.01563 0.60937,-2.22656 1.75781,-3.79687 1.14844,-1.570314 2.85938,-2.414064 1.71093,-0.84375 3.9375,-0.84375 1.75781,0 3.1875,0.726563 1.42968,0.703125 2.83593,2.085941 V 89.589844 q 0,-0.234375 0.11719,-0.421875 0.14063,-0.1875 0.46875,-0.304688 0.35156,-0.140625 0.91406,-0.210937 0.5625,-0.07031 1.42969,-0.07031 0.86719,0 1.42969,0.07031 0.5625,0.07031 0.89062,0.210937 0.32813,0.117188 0.46875,0.304688 0.14063,0.1875 0.14063,0.421875 z m -5.85938,-13.96875 q -1.26562,-1.59375 -2.4375,-2.4375 -1.14843,-0.84375 -2.41406,-0.84375 -1.14844,0 -1.99219,0.58594 -0.82031,0.5625 -1.33593,1.52344 -0.49219,0.96094 -0.75,2.15625 -0.23438,1.17187 -0.23438,2.41406 0,1.3125 0.21094,2.55469 0.21094,1.24219 0.67969,2.22656 0.49218,0.96094 1.28906,1.54688 0.79687,0.58593 2.01562,0.58593 0.60938,0 1.17188,-0.16406 0.58594,-0.1875 1.17187,-0.58594 0.60938,-0.39843 1.24219,-1.03125 0.63281,-0.65625 1.38281,-1.59375 z"
         style="font-style:normal;font-variant:normal;font-weight:bold;font-stretch:normal;font-size:48px;font-family:Calibri;-inkscape-font-specification:'Calibri, Bold';font-variant-ligatures:normal;font-variant-caps:normal;font-variant-numeric:normal;font-feature-settings:normal;text-align:start;writing-mode:lr-tb;text-anchor:start;fill:#009be5;fill-opacity:1"
         id="path903"
         inkscape:connector-curvature="0" />
    </g>
    <g
       id="g4588"
       style="fill:#ff7f2a;fill-opacity:1">
      <path
         inkscape:connector-curvature="0"
         id="path890"
         style="font-style:normal;font-variant:normal;font-weight:bold;font-stretch:normal;font-size:48px;font-family:Calibri;-inkscape-font-specification:'Calibri, Bold';font-variant-ligatures:normal;font-variant-caps:normal;font-variant-numeric:normal;font-feature-settings:normal;text-align:start;writing-mode:lr-tb;text-anchor:start;fill:#ff7f2a;fill-opacity:1;stroke-width:2.48981595px"
         d="m 782.42192,-71.806633 q 0,0.583563 -0.35012,1.050404 -0.35014,0.408479 -1.1671,0.70026 -0.81698,0.291782 -2.27587,0.408479 -1.40052,0.175035 -3.5013,0.175035 -2.15912,0 -3.618,-0.175035 -1.40052,-0.116772 -2.21751,-0.408479 -0.81695,-0.291781 -1.1671,-0.70026 -0.35011,-0.466841 -0.35011,-1.050404 v -67.575147 q -0.17504,0.35013 -0.52521,0.52519 -0.29178,0.17506 -0.75862,0.17506 -0.6419,0 -1.69228,-0.23342 -1.0504,-0.23342 -2.3342,-0.40849 -1.28382,-0.23342 -2.56762,-0.29177 -1.22546,-0.1167 -2.45093,-0.1167 -2.62598,0 -4.37662,0.5252 -1.75066,0.52519 -2.80104,1.63394 -0.99204,1.05039 -1.40052,2.80104 -0.40848,1.75065 -0.40848,4.14321 v 4.78512 h 8.63655 q 0.58353,0 0.99201,0.29177 0.46684,0.29178 0.75863,0.99204 0.29178,0.6419 0.40847,1.809 0.17504,1.16711 0.17504,2.85939 0,3.20954 -0.58356,4.61007 -0.58354,1.34216 -1.69231,1.34216 h -8.69488 v 42.132337 q 0,0.583563 -0.35015,1.050404 -0.35011,0.408479 -1.1671,0.70026 -0.81696,0.291782 -2.27584,0.408479 -1.40052,0.175035 -3.55966,0.175035 -2.10078,0 -3.55967,-0.175035 -1.40052,-0.116772 -2.27584,-0.408479 -0.81696,-0.291781 -1.1671,-0.70026 -0.29178,-0.466841 -0.29178,-1.050404 v -42.132337 h -6.53577 q -1.10874,0 -1.69228,-1.34216 -0.5252,-1.40053 -0.5252,-4.61007 0,-1.69228 0.11677,-2.85939 0.17504,-1.1671 0.40851,-1.809 0.29175,-0.70026 0.70026,-0.99204 0.46684,-0.29177 1.05038,-0.29177 h 6.4774 v -4.49334 q 0,-5.25196 1.1671,-9.2201 1.16711,-4.0265 3.67639,-6.65248 2.56762,-2.68433 6.41905,-3.96815 3.90978,-1.34216 9.39517,-1.34216 1.57558,0 3.32624,0.1167 1.809,0.1167 3.50131,0.35013 1.69227,0.17506 2.91774,0.46684 1.22546,0.23342 1.92572,0.52519 0.70026,0.23342 1.10874,0.58355 0.40848,0.35013 0.58356,0.87533 0.0583,-0.5252 0.29176,-0.93368 0.29178,-0.40849 0.99204,-0.75862 0.75862,-0.35013 2.15914,-0.52519 1.45889,-0.23342 3.85143,-0.23342 2.10078,0 3.5013,0.17506 1.45888,0.17506 2.27587,0.52519 0.81695,0.29178 1.1671,0.75862 0.35011,0.46684 0.35011,1.05039 z" />
      <path
         inkscape:connector-curvature="0"
         id="path892"
         style="font-style:normal;font-variant:normal;font-weight:bold;font-stretch:normal;font-size:48px;font-family:Calibri;-inkscape-font-specification:'Calibri, Bold';font-variant-ligatures:normal;font-variant-caps:normal;font-variant-numeric:normal;font-feature-settings:normal;text-align:start;writing-mode:lr-tb;text-anchor:start;fill:#ff7f2a;fill-opacity:1;stroke-width:2.48981595px"
         d="m 849.88037,-98.358179 q 0,6.652489 -1.75064,12.137852 -1.75066,5.485389 -5.31033,9.453533 -3.55964,3.968144 -8.9283,6.127262 -5.36867,2.159144 -12.54636,2.159144 -6.94425,0 -12.07949,-1.925724 -5.13525,-1.925698 -8.51983,-5.602085 -3.3846,-3.676363 -5.01855,-9.045028 -1.63394,-5.368666 -1.63394,-12.254551 0,-6.652484 1.75067,-12.137854 1.809,-5.54375 5.36866,-9.45353 3.55964,-3.96814 8.86997,-6.12728 5.36867,-2.15914 12.54633,-2.15914 7.00261,0 12.13785,1.92572 5.13525,1.86736 8.46149,5.54374 3.38459,3.67636 5.01853,9.04503 1.63394,5.36866 1.63394,12.312911 z m -15.11396,0.583563 q 0,-3.851444 -0.64189,-7.060964 -0.58357,-3.26789 -2.04245,-5.66045 -1.45886,-2.39257 -3.90978,-3.73473 -2.39257,-1.34216 -6.06893,-1.34216 -3.26788,0 -5.71878,1.22547 -2.45093,1.1671 -4.02651,3.5013 -1.57558,2.27584 -2.39256,5.54372 -0.75862,3.20953 -0.75862,7.35273 0,3.851447 0.64192,7.11933 0.6419,3.209522 2.04242,5.602086 1.45888,2.392563 3.90978,3.734723 2.45093,1.283799 6.06893,1.283799 3.32624,0 5.77714,-1.167101 2.45093,-1.225437 4.02651,-3.501303 1.57558,-2.275842 2.3342,-5.485364 0.75862,-3.267883 0.75862,-7.411086 z" />
      <path
         inkscape:connector-curvature="0"
         id="path894"
         style="font-style:normal;font-variant:normal;font-weight:bold;font-stretch:normal;font-size:48px;font-family:Calibri;-inkscape-font-specification:'Calibri, Bold';font-variant-ligatures:normal;font-variant-caps:normal;font-variant-numeric:normal;font-feature-settings:normal;text-align:start;writing-mode:lr-tb;text-anchor:start;fill:#ff7f2a;fill-opacity:1;stroke-width:2.48981595px"
         d="m 940.8559,-123.97605 q 0,0.64191 -0.17503,1.57559 -0.17504,0.93368 -0.6419,2.68434 l -13.88852,47.092529 q -0.29176,0.992042 -0.7586,1.633941 -0.46684,0.583538 -1.45888,0.933681 -0.93368,0.350118 -2.74268,0.466841 -1.75066,0.116772 -4.61007,0.116772 -2.85938,0 -4.6684,-0.175034 -1.809,-0.116772 -2.85938,-0.46684 -0.99204,-0.350118 -1.45889,-0.933681 -0.46684,-0.6419 -0.70026,-1.575581 l -8.75327,-31.628458 -0.11677,-0.52517 -0.11677,0.52517 -8.05299,31.628458 q -0.23329,0.992042 -0.70026,1.633942 -0.40848,0.583538 -1.45888,0.933681 -1.05038,0.350118 -2.85941,0.46684 -1.809,0.116773 -4.6684,0.116773 -2.91774,0 -4.72674,-0.175034 -1.75067,-0.116773 -2.80104,-0.466841 -0.99205,-0.350118 -1.45889,-0.933681 -0.46684,-0.641899 -0.70026,-1.57558 l -13.77179,-47.092528 q -0.5252,-1.6923 -0.70026,-2.62598 -0.11678,-0.99204 -0.11678,-1.63395 0,-0.58355 0.29179,-0.99203 0.35014,-0.46685 1.1671,-0.70027 0.87532,-0.29177 2.27584,-0.40848 1.45888,-0.1167 3.61802,-0.1167 2.33421,0 3.79309,0.1167 1.45886,0.1167 2.27584,0.40848 0.81696,0.29178 1.10874,0.81698 0.35014,0.46684 0.5252,1.1671 l 10.32885,38.222565 0.11678,0.70026 0.11677,-0.70026 9.68693,-38.222565 q 0.17503,-0.70026 0.5252,-1.1671 0.40848,-0.5252 1.1671,-0.81698 0.75862,-0.29177 2.10078,-0.40848 1.40052,-0.1167 3.55967,-0.1167 2.15912,0 3.5013,0.17506 1.34216,0.1167 2.10078,0.40849 0.81696,0.23342 1.10874,0.70026 0.35012,0.40848 0.5252,0.99203 l 10.38719,38.514346 0.17504,0.641899 0.11677,-0.70026 9.92035,-38.222565 q 0.11677,-0.70026 0.46684,-1.1671 0.35014,-0.52519 1.1671,-0.81697 0.81698,-0.29177 2.2175,-0.40848 1.40052,-0.1167 3.55967,-0.1167 2.15912,0 3.5013,0.1167 1.40052,0.1167 2.15912,0.40848 0.81698,0.23342 1.10877,0.70026 0.29175,0.40849 0.29175,0.99204 z" />
    </g>
  </g>
</svg>
