<?xml version="1.0" encoding="UTF-8" standalone="no"?>
<svg
   xmlns:dc="http://purl.org/dc/elements/1.1/"
   xmlns:cc="http://creativecommons.org/ns#"
   xmlns:rdf="http://www.w3.org/1999/02/22-rdf-syntax-ns#"
   xmlns:svg="http://www.w3.org/2000/svg"
   xmlns="http://www.w3.org/2000/svg"
   xmlns:sodipodi="http://sodipodi.sourceforge.net/DTD/sodipodi-0.dtd"
   xmlns:inkscape="http://www.inkscape.org/namespaces/inkscape"
   viewBox="0 0 475 210"
   version="1.1"
   id="svg4585"
   inkscape:version="0.92.3 (2405546, 2018-03-11)"
   sodipodi:docname="readflow.svg">
  <sodipodi:namedview
     pagecolor="#ffffff"
     bordercolor="#666666"
     borderopacity="1"
     objecttolerance="10"
     gridtolerance="10"
     guidetolerance="10"
     inkscape:pageopacity="0"
     inkscape:pageshadow="2"
     inkscape:window-width="1366"
     inkscape:window-height="706"
     id="namedview25"
     showgrid="false"
     inkscape:zoom="1.4989474"
     inkscape:cx="233.87099"
     inkscape:cy="90.637439"
     inkscape:window-x="-8"
     inkscape:window-y="-8"
     inkscape:window-maximized="1"
     inkscape:current-layer="text838" />
  <metadata
     id="metadata4589">
    <rdf:RDF>
      <cc:Work
         rdf:about="">
        <dc:format>image/svg+xml</dc:format>
        <dc:type
           rdf:resource="http://purl.org/dc/dcmitype/StillImage" />
        <dc:title>integration-tile</dc:title>
      </cc:Work>
    </rdf:RDF>
  </metadata>
  <defs
     id="defs4559">
    <style
       id="style4557">.a{fill:#c73a63;}.b{fill:#4b4b4b;}.c{fill:#4a4a4a;}</style>
  </defs>
  <title
     id="title4561">integration-tile</title>
  <g
     transform="matrix(1.1050787,1.1050787,-1.1050787,1.1050787,130.97936,-15.653262)"
     id="g4181"
     style="fill:#d40000">
    <g
       id="g4149"
       transform="matrix(-0.26068838,-0.26068838,0.26068838,-0.26068838,-3.5884967,84.826762)"
       style="fill:#d40000;fill-opacity:1">
      <ellipse
         style="fill:#d40000;fill-opacity:1"
         id="ellipse4137"
         ry="13.714"
         rx="13.566"
         cy="86.286003"
         cx="13.566"
         transform="translate(-103.05255,144.73673)" />
      <path
         style="fill:#d40000;fill-opacity:1"
         id="path4139"
         d="M 65.569,100 H 46.35 C 46.35,74.121 25.598,53.142 0,53.142 v 0 -19.427 c 36.214,0 65.569,29.676 65.569,66.285 z"
         inkscape:connector-curvature="0"
         transform="translate(-103.05255,144.73673)" />
      <path
         style="fill:#d40000;fill-opacity:1"
         id="path4141"
         d="M 79.135,100 C 79.135,55.817 43.706,20 0,20 V 0 c 54.631,0 98.918,44.772 98.918,100 z"
         inkscape:connector-curvature="0"
         transform="translate(-103.05255,144.73673)" />
    </g>
  </g>
  <g
     aria-label="read"
     style="font-style:normal;font-variant:normal;font-weight:bold;font-stretch:normal;font-size:40px;line-height:125%;font-family:Calibri;-inkscape-font-specification:'Calibri, Bold';font-variant-ligatures:normal;font-variant-caps:normal;font-variant-numeric:normal;font-feature-settings:normal;text-align:start;letter-spacing:0px;word-spacing:0px;writing-mode:lr-tb;text-anchor:start;fill:#d40000;fill-opacity:1;stroke:none;stroke-width:1px;stroke-linecap:butt;stroke-linejoin:miter;stroke-opacity:1"
     id="text834">
    <path
       d="m 196.37248,101.37891 q 0,0.84375 -0.0469,1.38281 -0.0469,0.53906 -0.14063,0.84375 -0.0937,0.30469 -0.25781,0.42187 -0.14063,0.11719 -0.375,0.11719 -0.1875,0 -0.42188,-0.0703 -0.23437,-0.0937 -0.53906,-0.1875 -0.28125,-0.0937 -0.63281,-0.16406 -0.35156,-0.0937 -0.77344,-0.0937 -0.49219,0 -0.98437,0.21093 -0.49219,0.1875 -1.03125,0.60938 -0.51563,0.42187 -1.10157,1.125 -0.5625,0.70312 -1.21875,1.73437 v 13.03125 q 0,0.23438 -0.14062,0.42188 -0.14063,0.16406 -0.49219,0.28125 -0.32812,0.11719 -0.89062,0.16406 -0.5625,0.0703 -1.42969,0.0703 -0.86719,0 -1.42969,-0.0703 -0.5625,-0.0469 -0.91406,-0.16406 -0.32813,-0.11719 -0.46875,-0.28125 -0.14063,-0.1875 -0.14063,-0.42188 V 99.433594 q 0,-0.234375 0.11719,-0.398438 0.11719,-0.1875 0.42188,-0.304687 0.30468,-0.117188 0.77343,-0.164063 0.49219,-0.07031 1.21875,-0.07031 0.75,0 1.24219,0.07031 0.49219,0.04687 0.75,0.164063 0.28125,0.117187 0.39844,0.304687 0.11719,0.164063 0.11719,0.398438 v 2.601566 q 0.82031,-1.17188 1.54687,-1.92188 0.72656,-0.773436 1.38281,-1.218749 0.65625,-0.445312 1.3125,-0.609375 0.65625,-0.1875 1.3125,-0.1875 0.30469,0 0.65625,0.04687 0.35157,0.02344 0.72657,0.117188 0.375,0.07031 0.65625,0.1875 0.28125,0.09375 0.39843,0.210937 0.14063,0.117188 0.1875,0.257813 0.0703,0.140625 0.11719,0.398437 0.0469,0.234375 0.0703,0.726564 0.0234,0.49219 0.0234,1.33594 z"
       style="font-style:normal;font-variant:normal;font-weight:bold;font-stretch:normal;font-size:48px;font-family:Calibri;-inkscape-font-specification:'Calibri, Bold';font-variant-ligatures:normal;font-variant-caps:normal;font-variant-numeric:normal;font-feature-settings:normal;text-align:start;writing-mode:lr-tb;text-anchor:start;fill:#d40000;fill-opacity:1"
       id="path897" />
    <path
       d="m 218.75529,109.27734 q 0,1.07813 -0.49218,1.59375 -0.46875,0.51563 -1.3125,0.51563 h -12.72657 q 0,1.33594 0.30469,2.4375 0.32813,1.07812 1.00781,1.85156 0.70313,0.75 1.78125,1.14844 1.10157,0.39844 2.625,0.39844 1.54688,0 2.71875,-0.21094 1.17188,-0.23438 2.01563,-0.49219 0.86719,-0.28125 1.42969,-0.49219 0.5625,-0.23437 0.91406,-0.23437 0.21094,0 0.35156,0.0937 0.14063,0.0703 0.23438,0.28125 0.0937,0.21094 0.11718,0.60937 0.0469,0.375 0.0469,0.96094 0,0.51563 -0.0234,0.89063 -0.0234,0.35156 -0.0703,0.60937 -0.0469,0.25781 -0.14063,0.44531 -0.0937,0.16407 -0.25781,0.32813 -0.14062,0.16406 -0.82031,0.44531 -0.67969,0.28125 -1.73438,0.5625 -1.05468,0.25781 -2.41406,0.44531 -1.35937,0.21094 -2.90625,0.21094 -2.78906,0 -4.89844,-0.70312 -2.08593,-0.70313 -3.49218,-2.13282 -1.40625,-1.42968 -2.10938,-3.60937 -0.67969,-2.17969 -0.67969,-5.10938 0,-2.78906 0.72657,-5.01562 0.72656,-2.25 2.10937,-3.79688 1.38281,-1.570309 3.35156,-2.390621 1.99219,-0.820313 4.47657,-0.820313 2.625,0 4.47656,0.773438 1.875,0.773437 3.07031,2.156246 1.19531,1.35938 1.75781,3.23438 0.5625,1.875 0.5625,4.07812 z m -5.71875,-1.6875 q 0.0703,-2.48437 -1.00781,-3.89062 -1.05469,-1.42969 -3.28125,-1.42969 -1.125,0 -1.96875,0.42188 -0.82031,0.42187 -1.38281,1.14843 -0.53906,0.70313 -0.84375,1.6875 -0.28125,0.96094 -0.32813,2.0625 z"
       style="font-style:normal;font-variant:normal;font-weight:bold;font-stretch:normal;font-size:48px;font-family:Calibri;-inkscape-font-specification:'Calibri, Bold';font-variant-ligatures:normal;font-variant-caps:normal;font-variant-numeric:normal;font-feature-settings:normal;text-align:start;writing-mode:lr-tb;text-anchor:start;fill:#d40000;fill-opacity:1"
       id="path899" />
    <path
       d="m 241.44279,120.41016 q 0,0.32812 -0.23437,0.51562 -0.23438,0.1875 -0.75,0.25781 -0.49219,0.0937 -1.47656,0.0937 -1.05469,0 -1.54688,-0.0937 -0.46875,-0.0703 -0.67969,-0.25781 -0.1875,-0.1875 -0.1875,-0.51562 v -1.66407 q -1.28906,1.38282 -2.95312,2.15625 -1.64063,0.77344 -3.65625,0.77344 -1.66406,0 -3.07031,-0.44531 -1.38282,-0.42188 -2.41407,-1.26563 -1.00781,-0.86718 -1.57031,-2.13281 -0.5625,-1.26562 -0.5625,-2.95312 0,-1.82813 0.70313,-3.16407 0.72656,-1.35937 2.13281,-2.22656 1.42969,-0.89062 3.53906,-1.3125 2.10938,-0.42187 4.89844,-0.42187 h 2.03906 v -1.26563 q 0,-0.98437 -0.21094,-1.71094 -0.1875,-0.75 -0.65625,-1.24218 -0.44531,-0.49219 -1.21875,-0.72657 -0.75,-0.23437 -1.875,-0.23437 -1.47656,0 -2.64843,0.32812 -1.14844,0.32813 -2.03907,0.72657 -0.89062,0.39843 -1.5,0.72656 -0.58593,0.32812 -0.96093,0.32812 -0.25782,0 -0.46875,-0.16406 -0.1875,-0.16406 -0.32813,-0.46875 -0.11719,-0.30469 -0.1875,-0.75 -0.0703,-0.44531 -0.0703,-0.98437 0,-0.72657 0.11719,-1.14844 0.11718,-0.42188 0.44531,-0.75 0.32812,-0.35156 1.14844,-0.750001 0.82031,-0.421875 1.92187,-0.773438 1.10156,-0.351562 2.39063,-0.5625 1.3125,-0.234375 2.69531,-0.234375 2.46094,0 4.19531,0.492188 1.75781,0.46875 2.88281,1.476566 1.125,0.98437 1.64063,2.55468 0.51562,1.57032 0.51562,3.72657 z m -5.78906,-8.95313 h -2.25 q -1.42969,0 -2.4375,0.21094 -1.00781,0.21094 -1.64062,0.63281 -0.63282,0.42188 -0.9375,1.03125 -0.28125,0.58594 -0.28125,1.35938 0,1.3125 0.82031,2.0625 0.84375,0.75 2.32031,0.75 1.24219,0 2.27344,-0.63282 1.05469,-0.63281 2.13281,-1.85156 z"
       style="font-style:normal;font-variant:normal;font-weight:bold;font-stretch:normal;font-size:48px;font-family:Calibri;-inkscape-font-specification:'Calibri, Bold';font-variant-ligatures:normal;font-variant-caps:normal;font-variant-numeric:normal;font-feature-settings:normal;text-align:start;writing-mode:lr-tb;text-anchor:start;fill:#d40000;fill-opacity:1"
       id="path901" />
    <path
       d="m 267.17717,120.33984 q 0,0.25782 -0.11719,0.44532 -0.11719,0.16406 -0.39844,0.28125 -0.28125,0.11718 -0.77343,0.16406 -0.46875,0.0469 -1.17188,0.0469 -0.75,0 -1.21875,-0.0469 -0.46875,-0.0469 -0.77344,-0.16406 -0.28125,-0.11719 -0.42187,-0.28125 -0.11719,-0.1875 -0.11719,-0.44532 v -2.32031 q -1.61719,1.73438 -3.39844,2.69531 -1.75781,0.96094 -3.91406,0.96094 -2.39062,0 -4.05469,-0.91406 -1.64062,-0.9375 -2.69531,-2.50781 -1.03125,-1.57032 -1.5,-3.65625 -0.46875,-2.10938 -0.46875,-4.42969 0,-2.78906 0.58594,-5.01563 0.60937,-2.22656 1.75781,-3.79687 1.14844,-1.570314 2.85938,-2.414064 1.71093,-0.84375 3.9375,-0.84375 1.75781,0 3.1875,0.726563 1.42968,0.703125 2.83593,2.085941 V 89.589844 q 0,-0.234375 0.11719,-0.421875 0.14063,-0.1875 0.46875,-0.304688 0.35156,-0.140625 0.91406,-0.210937 0.5625,-0.07031 1.42969,-0.07031 0.86719,0 1.42969,0.07031 0.5625,0.07031 0.89062,0.210937 0.32813,0.117188 0.46875,0.304688 0.14063,0.1875 0.14063,0.421875 z m -5.85938,-13.96875 q -1.26562,-1.59375 -2.4375,-2.4375 -1.14843,-0.84375 -2.41406,-0.84375 -1.14844,0 -1.99219,0.58594 -0.82031,0.5625 -1.33593,1.52344 -0.49219,0.96094 -0.75,2.15625 -0.23438,1.17187 -0.23438,2.41406 0,1.3125 0.21094,2.55469 0.21094,1.24219 0.67969,2.22656 0.49218,0.96094 1.28906,1.54688 0.79687,0.58593 2.01562,0.58593 0.60938,0 1.17188,-0.16406 0.58594,-0.1875 1.17187,-0.58594 0.60938,-0.39843 1.24219,-1.03125 0.63281,-0.65625 1.38281,-1.59375 z"
       style="font-style:normal;font-variant:normal;font-weight:bold;font-stretch:normal;font-size:48px;font-family:Calibri;-inkscape-font-specification:'Calibri, Bold';font-variant-ligatures:normal;font-variant-caps:normal;font-variant-numeric:normal;font-feature-settings:normal;text-align:start;writing-mode:lr-tb;text-anchor:start;fill:#d40000;fill-opacity:1"
       id="path903" />
  </g>
  <g
     aria-label="flow"
     style="font-style:italic;font-variant:normal;font-weight:normal;font-stretch:normal;font-size:64px;line-height:125%;font-family:'Brush Script MT';-inkscape-font-specification:'Brush Script MT, Italic';font-variant-ligatures:normal;font-variant-caps:normal;font-variant-numeric:normal;font-feature-settings:normal;text-align:start;letter-spacing:0px;word-spacing:0px;writing-mode:lr-tb;text-anchor:start;fill:#374845;fill-opacity:1;stroke:none;stroke-width:1px;stroke-linecap:butt;stroke-linejoin:miter;stroke-opacity:1"
     id="text838">
    <path
       d="m 294.70178,120.33984 q 0,0.23438 -0.14062,0.42188 -0.14063,0.16406 -0.46875,0.28125 -0.32813,0.11719 -0.91407,0.16406 -0.5625,0.0703 -1.40625,0.0703 -0.86718,0 -1.45312,-0.0703 -0.5625,-0.0469 -0.89063,-0.16406 -0.32812,-0.11719 -0.46875,-0.28125 -0.14062,-0.1875 -0.14062,-0.42188 V 93.199219 q -0.0703,0.140625 -0.21094,0.210937 -0.11719,0.07031 -0.30469,0.07031 -0.25781,0 -0.67968,-0.09375 -0.42188,-0.09375 -0.9375,-0.164063 -0.51563,-0.09375 -1.03125,-0.117187 -0.49219,-0.04687 -0.98438,-0.04687 -1.05469,0 -1.75781,0.210937 -0.70313,0.210938 -1.125,0.65625 -0.39844,0.421875 -0.5625,1.125 -0.16406,0.703125 -0.16406,1.664063 v 1.921875 h 3.46875 q 0.23437,0 0.39843,0.117187 0.1875,0.117188 0.30469,0.398438 0.11719,0.257812 0.16406,0.726562 0.0703,0.468754 0.0703,1.148434 0,1.28907 -0.23438,1.85157 -0.23437,0.53906 -0.67969,0.53906 h -3.49218 v 16.92187 q 0,0.23438 -0.14063,0.42188 -0.14062,0.16406 -0.46875,0.28125 -0.32812,0.11719 -0.91406,0.16406 -0.5625,0.0703 -1.42969,0.0703 -0.84375,0 -1.42969,-0.0703 -0.5625,-0.0469 -0.91406,-0.16406 -0.32812,-0.11719 -0.46875,-0.28125 -0.11719,-0.1875 -0.11719,-0.42188 v -16.92187 h -2.625 q -0.44531,0 -0.67968,-0.53906 -0.21094,-0.5625 -0.21094,-1.85157 0,-0.67968 0.0469,-1.148434 0.0703,-0.46875 0.16407,-0.726562 0.11718,-0.28125 0.28125,-0.398438 0.1875,-0.117187 0.42187,-0.117187 h 2.60156 v -1.804688 q 0,-2.109375 0.46875,-3.703125 0.46875,-1.617187 1.47657,-2.671875 1.03125,-1.078125 2.57812,-1.59375 1.57031,-0.539062 3.77344,-0.539062 0.63281,0 1.33594,0.04687 0.72656,0.04687 1.40625,0.140625 0.67968,0.07031 1.17187,0.1875 0.49219,0.09375 0.77344,0.210937 0.28125,0.09375 0.44531,0.234375 0.16406,0.140625 0.23438,0.351563 0.0234,-0.210938 0.11718,-0.375 0.11719,-0.164063 0.39844,-0.304688 0.30469,-0.140625 0.86719,-0.210937 0.58594,-0.09375 1.54687,-0.09375 0.84375,0 1.40625,0.07031 0.58594,0.07031 0.91407,0.210938 0.32812,0.117187 0.46875,0.304687 0.14062,0.1875 0.14062,0.421875 z"
       style="font-style:normal;font-variant:normal;font-weight:bold;font-stretch:normal;font-size:48px;font-family:Calibri;-inkscape-font-specification:'Calibri, Bold';font-variant-ligatures:normal;font-variant-caps:normal;font-variant-numeric:normal;font-feature-settings:normal;text-align:start;writing-mode:lr-tb;text-anchor:start;fill:#374845;fill-opacity:1"
       id="path890" />
    <path
       d="m 321.79553,109.67578 q 0,2.67188 -0.70312,4.875 -0.70313,2.20313 -2.13282,3.79688 -1.42968,1.59375 -3.58593,2.46093 -2.15625,0.86719 -5.03907,0.86719 -2.78906,0 -4.85156,-0.77344 -2.0625,-0.77343 -3.42187,-2.25 -1.35938,-1.47656 -2.01563,-3.63281 -0.65625,-2.15625 -0.65625,-4.92187 0,-2.67188 0.70313,-4.875 0.72656,-2.22657 2.15625,-3.79688 1.42968,-1.593749 3.5625,-2.460936 2.15625,-0.867188 5.03906,-0.867188 2.8125,0 4.875,0.773438 2.0625,0.75 3.39844,2.226566 1.35937,1.47656 2.01562,3.63281 0.65625,2.15625 0.65625,4.94531 z m -6.07031,0.23438 q 0,-1.54688 -0.25781,-2.83594 -0.23438,-1.3125 -0.82032,-2.27344 -0.58593,-0.96094 -1.57031,-1.5 -0.96094,-0.53906 -2.4375,-0.53906 -1.3125,0 -2.29687,0.49219 -0.98438,0.46875 -1.61719,1.40625 -0.63281,0.91406 -0.96094,2.22656 -0.30469,1.28906 -0.30469,2.95312 0,1.54688 0.25782,2.85938 0.25781,1.28906 0.82031,2.25 0.58594,0.96094 1.57031,1.5 0.98438,0.51562 2.4375,0.51562 1.33594,0 2.32031,-0.46875 0.98438,-0.49218 1.61719,-1.40625 0.63281,-0.91406 0.9375,-2.20312 0.30469,-1.3125 0.30469,-2.97656 z"
       style="font-style:normal;font-variant:normal;font-weight:bold;font-stretch:normal;font-size:48px;font-family:Calibri;-inkscape-font-specification:'Calibri, Bold';font-variant-ligatures:normal;font-variant-caps:normal;font-variant-numeric:normal;font-feature-settings:normal;text-align:start;writing-mode:lr-tb;text-anchor:start;fill:#374845;fill-opacity:1"
       id="path892" />
    <path
       d="m 358.33459,99.386719 q 0,0.257812 -0.0703,0.632811 -0.0703,0.375 -0.25781,1.07813 l -5.57813,18.91406 q -0.11718,0.39844 -0.30468,0.65625 -0.1875,0.23437 -0.58594,0.375 -0.375,0.14062 -1.10156,0.1875 -0.70313,0.0469 -1.85157,0.0469 -1.14843,0 -1.875,-0.0703 -0.72656,-0.0469 -1.14843,-0.1875 -0.39844,-0.14062 -0.58594,-0.375 -0.1875,-0.25781 -0.28125,-0.63281 l -3.51563,-12.70313 -0.0469,-0.21093 -0.0469,0.21093 -3.23437,12.70313 q -0.0937,0.39844 -0.28125,0.65625 -0.16406,0.23437 -0.58594,0.375 -0.42187,0.14062 -1.14844,0.1875 -0.72656,0.0469 -1.875,0.0469 -1.17187,0 -1.89843,-0.0703 -0.70313,-0.0469 -1.125,-0.1875 -0.39844,-0.14062 -0.58594,-0.375 -0.1875,-0.25781 -0.28125,-0.63281 l -5.53125,-18.91406 q -0.21094,-0.67969 -0.28125,-1.05469 -0.0469,-0.398439 -0.0469,-0.656251 0,-0.234375 0.11719,-0.398438 0.14063,-0.1875 0.46875,-0.28125 0.35156,-0.117187 0.91406,-0.164062 0.58594,-0.04687 1.45313,-0.04687 0.9375,0 1.52344,0.04687 0.58593,0.04687 0.91406,0.164062 0.32812,0.117188 0.44531,0.328125 0.14063,0.1875 0.21094,0.46875 l 4.14844,15.351564 0.0469,0.28125 0.0469,-0.28125 3.89062,-15.351564 q 0.0703,-0.28125 0.21094,-0.46875 0.16406,-0.210937 0.46875,-0.328125 0.30469,-0.117187 0.84375,-0.164062 0.5625,-0.04687 1.42969,-0.04687 0.86718,0 1.40625,0.07031 0.53906,0.04687 0.84375,0.164063 0.32812,0.09375 0.44531,0.28125 0.14062,0.164062 0.21094,0.398437 l 4.17187,15.468754 0.0703,0.25781 0.0469,-0.28125 3.98437,-15.351564 q 0.0469,-0.28125 0.1875,-0.46875 0.14063,-0.210937 0.46875,-0.328125 0.32813,-0.117187 0.89063,-0.164062 0.5625,-0.04687 1.42969,-0.04687 0.86718,0 1.40625,0.04687 0.5625,0.04687 0.86718,0.164062 0.32813,0.09375 0.44532,0.28125 0.11718,0.164063 0.11718,0.398438 z"
       style="font-style:normal;font-variant:normal;font-weight:bold;font-stretch:normal;font-size:48px;font-family:Calibri;-inkscape-font-specification:'Calibri, Bold';font-variant-ligatures:normal;font-variant-caps:normal;font-variant-numeric:normal;font-feature-settings:normal;text-align:start;writing-mode:lr-tb;text-anchor:start;fill:#374845;fill-opacity:1"
       id="path894" />
  </g>
</svg>
