<svg height="300px" width="300px" fill="#000000" xmlns="http://www.w3.org/2000/svg" xmlns:xlink="http://www.w3.org/1999/xlink" version="1.1" x="0px" y="0px" viewBox="0 0 96 96" enable-background="new 0 0 96 96" xml:space="preserve"><path d="M53.839,35.909C52.12,36.908,50.129,37.49,48,37.49c-2.128,0-4.119-0.582-5.838-1.581c-4.036,1.013-7.264,3.03-9.004,5.59  L48,51.295l14.849-9.801C61.109,38.939,57.854,36.917,53.839,35.909z"/><path d="M24.323,51.942c0.022,0.003,0.043,0.013,0.066,0.017c0.249,0.042,0.491,0.103,0.725,0.19  c0.02,0.007,0.038,0.017,0.058,0.025c0.237,0.093,0.467,0.207,0.685,0.342c0.009,0.006,0.019,0.01,0.028,0.016  c0.217,0.138,0.422,0.299,0.617,0.475c0.023,0.021,0.047,0.04,0.07,0.062c0.184,0.172,0.354,0.364,0.513,0.567  c0.025,0.033,0.051,0.064,0.076,0.098c0.152,0.205,0.29,0.423,0.415,0.654c0.021,0.039,0.041,0.079,0.061,0.118  c0.12,0.235,0.225,0.481,0.313,0.738c0.013,0.039,0.025,0.079,0.037,0.118c0.084,0.266,0.154,0.541,0.201,0.824  c0.005,0.029,0.007,0.059,0.012,0.088c0.045,0.301,0.074,0.608,0.074,0.924c0,0.316-0.028,0.624-0.074,0.924  c-0.004,0.029-0.007,0.059-0.012,0.088c-0.047,0.284-0.117,0.558-0.201,0.824c-0.012,0.04-0.024,0.08-0.037,0.119  c-0.087,0.257-0.193,0.502-0.313,0.738c-0.02,0.04-0.04,0.079-0.061,0.118c-0.125,0.23-0.262,0.449-0.415,0.654  c-0.024,0.033-0.05,0.064-0.075,0.097c-0.159,0.204-0.329,0.395-0.513,0.567c-0.023,0.021-0.047,0.04-0.07,0.061  c-0.195,0.176-0.399,0.337-0.617,0.475c-0.009,0.006-0.019,0.01-0.027,0.015c-0.218,0.136-0.448,0.25-0.686,0.342  c-0.02,0.008-0.038,0.018-0.058,0.025c-0.233,0.087-0.477,0.148-0.725,0.19c-0.022,0.004-0.043,0.014-0.066,0.017v8.968  l23.091,8.909V52.399l-23.091-8.909V51.942z"/><path d="M27.099,57.197c0-2.275-1.508-4.126-3.362-4.126s-3.362,1.851-3.362,4.126s1.508,4.126,3.362,4.126  S27.099,59.472,27.099,57.197z"/><polygon points="26.132,42.932 43.147,49.497 28.969,40.139 "/><path d="M72.264,53.07c-1.854,0-3.362,1.851-3.362,4.126s1.508,4.126,3.362,4.126c1.854,0,3.363-1.851,3.363-4.126  S74.119,53.07,72.264,53.07z"/><path d="M67.729,57.197c0-2.689,1.725-4.912,3.949-5.249v-8.457l-23.091,8.909v27.929l23.091-8.909v-8.973  C69.454,62.108,67.729,59.886,67.729,57.197z"/><polygon points="52.854,49.497 69.869,42.932 67.033,40.139 "/><path d="M37.506,25.823c0,5.787,4.708,10.495,10.495,10.495c5.787,0,10.495-4.708,10.495-10.495c0-5.787-4.708-10.495-10.495-10.495  C42.214,15.328,37.506,20.036,37.506,25.823z"/><circle cx="28.122" cy="88.492" r="2.242"/><polygon points="8.406,27.812 7.415,29.82 5.199,30.142 6.802,31.705 6.424,33.912 8.406,32.87 10.388,33.912 10.009,31.705   11.613,30.142 9.397,29.82 "/><polygon points="28.869,8.205 28.185,6.819 27.501,8.205 25.971,8.427 27.078,9.506 26.817,11.03 28.185,10.311 29.553,11.03   29.292,9.506 30.399,8.427 "/><polygon points="86.98,69.95 88.349,70.669 88.087,69.146 89.194,68.067 87.665,67.844 86.98,66.458 86.296,67.844 84.767,68.067   85.874,69.146 85.612,70.669 "/><polygon points="86.98,14.135 86.078,16.912 83.159,16.912 85.52,18.629 84.618,21.405 86.98,19.689 89.342,21.405 88.44,18.629   90.802,16.912 87.882,16.912 "/><circle cx="79.024" cy="7.509" r="2.242"/><circle cx="88.517" cy="48.986" r="1.786"/><circle cx="14.852" cy="17.155" r="2.361"/><path d="M21.877,88.514c0.326,0.083,0.655,0.156,0.988,0.223l0.099-0.49c-0.325-0.065-0.646-0.138-0.964-0.217L21.877,88.514z"/><path d="M6.758,71.81c0.097,0.653,0.228,1.309,0.388,1.95l0.485-0.122c-0.157-0.625-0.285-1.265-0.379-1.901L6.758,71.81z"/><path d="M18.134,87.172c0.597,0.283,1.216,0.54,1.838,0.763l0.169-0.471c-0.607-0.217-1.21-0.468-1.793-0.744L18.134,87.172z"/><path d="M7.04,68.852c0-0.327,0.008-0.655,0.024-0.985l-0.499-0.024C6.548,68.18,6.54,68.517,6.54,68.852  c0,0.328,0.008,0.655,0.024,0.98l0.499-0.024C7.047,69.49,7.04,69.171,7.04,68.852z"/><path d="M11.787,82.448c0.441,0.49,0.914,0.964,1.404,1.41l0.337-0.37c-0.478-0.435-0.939-0.897-1.37-1.375L11.787,82.448z"/><path d="M7.724,75.663C7.946,76.282,8.202,76.9,8.486,77.5l0.452-0.214c-0.277-0.585-0.527-1.188-0.743-1.792L7.724,75.663z"/><path d="M9.423,79.253c0.339,0.567,0.711,1.124,1.104,1.655l0.402-0.297c-0.383-0.519-0.746-1.062-1.077-1.615L9.423,79.253z"/><path d="M14.726,85.124c0.532,0.396,1.088,0.769,1.653,1.108l0.258-0.429c-0.551-0.331-1.093-0.695-1.612-1.081L14.726,85.124z"/><path d="M7.427,64.949l-0.49-0.098c-0.066,0.333-0.125,0.665-0.174,0.998l0.494,0.073C7.306,65.598,7.363,65.273,7.427,64.949z"/><path d="M89.076,76.982l0.498,0.046c0.031-0.336,0.05-0.675,0.057-1.017l-0.5-0.01C89.124,76.331,89.105,76.658,89.076,76.982z"/><path d="M85.711,84.731l0.374,0.332c0.493-0.555,0.944-1.152,1.342-1.773l-0.421-0.27C86.623,83.62,86.187,84.195,85.711,84.731z"/><path d="M82.404,87.441l0.252,0.432c0.639-0.373,1.253-0.8,1.826-1.27l-0.317-0.387C83.612,86.669,83.02,87.082,82.404,87.441z"/><path d="M88.015,81.128l0.459,0.199c0.295-0.679,0.538-1.387,0.721-2.104l-0.484-0.124C88.533,79.791,88.299,80.473,88.015,81.128z"/><path d="M78.417,88.985l0.104,0.489c0.723-0.154,1.439-0.368,2.131-0.636l-0.181-0.466C79.806,88.631,79.114,88.837,78.417,88.985z"/><path d="M75.302,89.28l-0.01,0.5c0.096,0.002,0.192,0.003,0.288,0.003c0.245,0,0.488-0.006,0.73-0.019l-0.025-0.499  C75.959,89.282,75.633,89.289,75.302,89.28z"/><rect x="88.267" y="36.377" width="0.5" height="2"/><rect x="88.267" y="28.377" width="0.5" height="2"/><rect x="88.267" y="40.377" width="0.5" height="2"/><rect x="88.267" y="32.377" width="0.5" height="2"/></svg>