<?xml version="1.0" encoding="utf-8" standalone="no"?>
<!DOCTYPE svg PUBLIC "-//W3C//DTD SVG 1.1//EN" "http://www.w3.org/Graphics/SVG/1.1/DTD/svg11.dtd">
<svg version="1.1" width="562.12" height="149.28" xmlns="http://www.w3.org/2000/svg" xmlns:xlink="http://www.w3.org/1999/xlink">
<defs>
<linearGradient id="linearGradient4333-6-7"><stop stop-color="#fff" offset="0"/><stop stop-color="#e1e1e1" offset="1"/></linearGradient>
<linearGradient id="linearGradient4435" x1="845.8" x2="845.8" y1="637.3" y2="509.84" gradientTransform="translate(-606.52 -487.02)" gradientUnits="userSpaceOnUse" xlink:href="#linearGradient4333-6-7"/>
<linearGradient id="linearGradient4437" x1="1984.2" x2="1984.2" y1="-348.63" y2="-293.7" gradientTransform="translate(-1434 365.55)" gradientUnits="userSpaceOnUse"><stop stop-color="#8aea00" offset="0"/><stop stop-color="#ebff36" offset="1"/></linearGradient>
<linearGradient id="linearGradient4439" x1="845.8" x2="845.8" y1="637.3" y2="509.84" gradientTransform="translate(-699.2 -487.02)" gradientUnits="userSpaceOnUse" xlink:href="#linearGradient4333-6-7"/>
<linearGradient id="linearGradient4441" x1="845.8" x2="845.8" y1="637.3" y2="509.84" gradientTransform="translate(-699.88 -487.02)" gradientUnits="userSpaceOnUse" xlink:href="#linearGradient4333-6-7"/>
<linearGradient id="linearGradient4443" x1="845.8" x2="845.8" y1="637.3" y2="509.84" gradientTransform="translate(-703.29 -487.02)" gradientUnits="userSpaceOnUse" xlink:href="#linearGradient4333-6-7"/>
<linearGradient id="linearGradient4445" x1="845.8" x2="845.8" y1="637.3" y2="509.84" gradientTransform="translate(-701.24 -487.02)" gradientUnits="userSpaceOnUse" xlink:href="#linearGradient4333-6-7"/>
</defs>
<g transform="translate(-20.389 -11.977)">
<g fill="#484848" stroke="#484848" stroke-width="38">
<path d="m549.36 78.113c-9.4946 1.9935-9.7027 14.035-9.8352 21.777 0.1121 11.083-0.2095 22.963 4.1417 33.273 2.0054 4.8505 9.7812 4.7481 10.32-1.0675 4.7624-15.205 4.7481-32.013 1.4946-47.505-0.983-2.7567-3.069-6.3504-6.1206-6.4764z"/>
<path d="m499.49 47.618c-6.4927-0.34021-9.3439 6.6054-8.1121 12.169-0.5858 24.076-0.3292 48.312 0.034 72.308 1.7508 6.9648 14.895 8.4881 15.017-0.0712 1.2169-13.272-0.274-26.75 0.6639-40.102 0.7817-11.415-0.5568-23.243-0.6994-34.376 1.5849-5.1064-0.4706-11.129-6.9034-9.9278z"/>
<path d="m132.42 35.234c-7.6945 2.1712-5.9206 12.793-6.2273 19.002 1.6106 23.245 0.8475 46.574 2.1706 69.817 0.068 7.0942 3.2021 16.902 11.885 16.227 7.5709-1.7642 5.7778-11.832 5.6557-17.716-0.047-7.8401-4.5559-19.239 3.9165-24.309 7.6405-5.3755 19.848 0.64078 18.646 10.391-0.3251 8.8309-2.0837 22.169 7.8287 26.475 6.4024 2.9265 10.618-5.2169 9.3943-10.711-0.3749-13.554 1.2727-30.226-10.711-39.677-7.9735-4.0584-18.983-5.5452-26.831-0.21351-1.0372 2.4258-6.9951 6.9505-6.4053 1.2455-1.6949-15.375 2.056-31.458-2.3485-46.402-1.2024-2.6395-4.0315-4.4602-6.9737-4.129z"/>
<path d="m442.14 64.058c-10.165-0.2579-20.656 1.8614-28.147 9.1808-2.8958 2.0559-1.2663-4.9497-4.8395-5.0174-5.4074-2.9334-11.583 2.9876-9.5367 8.7538 0.099 20.069-1.977 40.979 3.8787 60.387 3.1796 4.9585 13.756 4.0934 12.704-2.9891 1.546-15.539-2.968-32.105 3.167-46.865 4.3319-8.6632 18.41-14.137 25.372-5.907 3.521 6.1262-0.9752 16.788 6.8323 20.319 7.6504 1.3481 9.6041-9.0816 8.825-14.768-1.6539-6.7243-2.1565-14.535-6.6544-19.999-3.1376-2.788-7.564-3.2207-11.6-3.0958z"/>
</g>
<path d="m442.38 54.046c-0.1827-5e-3 -0.3789 0.0345-0.5625 0.0312-8.6942-0.15632-18.301 1.17-26.781 5.9688-0.368-0.21564-0.7676-0.37654-1.1562-0.5625l0.031-0.0625c-0.2019-0.10958-0.4204-0.1194-0.625-0.21875-0.5569-0.23563-1.1103-0.37966-1.6874-0.53125-6.0741-2.1089-12.799-0.4336-16.844 3.3438-3.8577 3.603-6.0063 9.2906-5.1562 15.125 0.085 19.316-2.292 41.235 4.3124 63.125l0.4063 1.3125 0.75 1.1875c4.4521 6.943 11.586 8.5306 18 7.4688 3.2069-0.53092 6.701-1.899 9.5-5.0312 2.2725-2.5432 3.5121-6.2751 3.5937-9.8438v-0.125c1.7478-17.818-1.8544-32.725 2.2813-43.375 0.6976-1.2321 3.1856-3.3906 5.4063-4.0312 1.1119-0.32077 1.7363-0.44325 2.1874-0.40625 0.051 0.8996 0.2789 2.7157 0.5313 6.0625 0.1821 2.4144 0.4732 5.4218 2.0313 8.8125 1.558 3.3906 4.8419 6.9401 8.8437 8.75l1.1563 0.5 1.2187 0.21875c4.1545 0.73208 8.9361-0.28467 12.219-2.5938 3.2827-2.3091 5.1358-5.3116 6.3126-8.0625 2.3534-5.5018 2.5912-10.541 1.9374-15.312l-0.062-0.53125-0.125-0.5c-1.3372-5.4366-1.418-15.177-8.6563-23.969l-0.4687-0.59375-0.5938-0.53125c-6.0316-5.3595-13.042-5.7121-18-5.5938v-0.0312zm-20.969 14.625c0.3103 0.61975 0.1924 0.76755 0.063 0.28125-0.016-0.0599-0.046-0.21107-0.063-0.28125zm-11.844 14.156c0.271 0.10418 0.5347 0.22752 0.8125 0.3125l-0.125 0.21875-0.125 0.3125c-0.2313 0.55649-0.3535 1.1014-0.5625 1.6562 0.01-0.84699-0.01-1.649 0-2.5z" fill="url(#linearGradient4445)"/>
<path d="m334.94 43.429-1.125 0.0625c-11.454 0.68757-31.13 2.1395-42.531 20.5l-0.6875 1.1562-0.5312 1.2188c-4.0155 9.0945-1.1737 19.349 5 25.5-7.1006 9.04-10.536 20.698-9.25 32.656-0.7932 13.712 8.5163 26.59 21.562 30.344l-0.031 0.0625c14.594 5.0239 28.334 3.8918 40 1.875 1.1383 0.61027 2.377 1.2421 3.8438 1.8438 3.1932 1.3099 7.6804 2.609 13.187 1.9688 5.5071-0.6402 11.346-3.7158 15.063-7.5312l0.6562-0.6875 0.5938-0.75c7.375-9.2799 7.6766-20.194 7.1874-26.812-0.4891-6.6186-1.0653-10.996-1.0312-11.375l0.125-1.4688-0.094-1.5c-0.9045-13.7-0.4438-31.509-8.6874-49.719-0.8869-3.1435-2.6183-4.6098-5-6.625-14.193-12.047-29.801-10.228-37.125-10.656zm-5 69.25c-0.6975 0.25422-0.096-0.059 3.5937 0.375 3.1757 0.3735 8.4922 1.2907 15.344 0.34375-0.042 1.6067-0.047 3.1005 0.031 4.4688l-1.2187 0.25c-9.4296 1.9295-17.753 2.7056-24.063 1.7188 0.3089-2.6178 2.5558-6.1141 4.2813-6.5312l1.0313-0.25 1-0.375z" fill="#484848"/>
<path d="m242.87 62.943c-9.8451 0.59098-21.923 2.5734-27.507 11.565-1.5225 3.4483 2.5155 7.1646 5.8003 4.5548 11.688-3.184 25.877-8.6433 36.937-1.032 3.4255 4.6575 3.2712 13.732-2.1351 16.832-8.1137 1.834-16.456-2.5018-24.589 0.4626-12.741 3.08-20.924 16.831-18.646 29.535-1.221 6.0385 2.7535 11.58 8.7182 12.597 12.26 4.2206 25.714 2.2584 37.969-0.24909 3.9671 2.72 9.7011 7.8591 14.341 3.0958 6.2596-7.8765 1.273-19.023 2.088-28.069-0.9577-14.504-1.0481-29.913-7.0343-43.136-7.0905-6.0186-17.222-5.6458-25.941-6.1561z" fill="#484848" stroke="#484848" stroke-width="38"/>
<path d="m132.72 24.196c-0.5004 0.0152-1.0205 0.0363-1.5312 0.0937l-0.9063 0.0937-0.8437 0.25c-4.2861 1.2094-8.1936 4.249-10.375 7.5625-2.1816 3.3135-2.9841 6.5666-3.4063 9.375-0.8444 5.6168-0.3823 10.373-0.4687 12.125l-0.031 0.65625 0.062 0.625c1.548 22.342 0.8033 45.465 2.125 69.188 5e-4 0.0505 0.031 0.10568 0.031 0.15625 0.01 0.1151-0.01 0.22862 0 0.34375h0.031c0.099 4.9893 0.9665 10.431 4.125 15.906 3.2605 5.652 11.014 11.321 19.562 10.656l0.8438-0.0625 0.8124-0.1875c4.2384-0.98762 8.3269-3.7956 10.625-7.0938 2.1728-3.6338 4.3342-6.8918 5.1872-10.228 3.8402 7.1334 5.9507 8.0462 13.157 11.447v0.0312c0.059 0.0269 0.1281 0.0362 0.1875 0.0625 3.7423 1.654 8.4312 1.9766 12.281 0.65625 3.911-1.3413 6.7176-3.9009 8.5937-6.5 3.336-4.6215 4.6441-9.6414 3.9063-15.25-0.1718-6.2075 0.2238-14.232-1.1563-22.812s-5.0962-18.363-13.75-25.188l-0.8437-0.6875-0.9688-0.5c-7.7653-3.9525-17.709-6.355-27.406-4.0938 0.4086-10.283 1.089-21.96-2.625-34.562l-0.2188-0.75-0.3125-0.71875c-2.9167-6.4028-9.181-10.822-16.688-10.594zm6.0625 54c0 0.0101 0.05 0.0315 0.062 0.0625l-0.6245 1.4688c0.3311-0.86163 0.5542-1.5665 0.5625-1.5312zm36.062 48.281c0.012-4e-3 0.019 5e-3 0.031 0l0.063 0.3125c-0.043-0.19086-0.061-0.25465-0.094-0.3125z" fill="url(#linearGradient4445)"/>
<path d="m133.35 36.096c-1.692 0.49428-2.8155 1.3985-3.625 2.625-0.8214 1.2444-1.3243 2.8507-1.5938 4.625-0.5342 3.5173-0.1953 7.6121-0.3438 10.812v0.0937c1.6063 23.274 0.8692 46.59 2.1876 69.75a0.88389 0.88389 0 0 1 0 0.0625c0.033 3.4213 0.83 7.5342 2.5937 10.594 1.7438 3.025 4.2922 5.0064 8.2187 4.75 0.011-7.3e-4 0.02 7.7e-4 0.031 0 1.6857-0.39978 2.7542-1.1972 3.5313-2.3125 0.7819-1.1224 1.2391-2.5983 1.4687-4.25 0.4593-3.3035 2e-4 -7.2291-0.062-10.25a0.88389 0.88389 0 0 1 0-0.0312c-0.023-3.754-1.179-8.5834-1.25-13.188-0.071-4.5901 1.0512-9.1203 5.5625-11.844 0.012-8e-3 0.019-0.023 0.031-0.0312 8.2411-5.7534 21.2 0.72746 19.969 11.188v0.0312c-4e-4 0.01 4e-4 0.0216 0 0.0312-0.1662 4.4468-0.6416 9.9207 0.094 14.719 0.7386 4.8188 2.5857 8.831 7.2188 10.844a0.88389 0.88389 0 0 1 0.031 0c1.4264 0.65196 2.625 0.67804 3.6876 0.3125 1.0625-0.36554 2.0152-1.1537 2.7812-2.2188 1.532-2.1302 2.2012-5.3652 1.6562-7.8125a0.88389 0.88389 0 0 1 0-0.15625c-0.1887-6.8235 0.1073-14.358-1-21.281-1.1026-6.8938-3.5864-13.136-9.3124-17.688-7.7294-3.9043-18.344-5.258-25.781-0.25-0.7734 1.4848-2.3237 3.0062-4 3.7812-0.9043 0.41808-1.982 0.65336-2.875 0.0312-0.8519-0.59346-1.0866-1.7275-0.9687-3.1875 0.01-0.0705-0.01-0.11538 0-0.1875-1.6634-15.48 1.9617-31.38-2.2813-45.938-1.0363-2.2749-3.4784-3.8594-5.9687-3.625z" fill="#484848"/>
<path d="m500.01 37.64c-0.47-0.0246-0.9099 0.13839-1.375 0.15625-0.3182 0.036-0.6564-0.0583-0.9688 0v0.0937c-5.9486 0.59666-11.32 4.2791-13.812 8.625-2.5191 4.3921-3.1643 9.0739-2.4688 13.75-0.5691 24.072-0.3288 48.178 0.031 71.969l0.031 1.1875 0.2813 1.125c2.2758 9.0536 10.12 12.943 17.281 13.312 3.5804 0.18461 7.6057-0.50128 11.25-3.2188 3.4431-2.5674 5.753-7.2154 6.0625-11.688h0.062c0.024-0.26477 0.01-0.51719 0.031-0.78125 1.2169-14.321-0.1813-27.639 0.6563-39.562 0.8412-12.283-0.4559-23.979-0.6563-34.187 0.9168-4.1973 0.7514-8.6403-1.75-13.094-2.5398-4.522-8.6787-7.5772-14.437-7.5625-0.073 1.9e-4 -0.1457-1e-3 -0.2188 0v-0.125zm-0.4375 10.469 1.5625 8.375c-0.089 0.0884-0.5399 0.26586-0.9688 0.50001-0.4433-0.17558-0.588-0.31717-1.125-0.59376zm1.625 8.6875 0.125 0.65626c0-5.2e-4 -0.146-0.0578-0.1563-0.0625 0.013-0.26164 0.01-0.41632 0.031-0.59376z" fill="url(#linearGradient4445)"/>
<path d="m499.49 47.618c-6.4927-0.34021-9.3439 6.6054-8.1121 12.169-0.5858 24.076-0.3292 48.312 0.034 72.308 1.7508 6.9648 14.895 8.4881 15.017-0.0712 1.2169-13.272-0.274-26.75 0.6639-40.102 0.7817-11.415-0.5568-23.243-0.6994-34.376 1.5849-5.1064-0.4706-11.129-6.9034-9.9281z" fill="#484848"/>
<path d="m544.52 53.631c-7.5784-0.46784-10.676 10.086-4.626 14.198 6.4831 5.1398 16.978-2.5774 12.988-10.248-1.4384-3.2026-5.1136-4.2598-8.3624-3.9499z"/>
<path d="m66.312 57.93c-17.371 0.62829-30.064 20.097-26.023 36.398 2.1928 10.051 13.854 12.097 22.635 11.492 7.1377-0.5151 17.604 2.4535 16.732 11.492-1.8676 6.2972-10.99 4.9744-16.067 5.2168-7.019 0.3042-14.552-2.8347-21.309-1.0251-5.5463 3.716-0.7698 11.632 4.4362 13.099 11.62 3.854 24.777 2.9856 36.677 0.52396 8.4944-1.7846 13.977-9.6618 14.007-18.129 0.5362-8.4598-0.1252-18.858-9.082-22.635-7.8333-4.5437-17.524-2.6-25.744-4.6458-6.5043-3.7522-4.5902-15.083 3.2137-15.544 8.376-2.645 16.584 3.5434 24.731 1.7465 6.8027-2.7568 5.6777-13.266-1.2924-15.195-7.0495-3.5318-15.254-2.7443-22.914-2.7944z" fill="#484848" stroke="#484848" stroke-width="38"/>
<path d="m66.146 46.921-0.2187 0.0312c-25.268 0.91394-41.979 26.296-36.375 49.719v0.0312c0.023 0.0937 0.039 0.18758 0.062 0.28125h0.062c1.4158 6.0303 5.2241 10.73 9.5937 13.938l-1.5937 0.4375-1.5313 1c-3.4934 2.3406-6.2461 6.4068-7.0312 10.438-0.7852 4.0307 0.016 7.6445 1.2812 10.531 2.4625 5.617 6.4364 9.7211 12.844 11.688v0.0312c0.1235 0.0409 0.2514 0.0537 0.375 0.0937 0.044 0.0142 0.081 0.0484 0.125 0.0625 14.288 4.597 29.052 3.3399 41.875 0.6875h0.031c13.703-2.879 22.355-15.235 22.688-28.188h0.031c0.01-0.1043-0.01-0.23849 0-0.34375 0-0.10511 0.031-0.20733 0.031-0.3125h-0.031c0.275-4.6802 0.3633-10.219-1.4063-16.219-1.6128-5.4679-5.6186-11.409-11.719-15.031 15.051-6.7402 13.34-29.638-1.6875-35.156-10.474-5.011-20.429-3.6747-27.156-3.7188h-0.25zm-16.219 77.156c0.4736 0.11312 0.7429 0.17483 0.6875 0.1875-0.1379-0.0437-0.3009-0.0484-0.4375-0.0937l-0.25-0.0937z" fill="url(#linearGradient4439)"/>
<path d="m67.047 59.378c-16.29 0.63585-28.427 19.257-24.625 34.594a1.442 1.442 0 0 1 0 0.0312c0.9874 4.5257 3.9833 7.1428 7.9688 8.7188 3.9854 1.576 8.921 1.948 13.156 1.6562 3.8182-0.27555 8.4163 0.35581 12.156 2.3438 3.74 1.9879 6.6157 5.6345 6.125 10.719a1.442 1.442 0 0 1-0.062 0.28125c-0.5618 1.8941-1.746 3.328-3.1876 4.25-1.4415 0.92203-3.0867 1.394-4.7812 1.6562-3.3889 0.5246-7.0334 0.23046-9.4062 0.34375-7.4077 0.32104-14.726-2.6031-20.781-1.0938-0.9228 0.69289-1.3969 1.4625-1.5625 2.3125-0.1806 0.92739-0.017 2.0185 0.4688 3.125 0.9708 2.213 3.281 4.3249 5.3437 4.9062a1.442 1.442 0 0 1 0.062 0c11.252 3.7316 24.146 2.9325 35.906 0.5 7.7821-1.635 12.847-8.8734 12.875-16.719a1.442 1.442 0 0 1 0-0.0937c0.2634-4.1547 0.2008-8.7152-0.9374-12.562-1.1383-3.8473-3.227-6.9152-7.2813-8.625a1.442 1.442 0 0 1-0.1563-0.0937c-7.233-4.1955-16.691-2.3386-25.375-4.5a1.442 1.442 0 0 1-0.375-0.15625c-7.593-4.3802-5.364-17.275 3.5-18.156v-0.0312c0.1153-0.0364 0.2288-0.0291 0.3438-0.0625 4.5012-1.3064 8.8395-0.37995 12.875 0.59375 4.0804 0.98454 7.88 1.9284 11.469 1.1875 5.4755-2.3105 4.4951-10.833-1.1876-12.406a1.442 1.442 0 0 1-0.2812-0.0937c-6.5535-3.2833-14.44-2.5784-22.188-2.625-0.021-1.3e-4 -0.042 1.4e-4 -0.062 0z" fill="#484848"/>
<path d="m334.91 52.452-0.5624 0.0312c-10.692 0.64182-26.761 2.3587-35.406 16.281l-0.375 0.59375-0.2813 0.625c-2.6168 5.9267-0.4865 12.636 3.8126 16.25 2.47 2.0766 6.1544 2.9751 9.8124 2.75-12.173 7.1621-18.958 21.293-17.094 35.5-0.9321 10.033 5.7963 19.426 15.438 21.906v0.0312c13.584 4.6763 27.045 3.1188 38.781 0.90625 1.4491 0.98507 3.2876 2.0668 5.5626 3 2.2748 0.93323 5.2583 1.7496 8.75 1.3438 3.4915-0.40589 7.1195-2.3028 9.625-4.875l0.375-0.34375 0.3124-0.40625c5.3642-6.7497 5.6479-14.757 5.2188-20.562s-1.211-10.502-1-12.844l0.062-0.78125-0.062-0.75c-0.9297-14.081-0.732-30.777-7.9062-46.625-0.4593-1.6578-1.3753-2.432-2.625-3.4999-10.829-9.1917-23.859-8.0327-31.844-8.5l-0.5938-0.0312zm22.063 47.469c0.2983 4.0102 0.663 7.8934 0.9374 12.094-0.3619 6.1506 0.7536 11.181 1.0313 14.938 0.091 1.2336-3e-4 1.8968-0.031 2.7188-0.7261-0.49389-0.8804-0.56988-1.7812-1.1875l-3.5-2.4062-4.1562 0.84375c-11.85 2.4247-23.49 3.7709-32.719 0.59375l-0.75-0.25-0.8125-0.15625c-0.7563-0.12889-0.7437-8e-3 -0.5937-0.75l0.375-1.875-0.3438-1.875c-1.3223-7.375 4.0726-16.319 11.156-18.031l0.5626-0.15625 0.5312-0.1875c1.5591-0.56829 3.7957-0.58273 7.6875-0.125s9.2275 1.4844 15.656 0.0312l1.4687-0.34375 1.3125-0.75c1.5458-0.8862 2.8481-1.9526 3.9688-3.125z" fill="url(#linearGradient4445)"/>
<path d="m442.85 65.503c-9.9417-0.25223-20.011 1.8305-27.125 8.7812a1.425 1.425 0 0 1-0.1876 0.125c-0.4923 0.34955-1.0141 0.64308-1.6874 0.65625-0.6734 0.0132-1.3402-0.39879-1.6876-0.8125-0.6947-0.82743-0.7686-1.5945-0.9687-2.3438s-0.4246-1.4714-0.6563-1.8438c-0.2316-0.37236-0.2624-0.39819-0.6874-0.40625a1.425 1.425 0 0 1-0.6563-0.1875c-2.1511-1.1669-4.3134-0.58174-5.9063 0.90625-1.5928 1.488-2.4145 3.812-1.5937 6.125a1.425 1.425 0 0 1 0.094 0.46875c0.099 20.085-1.9054 40.739 3.75 59.719 1.2377 1.7496 4.0539 2.6661 6.4063 2.2812 1.2075-0.19755 2.2216-0.71247 2.8437-1.4062 0.6222-0.69378 0.9615-1.5459 0.75-2.9688a1.425 1.425 0 0 1 0-0.375c1.5091-15.168-3.1254-31.943 3.25-47.281a1.425 1.425 0 0 1 0.031-0.0625c2.3884-4.7766 7.2847-8.5002 12.594-10.031 5.3091-1.5311 11.269-0.75156 15.156 3.8438a1.425 1.425 0 0 1 0.1563 0.1875c2.0694 3.6007 1.6918 8.0153 1.9687 11.75 0.1385 1.8674 0.4194 3.5406 1.0313 4.875 0.5916 1.2904 1.4751 2.2573 3.0312 3 1.4606 0.20734 2.5297-0.051 3.4375-0.6875 0.9587-0.67214 1.771-1.8138 2.375-3.2188 1.2079-2.81 1.508-6.6831 1.1563-9.25-1.6601-6.825-2.269-14.236-6.2813-19.188-2.6943-2.3296-6.6692-2.7757-10.531-2.6562a1.425 1.425 0 0 1-0.062 0z" fill="#484848"/>
<path d="m548.53 68.077-1.2187 0.25c-8.6956 1.8257-14.142 9.538-15.969 15.687-1.8263 6.1495-1.7462 11.847-1.8125 15.719v0.25c0.1092 10.799-0.5536 24.013 4.9063 37 0.01 0.0225 0.022 0.0401 0.031 0.0625 2.7726 6.6208 9.3817 9.9621 15.562 9.5625 5.6001-0.36206 11.835-5.2195 13.5-11.531 5.3924-17.216 5.3013-35.621 1.75-52.531l-0.1563-0.6875-0.2187-0.62499c-0.7814-2.1913-1.853-4.6297-3.9375-7.1875s-5.8401-5.7167-11.188-5.9375l-1.25-0.0312z" fill="url(#linearGradient4443)"/>
<path d="m550.11 78.596c-4.5226 0.97522-6.7823 4.2627-8 8.375-1.2232 4.1311-1.3087 9.035-1.375 12.906 0.1123 11.096-0.2043 22.91 4.0938 33.094 0.9213 2.2284 3.1731 3.3207 5.25 3.1875s3.906-1.39 4.1562-4.0938a0.46475 0.46475 0 0 1 0.031-0.0937c4.7332-15.112 4.7084-31.855 1.4687-47.281-0.4788-1.3258-1.2248-2.853-2.1874-4.0312-0.9629-1.1784-2.1146-1.9848-3.4376-2.0625z" fill="#484848"/>
<path d="m242.87 52.921-0.5938 0.0312c-10.692 0.64192-26.761 2.3587-35.406 16.281l-0.375 0.59375-0.2813 0.65625c-2.6168 5.9267-0.4864 12.605 3.8125 16.219 2.4771 2.0825 6.1757 2.9831 9.8438 2.75-12.176 7.1472-18.966 21.268-17.125 35.469-0.9665 10.061 5.7999 19.489 15.469 21.969l-0.031 0.0312c13.589 4.6781 27.073 3.1201 38.812 0.90625 1.4445 0.97996 3.2715 2.073 5.5313 3 2.2749 0.93323 5.2585 1.7184 8.75 1.3125s7.1509-2.2716 9.6562-4.8438l0.3438-0.375 0.3125-0.40625c5.3641-6.7497 5.6478-14.726 5.2187-20.531s-1.2109-10.502-1-12.844l0.062-0.78125-0.062-0.78125c-0.9297-14.081-0.7006-30.746-7.875-46.594l-0.9375-2.0625-1.7187-1.4375c-10.829-9.1917-23.828-8.0639-31.812-8.5313l-0.5938-0.0312zm22.031 47.5c0.2974 4.0006 0.6637 7.8729 0.9375 12.062-0.3619 6.1506 0.7536 11.212 1.0313 14.969 0.091 1.2281 0 1.8677-0.031 2.6875-0.7261-0.49388-0.8805-0.56989-1.7813-1.1875l-3.5-2.4062-4.1562 0.875c-11.85 2.4248-23.458 3.7709-32.688 0.59375l-0.7813-0.28125-0.8125-0.125c-0.7563-0.12888-0.7437-0.0396-0.5938-0.78125l0.375-1.8438-0.3437-1.875c-1.3223-7.3749 4.0726-16.35 11.156-18.062l0.5625-0.125 0.5313-0.1875c1.5591-0.56828 3.7957-0.58273 7.6875-0.125s9.2275 1.4531 15.656 0l1.4688-0.3125 1.3125-0.75c1.5458-0.8862 2.8482-1.9526 3.9687-3.125z" fill="url(#linearGradient4441)"/>
<path d="m243.64 64.63c-9.6363 0.58398-20.934 2.5948-26.031 10.625-0.4035 0.99026-0.045 1.9107 0.6562 2.5 0.717 0.60234 1.4896 0.85243 2.5626 0a1.6844 1.6844 0 0 1 0.625-0.3125c5.775-1.5733 12.317-3.7846 18.937-4.625 6.6208-0.84039 13.444-0.25925 19.406 3.8438a1.6844 1.6844 0 0 1 0.375 0.375c2.0281 2.7576 2.9112 6.5067 2.5937 10.125-0.3174 3.6183-1.9072 7.2578-5.2187 9.1562a1.6844 1.6844 0 0 1-0.4687 0.1875c-4.4561 1.0072-8.7953 0.29068-12.875-0.1875-4.0798-0.47818-7.8868-0.73461-11.531 0.59375a1.6844 1.6844 0 0 1-0.1563 0.0312c-11.788 2.8498-19.523 15.788-17.406 27.594a1.6844 1.6844 0 0 1 0 0.65625c-1.0407 5.1464 2.2557 9.7267 7.3438 10.594a1.6844 1.6844 0 0 1 0.2812 0.0625c11.75 4.0448 24.876 2.1811 37.062-0.3125a1.6844 1.6844 0 0 1 1.2813 0.28125c2.0816 1.4272 4.4575 3.2924 6.625 4.1875 1.0837 0.44757 2.0633 0.63094 2.9374 0.53125 0.8627-0.0984 1.6764-0.44585 2.5938-1.375 0.01-0.0118 0.022-0.0195 0.031-0.0312 2.6608-3.44 2.9705-7.6146 2.625-12.312-0.3431-4.6664-1.3766-9.6632-1-14.469-0.9524-14.425-1.1073-29.458-6.7187-42.156-6.4124-5.2226-15.795-5.0656-24.469-5.5625-0.021-1e-3 -0.042 1e-3 -0.063 0z" fill="#484848" stroke="#484848" stroke-width="3"/>
<path d="m252.94 106.3c-3.4993 0.0307-6.9607-0.0581-10.375 0.0312-4.1004 0.36044-9.0376 1.6902-12.625 4.0938-3.614 2.4213-5.8704 5.6886-5.2813 10.438 0.4935 4.6153 3.5645 7.5645 7.6876 9.2188 4.123 1.6543 9.2633 1.8209 13.156 0.65625a1.3612 1.3612 0 0 1 0.1562-0.0312c2.8688-0.49834 6.5939-1.2529 9.2813-2.7188 1.3437-0.73292 2.3836-1.6368 3.0313-2.6875 0.6476-1.0507 0.9604-2.2605 0.6874-3.9688a1.3612 1.3612 0 0 1 0-0.28125c0.1564-2.7672 0.3451-6.6852-0.375-9.7188-0.36-1.5168-0.9264-2.7747-1.75-3.625-0.8176-0.8442-1.8698-1.3615-3.5624-1.4062-0.012-3.2e-4 -0.019 2.7e-4 -0.031 0z" fill="url(#linearGradient4439)"/>
<path d="m550.24 11.977c-4.7431 8e-5 -9.3884 1.9451-12.156 5.6562-2.3938 3.2093-3.2655 7.2821-3.5 11.844-5.2417 0.10768-9.658 0.71067-13.281 2.5312-3.7519 1.8852-6.5576 5.7564-6.9063 9.9375h-0.062c-0.013 0.1027 0.011 0.20947 0 0.3125 0 0.043-0.03 0.0819-0.031 0.125h0.031c-0.383 3.9419 0.8037 8.0858 3.625 10.844 1.7434 1.7044 3.9242 2.7904 6.3124 3.5938l-0.875 2.4375-0.062 0.125-0.031 0.125c-1.0239 3.3279-0.9882 7.0944 0.8437 10.156 1.8322 3.0618 4.9132 4.8533 8.3438 5.9062l0.7188 0.21875h3.0312c4.1038 5e-5 8.0184-1.1129 11.156-3.5 1.388-1.0559 2.5677-2.381 3.5938-3.8125 2.738 2.5559 6.0541 4.8083 10 6.7812l0.5 0.25 0.5312 0.15625c3.235 0.79227 6.3972 0.95306 9.4063-0.1875 2.9956-1.1354 5.3523-3.7897 6.4375-6.7188h0.031v-0.0312c1.3188-3.5812 1.0754-7.6581-0.4687-11.188-0.3593-0.82136-0.9637-1.5605-1.4375-2.3438 0.7988-0.35352 1.5774-0.75006 2.3125-1.2812 3.1456-2.2731 4.4669-6.4396 4.1563-10.25h0.031c0-0.12851-0.061-0.24691-0.062-0.375-0.017-0.15367 0.023-0.31671 0-0.46875h-0.062c-0.2506-3.8586-2.6242-7.4764-5.875-9.5625-3.1968-2.0514-7.2278-3.1974-12.062-4.0312-0.5947-4.0294-1.4462-7.6415-3.125-10.531-2.2702-3.9078-6.5646-6.7186-11.062-6.7188zm18.312 50.625c0.2654 0.97712 0.2969 1.7705-0.031 2.6562v0.0312c-0.3181 0.86918-0.3036 0.72198-0.625 0.84375-0.2585 0.098-1.2073 0.14918-2.5624-0.0625 0.3313-0.1475 0.7366-0.14338 1.0312-0.34375l0.4375-0.28125 0.375-0.40625c0.5814-0.62017 0.9776-1.5537 1.375-2.4375z" fill="#305f00"/>
<path d="m550.25 16.984q8.5408 0 9.83 16.92h2.3366q15.228 2.3366 15.067 9.6689 1.2892 8.6214-11.039 7.9768 9.4271 8.2991 6.7682 15.47-2.0949 5.7207-9.9912 3.787-8.702-4.351-12.328-9.9912h-1.5309q-3.3841 9.9912-13.134 9.9912h-2.2561q-8.138-2.4978-5.8819-9.83l2.8201-7.8157h-0.80574q-11.925-1.692-10.797-10.555 0.32229-8.138 16.356-8.2185 4.4316-0.48344 3.7064-2.8201 0-14.584 10.877-14.584zm-4.5927 16.034-0.16115 4.5121q-0.24172 3.3841-2.1755 3.3841l-12.731 0.72516q-2.9812 0.08057-2.9812 2.4172 0 2.2561 3.223 2.4172 11.2-0.56402 10.475 1.5309l-2.2561 4.8344q-5.7207 8.6214-2.8201 10.152 3.8675 2.3366 10.958-12.086 1.692-1.5309 2.8201 0 4.9956 5.3179 8.2185 8.702 3.3035 3.3841 5.3179 2.0143 2.4172-2.5784-1.2892-5.5596-3.6258-3.0618-8.2991-8.3797-0.48344-1.7726 0.24172-1.7726 15.792 1.0475 15.148-2.0143 0.48345-3.3841-13.698-3.3841-2.1755 0.40287-3.5452-1.0475v-7.8962q0-6.6071-3.1424-6.5265-3.3841-0.80574-3.3035 7.9768z" fill="url(#linearGradient4437)"/>
<path d="m335.79 64.63c-9.6363 0.58398-20.934 2.5948-26.031 10.625-0.4035 0.99026-0.045 1.9107 0.6562 2.5 0.717 0.60234 1.4896 0.85243 2.5626 0a1.6844 1.6844 0 0 1 0.625-0.3125c5.775-1.5733 12.317-3.7846 18.937-4.625 6.6208-0.84039 13.444-0.25925 19.406 3.8438a1.6844 1.6844 0 0 1 0.375 0.375c2.0281 2.7576 2.9112 6.5067 2.5937 10.125-0.3174 3.6183-1.9072 7.2578-5.2187 9.1562a1.6844 1.6844 0 0 1-0.4687 0.1875c-4.4561 1.0072-8.7953 0.29068-12.875-0.1875-4.0798-0.47818-7.8868-0.73461-11.531 0.59375a1.6844 1.6844 0 0 1-0.1563 0.0312c-11.788 2.8498-19.523 15.788-17.406 27.594a1.6844 1.6844 0 0 1 0 0.65625c-1.0407 5.1464 2.2557 9.7267 7.3438 10.594a1.6844 1.6844 0 0 1 0.2812 0.0625c11.75 4.0448 24.876 2.1811 37.062-0.3125a1.6844 1.6844 0 0 1 1.2813 0.28125c2.0816 1.4272 4.4575 3.2924 6.625 4.1875 1.0837 0.44757 2.0633 0.63094 2.9374 0.53125 0.8627-0.0984 1.6764-0.44585 2.5938-1.375 0.01-0.0118 0.022-0.0195 0.031-0.0312 2.6608-3.44 2.9705-7.6146 2.625-12.312-0.3431-4.6664-1.3766-9.6632-1-14.469-0.9524-14.425-1.1073-29.458-6.7187-42.156-6.4124-5.2226-15.795-5.0656-24.469-5.5625-0.021-1e-3 -0.042 1e-3 -0.063 0z" fill="#484848" stroke="#484848" stroke-width="3"/>
<path d="m345.62 106.3c-3.4993 0.0307-6.9607-0.0581-10.375 0.0312-4.1004 0.36044-9.0376 1.6902-12.625 4.0938-3.614 2.4213-5.8704 5.6886-5.2813 10.438 0.4935 4.6153 3.5645 7.5645 7.6876 9.2188 4.123 1.6543 9.2633 1.8209 13.156 0.65625a1.3612 1.3612 0 0 1 0.1562-0.0312c2.8688-0.49834 6.5939-1.2529 9.2813-2.7188 1.3437-0.73292 2.3836-1.6368 3.0313-2.6875 0.6476-1.0507 0.9604-2.2605 0.6874-3.9688a1.3612 1.3612 0 0 1 0-0.28125c0.1564-2.7672 0.3451-6.6852-0.375-9.7188-0.36-1.5168-0.9264-2.7747-1.75-3.625-0.8176-0.8442-1.8698-1.3615-3.5624-1.4062-0.012-3.2e-4 -0.019 2.7e-4 -0.031 0z" fill="url(#linearGradient4435)"/>
</g>
</svg>
