<?xml version="1.0" encoding="UTF-8"?>
<svg version="1.1" viewBox="0 0 200 220" xmlns="http://www.w3.org/2000/svg" xmlns:cc="http://creativecommons.org/ns#" xmlns:dc="http://purl.org/dc/elements/1.1/" xmlns:rdf="http://www.w3.org/1999/02/22-rdf-syntax-ns#">
<metadata>
<rdf:RDF>
<cc:Work rdf:about="">
<dc:format>image/svg+xml</dc:format>
<dc:type rdf:resource="http://purl.org/dc/dcmitype/StillImage"/>
<dc:title>readflow</dc:title>
</cc:Work>
</rdf:RDF>
</metadata>
<defs>
<style>.a{fill:#c73a63;}.b{fill:#4b4b4b;}.c{fill:#4a4a4a;}</style>
</defs>
<title>readflow</title>
<g transform="matrix(1.1051 1.1051 -1.1051 1.1051 86.591 -46.321)" fill="#009be5">
<g transform="matrix(-.80996 -.80996 .80996 -.80996 -132.42 170.9)" fill="#009be5" stroke-width=".32185">
<ellipse transform="translate(-103.05 144.74)" cx="13.566" cy="86.286" rx="13.566" ry="13.714"/>
<path transform="translate(-103.05 144.74)" d="m65.569 100h-19.219c0-25.879-20.752-46.858-46.35-46.858v-19.427c36.214 0 65.569 29.676 65.569 66.285z"/>
<path transform="translate(-103.05 144.74)" d="m79.135 100c0-44.183-35.429-80-79.135-80v-20c54.631 0 98.918 44.772 98.918 100z"/>
</g>
</g>
<g transform="translate(-171.56 94.72)" fill="#009be5" stroke-width="1px" style="font-feature-settings:normal;font-variant-caps:normal;font-variant-ligatures:normal;font-variant-numeric:normal" aria-label="read">
<path d="m196.37 101.38q0 0.84375-0.0469 1.3828t-0.14063 0.84375q-0.0937 0.30469-0.25781 0.42187-0.14063 0.11719-0.375 0.11719-0.1875 0-0.42188-0.0703-0.23437-0.0937-0.53906-0.1875-0.28125-0.0937-0.63281-0.16406-0.35156-0.0937-0.77344-0.0937-0.49219 0-0.98437 0.21093-0.49219 0.1875-1.0312 0.60938-0.51563 0.42187-1.1016 1.125-0.5625 0.70312-1.2188 1.7344v13.031q0 0.23438-0.14062 0.42188-0.14063 0.16406-0.49219 0.28125-0.32812 0.11719-0.89062 0.16406-0.5625 0.0703-1.4297 0.0703t-1.4297-0.0703q-0.5625-0.0469-0.91406-0.16406-0.32813-0.11719-0.46875-0.28125-0.14063-0.1875-0.14063-0.42188v-20.906q0-0.23438 0.11719-0.39844 0.11719-0.1875 0.42188-0.30469 0.30468-0.11719 0.77343-0.16406 0.49219-0.07031 1.2188-0.07031 0.75 0 1.2422 0.07031 0.49219 0.04687 0.75 0.16406 0.28125 0.11719 0.39844 0.30469 0.11719 0.16406 0.11719 0.39844v2.6016q0.82031-1.1719 1.5469-1.9219 0.72656-0.77344 1.3828-1.2187 0.65625-0.44531 1.3125-0.60938 0.65625-0.1875 1.3125-0.1875 0.30469 0 0.65625 0.04687 0.35157 0.02344 0.72657 0.11719 0.375 0.07031 0.65625 0.1875 0.28125 0.09375 0.39843 0.21094 0.14063 0.11719 0.1875 0.25781 0.0703 0.14062 0.11719 0.39844 0.0469 0.23438 0.0703 0.72656 0.0234 0.49219 0.0234 1.3359z" style="font-feature-settings:normal;font-variant-caps:normal;font-variant-ligatures:normal;font-variant-numeric:normal"/>
<path d="m218.76 109.28q0 1.0781-0.49218 1.5938-0.46875 0.51563-1.3125 0.51563h-12.727q0 1.3359 0.30469 2.4375 0.32813 1.0781 1.0078 1.8516 0.70313 0.75 1.7812 1.1484 1.1016 0.39844 2.625 0.39844 1.5469 0 2.7188-0.21094 1.1719-0.23438 2.0156-0.49219 0.86719-0.28125 1.4297-0.49219 0.5625-0.23437 0.91406-0.23437 0.21094 0 0.35156 0.0937 0.14063 0.0703 0.23438 0.28125 0.0937 0.21094 0.11718 0.60937 0.0469 0.375 0.0469 0.96094 0 0.51563-0.0234 0.89063-0.0234 0.35156-0.0703 0.60937t-0.14063 0.44531q-0.0937 0.16407-0.25781 0.32813-0.14062 0.16406-0.82031 0.44531t-1.7344 0.5625q-1.0547 0.25781-2.4141 0.44531-1.3594 0.21094-2.9062 0.21094-2.7891 0-4.8984-0.70312-2.0859-0.70313-3.4922-2.1328-1.4062-1.4297-2.1094-3.6094-0.67969-2.1797-0.67969-5.1094 0-2.7891 0.72657-5.0156 0.72656-2.25 2.1094-3.7969 1.3828-1.5703 3.3516-2.3906 1.9922-0.82031 4.4766-0.82031 2.625 0 4.4766 0.77344 1.875 0.77344 3.0703 2.1562 1.1953 1.3594 1.7578 3.2344t0.5625 4.0781zm-5.7188-1.6875q0.0703-2.4844-1.0078-3.8906-1.0547-1.4297-3.2812-1.4297-1.125 0-1.9688 0.42188-0.82031 0.42187-1.3828 1.1484-0.53906 0.70313-0.84375 1.6875-0.28125 0.96094-0.32813 2.0625z" style="font-feature-settings:normal;font-variant-caps:normal;font-variant-ligatures:normal;font-variant-numeric:normal"/>
<path d="m241.44 120.41q0 0.32812-0.23437 0.51562-0.23438 0.1875-0.75 0.25781-0.49219 0.0937-1.4766 0.0937-1.0547 0-1.5469-0.0937-0.46875-0.0703-0.67969-0.25781-0.1875-0.1875-0.1875-0.51562v-1.6641q-1.2891 1.3828-2.9531 2.1562-1.6406 0.77344-3.6562 0.77344-1.6641 0-3.0703-0.44531-1.3828-0.42188-2.4141-1.2656-1.0078-0.86718-1.5703-2.1328-0.5625-1.2656-0.5625-2.9531 0-1.8281 0.70313-3.1641 0.72656-1.3594 2.1328-2.2266 1.4297-0.89062 3.5391-1.3125 2.1094-0.42187 4.8984-0.42187h2.0391v-1.2656q0-0.98437-0.21094-1.7109-0.1875-0.75-0.65625-1.2422-0.44531-0.49219-1.2188-0.72657-0.75-0.23437-1.875-0.23437-1.4766 0-2.6484 0.32812-1.1484 0.32813-2.0391 0.72657-0.89062 0.39843-1.5 0.72656-0.58593 0.32812-0.96093 0.32812-0.25782 0-0.46875-0.16406-0.1875-0.16406-0.32813-0.46875-0.11719-0.30469-0.1875-0.75-0.0703-0.44531-0.0703-0.98437 0-0.72657 0.11719-1.1484 0.11718-0.42188 0.44531-0.75 0.32812-0.35156 1.1484-0.75 0.82031-0.42188 1.9219-0.77344 1.1016-0.35156 2.3906-0.5625 1.3125-0.23438 2.6953-0.23438 2.4609 0 4.1953 0.49219 1.7578 0.46875 2.8828 1.4766 1.125 0.98437 1.6406 2.5547 0.51562 1.5703 0.51562 3.7266zm-5.7891-8.9531h-2.25q-1.4297 0-2.4375 0.21094t-1.6406 0.63281q-0.63282 0.42188-0.9375 1.0312-0.28125 0.58594-0.28125 1.3594 0 1.3125 0.82031 2.0625 0.84375 0.75 2.3203 0.75 1.2422 0 2.2734-0.63282 1.0547-0.63281 2.1328-1.8516z" style="font-feature-settings:normal;font-variant-caps:normal;font-variant-ligatures:normal;font-variant-numeric:normal"/>
<path d="m267.18 120.34q0 0.25782-0.11719 0.44532-0.11719 0.16406-0.39844 0.28125-0.28125 0.11718-0.77343 0.16406-0.46875 0.0469-1.1719 0.0469-0.75 0-1.2188-0.0469t-0.77344-0.16406q-0.28125-0.11719-0.42187-0.28125-0.11719-0.1875-0.11719-0.44532v-2.3203q-1.6172 1.7344-3.3984 2.6953-1.7578 0.96094-3.9141 0.96094-2.3906 0-4.0547-0.91406-1.6406-0.9375-2.6953-2.5078-1.0312-1.5703-1.5-3.6562-0.46875-2.1094-0.46875-4.4297 0-2.7891 0.58594-5.0156 0.60937-2.2266 1.7578-3.7969 1.1484-1.5703 2.8594-2.4141 1.7109-0.84375 3.9375-0.84375 1.7578 0 3.1875 0.72656 1.4297 0.70312 2.8359 2.0859v-11.32q0-0.23438 0.11719-0.42188 0.14063-0.1875 0.46875-0.30469 0.35156-0.14062 0.91406-0.21094 0.5625-0.07031 1.4297-0.07031t1.4297 0.07031 0.89062 0.21094q0.32813 0.11719 0.46875 0.30469 0.14063 0.1875 0.14063 0.42188zm-5.8594-13.969q-1.2656-1.5938-2.4375-2.4375-1.1484-0.84375-2.4141-0.84375-1.1484 0-1.9922 0.58594-0.82031 0.5625-1.3359 1.5234-0.49219 0.96094-0.75 2.1562-0.23438 1.1719-0.23438 2.4141 0 1.3125 0.21094 2.5547t0.67969 2.2266q0.49218 0.96094 1.2891 1.5469 0.79687 0.58593 2.0156 0.58593 0.60938 0 1.1719-0.16406 0.58594-0.1875 1.1719-0.58594 0.60938-0.39843 1.2422-1.0312 0.63281-0.65625 1.3828-1.5938z" style="font-feature-settings:normal;font-variant-caps:normal;font-variant-ligatures:normal;font-variant-numeric:normal"/>
</g>
<g transform="translate(-171.56 94.72)" fill="#ff7f2a" stroke-width="1px" style="font-feature-settings:normal;font-variant-caps:normal;font-variant-ligatures:normal;font-variant-numeric:normal" aria-label="flow">
<path d="m294.7 120.34q0 0.23438-0.14062 0.42188-0.14063 0.16406-0.46875 0.28125-0.32813 0.11719-0.91407 0.16406-0.5625 0.0703-1.4062 0.0703-0.86718 0-1.4531-0.0703-0.5625-0.0469-0.89063-0.16406-0.32812-0.11719-0.46875-0.28125-0.14062-0.1875-0.14062-0.42188v-27.141q-0.0703 0.14062-0.21094 0.21094-0.11719 0.07031-0.30469 0.07031-0.25781 0-0.67968-0.09375-0.42188-0.09375-0.9375-0.16406-0.51563-0.09375-1.0312-0.11719-0.49219-0.04687-0.98438-0.04687-1.0547 0-1.7578 0.21094-0.70313 0.21094-1.125 0.65625-0.39844 0.42188-0.5625 1.125t-0.16406 1.6641v1.9219h3.4688q0.23437 0 0.39843 0.11719 0.1875 0.11719 0.30469 0.39844 0.11719 0.25781 0.16406 0.72656 0.0703 0.46875 0.0703 1.1484 0 1.2891-0.23438 1.8516-0.23437 0.53906-0.67969 0.53906h-3.4922v16.922q0 0.23438-0.14063 0.42188-0.14062 0.16406-0.46875 0.28125-0.32812 0.11719-0.91406 0.16406-0.5625 0.0703-1.4297 0.0703-0.84375 0-1.4297-0.0703-0.5625-0.0469-0.91406-0.16406-0.32812-0.11719-0.46875-0.28125-0.11719-0.1875-0.11719-0.42188v-16.922h-2.625q-0.44531 0-0.67968-0.53906-0.21094-0.5625-0.21094-1.8516 0-0.67968 0.0469-1.1484 0.0703-0.46875 0.16407-0.72656 0.11718-0.28125 0.28125-0.39844 0.1875-0.11719 0.42187-0.11719h2.6016v-1.8047q0-2.1094 0.46875-3.7031 0.46875-1.6172 1.4766-2.6719 1.0312-1.0781 2.5781-1.5938 1.5703-0.53906 3.7734-0.53906 0.63281 0 1.3359 0.04687 0.72656 0.04687 1.4062 0.14062 0.67968 0.07031 1.1719 0.1875 0.49219 0.09375 0.77344 0.21094 0.28125 0.09375 0.44531 0.23438t0.23438 0.35156q0.0234-0.21094 0.11718-0.375 0.11719-0.16406 0.39844-0.30469 0.30469-0.14062 0.86719-0.21094 0.58594-0.09375 1.5469-0.09375 0.84375 0 1.4062 0.07031 0.58594 0.07031 0.91407 0.21094 0.32812 0.11719 0.46875 0.30469 0.14062 0.1875 0.14062 0.42188z" style="font-feature-settings:normal;font-variant-caps:normal;font-variant-ligatures:normal;font-variant-numeric:normal"/>
<path d="m321.8 109.68q0 2.6719-0.70312 4.875-0.70313 2.2031-2.1328 3.7969-1.4297 1.5938-3.5859 2.4609-2.1562 0.86719-5.0391 0.86719-2.7891 0-4.8516-0.77344-2.0625-0.77343-3.4219-2.25-1.3594-1.4766-2.0156-3.6328t-0.65625-4.9219q0-2.6719 0.70313-4.875 0.72656-2.2266 2.1562-3.7969 1.4297-1.5937 3.5625-2.4609 2.1562-0.86719 5.0391-0.86719 2.8125 0 4.875 0.77344 2.0625 0.75 3.3984 2.2266 1.3594 1.4766 2.0156 3.6328t0.65625 4.9453zm-6.0703 0.23438q0-1.5469-0.25781-2.8359-0.23438-1.3125-0.82032-2.2734-0.58593-0.96094-1.5703-1.5-0.96094-0.53906-2.4375-0.53906-1.3125 0-2.2969 0.49219-0.98438 0.46875-1.6172 1.4062-0.63281 0.91406-0.96094 2.2266-0.30469 1.2891-0.30469 2.9531 0 1.5469 0.25782 2.8594 0.25781 1.2891 0.82031 2.25 0.58594 0.96094 1.5703 1.5 0.98438 0.51562 2.4375 0.51562 1.3359 0 2.3203-0.46875 0.98438-0.49218 1.6172-1.4062 0.63281-0.91406 0.9375-2.2031 0.30469-1.3125 0.30469-2.9766z" style="font-feature-settings:normal;font-variant-caps:normal;font-variant-ligatures:normal;font-variant-numeric:normal"/>
<path d="m358.33 99.387q0 0.25781-0.0703 0.63281-0.0703 0.375-0.25781 1.0781l-5.5781 18.914q-0.11718 0.39844-0.30468 0.65625-0.1875 0.23437-0.58594 0.375-0.375 0.14062-1.1016 0.1875-0.70313 0.0469-1.8516 0.0469-1.1484 0-1.875-0.0703-0.72656-0.0469-1.1484-0.1875-0.39844-0.14062-0.58594-0.375-0.1875-0.25781-0.28125-0.63281l-3.5156-12.703-0.0469-0.21093-0.0469 0.21093-3.2344 12.703q-0.0937 0.39844-0.28125 0.65625-0.16406 0.23437-0.58594 0.375-0.42187 0.14062-1.1484 0.1875-0.72656 0.0469-1.875 0.0469-1.1719 0-1.8984-0.0703-0.70313-0.0469-1.125-0.1875-0.39844-0.14062-0.58594-0.375-0.1875-0.25781-0.28125-0.63281l-5.5312-18.914q-0.21094-0.67969-0.28125-1.0547-0.0469-0.39844-0.0469-0.65625 0-0.23438 0.11719-0.39844 0.14063-0.1875 0.46875-0.28125 0.35156-0.11719 0.91406-0.16406 0.58594-0.04687 1.4531-0.04687 0.9375 0 1.5234 0.04687 0.58593 0.04687 0.91406 0.16406 0.32812 0.11719 0.44531 0.32812 0.14063 0.1875 0.21094 0.46875l4.1484 15.352 0.0469 0.28125 0.0469-0.28125 3.8906-15.352q0.0703-0.28125 0.21094-0.46875 0.16406-0.21094 0.46875-0.32812 0.30469-0.11719 0.84375-0.16406 0.5625-0.04687 1.4297-0.04687 0.86718 0 1.4062 0.07031 0.53906 0.04687 0.84375 0.16406 0.32812 0.09375 0.44531 0.28125 0.14062 0.16406 0.21094 0.39844l4.1719 15.469 0.0703 0.25781 0.0469-0.28125 3.9844-15.352q0.0469-0.28125 0.1875-0.46875 0.14063-0.21094 0.46875-0.32812 0.32813-0.11719 0.89063-0.16406 0.5625-0.04687 1.4297-0.04687 0.86718 0 1.4062 0.04687 0.5625 0.04687 0.86718 0.16406 0.32813 0.09375 0.44532 0.28125 0.11718 0.16406 0.11718 0.39844z" style="font-feature-settings:normal;font-variant-caps:normal;font-variant-ligatures:normal;font-variant-numeric:normal"/>
</g>
</svg>
