<?xml version="1.0" encoding="UTF-8" standalone="no"?>
<!-- Created with Inkscape (http://www.inkscape.org/) -->

<svg
   xmlns:dc="http://purl.org/dc/elements/1.1/"
   xmlns:cc="http://creativecommons.org/ns#"
   xmlns:rdf="http://www.w3.org/1999/02/22-rdf-syntax-ns#"
   xmlns:svg="http://www.w3.org/2000/svg"
   xmlns="http://www.w3.org/2000/svg"
   xmlns:sodipodi="http://sodipodi.sourceforge.net/DTD/sodipodi-0.dtd"
   xmlns:inkscape="http://www.inkscape.org/namespaces/inkscape"
   version="1.1"
   id="svg885"
   width="200"
   height="200"
   viewBox="0 0 200 200"
   sodipodi:docname="ShaarliLogo.svg"
   inkscape:version="0.92.4 (5da689c313, 2019-01-14)">
  <metadata
     id="metadata891">
    <rdf:RDF>
      <cc:Work
         rdf:about="">
        <dc:format>image/svg+xml</dc:format>
        <dc:type
           rdf:resource="http://purl.org/dc/dcmitype/StillImage" />
        <dc:title></dc:title>
      </cc:Work>
    </rdf:RDF>
  </metadata>
  <defs
     id="defs889" />
  <sodipodi:namedview
     pagecolor="#ffffff"
     bordercolor="#666666"
     borderopacity="1"
     objecttolerance="10"
     gridtolerance="10"
     guidetolerance="10"
     inkscape:pageopacity="0"
     inkscape:pageshadow="2"
     inkscape:window-width="1920"
     inkscape:window-height="915"
     id="namedview887"
     showgrid="false"
     inkscape:zoom="1.5294189"
     inkscape:cx="117.05888"
     inkscape:cy="115.19649"
     inkscape:window-x="0"
     inkscape:window-y="31"
     inkscape:window-maximized="1"
     inkscape:current-layer="svg885" />
  <g
     id="g913"
     transform="matrix(0.20753663,0,0,0.20762013,-7.2973254,4.0998543)">
    <path
       style="fill:#51ee2f;stroke-width:1.88235295"
       d="m 741.18988,939.97841 c -25.46106,-3.79904 -33.60713,-6.3652 -54.00485,-17.01246 -37.28162,-19.46039 -82.56202,-50.72426 -114.08185,-78.76789 -8.83838,-7.86362 -17.208,-14.29751 -18.59913,-14.29751 -1.39116,0 -6.94747,5.79325 -12.34737,12.87387 -33.59383,44.0499 -78.75694,72.7049 -136.02562,86.30524 -17.02278,4.04264 -25.64025,4.82487 -62.11765,5.6387 l -42.35294,0.94491 -16.94118,-6.03763 C 249.06941,916.92041 221.96225,899.82332 198.87479,875.48156 180.54494,856.1559 169.80972,838.3514 161.177,812.95938 c -5.71139,-16.79929 -6.12867,-19.83737 -6.88975,-50.16125 -0.92517,-36.86185 0.80022,-48.54753 12.70834,-86.07081 3.98428,-12.55473 6.82685,-23.50283 6.31683,-24.32913 -0.51002,-0.82631 -10.55669,-6.04444 -22.32594,-11.59584 C 123.04224,627.62142 104.43389,614.55947 86.550621,595.57223 52.432884,559.34833 35.42526,512.44186 35.353107,454.37114 35.279878,395.43395 54.192433,347.94612 93.089074,309.40101 135.02859,267.84052 197.41907,246.79698 294.60575,241.43192 c 12.92943,-0.71375 23.82008,-2.18547 24.78614,-3.3495 0.94777,-1.14198 3.05629,-14.1872 4.68559,-28.98934 8.55741,-77.74291 27.74809,-127.33044 64.17122,-165.814382 40.03682,-42.30209667 92.83844,-64.246709 154.35295,-64.149842 66.25214,0.104327 126.3922,40.003471 160.38878,106.407851 16.38347,32.001293 26.58099,65.484213 36.26908,119.087343 2.86697,15.86265 5.95652,29.55709 6.86564,30.43208 0.90914,0.87501 15.20591,4.68997 31.77061,8.4777 70.58163,16.13941 123.82382,39.76817 156.731,69.55688 23.28478,21.07819 44.78716,54.47034 55.00103,85.41398 5.23357,15.85546 9.36753,45.98592 9.40996,68.58472 0.13082,69.67968 -27.35256,123.71287 -77.77734,152.91251 -5.00828,2.90016 -9.50814,6.32111 -9.99971,7.60212 -0.49156,1.281 1.69865,6.54229 4.86714,11.69173 32.15757,52.26272 39.45306,129.86029 17.8938,190.32488 -17.08245,47.90899 -51.89589,85.83526 -93.63362,102.00576 -26.74538,10.36199 -64.45084,13.53662 -99.19814,8.352 z"
       id="path917"
       inkscape:connector-curvature="0" />
    <path
       style="fill:#00660b;stroke-width:1.88235295"
       d="M 756.24871,940.99426 C 739.68415,938.92391 710.85719,932.15883 701.66047,928.18355 668.80782,913.983 606.986,871.89632 570.06802,838.59881 c -7.66999,-6.91778 -14.86999,-12.27315 -16,-11.9008 -1.13004,0.37237 -7.09086,6.9629 -13.24629,14.64567 -37.99017,47.41656 -80.82618,73.90151 -139.96314,86.53741 -13.68303,2.92367 -28.16027,4.1664 -57.78636,4.96042 -39.51328,1.05899 -39.53555,1.05729 -54.58823,-4.12157 -51.79731,-17.82085 -93.63352,-50.71783 -113.70272,-89.40762 -13.46587,-25.95976 -17.45938,-42.20247 -18.51219,-75.29412 -1.08979,-34.25385 1.14883,-49.15127 13.05066,-86.84834 6.60572,-20.92254 7.34175,-24.83399 5.09034,-27.05165 -1.44759,-1.4259 -9.49303,-5.51868 -17.87877,-9.09508 C 102.37384,617.92566 65.064066,579.02484 48.825345,528.72408 38.818003,497.72553 36.441774,483.62883 36.450589,455.31232 c 0.01816,-58.34741 19.3224,-105.72819 59.053029,-144.94118 39.985562,-39.4646 98.830562,-59.84781 190.538532,-66.00028 18.72006,-1.25589 33.53164,-3.09581 34.84659,-4.32872 1.26003,-1.18138 3.59253,-13.97818 5.19402,-28.49592 7.08664,-64.24159 19.45758,-104.77924 42.99544,-140.889507 32.86686,-50.422209 90.18029,-83.522602 156.28732,-90.261079 71.55791,-7.294101 145.59903,39.570927 179.88891,113.862398 13.47283,29.189858 25.56901,72.619118 33.33611,119.687508 1.7552,10.63652 4.11691,20.53146 5.24825,21.98878 1.13135,1.45732 15.60992,5.73645 32.17462,9.50918 78.62101,17.90644 131.97792,43.15644 165.72915,78.42771 25.69719,26.85449 40.09395,53.11847 50.12574,91.44427 5.14696,19.6636 5.80994,25.24373 5.98214,50.34978 0.17035,24.82471 -0.41465,30.6227 -4.84237,48 -6.0667,23.80967 -13.69911,42.80853 -23.16669,57.66716 -9.64596,15.13862 -31.29632,35.88168 -46.77515,44.81493 -7.07433,4.08278 -13.30144,8.5673 -13.83802,9.96559 -0.53657,1.39829 4.23051,12.88135 10.5935,25.51793 40.84217,81.11029 30.16642,179.54671 -26.13419,240.97199 -32.56228,35.52621 -87.00452,54.695 -137.43881,48.3914 z m 54.99143,-77.21169 c 23.13342,-7.15684 39.62526,-21.88422 51.33741,-45.84486 10.41839,-21.31388 13.16262,-34.39874 13.08477,-62.3901 -0.0761,-27.33666 -2.80068,-40.83219 -13.25314,-65.64476 -12.74927,-30.26481 -29.43552,-54.44617 -62.90186,-91.15605 -11.60937,-12.73457 -20.53259,-23.72913 -19.82936,-24.43236 0.70323,-0.70322 14.56638,-1.86994 30.80702,-2.59269 45.34436,-2.01798 72.10586,-10.5697 93.08866,-29.74679 19.07746,-17.43572 25.8301,-35.95648 25.76352,-70.66264 -0.0889,-46.30922 -8.40239,-69.62829 -33.30583,-93.4209 -17.06957,-16.30816 -40.26983,-30.45718 -67.35012,-41.07446 -37.68572,-14.77533 -89.89812,-27.18542 -125.07254,-29.72785 l -19.69886,-1.42385 -1.34223,-5.64706 c -0.73824,-3.10588 -2.71151,-17.92941 -4.38504,-32.94118 -10.13839,-90.94234 -35.38976,-158.15484 -71.10197,-189.254613 -10.87531,-9.470724 -32.06946,-19.3602 -46.73455,-21.806988 -14.63446,-2.441681 -43.71379,-0.959373 -59.15614,3.01546 -55.74078,14.347586 -92.84186,62.494191 -105.19782,136.516731 -3.94396,23.62754 -7.21504,68.43223 -5.72263,78.38421 1.73124,11.54471 -1.93579,20.61357 -10.98607,27.16956 -12.16603,8.81303 -23.48064,11.142 -68.21113,14.04047 -53.15889,3.44461 -81.86481,7.78505 -110.11764,16.65018 -49.33706,15.48091 -81.07143,44.0666 -91.42636,82.35504 -4.47679,16.55341 -5.55858,54.50573 -2.07479,72.78981 8.03971,42.19509 37.09082,73.78867 85.03056,92.47221 18.39791,7.17022 57.60711,17.0797 67.57984,17.0797 2.7549,0 5.47908,1.22528 6.05374,2.72282 0.57468,1.49756 -6.57284,25.09118 -15.88337,52.43025 -20.49517,60.18129 -24.50699,74.17047 -26.5853,92.7028 -5.61257,50.04713 19.85641,88.53713 73.57737,111.19375 13.99014,5.90031 16.54333,6.35972 35.17147,6.32869 24.55631,-0.0408 48.39972,-2.43358 65.54407,-6.57737 19.13373,-4.62464 48.44561,-19.50357 63.66952,-32.31913 26.38626,-22.21207 43.52879,-46.61073 60.43221,-86.01213 l 9.79104,-22.82262 8.20706,-1.14993 c 4.51388,-0.63245 9.2563,-0.75727 10.53869,-0.27737 1.28241,0.47991 7.06196,7.62323 12.84348,15.87407 12.20717,17.42094 44.45463,51.41002 64.81327,68.31372 24.62541,20.44636 65.19498,47.54394 90.00006,60.11364 8.65908,4.38787 25.03452,8.68538 42.71744,11.21056 10.40122,1.48532 39.41666,-1.07543 50.28555,-4.43797 z M 350.50832,744.53114 c -7.92087,-3.59062 -15.49997,-13.13916 -17.07308,-21.50953 -3.5656,-18.97239 9.33734,-55.43868 37.6737,-106.47349 18.21188,-32.80023 46.28358,-94.80375 46.30468,-102.27565 0.0243,-8.64375 -16.57864,-16.18244 -40.86653,-18.55569 -7.02294,-0.68623 -37.78055,-1.37561 -68.35026,-1.53195 l -55.58129,-0.28428 -9.35989,-4.81747 c -13.43321,-6.91399 -17.83048,-14.31395 -17.83048,-30.00606 0,-13.62315 3.63106,-21.48894 13.17647,-28.54351 6.57753,-4.86116 22.85109,-6.53193 124.76038,-12.80884 96.92155,-5.96974 96.19983,-5.83967 103.70427,-18.689 6.732,-11.52682 8.6195,-26.25269 10.52016,-82.07629 2.45508,-72.10762 3.32891,-83.56198 7.86476,-103.09286 6.8841,-29.64222 19.21459,-42.12889 39.26808,-39.76539 21.98436,2.59106 31.87033,13.45294 39.74984,43.67383 3.38739,12.99193 3.88365,22.59607 4.83324,93.53736 1.03388,77.23864 1.1504,79.16054 5.06112,83.47731 9.57557,10.56978 14.22238,11.47237 63.65035,12.3634 106.34216,1.91701 162.13892,14.19772 172.02673,37.86259 9.21482,22.05417 -3.72749,34.25764 -43.99354,41.48205 -13.50626,2.42327 -29.88126,2.83596 -93.1607,2.34794 -66.5948,-0.5136 -77.02539,-0.21775 -78.66925,2.23141 -2.89178,4.30845 -0.34146,18.84211 4.61335,26.29045 8.89197,13.36685 48.2528,56.68296 91.567,100.76838 26.89018,27.36896 45.78741,48.14439 47.94099,52.70588 1.95512,4.14118 3.91094,12.24883 4.34624,18.017 0.6495,8.60659 -0.10071,12.24807 -4.18246,20.30317 -11.73647,23.16081 -34.92004,23.01325 -63.55042,-0.40446 -5.88977,-4.81743 -38.7932,-40.13553 -73.11874,-78.48463 -34.32553,-38.34912 -64.65091,-71.8035 -67.38972,-74.34308 -6.81822,-6.32222 -17.7427,-6.24928 -27.20662,0.18165 -5.92384,4.02535 -9.91027,10.48879 -24.72774,40.09253 -49.23419,98.36475 -86.90893,146.29915 -117.84714,149.9395 -5.18127,0.60966 -10.61825,-0.009 -14.1535,-1.61223 z"
       id="path915"
       inkscape:connector-curvature="0" />
  </g>
</svg>
