<svg xmlns="http://www.w3.org/2000/svg" version="1.0" width="98.918" height="100" xml:space="preserve"><g transform="translate(41.371 .286) scale(.57616)"><ellipse cx="13.566" cy="86.286" rx="13.566" ry="13.714" style="fill:#f95"/><path d="M65.569 100H46.35c0-25.879-20.752-46.858-46.35-46.858V33.715c36.214 0 65.569 29.676 65.569 66.285z" style="fill:#f95"/><path d="M79.135 100c0-44.183-35.429-80-79.135-80V0c54.631 0 98.918 44.772 98.918 100H79.135z" style="fill:#f95"/></g><path style="fill:#59f" d="M27.29 48.897h7.086c0 9.541 7.65 17.276 17.088 17.276v7.162c-13.351 0-24.173-10.94-24.173-24.438z" transform="matrix(1.56282 0 0 1.56282 -23.424 -34.32)"/><path style="fill:#59f" d="M22.638 48.625C22.484 64.913 35.42 78.24 51.533 78.39l-.07 7.373c-20.139-.19-36.31-16.848-36.119-37.208l7.294.069z" transform="matrix(1.56282 0 0 1.56282 -23.424 -34.32)"/></svg>