<svg xmlns="http://www.w3.org/2000/svg" width="161.624" height="161.714" viewBox="0 0 151.523 151.606"><rect ry="9.838" y="470.029" x="34.587" height="151.523" width="151.523" style="color:#000;clip-rule:nonzero;display:inline;overflow:visible;visibility:visible;opacity:1;isolation:auto;mix-blend-mode:normal;color-interpolation:sRGB;color-interpolation-filters:linearRGB;solid-color:#000;solid-opacity:1;fill:#02a7f2;fill-opacity:1;fill-rule:evenodd;stroke:none;stroke-width:1px;stroke-linecap:butt;stroke-linejoin:miter;stroke-miterlimit:4;stroke-dasharray:none;stroke-dashoffset:0;stroke-opacity:1;color-rendering:auto;image-rendering:auto;shape-rendering:auto;text-rendering:auto;enable-background:accumulate" transform="translate(-34.587 -470.029)"/><path d="m419.918 579.963-38.75-40.625 97.946-59.107 34.107 34.018.045 56.026s-.078 4.054-2.424 6.237c-2.096 2.784-6.103 3.228-6.103 3.228z" style="fill:#6b6b6b;fill-opacity:.1592357;fill-rule:evenodd;stroke:none;stroke-width:1px;stroke-linecap:butt;stroke-linejoin:miter;stroke-opacity:1" transform="translate(-361.756 -428.356)"/><path d="M425.086 458.534a32.83 30.81 0 0 0-32.83 30.808 32.83 30.81 0 0 0 .511 5.375 25.885 28.284 0 0 0-17.431 26.698 25.885 28.284 0 0 0 25.886 28.285 25.885 28.284 0 0 0 3.881-.356h64.73a25.536 24.643 0 0 0 4.34.358 25.536 24.643 0 0 0 25.526-24.643v-.04a25.536 24.643 0 0 0-19.598-23.9 16.16 16.696 0 0 0 3.17-9.9v-.027a16.16 16.696 0 0 0-16.18-16.67 16.16 16.696 0 0 0-11.083 4.578 32.83 30.81 0 0 0-30.922-20.566z" style="color:#000;clip-rule:nonzero;display:inline;overflow:visible;visibility:visible;opacity:1;isolation:auto;mix-blend-mode:normal;color-interpolation:sRGB;color-interpolation-filters:linearRGB;solid-color:#000;solid-opacity:1;fill:#fff;fill-opacity:1;fill-rule:evenodd;stroke:none;stroke-width:1px;stroke-linecap:butt;stroke-linejoin:miter;stroke-miterlimit:4;stroke-dasharray:none;stroke-dashoffset:0;stroke-opacity:1;color-rendering:auto;image-rendering:auto;shape-rendering:auto;text-rendering:auto;enable-background:accumulate" transform="translate(-361.756 -428.356)"/><path d="M427.434 482.251v24.244l-15.658-.134c-1.786.402-1.263 2.154-1.263 2.154l25.404 25.596 24.607-25.061s.515-2.592-1.27-2.681l-14.9.126-.38-24.37z" style="fill:#02a7f2;fill-opacity:1;fill-rule:evenodd;stroke:none;stroke-width:1px;stroke-linecap:butt;stroke-linejoin:miter;stroke-opacity:1" transform="translate(-361.756 -428.356)"/></svg>