<svg viewBox="0 0 200 220" xmlns="http://www.w3.org/2000/svg"><defs><style>.a{fill:#c73a63}.b{fill:#4b4b4b}.c{fill:#4a4a4a}</style></defs><g transform="matrix(0 -1.79017 1.79017 0 -248.608 -3.797)" stroke-width=".322" fill="#009be5"><ellipse transform="translate(-103.05 144.74)" cx="13.566" cy="86.286" rx="13.566" ry="13.714"/><path d="M-37.481 244.74H-56.7c0-25.879-20.752-46.858-46.35-46.858v-19.427c36.214 0 65.569 29.676 65.569 66.285z"/><path d="M-23.915 244.74c0-44.183-35.429-80-79.135-80v-20c54.631 0 98.918 44.772 98.918 100z"/></g><g fill="#009be5" style="font-feature-settings:normal;font-variant-caps:normal;font-variant-ligatures:normal;font-variant-numeric:normal" aria-label="read"><path d="M196.37 101.38q0 .844-.047 1.383t-.14.844q-.094.304-.258.421-.141.118-.375.118-.188 0-.422-.07-.235-.094-.54-.188-.28-.094-.632-.164-.352-.094-.774-.094-.492 0-.984.211-.492.187-1.031.61-.516.421-1.102 1.124-.562.703-1.218 1.735v13.03q0 .235-.141.423-.14.164-.492.28-.328.118-.89.165-.563.07-1.43.07t-1.43-.07q-.563-.047-.914-.164-.329-.117-.47-.281-.14-.188-.14-.422V99.435q0-.235.117-.399.118-.187.422-.304.305-.118.774-.164.492-.07 1.219-.07.75 0 1.242.07.492.046.75.164.281.117.398.304.117.164.117.399v2.601q.82-1.172 1.547-1.922.727-.773 1.383-1.218.656-.446 1.313-.61.656-.187 1.312-.187.305 0 .656.047.352.023.727.117.375.07.656.187.281.094.399.211.14.118.187.258.07.14.117.399.047.234.07.726.024.492.024 1.336zM218.76 109.28q0 1.078-.492 1.594-.469.515-1.313.515h-12.727q0 1.336.305 2.438.328 1.078 1.008 1.852.703.75 1.781 1.148 1.102.398 2.625.398 1.547 0 2.719-.21 1.172-.235 2.015-.493.868-.281 1.43-.492.563-.234.914-.234.211 0 .352.093.14.07.234.282.094.21.117.609.047.375.047.96 0 .517-.023.892-.024.351-.07.609t-.141.445q-.094.164-.258.328-.14.164-.82.446t-1.735.562q-1.054.258-2.414.446-1.36.21-2.906.21-2.79 0-4.898-.703-2.086-.703-3.493-2.132-1.406-1.43-2.109-3.61-.68-2.18-.68-5.11 0-2.788.727-5.015.726-2.25 2.11-3.797 1.382-1.57 3.35-2.39 1.993-.82 4.478-.82 2.625 0 4.476.773 1.875.773 3.07 2.156 1.196 1.36 1.758 3.234t.563 4.078zm-5.719-1.688q.07-2.484-1.008-3.89-1.054-1.43-3.28-1.43-1.126 0-1.97.422-.82.422-1.382 1.148-.54.704-.844 1.688-.281.96-.328 2.062zM241.44 120.41q0 .328-.234.516-.235.187-.75.257-.493.094-1.477.094-1.055 0-1.547-.094-.469-.07-.68-.257-.187-.188-.187-.516v-1.664q-1.29 1.383-2.953 2.156-1.64.774-3.656.774-1.664 0-3.07-.446-1.383-.422-2.415-1.265-1.008-.868-1.57-2.133-.563-1.266-.563-2.953 0-1.828.704-3.164.726-1.36 2.132-2.227 1.43-.89 3.54-1.312 2.109-.422 4.898-.422h2.039v-1.266q0-.984-.211-1.71-.187-.75-.656-1.243-.446-.492-1.219-.727-.75-.234-1.875-.234-1.477 0-2.648.328-1.149.328-2.04.727-.89.398-1.5.726-.585.328-.96.328-.258 0-.47-.164-.187-.164-.327-.468-.118-.305-.188-.75-.07-.446-.07-.985 0-.726.117-1.148.117-.422.445-.75.328-.352 1.149-.75.82-.422 1.922-.774 1.101-.351 2.39-.562 1.313-.235 2.696-.235 2.46 0 4.195.493 1.758.468 2.883 1.476 1.125.985 1.64 2.555.516 1.57.516 3.727zm-5.79-8.953h-2.25q-1.429 0-2.437.21t-1.64.634q-.633.422-.938 1.03-.28.587-.28 1.36 0 1.313.82 2.063.843.75 2.32.75 1.242 0 2.273-.633 1.055-.633 2.133-1.852zM267.18 120.34q0 .258-.117.445-.117.164-.399.282-.28.117-.773.164-.469.047-1.172.047-.75 0-1.219-.047t-.773-.164q-.281-.118-.422-.282-.117-.187-.117-.445v-2.32q-1.617 1.734-3.399 2.695-1.757.96-3.914.96-2.39 0-4.054-.913-1.641-.938-2.696-2.508-1.031-1.57-1.5-3.656-.469-2.11-.469-4.43 0-2.789.586-5.015.61-2.227 1.758-3.797 1.149-1.57 2.86-2.414 1.71-.844 3.937-.844 1.758 0 3.188.726 1.43.704 2.836 2.086V89.59q0-.234.117-.422.14-.187.468-.304.352-.14.915-.211.562-.07 1.43-.07t1.429.07.89.21q.329.118.47.305.14.188.14.422zm-5.86-13.969q-1.265-1.594-2.437-2.437-1.148-.844-2.414-.844-1.148 0-1.992.586-.82.562-1.336 1.523-.492.961-.75 2.156-.234 1.172-.234 2.414 0 1.313.21 2.555t.68 2.227q.492.96 1.29 1.547.796.586 2.015.586.61 0 1.172-.165.586-.187 1.172-.585.609-.399 1.242-1.032.633-.656 1.383-1.593z" style="font-feature-settings:normal;font-variant-caps:normal;font-variant-ligatures:normal;font-variant-numeric:normal" transform="translate(-171.56 94.72)"/></g><g fill="#ff7f2a" style="font-feature-settings:normal;font-variant-caps:normal;font-variant-ligatures:normal;font-variant-numeric:normal" aria-label="flow"><path d="M294.7 120.34q0 .234-.14.422-.141.164-.47.281-.327.117-.913.164-.563.07-1.407.07-.867 0-1.453-.07-.562-.047-.89-.164-.328-.117-.47-.281-.14-.188-.14-.422V93.199q-.07.14-.21.21-.118.071-.305.071-.258 0-.68-.093-.422-.094-.938-.165-.515-.093-1.03-.117-.493-.047-.985-.047-1.055 0-1.758.211-.703.211-1.125.657-.398.421-.562 1.125t-.164 1.664v1.922h3.468q.235 0 .399.117.187.117.304.398.118.258.164.727.07.469.07 1.148 0 1.29-.234 1.852-.234.539-.68.539h-3.491v16.922q0 .234-.141.422-.14.164-.469.281-.328.117-.914.164-.562.07-1.43.07-.843 0-1.43-.07-.562-.047-.913-.164-.329-.117-.47-.281-.116-.188-.116-.422v-16.922h-2.625q-.446 0-.68-.54-.21-.562-.21-1.85 0-.68.046-1.15.07-.468.164-.726.117-.281.281-.398.188-.117.422-.117h2.602v-1.805q0-2.11.468-3.703.47-1.617 1.477-2.672 1.031-1.078 2.578-1.594 1.57-.539 3.774-.539.632 0 1.335.047.727.047 1.407.14.68.07 1.172.188.492.094.773.21.281.095.445.235t.235.352q.023-.211.117-.375.117-.164.398-.305.305-.14.868-.21.585-.094 1.546-.094.844 0 1.407.07.586.07.914.21.328.118.468.305.141.188.141.422zM321.8 109.68q0 2.672-.703 4.875t-2.133 3.797q-1.43 1.594-3.586 2.46-2.156.868-5.039.868-2.789 0-4.852-.773-2.062-.774-3.421-2.25-1.36-1.477-2.016-3.633t-.656-4.922q0-2.672.703-4.875.726-2.227 2.156-3.797 1.43-1.594 3.563-2.461 2.156-.867 5.039-.867 2.812 0 4.875.773 2.062.75 3.398 2.227 1.36 1.477 2.016 3.633t.656 4.945zm-6.07.234q0-1.547-.258-2.836-.234-1.312-.82-2.273-.586-.96-1.57-1.5-.962-.539-2.438-.539-1.313 0-2.297.492-.985.469-1.617 1.406-.633.914-.961 2.227-.305 1.29-.305 2.953 0 1.547.258 2.86.258 1.289.82 2.25.586.96 1.57 1.5.985.515 2.438.515 1.336 0 2.32-.469.985-.492 1.617-1.406.633-.914.938-2.203.305-1.312.305-2.977zM358.33 99.387q0 .258-.07.633t-.258 1.078l-5.578 18.914q-.117.398-.305.656-.187.235-.586.375-.375.14-1.101.188-.704.047-1.852.047-1.148 0-1.875-.07-.727-.048-1.148-.188-.399-.14-.586-.375-.188-.258-.282-.633l-3.515-12.703-.047-.211-.047.21-3.234 12.704q-.094.398-.282.656-.164.235-.586.375-.421.14-1.148.188-.727.047-1.875.047-1.172 0-1.898-.07-.704-.048-1.125-.188-.399-.14-.586-.375-.188-.258-.282-.633l-5.53-18.914q-.212-.68-.282-1.055-.047-.398-.047-.656 0-.234.117-.398.14-.188.469-.282.352-.117.914-.164.586-.047 1.453-.047.938 0 1.524.047.585.047.914.164.328.118.445.328.14.188.21.47l4.15 15.351.046.281.047-.28 3.89-15.353q.071-.281.212-.469.164-.21.468-.328.305-.117.844-.164.563-.047 1.43-.047t1.406.07q.54.048.844.165.328.094.445.281.14.164.211.398l4.172 15.47.07.257.047-.281 3.984-15.352q.047-.281.188-.469.14-.21.469-.328.328-.117.89-.164.563-.047 1.43-.047t1.406.047q.563.047.867.164.329.094.446.281.117.164.117.399z" style="font-feature-settings:normal;font-variant-caps:normal;font-variant-ligatures:normal;font-variant-numeric:normal" transform="translate(-171.56 94.72)"/></g></svg>