<svg version="1.1" id="Layer_1" xmlns="http://www.w3.org/2000/svg" x="0" y="0" viewBox="0 0 512 512" style="enable-background:new 0 0 512 512" xml:space="preserve"><style>.st0{fill:#8c3123}.st1{fill:#e05243}</style><g id="XMLID_1_"><path id="XMLID_2_" class="st0" d="m78.27 88.79-34.08 17.12v299.48l34.08 16.97.28-.28V89.07l-.28-.28"/><path id="XMLID_3_" class="st1" d="M260.91 378.88 78.27 422.36V88.79l182.64 42.51v247.58"/><path id="XMLID_4_" class="st0" d="m178.57 310.85 77.43 9.82.42-1.13.56-126.94-.98-.99-77.43 9.68v109.56"/><path id="XMLID_5_" class="st0" d="m256 379.44 177.59 43.07.28-.43V89.07l-.28-.28L256 131.86v247.58"/><path id="XMLID_6_" class="st1" d="M333.43 310.85 256 320.67V191.61l77.43 9.68v109.56"/><path id="XMLID_7_" style="fill:#5e1f18" d="M333.43 148.27 256 162.44l-77.43-14.17 77.29-20.2 77.57 20.2"/><path id="XMLID_8_" style="fill:#f2b0a9" d="M333.43 363.73 256 349.42l-77.43 14.31 77.29 21.6 77.57-21.6"/><path id="XMLID_9_" class="st0" d="M178.57 148.27 256 129.19l.56-.28V.56L256 0l-77.43 38.72v109.55"/><path id="XMLID_10_" class="st1" d="M333.43 148.27 256 129.19V0l77.43 38.72v109.55"/><path id="XMLID_11_" class="st0" d="m256 512-77.43-38.72V363.73L256 382.81l1.12 1.4-.28 125.55L256 512"/><path id="XMLID_12_" class="st1" d="m256 512 77.43-38.72V363.73L256 382.81V512"/><path id="XMLID_13_" class="st1" d="m433.59 88.79 34.22 17.12v299.48l-34.22 17.12V88.79"/></g></svg>