<svg xmlns="http://www.w3.org/2000/svg" viewBox="0 0 200 200"><path d="M146.527 199.258c-5.284-.788-6.975-1.321-11.208-3.532-7.738-4.04-17.135-10.531-23.676-16.354-1.835-1.632-3.572-2.968-3.86-2.968-.29 0-1.442 1.203-2.563 2.673-6.972 9.145-16.345 15.095-28.23 17.918-3.533.84-5.322 1.002-12.892 1.171l-8.79.196-3.516-1.253c-7.398-2.638-13.024-6.188-17.816-11.242-3.804-4.012-6.032-7.709-7.823-12.98-1.186-3.488-1.272-4.12-1.43-10.415-.192-7.653.166-10.08 2.637-17.87.827-2.607 1.417-4.88 1.311-5.051-.105-.172-2.19-1.255-4.633-2.408-5.8-2.736-9.661-5.448-13.373-9.39C3.585 120.232.055 110.493.04 98.436.025 86.2 3.95 76.34 12.022 68.338c8.704-8.63 21.652-12.998 41.822-14.112 2.683-.148 4.944-.454 5.144-.695.197-.238.634-2.946.973-6.02 1.776-16.14 5.758-26.436 13.318-34.426C81.588 4.303 92.546-.254 105.312-.233c13.75.021 26.231 8.305 33.287 22.092 3.4 6.644 5.516 13.596 7.527 24.725.595 3.293 1.236 6.137 1.425 6.318.189.182 3.156.974 6.594 1.76 14.648 3.351 25.698 8.257 32.527 14.442 4.832 4.376 9.295 11.309 11.415 17.733 1.086 3.292 1.944 9.548 1.953 14.24.027 14.467-5.677 25.685-16.142 31.748-1.04.602-1.973 1.312-2.075 1.578-.102.266.352 1.358 1.01 2.428 6.674 10.85 8.188 26.961 3.713 39.515-3.545 9.947-10.77 17.82-19.432 21.178-5.55 2.152-13.376 2.81-20.587 1.734z" fill="#51ee2f"/><path d="M149.652 199.47c-3.438-.43-9.42-1.835-11.33-2.66-6.817-2.949-19.647-11.687-27.31-18.6-1.591-1.436-3.085-2.548-3.32-2.471-.234.077-1.472 1.446-2.749 3.04-7.884 9.845-16.774 15.344-29.047 17.968-2.84.607-5.845.865-11.993 1.03-8.2.22-8.205.219-11.33-.856-10.75-3.7-19.432-10.53-23.597-18.563-2.794-5.39-3.623-8.762-3.842-15.633-.226-7.111.239-10.204 2.709-18.031 1.37-4.344 1.523-5.156 1.056-5.617-.3-.296-1.97-1.145-3.71-1.888-11.24-4.795-18.983-12.872-22.353-23.315C.759 107.438.266 104.51.268 98.632.27 86.518 4.278 76.68 12.523 68.539c8.299-8.193 20.511-12.425 39.544-13.703 3.885-.26 6.959-.643 7.232-.899.261-.245.745-2.902 1.078-5.916 1.47-13.338 4.038-21.754 8.923-29.251C76.12 8.3 88.016 1.429 101.735.03c14.851-1.515 30.217 8.215 37.334 23.64 2.796 6.06 5.306 15.077 6.918 24.85.365 2.208.855 4.262 1.09 4.565.234.302 3.24 1.19 6.677 1.974 16.317 3.718 27.39 8.96 34.395 16.283 5.333 5.576 8.32 11.029 10.403 18.986 1.068 4.082 1.205 5.24 1.241 10.453.036 5.154-.086 6.358-1.005 9.966-1.259 4.943-2.843 8.888-4.808 11.973-2.002 3.143-6.495 7.45-9.707 9.304-1.468.848-2.76 1.78-2.872 2.07-.112.29.878 2.674 2.198 5.298 8.477 16.84 6.261 37.277-5.423 50.03-6.758 7.376-18.057 11.356-28.524 10.047zm11.413-16.031c4.8-1.486 8.223-4.544 10.654-9.519 2.162-4.425 2.732-7.142 2.716-12.953-.016-5.676-.582-8.478-2.75-13.63-2.647-6.283-6.11-11.304-13.055-18.925-2.41-2.644-4.262-4.927-4.116-5.073.146-.146 3.023-.388 6.394-.538 9.41-.42 14.965-2.195 19.32-6.176 3.959-3.62 5.36-7.466 5.346-14.671-.018-9.615-1.744-14.456-6.912-19.396-3.543-3.386-8.357-6.324-13.978-8.528-7.82-3.068-18.657-5.644-25.957-6.172l-4.088-.296-.279-1.172c-.153-.645-.562-3.723-.91-6.84-2.104-18.881-7.344-32.836-14.756-39.293-2.257-1.966-6.655-4.02-9.699-4.527-3.037-.507-9.072-.2-12.277.626C85.15 19.335 77.45 29.33 74.886 44.699c-.819 4.906-1.498 14.208-1.188 16.275.36 2.397-.402 4.28-2.28 5.64-2.525 1.83-4.873 2.314-14.156 2.916-11.033.715-16.99 1.616-22.854 3.457-10.24 3.214-16.825 9.149-18.974 17.098-.93 3.437-1.154 11.317-.43 15.113 1.668 8.76 7.697 15.32 17.646 19.199 3.818 1.489 11.956 3.546 14.025 3.546.572 0 1.138.254 1.257.565.12.311-1.364 5.21-3.297 10.886-4.253 12.495-5.086 15.4-5.517 19.247-1.165 10.39 4.12 18.382 15.27 23.086 2.903 1.225 3.433 1.32 7.3 1.314 5.096-.009 10.044-.505 13.602-1.366 3.971-.96 10.054-4.05 13.214-6.71 5.476-4.612 9.034-9.677 12.542-17.858l2.032-4.738 1.703-.239c.937-.131 1.921-.157 2.187-.058.266.1 1.466 1.583 2.666 3.296 2.533 3.617 9.226 10.674 13.45 14.184 5.112 4.245 13.531 9.87 18.68 12.48 1.796.911 5.195 1.804 8.865 2.328 2.158.308 8.18-.223 10.436-.921zm-95.619-24.76c-1.644-.745-3.217-2.727-3.543-4.465-.74-3.94 1.938-11.51 7.818-22.106 3.78-6.81 9.606-19.684 9.61-21.235.005-1.794-3.44-3.36-8.481-3.852-1.458-.143-7.84-.286-14.185-.318l-11.535-.06-1.943-1c-2.788-1.435-3.7-2.972-3.7-6.23 0-2.828.753-4.461 2.734-5.926 1.365-1.009 4.743-1.356 25.893-2.66 20.114-1.239 19.965-1.212 21.522-3.88 1.397-2.393 1.789-5.45 2.183-17.04.51-14.971.691-17.35 1.633-21.404 1.428-6.154 3.987-8.747 8.15-8.256 4.562.538 6.613 2.793 8.249 9.067.703 2.698.806 4.692 1.003 19.42.214 16.037.239 16.436 1.05 17.332 1.987 2.195 2.952 2.382 13.21 2.567 22.07.398 33.65 2.948 35.702 7.861 1.912 4.579-.774 7.113-9.13 8.613-2.804.503-6.202.588-19.335.487-13.82-.107-15.985-.045-16.327.463-.6.895-.07 3.912.958 5.459 1.845 2.775 10.014 11.768 19.003 20.921 5.581 5.683 9.503 9.996 9.95 10.943.406.86.812 2.543.902 3.74.135 1.788-.021 2.544-.868 4.216-2.436 4.809-7.247 4.778-13.19-.084-1.221-1-8.05-8.333-15.174-16.295-7.124-7.962-13.417-14.908-13.986-15.435-1.415-1.313-3.682-1.297-5.646.038-1.23.836-2.057 2.177-5.132 8.324-10.218 20.422-18.037 30.374-24.458 31.13-1.075.127-2.203-.002-2.937-.334z" fill="#00660b"/></svg>