<?xml version="1.0" encoding="UTF-8" standalone="no"?>
<!-- Created with Inkscape (http://www.inkscape.org/) -->

<svg
   width="17.553448mm"
   height="29.64509mm"
   viewBox="0 0 17.553448 29.64509"
   version="1.1"
   id="svg5"
   inkscape:version="1.1.2 (b8e25be833, 2022-02-05)"
   sodipodi:docname="cleansweep.svg"
   xmlns:inkscape="http://www.inkscape.org/namespaces/inkscape"
   xmlns:sodipodi="http://sodipodi.sourceforge.net/DTD/sodipodi-0.dtd"
   xmlns="http://www.w3.org/2000/svg"
   xmlns:svg="http://www.w3.org/2000/svg">
  <sodipodi:namedview
     id="namedview7"
     pagecolor="#ffffff"
     bordercolor="#666666"
     borderopacity="1.0"
     inkscape:pageshadow="2"
     inkscape:pageopacity="0.0"
     inkscape:pagecheckerboard="0"
     inkscape:document-units="mm"
     showgrid="false"
     fit-margin-top="1"
     fit-margin-left="1"
     fit-margin-bottom="1"
     fit-margin-right="1"
     inkscape:zoom="5.9223906"
     inkscape:cx="51.921601"
     inkscape:cy="66.358339"
     inkscape:window-width="1920"
     inkscape:window-height="1017"
     inkscape:window-x="-8"
     inkscape:window-y="-8"
     inkscape:window-maximized="1"
     inkscape:current-layer="layer1" />
  <defs
     id="defs2" />
  <g
     inkscape:label="Layer 1"
     inkscape:groupmode="layer"
     id="layer1"
     transform="translate(-28.389588,-137.07938)">
    <path
       style="fill:#000000;stroke-width:0.0423333"
       d="m 44.501993,165.62922 c -0.01063,-0.0524 -0.02842,-0.20244 -0.03954,-0.33344 -0.01828,-0.21528 -0.01092,-0.24317 0.07645,-0.28993 0.104549,-0.0559 0.259513,-0.0419 0.250259,0.0226 -0.0031,0.0219 -0.01979,0.0874 -0.03701,0.14565 -0.01722,0.0582 -0.01691,0.0922 6.9e-4,0.0756 0.04845,-0.0458 0.190193,0.0451 0.190193,0.12201 0,0.0816 -0.278234,0.35276 -0.362041,0.35276 -0.03282,0 -0.06837,-0.0429 -0.079,-0.0952 z m 0.260514,-0.0964 c 0.122403,-0.0857 0.07996,-0.19825 -0.0683,-0.18105 -0.08568,0.01 -0.114065,0.0394 -0.124404,0.12929 -0.01537,0.13361 0.05056,0.15132 0.192703,0.0518 z m -0.08838,-0.34112 c 0.05963,-0.091 0.06192,-0.11551 0.01358,-0.14538 -0.0851,-0.0526 -0.125673,-0.0105 -0.125673,0.13032 0,0.15287 0.02003,0.15556 0.112093,0.0151 z m -0.664754,0.29994 c -0.002,-0.11641 -0.0187,-0.24976 -0.03714,-0.29633 -0.02643,-0.0668 -0.04512,-0.0332 -0.08843,0.15875 -0.0302,0.13388 -0.06921,0.24342 -0.08669,0.24342 -0.04537,0 0.06827,-0.46344 0.128091,-0.52238 0.03793,-0.0374 0.06437,-0.0295 0.11051,0.033 0.03574,0.0484 0.06065,0.0596 0.06065,0.0272 0,-0.0302 0.02625,-0.0449 0.05834,-0.0326 0.03209,0.0123 0.0794,0.001 0.105128,-0.0244 0.02573,-0.0257 0.06021,-0.0334 0.07661,-0.017 0.05384,0.0538 0.06968,0.53955 0.01924,0.58999 -0.03531,0.0353 -0.04851,-0.0176 -0.05099,-0.20424 -0.0034,-0.25743 -0.02039,-0.2437 -0.107325,0.0868 -0.03153,0.11984 -0.03494,0.11508 -0.06055,-0.0847 -0.02662,-0.20754 -0.02729,-0.20837 -0.03444,-0.0423 -0.01159,0.26884 -0.08864,0.33899 -0.093,0.0847 z M 43.1227,164.52709 c -0.194633,-0.0676 -0.199892,-0.18086 -0.008,-0.17192 0.182781,0.008 0.396369,0.0981 0.37673,0.15802 -0.02207,0.0673 -0.195992,0.0739 -0.368748,0.0139 z m -1.175913,-0.13852 c -0.115761,-0.0811 -0.123079,-0.25394 -0.01364,-0.32228 0.104192,-0.0651 0.07282,-0.13901 -0.10581,-0.24941 -0.275392,-0.1702 -0.139236,-0.2735 0.272895,-0.20704 0.319173,0.0515 0.68927,0.24308 0.761912,0.39446 0.05153,0.10738 0.048,0.12816 -0.03711,0.21876 -0.189096,0.20128 -0.691894,0.29604 -0.878247,0.16551 z m 1.35583,-0.14482 c -0.05239,-0.0223 -0.09525,-0.0697 -0.09525,-0.10541 0,-0.0501 0.05109,-0.0649 0.224742,-0.0649 0.215528,0 0.422737,0.0863 0.359366,0.14967 -0.04952,0.0495 -0.387476,0.0638 -0.488858,0.0206 z m -11.969319,-0.0507 c -0.454126,-0.0866 -1.189603,-0.54985 -1.601528,-1.00874 -0.411032,-0.4579 -0.436613,-0.65006 -0.157778,-1.18518 0.154564,-0.29662 0.192398,-0.4156 0.215383,-0.67733 l 0.02788,-0.3175 0.0064,0.28 c 0.0058,0.25261 -0.01192,0.31687 -0.180774,0.65668 -0.248928,0.50096 -0.261025,0.56125 -0.158921,0.79208 0.125853,0.28451 0.399492,0.55467 0.889823,0.8785 0.80169,0.52948 1.30895,0.63063 2.207928,0.44027 0.05821,-0.0123 0.03448,0.006 -0.05274,0.0397 -0.160575,0.0629 -0.723035,0.15525 -0.892241,0.14656 -0.0507,-0.003 -0.187243,-0.0229 -0.303423,-0.045 z m 9.005986,-0.0786 c -0.05239,-0.0211 -0.09525,-0.07 -0.09525,-0.10869 0,-0.0572 0.0286,-0.0658 0.151944,-0.0458 0.252292,0.041 0.378888,0.20057 0.154972,0.19541 -0.06403,-0.001 -0.159279,-0.0199 -0.211666,-0.041 z m -0.941917,-0.0956 c -0.124936,-0.063 -0.158041,-0.2056 -0.06554,-0.28237 0.09654,-0.0801 0.08171,-0.1372 -0.06753,-0.25987 -0.07767,-0.0638 -0.121196,-0.13047 -0.103716,-0.15875 0.07421,-0.12007 0.604622,-0.006 0.852533,0.18268 0.243854,0.186 0.173975,0.38569 -0.179023,0.51158 -0.203368,0.0725 -0.303147,0.0741 -0.436719,0.007 z m -6.519333,-0.0724 c 0.03493,-0.0226 0.08255,-0.041 0.105834,-0.041 0.02328,0 0.01376,0.0185 -0.02117,0.041 -0.03493,0.0226 -0.08255,0.041 -0.105833,0.041 -0.02328,0 -0.01376,-0.0185 0.02117,-0.041 z m 10.203559,0.002 c -0.09849,-0.0623 -0.0267,-0.094 0.265777,-0.1175 0.190564,-0.0153 0.281418,-0.006 0.304127,0.0306 0.0184,0.0298 0.0072,0.0684 -0.02596,0.0893 -0.07751,0.0491 -0.465215,0.0474 -0.543948,-0.002 z m -2.577288,-0.11031 c -0.118961,-0.0855 -0.06087,-0.14367 0.144388,-0.14469 0.132831,-6.7e-4 0.314598,0.0985 0.267269,0.14586 -0.0677,0.0677 -0.316763,0.067 -0.411657,-0.001 z m -7.271243,-0.0957 c 0.06085,-0.0775 0.110639,-0.19505 0.110639,-0.2613 0,-0.10004 -0.02501,-0.12873 -0.147502,-0.16915 -0.08113,-0.0268 -0.190664,-0.0365 -0.243417,-0.0217 -0.07494,0.0211 -0.08203,0.0173 -0.03241,-0.0175 0.08146,-0.057 0.236844,-0.0579 0.341449,-0.002 0.104543,0.0559 0.104281,0.0409 -0.0076,-0.43556 -0.158105,-0.67344 -0.0686,-0.98415 0.316759,-1.09961 l 0.168869,-0.0506 -0.272167,-0.0516 c -0.340017,-0.0644 -1.064188,-0.11421 -0.952544,-0.0655 0.06364,0.0277 0.02338,0.048 -0.182687,0.0917 -0.159214,0.0338 -0.243307,0.0691 -0.211488,0.0887 0.02905,0.018 -0.06971,0.0253 -0.219479,0.0164 -0.197925,-0.0118 -0.237613,-0.007 -0.145302,0.0195 0.06985,0.0197 0.101726,0.038 0.07083,0.0408 -0.03143,0.003 -0.001,0.0514 0.06902,0.11034 0.15695,0.13207 0.1907,0.25074 0.09575,0.33667 -0.101336,0.0917 -0.441412,0.14806 -0.629623,0.10434 -0.256276,-0.0595 -0.253631,-0.0442 0.01903,0.11035 0.30512,0.17296 0.354307,0.25155 0.192505,0.30758 -0.07987,0.0276 -0.203527,0.0183 -0.414333,-0.0314 -0.519654,-0.12254 -0.758867,-0.32958 -0.670946,-0.5807 0.04014,-0.11464 0.05495,-0.12012 0.379603,-0.14046 l 0.337833,-0.0212 -0.486834,-0.24652 c -0.658287,-0.33333 -0.757762,-0.39919 -0.78861,-0.5221 -0.01456,-0.058 -0.0017,-0.15644 0.02862,-0.21875 0.0303,-0.0623 0.05018,-0.13235 0.04418,-0.15563 -0.006,-0.0233 0.0022,-0.0292 0.0182,-0.0132 0.03925,0.0393 1.069916,-0.82904 1.43332,-1.2075 0.20811,-0.21674 0.242284,-0.24288 0.119759,-0.0916 -0.0943,0.11641 -0.276852,0.31492 -0.405673,0.44112 -0.128821,0.1262 -0.225248,0.24397 -0.214282,0.26172 0.01097,0.0177 -0.161026,0.17964 -0.382205,0.35977 -0.325566,0.26515 -0.392797,0.33878 -0.35306,0.38666 0.120706,0.14544 0.40854,0.22768 1.007749,0.28792 0.128059,0.0129 0.375709,0.0394 0.550334,0.0591 0.174625,0.0196 0.346075,0.0354 0.381,0.0352 0.161904,-0.001 0.935123,0.10361 1.176017,0.15948 0.346212,0.0803 0.573649,0.0787 0.858829,-0.006 0.163822,-0.0486 0.306252,-0.0604 0.495649,-0.041 l 0.265768,0.0272 -0.02975,-0.11772 c -0.04734,-0.18734 -0.03726,-0.59665 0.02405,-0.97659 0.03114,-0.19298 0.06441,-0.34308 0.07393,-0.33356 0.0095,0.01 -0.0055,0.22456 -0.03335,0.47787 -0.02864,0.26039 -0.0372,0.56637 -0.01969,0.70399 0.02703,0.21245 0.0427,0.24339 0.123173,0.2432 0.09087,-2.1e-4 0.09214,-0.01 0.08769,-0.64558 -0.0067,-0.95888 -0.01937,-1.24612 -0.05138,-1.16604 -0.01582,0.0396 -0.02877,-0.3397 -0.02877,-0.84288 0,-1.12709 0.04497,-0.92719 0.101997,0.45338 0.02412,0.58406 0.0724,1.19174 0.110501,1.39098 0.03721,0.19459 0.05947,0.362 0.04946,0.37201 -0.01001,0.01 -0.04711,-0.12063 -0.08243,-0.29031 l -0.06423,-0.30851 -0.0047,0.49492 c -0.0029,0.30811 0.01221,0.50539 0.04016,0.52266 0.02469,0.0153 0.102348,0.004 0.172576,-0.0251 0.100946,-0.0418 0.122356,-0.0715 0.102228,-0.14166 -0.014,-0.0488 -0.05549,-0.19355 -0.0922,-0.3216 -0.04954,-0.17281 -0.0754,-0.55479 -0.10034,-1.48167 -0.03501,-1.30139 -0.05889,-1.50811 -0.293363,-2.54 -0.06613,-0.29104 -0.133218,-0.60255 -0.149078,-0.69224 -0.01586,-0.0897 -0.03957,-0.15234 -0.0527,-0.13921 -0.03258,0.0326 0.06129,0.76487 0.160101,1.24886 0.09949,0.48735 0.100321,0.64242 0.0013,0.23876 l -0.07271,-0.29634 -0.02967,0.39809 c -0.01632,0.21895 -0.02974,0.619 -0.02984,0.889 -8.4e-5,0.27 -0.02883,0.66236 -0.06386,0.87191 -0.06137,0.3671 -0.347594,1.52604 -0.355461,1.43925 -0.0021,-0.0233 0.07227,-0.41339 0.165295,-0.8668 0.09303,-0.45342 0.178882,-0.97726 0.190788,-1.16409 0.02161,-0.33902 0.02136,-0.33842 -0.125211,0.30237 -0.08077,0.35313 -0.175873,0.81986 -0.211335,1.03717 -0.06329,0.3878 -0.0641,0.38959 -0.04442,0.0967 0.01103,-0.16414 0.108304,-0.72611 0.216164,-1.24883 l 0.19611,-0.95039 -0.02741,-0.889 c -0.01508,-0.48895 -0.04476,-0.95568 -0.06596,-1.03717 -0.02461,-0.0946 -0.03016,0.19637 -0.01536,0.80433 l 0.02319,0.9525 -0.191451,0.86784 c -0.105297,0.4773 -0.2053,0.9345 -0.222227,1.016 -0.01693,0.0815 -0.04574,0.38629 -0.06402,0.67733 l -0.03325,0.52917 0.01663,-0.61384 c 0.01239,-0.45755 0.0444,-0.73778 0.125713,-1.10066 0.32821,-1.46472 0.32873,-1.46825 0.293291,-1.98967 -0.0182,-0.26776 -0.03723,-0.67593 -0.0423,-0.90704 l -0.0092,-0.42021 -0.226102,-0.11457 c -0.182657,-0.0926 -0.210008,-0.11926 -0.142344,-0.13895 0.04607,-0.0134 0.02185,-0.0189 -0.05382,-0.0123 -0.07567,0.007 -0.137584,-0.004 -0.137584,-0.0229 0,-0.0192 -0.02497,-0.035 -0.0555,-0.035 -0.03102,0 -0.07903,0.0918 -0.108834,0.20811 -0.02934,0.11446 -0.111505,0.3002 -0.1826,0.41275 -0.115979,0.18361 -0.118933,0.19594 -0.02875,0.11997 0.05528,-0.0466 0.115971,-0.10888 0.134865,-0.13847 0.01889,-0.0296 0.05379,-0.0418 0.07755,-0.0271 0.02567,0.0159 0.0011,0.0721 -0.06062,0.13848 -0.0571,0.0615 -0.138916,0.16699 -0.181806,0.23449 l -0.07798,0.12273 0.09606,-0.0514 c 0.05283,-0.0283 0.106504,-0.0786 0.11927,-0.1119 0.01277,-0.0333 0.04321,-0.0481 0.06765,-0.033 0.02444,0.0151 0.03386,0.0102 0.02092,-0.0108 -0.01294,-0.0211 0.02111,-0.12402 0.07566,-0.22879 l 0.09918,-0.1905 -0.02228,0.16933 c -0.01225,0.0931 -0.03972,0.22457 -0.06104,0.29207 -0.02132,0.0675 -0.03931,0.20085 -0.03999,0.29633 -6.78e-4,0.0955 -0.056,0.39268 -0.122932,0.66044 -0.06694,0.26775 -0.11598,0.49279 -0.108986,0.50009 0.007,0.007 0.07259,-0.16647 0.145775,-0.38614 0.08541,-0.25638 0.143581,-0.53399 0.162445,-0.77526 0.02621,-0.33527 0.0322,-0.35529 0.05547,-0.18536 0.02342,0.17109 0.02673,0.17566 0.03244,0.0448 0.006,-0.13756 0.0098,-0.14109 0.06851,-0.0635 0.05866,0.0776 0.06258,0.0738 0.06972,-0.066 0.0053,-0.10391 0.01663,-0.0723 0.03792,0.10584 0.03653,0.3057 0.02444,0.4429 -0.113732,1.29116 -0.09611,0.59003 -0.305139,1.36216 -0.433885,1.60273 -0.02667,0.0498 -0.04048,0.0906 -0.03069,0.0906 0.01981,0 0.324462,-0.51185 0.403145,-0.67734 0.02768,-0.0582 0.03887,-0.0677 0.02488,-0.0212 -0.01399,0.0466 -0.03601,0.13705 -0.04893,0.20108 -0.01292,0.064 -0.04145,0.11642 -0.06339,0.11642 -0.02194,0 -0.02784,0.0429 -0.0131,0.0952 0.02171,0.0772 0.01775,0.0832 -0.02088,0.0318 -0.0373,-0.0497 -0.04262,-0.0312 -0.02444,0.0847 0.01278,0.0815 0.01192,0.12306 -0.0019,0.0924 -0.01522,-0.0338 -0.06328,0.0265 -0.12168,0.15254 -0.14774,0.31888 -0.164945,0.44481 -0.02148,0.15725 0.126553,-0.25367 0.126717,-0.2538 0.126849,-0.10197 8.5e-5,0.121 -0.144546,0.77699 -0.311867,1.4143 -0.06911,0.26325 0.03711,-0.40859 0.120542,-0.76238 0.05486,-0.23262 0.09458,-0.42811 0.08827,-0.43441 -0.01886,-0.0189 -0.24244,0.49519 -0.373237,0.85813 -0.147522,0.40933 -0.118923,0.16175 0.03622,-0.31357 0.05629,-0.17246 0.09522,-0.32069 0.08651,-0.3294 -0.02686,-0.0269 -0.161599,0.20226 -0.264471,0.44973 -0.05386,0.12956 -0.09933,0.19747 -0.101059,0.1509 -0.0031,-0.0836 -0.004,-0.0836 -0.06529,-0.002 -0.104464,0.13811 -0.0703,0.0381 0.111557,-0.32653 0.205963,-0.41298 0.174735,-0.39029 -0.132389,0.0962 -0.124943,0.19791 -0.26317,0.39793 -0.307172,0.4445 -0.07851,0.0831 -0.07857,0.0815 -0.0033,-0.0847 0.101497,-0.22421 0.676439,-1.26703 0.816891,-1.48167 0.162938,-0.24899 0.244171,-0.44505 0.340156,-0.82099 0.121235,-0.47483 0.105403,-0.46849 -0.08602,0.0344 -0.188958,0.49646 -0.447952,1.02567 -0.715066,1.46111 -0.09905,0.16146 -0.255788,0.43769 -0.348315,0.61383 -0.09253,0.17615 -0.156338,0.27265 -0.1418,0.21444 0.02821,-0.11295 0.262567,-0.58927 0.815828,-1.65812 0.308615,-0.59622 0.628733,-1.4201 0.593198,-1.5267 -0.0075,-0.0225 -0.06042,0.061 -0.117618,0.18556 -0.0572,0.12453 -0.115372,0.23595 -0.129273,0.24759 -0.04876,0.0408 -0.242288,0.40325 -0.271267,0.508 -0.0161,0.0582 -0.139856,0.35348 -0.275006,0.65617 -0.13515,0.30268 -0.269038,0.612 -0.29753,0.68738 -0.02862,0.0757 -0.07148,0.12488 -0.09576,0.10987 -0.02418,-0.0149 -0.03165,-0.007 -0.01661,0.0171 0.02692,0.0435 -0.308661,0.83154 -0.340547,0.79966 -0.009,-0.009 0.06169,-0.18533 0.157097,-0.39185 0.203175,-0.43981 0.180228,-0.42574 -0.154424,0.0947 -0.136343,0.21203 -0.271829,0.42158 -0.30108,0.46567 -0.136212,0.20529 0.26844,-0.57167 0.480018,-0.92166 0.311454,-0.51521 0.311461,-0.51523 0.0894,-0.26819 -0.104645,0.11642 -0.181228,0.22643 -0.170184,0.24447 0.01104,0.018 6.6e-4,0.0276 -0.02308,0.0212 -0.02374,-0.006 -0.159719,0.11219 -0.302187,0.26353 -0.142467,0.15134 -0.246476,0.24659 -0.231131,0.21167 0.01534,-0.0349 -0.05964,0.0259 -0.166626,0.13512 -0.225276,0.23001 -0.248972,0.21028 -0.06566,-0.0547 0.118508,-0.17129 0.109418,-0.16585 -0.113073,0.0677 -0.140637,0.14765 -0.200633,0.19412 -0.143287,0.11099 0.05426,-0.0786 0.234047,-0.2882 0.399526,-0.46566 0.342162,-0.36694 0.959686,-1.11088 1.140398,-1.37386 0.120828,-0.17583 0.535593,-1.00984 0.534134,-1.07404 -4.23e-4,-0.0186 -0.05449,0.0615 -0.120142,0.17791 -0.277772,0.49252 -0.704546,1.16354 -0.915793,1.43992 -0.213143,0.27885 -1.450909,1.57931 -1.3291,1.39641 0.107296,-0.16111 0.398246,-0.50982 0.788262,-0.94477 0.599404,-0.66846 0.912857,-1.12047 1.267696,-1.82806 0.183939,-0.3668 0.09496,-0.27137 -0.118402,0.127 -0.196,0.36594 -0.847882,1.32729 -0.937635,1.38276 -0.02047,0.0127 0.085,-0.15518 0.234367,-0.37296 0.345433,-0.50364 0.368431,-0.54327 0.267933,-0.46165 -0.04153,0.0337 -0.24407,0.30994 -0.4501,0.61383 -0.27025,0.39861 -0.500996,0.67634 -0.82834,0.99702 l -0.45374,0.4445 0.384524,-0.43438 c 0.555321,-0.62732 0.723306,-0.85935 0.34446,-0.47579 -0.172476,0.17463 -0.446303,0.44133 -0.608504,0.59267 l -0.29491,0.27517 0.258497,-0.29634 c 0.142174,-0.16298 0.300798,-0.33443 0.352498,-0.381 0.113928,-0.10261 0.291244,-0.34539 0.220189,-0.30148 -0.08487,0.0524 -0.05647,-0.04 0.03867,-0.12587 0.04913,-0.0444 0.147111,-0.15685 0.217732,-0.24998 l 0.1284,-0.16933 -0.156478,0.16355 c -0.190484,0.19911 -0.247235,0.17534 -0.08602,-0.036 0.06426,-0.0843 0.09953,-0.14993 0.07836,-0.14593 -0.08688,0.0164 -0.102591,-0.007 -0.05902,-0.0886 0.02527,-0.0472 0.06435,-0.0745 0.08685,-0.0606 0.02249,0.0139 0.02812,0.046 0.0125,0.0712 -0.01709,0.0276 -0.0087,0.0337 0.02117,0.0153 0.02726,-0.0168 0.03861,-0.0484 0.02521,-0.07 -0.01339,-0.0217 -0.0056,-0.0394 0.01724,-0.0394 0.02288,0 0.1182,-0.13812 0.211823,-0.30692 0.09362,-0.16881 0.185415,-0.29959 0.203983,-0.29064 0.01857,0.009 0.141382,-0.18155 0.272921,-0.42333 0.13154,-0.24179 0.326031,-0.58725 0.432202,-0.7677 0.106172,-0.18044 0.185147,-0.32808 0.175499,-0.32808 -0.04203,0 -0.36455,0.52242 -0.56847,0.9208 -0.122174,0.23869 -0.239187,0.42344 -0.260029,0.41055 -0.02084,-0.0129 -0.02535,0.009 -0.01002,0.0492 0.01682,0.0438 0.01099,0.0622 -0.01471,0.0463 -0.02342,-0.0145 -0.115507,0.0864 -0.204638,0.2241 -0.08913,0.13773 -0.177762,0.2407 -0.196959,0.22884 -0.0192,-0.0119 -0.02518,0.004 -0.01329,0.0348 0.01189,0.031 -0.0084,0.0939 -0.04515,0.13978 -0.06452,0.0806 -0.06519,0.0802 -0.01998,-0.013 0.02574,-0.053 -0.185457,0.14223 -0.469315,0.43392 -0.283858,0.29169 -0.528776,0.53035 -0.544262,0.53035 -0.01549,0 0.153894,-0.18621 0.3764,-0.4138 0.481579,-0.49257 0.764062,-0.89116 1.176836,-1.66054 0.168637,-0.31432 0.306074,-0.55245 0.305417,-0.52916 -6.56e-4,0.0233 -0.02842,0.0899 -0.0617,0.14816 -0.03327,0.0582 -0.06113,0.12489 -0.0619,0.14817 -7.7e-4,0.0233 0.09336,-0.12662 0.20919,-0.33312 0.115827,-0.20649 0.279555,-0.46367 0.363841,-0.5715 0.142465,-0.18225 0.137887,-0.17967 -0.06507,0.0368 -0.120075,0.12805 -0.252181,0.30418 -0.293569,0.39139 -0.04139,0.0872 -0.08579,0.14803 -0.09867,0.13515 -0.03491,-0.0349 -0.16296,0.16477 -0.408874,0.63762 -0.121089,0.23284 -0.259307,0.47096 -0.307151,0.52917 -0.08547,0.10398 -0.08544,0.10306 0.0019,-0.0529 0.04887,-0.0873 0.126725,-0.22255 0.173018,-0.30053 0.106174,-0.17884 0.302403,-0.62022 0.275738,-0.62022 -0.01101,0 -0.07772,0.1143 -0.148242,0.254 -0.07052,0.1397 -0.137661,0.254 -0.149201,0.254 -0.01154,0 0.06551,-0.17222 0.171224,-0.3827 0.105714,-0.21049 0.210462,-0.37143 0.232774,-0.35764 0.02231,0.0138 0.03116,2.6e-4 0.01966,-0.03 -0.02956,-0.0779 0.406308,-0.81656 0.444956,-0.75402 0.02176,0.0352 0.0386,0.0295 0.05737,-0.0194 0.01721,-0.0448 0.0099,-0.0589 -0.02077,-0.04 -0.0285,0.0176 -0.03954,0.006 -0.02774,-0.0296 0.01078,-0.0324 0.04659,-0.0597 0.07958,-0.0607 0.03299,-0.001 0.05452,-0.0269 0.04786,-0.0575 -0.0067,-0.0306 0.03758,-0.12495 0.0983,-0.20974 l 0.110416,-0.15417 -0.134885,0.14817 c -0.07419,0.0815 -0.249005,0.30057 -0.388484,0.48683 -0.264168,0.35278 -0.324309,0.42453 -0.26613,0.3175 0.09093,-0.16729 0.528796,-0.77515 0.768328,-1.06664 l 0.267737,-0.32581 -0.07233,-0.12603 c -0.06636,-0.11563 -0.06675,-0.13241 -0.0047,-0.20336 0.0372,-0.0425 0.08958,-0.14575 0.1164,-0.22937 0.08318,-0.25938 0.189832,-0.31738 0.533448,-0.29007 0.321078,0.0255 0.372108,0.0207 0.236024,-0.0225 -0.107334,-0.0341 -0.112459,-0.0883 -0.01377,-0.14579 0.06854,-0.0399 0.0679,-0.0432 -0.0085,-0.0444 -0.06421,-0.001 -0.07126,-0.0126 -0.03175,-0.0521 0.08078,-0.0808 0.05975,-0.11858 -0.06562,-0.11796 -0.220955,0.001 -0.300833,0.0451 -0.333538,0.18365 -0.02973,0.12597 -0.0334,0.12059 -0.0669,-0.0982 -0.05319,-0.34742 -0.04523,-0.35496 0.337497,-0.3195 0.431439,0.04 0.602691,0.11112 0.602691,0.2504 0,0.0582 -0.02487,0.12112 -0.05526,0.13974 -0.03039,0.0186 -0.07524,0.12375 -0.09966,0.23362 -0.02442,0.10987 -0.02908,0.1903 -0.01036,0.17873 0.06136,-0.0379 0.131251,0.15665 0.105526,0.29378 -0.01923,0.10252 -0.0052,0.15132 0.05962,0.20679 0.04664,0.0399 0.0848,0.10794 0.0848,0.15113 0,0.0849 -0.124523,0.21864 -0.203509,0.21864 -0.03352,0 -0.03684,0.0297 -0.01065,0.0953 0.05053,0.12657 0.233071,0.74632 0.321085,1.09008 0.183459,0.71656 0.197631,0.85945 0.228839,2.30717 0.02785,1.29193 0.04002,1.46659 0.11886,1.70552 l 0.08783,0.26619 -0.111519,0.0725 c -0.09221,0.0599 -0.210643,0.0718 -0.683978,0.0685 -0.326441,-0.002 -0.508782,0.009 -0.424291,0.0262 l 0.148167,0.0301 -0.1905,0.007 c -0.26149,0.01 -0.815885,0.11164 -0.925254,0.17018 -0.229823,0.12299 -0.260975,0.4007 -0.11671,1.04042 0.03675,0.16298 0.06716,0.39604 0.06756,0.51791 6.31e-4,0.1907 -0.01764,0.24085 -0.13107,0.35983 l -0.131807,0.13826 0.11064,-0.14084 z m -0.83216,-2.23425 c -0.01407,-0.0141 -0.05058,-0.0156 -0.08114,-0.003 -0.03377,0.0135 -0.02374,0.0236 0.02558,0.0256 0.04463,0.002 0.06963,-0.008 0.05556,-0.0222 z m -1.855966,-0.90346 c 0.210814,-0.17336 0.375627,-0.32288 0.366249,-0.33226 -0.01988,-0.0199 -0.827151,0.61624 -0.827151,0.65178 0,0.0484 0.08603,-0.0113 0.460902,-0.31952 z m 2.463993,-0.90188 c 0.182552,-0.25729 0.546439,-0.95009 0.546439,-1.04036 0,-0.0283 -0.308204,0.49542 -0.518845,0.88161 -0.06985,0.12806 -0.163954,0.28522 -0.209125,0.34925 -0.04517,0.064 -0.0718,0.11642 -0.05918,0.11642 0.01262,0 0.120941,-0.13812 0.240713,-0.30692 z m -0.591161,-0.1905 c 0.05266,-0.0671 0.05116,-0.0686 -0.01598,-0.016 -0.04075,0.0319 -0.07408,0.0653 -0.07408,0.0741 0,0.0348 0.03476,0.0124 0.09007,-0.0581 z m 0.163933,-0.57606 c 0,-0.0538 -0.01955,-0.0298 -0.08127,0.0998 -0.04753,0.0998 -0.04664,0.10114 0.01543,0.0237 0.03621,-0.0452 0.06584,-0.10076 0.06584,-0.12347 z m 0.441602,-0.55636 c 0.117657,-0.23404 0.357395,-0.78316 0.341917,-0.78316 -0.02996,0 -0.277236,0.45895 -0.42443,0.78775 -0.141504,0.31608 -0.07689,0.31249 0.08251,-0.005 z m 0.573663,-0.53975 c 0.0524,-0.14552 0.123299,-0.2965 0.157549,-0.33551 0.03425,-0.039 0.05523,-0.10569 0.04663,-0.14817 -0.01399,-0.069 -0.224196,0.37755 -0.307383,0.65302 -0.06145,0.20348 0.01286,0.0816 0.103207,-0.16934 z m 0.05082,-0.42219 c 0.05394,-0.0867 0.121895,-0.15813 0.150999,-0.15875 0.04281,-9.3e-4 0.08304,-0.17047 0.04045,-0.17047 -0.02412,0 -0.313361,0.4041 -0.409055,0.5715 l -0.0968,0.16933 0.108164,-0.127 c 0.05949,-0.0699 0.152301,-0.19793 0.206246,-0.28461 z m -0.358038,-0.55147 c 0.186847,-0.26194 0.36348,-0.52388 0.392519,-0.58209 0.0714,-0.14311 0.01412,-0.0777 -0.250314,0.28577 -0.122808,0.16881 -0.238664,0.29743 -0.257458,0.28581 -0.03874,-0.0239 -0.226847,0.27415 -0.193836,0.30716 0.01177,0.0118 0.0023,0.057 -0.02094,0.10049 -0.09582,0.17904 0.009,0.053 0.330025,-0.39714 z m -0.176158,0.0828 c 0.0159,-0.0418 0.03957,-0.0652 0.0526,-0.0522 0.01303,0.013 2.7e-5,0.0472 -0.02891,0.0759 -0.04181,0.0415 -0.04667,0.0366 -0.0237,-0.0237 z m 0.531217,0.15528 c 0.02066,-0.003 0.05525,-0.008 0.07687,-0.0106 0.06239,-0.008 0.172357,-0.13286 0.172357,-0.19507 0,-0.14825 -0.259885,0.0378 -0.394668,0.28249 l -0.07717,0.14012 0.09252,-0.10583 c 0.05089,-0.0582 0.109426,-0.10822 0.130084,-0.11113 z m 0.0363,-0.0982 c 0.02423,-0.0453 0.06497,-0.0952 0.09055,-0.11105 0.02557,-0.0158 0.01375,0.0212 -0.02626,0.0823 -0.08473,0.12932 -0.128614,0.14894 -0.06428,0.0287 z m 1.268133,-1.12043 c 0.05325,-0.0642 0.0043,-0.12299 -0.06239,-0.075 -0.05377,0.0386 -0.07113,0.13479 -0.02433,0.13479 0.02043,0 0.05946,-0.0269 0.08672,-0.0597 z m -0.706766,-0.15331 c 0.329073,0.0534 0.339913,0.0534 0.307728,10e-4 -0.01439,-0.0233 -0.0679,-0.0435 -0.118915,-0.045 -0.08756,-0.003 -0.08683,-0.005 0.01308,-0.0451 0.134979,-0.0541 0.07174,-0.0933 -0.259797,-0.16132 -0.3071,-0.063 -0.455344,-0.0293 -0.441124,0.10027 0.01722,0.15687 0.06038,0.19943 0.152346,0.15021 0.05546,-0.0297 0.165614,-0.0298 0.346681,-4.4e-4 z m 0.640879,-0.30554 c 0.03554,-0.13261 0.03296,-0.15875 -0.01565,-0.15875 -0.02328,0 -0.04233,0.0297 -0.04233,0.066 0,0.0363 -0.01738,0.0553 -0.03862,0.0421 -0.03039,-0.0188 -0.0338,0.0476 -0.007,0.13529 0.01461,0.0477 0.08307,-0.008 0.103557,-0.0847 z m -0.400179,-0.0589 c 0.0097,-0.008 -0.0284,-0.0155 -0.08467,-0.0159 -0.08159,-5.2e-4 -0.08945,-0.009 -0.03881,-0.0417 0.05644,-0.0365 0.05644,-0.0415 0,-0.0449 -0.03493,-0.002 0.0032,-0.0312 0.08467,-0.0645 0.141078,-0.0578 0.142091,-0.0596 0.02117,-0.0385 -0.114723,0.02 -0.119743,0.0165 -0.05193,-0.0368 0.07061,-0.0555 0.06935,-0.0605 -0.02117,-0.0847 -0.176811,-0.0474 -0.281498,-0.0278 -0.390388,0.0732 -0.127773,0.11841 -0.132423,0.14131 -0.03393,0.16704 0.05575,0.0146 0.05051,0.0206 -0.02117,0.0243 -0.05239,0.003 -0.09525,0.0251 -0.09525,0.0497 0,0.0247 0.01429,0.0362 0.03175,0.0257 0.01746,-0.0105 0.10795,-0.005 0.201083,0.0127 0.151247,0.0284 0.350736,0.0156 0.398639,-0.0258 z m 0.341546,-0.49013 c 3.39e-4,-0.0167 -0.02672,-0.0199 -0.06018,-0.007 -0.03345,0.0128 -0.04985,0.0519 -0.03644,0.0869 0.01984,0.0517 0.03106,0.053 0.06018,0.007 0.01969,-0.0311 0.03609,-0.0702 0.03644,-0.0869 z m 0.09449,-0.33718 c -0.06466,-0.0647 -0.112379,-0.017 -0.07651,0.0765 0.02118,0.0552 0.03954,0.0607 0.0772,0.023 0.03766,-0.0377 0.0375,-0.0613 -6.81e-4,-0.0995 z m -0.310495,-0.0729 c 0.07264,-0.046 -0.009,-0.0759 -0.301927,-0.11041 -0.154499,-0.0182 -0.201083,-0.0101 -0.201083,0.0349 0,0.0366 0.04947,0.06 0.131347,0.0624 0.07224,0.002 0.142092,0.0145 0.155223,0.0276 0.03541,0.0354 0.149743,0.0278 0.21644,-0.0145 z m 3.422516,9.3478 c -0.08947,-0.0521 -0.05813,-0.12311 0.05431,-0.12311 0.102594,0 0.295827,0.0874 0.295827,0.13379 0,0.0499 -0.2597,0.042 -0.35014,-0.0107 z m -3.186603,-0.18618 c -0.08566,-0.10454 -0.17266,-0.17961 -0.193334,-0.16684 -0.105074,0.0649 0.01341,-0.22046 0.128076,-0.3085 0.102498,-0.0787 0.389341,-0.064 0.539638,0.0276 0.238085,0.14518 0.239348,0.40993 0.0026,0.55425 -0.209324,0.12763 -0.302111,0.10691 -0.477024,-0.10655 z m 0.448223,0.0621 c 0.110422,-0.0591 0.177732,-0.19649 0.145699,-0.29742 -0.06467,-0.20375 -0.510541,-0.28102 -0.683578,-0.11846 l -0.09702,0.0911 0.178337,0.18402 c 0.18215,0.18795 0.300274,0.22436 0.456566,0.14071 z m 0.463854,0.0433 c -0.08719,-0.0279 -0.09092,-0.0345 -0.02117,-0.0375 0.04657,-0.002 0.113242,0.0149 0.148167,0.0375 0.07417,0.0479 0.02268,0.0479 -0.127,0 z m 1.449916,-0.005 c -0.07191,-0.0739 -0.06648,-0.164 0.01536,-0.25443 0.06355,-0.0702 0.0588,-0.0841 -0.0685,-0.20036 -0.158171,-0.14447 -0.13802,-0.21769 0.05991,-0.21769 0.187198,0 0.397382,0.0742 0.567161,0.20035 0.170341,0.12652 0.170614,0.27835 7.28e-4,0.40462 -0.138737,0.10311 -0.498882,0.14542 -0.574654,0.0675 z m 5.511491,-0.0975 c -0.116846,-0.0854 -0.06301,-0.11435 0.228932,-0.12294 0.254635,-0.007 0.382255,0.0461 0.326107,0.13695 -0.04153,0.0672 -0.458378,0.0567 -0.555039,-0.014 z m -2.262408,-0.0112 c -0.188641,-0.0598 -0.19294,-0.0638 -0.105833,-0.0997 0.121128,-0.0498 0.434692,-0.0485 0.465852,0.002 0.01449,0.0234 0.0013,0.0504 -0.02925,0.06 -0.129395,0.0403 -0.271548,0.0566 -0.330767,0.0378 z m -2.282813,-0.0731 c -0.04458,-0.0537 -0.03466,-0.0685 0.06252,-0.0928 0.12684,-0.0318 0.328977,0.0221 0.333558,0.089 0.0049,0.0721 -0.33665,0.0755 -0.396081,0.004 z m -2.39502,-0.0673 c -0.03341,-0.0541 0.106856,-0.0541 0.1905,0 0.04967,0.0321 0.03868,0.0412 -0.05042,0.0417 -0.06265,3.6e-4 -0.125692,-0.0184 -0.140082,-0.0417 z m -4.630884,-0.14938 c -0.07895,-0.0348 -0.213232,-0.12617 -0.298397,-0.20311 l -0.154846,-0.1399 0.234897,0.0166 c 0.479245,0.0339 0.961252,0.20106 0.922068,0.3197 -0.02546,0.0771 -0.532943,0.0819 -0.703722,0.007 z m 6.916884,0.0127 c -0.08195,-0.0479 -0.08127,-0.0504 0.02117,-0.0792 0.188947,-0.0531 0.381,-0.0428 0.381,0.0204 0,0.104 -0.259689,0.14195 -0.402167,0.0588 z m 1.929254,-0.0501 c -0.04423,-0.0533 -0.03603,-0.068 0.05013,-0.0896 0.176755,-0.0444 0.433617,-0.006 0.433617,0.0647 0,0.0918 -0.410643,0.11297 -0.483747,0.0249 z m -2.199261,-0.19014 c -0.101489,-0.0643 -0.007,-0.13108 0.185341,-0.13108 0.192378,0 0.28683,0.0668 0.18534,0.13108 -0.03209,0.0203 -0.11549,0.037 -0.18534,0.037 -0.06985,0 -0.153253,-0.0166 -0.185341,-0.037 z m 3.920367,-0.008 c -0.09625,-0.056 -0.05512,-0.12311 0.07548,-0.12311 0.119882,0 0.316993,0.0832 0.316993,0.13379 0,0.0501 -0.302191,0.0419 -0.392473,-0.0107 z m -0.938003,-0.0626 c -0.08363,-0.0836 -0.08467,-0.16205 -0.003,-0.2298 0.09681,-0.0804 0.07653,-0.15686 -0.0635,-0.23957 -0.265974,-0.15712 -0.08165,-0.26663 0.311427,-0.18503 0.241206,0.0501 0.471656,0.17868 0.552218,0.30818 0.06542,0.10516 -0.0051,0.20258 -0.229713,0.3175 -0.216721,0.11086 -0.472333,0.1238 -0.567408,0.0287 z m -8.427356,-0.0605 c 0.01439,-0.0233 0.0679,-0.041 0.118915,-0.0394 0.08942,0.003 0.08971,0.004 0.0081,0.0394 -0.116522,0.0501 -0.157946,0.0501 -0.127,0 z M 33.70668,162.86 c -0.0149,-0.0388 -0.0099,-0.0878 0.01113,-0.1088 0.02274,-0.0227 0.04665,0.006 0.05902,0.0706 0.02312,0.12091 -0.02778,0.14864 -0.07015,0.0382 z m 5.552218,0.0243 c -0.04124,-0.024 -0.06392,-0.0615 -0.05042,-0.0834 0.04177,-0.0676 0.216846,-0.0439 0.321786,0.0435 l 0.09994,0.0833 -0.148167,1.3e-4 c -0.08149,8e-5 -0.181905,-0.0195 -0.22314,-0.0435 z m -3.620727,-0.0469 c -0.02794,-0.0279 -0.04959,-0.147 -0.04812,-0.26458 0.0023,-0.18468 0.0084,-0.19951 0.04452,-0.10894 0.02301,0.0577 0.03609,0.16244 0.02907,0.23283 -0.01234,0.1237 -0.0064,0.12844 0.177732,0.14147 l 0.1905,0.0135 -0.12514,-0.13073 -0.125141,-0.13074 0.135802,0.0473 c 0.07469,0.026 0.146416,0.0645 0.159389,0.0855 0.04439,0.0718 0.14559,0.0383 0.14559,-0.0483 0,-0.12559 -0.129137,-0.24484 -0.364808,-0.33688 -0.138579,-0.0541 -0.174855,-0.0814 -0.110082,-0.0827 0.118957,-0.002 0.382046,0.1045 0.483924,0.1967 0.0416,0.0376 0.07563,0.12361 0.07563,0.19104 0,0.0999 -0.0272,0.13397 -0.146807,0.18394 -0.178175,0.0744 -0.452613,0.08 -0.52206,0.0105 z m 2.809724,-0.0157 c -0.08334,-0.0833 -0.08299,-0.1028 0.0041,-0.22715 0.06799,-0.0971 0.06641,-0.10422 -0.04233,-0.19093 -0.170217,-0.13573 -0.143964,-0.19287 0.08811,-0.1918 0.212473,9.8e-4 0.501878,0.10921 0.595916,0.22286 0.102055,0.12334 0.04273,0.25587 -0.160386,0.35829 -0.221349,0.11162 -0.392406,0.12174 -0.485423,0.0287 z m 3.447143,0.0235 c -0.05645,-0.0371 -0.05645,-0.0463 0,-0.0834 0.146231,-0.096 0.54231,-0.007 0.437077,0.0985 -0.0429,0.0429 -0.365704,0.0317 -0.437077,-0.0151 z m -7.773876,-0.0871 c 0.06135,-0.0483 0.111543,-0.11521 0.111543,-0.14879 0,-0.14365 -0.496282,-0.30851 -0.569941,-0.18933 -0.01353,0.0219 0.01751,0.079 0.06898,0.127 0.07072,0.0659 0.07773,0.0872 0.02867,0.0872 -0.0925,0 -0.215137,-0.14897 -0.19779,-0.24027 0.01119,-0.0589 0.05982,-0.08 0.204794,-0.0887 0.209532,-0.0127 0.425341,0.0906 0.506636,0.24251 0.03928,0.0734 0.02857,0.10421 -0.06698,0.19276 -0.06255,0.058 -0.132571,0.10541 -0.155594,0.10541 -0.02302,0 0.0083,-0.0395 0.06968,-0.0877 z m 2.421451,-0.0772 c -0.01288,-0.0208 0.0077,-0.0498 0.0458,-0.0645 0.08331,-0.032 0.226626,0.008 0.226626,0.0629 0,0.0505 -0.241317,0.0519 -0.272425,0.002 z m 2.960592,0.003 c -0.140039,-0.0283 -0.158571,-0.11065 -0.03058,-0.13587 0.157903,-0.0311 0.305749,3.4e-4 0.305749,0.0651 0,0.0597 -0.145182,0.0971 -0.275166,0.0708 z m -3.545417,-0.11594 c -0.110596,-0.0576 -0.201083,-0.11415 -0.201083,-0.12574 0,-0.0116 0.09525,0.0272 0.211666,0.0862 0.116417,0.059 0.211667,0.11646 0.211667,0.12771 0,0.028 0.0038,0.0295 -0.22225,-0.0882 z m 5.842,0.0794 c -0.115307,-0.0301 -0.08744,-0.0846 0.05821,-0.1137 0.320663,-0.0641 0.511803,0.009 0.267119,0.10159 -0.1119,0.0425 -0.196762,0.0457 -0.325327,0.0121 z m -2.546277,-0.21792 c -0.02958,-0.0478 0.113026,-0.0903 0.306133,-0.0911 0.09414,-3.8e-4 0.135312,0.017 0.123691,0.0523 -0.02064,0.0627 -0.394206,0.0964 -0.429824,0.0387 z m 2.202526,-0.0555 c -0.06392,-0.0371 -0.06799,-0.0531 -0.02117,-0.0827 0.08399,-0.0532 0.450009,-0.0464 0.484255,0.009 0.06811,0.11021 -0.299543,0.16872 -0.463088,0.0737 z m -2.438445,-0.16145 c -0.08936,-0.0565 -0.03258,-0.0932 0.181666,-0.11733 0.194485,-0.0219 0.306688,0.0477 0.192949,0.11977 -0.07685,0.0487 -0.296057,0.0473 -0.374615,-0.002 z m -6.996809,-0.28369 c 0.0291,-0.0117 0.07673,-0.0117 0.105834,0 0.0291,0.0118 0.0053,0.0213 -0.05292,0.0213 -0.05821,0 -0.08202,-0.01 -0.05292,-0.0213 z m 0.22225,-0.0251 -0.232833,-0.0431 0.140063,-0.0481 c 0.07703,-0.0265 0.124698,-0.0635 0.10592,-0.0823 -0.01878,-0.0188 0.02105,-0.0203 0.0885,-0.003 0.07958,0.02 0.11329,0.0156 0.096,-0.0123 -0.02681,-0.0434 0.187799,-0.0949 0.399034,-0.0958 0.0958,-4.3e-4 0.249978,0.10949 0.249978,0.17818 0,0.048 -0.344359,0.15987 -0.477107,0.15499 -0.0752,-0.003 -0.241501,-0.0244 -0.36956,-0.0482 z m 1.061676,-0.47952 c 0.002,-0.0493 0.01206,-0.0593 0.02558,-0.0256 0.01223,0.0306 0.01073,0.0671 -0.0033,0.0811 -0.01407,0.0141 -0.02407,-0.0109 -0.02223,-0.0556 z m 1.294734,-0.15172 c 0.01153,-0.10088 0.07869,-0.47869 0.14925,-0.83958 0.07056,-0.36089 0.1524,-0.93239 0.181865,-1.27 0.04936,-0.56557 0.05399,-0.58624 0.05886,-0.26292 0.0073,0.48456 -0.06055,1.04158 -0.223332,1.83356 -0.136969,0.6664 -0.207135,0.89332 -0.166641,0.53894 z m 3.04109,0.13365 c -0.232833,-0.0166 -0.490008,-0.0437 -0.5715,-0.0601 -0.232411,-0.0469 -0.94208,-0.28741 -1.049914,-0.35586 -0.160247,-0.10173 -0.220485,-0.27898 -0.265078,-0.77997 -0.02329,-0.26169 -0.07943,-0.7425 -0.124744,-1.06847 -0.08859,-0.63723 -0.182518,-1.64265 -0.175989,-1.88383 0.0022,-0.0815 -0.01348,-0.24342 -0.03487,-0.35983 -0.02138,-0.11642 -0.06034,-0.41068 -0.08658,-0.65392 -0.02623,-0.24323 -0.07473,-0.48083 -0.107764,-0.528 -0.111135,-0.15867 -0.0613,-0.18668 0.08027,-0.0451 0.280703,0.2807 1.038313,0.42665 2.563195,0.49379 1.781218,0.0784 3.040217,-0.0891 3.222019,-0.42885 0.139302,-0.26028 -0.634187,-0.53734 -1.776884,-0.63646 -1.285177,-0.11148 -2.714239,-0.0236 -3.81,0.2343 -0.08934,0.021 -0.09439,0.0176 -0.03241,-0.0221 0.11665,-0.0746 0.77077,-0.20222 1.322523,-0.25794 0.65505,-0.0662 2.506311,-0.0286 3.081856,0.0625 0.497132,0.0787 0.849503,0.17469 1.037647,0.28269 0.179724,0.10316 0.219001,0.0276 0.09494,-0.1827 -0.0483,-0.0819 -0.152251,-0.34017 -0.231006,-0.57403 -0.311267,-0.92428 -0.647906,-1.37285 -1.35771,-1.80915 -0.186267,-0.11449 -0.451702,-0.30131 -0.589856,-0.41516 -0.237739,-0.19592 -0.262022,-0.20597 -0.453518,-0.18756 -0.151725,0.0146 -0.284778,0.0732 -0.531978,0.23431 -0.181307,0.11819 -0.506559,0.31038 -0.722784,0.42709 -0.525401,0.28361 -0.876659,0.53947 -1.158429,0.84382 -0.260197,0.28104 -0.363048,0.47379 -0.501567,0.93995 -0.05189,0.17462 -0.1336,0.37273 -0.181579,0.44024 l -0.08723,0.12274 0.09635,0.078 c 0.08399,0.068 0.08739,0.0815 0.02652,0.10482 -0.04242,0.0163 -0.09155,-0.003 -0.125174,-0.0489 -0.03593,-0.0491 -0.08186,-0.0655 -0.130953,-0.0467 -0.06658,0.0255 -0.06858,0.0205 -0.01671,-0.042 0.0324,-0.039 0.05297,-0.10599 0.04572,-0.1488 -0.0092,-0.0541 0.006,-0.0705 0.04967,-0.0537 0.09018,0.0346 0.14295,-0.0887 0.240104,-0.56084 0.114695,-0.55743 0.242299,-0.81877 0.541081,-1.10818 0.312027,-0.30224 0.601873,-0.47459 1.226789,-0.72948 0.272549,-0.11117 0.644207,-0.27978 0.825905,-0.3747 0.456482,-0.23846 0.581186,-0.22881 0.928531,0.0718 0.106091,0.0918 0.390117,0.28448 0.631167,0.42813 0.795177,0.47386 1.164891,0.92798 1.518755,1.86547 0.09524,0.25231 0.175413,0.40418 0.213374,0.40418 0.03487,0 0.06653,0.0497 0.07421,0.11642 0.01743,0.15146 0.143512,0.15465 0.357778,0.009 0.191468,-0.13011 0.206287,-0.0745 0.02772,0.10411 -0.142496,0.1425 -0.286087,0.19535 -0.429123,0.15794 -0.132205,-0.0346 -0.212986,0.0431 -0.155839,0.14992 0.03156,0.059 0.03171,0.11768 5.04e-4,0.19664 -0.04877,0.12341 -0.165525,0.72836 -0.217817,1.12858 -0.06653,0.50917 -0.124605,0.87401 -0.144166,0.90566 -0.01101,0.0178 -0.03935,0.16423 -0.06297,0.32536 -0.07749,0.52856 -0.447241,2.43035 -0.472556,2.43058 -0.01361,1.3e-4 -0.01058,-0.10931 0.0067,-0.24318 0.01731,-0.13388 0.04261,-0.33867 0.05621,-0.45509 0.0634,-0.54239 0.310295,-1.84278 0.390612,-2.0573 0.03838,-0.1025 0.07427,-0.27209 0.07976,-0.37686 0.01639,-0.31257 0.06845,-0.68486 0.127281,-0.91017 0.0304,-0.11642 0.06653,-0.29169 0.08029,-0.38949 l 0.02502,-0.17783 -0.142341,0.0595 c -0.290608,0.12143 -0.881292,0.16275 -2.292157,0.16034 -1.405822,-0.002 -2.062935,-0.0508 -2.700376,-0.199 -0.241158,-0.0561 -0.243804,-0.0557 -0.21654,0.0332 0.01518,0.0495 0.03,0.0915 0.03292,0.0934 0.0029,0.002 0.05295,0.037 0.111158,0.078 0.09989,0.0704 0.100482,0.073 0.01058,0.0466 -0.128393,-0.0377 -0.121169,0.0343 0.01052,0.10473 0.05817,0.0311 0.0979,0.0645 0.08829,0.0741 -0.0096,0.01 -0.05721,-0.004 -0.105769,-0.0298 -0.07168,-0.0384 -0.08829,-0.035 -0.08829,0.0177 0,0.14423 -0.0701,0.0468 -0.189665,-0.26362 -0.136927,-0.3555 -0.18267,-0.32891 -0.105806,0.0615 0.02663,0.13527 0.0566,0.4065 0.06658,0.60273 0.01,0.19622 0.02532,0.36393 0.03407,0.37268 0.0088,0.009 0.06093,0.0178 0.115949,0.0201 0.05502,0.002 0.278897,0.049 0.497507,0.10388 0.407736,0.10229 1.352966,0.24165 1.476979,0.21777 0.03815,-0.007 -0.148919,-0.0497 -0.41571,-0.0941 -0.266791,-0.0444 -0.461814,-0.0886 -0.433384,-0.0981 0.02843,-0.01 0.237979,0.0116 0.465666,0.047 0.227687,0.0354 0.642577,0.0794 0.921977,0.0979 0.461915,0.0305 0.486878,0.0362 0.275167,0.0624 -0.13311,0.0165 -0.01329,0.0215 0.279749,0.0117 0.682435,-0.0228 1.330386,-0.16984 1.839394,-0.41746 l 0.14569,-0.0709 -0.09479,0.0826 c -0.112272,0.0978 -0.720766,0.32426 -1.110663,0.41332 -0.396709,0.0906 -1.469053,0.12251 -2.042338,0.0608 -0.562732,-0.0606 -1.19783,-0.19027 -1.483454,-0.30285 -0.257483,-0.10149 -0.258648,-0.10132 -0.175743,0.0252 0.03802,0.058 0.05695,0.13725 0.04206,0.17605 -0.02331,0.0607 -0.04541,0.0534 -0.15886,-0.0526 l -0.131788,-0.12314 0.03128,0.10584 c 0.0172,0.0582 0.04143,0.34385 0.05383,0.63476 0.02362,0.55415 0.0228,0.55183 0.251474,0.71018 0.06916,0.0479 0.06754,0.0491 -0.0148,0.0106 -0.125821,-0.0588 -0.159903,-0.0543 -0.10346,0.0138 0.026,0.0313 0.123777,0.0915 0.217281,0.13362 0.09351,0.0422 0.162136,0.0845 0.152513,0.0942 -0.0096,0.01 -0.09554,-0.0223 -0.190931,-0.071 -0.09539,-0.0487 -0.173436,-0.0694 -0.173436,-0.0461 0,0.0233 0.09049,0.0895 0.201083,0.14706 0.226615,0.11796 0.224578,0.14064 -0.0041,0.0451 -0.190504,-0.0796 -0.193263,-0.0794 -0.169423,0.0118 0.01178,0.045 0.121763,0.11484 0.273797,0.1738 0.139764,0.0542 0.246121,0.10653 0.236348,0.1163 -0.0098,0.01 -0.107769,-0.0208 -0.21777,-0.068 -0.238042,-0.10204 -0.235314,-0.10174 -0.235314,-0.0259 0,0.0351 0.123516,0.10699 0.298761,0.17396 0.164318,0.0628 0.2905,0.12242 0.280404,0.13252 -0.0155,0.0155 -0.231025,-0.059 -0.497716,-0.17207 -0.05853,-0.0248 -0.06136,-0.005 -0.02304,0.15999 0.04333,0.18674 0.04588,0.18888 0.311988,0.26091 0.147568,0.0399 0.259825,0.0811 0.249461,0.0915 -0.01036,0.0104 -0.119212,-0.011 -0.241885,-0.0474 -0.122673,-0.0364 -0.231681,-0.0576 -0.242239,-0.047 -0.06209,0.0621 0.06629,0.1555 0.330778,0.24068 0.166294,0.0536 0.285039,0.10315 0.26388,0.1102 -0.02116,0.007 -0.156056,-0.0238 -0.299768,-0.0685 -0.248875,-0.0774 -0.261294,-0.0777 -0.261294,-0.006 0,0.0573 0.08495,0.1037 0.34925,0.19084 0.192087,0.0633 0.358775,0.12505 0.370416,0.13715 0.04407,0.0458 -0.325242,-0.0417 -0.500308,-0.11848 -0.169435,-0.0744 -0.181811,-0.0749 -0.169173,-0.007 0.0095,0.0506 0.149775,0.12076 0.457975,0.22891 0.244387,0.0858 0.40624,0.15679 0.359673,0.15785 -0.04657,0.001 -0.241829,-0.0513 -0.433917,-0.11626 -0.254076,-0.086 -0.34925,-0.1032 -0.34925,-0.0632 0,0.033 0.179012,0.1098 0.447798,0.19207 0.246288,0.0754 0.429062,0.14331 0.406164,0.15094 -0.05958,0.0199 -0.552481,-0.11268 -0.697014,-0.18742 -0.112816,-0.0583 -0.120885,-0.0574 -0.107468,0.0123 0.01852,0.0962 0.481977,0.24532 0.969869,0.31212 0.194751,0.0267 0.370953,0.0589 0.391559,0.0716 0.05303,0.0328 -0.05763,0.0947 -0.183241,0.10255 -0.268349,0.0168 0.415061,0.0707 0.867833,0.0685 0.353861,-0.002 0.443775,-0.0108 0.296334,-0.0299 -0.129631,-0.0168 0.134508,-0.0347 0.681516,-0.0463 0.708694,-0.0149 0.909807,-0.0319 0.973666,-0.0823 0.07447,-0.0588 0.07612,-0.0579 0.02203,0.011 -0.09396,0.11976 -0.448414,0.19741 -1.105711,0.24222 -0.667746,0.0455 -0.784643,0.0456 -1.418167,3.4e-4 z m -1.083028,-0.31168 c -0.06512,-0.0583 -0.292805,-0.14834 -0.292805,-0.11583 0,0.0219 0.05239,0.059 0.116416,0.0824 0.121461,0.0444 0.206657,0.0605 0.176389,0.0334 z M 35.70007,159.0253 c -0.01174,-0.0291 -0.02135,-0.005 -0.02135,0.0529 0,0.0582 0.0096,0.082 0.02135,0.0529 0.01174,-0.0291 0.01174,-0.0767 0,-0.10583 z m -1.928662,2.3569 c -0.0024,-0.025 0.03219,-0.25363 0.07687,-0.508 0.04469,-0.25437 0.0938,-0.56726 0.109151,-0.69532 0.01535,-0.12806 0.07155,-0.44238 0.124879,-0.6985 0.05334,-0.25612 0.09698,-0.51329 0.097,-0.5715 4.3e-5,-0.20234 0.09232,-1.11137 0.115117,-1.13417 0.03214,-0.0321 0.02872,0.69921 -0.0044,0.94085 -0.0193,0.14084 -0.03906,0.18303 -0.06717,0.14349 -0.02754,-0.0387 -0.03265,-0.0238 -0.01658,0.0483 0.01279,0.0574 -0.0252,0.34313 -0.08442,0.635 -0.06105,0.3009 -0.121772,0.78732 -0.140234,1.12335 -0.01791,0.32597 -0.03738,0.48789 -0.04328,0.35984 l -0.01072,-0.23284 -0.03796,0.15875 c -0.02088,0.0873 -0.05504,0.23019 -0.07592,0.3175 -0.02088,0.0873 -0.03993,0.13827 -0.04233,0.11324 z m 0.601841,-0.44132 c 0,-0.15134 0.0077,-0.21326 0.01708,-0.13758 0.0094,0.0757 0.0094,0.19949 0,0.27516 -0.0094,0.0757 -0.01708,0.0138 -0.01708,-0.13758 z m -0.216963,0.10583 c 8.64e-4,-0.0698 0.01035,-0.0933 0.02108,-0.0521 0.01073,0.0412 0.01003,0.0983 -0.0016,0.127 -0.0116,0.0287 -0.02038,-0.005 -0.01952,-0.0749 z m 4.402676,0.0695 c -0.05585,-0.0354 0.81951,-0.0947 1.261738,-0.0854 l 0.232833,0.005 -0.275167,0.0565 c -0.304982,0.0626 -1.132907,0.079 -1.219404,0.0241 z m -6.399424,-0.0907 c 0.06646,-0.13058 0.422604,-0.635 0.448335,-0.635 0.02126,0 -0.396331,0.63346 -0.46046,0.6985 -0.02296,0.0233 -0.0175,-0.005 0.01213,-0.0635 z m -1.595074,-0.13516 c 0.0884,-0.10924 0.283247,-0.30618 0.432998,-0.43766 0.149751,-0.13147 0.263612,-0.25306 0.253022,-0.2702 -0.01059,-0.0171 0.12034,-0.16981 0.290953,-0.33928 0.170614,-0.16948 0.321809,-0.28936 0.335991,-0.26642 0.01418,0.0229 -0.01329,0.0914 -0.06106,0.15212 -0.04776,0.0607 -0.07631,0.12745 -0.06343,0.14828 0.01287,0.0208 -0.0478,0.11272 -0.134832,0.20421 -0.145596,0.15304 -0.141073,0.14126 0.03427,-0.0893 0.03382,-0.0445 -0.193661,0.17028 -0.505514,0.47722 -0.311853,0.30694 -0.5768,0.54827 -0.588771,0.5363 -0.01197,-0.012 -0.0516,0.002 -0.08806,0.0308 -0.03646,0.0289 0.006,-0.0368 0.09443,-0.14607 z M 30.8037,160.7503 c 0.126467,-0.12806 0.220416,-0.23283 0.208774,-0.23283 -0.01164,0 -0.12464,0.10477 -0.251107,0.23283 -0.126468,0.12806 -0.220416,0.23283 -0.208775,0.23283 0.01164,0 0.124641,-0.10477 0.251108,-0.23283 z m 0.910167,-0.9525 c 0.04214,-0.0466 0.0671,-0.0847 0.05545,-0.0847 -0.01164,0 -0.05565,0.0381 -0.09779,0.0847 -0.04214,0.0466 -0.0671,0.0847 -0.05546,0.0847 0.01164,0 0.05565,-0.0381 0.09779,-0.0847 z m -1.037167,1.25675 c 0,-0.007 0.06191,-0.0692 0.137583,-0.13758 l 0.137584,-0.12434 -0.124337,0.13759 c -0.115899,0.12824 -0.15083,0.15704 -0.15083,0.12433 z m 1.27,-0.0451 c 0,-0.009 0.03334,-0.0421 0.07408,-0.0741 0.06714,-0.0527 0.06864,-0.0512 0.01598,0.016 -0.0553,0.0705 -0.09007,0.0929 -0.09007,0.0581 z m -1.651,-0.0451 c 0,-0.0252 0.881742,-0.78558 0.910977,-0.78558 0.04828,0 -0.004,0.049 -0.44531,0.41765 -0.256117,0.21393 -0.465667,0.3795 -0.465667,0.36793 z m 8.89,-0.0661 c 0.128058,-0.0177 0.375708,-0.042 0.550333,-0.0539 l 0.3175,-0.0217 -0.211667,0.055 c -0.116416,0.0303 -0.364066,0.0546 -0.550333,0.0539 -0.332434,-10e-4 -0.334382,-0.002 -0.105833,-0.0333 z m -5.058202,-0.52896 c 0.01305,-0.48618 0.08243,-0.94706 0.134686,-0.89479 0.01013,0.0101 -0.0043,0.10129 -0.032,0.2026 -0.02773,0.1013 -0.0655,0.42231 -0.08394,0.71336 l -0.03352,0.52916 z m 6.084023,0.40217 c 0,-0.0815 0.0087,-0.11483 0.01936,-0.0741 0.01065,0.0408 0.01065,0.10742 0,0.14817 -0.01065,0.0407 -0.01936,0.007 -0.01936,-0.0741 z m -10.254488,-0.004 c 0,-0.087 0.117346,-0.18706 0.558488,-0.47623 0.220094,-0.14427 0.499333,-0.38115 0.694798,-0.58939 0.179746,-0.1915 0.249683,-0.25293 0.155416,-0.13651 -0.253885,0.31354 -0.584864,0.61261 -0.95078,0.85913 -0.178884,0.12051 -0.355097,0.26173 -0.391583,0.31383 -0.04732,0.0676 -0.06634,0.0759 -0.06634,0.0292 z M 31.172802,160.6 c 0.121515,-0.12669 0.21994,-0.24622 0.218722,-0.26562 -0.0012,-0.0194 0.01195,-0.048 0.02927,-0.0635 0.01731,-0.0155 0.01778,-0.004 10e-4,0.0247 -0.05191,0.0902 0.02747,0.0584 0.158692,-0.0635 0.06891,-0.064 0.113087,-0.0949 0.09818,-0.0685 -0.0149,0.0263 -0.184536,0.18714 -0.376964,0.35735 -0.298334,0.26388 -0.317325,0.27554 -0.128932,0.0791 z m 8.034064,0.0956 c 0.02328,-0.0242 0.223309,-0.0545 0.4445,-0.0674 0.284655,-0.0166 0.358873,-0.012 0.254,0.0154 -0.247909,0.065 -0.746756,0.10209 -0.6985,0.0519 z m 0.211187,-0.26509 c 0.06959,-0.0208 0.241036,-0.0469 0.381,-0.0582 l 0.25448,-0.0204 -0.275167,0.0598 c -0.151341,0.0329 -0.322791,0.0591 -0.381,0.0582 -0.09842,-0.002 -0.09697,-0.004 0.02069,-0.0394 z m 0.106313,-0.2362 c 0.104775,-0.0337 0.28575,-0.0693 0.402167,-0.0792 0.206578,-0.0176 0.204543,-0.0161 -0.08467,0.0619 -0.357773,0.0965 -0.606413,0.1101 -0.3175,0.0173 z m -4.480649,-0.22679 c 0,-0.0582 0.0096,-0.082 0.02135,-0.0529 0.01174,0.0291 0.01174,0.0767 0,0.10583 -0.01174,0.0291 -0.02135,0.005 -0.02135,-0.0529 z m 4.522983,-0.0209 c 0.128058,-0.0333 0.318558,-0.071 0.423333,-0.0837 l 0.1905,-0.0231 -0.159239,0.0618 c -0.08758,0.034 -0.278081,0.0716 -0.423333,0.0837 l -0.264095,0.0219 z m -3.513667,-0.23311 c -0.08508,-0.0272 -0.08923,-0.0341 -0.02117,-0.0351 0.04657,-6.8e-4 0.122767,0.0151 0.169334,0.0351 0.107874,0.0464 -0.0034,0.0464 -0.148167,0 z m 3.704167,-0.0424 c 0.162983,-0.0454 0.324908,-0.0812 0.359833,-0.0794 0.09786,0.005 -0.25574,0.10837 -0.467679,0.13677 -0.142661,0.0191 -0.11644,0.005 0.107846,-0.0574 z m -0.07144,-0.19814 c 0.03056,-0.0122 0.06707,-0.0107 0.08114,0.003 0.01407,0.0141 -0.01094,0.0241 -0.05556,0.0222 -0.04932,-0.002 -0.05935,-0.0121 -0.02558,-0.0256 z m 0.198437,-0.05 c 0.123884,-0.0516 0.394309,-0.0965 0.3175,-0.0527 -0.03493,0.0199 -0.1397,0.0478 -0.232833,0.0621 -0.106796,0.0163 -0.138064,0.0129 -0.08467,-0.009 z m -5.605824,-0.0727 c 0.002,-0.0493 0.01206,-0.0593 0.02558,-0.0256 0.01223,0.0306 0.01073,0.0671 -0.0033,0.0811 -0.01407,0.0141 -0.02407,-0.0109 -0.02223,-0.0556 z m -2.670342,-0.14464 c 0.04974,-0.0699 0.09996,-0.127 0.111599,-0.127 0.01164,0 -0.01953,0.0571 -0.06927,0.127 -0.04974,0.0699 -0.09996,0.127 -0.111599,0.127 -0.01164,0 0.01953,-0.0572 0.06926,-0.127 z m 0.127,0.11102 c 0,-0.009 0.03334,-0.0421 0.07408,-0.0741 0.06714,-0.0527 0.06864,-0.0512 0.01598,0.016 -0.0553,0.0705 -0.09007,0.0929 -0.09007,0.0581 z m 8.043333,-0.043 c 0,-0.021 0.151918,-0.0672 0.4445,-0.1351 0.06985,-0.0162 0.114196,-0.0156 0.09855,0.001 -0.01565,0.017 -0.110899,0.0489 -0.211666,0.071 -0.100767,0.0221 -0.216551,0.0503 -0.257296,0.0626 -0.04075,0.0123 -0.07408,0.0124 -0.07408,4e-5 z m -7.916333,-0.1263 c 0,-0.009 0.03334,-0.0421 0.07408,-0.0741 0.06714,-0.0527 0.06864,-0.0512 0.01598,0.016 -0.0553,0.0705 -0.09007,0.0929 -0.09007,0.0581 z m 8.085666,-0.10558 c 0.03492,-0.0209 0.130175,-0.0499 0.211667,-0.0643 0.09995,-0.0177 0.120614,-0.0144 0.0635,0.01 -0.130908,0.056 -0.350332,0.0993 -0.275167,0.0543 z m -8.040199,-0.28061 c 0.0523,-0.0931 0.113261,-0.18838 0.135478,-0.21166 0.06339,-0.0664 -0.08159,0.20175 -0.160193,0.29633 -0.0387,0.0466 -0.02758,0.008 0.02471,-0.0847 z m 2.502786,0 c 8.64e-4,-0.0698 0.01035,-0.0933 0.02108,-0.0521 0.01073,0.0412 0.01003,0.0983 -0.0016,0.127 -0.0116,0.0287 -0.02038,-0.005 -0.01951,-0.0749 z m -2.291119,-0.16933 c 0.0523,-0.0931 0.113261,-0.18838 0.135477,-0.21167 0.06339,-0.0664 -0.08158,0.20175 -0.160193,0.29634 -0.0387,0.0466 -0.02758,0.008 0.02472,-0.0847 z m 8.103699,0.0206 c 0.09313,-0.045 0.197908,-0.0816 0.232833,-0.0813 0.09025,8.3e-4 -0.122481,0.10736 -0.275166,0.1378 -0.111318,0.0222 -0.10609,0.0152 0.04233,-0.0565 z m -5.76469,-0.5074 c 0.004,-0.29105 -0.0062,-0.8816 -0.02271,-1.31234 l -0.03007,-0.78316 0.08431,0.67733 c 0.08456,0.67942 0.08328,1.28538 -0.0037,1.75683 -0.02574,0.13946 -0.03318,0.0487 -0.0278,-0.33866 z m 4.484912,0.43633 c 0.04119,-0.0107 0.09834,-0.01 0.127,0.002 0.02866,0.0116 -0.005,0.0204 -0.07489,0.0195 -0.06985,-8.6e-4 -0.0933,-0.0103 -0.05211,-0.0211 z m 0.234674,-0.0419 c 0.03056,-0.0122 0.06707,-0.0107 0.08114,0.003 0.01407,0.0141 -0.01094,0.0241 -0.05556,0.0222 -0.04932,-0.002 -0.05935,-0.0121 -0.02558,-0.0256 z m -6.989957,-0.24572 c 0.03872,-0.0812 0.07792,-0.14012 0.0871,-0.13093 0.01937,0.0194 -0.109144,0.27857 -0.138111,0.27857 -0.01067,0 0.01229,-0.0664 0.05101,-0.14764 z m 8.035061,0.0889 c 0.06985,-0.0318 0.174625,-0.0695 0.232833,-0.0838 0.085,-0.0209 0.08083,-0.0146 -0.02117,0.0319 -0.06985,0.0318 -0.174625,0.0695 -0.232834,0.0838 -0.085,0.0208 -0.08083,0.0146 0.02117,-0.0319 z m -2.691962,-0.23921 c -0.443561,-0.0399 -1.065461,-0.20212 -1.435538,-0.37443 -0.337287,-0.15703 -0.318483,-0.16328 0.08173,-0.0272 0.702911,0.23908 1.10111,0.29748 2.01377,0.29538 0.629066,-10e-4 0.944587,-0.0211 1.227667,-0.0765 0.47555,-0.093 0.882816,-0.21204 1.092503,-0.31931 0.123478,-0.0632 0.148369,-0.067 0.106433,-0.0165 -0.122714,0.14786 -0.903554,0.39104 -1.516436,0.47227 -0.47453,0.0629 -1.160471,0.0831 -1.570129,0.0462 z m -0.0597,-0.25059 c -0.116417,-0.015 0.140758,-0.019 0.5715,-0.009 0.430741,0.0101 0.791104,0.0253 0.800805,0.0339 0.02916,0.0257 -1.144243,0.004 -1.372305,-0.025 z m -0.433111,-0.0735 c 0.04119,-0.0107 0.09834,-0.01 0.127,0.002 0.02866,0.0116 -0.005,0.0204 -0.07489,0.0195 -0.06985,-8.6e-4 -0.0933,-0.0103 -0.05211,-0.0211 z m 3.370247,-0.29262 c 0.148576,-0.0574 0.277547,-0.097 0.286604,-0.0879 0.02103,0.021 -0.442091,0.19919 -0.507591,0.19526 -0.02703,-0.002 0.07241,-0.0499 0.220987,-0.10734 z m -3.878247,-0.17305 c 0.04119,-0.0107 0.09834,-0.01 0.127,0.002 0.02866,0.0116 -0.005,0.0204 -0.07489,0.0195 -0.06985,-8.6e-4 -0.0933,-0.0104 -0.05211,-0.0211 z m -0.273327,-0.0419 c 0.03056,-0.0122 0.06707,-0.0107 0.08114,0.003 0.01407,0.0141 -0.01094,0.0241 -0.05556,0.0222 -0.04932,-0.002 -0.05935,-0.0121 -0.02558,-0.0256 z m 1.193271,-5.7e-4 c -0.574634,-0.0618 -1.787349,-0.35627 -1.724814,-0.4188 0.01086,-0.0109 0.07438,0.001 0.141169,0.0264 0.223531,0.085 0.812664,0.20782 1.308489,0.27282 1.397546,0.1832 2.781642,-0.0246 3.512452,-0.52745 0.105437,-0.0726 0.191704,-0.11452 0.191704,-0.0933 0,0.11228 -0.68922,0.46171 -1.142214,0.57909 -0.591786,0.15335 -1.659892,0.22865 -2.286786,0.16121 z m -1.769341,-0.21289 c -0.100798,-0.10157 -0.105382,-0.11718 -0.03833,-0.1305 0.09706,-0.0193 0.283668,0.10134 0.283668,0.18336 0,0.0989 -0.120459,0.073 -0.245341,-0.0529 z m 4.563341,-0.45612 c 0.08149,-0.0314 0.176741,-0.0571 0.211666,-0.0571 0.03493,0 -0.0032,0.0257 -0.08467,0.0571 -0.08149,0.0314 -0.176742,0.0571 -0.211667,0.0571 -0.03493,0 0.0032,-0.0257 0.08467,-0.0571 z m -6.086912,-0.23283 c -3.38e-4,-0.10478 0.0146,-0.23813 0.03325,-0.29633 0.03309,-0.10333 0.03394,-0.10283 0.03567,0.0212 9.78e-4,0.0698 -0.01398,0.2032 -0.03325,0.29634 l -0.03503,0.16933 -6.48e-4,-0.1905 z m 5.938745,0.0847 c 0.06985,-0.0178 0.1651,-0.0327 0.211667,-0.0331 0.06634,-6.2e-4 0.06176,0.007 -0.02117,0.0331 -0.05821,0.0186 -0.153458,0.0335 -0.211667,0.0331 -0.09506,-7.1e-4 -0.09291,-0.004 0.02117,-0.0331 z m 0.08467,-0.10881 c 0.116416,-0.0324 0.230716,-0.0573 0.254,-0.0553 0.07164,0.006 -0.290879,0.11527 -0.381,0.1147 -0.04657,-2.9e-4 0.01058,-0.027 0.127,-0.0594 z m -6.211077,-0.29542 c 0.03925,-0.10591 0.07689,-0.176 0.08364,-0.15574 0.01358,0.0407 -0.106907,0.3483 -0.13644,0.3483 -0.01021,0 0.01354,-0.0867 0.0528,-0.19256 z m 2.820392,-0.0828 c -1.006788,-0.0842 -1.537511,-0.26578 -1.369287,-0.46848 0.210065,-0.25311 2.019948,-0.44218 3.42879,-0.35817 1.229619,0.0733 1.991873,0.24452 2.021723,0.4541 0.01721,0.12086 -0.130294,0.19741 -0.543942,0.28229 -0.758119,0.15557 -2.289343,0.19464 -3.537284,0.0903 z m 3.200185,-0.081 c 0.474978,-0.0765 0.673311,-0.12958 0.7826,-0.20949 0.07647,-0.0559 0.0743,-0.0617 -0.04657,-0.12419 -0.255416,-0.13208 -1.12838,-0.24626 -2.281197,-0.29838 l -0.423333,-0.0191 0.296333,0.0524 c 0.286019,0.0506 0.274231,0.0519 -0.338666,0.0375 -0.34925,-0.008 -0.815975,-0.0207 -1.037167,-0.0277 -0.221192,-0.007 -0.349779,-0.005 -0.28575,0.003 0.06403,0.009 0.116438,0.0293 0.116465,0.0452 2.6e-5,0.0159 0.376263,0.0334 0.836083,0.0389 0.459819,0.005 0.90271,0.027 0.984202,0.0478 0.09843,0.0251 -0.100529,0.0333 -0.592667,0.0244 l -0.740833,-0.0134 0.529167,0.0409 c 0.291041,0.0225 0.605366,0.0574 0.6985,0.0775 l 0.169333,0.0366 -0.211667,0.0114 -0.211666,0.0114 0.232833,0.0304 c 0.169608,0.0222 0.07189,0.0307 -0.359833,0.0314 -0.847338,0.001 -0.874261,0.0231 -0.0635,0.0514 l 0.6985,0.0244 -0.762,0.0159 -0.762,0.0159 0.762,0.0499 0.762,0.0499 -0.592667,0.01 c -0.325967,0.005 -0.630767,0.0275 -0.677333,0.0494 -0.141232,0.0664 2.056396,0.011 2.518833,-0.0634 z m 0.582083,-0.26434 c 0.0291,-0.0118 0.07673,-0.0118 0.105833,0 0.02911,0.0117 0.0053,0.0213 -0.05292,0.0213 -0.05821,0 -0.08202,-0.01 -0.05292,-0.0213 z m -0.42284,-0.0442 c 0.05266,-0.0101 0.128859,-0.01 0.169334,8.5e-4 0.04047,0.0106 -0.0026,0.0189 -0.09574,0.0184 -0.09313,-4.7e-4 -0.126248,-0.009 -0.07359,-0.0193 z m 0.338173,-0.0404 c 0.02911,-0.0117 0.07673,-0.0117 0.105834,0 0.0291,0.0117 0.0053,0.0214 -0.05292,0.0214 -0.05821,0 -0.08202,-0.01 -0.05292,-0.0214 z m -0.274361,-0.0436 c 0.04119,-0.0107 0.09834,-0.01 0.127,0.002 0.02866,0.0116 -0.005,0.0204 -0.07489,0.0195 -0.06985,-8.6e-4 -0.0933,-0.0103 -0.05211,-0.0211 z m -2.221646,0.0828 c -0.132967,-0.008 -0.361567,-0.008 -0.508,-1.6e-4 -0.146434,0.008 -0.03764,0.0151 0.241758,0.0152 0.2794,9e-5 0.399208,-0.007 0.266242,-0.0151 z m -3.670733,-1.50178 c -0.0034,-0.0741 0.500786,-2.67295 1.287723,-6.63731 0.242645,-1.22238 0.737819,-3.72745 1.100388,-5.56684 0.362569,-1.83938 0.678212,-3.41507 0.701429,-3.50153 0.07188,-0.2677 0.36482,-0.38142 0.525409,-0.20397 0.0596,0.0659 0.07075,0.13022 0.05318,0.30692 -0.04378,0.44016 -2.964528,15.34226 -3.017373,15.3951 -0.03334,0.0333 -0.02335,-0.0292 0.194941,-1.21962 0.275172,-1.50064 1.805856,-9.42297 2.544347,-13.16873 0.152072,-0.77134 0.17886,-1.23865 0.07225,-1.26028 -0.03806,-0.008 -0.119982,0.0298 -0.182041,0.0834 -0.108621,0.0938 -0.171185,0.38967 -1.67563,7.92485 -0.859538,4.30508 -1.571453,7.84838 -1.582034,7.874 -0.01058,0.0256 -0.02074,0.0139 -0.02258,-0.0259 z m 0.402551,-0.13915 c 0.04672,-0.46209 0.288469,-1.70897 0.326755,-1.68531 0.06188,0.0383 0.0055,0.43824 -0.156972,1.11445 -0.198375,0.82544 -0.194052,0.81091 -0.169783,0.57086 z m 0.190115,0.0811 c 0.002,-0.0493 0.01206,-0.0593 0.02558,-0.0256 0.01223,0.0306 0.01073,0.0671 -0.0033,0.0811 -0.01407,0.0141 -0.02407,-0.0109 -0.02223,-0.0556 z m 0.123658,-1.9546 c 0,-0.0233 0.02858,-0.066 0.0635,-0.095 0.03542,-0.0294 0.0635,-0.034 0.0635,-0.0104 0,0.0233 -0.02857,0.066 -0.0635,0.095 -0.03542,0.0294 -0.0635,0.034 -0.0635,0.0104 z m 0.08661,-0.395 c 0.02599,-0.0486 0.05759,-0.0779 0.07022,-0.0653 0.03489,0.0349 -0.021,0.15362 -0.07232,0.15362 -0.03131,0 -0.03066,-0.0271 0.0021,-0.0883 z m 2.006812,-10.26791 c 0.01055,-0.073 0.04953,-0.36524 0.08662,-0.64946 0.03709,-0.28421 0.144598,-0.82457 0.238906,-1.20079 0.250217,-0.99819 0.270512,-0.95166 0.05247,0.12029 -0.05683,0.2794 -0.150165,0.75565 -0.207406,1.05833 -0.05724,0.30269 -0.123358,0.60749 -0.146923,0.67734 l -0.04284,0.127 z"
       id="path954" />
  </g>
</svg>
