<?xml version="1.0" encoding="UTF-8" standalone="no"?>
<!-- Created with Inkscape (http://www.inkscape.org/) -->

<svg
   width="25.314869mm"
   height="25.070957mm"
   viewBox="0 0 25.314869 25.070957"
   version="1.1"
   id="svg5"
   inkscape:version="1.1.2 (b8e25be833, 2022-02-05)"
   sodipodi:docname="dyno.svg"
   xmlns:inkscape="http://www.inkscape.org/namespaces/inkscape"
   xmlns:sodipodi="http://sodipodi.sourceforge.net/DTD/sodipodi-0.dtd"
   xmlns="http://www.w3.org/2000/svg"
   xmlns:svg="http://www.w3.org/2000/svg">
  <sodipodi:namedview
     id="namedview7"
     pagecolor="#ffffff"
     bordercolor="#666666"
     borderopacity="1.0"
     inkscape:pageshadow="2"
     inkscape:pageopacity="0.0"
     inkscape:pagecheckerboard="0"
     inkscape:document-units="mm"
     showgrid="false"
     fit-margin-top="1"
     fit-margin-left="1"
     fit-margin-bottom="1"
     fit-margin-right="1"
     inkscape:zoom="5.9223906"
     inkscape:cx="6.669604"
     inkscape:cy="73.45007"
     inkscape:window-width="1920"
     inkscape:window-height="1017"
     inkscape:window-x="-8"
     inkscape:window-y="-8"
     inkscape:window-maximized="1"
     inkscape:current-layer="layer1" />
  <defs
     id="defs2" />
  <g
     inkscape:label="Layer 1"
     inkscape:groupmode="layer"
     id="layer1"
     transform="translate(-27.593256,-122.51658)">
    <path
       style="fill:#000000;stroke-width:0.0423333"
       d="m 48.748058,146.49891 c -0.150475,-0.0964 -0.1718,-0.16803 -0.07412,-0.2491 0.05063,-0.042 0.08944,-0.0419 0.191935,5.5e-4 0.141798,0.0587 0.306898,0.24215 0.270695,0.30073 -0.04088,0.0661 -0.246974,0.0385 -0.388508,-0.0522 z m 0.518583,-0.27958 c -0.121765,-0.0297 -0.232833,-0.13943 -0.232833,-0.23011 0,-0.0986 0.229275,-0.10726 0.445859,-0.0168 0.299505,0.12514 0.123679,0.3289 -0.213026,0.24687 z m -1.687624,-0.0996 c -0.06255,-0.0492 -0.111543,-0.13037 -0.111543,-0.18479 0,-0.11744 0.140183,-0.30518 0.255105,-0.34165 0.115001,-0.0365 0.109725,-0.24286 -0.01036,-0.40529 -0.07283,-0.0985 -0.08376,-0.14329 -0.04865,-0.19937 0.07742,-0.12368 0.274911,-0.10878 0.568728,0.0429 0.495808,0.25594 0.684513,0.7051 0.400081,0.95227 -0.246853,0.21453 -0.853874,0.29287 -1.05336,0.13595 z m 1.584312,-0.36741 c -0.240652,-0.1223 -0.214604,-0.17985 0.0814,-0.17985 0.275654,0 0.424078,0.0506 0.424078,0.14472 0,0.12046 -0.296958,0.1411 -0.505479,0.0351 z m 1.931639,-0.33242 c -0.129898,-0.0704 -0.147272,-0.23834 -0.02703,-0.26122 0.08877,-0.0169 0.353708,0.16624 0.371095,0.25653 0.01806,0.0938 -0.174912,0.0964 -0.344067,0.005 z m -5.219149,-0.0551 c -0.197866,-0.0899 -0.253505,-0.18481 -0.161947,-0.27637 0.07537,-0.0754 0.237489,-0.0281 0.388353,0.11322 0.111754,0.10468 0.121809,0.18222 0.02829,0.2181 -0.08165,0.0313 -0.04936,0.0383 -0.254693,-0.0549 z m 3.086976,-0.0723 c -0.248823,-0.12271 -0.231052,-0.2704 0.03254,-0.2704 0.232844,0 0.461808,0.10162 0.461808,0.20497 0,0.14571 -0.26141,0.1803 -0.494346,0.0654 z m 2.589846,-0.1317 c -0.123499,-0.0304 -0.1905,-0.0959 -0.1905,-0.18622 0,-0.0624 0.0314,-0.0795 0.146175,-0.0795 0.192717,0 0.361825,0.0802 0.361825,0.1716 0,0.1091 -0.116277,0.14356 -0.3175,0.0941 z m -1.502833,-0.0663 c -0.195121,-0.0984 -0.131507,-0.3953 0.108072,-0.50446 0.127472,-0.0581 0.129673,-0.11969 0.0116,-0.32485 -0.168687,-0.2931 0.0033,-0.38761 0.388328,-0.21334 0.458291,0.20746 0.668607,0.5968 0.463341,0.85775 -0.155019,0.19708 -0.730051,0.30653 -0.971341,0.1849 z m -5.25916,-0.0659 c -0.153826,-0.0368 -0.286507,-0.15569 -0.286507,-0.25681 0,-0.10294 0.187015,-0.3288 0.302632,-0.3655 0.07173,-0.0228 0.08261,-0.0509 0.06114,-0.15823 -0.01436,-0.0718 -0.05446,-0.16187 -0.08911,-0.20016 -0.09349,-0.10331 -0.08063,-0.28447 0.02251,-0.31721 0.124347,-0.0395 0.472494,0.0889 0.688645,0.25398 0.336538,0.25696 0.425158,0.615 0.203479,0.82208 -0.179915,0.16807 -0.647257,0.28291 -0.902796,0.22185 z m 1.393948,-0.0499 c -0.205054,-0.1613 -0.112852,-0.27937 0.177311,-0.22707 0.230153,0.0415 0.308134,0.0945 0.29322,0.19923 -0.01922,0.13498 -0.312272,0.15233 -0.470531,0.0278 z m 5.307725,-0.2236 c -0.197973,-0.069 -0.210911,-0.14532 -0.03037,-0.17919 0.187745,-0.0352 0.406706,0.012 0.438391,0.0946 0.05056,0.13177 -0.152086,0.17378 -0.408016,0.0846 z m -5.27515,-0.15431 c -0.04737,-0.0192 -0.1105,-0.0643 -0.140278,-0.10015 -0.107668,-0.12973 0.463781,-0.1481 0.618284,-0.0199 0.145148,0.12047 -0.238976,0.21692 -0.478006,0.12003 z m -3.271582,-0.29962 c -0.160945,-0.0981 -0.176825,-0.26488 -0.02726,-0.28629 0.119755,-0.0171 0.376455,0.16478 0.392843,0.2784 0.01123,0.0779 -0.0067,0.0938 -0.105833,0.0936 -0.06565,-9e-5 -0.182535,-0.0387 -0.259747,-0.0857 z m 8.348804,0.0255 c -0.109638,-0.0477 -0.186252,-0.13748 -0.186252,-0.21818 0,-0.0506 0.458147,-0.01 0.540914,0.0482 0.239577,0.16781 -0.04564,0.30451 -0.354662,0.16999 z m -3.097318,-0.0453 c -0.158604,-0.0689 -0.211132,-0.16471 -0.138391,-0.25236 0.09152,-0.11028 0.42479,0.0762 0.42479,0.23764 0,0.0935 -0.09394,0.0984 -0.286399,0.0147 z m -17.160261,-0.053 c -0.0029,-0.0175 -0.0077,-0.29132 -0.01058,-0.60857 l -0.0053,-0.57681 0.172528,-0.064 c 0.274754,-0.10192 0.390085,0.0171 0.254236,0.26233 -0.05341,0.0964 -0.04868,0.10728 0.07372,0.16934 0.08898,0.0451 0.14232,0.11181 0.166851,0.20866 0.03041,0.12007 0.01819,0.16814 -0.07811,0.3071 -0.06279,0.0906 -0.175679,0.20276 -0.250861,0.24922 -0.136265,0.0842 -0.312413,0.11302 -0.322529,0.0527 z m 0.383876,-0.2828 c 0.07205,-0.0868 0.03865,-0.36596 -0.05046,-0.42178 -0.13125,-0.0822 -0.220591,0.0183 -0.235045,0.26444 -0.01266,0.21563 -0.01151,0.21789 0.111233,0.21789 0.06822,0 0.146641,-0.0273 0.174277,-0.0606 z m -0.06322,-0.62653 c 0.141644,-0.20223 0.04157,-0.3894 -0.159279,-0.29789 -0.08085,0.0368 -0.0907,0.0696 -0.07793,0.2589 0.01322,0.19598 0.02213,0.2127 0.09308,0.17473 0.04315,-0.0231 0.108007,-0.0842 0.144126,-0.13574 z m -1.195717,0.53407 c 0.01204,-0.20689 0.0089,-0.48094 -0.007,-0.60899 l -0.02885,-0.23284 -0.109255,0.23525 c -0.06009,0.12938 -0.133188,0.31512 -0.162438,0.41275 -0.02925,0.0976 -0.06922,0.1775 -0.08881,0.1775 -0.04975,0 -0.04825,-0.007 0.06995,-0.3209 0.133946,-0.35587 0.276476,-0.61043 0.341776,-0.61043 0.05521,0 0.100496,0.12891 0.104092,0.29633 l 0.0023,0.10584 0.06053,-0.1114 c 0.08215,-0.1512 0.191319,-0.18936 0.220668,-0.0771 0.02091,0.0799 0.02911,0.0765 0.101293,-0.0422 0.155771,-0.25615 0.195711,-0.16658 0.218603,0.49022 0.01496,0.42908 -0.01307,0.60829 -0.09512,0.60829 -0.02737,0 -0.04418,-0.17789 -0.04499,-0.47625 -0.0015,-0.55564 -0.07643,-0.54633 -0.114851,0.0143 -0.01406,0.2052 -0.04516,0.35307 -0.0804,0.38231 -0.04761,0.0395 -0.05818,-0.0167 -0.06168,-0.32791 -0.0023,-0.20658 -0.0187,-0.42322 -0.03639,-0.48143 l -0.03217,-0.10583 -0.05526,0.127 c -0.03039,0.0699 -0.0664,0.29694 -0.08002,0.50464 -0.01772,0.27023 -0.04171,0.38324 -0.08432,0.39733 -0.04925,0.0163 -0.05577,-0.0454 -0.03767,-0.35648 z m 15.81849,0.25842 c -0.10967,-0.0596 -0.187128,-0.18083 -0.143437,-0.22452 0.02981,-0.0298 0.426661,-0.0195 0.531583,0.0138 0.11782,0.0374 0.194295,0.18949 0.119205,0.23707 -0.08872,0.0562 -0.383598,0.0409 -0.507351,-0.0263 z m -4.193112,-0.17044 c -0.06243,-0.0339 -0.125325,-0.0989 -0.139765,-0.14435 -0.03719,-0.11717 0.08398,-0.32786 0.232824,-0.40483 0.150577,-0.0779 0.162478,-0.18973 0.03868,-0.36358 -0.192883,-0.27088 -0.0044,-0.41352 0.3617,-0.27371 0.557378,0.21287 0.834799,0.72937 0.540817,1.00689 -0.22121,0.20882 -0.796455,0.30871 -1.034259,0.17958 z m 1.521093,0.0193 c -0.04075,-0.0237 -0.07408,-0.0898 -0.07408,-0.14688 0,-0.0945 0.0167,-0.10373 0.18814,-0.10373 0.204617,0 0.445468,0.15351 0.387646,0.24707 -0.03731,0.0604 -0.399742,0.0629 -0.501702,0.004 z m 3.874477,-9.1e-4 c -0.262228,-0.0767 -0.269267,-0.32019 -0.0145,-0.5016 0.150795,-0.10738 0.164512,-0.21996 0.04527,-0.37155 -0.101793,-0.12941 -0.106424,-0.19479 -0.01894,-0.26739 0.117082,-0.0972 0.502808,0.0583 0.744712,0.30025 0.17001,0.17001 0.205564,0.23202 0.205564,0.35853 0,0.0841 -0.02068,0.1916 -0.04595,0.23883 -0.09569,0.1788 -0.640976,0.32339 -0.916152,0.24293 z m 1.310192,-0.0193 c -0.139762,-0.0979 -0.124464,-0.23044 0.0266,-0.23044 0.257824,0 0.478775,0.14027 0.406122,0.25782 -0.03863,0.0625 -0.330787,0.044 -0.432719,-0.0274 z m -5.062218,-0.35709 c -0.06653,-0.0208 -0.159253,-0.0722 -0.206048,-0.11432 -0.08372,-0.0753 -0.08212,-0.0769 0.0998,-0.0984 0.313205,-0.0371 0.624977,0.0644 0.520109,0.16926 -0.06319,0.0632 -0.278381,0.0858 -0.413859,0.0435 z m 5.056141,-0.0116 c -0.05637,-0.0288 -0.110344,-0.0761 -0.119944,-0.1052 -0.0279,-0.0846 0.513912,-0.0718 0.584946,0.0138 0.04589,0.0553 0.04497,0.0733 -0.0054,0.10518 -0.08701,0.0551 -0.339518,0.0475 -0.459602,-0.0138 z m -3.210092,-0.36932 c -0.153083,-0.0933 -0.167503,-0.1346 -0.07412,-0.2121 0.07994,-0.0663 0.290796,0.011 0.380959,0.1397 0.119426,0.1705 -0.07189,0.21565 -0.306837,0.0724 z m 3.037416,-0.0553 c -0.05897,-0.0298 -0.105833,-0.0905 -0.105833,-0.13696 0,-0.0734 0.02727,-0.0827 0.226911,-0.0772 0.243051,0.007 0.374694,0.0871 0.33054,0.20221 -0.0316,0.0823 -0.298554,0.0894 -0.451618,0.012 z m -5.109853,-0.0329 c -0.138323,-0.0416 -0.280646,-0.19382 -0.241049,-0.25789 0.03223,-0.0522 0.419377,-0.0431 0.541748,0.0126 0.115267,0.0525 0.175205,0.15781 0.120802,0.21222 -0.05855,0.0585 -0.279046,0.0758 -0.421501,0.033 z m -4.604686,-0.26158 c -0.140176,-0.19827 -0.203874,-0.54513 -0.20831,-1.13433 l -0.0043,-0.57342 -0.269862,0.0748 c -0.892126,0.24722 -2.375722,0.18268 -3.191383,-0.13882 -0.112048,-0.0442 -0.209915,-0.0803 -0.217483,-0.0803 -0.0076,0 -0.02714,0.14764 -0.04349,0.32808 -0.07816,0.8627 -0.327926,1.36525 -0.678505,1.36525 -0.505015,0 -1.101342,-0.9716 -1.610899,-2.62466 l -0.176165,-0.5715 -0.244293,-0.13754 c -0.134361,-0.0757 -0.313735,-0.19227 -0.398608,-0.25915 -0.08487,-0.0669 -0.41149,-0.29364 -0.725815,-0.5039 -1.6279,-1.08895 -2.411175,-2.11059 -2.204784,-2.87574 0.08743,-0.32414 0.294109,-0.50111 0.885425,-0.75817 l 0.321177,-0.13962 -0.01227,-0.35501 c -0.02049,-0.59294 0.11888,-0.79791 0.561729,-0.82611 0.281222,-0.0179 0.458097,0.0408 0.649123,0.21543 0.09232,0.0844 0.09854,0.0847 0.261484,0.0112 0.280106,-0.12631 0.36942,-0.25665 0.441578,-0.64439 0.07761,-0.41702 0.155783,-0.54832 0.360307,-0.60513 0.314291,-0.0873 0.428187,-0.0514 0.718186,0.22617 l 0.182789,0.17498 0.07545,-0.0921 c 0.05071,-0.0619 0.0833,-0.19598 0.09941,-0.40889 0.02593,-0.34282 0.06602,-0.45011 0.237328,-0.63521 0.190407,-0.20573 0.504207,-0.31556 0.694678,-0.24315 0.09204,0.035 0.102658,0.0172 0.226623,-0.38072 0.07153,-0.2296 0.111198,-0.40579 0.08815,-0.39154 -0.02305,0.0143 -0.160976,0.11602 -0.306497,0.22617 -0.328679,0.24877 -0.61054,0.36482 -0.730356,0.3007 -0.124493,-0.0666 -0.151131,-0.23613 -0.06592,-0.41947 0.104058,-0.2239 0.610981,-0.71326 1.016547,-0.98133 l 0.346309,-0.2289 -0.09618,-0.1143 c -0.141594,-0.16828 -0.409232,-1.01231 -0.436868,-1.37772 -0.04253,-0.56232 0.119814,-1.07419 0.434726,-1.37071 0.185574,-0.17474 0.185798,-0.17566 -0.0863,0.35716 l -0.211666,0.4145 0.0046,0.47142 c 0.0055,0.56133 0.144886,1.07178 0.353606,1.29522 0.06827,0.0731 0.123697,0.14193 0.123179,0.15301 -0.0044,0.0932 0.07925,0.0673 0.428741,-0.13254 0.439584,-0.25141 1.433764,-0.69932 1.9685,-0.88688 0.186267,-0.0653 0.362479,-0.14802 0.391584,-0.18376 0.0291,-0.0357 0.05292,-0.0436 0.05292,-0.0175 0,0.03 0.112993,0.01 0.306917,-0.0556 l 0.306917,-0.10308 -0.01369,-0.35968 c -0.0075,-0.19782 -0.02058,-0.35967 -0.02899,-0.35967 -0.0084,0 -0.06893,0.0217 -0.134473,0.0483 -0.06555,0.0266 -0.147748,0.0521 -0.182673,0.0567 -0.03493,0.005 -0.127582,0.023 -0.205904,0.0408 -0.136367,0.031 -0.141323,0.0389 -0.116883,0.18671 0.01404,0.0849 0.02573,0.18895 0.02599,0.23127 3.39e-4,0.0529 0.02358,0.0704 0.07455,0.056 0.04075,-0.0115 0.159809,-0.033 0.264584,-0.0477 0.273194,-0.0384 0.14522,0.0371 -0.289914,0.17106 -0.194377,0.0598 -0.403927,0.12955 -0.465667,0.15495 -0.06174,0.0254 -0.140828,0.0522 -0.175753,0.0595 -0.05644,0.0119 -0.589134,0.22708 -1.026583,0.41473 -0.278907,0.11965 -0.170141,0.0394 0.157546,-0.11617 l 0.316295,-0.15021 -0.08842,-0.20374 c -0.04863,-0.11206 -0.102892,-0.21949 -0.120575,-0.23874 -0.01768,-0.0192 -0.149212,0.0241 -0.292287,0.0963 -0.236799,0.11954 -0.25595,0.13915 -0.213458,0.21854 0.02567,0.048 0.03735,0.0966 0.02595,0.10795 -0.0114,0.0114 -0.03383,-0.0205 -0.04984,-0.071 -0.02161,-0.0681 -0.0526,-0.0858 -0.120282,-0.0688 -0.08399,0.0211 -0.08528,0.0185 -0.01644,-0.033 0.07099,-0.0531 0.07003,-0.0684 -0.01909,-0.30481 -0.0516,-0.13687 -0.104277,-0.25839 -0.117059,-0.27003 -0.01278,-0.0116 -0.02637,-0.0702 -0.0302,-0.13016 -0.0038,-0.06 -0.02875,-0.18995 -0.05539,-0.28888 -0.04309,-0.16004 -0.05634,-0.17378 -0.120046,-0.12457 -0.06671,0.0515 -0.06689,0.0496 -0.0026,-0.0286 0.05271,-0.0641 0.06397,-0.14141 0.04767,-0.32735 -0.02109,-0.24074 -0.03962,-0.2735 -0.11969,-0.21167 -0.02261,0.0175 -0.01056,0.003 0.02678,-0.0328 0.06042,-0.0575 0.146294,-0.37996 0.101171,-0.37996 -0.0098,0 -0.06656,0.0735 -0.126022,0.16338 -0.132303,0.19992 -0.167928,0.56048 -0.105996,1.0728 0.06426,0.53158 0.08166,0.61192 0.236102,1.09025 0.0786,0.24342 0.136445,0.44905 0.128548,0.45695 -0.0307,0.0307 -0.328914,-0.77878 -0.407203,-1.10532 -0.04543,-0.18951 -0.085,-0.48743 -0.08791,-0.66206 -0.0065,-0.39036 -0.06756,-0.21625 -0.07421,0.21167 -0.005,0.32344 0.06632,0.68036 0.241168,1.2065 0.06964,0.20955 0.138887,0.4191 0.153888,0.46567 0.08953,0.27792 -0.209074,-0.37694 -0.338577,-0.74253 -0.365527,-1.03189 -0.182874,-2.04302 0.483955,-2.67906 l 0.242396,-0.23121 -0.246689,-0.0178 c -0.232848,-0.0169 -0.450383,-0.11886 -0.48687,-0.22832 -0.0269,-0.0807 0.0975,-0.19133 0.25512,-0.22688 0.175948,-0.0397 0.431079,0.0119 0.540835,0.10926 0.05965,0.0529 0.0853,0.0435 0.213267,-0.0783 0.08,-0.0761 0.195971,-0.2071 0.257703,-0.291 0.184862,-0.25125 0.498395,-0.32748 0.498395,-0.12117 0,0.11309 -0.06745,0.24411 -0.197622,0.3839 l -0.102609,0.11018 0.315527,-0.0202 c 0.894756,-0.0574 1.4101,0.53716 1.621394,1.8707 0.03938,0.24853 0.05896,0.56376 0.048,0.77259 -0.01018,0.19402 -0.0052,0.35276 0.01103,0.35276 0.01625,0 0.04959,-0.20479 0.07409,-0.45508 l 0.04455,-0.45509 -0.01568,0.4528 c -0.0132,0.38113 -0.006,0.44909 0.04532,0.42938 0.04911,-0.0188 0.061,-0.13944 0.061,-0.6186 0,-0.32735 0.01272,-0.58247 0.02826,-0.56693 0.05667,0.0567 0.08764,0.48058 0.05772,0.79019 -0.01687,0.17462 -0.02548,0.32402 -0.01913,0.332 0.01104,0.0139 1.123516,-0.24916 1.154728,-0.27302 0.03072,-0.0235 -0.413059,-0.90414 -0.57803,-1.14707 -0.320291,-0.47165 -0.872194,-0.93676 -1.195936,-1.00787 -0.275512,-0.0605 -0.03864,-0.32085 0.318902,-0.3505 0.323889,-0.0269 0.623429,0.12863 1.043058,0.54146 0.537722,0.529 0.90859,1.19595 0.94632,1.70183 l 0.01325,0.17762 0.404735,-0.0118 c 0.751281,-0.0219 1.257966,0.16138 1.358461,0.49132 0.04618,0.1516 -0.09118,0.38199 -0.301104,0.50501 -0.23103,0.13539 -0.773635,0.311 -0.960951,0.311 -0.07672,0 -0.151503,0.012 -0.166174,0.0267 -0.01467,0.0147 0.07264,0.11413 0.194029,0.22101 0.121386,0.10688 0.288925,0.26602 0.372309,0.35363 0.131625,0.1383 0.161402,0.15214 0.22592,0.10496 0.06881,-0.0503 0.0662,-0.058 -0.03519,-0.10423 -0.265612,-0.12102 -0.0235,-0.31353 0.281955,-0.2242 0.335672,0.0982 0.80354,0.34926 0.979856,0.52584 0.351473,0.35199 0.376604,0.95814 0.0496,1.19635 l -0.113536,0.0827 0.19786,0.29505 c 0.385727,0.5752 0.722337,1.34528 0.84693,1.93757 0.07977,0.37921 0.07783,1.04631 -0.004,1.36484 -0.224143,0.87289 -0.856552,1.42519 -1.873497,1.63617 -0.938568,0.19473 -2.379205,-0.0299 -3.374547,-0.52626 -0.349097,-0.17408 -0.759358,-0.45375 -1.037167,-0.70703 l -0.232833,-0.21228 0.613833,0.28907 c 0.87099,0.41017 1.69797,0.74572 2.116667,0.85884 0.303767,0.0821 0.46537,0.0974 1.037166,0.0982 0.583088,8.2e-4 0.718811,-0.0121 0.975425,-0.0928 0.509444,-0.16028 1.031932,-0.55655 1.268703,-0.9622 l 0.1002,-0.17168 -0.0807,-0.23283 c -0.04438,-0.12806 -0.08132,-0.3316 -0.08208,-0.45232 -0.0016,-0.25421 0.09156,-0.73086 0.191838,-0.98147 0.06612,-0.16525 0.06505,-0.18822 -0.02236,-0.48112 -0.189436,-0.63478 -0.618252,-1.38602 -1.142996,-2.00241 -0.221268,-0.25992 -0.299139,-0.32057 -0.510513,-0.39764 -0.355413,-0.12959 -0.496443,-0.33583 -0.379309,-0.5547 0.03589,-0.0671 0.02238,-0.0911 -0.08123,-0.1447 -0.1084,-0.056 -0.415711,-0.37304 -0.842589,-0.86913 l -0.126768,-0.14732 -0.391265,0.0954 c -0.215196,0.0525 -0.39879,0.0879 -0.407988,0.0787 -0.0092,-0.009 0.155443,-0.0617 0.365869,-0.11655 0.210426,-0.0549 0.382593,-0.11338 0.382593,-0.12996 0,-0.12141 -0.399052,-0.0528 -0.928142,0.15966 -0.196153,0.0788 -0.36348,0.13635 -0.371838,0.12799 -0.03399,-0.034 0.704589,-0.31895 0.951256,-0.36702 0.206124,-0.0402 0.255189,-0.0636 0.220518,-0.10539 -0.05762,-0.0694 -0.431982,0.0136 -0.861564,0.19106 -1.046134,0.43218 -1.239232,0.5077 -1.29623,0.50694 -0.03493,-4.7e-4 0.09842,-0.0645 0.296333,-0.14235 0.197909,-0.0778 0.550334,-0.22698 0.783167,-0.33146 0.232833,-0.10448 0.528108,-0.21311 0.656167,-0.2414 0.341475,-0.0754 0.359512,-0.0833 0.308675,-0.1341 -0.05432,-0.0543 -0.241216,-6.5e-4 -1.049509,0.30139 -1.170176,0.43727 -2.546994,0.87504 -2.784289,0.8853 -0.04123,0.002 -0.136475,0.0912 -0.211666,0.19869 -0.185585,0.26533 -0.267386,0.36085 -0.177019,0.20671 0.04095,-0.0699 0.100112,-0.16457 0.131466,-0.2105 0.08019,-0.11746 0.07102,-0.15178 -0.03051,-0.11423 -0.04814,0.0178 -0.171407,0.17436 -0.273934,0.34789 -0.256944,0.43489 -0.292795,0.4811 -0.162655,0.20968 0.0614,-0.12806 0.14937,-0.28632 0.195491,-0.35169 0.04612,-0.0654 0.07299,-0.12972 0.0597,-0.14301 -0.04488,-0.0449 -0.20804,0.18146 -0.435197,0.60371 -0.124317,0.23108 -0.225889,0.4011 -0.225716,0.37782 1.7e-4,-0.0233 0.103072,-0.2376 0.228664,-0.47625 0.222003,-0.42186 0.239884,-0.49064 0.09904,-0.381 -0.101387,0.0789 -0.55463,0.95052 -0.777987,1.49607 -0.107799,0.26331 -0.227986,0.50769 -0.267081,0.54307 -0.03909,0.0354 -0.197035,0.10323 -0.350977,0.15078 -0.387593,0.11971 -0.520462,0.2744 -0.561022,0.65314 -0.02237,0.20887 -0.05724,0.31305 -0.136201,0.40689 -0.127068,0.15101 -0.252826,0.16006 -0.521941,0.0375 -0.104775,-0.0477 -0.276225,-0.0968 -0.381,-0.10915 -0.258896,-0.0305 -0.354043,0.0756 -0.420847,0.4691 -0.05766,0.33965 -0.115757,0.46569 -0.291772,0.63301 -0.162296,0.15427 -0.34441,0.16652 -0.620881,0.0418 -0.418805,-0.18897 -0.657032,-0.16638 -0.839675,0.0796 -0.06887,0.0928 -0.08474,0.17472 -0.08029,0.41457 l 0.0055,0.29894 -0.431787,0.20278 c -0.527259,0.24761 -0.690385,0.37918 -0.751489,0.6061 -0.103343,0.38379 0.150588,0.87636 0.759614,1.47349 0.701553,0.68785 2.490823,2.20133 2.602455,2.20133 0.01038,0 0.0101,-0.0429 -6.31e-4,-0.0953 -0.01073,-0.0524 0.09312,0.20955 0.230781,0.58209 0.529494,1.43294 0.868154,2.08694 1.257853,2.4291 0.360289,0.31634 0.607827,0.0272 0.777072,-0.90755 0.123391,-0.68152 0.172032,-0.85318 0.220194,-0.7771 0.02085,0.0329 0.03819,0.1104 0.03855,0.17215 8.68e-4,0.14993 0.129553,0.19197 0.826148,0.26987 0.96878,0.10834 1.828531,0.0614 2.610321,-0.14255 0.170873,-0.0446 0.391641,-0.0946 0.490595,-0.11112 0.158314,-0.0265 0.179917,-0.0206 0.179917,0.0492 0,0.0436 -0.05715,0.11302 -0.127,0.15428 -0.122452,0.0723 -0.126988,0.0859 -0.126653,0.37955 7.45e-4,0.6529 0.116538,1.28143 0.229198,1.24409 0.133309,-0.0442 0.469772,-0.95815 0.805619,-2.1884 0.213931,-0.78366 0.352201,-1.23076 0.357974,-1.15752 0.0067,0.0848 -0.200966,1.46033 -0.27059,1.79252 -0.146246,0.69774 -0.435013,1.46515 -0.657986,1.74862 -0.114416,0.14545 -0.304249,0.15437 -0.400101,0.0188 z m 3.983669,-11.95473 c 0.05299,-0.12683 0.05449,-0.16064 0.0084,-0.18985 -0.04153,-0.0263 -0.03412,-0.037 0.02861,-0.0412 0.05734,-0.004 0.04368,-0.0161 -0.04233,-0.038 l -0.127,-0.0323 0.116416,-0.005 c 0.108695,-0.005 0.116417,-0.0174 0.116417,-0.19222 0,-0.14653 -0.03034,-0.22702 -0.139653,-0.37042 -0.180602,-0.23692 -0.672518,-0.54304 -0.872655,-0.54304 -0.114819,0 -0.136336,0.0113 -0.09682,0.0508 0.08622,0.0862 0.05724,0.14924 -0.10795,0.2347 -0.430096,0.22251 0.0086,0.61281 0.698495,0.62138 0.145518,0.002 0.26458,0.0176 0.264583,0.035 3e-6,0.0175 -0.02017,0.0318 -0.04483,0.0318 -0.02466,0 -0.03439,0.0169 -0.02162,0.0375 0.01277,0.0207 -3.81e-4,0.0367 -0.02925,0.0357 -0.146208,-0.005 -0.248516,0.0153 -0.235906,0.0473 0.0177,0.045 0.384236,0.47211 0.405177,0.47211 0.0085,0 0.04443,-0.0694 0.0799,-0.15432 z m -0.07938,-0.42405 c 0.0291,-0.0118 0.07673,-0.0118 0.105834,0 0.0291,0.0117 0.0053,0.0214 -0.05292,0.0214 -0.05821,0 -0.08202,-0.01 -0.05292,-0.0214 z m -6.113869,-1.20323 c 0.874836,-0.25215 1.428459,-0.43514 2.224624,-0.73529 0.389038,-0.14667 0.86844,-0.30818 1.065336,-0.35892 0.448989,-0.11571 1.327842,-0.16118 1.771352,-0.0916 0.17198,0.027 0.32065,0.0411 0.330377,0.0313 0.04515,-0.0452 -0.424251,-0.16322 -0.732681,-0.18429 -0.638123,-0.0436 -1.623741,0.18266 -3.339388,0.76659 -0.877884,0.2988 -2.031563,0.73713 -1.95462,0.74265 0.01928,0.001 0.305026,-0.0753 0.635,-0.17042 z m 0.439152,-0.86096 c 0.181574,-0.0797 0.412458,-0.17018 0.513076,-0.20109 l 0.182942,-0.0562 -0.02767,-0.1905 c -0.01522,-0.10477 -0.04108,-0.20452 -0.05747,-0.22166 -0.01639,-0.0171 -0.139952,1.7e-4 -0.274586,0.0385 -0.222648,0.0633 -0.242612,0.0786 -0.220721,0.16874 0.05831,0.24013 0.05996,0.31657 0.0031,0.14588 -0.03406,-0.10234 -0.06896,-0.1931 -0.07756,-0.20169 -0.03068,-0.0307 -0.547509,0.17662 -0.567005,0.22743 -0.02439,0.0636 0.113265,0.43549 0.16118,0.43549 0.01899,0 0.183092,-0.0652 0.364666,-0.14489 z m -0.670969,-0.346 c 0.0082,-0.006 -0.0171,-0.11287 -0.0562,-0.23662 -0.0391,-0.12374 -0.07873,-0.24929 -0.08806,-0.27898 -0.01221,-0.0389 -0.08836,-0.0179 -0.271881,0.0747 -0.140205,0.0708 -0.254711,0.1427 -0.254459,0.15983 4.4e-4,0.0298 0.107401,0.40033 0.145681,0.50461 0.01238,0.0337 0.09892,0.007 0.264217,-0.0809 0.135196,-0.0721 0.252514,-0.13625 0.260707,-0.14265 z m 0.402581,-0.18687 c 0.154563,-0.0701 0.281022,-0.13329 0.281022,-0.14048 0,-0.0276 -0.136845,-0.47447 -0.154004,-0.50287 -0.01695,-0.028 -0.504544,0.15839 -0.578226,0.2211 -0.03787,0.0322 0.09453,0.54968 0.140649,0.54968 0.01625,0 0.155997,-0.0573 0.310559,-0.12743 z m 3.614772,-0.126 c 0.07025,-7.6e-4 0.06674,-0.108 -0.01226,-0.37403 -0.05858,-0.19725 -0.08631,-0.23019 -0.27376,-0.32518 -0.114718,-0.0581 -0.21901,-0.1057 -0.231761,-0.1057 -0.01275,0 0.03192,0.10954 0.09927,0.24342 0.06735,0.13388 0.13626,0.32609 0.153139,0.42713 0.02697,0.16147 0.04169,0.18076 0.121576,0.15933 0.04999,-0.0134 0.1147,-0.0246 0.143804,-0.025 z m -4.450153,-0.17301 c 0.245787,-0.14063 0.248653,-0.1469 0.182526,-0.39906 -0.078,-0.29746 -0.06612,-0.28972 -0.261707,-0.17046 -0.09914,0.0605 -0.205635,0.12517 -0.236662,0.14382 -0.04621,0.0278 -0.04713,0.0811 -0.0051,0.29486 0.02824,0.14352 0.06083,0.26094 0.07243,0.26094 0.0116,0 0.12342,-0.0586 0.248492,-0.1301 z m 1.468695,0.0626 c 0.114854,-0.0391 0.198042,-0.0935 0.198042,-0.12942 0,-0.14107 -0.100609,-0.44687 -0.153727,-0.46725 -0.03146,-0.0121 -0.152691,0.0124 -0.269412,0.0544 -0.152903,0.055 -0.206787,0.0947 -0.192787,0.14197 0.01069,0.0361 0.0416,0.15614 0.0687,0.26674 0.0271,0.1106 0.07219,0.20108 0.100206,0.20108 0.02801,0 0.140052,-0.0304 0.248974,-0.0675 z m 0.780125,-0.17049 c 0.122237,-0.0153 0.22155,-0.049 0.220694,-0.0749 -0.0032,-0.0959 -0.113162,-0.62032 -0.134603,-0.64176 -0.01223,-0.0122 -0.07418,0.001 -0.137668,0.0304 -0.101171,0.0461 -0.112309,0.0698 -0.09014,0.19209 0.06562,0.36181 0.06275,0.44291 -0.0069,0.19538 -0.04049,-0.14389 -0.08481,-0.27255 -0.09849,-0.28592 -0.03126,-0.0306 -0.358023,0.0802 -0.350856,0.11891 0.0029,0.0157 0.02806,0.14433 0.05591,0.28586 l 0.05063,0.25732 0.134594,-0.0247 c 0.07403,-0.0136 0.234606,-0.0373 0.356844,-0.0526 z m -1.596876,-0.2283 c 0.139036,-0.0702 0.252793,-0.14948 0.252793,-0.1762 0,-0.0794 -0.140428,-0.50063 -0.166481,-0.49934 -0.01321,6.6e-4 -0.138319,0.0629 -0.278019,0.1384 -0.216,0.11669 -0.252223,0.15293 -0.242118,0.24223 0.02208,0.19511 0.09695,0.42252 0.139123,0.42252 0.02305,0 0.155666,-0.0574 0.294702,-0.12761 z m -0.662742,-0.35815 c 0.09429,-0.0815 0.09686,-0.0977 0.05227,-0.3285 l -0.0469,-0.24276 -0.201083,0.13135 -0.201084,0.13135 v 0.24194 c 0,0.13306 0.0122,0.25413 0.02711,0.26904 0.03057,0.0306 0.220488,-0.0734 0.369692,-0.20242 z m 4.237184,-0.0175 c -0.09753,-0.1792 -0.145874,-0.22015 -0.360475,-0.30539 -0.136312,-0.0542 -0.23941,-0.10688 -0.229106,-0.11718 0.0103,-0.0103 0.09532,0.0158 0.188932,0.058 0.09361,0.0422 0.178614,0.0683 0.188903,0.058 0.01029,-0.0103 -0.05616,-0.10629 -0.147656,-0.21333 -0.140992,-0.16495 -0.208562,-0.20605 -0.443079,-0.26953 -0.152195,-0.0412 -0.284238,-0.0672 -0.29343,-0.0579 -0.0092,0.009 0.08773,0.10751 0.215387,0.21811 0.127654,0.1106 0.221298,0.20108 0.208099,0.20108 -0.0132,0 0.0448,0.0905 0.128884,0.20109 0.104736,0.13775 0.227968,0.2366 0.391304,0.31386 0.131131,0.062 0.244372,0.11442 0.251646,0.11642 0.0073,0.002 -0.03746,-0.0895 -0.09941,-0.20331 z m -2.933826,0.0905 c 0.23303,-0.0827 0.234329,-0.09 0.08015,-0.4497 l -0.08272,-0.19297 -0.213796,0.0889 c -0.117589,0.0489 -0.213798,0.10845 -0.213798,0.13241 0,0.0993 0.145499,0.49549 0.181966,0.49549 0.02173,0 0.133413,-0.0333 0.248191,-0.0741 z m 0.639737,-0.21806 c 0.018,-0.0173 -0.0096,-0.14922 -0.06136,-0.29304 -0.09913,-0.2755 -0.137179,-0.29904 -0.334105,-0.20666 l -0.108736,0.051 0.0818,0.26839 0.0818,0.26839 0.153938,-0.0283 c 0.08467,-0.0156 0.168665,-0.0425 0.186665,-0.0598 z m -1.26561,-0.25902 c 0.04457,-0.0424 -0.09918,-0.46484 -0.158177,-0.46484 -0.02246,0 -0.125836,0.0498 -0.229728,0.1107 l -0.188892,0.1107 0.02747,0.2337 c 0.01511,0.12853 0.03712,0.24932 0.04892,0.26841 0.01914,0.031 0.406328,-0.16917 0.500407,-0.25867 z m 1.593899,0.21249 c 0.07673,0 0.07679,-0.006 0.0022,-0.22298 -0.109473,-0.31819 -0.314802,-0.6331 -0.497593,-0.76316 -0.08658,-0.0616 -0.164486,-0.10494 -0.173121,-0.0963 -0.0086,0.009 0.03442,0.11461 0.09568,0.23549 0.09826,0.1939 0.123521,0.21674 0.214512,0.1939 0.05673,-0.0142 0.103138,-0.009 0.103138,0.0123 0,0.021 -0.03561,0.0475 -0.07913,0.0589 -0.07596,0.0199 -0.07516,0.0323 0.02007,0.31186 0.05456,0.16014 0.09969,0.29796 0.100294,0.30627 6.01e-4,0.008 0.03123,0.004 0.06806,-0.0106 0.03683,-0.0141 0.102478,-0.0257 0.145887,-0.0257 z m -2.385549,-0.36938 c 0.121055,-0.10574 0.131611,-0.13355 0.105833,-0.27889 l -0.02863,-0.16144 -0.179917,0.15415 c -0.155386,0.13314 -0.179917,0.177 -0.179917,0.32168 0,0.18913 0.02973,0.18539 0.282634,-0.0355 z m 1.17735,-0.0204 c 0.105737,-0.0514 0.187209,-0.1044 0.181049,-0.11783 -0.0062,-0.0134 -0.0493,-0.11421 -0.09587,-0.22394 -0.04657,-0.10973 -0.103717,-0.19917 -0.127,-0.19874 -0.02328,4.2e-4 -0.121513,0.0367 -0.218288,0.0807 l -0.175955,0.0799 0.09129,0.23595 c 0.05021,0.12977 0.105066,0.23628 0.121906,0.23668 0.01684,3.8e-4 0.117129,-0.0413 0.222866,-0.0927 z m -0.755415,-0.27702 c 0.197956,-0.12505 0.209325,-0.1509 0.129533,-0.29445 l -0.0519,-0.0934 -0.16645,0.0934 c -0.09155,0.0513 -0.162769,0.10766 -0.158268,0.12512 0.0045,0.0175 0.0082,0.0889 0.0082,0.15875 0,0.0699 0.01229,0.127 0.02731,0.127 0.01502,0 0.110237,-0.0524 0.211591,-0.11642 z m 1.405859,0.0519 c 0.0082,-0.008 -0.03455,-0.12276 -0.09502,-0.25485 -0.08296,-0.1812 -0.126558,-0.23378 -0.17761,-0.21419 -0.03721,0.0143 -0.113517,0.0375 -0.169562,0.0515 -0.05605,0.0141 -0.1019,0.0337 -0.1019,0.0436 0,0.01 0.0489,0.11448 0.108664,0.23242 0.107189,0.21153 0.110784,0.21404 0.264584,0.18532 0.08575,-0.016 0.162636,-0.0357 0.170846,-0.0438 z m 1.779886,-0.17121 c -0.162291,-0.1623 -0.290818,-0.20402 -0.778814,-0.25282 l -0.296333,-0.0296 0.296333,0.15579 c 0.25209,0.13254 0.631907,0.25181 0.867128,0.27229 0.03586,0.003 -0.002,-0.0593 -0.08831,-0.14563 z m -2.5029,-0.25474 c 0.0064,-0.003 -0.0012,-0.0387 -0.01685,-0.0795 -0.03059,-0.0797 -0.177049,-0.0742 -0.408813,0.0154 -0.113938,0.044 -0.115539,0.0489 -0.0495,0.14967 l 0.06825,0.10416 0.197664,-0.0922 c 0.108715,-0.0507 0.202874,-0.0946 0.209244,-0.0976 z m 2.03667,-0.10398 c -0.268255,-0.17547 -0.583715,-0.21388 -0.711022,-0.0866 -0.121052,0.12105 -0.07695,0.17855 0.115244,0.15024 0.08591,-0.0127 0.270494,-0.005 0.410194,0.0159 0.38883,0.0596 0.394565,0.0571 0.185584,-0.0796 z m -1.709584,0.002 c 0.06533,-0.0281 0.04301,-0.0371 -0.09775,-0.0393 -0.111486,-0.002 -0.172242,0.0135 -0.156252,0.0393 0.03111,0.0504 0.136844,0.0504 0.254,0 z m -1.23825,-0.10126 c 0.07398,-0.0562 0.106296,-0.13531 0.03801,-0.0931 -0.01984,0.0123 -0.109592,-0.0152 -0.19945,-0.061 -0.188676,-0.0962 -0.493993,-0.10994 -0.564149,-0.0254 -0.133803,0.16122 0.53252,0.32608 0.725588,0.17952 z m 0.534359,-0.46929 c 0.160533,-0.17416 0.215172,-0.27611 0.147971,-0.27611 -0.123522,0 -0.511749,0.37872 -0.450754,0.43971 0.0586,0.0586 0.137038,0.0162 0.302783,-0.1636 z m 7.922099,17.91495 c -0.187858,-0.0951 -0.164703,-0.35922 0.0422,-0.48144 0.14272,-0.0843 0.173276,-0.26165 0.06112,-0.35473 -0.03653,-0.0303 -0.06,-0.10303 -0.05292,-0.16394 0.01936,-0.16655 0.245672,-0.16868 0.528647,-0.005 0.417115,0.2413 0.568409,0.59641 0.352172,0.82658 -0.18169,0.1934 -0.703922,0.29351 -0.931221,0.17851 z m 1.339686,-0.0228 c -0.116384,-0.12861 -0.08493,-0.17659 0.11575,-0.17659 0.200413,0 0.401093,0.11825 0.347593,0.20481 -0.04986,0.0807 -0.38316,0.0604 -0.463343,-0.0282 z m 0.15245,-0.30298 c -0.07553,-0.0177 -0.167861,-0.0575 -0.205188,-0.0885 -0.06175,-0.0512 -0.06082,-0.0591 0.01032,-0.0871 0.134434,-0.0529 0.418165,-0.0394 0.504013,0.0239 0.145481,0.10737 -0.06246,0.20936 -0.309148,0.15162 z m -6.98526,-0.31734 c 0,-0.0578 0.01385,-0.0965 0.03079,-0.086 0.01693,0.0105 0.08295,-0.15657 0.146711,-0.37119 0.150627,-0.50703 0.143479,-0.48801 0.146616,-0.39021 0.0068,0.2108 -0.220355,0.9525 -0.29167,0.9525 -0.01785,0 -0.03244,-0.0473 -0.03244,-0.10507 z m -5.086824,-0.13835 c -0.09469,-0.1106 -0.23014,-0.31538 -0.301003,-0.45508 -0.07086,-0.1397 -0.10441,-0.21801 -0.07455,-0.17402 0.02986,0.044 0.125992,0.18686 0.213626,0.3175 0.08763,0.13063 0.209137,0.29943 0.270009,0.3751 0.171227,0.21286 0.08531,0.16238 -0.108082,-0.0635 z m 0.132506,-0.0547 c -0.106219,-0.18456 -0.186817,-0.37927 -0.156994,-0.37927 0.02652,0 0.283889,0.51295 0.266226,0.53062 -0.0077,0.008 -0.05688,-0.0604 -0.109232,-0.15135 z m 11.746111,0.0865 c -0.149327,-0.0459 -0.24071,-0.12024 -0.24071,-0.19583 0,-0.0425 0.06329,-0.0583 0.232833,-0.0583 0.180085,0 0.252974,0.0201 0.321733,0.0889 0.04889,0.0489 0.07271,0.1047 0.05292,0.124 -0.0609,0.0594 -0.241574,0.0797 -0.366773,0.0412 z m -11.644313,-0.10762 c -0.01452,-0.0378 -0.02519,-0.091 -0.02371,-0.11824 0.0015,-0.0272 0.02094,-0.004 0.04324,0.0519 0.02231,0.0558 0.03298,0.10898 0.02371,0.11824 -0.0093,0.009 -0.02872,-0.0141 -0.04324,-0.0519 z m 4.890954,-0.1042 c 0,-0.0582 0.0096,-0.082 0.02135,-0.0529 0.01174,0.0291 0.01174,0.0767 0,0.10583 -0.01174,0.0291 -0.02135,0.005 -0.02135,-0.0529 z m -4.824431,-0.14816 c 8.63e-4,-0.0699 0.01035,-0.0933 0.02108,-0.0521 0.01073,0.0412 0.01003,0.0983 -0.0016,0.127 -0.0116,0.0287 -0.02038,-0.005 -0.01951,-0.0749 z m -0.131911,0.0352 c -0.0018,-0.0272 -0.01431,-0.0844 -0.02771,-0.127 -0.02316,-0.0737 -0.02196,-0.0738 0.02416,-0.002 0.02669,0.0416 0.03916,0.0988 0.0277,0.127 -0.01503,0.037 -0.02175,0.0376 -0.02416,0.002 z m 5.000244,-0.20455 c 8.63e-4,-0.0699 0.01035,-0.0933 0.02108,-0.0521 0.01073,0.0412 0.01003,0.0983 -0.0016,0.127 -0.0116,0.0287 -0.02038,-0.005 -0.01951,-0.0749 z m -5.696856,-0.38263 c -0.04085,-0.10646 -0.0288,-0.13393 0.0211,-0.0481 0.02471,0.0425 0.03601,0.0862 0.02511,0.0971 -0.0109,0.0109 -0.0317,-0.0111 -0.04621,-0.049 z m 9.088604,-0.82419 c -0.771118,-0.11274 -1.414513,-0.45589 -1.742025,-0.92907 -0.08937,-0.12913 -0.174402,-0.26778 -0.188957,-0.30812 -0.01987,-0.0551 -0.05668,-0.0673 -0.147717,-0.0491 -0.06669,0.0133 -0.329352,-0.008 -0.583694,-0.0465 -0.254343,-0.0389 -0.529623,-0.0807 -0.611734,-0.0928 -0.12761,-0.0188 -0.157558,-0.007 -0.206204,0.0843 -0.05462,0.10206 -0.07162,0.10601 -0.422207,0.0982 -0.281908,-0.006 -0.413615,-0.0307 -0.576963,-0.10699 -0.181809,-0.0849 -0.271383,-0.0979 -0.635,-0.0921 -0.366345,0.006 -0.448694,-0.006 -0.611718,-0.0903 -0.225783,-0.11628 -0.248517,-0.16812 -0.127016,-0.28962 0.07893,-0.0789 0.127681,-0.0895 0.341803,-0.074 l 0.249746,0.0181 -0.303615,-0.15976 c -0.371333,-0.1954 -0.513036,-0.32927 -0.779163,-0.73608 -0.183712,-0.28083 -0.228752,-0.32279 -0.411652,-0.38354 -0.112953,-0.0375 -0.195887,-0.0777 -0.184297,-0.0893 0.01159,-0.0116 0.0903,0.002 0.174912,0.0297 0.08461,0.0279 0.161762,0.0428 0.171446,0.0332 0.0097,-0.01 -9.32e-4,-0.0823 -0.02359,-0.16126 -0.02313,-0.0806 -0.02516,-0.15969 -0.0046,-0.18021 0.04024,-0.0402 0.121996,0.0837 0.366047,0.55474 0.251933,0.48629 0.476456,0.70613 0.941696,0.92206 0.217823,0.1011 0.485293,0.2625 0.594378,0.35867 0.195827,0.17265 0.467629,0.33551 0.559937,0.33551 0.05666,0 -0.0966,-0.26699 -0.25192,-0.43887 l -0.109679,-0.12137 0.169333,0.0855 c 0.19376,0.0978 0.337099,0.24136 0.378987,0.37949 0.0292,0.0963 0.20429,0.1366 0.252744,0.0582 0.02464,-0.0399 -0.170691,-0.33264 -0.351312,-0.52658 -0.09422,-0.10117 -0.0982,-0.11455 -0.02635,-0.0888 0.117898,0.0422 0.225667,0.13898 0.361406,0.32442 0.09162,0.12517 0.121784,0.14439 0.14238,0.0907 0.03848,-0.10027 -0.04438,-0.36565 -0.14934,-0.47831 -0.05029,-0.054 -0.255406,-0.17334 -0.455811,-0.26524 -0.200405,-0.0919 -0.437534,-0.23742 -0.526953,-0.32337 -0.148322,-0.14257 -0.462531,-0.69988 -0.637053,-1.12994 l -0.06872,-0.16933 0.08638,0.10583 c 0.04751,0.0582 0.211378,0.29299 0.364154,0.52174 0.377967,0.56592 0.486593,0.68075 0.836263,0.88403 0.352941,0.20519 0.592831,0.41919 0.664884,0.59314 0.0401,0.0968 0.07107,0.11898 0.140232,0.10041 0.04882,-0.0131 0.30222,-0.0241 0.563102,-0.0244 l 0.474332,-5.8e-4 0.02225,-0.13758 c 0.01224,-0.0757 0.0713,-0.46143 0.131256,-0.85725 0.148852,-0.9827 0.179183,-1.10136 0.183956,-0.71967 0.0074,0.59537 -0.08592,1.4187 -0.192328,1.69598 -0.01547,0.0403 0.005,0.0609 0.06066,0.0609 0.04621,0 0.105661,0.0261 0.132121,0.058 0.08108,0.0977 -0.306842,0.12008 -0.846237,0.0488 -0.632485,-0.0836 -0.622839,-0.084 -0.600917,0.0308 0.0179,0.0938 0.02799,0.0953 0.660879,0.0953 0.353485,0 0.725457,0.0134 0.826604,0.0299 0.197231,0.032 0.316891,0.10378 0.278015,0.16668 -0.04657,0.0754 0.200593,0.41932 0.420778,0.58556 0.501,0.37826 1.01091,0.53104 1.763136,0.52826 0.803653,-0.003 1.391503,-0.19671 1.799237,-0.59298 0.460282,-0.44734 0.471583,-0.86018 0.03641,-1.33021 -0.298017,-0.3219 -0.839298,-0.61247 -1.073479,-0.57628 -0.104634,0.0162 -0.123393,0.0122 -0.06367,-0.0136 0.07996,-0.0345 0.07875,-0.038 -0.02166,-0.0646 -0.06319,-0.0167 -0.172381,-4.7e-4 -0.26916,0.04 -0.08956,0.0374 -0.171272,0.0596 -0.181585,0.0493 -0.01031,-0.0103 0.04413,-0.0433 0.120992,-0.0734 l 0.139744,-0.0546 -0.116942,-0.0166 c -0.107972,-0.0153 -0.581558,0.16377 -0.581558,0.21994 0,0.0131 0.08096,0.0217 0.179917,0.019 0.556603,-0.015 1.386738,0.29174 1.674523,0.61868 0.20967,0.2382 0.245154,0.39679 0.140618,0.62845 -0.141812,0.31427 -0.480263,0.54272 -1.026481,0.69286 -0.385126,0.10586 -1.430708,0.10361 -1.815244,-0.004 -0.610602,-0.17073 -1.004111,-0.44791 -1.102094,-0.77628 -0.10826,-0.36282 0.102466,-0.73829 0.526108,-0.93743 0.236109,-0.11098 0.718663,-0.23261 0.885533,-0.22319 0.06548,0.004 0.141664,-0.007 0.169308,-0.0243 0.02764,-0.0171 0.100809,-0.0258 0.162589,-0.0193 0.0623,0.007 0.222584,-0.045 0.359859,-0.11567 l 0.247531,-0.12746 -0.550334,0.0128 c -0.466071,0.0108 -0.602186,0.0304 -0.889,0.12788 -0.667654,0.22687 -1.029699,0.55221 -1.118927,1.00552 l -0.03596,0.1827 -0.0042,-0.16934 c -0.0088,-0.35261 0.359227,-0.855 0.785708,-1.07257 0.880787,-0.44935 2.102773,-0.42661 3.061574,0.057 0.392551,0.19798 0.649548,0.44077 0.808647,0.76395 0.118247,0.24019 0.131729,0.30278 0.112025,0.52007 -0.02665,0.29387 -0.105078,0.45815 -0.342179,0.71673 -0.532518,0.58077 -1.561211,0.87431 -2.554825,0.72903 z m 0.847774,-0.96276 c 0.484663,-0.25136 0.385757,-0.2884 -0.205655,-0.077 -0.229604,0.0821 -0.424394,0.14227 -0.432866,0.1338 -0.02598,-0.026 0.719804,-0.28621 0.888662,-0.31007 0.095,-0.0134 0.15875,-0.005 0.15875,0.0211 0,0.0485 -0.322037,0.26475 -0.550333,0.36956 -0.1469,0.0675 -0.145091,0.0678 0.211667,0.0469 0.947979,-0.0558 1.549569,-0.55979 1.193318,-0.99974 l -0.07775,-0.096 -0.983766,0.32791 c -0.541071,0.18035 -0.992909,0.31876 -1.004084,0.30759 -0.02156,-0.0216 0.946224,-0.36889 1.568303,-0.56284 0.241802,-0.0754 0.350729,-0.12727 0.312329,-0.14876 -0.08713,-0.0488 -0.713572,-0.20823 -0.81799,-0.20823 -0.0703,0 -1.376829,0.41285 -1.820189,0.57516 -0.04657,0.0171 -0.07153,0.0164 -0.05547,-0.001 0.01606,-0.0178 0.404696,-0.16088 0.863646,-0.3179 l 0.834455,-0.2855 -0.355647,-0.0285 c -0.40957,-0.0328 -1.142106,0.0324 -1.429067,0.12715 -0.260676,0.0861 -0.641079,0.31547 -0.641079,0.38655 0,0.31822 0.591876,0.73018 1.252588,0.87183 0.517622,0.11096 0.654593,0.0945 1.090187,-0.13146 z m -1.792442,-0.56092 c 0.03493,-0.0226 0.08255,-0.041 0.105833,-0.041 0.02328,0 0.01376,0.0185 -0.02117,0.041 -0.03492,0.0226 -0.08255,0.041 -0.105834,0.041 -0.02328,0 -0.01376,-0.0185 0.02117,-0.041 z m -4.100439,-0.21307 c -0.105151,-0.0876 -0.411065,-0.11039 -0.577394,-0.043 -0.07222,0.0292 -0.06288,0.0381 0.0635,0.0599 0.19028,0.0329 0.374426,0.0552 0.508,0.0614 l 0.105833,0.005 z m -1.313461,-0.62301 c -0.213113,-0.24251 -0.454911,-0.63288 -0.416066,-0.67173 0.01124,-0.0112 0.08246,0.0805 0.158276,0.20394 0.07581,0.12341 0.222025,0.33391 0.324909,0.46779 0.102885,0.13388 0.178003,0.24342 0.166929,0.24342 -0.01107,0 -0.116395,-0.10954 -0.234048,-0.24342 z m 0.135406,-0.0637 c -0.139837,-0.14563 -0.286221,-0.3266 -0.325298,-0.40217 -0.09698,-0.18754 -0.05554,-0.17359 0.06345,0.0214 0.05329,0.0873 0.200622,0.26829 0.327397,0.40217 0.126775,0.13388 0.221095,0.24341 0.2096,0.24341 -0.0115,0 -0.135313,-0.11915 -0.275149,-0.26477 z m -4.303583,-0.27498 c -0.03317,-0.35123 -0.0274,-1.00314 0.01041,-1.17475 0.01539,-0.0699 0.02888,0.23019 0.02999,0.66675 0.0011,0.43657 -0.0015,0.79375 -0.0057,0.79375 -0.0042,0 -0.01985,-0.12858 -0.0347,-0.28575 z m 0.190762,0.15875 c 0,-0.0582 0.0096,-0.082 0.02135,-0.0529 0.01174,0.0291 0.01174,0.0767 0,0.10583 -0.01174,0.0291 -0.02135,0.005 -0.02135,-0.0529 z m -1.700018,-0.28427 c -0.664491,-0.52355 -1.172334,-1.12125 -1.251184,-1.47256 -0.02165,-0.0964 0.01086,-0.0639 0.13509,0.13535 0.236229,0.37883 0.693051,0.89542 1.12323,1.2702 0.337035,0.29362 0.397619,0.35214 0.363281,0.3509 -0.0058,-2.1e-4 -0.172508,-0.12796 -0.370417,-0.28389 z m 1.345228,0.0197 c -0.01171,-0.12224 -0.0074,-0.3175 0.0096,-0.43392 0.02571,-0.17629 0.03182,-0.13914 0.03653,0.22225 0.0031,0.23866 -0.0012,0.43392 -0.0096,0.43392 -0.0084,0 -0.02482,-0.10001 -0.03653,-0.22225 z m 10.465772,0.16173 c 0,-0.0116 0.0381,-0.0416 0.08467,-0.0665 0.04657,-0.0249 0.08467,-0.0358 0.08467,-0.0242 0,0.0117 -0.0381,0.0416 -0.08467,0.0665 -0.04657,0.0249 -0.08467,0.0358 -0.08467,0.0241 z m -6.55479,-0.13179 c -0.07093,-0.15568 -0.0574,-0.18889 0.0193,-0.0474 0.03581,0.0661 0.0572,0.12808 0.04752,0.13776 -0.0097,0.01 -0.03975,-0.031 -0.06681,-0.0904 z m -3.429711,-0.42152 c -0.01423,-1.23033 0.257368,-2.7048 0.652449,-3.54205 0.129564,-0.27457 0.116321,-0.2036 -0.08393,0.44978 -0.277021,0.90386 -0.446062,1.89398 -0.527932,3.09227 l -0.03471,0.508 z m 10.426509,0.42566 c 0.04519,-0.0362 0.100758,-0.0658 0.123472,-0.0658 0.05379,0 0.02977,0.0196 -0.09981,0.0813 -0.09979,0.0475 -0.101142,0.0466 -0.02366,-0.0154 z m -10.577488,-0.63733 c 0.0092,-0.37253 0.03542,-0.75353 0.05826,-0.84667 0.03652,-0.14889 0.03849,-0.13867 0.01629,0.0847 -0.01388,0.1397 -0.0401,0.5207 -0.05826,0.84667 l -0.03302,0.59266 z m 7.606869,-0.26217 c 0.04119,-0.0107 0.09834,-0.01 0.127,0.002 0.02866,0.0116 -0.005,0.0204 -0.07489,0.0195 -0.06985,-8.7e-4 -0.0933,-0.0104 -0.05211,-0.0211 z m -0.595952,-0.12056 c -0.292406,-0.0996 -0.812437,-0.34012 -0.812437,-0.37575 0,-0.009 0.18885,0.0667 0.419667,0.16826 0.230817,0.10159 0.521329,0.2123 0.645583,0.24603 0.124254,0.0337 0.187817,0.0626 0.14125,0.0641 -0.04657,0.002 -0.223895,-0.0447 -0.394063,-0.10263 z m 0.807618,0.0359 c 0.04119,-0.0107 0.09834,-0.01 0.127,0.002 0.02866,0.0116 -0.005,0.0204 -0.07489,0.0195 -0.06985,-8.6e-4 -0.0933,-0.0104 -0.05211,-0.0211 z m -10.330695,-0.17165 c -0.126957,-0.16242 -0.301139,-0.42968 -0.255212,-0.39159 0.04516,0.0375 0.414977,0.55034 0.396823,0.55034 -0.0096,0 -0.07336,-0.0714 -0.141611,-0.15875 z m 10.054724,0.13071 c 0.0291,-0.0117 0.07673,-0.0117 0.105834,0 0.0291,0.0117 0.0053,0.0214 -0.05292,0.0214 -0.05821,0 -0.08202,-0.01 -0.05292,-0.0214 z m -0.511567,-0.1217 c -0.331825,-0.11596 -0.846456,-0.36653 -1.001849,-0.48778 -0.05821,-0.0454 0.08258,0.0156 0.312866,0.13569 0.230284,0.12005 0.582709,0.27182 0.783166,0.33726 0.200457,0.0654 0.326368,0.11831 0.279801,0.11746 -0.04657,-8.4e-4 -0.21486,-0.047 -0.373984,-0.10263 z m 0.787539,-0.007 c 0.04119,-0.0107 0.09834,-0.01 0.127,0.002 0.02866,0.0116 -0.005,0.0204 -0.07489,0.0195 -0.06985,-8.7e-4 -0.0933,-0.0104 -0.05211,-0.0211 z m -0.625222,-0.0949 c -0.344223,-0.0879 -0.458111,-0.1312 -0.804333,-0.3061 -0.239299,-0.12089 -0.910167,-0.5768 -0.910167,-0.61854 0,-0.0106 0.04286,0.009 0.09525,0.0432 0.904909,0.59276 1.262161,0.76203 1.894417,0.89761 0.153884,0.033 0.21919,0.0591 0.148167,0.0593 -0.06985,1.3e-4 -0.26035,-0.0338 -0.423334,-0.0754 z m -9.716876,-0.23786 c -0.05112,-0.0827 -0.08258,-0.16077 -0.06991,-0.17344 0.01267,-0.0127 0.06286,0.055 0.111522,0.15039 0.108801,0.21327 0.08432,0.22682 -0.04162,0.0231 z m 11.060177,-0.20227 c -0.223626,-0.12417 -0.423262,-0.57546 -0.462966,-1.04655 -0.0596,-0.70713 0.354962,-1.19111 0.741591,-0.86578 0.181776,0.15295 0.269212,0.40755 0.294044,0.85618 0.02744,0.49574 -0.09048,0.92666 -0.285015,1.04158 -0.141506,0.0836 -0.161533,0.0846 -0.287654,0.0146 z m 0.485981,-0.90276 c -0.02284,-0.38955 -0.169703,-0.77736 -0.326069,-0.86104 -0.05076,-0.0272 -0.100438,-0.0413 -0.110387,-0.0313 -0.0099,0.01 0.03069,0.12839 0.09031,0.2632 0.117688,0.26612 0.271303,0.85539 0.276082,1.05907 l 0.003,0.127 0.04367,-0.10583 c 0.02426,-0.0588 0.03467,-0.25928 0.02342,-0.45109 z m -8.913431,0.83209 c 0,-0.0582 0.0096,-0.082 0.02135,-0.0529 0.01174,0.0291 0.01174,0.0767 0,0.10583 -0.01174,0.0291 -0.02135,0.005 -0.02135,-0.0529 z m -1.8376,-0.95554 c -0.01746,-0.0177 -0.03172,-0.11003 -0.03169,-0.2051 1.27e-4,-0.34737 0.245756,-0.62618 0.471858,-0.53562 0.09342,0.0374 0.09107,0.0401 -0.03801,0.0426 -0.240053,0.005 -0.300921,0.11161 -0.359267,0.63112 -0.0061,0.0546 -0.02544,0.0848 -0.0429,0.067 z m 11.906249,-0.58641 c 0,-0.2549 -0.0082,-0.27812 -0.131536,-0.37042 -0.07234,-0.0542 -0.198807,-0.16111 -0.281027,-0.23768 -0.149348,-0.13907 -0.14946,-0.13946 -0.117014,-0.40216 0.06104,-0.49419 0.04396,-0.53416 -0.295923,-0.69262 l -0.211667,-0.0987 0.17906,-4.2e-4 c 0.476125,-0.001 0.666942,0.22744 0.543742,0.65123 -0.102161,0.35142 -0.09257,0.38485 0.164917,0.57507 0.127353,0.0941 0.251178,0.20773 0.275167,0.25256 0.05631,0.10521 0.05618,0.4078 -2.12e-4,0.51317 -0.08095,0.15128 -0.125507,0.0838 -0.125507,-0.19005 z m -4.656666,-0.006 c 0,-0.18254 -0.219826,-0.57314 -0.478665,-0.85052 -0.390279,-0.41822 -0.689079,-0.51566 -1.153049,-0.37603 -0.11321,0.0341 -0.214027,0.0538 -0.224039,0.0437 -0.01001,-0.01 0.04911,-0.0855 0.131375,-0.16778 0.170863,-0.17086 0.356046,-0.19545 0.661187,-0.0878 0.530217,0.18707 0.886649,0.62194 1.218435,1.48656 0.01552,0.0405 -0.0062,0.0603 -0.06605,0.0603 -0.06751,0 -0.0892,-0.0264 -0.0892,-0.1085 z m -5.430576,-0.55252 c -0.04999,-0.05 -0.03467,-0.22052 0.03472,-0.3866 0.0754,-0.18046 0.127097,-0.22186 0.273525,-0.21905 0.101554,0.002 0.102165,0.004 0.01511,0.0386 -0.119709,0.0483 -0.226052,0.20469 -0.229756,0.33786 -0.0039,0.14125 -0.05542,0.26732 -0.0936,0.22914 z m 3.293742,-0.23116 c -0.270994,-0.36812 -0.443365,-0.74078 -0.468634,-1.01319 -0.02137,-0.2304 -0.02099,-0.23133 0.04283,-0.10546 0.03541,0.0699 0.123337,0.29331 0.195383,0.49658 0.07205,0.20327 0.205113,0.48425 0.295703,0.62441 0.09059,0.14017 0.155561,0.25484 0.144379,0.25484 -0.01118,0 -0.105527,-0.11573 -0.209656,-0.25718 z m -0.439732,-0.45846 c -0.124812,-0.29013 -0.109557,-0.33205 0.01834,-0.0504 0.05714,0.12584 0.09674,0.23596 0.08799,0.2447 -0.0087,0.009 -0.05659,-0.0787 -0.106331,-0.19432 z m -1.411954,-0.18223 c -0.03316,-0.19094 0.02397,-0.41588 0.139335,-0.54866 l 0.08571,-0.0986 -0.06856,0.14121 c -0.03771,0.0777 -0.0822,0.25864 -0.09889,0.40216 -0.0288,0.2478 -0.0317,0.25304 -0.0576,0.10392 z m 5.393934,-1.44109 c 0.01818,-0.21534 0.05207,-0.43478 0.0753,-0.48764 0.04871,-0.11082 0.229845,-0.19274 0.345206,-0.15612 0.187893,0.0596 0.01565,0.57712 -0.292118,0.87765 l -0.161455,0.15765 z m 1.092252,-0.0889 c 0,-0.36749 0.06111,-0.57155 0.185217,-0.61847 0.315261,-0.11919 0.316404,0.37735 0.0018,0.78979 -0.05867,0.0769 -0.124759,0.13987 -0.146858,0.13987 -0.0221,0 -0.04018,-0.14004 -0.04018,-0.31119 z m -2.074333,-0.38638 c 0,-0.0799 0.118515,-0.23392 0.261321,-0.3396 0.09439,-0.0699 0.247086,-0.2376 0.339325,-0.37277 0.19428,-0.28472 0.340669,-0.37623 0.441132,-0.27576 0.09087,0.0909 0.03942,0.3291 -0.118034,0.54645 -0.08776,0.12115 -0.203197,0.2082 -0.386833,0.29169 -0.242106,0.11008 -0.536911,0.19243 -0.536911,0.14999 z m 0.571569,-0.32417 c 0.172698,-0.15163 0.293734,-0.31355 0.335896,-0.44935 0.05987,-0.19283 -0.09215,-0.0944 -0.313156,0.20285 -0.121916,0.16395 -0.26741,0.32807 -0.323321,0.3647 -0.05591,0.0366 -0.101655,0.084 -0.101655,0.10516 0,0.056 0.228804,-0.0711 0.402236,-0.22336 z m 1.884585,-0.55185 c -0.07602,-0.14735 -0.157269,-0.29173 -0.180541,-0.32083 -0.06934,-0.0867 -0.189364,-0.0608 -0.342979,0.0741 -0.179041,0.1572 -0.344419,0.17469 -0.300222,0.0317 0.116184,-0.37575 0.332251,-0.62441 0.542574,-0.62441 0.282732,0 0.49278,0.33688 0.491366,0.78807 -0.0011,0.33974 -0.05465,0.35282 -0.210198,0.0513 z m -0.562556,-0.35258 c 0.158001,-0.17846 0.281836,-0.18882 0.440478,-0.0368 0.09473,0.0908 0.112343,0.0966 0.0953,0.0317 -0.04164,-0.15848 -0.169924,-0.28067 -0.294664,-0.28067 -0.09002,0 -0.163455,0.047 -0.281576,0.18007 -0.08789,0.099 -0.159798,0.19667 -0.159798,0.21696 0,0.0737 0.07185,0.0338 0.200265,-0.11128 z m -4.921486,-0.53887 c -0.133809,-0.2979 -0.233276,-0.60486 -0.228803,-0.70611 0.0022,-0.0499 0.01238,-0.0455 0.03936,0.0173 l 0.03638,0.0847 0.005,-0.0847 c 0.0047,-0.0787 0.164244,0.2898 0.229127,0.52917 0.02128,0.0785 0.0069,0.0676 -0.05566,-0.0423 -0.115543,-0.20297 -0.108582,-0.1339 0.01787,0.1773 0.139862,0.3442 0.108286,0.36218 -0.04332,0.0247 z m -0.113725,0.0205 c -0.0925,-0.20911 -0.209886,-0.61041 -0.185643,-0.63465 0.0077,-0.008 0.08001,0.17717 0.16073,0.41078 0.08073,0.23361 0.139345,0.42474 0.130269,0.42474 -0.0091,0 -0.05649,-0.0904 -0.105356,-0.20087 z m -0.09166,0.009 c -0.04085,-0.10645 -0.0288,-0.13392 0.0211,-0.0481 0.02471,0.0425 0.03601,0.0862 0.02511,0.0971 -0.0109,0.0109 -0.0317,-0.0111 -0.04621,-0.049 z m 0.314318,-0.31716 c -0.07333,-0.19014 -0.126452,-0.36632 -0.118057,-0.39151 0.0084,-0.0252 0.07468,0.1241 0.147291,0.33175 0.07261,0.20764 0.125741,0.38381 0.118057,0.3915 -0.0077,0.008 -0.07396,-0.1416 -0.147291,-0.33174 z m 3.723285,0.086 c 0.03492,-0.0226 0.08255,-0.041 0.105834,-0.041 0.02328,0 0.01376,0.0185 -0.02117,0.041 -0.03493,0.0226 -0.08255,0.041 -0.105833,0.041 -0.02328,0 -0.01376,-0.0185 0.02117,-0.041 z m 4.097578,-0.26898 c 0.270613,-0.28731 0.389755,-0.46241 0.389755,-0.5728 0,-0.0176 -0.07753,-0.13539 -0.17228,-0.26183 -0.14186,-0.1893 -0.169751,-0.25733 -0.157951,-0.3853 0.01248,-0.13534 -0.0022,-0.16493 -0.113469,-0.22924 -0.801274,-0.46299 -1.213888,-1.4344 -0.95821,-2.2559 0.113406,-0.36437 0.259684,-0.59269 0.554749,-0.86587 0.768495,-0.71149 1.989888,-0.86861 2.984995,-0.38399 0.925483,0.45071 1.389709,1.41239 1.141606,2.36493 -0.2637,1.01241 -1.292237,1.69182 -2.45034,1.6186 -0.21153,-0.0134 -0.478961,-0.0534 -0.594291,-0.0889 -0.11533,-0.0355 -0.215134,-0.0592 -0.221785,-0.0525 -0.0067,0.007 0.02843,0.108 0.07795,0.22523 0.130141,0.30803 0.08842,0.47349 -0.185208,0.73448 -0.118868,0.11337 -0.303456,0.26796 -0.410197,0.34352 -0.179941,0.12738 -0.171592,0.11352 0.114672,-0.19041 z m 2.050681,-1.29124 c 0.373398,-0.10354 0.709622,-0.31081 0.985203,-0.60735 1.200993,-1.29234 0.171422,-3.12208 -1.757129,-3.12274 -0.916066,-3.2e-4 -1.738627,0.47471 -2.104732,1.21547 -0.145652,0.29471 -0.156883,0.34438 -0.154411,0.68291 0.0032,0.44034 0.101976,0.73009 0.375482,1.10162 0.225763,0.30668 0.615852,0.61177 0.799077,0.62496 0.07265,0.005 0.255909,0.0473 0.407251,0.0936 0.374996,0.11457 1.058115,0.12002 1.449259,0.0115 z m -1.528847,-0.43375 c -0.06794,-0.0729 -0.07519,-0.10833 -0.03863,-0.18858 0.05422,-0.11899 0.109125,-0.14388 0.255636,-0.11587 0.143165,0.0274 0.180875,0.12965 0.08632,0.23413 -0.136391,0.15071 -0.212089,0.16826 -0.303332,0.0703 z m 0.206588,-0.67001 c 0,-0.21976 0.120564,-0.28279 0.740833,-0.38727 0.615725,-0.10371 0.994834,-0.34284 0.994834,-0.62752 0,-0.40337 -0.751601,-0.65921 -1.259417,-0.42871 -0.161982,0.0735 -0.179917,0.0965 -0.179917,0.23026 0,0.0987 0.032,0.17943 0.09525,0.2404 l 0.09525,0.0918 -0.127,-0.0285 c -0.191505,-0.0429 -0.275166,-0.16926 -0.275166,-0.41553 0,-0.1886 0.01755,-0.2295 0.15926,-0.37121 0.357397,-0.3574 1.108934,-0.30468 1.485857,0.10424 0.270336,0.29328 0.284133,0.61531 0.03836,0.89524 -0.187283,0.2133 -0.422437,0.33388 -0.900307,0.46163 -0.232833,0.0622 -0.510726,0.1685 -0.617539,0.23614 -0.106814,0.0676 -0.206826,0.12297 -0.22225,0.12297 -0.01542,0 -0.02804,-0.0558 -0.02804,-0.12398 z m -4.70933,1.22464 c -0.01732,-0.19791 -0.0304,-0.44556 -0.02907,-0.55033 0.0021,-0.16641 0.0076,-0.17753 0.04344,-0.0879 0.02255,0.0564 0.03563,0.30408 0.02907,0.55033 l -0.01194,0.44773 z m -0.790661,0.22931 c 0.002,-0.0493 0.01206,-0.0593 0.02558,-0.0256 0.01223,0.0306 0.01072,0.0671 -0.0033,0.0811 -0.01407,0.0141 -0.02407,-0.0109 -0.02223,-0.0556 z m 0.956993,-0.36689 c -0.01436,-0.21537 -0.0388,-0.45826 -0.05432,-0.53975 -0.02314,-0.12151 -0.01818,-0.13876 0.02755,-0.0959 0.03747,0.0351 0.06189,0.21219 0.07443,0.53975 0.01026,0.2681 0.0096,0.48746 -0.0014,0.48746 -0.01106,0 -0.03185,-0.17621 -0.04621,-0.39158 z m 0.465452,-0.0182 c -0.118422,-0.40472 -0.125112,-0.57644 -0.0119,-0.3055 0.06102,0.14604 0.169449,0.67006 0.14393,0.69558 -0.0076,0.008 -0.06702,-0.16793 -0.132027,-0.39008 z m -0.277572,0.28278 c -0.0059,-0.0582 -0.03443,-0.27252 -0.06331,-0.47625 -0.02889,-0.20373 -0.03851,-0.37041 -0.02138,-0.37041 0.05565,0 0.12666,0.45174 0.110873,0.70534 -0.0085,0.13593 -0.02024,0.19953 -0.02618,0.14132 z m 0.506127,-0.0247 c 0.002,-0.0493 0.01206,-0.0593 0.02558,-0.0256 0.01223,0.0306 0.01072,0.0671 -0.0033,0.0811 -0.01407,0.0141 -0.02407,-0.0109 -0.02223,-0.0556 z m -0.395971,-0.37247 c -0.08757,-0.42544 -0.08931,-0.53128 -0.0049,-0.30134 0.05992,0.16333 0.131758,0.65617 0.09564,0.65617 -0.0097,0 -0.05053,-0.15967 -0.0907,-0.35483 z"
       id="path854" />
  </g>
</svg>
