<?xml version="1.0" encoding="UTF-8" standalone="no"?>
<!-- Created with Inkscape (http://www.inkscape.org/) -->

<svg
   width="34.721638mm"
   height="28.278545mm"
   viewBox="0 0 34.721638 28.278545"
   version="1.1"
   id="svg2313"
   inkscape:version="1.1.2 (b8e25be833, 2022-02-05)"
   sodipodi:docname="empty_couch.svg"
   xmlns:inkscape="http://www.inkscape.org/namespaces/inkscape"
   xmlns:sodipodi="http://sodipodi.sourceforge.net/DTD/sodipodi-0.dtd"
   xmlns="http://www.w3.org/2000/svg"
   xmlns:svg="http://www.w3.org/2000/svg">
  <sodipodi:namedview
     id="namedview2315"
     pagecolor="#ffffff"
     bordercolor="#666666"
     borderopacity="1.0"
     inkscape:pageshadow="2"
     inkscape:pageopacity="0.0"
     inkscape:pagecheckerboard="0"
     inkscape:document-units="mm"
     showgrid="false"
     fit-margin-left="1"
     fit-margin-top="1"
     fit-margin-bottom="1"
     fit-margin-right="1"
     inkscape:zoom="5.9223906"
     inkscape:cx="71.508286"
     inkscape:cy="60.448563"
     inkscape:window-width="1920"
     inkscape:window-height="1017"
     inkscape:window-x="-8"
     inkscape:window-y="-8"
     inkscape:window-maximized="1"
     inkscape:current-layer="layer1" />
  <defs
     id="defs2310" />
  <g
     inkscape:label="Layer 1"
     inkscape:groupmode="layer"
     id="layer1"
     transform="translate(-16.676473,-128.74114)">
    <path
       style="fill:#292929;stroke-width:0.0423333"
       d="m 19.765098,155.9804 c 0.01936,-0.0466 0.0787,-0.17992 0.131868,-0.29633 0.174513,-0.38215 0.851481,-2.46626 0.851481,-2.62137 0,-0.0135 -0.24765,-0.0245 -0.550333,-0.0245 h -0.550333 v 0.10277 c 0,0.0565 0.01764,0.24226 0.0392,0.41275 0.02156,0.17049 0.0483,0.75766 0.05941,1.30482 l 0.02021,0.99483 -0.100041,-0.48683 c -0.174047,-0.84697 -0.247096,-1.55529 -0.199344,-1.93293 0.02308,-0.18255 0.03452,-0.34037 0.02543,-0.35072 -0.0091,-0.0103 -0.12968,0.005 -0.267955,0.0331 -0.25824,0.0533 -0.900322,0.007 -1.055924,-0.0764 -0.100263,-0.0537 -0.161672,-0.41389 -0.234781,-1.37725 -0.188988,-2.49033 -0.306142,-5.4874 -0.237897,-6.08596 0.04188,-0.36731 0.157616,-0.5696 0.396582,-0.69318 0.202487,-0.10471 0.99401,-0.37938 1.269358,-0.44048 0.133879,-0.0297 0.243416,-0.0699 0.243416,-0.0893 0,-0.0194 -0.08303,-0.22119 -0.184519,-0.44835 -0.101486,-0.22716 -0.234876,-0.56541 -0.296423,-0.75168 -0.06155,-0.18627 -0.180922,-0.45297 -0.265278,-0.59267 -0.08436,-0.1397 -0.162801,-0.32376 -0.174321,-0.40903 -0.01884,-0.13949 -0.0079,-0.16179 0.10903,-0.22225 0.170006,-0.0879 0.282239,-0.0848 0.606656,0.0169 0.338124,0.10599 0.393619,0.1057 0.872676,-0.005 l 0.392654,-0.0904 -0.108824,-0.17445 c -0.294058,-0.47139 -0.379848,-0.86596 -0.245025,-1.12695 0.122826,-0.23777 0.338151,-0.22934 0.673108,0.0263 0.185963,0.14195 0.217203,0.15168 0.419799,0.13077 0.120387,-0.0124 0.390587,-0.0647 0.600446,-0.11617 l 0.38156,-0.0936 -0.03991,-0.18712 c -0.03096,-0.14515 -0.02006,-0.28402 0.04858,-0.61926 0.141897,-0.69299 0.126314,-0.86408 -0.123578,-1.35672 -0.287558,-0.56689 -0.280119,-0.81503 0.02943,-0.98173 l 0.149682,-0.0806 0.120133,0.13445 c 0.135568,0.15173 0.232609,0.43894 0.300131,0.88828 0.04498,0.29931 0.04785,0.3045 0.135058,0.24342 0.04901,-0.0343 0.135119,-0.0624 0.191362,-0.0624 0.101699,0 0.102056,-0.002 0.06506,-0.28575 -0.02046,-0.15717 -0.03738,-0.45109 -0.0376,-0.65317 -3.39e-4,-0.30742 0.01412,-0.38692 0.08846,-0.48683 0.128214,-0.17232 0.326861,-0.18329 0.492934,-0.0272 0.270476,0.25417 0.316109,0.64401 0.139769,1.19405 -0.03154,0.0984 -0.02987,0.0992 0.06638,0.0318 0.124506,-0.0872 0.455595,-0.0902 0.657266,-0.006 0.178351,0.0745 0.849131,0.0627 1.052463,-0.0186 0.201741,-0.0806 0.518095,-0.12943 0.657774,-0.1015 0.167967,0.0336 0.373521,0.22856 0.404551,0.38371 0.01354,0.0677 0.06104,0.14582 0.105561,0.17362 0.07409,0.0463 0.08095,0.0376 0.08095,-0.1022 0,-0.116 0.03311,-0.18577 0.137583,-0.28989 0.07567,-0.0754 0.16259,-0.14535 0.193153,-0.1554 0.04342,-0.0143 0.03703,-0.0615 -0.02922,-0.21608 -0.07309,-0.17053 -0.10586,-0.20176 -0.237563,-0.22647 -0.152837,-0.0287 -0.27562,-0.11474 -0.27562,-0.19321 0,-0.0229 0.04234,-0.0121 0.09409,0.0242 0.05175,0.0362 0.125379,0.0659 0.163625,0.0659 0.121255,0 0.275702,0.15759 0.329093,0.33579 0.02838,0.0947 0.07777,0.17221 0.109753,0.17221 0.114267,0 -0.108574,-0.42477 -0.283807,-0.54098 -0.08731,-0.0579 -0.15875,-0.1214 -0.15875,-0.14111 0,-0.0197 0.08549,0.0244 0.189968,0.0981 0.131251,0.0925 0.211466,0.19019 0.259522,0.31602 0.08805,0.23055 0.116048,0.25093 0.386593,0.28135 0.193245,0.0217 0.22225,0.0153 0.22225,-0.0494 0,-0.12331 0.21462,-0.5143 0.320328,-0.58356 0.122856,-0.0805 0.25645,-0.0427 0.287072,0.0813 0.03942,0.15961 0.04247,0.64926 0.0044,0.71082 -0.01985,0.0321 0.06296,-0.0251 0.184036,-0.12722 0.121075,-0.10209 0.220136,-0.19804 0.220136,-0.21323 0,-0.0152 0.02797,-0.0646 0.06215,-0.10979 0.06138,-0.0811 0.06217,-0.0812 0.0635,-2.6e-4 7.75e-4,0.0472 -0.110015,0.18499 -0.261243,0.32493 l -0.26259,0.24299 0.10384,0.0864 c 0.115279,0.0959 0.167339,0.11057 0.167339,0.047 0,-0.0232 0.06429,-0.1137 0.14286,-0.20108 0.07857,-0.0874 0.18511,-0.22555 0.236749,-0.30704 l 0.09389,-0.14817 -0.0284,0.12642 c -0.01562,0.0695 -0.122156,0.22555 -0.236749,0.34672 -0.114593,0.12116 -0.208351,0.2389 -0.208351,0.26164 0,0.11364 0.127179,0.0535 0.321634,-0.15216 0.198754,-0.21018 0.229529,-0.22755 0.381204,-0.21513 0.150891,0.0124 0.166107,0.025 0.177995,0.14752 0.01495,0.15409 -0.177522,0.56719 -0.365698,0.78491 -0.112154,0.12976 -0.119177,0.15896 -0.101434,0.42176 0.01741,0.25795 0.02811,0.28462 0.123826,0.30864 0.05762,0.0145 0.154897,0.0764 0.216169,0.1377 0.06127,0.0613 0.159644,0.13658 0.218604,0.16735 l 0.1072,0.0559 -0.105833,2.1e-4 c -0.06125,1.2e-4 -0.175944,-0.0622 -0.272273,-0.14791 -0.09154,-0.0815 -0.205842,-0.14663 -0.254,-0.14479 -0.06069,0.002 -0.06807,0.0104 -0.02406,0.0262 0.03493,0.0126 0.144187,0.10051 0.242805,0.19537 0.09862,0.0949 0.231967,0.19581 0.296333,0.22432 l 0.117028,0.0519 -0.121689,0.003 c -0.09282,0.003 -0.170347,-0.0468 -0.32678,-0.20823 -0.112799,-0.11642 -0.213736,-0.21167 -0.224303,-0.21167 -0.08418,0 -0.434838,0.45167 -0.387449,0.49906 0.01144,0.0114 0.521364,0.0268 1.133174,0.0341 0.611809,0.007 1.283831,0.0339 1.493381,0.0589 1.66658,0.19922 2.81375,0.10533 4.624509,-0.3785 0.345426,-0.0923 0.503341,-0.11669 0.576168,-0.089 0.130189,0.0495 0.239156,0.32229 0.239156,0.59871 0,0.11748 0.01998,0.25094 0.04441,0.29658 0.02443,0.0456 0.0525,0.14614 0.06238,0.22333 0.0099,0.0772 0.03632,0.18624 0.05874,0.24232 0.03829,0.0958 0.04114,0.0929 0.04691,-0.0462 0.01043,-0.25158 0.207663,0.6523 0.238704,1.09392 l 0.02779,0.39543 0.208762,-0.60709 c 0.114819,-0.3339 0.219162,-0.69282 0.231873,-0.7976 0.01505,-0.12404 0.03249,-0.16439 0.05001,-0.11565 0.01883,0.0524 0.09705,-0.0814 0.260987,-0.44655 l 0.234092,-0.5214 -0.107914,-0.009 c -0.05935,-0.005 -0.193639,-0.0356 -0.298414,-0.0683 -0.104775,-0.0327 -0.219075,-0.06 -0.254,-0.0607 -0.03493,-6.6e-4 -0.168275,-0.0128 -0.296333,-0.0271 -0.313644,-0.0349 -0.340399,-0.0101 -0.289752,0.2686 0.02264,0.12458 0.03137,0.23629 0.01941,0.24826 -0.01197,0.012 -0.03526,-0.08 -0.05175,-0.20431 -0.02242,-0.16903 -0.03823,-0.20499 -0.06264,-0.14253 -0.0503,0.12872 -0.04082,0.36324 0.02177,0.53863 0.03116,0.0873 0.04286,0.15875 0.02601,0.15875 -0.05353,3e-5 -0.128712,-0.31923 -0.128712,-0.54656 0,-0.17957 0.01988,-0.23914 0.109846,-0.3291 0.10654,-0.10655 0.120872,-0.10901 0.47625,-0.0818 0.201522,0.0154 0.487199,0.0503 0.634837,0.0775 l 0.268433,0.0494 0.139721,-0.16643 0.13972,-0.16642 -0.121612,-0.13851 c -0.173716,-0.19785 -0.260983,-0.38495 -0.232493,-0.49847 0.03026,-0.12057 0.273604,-0.21192 0.43963,-0.16503 0.06279,0.0177 0.457068,0.0353 0.876168,0.0391 0.843816,0.008 0.823426,0.003 1.905,0.43627 0.589962,0.23639 0.845316,0.27833 1.536359,0.25236 0.552234,-0.0208 0.599763,-0.0298 0.982474,-0.18578 0.382483,-0.15594 0.423922,-0.16378 0.846667,-0.16032 0.770108,0.006 1.270954,0.15555 1.304611,0.38877 0.01897,0.13143 -0.142436,0.26272 -0.497644,0.40483 -0.164846,0.0659 -0.31919,0.15628 -0.342988,0.20075 -0.0238,0.0445 -0.08073,0.38103 -0.126525,0.74793 -0.16284,1.30475 -0.341396,2.05298 -0.627553,2.62973 l -0.131668,0.26538 0.32201,0.14675 c 0.177106,0.0807 0.360027,0.16709 0.406492,0.19195 0.06097,0.0326 0.07647,0.0323 0.05571,-0.001 -0.01582,-0.0256 -0.0038,-0.0469 0.02664,-0.0473 0.03048,-4.3e-4 -0.07793,-0.0784 -0.240918,-0.17335 -0.345107,-0.201 -0.376348,-0.22668 -0.232833,-0.19142 0.08805,0.0216 0.0845,0.0157 -0.02117,-0.0352 -0.21204,-0.10213 0.0064,-0.0795 0.341836,0.0354 0.388258,0.13303 1.61044,0.69683 1.672407,0.7715 0.166919,0.20112 0.143088,6.4035 -0.02753,7.16615 -0.02048,0.0916 -0.01186,0.0982 0.09606,0.0737 0.265854,-0.0603 1.094072,-0.0782 1.279422,-0.0277 0.265594,0.0724 0.142838,0.12284 -0.174657,0.0717 -0.295474,-0.0476 -1.172902,0.0245 -1.219695,0.10024 -0.01523,0.0246 -0.05116,0.17217 -0.07984,0.32785 -0.02869,0.15568 -0.07226,0.30729 -0.09684,0.3369 -0.02732,0.0329 -0.153746,0.0552 -0.325254,0.0573 l -0.280566,0.003 0.139914,0.0611 c 0.305345,0.13339 0.747871,0.19818 1.384085,0.20267 0.654052,0.005 1.02343,-0.0442 1.457549,-0.19275 0.567918,-0.19427 0.504444,-0.46293 -0.168985,-0.71522 -0.21021,-0.0788 -0.215733,-0.084 -0.06351,-0.0597 0.238086,0.0379 0.63373,0.24853 0.68722,0.36593 0.02495,0.0548 0.04855,0.27442 0.05245,0.48812 0.008,0.44154 0.02197,0.42257 -0.419555,0.57164 -0.137618,0.0465 -0.17657,0.0698 -0.09525,0.057 0.07567,-0.0119 0.137583,-0.0141 0.137583,-0.005 0,0.022 -0.731575,0.26263 -0.973666,0.32022 -0.209441,0.0498 -0.245027,0.0599 -0.338667,0.0961 -0.03493,0.0135 -0.19685,0.0384 -0.359833,0.0553 -0.229957,0.0238 -0.272628,0.038 -0.1905,0.0631 0.158546,0.0485 -0.358747,-0.003 -0.677333,-0.0676 -0.151342,-0.0306 -0.34789,-0.0866 -0.436775,-0.12436 -0.172387,-0.0733 -0.513279,-0.36529 -0.586785,-0.50264 -0.03864,-0.0722 -0.03281,-0.0799 0.04509,-0.0595 0.110269,0.0288 0.111063,-0.003 0.0033,-0.13222 -0.07252,-0.0871 -0.107229,-0.0965 -0.26726,-0.0725 l -0.183918,0.0276 -0.02664,0.64397 c -0.02326,0.56223 -0.09684,1.21663 -0.181417,1.61357 -0.02582,0.12117 -0.02879,0.11891 -0.206135,-0.15672 -0.209906,-0.32624 -0.604843,-1.1884 -0.743889,-1.62393 -0.114487,-0.35861 -0.04688,-0.33202 -1.002942,-0.39433 -0.890443,-0.058 -1.002384,-0.0754 -1.129824,-0.17568 -0.127411,-0.10022 -0.13744,-0.17363 -0.03473,-0.25418 0.0665,-0.0521 0.06838,-0.0508 0.01833,0.0131 -0.10946,0.1399 0.08093,0.18877 0.944749,0.2425 0.442383,0.0275 0.869285,0.0613 0.94867,0.075 0.124229,0.0215 0.140447,0.0148 0.116417,-0.0478 -0.01535,-0.04 -0.02792,-0.13542 -0.02792,-0.21201 v -0.13925 l -0.41275,-0.0264 c -1.448142,-0.0925 -3.617822,-0.11699 -6.422785,-0.0725 -1.62912,0.0258 -3.243607,0.0592 -3.58775,0.0741 l -0.625714,0.0271 v 0.11573 c 0,0.15323 -0.15702,0.91194 -0.208728,1.00856 -0.124004,0.2317 -0.273044,0.20106 -0.444425,-0.0914 -0.08508,-0.14518 -0.276633,-0.78778 -0.277884,-0.93221 -8.51e-4,-0.0984 0.109209,0.0641 0.29768,0.43969 0.115937,0.23103 0.219657,0.42006 0.230489,0.42006 0.06182,0 0.358133,-0.91068 0.309771,-0.95203 -0.03968,-0.0339 -6.582821,-0.0369 -8.994844,-0.004 l -2.843774,0.0387 -0.048,0.27563 c -0.105235,0.6043 -0.474223,1.56962 -0.826003,2.16092 -0.197886,0.33263 -0.434171,0.647 -0.369633,0.4918 z m 25.267241,-1.00542 c -0.01537,-0.37835 -0.03989,-0.86477 -0.05449,-1.08093 l -0.02655,-0.39302 -0.258678,0.0277 c -0.142273,0.0153 -0.272407,0.0401 -0.289187,0.0552 -0.03291,0.0297 0.246193,1.14681 0.381893,1.52858 0.09459,0.2661 0.226478,0.55033 0.255373,0.55033 0.01077,0 0.007,-0.30956 -0.0084,-0.68792 z m 2.978773,-1.13387 c 0.499503,-0.0442 1.220448,-0.20285 1.441824,-0.31733 0.08419,-0.0435 0.12451,-0.0966 0.12451,-0.16384 0,-0.0547 0.01243,-0.16375 0.02763,-0.24233 0.02683,-0.13874 0.02525,-0.14078 -0.05446,-0.0704 -0.537489,0.47446 -2.578931,0.49654 -3.478479,0.0376 -0.247874,-0.12646 -0.264937,-0.11797 -0.25625,0.12746 0.007,0.19807 0.02122,0.22621 0.167908,0.33247 0.08814,0.0638 0.27843,0.14924 0.422873,0.18977 0.221315,0.0621 0.410251,0.0879 1.054115,0.1441 0.03493,0.003 0.282575,-0.0138 0.550333,-0.0375 z m -3.270249,-0.40697 0.22225,-0.0267 v -0.23223 -0.23223 l -0.132292,0.0265 c -0.07276,0.0145 -0.256068,0.0265 -0.40735,0.0265 -0.214835,0 -0.265612,0.0116 -0.231914,0.0529 0.02373,0.0291 0.06718,0.13388 0.09655,0.23283 0.05872,0.19782 0.06309,0.19929 0.452755,0.15249 z m 0.976349,-0.30066 c 0.0073,-0.0757 0.03587,-0.13787 0.0635,-0.13823 0.03032,-3.8e-4 0.02506,-0.0177 -0.01326,-0.0436 -0.04676,-0.0316 -0.03183,-0.0356 0.0566,-0.015 0.146637,0.0341 0.900292,0.0469 0.931992,0.0157 0.01253,-0.0123 0.04374,-0.15353 0.06935,-0.31382 0.0371,-0.23222 0.03542,-0.29863 -0.0083,-0.32687 -0.04422,-0.0286 -0.04321,-0.0429 0.0052,-0.0741 0.043,-0.0277 0.06997,-0.18685 0.09505,-0.56092 0.0374,-0.55784 0.108605,-5.88918 0.08457,-6.33252 -0.01283,-0.23666 -0.024,-0.2651 -0.105834,-0.26949 -0.07158,-0.004 -0.07537,-0.009 -0.01741,-0.0243 0.116589,-0.0305 0.08713,-0.0967 -0.07272,-0.16347 -0.189736,-0.0793 -0.228164,-0.0777 -0.125867,0.005 0.08107,0.0658 0.08104,0.0664 -0.0025,0.0471 -0.04657,-0.0107 -0.122766,-0.0337 -0.169333,-0.0512 l -0.08467,-0.0317 0.08467,0.0714 c 0.08311,0.0701 0.08272,0.0709 -0.02117,0.0424 -0.05821,-0.0159 -0.291571,-0.12187 -0.518583,-0.23542 -0.227013,-0.11354 -0.41275,-0.19698 -0.41275,-0.18542 0,0.0116 0.137097,0.0901 0.304661,0.17445 0.167563,0.0844 0.376735,0.19892 0.464825,0.25453 0.08809,0.0556 0.211343,0.10111 0.273895,0.10111 0.06255,0 0.102671,0.0111 0.08915,0.0246 -0.01352,0.0135 -0.186579,0.0258 -0.384583,0.0273 -0.357753,0.003 -0.363676,0.001 -0.945564,-0.27434 -0.322056,-0.15241 -0.629854,-0.29028 -0.683996,-0.30638 -0.05414,-0.0161 -0.08871,-0.039 -0.07683,-0.0509 0.03746,-0.0375 0.453807,0.11622 0.95404,0.35214 0.308208,0.14536 0.537538,0.2273 0.635,0.22689 0.101941,-4.3e-4 0.133447,-0.0128 0.09496,-0.0371 -0.03168,-0.0201 -0.09112,-0.0277 -0.132085,-0.017 -0.08671,0.0227 -0.344145,-0.10093 -1.006913,-0.48347 -0.392323,-0.22644 -0.488077,-0.26603 -0.53975,-0.22315 -0.03455,0.0287 -0.06282,0.0768 -0.06282,0.10693 0,0.0301 -0.01464,0.0611 -0.03254,0.0689 -0.0179,0.008 -0.120555,0.13793 -0.228125,0.28927 -0.251937,0.35446 -0.542573,0.65421 -0.861165,0.88818 -0.516245,0.37913 -0.548603,0.43532 -0.423334,0.73513 0.03493,0.0836 0.0635,0.24149 0.0635,0.35089 0,0.29043 0.03927,0.20445 0.104304,-0.22835 0.03141,-0.20904 0.08769,-0.4392 0.12506,-0.51147 0.03737,-0.0723 0.246518,-0.28414 0.464766,-0.47082 0.218248,-0.18668 0.469592,-0.43485 0.558542,-0.55149 0.183107,-0.2401 0.226911,-0.2721 0.116404,-0.085 -0.09736,0.16483 -0.477287,0.55914 -0.791966,0.82197 -0.297591,0.24855 -0.357904,0.37858 -0.403172,0.86915 -0.0342,0.3706 -0.09947,0.52987 -0.277795,0.67787 -0.08599,0.0714 -0.08301,0.0262 0.0077,-0.11627 0.06647,-0.10443 0.05773,-0.1014 -0.09575,0.0332 -0.153587,0.13474 -0.161176,0.15066 -0.08373,0.1757 0.04684,0.0151 0.114481,0.0294 0.150307,0.0317 0.104545,0.007 0.324435,-0.41045 0.418969,-0.79496 0.04796,-0.19508 0.1244,-0.41415 0.169865,-0.48684 0.04547,-0.0727 0.315459,-0.36075 0.599989,-0.64015 0.515236,-0.50594 0.455629,-0.41505 -0.203599,0.31046 -0.270689,0.29791 -0.361123,0.43027 -0.41275,0.60412 -0.03636,0.12244 -0.06695,0.2525 -0.06797,0.28902 -10e-4,0.0365 -0.0286,0.1426 -0.06128,0.23574 -0.05316,0.15149 -0.05275,0.16041 0.004,0.0847 0.03486,-0.0466 0.150288,-0.2439 0.256506,-0.43851 0.117763,-0.21578 0.300447,-0.46356 0.468169,-0.635 l 0.275047,-0.28115 -0.219843,0.254 c -0.127947,0.14782 -0.308109,0.436 -0.431003,0.6894 -0.116138,0.23947 -0.306852,0.55038 -0.42381,0.69092 -0.116957,0.14054 -0.206066,0.26046 -0.198019,0.2665 0.008,0.006 0.16703,0.0641 0.353297,0.12894 0.619515,0.21581 1.111482,0.50406 1.56018,0.91415 0.320172,0.29261 0.417773,0.43845 0.433873,0.64828 0.0074,0.0965 0.03288,0.30882 0.05662,0.47181 0.05896,0.40484 0.05441,0.75802 -0.01348,1.04648 -0.05196,0.22079 -0.05041,0.24811 0.01761,0.30966 0.125602,0.11367 0.129983,0.22102 0.01025,0.25107 -0.142232,0.0357 -1.119057,0.10574 -1.408878,0.10103 -0.211054,-0.003 -0.0654,-0.0212 1.184467,-0.14478 l 0.274301,-0.0271 -0.122329,-0.10522 c -0.143142,-0.12313 -0.07031,-0.12773 -1.315273,0.0832 -1.726715,0.29255 -1.945372,0.30621 -4.868333,0.30422 -1.934961,-10e-4 -3.314372,-0.0276 -5.249333,-0.10008 -2.222818,-0.0832 -2.984386,-0.0947 -4.974166,-0.0747 -1.292225,0.013 -2.82575,0.0457 -3.407834,0.0728 -1.012898,0.0471 -4.096888,0.0292 -4.487333,-0.026 -0.114065,-0.0161 -0.150236,-0.0107 -0.110823,0.0165 0.04743,0.0328 0.04341,0.0448 -0.02117,0.0634 -0.113669,0.0327 -0.508637,0.0435 -1.095676,0.0298 -0.617591,-0.0143 -0.439143,-0.0616 0.423333,-0.11222 l 0.550333,-0.0323 -0.316452,-0.0541 c -0.267528,-0.0457 -0.733269,-0.17357 -0.919987,-0.25248 -0.02811,-0.0119 -0.136578,0.0639 -0.241043,0.16833 -0.163063,0.16307 -0.183884,0.17396 -0.147157,0.077 0.02353,-0.0621 0.07981,-0.15247 0.125066,-0.20079 0.07486,-0.0799 0.0768,-0.099 0.02145,-0.21167 -0.180392,-0.36711 -0.192754,-1.36423 -0.02148,-1.73247 0.10111,-0.21738 0.463805,-0.60984 0.801099,-0.86683 0.132048,-0.10062 0.06648,-0.0159 -0.213682,0.27617 -0.2223,0.23173 -0.445335,0.50705 -0.495632,0.61183 -0.144767,0.30157 -0.201156,0.74578 -0.145041,1.14259 0.07509,0.53095 0.116842,0.59892 0.435234,0.70854 0.9362,0.32233 2.639189,0.37163 7.636954,0.22112 1.696222,-0.0511 4.705842,-0.0316 6.582833,0.0426 3.843301,0.15197 7.432063,0.1626 8.635999,0.0256 0.734494,-0.0836 2.218474,-0.30008 2.529417,-0.36899 l 0.22225,-0.0493 0.0086,-0.34251 c 0.01395,-0.55271 -0.01251,-1.21946 -0.05501,-1.38632 -0.08925,-0.35034 -0.728693,-0.86271 -1.579167,-1.26535 -0.235197,-0.11134 -0.521393,-0.23353 -0.63599,-0.27153 -0.252185,-0.0836 -0.398898,-0.1638 -0.230176,-0.1258 0.06149,0.0139 0.123813,0.006 0.138498,-0.018 0.01469,-0.0238 -0.007,-0.0412 -0.0483,-0.0388 -0.07272,0.004 -0.531753,-0.11065 -0.963998,-0.24126 l -0.211667,-0.064 0.105834,0.0834 c 0.155823,0.12282 0.05763,0.10382 -0.328765,-0.0636 -0.271711,-0.11775 -0.43423,-0.15756 -0.776149,-0.19014 -0.237861,-0.0227 -0.442163,-0.0509 -0.454003,-0.0627 -0.01184,-0.0118 0.129285,-0.0234 0.313611,-0.0257 0.232604,-0.003 0.30276,-0.0146 0.229306,-0.0381 -0.06016,-0.0193 -0.07618,-0.0357 -0.03711,-0.0381 0.0378,-0.002 0.292284,0.0636 0.56553,0.14639 0.273246,0.0828 0.505357,0.14206 0.515801,0.13162 0.0294,-0.0294 -0.214243,-0.19098 -0.435637,-0.28891 -0.126471,-0.0559 -0.328569,-0.0963 -0.552196,-0.11025 -0.193995,-0.0121 -0.352717,-0.0379 -0.352717,-0.0573 0,-0.0194 -0.05239,-0.0154 -0.116417,0.009 -0.383955,0.14621 -1.146532,0.12634 -1.68275,-0.0438 -0.1397,-0.0443 -0.549275,-0.1245 -0.910167,-0.17815 -0.360891,-0.0536 -0.621625,-0.10439 -0.579409,-0.11277 0.06787,-0.0135 0.573035,0.0425 0.936403,0.10377 0.10968,0.0185 0.0946,0.002 -0.09711,-0.10731 -0.12482,-0.0711 -0.333463,-0.22019 -0.463653,-0.33141 l -0.236707,-0.20221 -0.531181,0.005 c -0.566415,0.005 -0.771085,0.0425 -1.572402,0.285 -0.476413,0.14419 -1.058841,0.24473 -0.926219,0.15988 0.07138,-0.0457 0.941939,-0.31031 1.438274,-0.43722 0.328136,-0.0839 1.243802,-0.1171 1.44743,-0.0525 0.08822,0.028 0.09154,0.0241 0.03634,-0.0424 -0.110536,-0.13318 -0.417045,-0.31956 -0.683693,-0.41573 -0.156901,-0.0566 -0.295432,-0.13872 -0.343654,-0.20374 -0.150564,-0.20303 -0.0689,-0.32999 0.626037,-0.97325 0.114789,-0.10625 0.254173,-0.285 0.309742,-0.39722 0.100699,-0.20335 0.100867,-0.20616 0.05045,-0.84398 -0.05767,-0.72953 -0.141086,-1.29673 -0.240427,-1.63478 -0.03763,-0.12806 -0.08274,-0.36299 -0.100251,-0.52208 -0.02299,-0.20898 -0.05677,-0.3142 -0.121726,-0.37915 -0.08542,-0.0854 -0.104799,-0.0873 -0.3889,-0.0386 -0.164451,0.0282 -0.350492,0.0887 -0.413425,0.13438 -0.07645,0.0555 -0.381359,0.13459 -0.918755,0.23825 -0.688387,0.13279 -0.89587,0.15587 -1.439333,0.16011 -0.741205,0.006 -1.465334,-0.0313 -2.264833,-0.11602 -0.461774,-0.0489 -1.798365,-0.0646 -2.529295,-0.0297 -0.09991,0.005 -0.167338,0.25914 -0.125196,0.47227 0.03606,0.18239 0.05161,0.20071 0.210788,0.2484 0.16997,0.0509 0.411703,0.24875 0.411703,0.33693 0,0.0251 -0.04822,0.0456 -0.107162,0.0456 -0.05894,0 -0.113914,0.0238 -0.122166,0.0529 -0.0083,0.0291 -0.03644,0.13204 -0.06265,0.22875 -0.04118,0.15197 -0.0605,0.1727 -0.142417,0.15278 -0.05213,-0.0127 -0.128027,-0.0518 -0.168668,-0.087 -0.06695,-0.0579 -0.08367,-0.0534 -0.177895,0.0483 -0.0572,0.0617 -0.121925,0.11222 -0.143829,0.11222 -0.05571,0 -0.09122,-0.10846 -0.09122,-0.27863 0,-0.10041 -0.01944,-0.14471 -0.0635,-0.14471 -0.09895,0 -0.07465,-0.15442 0.03829,-0.24325 l 0.101787,-0.0801 -0.133537,-0.17542 c -0.100626,-0.13219 -0.164835,-0.17685 -0.260536,-0.18123 -0.125168,-0.006 -0.125474,-0.006 -0.02117,-0.0401 l 0.105833,-0.0343 -0.09883,-0.0308 c -0.06095,-0.019 -0.08053,-0.0421 -0.05108,-0.0603 0.03325,-0.0206 0.02469,-0.0574 -0.02817,-0.12117 -0.06351,-0.0767 -0.14855,-0.099 -0.520416,-0.13663 -0.244474,-0.0247 -0.644524,-0.0807 -0.888999,-0.12439 -0.293668,-0.0525 -0.681522,-0.0823 -1.143,-0.088 -1.080389,-0.0133 -1.096697,-0.009 -0.675785,0.19122 0.246436,0.11703 0.688499,0.4049 0.621793,0.4049 -0.0179,0 -0.189294,-0.0788 -0.380865,-0.1752 -0.602567,-0.30308 -0.728801,-0.33246 -1.445129,-0.33633 -0.563313,-0.003 -0.668879,0.008 -0.892848,0.0915 -0.236293,0.0883 -0.529166,0.31558 -0.529166,0.41064 0,0.0829 0.133475,0.14848 0.370979,0.18225 l 0.242854,0.0345 -0.273383,-0.0158 c -0.199582,-0.0115 -0.288149,-0.036 -0.328083,-0.0906 -0.08817,-0.12058 -0.06528,-0.18887 0.120937,-0.36078 0.186943,-0.17259 0.523128,-0.32 0.82375,-0.36121 l 0.18321,-0.0251 -0.104465,-0.0822 c -0.0929,-0.0731 -0.104466,-0.11428 -0.104466,-0.37205 0,-0.15943 0.04852,-0.51429 0.107826,-0.78859 0.0593,-0.27429 0.102166,-0.54042 0.09525,-0.5914 -0.01169,-0.0862 -0.02301,-0.0893 -0.160743,-0.0444 -0.123743,0.0403 -0.151655,0.0723 -0.169333,0.19415 -0.01675,0.11542 -0.03712,0.0536 -0.0976,-0.29633 -0.137549,-0.7958 -0.161754,-0.88823 -0.263072,-1.00461 -0.09572,-0.10996 -0.105199,-0.11212 -0.21894,-0.05 -0.07951,0.0434 -0.131861,0.11693 -0.158053,0.22203 -0.03522,0.14133 -0.01895,0.19931 0.161648,0.57585 0.24639,0.51372 0.278653,0.79446 0.177957,1.54847 -0.09642,0.72199 -0.09701,0.71617 0.06998,0.68592 0.104815,-0.019 0.07434,0.007 -0.127946,0.10778 -0.472534,0.23616 -0.817145,0.64724 -0.69903,0.83386 0.04577,0.0723 -0.0044,0.071 1.514892,0.0393 0.610301,-0.0127 0.693821,-0.006 0.843935,0.0705 0.203389,0.10337 0.314292,0.2481 0.347659,0.45371 0.0415,0.25571 -0.01983,0.44149 -0.241005,0.73006 -0.295435,0.38545 -0.273097,0.61985 0.04646,0.48748 0.281837,-0.11674 0.717345,-0.77874 0.71742,-1.09052 8.5e-5,-0.33579 -0.250378,-0.61807 -0.670945,-0.75618 -0.195185,-0.0641 -0.363799,-0.0779 -0.916522,-0.0749 -0.584146,0.003 -0.636564,-0.002 -0.381,-0.0347 0.484452,-0.0628 1.192367,-0.021 1.428045,0.0843 0.443771,0.19823 0.625122,0.42944 0.625122,0.79701 0,0.25141 -0.103572,0.47029 -0.378882,0.80071 -0.116399,0.1397 -0.212118,0.27372 -0.21271,0.29782 -5.93e-4,0.0241 0.06828,0.21391 0.153039,0.42182 0.149363,0.36636 0.362128,1.02433 0.592065,1.83094 0.09704,0.34039 0.129465,0.40259 0.248147,0.47594 0.190795,0.11792 0.520981,0.48011 0.552625,0.60619 0.04197,0.16723 0.0065,0.28964 -0.108785,0.37537 -0.08567,0.0637 -0.25443,0.0917 -0.846667,0.14067 -1.414554,0.11687 -2.141016,0.22079 -3.004499,0.4298 -0.450739,0.1091 -1.391252,0.44383 -1.544002,0.54951 -0.11666,0.0807 -0.379887,0.0736 -0.451064,-0.0123 -0.04538,-0.0547 -0.0581,-0.27488 -0.0581,-1.00542 0,-0.86086 -0.0097,-0.98425 -0.122107,-1.54919 -0.06716,-0.33761 -0.12798,-0.62068 -0.135157,-0.62905 -0.02458,-0.0286 -0.590397,0.20537 -0.75931,0.31404 l -0.168759,0.10858 0.187376,-0.17374 c 0.164697,-0.15271 0.172953,-0.16826 0.06821,-0.12843 -0.06554,0.0249 -0.126328,0.0381 -0.135085,0.0294 -0.0088,-0.009 0.157503,-0.0965 0.369466,-0.19498 0.211962,-0.0985 0.375939,-0.1885 0.364392,-0.20005 -0.01155,-0.0115 -0.08182,0.0105 -0.156156,0.0489 -0.200432,0.10365 -0.895289,0.36721 -0.915316,0.34718 -0.01737,-0.0174 0.465023,-0.2432 0.841369,-0.39388 0.110508,-0.0443 0.200996,-0.0947 0.201083,-0.1122 2.24e-4,-0.0449 -2.96e-4,-0.0447 -0.278089,0.0896 -0.216699,0.10482 -0.649193,0.27442 -0.928252,0.364 -0.04657,0.0149 0.03916,-0.0415 0.1905,-0.12554 0.151341,-0.084 0.246591,-0.14442 0.211666,-0.13427 -0.190501,0.0553 -0.763782,0.29341 -0.783557,0.32541 -0.01272,0.0206 0.109987,0.077 0.272679,0.12551 0.162692,0.0485 0.307309,0.10671 0.321371,0.12946 0.0165,0.0267 -0.0092,0.0273 -0.07238,0.002 -0.05387,-0.0219 -0.210242,-0.0731 -0.34749,-0.11388 l -0.249543,-0.0741 -0.105541,0.1227 -0.10554,0.1227 0.02816,1.25027 c 0.0491,2.17969 0.150189,4.43777 0.2398,5.35661 0.04769,0.48895 0.09367,0.91024 0.102177,0.93619 0.01329,0.0405 0.282582,0.0917 0.862136,0.16389 0.07761,0.01 0.239535,-1.2e-4 0.359833,-0.0218 0.342292,-0.0616 7.151733,-0.17981 9.362723,-0.16252 3.36591,0.0263 5.080945,0.0178 8.4455,-0.042 2.591438,-0.0461 3.517624,-0.0473 4.635499,-0.006 1.609822,0.0588 3.223375,0.069 3.614376,0.0228 0.314508,-0.0371 0.33408,0.0352 0.02218,0.0819 -0.191163,0.0287 -0.195061,0.0323 -0.169853,0.15835 0.01419,0.071 0.0258,0.15131 0.0258,0.17857 0,0.0342 0.06252,0.0424 0.201084,0.0265 0.190316,-0.0219 0.201793,-0.0305 0.214349,-0.1607 z m -26.547198,-0.35983 c -0.01155,-0.099 -0.0629,-0.82762 -0.114129,-1.61925 -0.283482,-4.38093 -0.35831,-5.661 -0.331872,-5.67734 0.04543,-0.0281 0.06429,0.19578 0.20376,2.41767 0.07161,1.14089 0.157086,2.45534 0.189943,2.921 0.07376,1.04543 0.121819,2.13784 0.09405,2.13784 -0.01142,0 -0.0302,-0.081 -0.04175,-0.17992 z m 26.619436,-3.26027 c 0.01988,-2.04906 0.05072,-3.4097 0.08538,-3.76767 l 0.05426,-0.56031 -0.01388,0.48683 c -0.0076,0.26776 -0.03266,1.95028 -0.05562,3.73894 -0.02296,1.78866 -0.05514,3.26504 -0.0715,3.28084 -0.01637,0.0158 -0.01575,-1.41459 0.0014,-3.17863 z m -6.181504,2.37961 c -0.34925,-0.0197 -2.06375,-0.0558 -3.81,-0.0804 -1.746249,-0.0245 -4.756149,-0.0671 -6.688666,-0.0947 -4.119224,-0.0587 -6.068013,-0.0666 -6.625166,-0.0268 l -0.402167,0.0288 0.423333,-0.0657 c 0.554408,-0.0861 2.265302,-0.0921 6.434667,-0.0227 1.74625,0.0291 4.632325,0.0703 6.413499,0.0917 1.781175,0.0214 3.714639,0.0617 4.296586,0.0896 1.479935,0.071 2.695373,0.0353 3.553437,-0.10419 0.370988,-0.0603 0.694838,-0.10805 0.719667,-0.10605 0.100886,0.008 -0.244335,0.0861 -0.843857,0.19063 -0.554318,0.0966 -0.774847,0.11228 -1.735666,0.12314 -0.605367,0.007 -1.386417,-0.004 -1.735667,-0.0233 z m -18.065749,-0.11046 c 0.0291,-0.0117 0.07673,-0.0117 0.105833,0 0.0291,0.0117 0.0053,0.0214 -0.05292,0.0214 -0.05821,0 -0.08202,-0.01 -0.05292,-0.0214 z m 0.3175,-0.0435 c 0.04075,-0.0106 0.107421,-0.0106 0.148167,0 0.04075,0.0106 0.0074,0.0194 -0.07408,0.0194 -0.08149,0 -0.114829,-0.009 -0.07408,-0.0194 z m -1.259417,-0.85982 c -0.226223,-0.0209 -0.146098,-0.0281 0.338667,-0.0304 0.34925,-0.002 0.80645,0.011 1.016,0.0281 0.32861,0.0269 0.28204,0.031 -0.338667,0.0304 -0.395816,-4.2e-4 -0.853016,-0.0131 -1.016,-0.0282 z m 23.113999,0.0135 c -0.162983,-0.008 -0.343958,-0.0266 -0.402166,-0.0423 -0.100245,-0.0269 -0.09801,-0.03 0.04233,-0.0577 l 0.148167,-0.0293 -0.137584,-0.006 c -0.07567,-0.003 -0.137583,-0.0246 -0.137583,-0.0479 0,-0.0233 0.06191,-0.0437 0.137583,-0.0453 0.115296,-0.002 0.123869,-0.009 0.05292,-0.0394 -0.06599,-0.0283 -0.04263,-0.0384 0.105833,-0.0457 0.143534,-0.007 0.15919,-0.0134 0.0635,-0.026 -0.464503,-0.0609 -0.139359,-0.1281 0.762,-0.15755 0.770964,-0.0252 0.77575,-0.006 0.02022,0.0807 l -0.528221,0.0607 0.613834,-0.012 c 0.65544,-0.0128 0.581506,0.0297 -0.148167,0.0853 -0.37851,0.0288 -0.403163,0.0354 -0.232833,0.0626 0.104775,0.0167 0.352425,0.034 0.550333,0.0384 0.447057,0.01 0.370889,0.0333 -0.256131,0.0783 l -0.484702,0.0348 0.546805,0.006 c 0.300743,0.003 0.538868,0.013 0.529167,0.0216 -0.02946,0.0259 -0.92925,0.055 -1.245306,0.0403 z m -23.262165,-0.18712 c -0.244475,-0.0203 -0.473075,-0.0445 -0.508,-0.0538 -0.03493,-0.009 0.52705,-0.0178 1.248833,-0.019 0.721783,-0.001 1.274233,0.0129 1.227667,0.0314 -0.134899,0.0536 -1.481216,0.0819 -1.9685,0.0414 z m 0.229224,-0.1687 c -0.830649,-0.0742 -0.7822,-0.1028 0.155294,-0.0917 0.52194,0.006 1.129957,0.0248 1.351148,0.0414 l 0.402167,0.0301 -0.3175,0.0276 c -0.431126,0.0374 -1.12563,0.0342 -1.591109,-0.007 z m -0.123391,-0.20799 c -0.116416,-0.016 0.350308,-0.0301 1.037167,-0.0315 0.686858,-0.001 1.201208,0.0128 1.143,0.0315 -0.127753,0.0409 -1.881874,0.0409 -2.180167,0 z m 22.351999,-0.0784 c 0.08461,-0.0379 1.881166,-0.15002 1.911868,-0.11932 0.0089,0.009 -0.179463,0.0392 -0.41865,0.0672 -0.566659,0.0664 -1.60601,0.10268 -1.493218,0.0521 z m -22.436665,-0.0848 c -0.263037,-0.0242 -0.220226,-0.0308 0.380999,-0.0589 0.932088,-0.0435 2.002668,-0.0343 1.778,0.0152 -0.217467,0.048 -1.77145,0.0794 -2.158999,0.0437 z m 22.605998,-0.11895 c -0.09313,-0.0109 -0.18743,-0.0376 -0.20955,-0.0594 -0.02493,-0.0245 0.152027,-0.0404 0.465667,-0.0418 0.278236,-0.001 0.782108,-0.0184 1.119717,-0.0381 0.337608,-0.0197 0.618814,-0.0311 0.624903,-0.0254 0.0061,0.006 -0.184412,0.0429 -0.423334,0.0828 -0.445127,0.0742 -1.275174,0.1173 -1.577403,0.0819 z m -22.817665,-0.0741 c -0.452491,-0.0528 -0.426139,-0.0544 0.931333,-0.0571 0.928288,-0.002 1.35439,0.0106 1.27,0.037 -0.212433,0.0665 -1.688203,0.0799 -2.201333,0.0201 z m 0.08467,-0.14897 -0.508,-0.0281 0.719666,-0.009 c 0.395817,-0.005 0.995892,-0.0186 1.3335,-0.0307 0.403886,-0.0145 0.583025,-0.008 0.523757,0.018 -0.11983,0.0534 -1.431375,0.0847 -2.068923,0.0495 z m 22.725624,0.009 c 0.0143,-0.0231 0.353669,-0.0548 0.757472,-0.0708 0.402363,-0.0159 0.817294,-0.0367 0.922069,-0.0462 0.15714,-0.0143 0.142314,-0.006 -0.08467,0.0457 -0.330341,0.0757 -1.63359,0.13392 -1.594874,0.0713 z M 20.04995,149.65142 c -0.116955,-0.016 0.214534,-0.0295 0.740833,-0.03 0.603983,-6.3e-4 0.875052,0.0111 0.740834,0.032 -0.255003,0.0397 -1.186817,0.0385 -1.481667,-0.002 z m 24.947561,0.0134 c 0.03056,-0.0122 0.06707,-0.0107 0.08114,0.003 0.01407,0.0141 -0.01094,0.0241 -0.05556,0.0222 -0.04932,-0.002 -0.05935,-0.0121 -0.02558,-0.0256 z m -25.317977,-0.0838 c 0.0291,-0.0118 0.07673,-0.0118 0.105833,0 0.0291,0.0117 0.0053,0.0213 -0.05292,0.0213 -0.05821,0 -0.08202,-0.01 -0.05292,-0.0213 z m 20.351749,-0.10054 c -1.8161,-0.0174 -3.768725,-0.0528 -4.339167,-0.0785 -2.048349,-0.0923 -5.387134,-0.17575 -7.090833,-0.17716 -2.309945,-0.002 -6.158694,0.0738 -7.133166,0.14026 -1.13409,0.0774 -1.606141,0.0716 -1.74821,-0.0216 -0.06295,-0.0413 -0.114457,-0.095 -0.114457,-0.11944 0,-0.0244 0.02991,-0.0145 0.06646,0.0221 0.03655,0.0366 0.115788,0.0788 0.176076,0.094 0.114173,0.0287 0.947415,0.002 2.106964,-0.0678 1.301814,-0.0782 4.121058,-0.14758 5.926666,-0.14593 1.615354,0.001 7.081805,0.14806 7.747,0.20774 0.357013,0.032 9.332974,0.1035 9.407493,0.0749 0.0336,-0.0129 0.07734,-0.0636 0.0972,-0.1128 0.02399,-0.0594 0.03701,-0.0672 0.03879,-0.0234 0.0015,0.0363 -0.02433,0.10297 -0.05734,0.14817 -0.05581,0.0764 -0.120426,0.0825 -0.92075,0.0867 -0.4734,0.002 -2.346628,-0.01 -4.162727,-0.0272 z m 4.254499,-0.63732 c -0.267758,-0.21003 -0.548745,-0.42045 -0.624416,-0.46761 -0.194847,-0.12142 -0.17062,-0.13961 0.04233,-0.0318 0.464818,0.23536 1.132417,0.73691 1.132417,0.85077 0,0.0692 -0.07601,0.0207 -0.550334,-0.35137 z m -8.893527,0.2416 c -0.0097,-0.009 -0.434826,-0.0277 -0.944721,-0.0416 -0.509895,-0.0139 -0.93852,-0.0378 -0.9525,-0.053 -0.03351,-0.0366 1.903086,0.0219 2.175915,0.0657 l 0.211667,0.034 -0.236361,0.006 c -0.129999,0.003 -0.244299,-0.002 -0.254,-0.0106 z m 2.28159,-0.0126 c 0.03056,-0.0122 0.06707,-0.0107 0.08114,0.003 0.01407,0.0141 -0.01094,0.0241 -0.05556,0.0222 -0.04932,-0.002 -0.05935,-0.0121 -0.02558,-0.0256 z m 7.098771,-0.14571 c -0.289792,-0.22238 -0.790519,-0.55439 -1.121834,-0.74385 -0.440612,-0.25195 -0.327133,-0.22842 0.165528,0.0343 0.343379,0.18314 1.189139,0.76957 1.189139,0.82453 0,0.0428 -0.07626,0.005 -0.232833,-0.11501 z m -14.527022,0.0316 c 0.628542,-0.0214 1.457041,-0.0214 1.947334,0 0.761677,0.0332 0.644148,0.0372 -1.093978,0.0372 -1.920708,0 -1.932376,-5.1e-4 -0.853356,-0.0372 z m 7.012855,-0.27628 c 0,-0.0345 0.334824,-0.0141 0.377473,0.023 0.0097,0.008 -0.07126,0.0153 -0.179917,0.0153 -0.108656,0 -0.197556,-0.0172 -0.197556,-0.0383 z m -1.185333,-0.13783 c -0.524483,-0.11481 -0.622,-0.12353 -1.185333,-0.10602 -0.525488,0.0163 -0.568137,0.0132 -0.296334,-0.0214 0.493743,-0.0629 1.175172,-0.0124 1.756834,0.13028 0.657247,0.16123 0.465376,0.15924 -0.275167,-0.003 z m 0.804333,0.01 c -0.300145,-0.0445 -0.446249,-0.081 -0.381,-0.095 0.05821,-0.0125 -0.0085,-0.017 -0.148166,-0.01 -0.1806,0.009 -0.2173,0.003 -0.127,-0.0198 0.237018,-0.0609 -0.50182,-0.10314 -1.397,-0.0798 l -0.846667,0.0221 0.6985,-0.0541 c 0.384175,-0.0298 0.722313,-0.056 0.751417,-0.0583 0.0291,-0.002 0.05292,-0.0188 0.05292,-0.0366 0,-0.0178 -0.157162,-0.0193 -0.34925,-0.003 -0.192087,0.016 -0.549275,0.0268 -0.79375,0.0241 l -0.444499,-0.005 0.444499,-0.0258 0.4445,-0.0258 -0.5715,-0.0146 c -0.414105,-0.0106 -0.519035,-0.0228 -0.380999,-0.0443 0.179349,-0.0279 0.173155,-0.0301 -0.105834,-0.0379 l -0.296333,-0.008 0.188834,-0.15685 c 0.472896,-0.39279 1.263482,-1.11163 1.285398,-1.16874 0.01333,-0.0347 0.08243,-0.0933 0.153552,-0.13005 0.120919,-0.0625 0.157443,-0.06 0.563094,0.0386 0.238584,0.058 0.605238,0.12626 0.814788,0.15164 0.20955,0.0254 0.421063,0.0723 0.470027,0.10423 0.06366,0.0415 0.136036,0.0482 0.254,0.0234 0.22422,-0.0471 1.462722,-0.0888 1.32914,-0.0448 -0.08476,0.0279 -0.06207,0.0357 0.113918,0.0391 0.120863,0.002 0.231996,0.024 0.246962,0.0482 0.01496,0.0242 -0.09539,0.229 -0.24524,0.45508 -0.149847,0.22608 -0.345005,0.55492 -0.433684,0.73076 l -0.161234,0.31969 -0.257778,-0.0289 c -0.141777,-0.0159 -0.429227,-0.0389 -0.638777,-0.051 -0.390003,-0.0226 -0.340532,-0.005 0.267347,0.0962 0.170325,0.0283 0.303675,0.0565 0.296334,0.0627 -0.05972,0.0504 -0.389247,0.0433 -0.796515,-0.0171 z m 0.242535,-0.0283 c -0.01407,-0.0141 -0.05058,-0.0156 -0.08114,-0.003 -0.03377,0.0135 -0.02374,0.0236 0.02558,0.0256 0.04463,0.002 0.06963,-0.008 0.05556,-0.0222 z m -0.274285,-0.0448 c -0.0291,-0.0117 -0.07673,-0.0117 -0.105833,0 -0.0291,0.0117 -0.0053,0.0214 0.05292,0.0214 0.05821,0 0.08202,-0.01 0.05292,-0.0214 z m -0.168527,-0.12673 c -0.02866,-0.0116 -0.08581,-0.0123 -0.127,-0.002 -0.04119,0.0107 -0.01774,0.0202 0.05211,0.0211 0.06985,8.7e-4 0.10355,-0.008 0.07489,-0.0195 z m -0.297139,-0.0426 c -0.0291,-0.0118 -0.07673,-0.0118 -0.105834,0 -0.0291,0.0117 -0.0053,0.0214 0.05292,0.0214 0.05821,0 0.08202,-0.01 0.05292,-0.0214 z m -0.253195,-0.0421 c -0.02866,-0.0116 -0.08581,-0.0123 -0.127,-0.002 -0.04119,0.0107 -0.01774,0.0202 0.05211,0.0211 0.06985,8.7e-4 0.10355,-0.008 0.07489,-0.0195 z m -0.329029,-0.042 c -0.02336,-0.008 0.210002,-0.27303 0.518583,-0.58847 0.529446,-0.54121 0.61897,-0.65405 0.518884,-0.65405 -0.04537,0 -1.270224,1.17917 -1.270063,1.22269 4.2e-5,0.0144 0.06197,0.0281 0.137583,0.0305 0.07562,0.002 0.118374,-0.002 0.09501,-0.0106 z m -0.413491,-0.7601 c -0.01407,-0.0141 -0.05058,-0.0156 -0.08114,-0.003 -0.03377,0.0135 -0.02374,0.0235 0.02558,0.0256 0.04463,0.002 0.06963,-0.008 0.05556,-0.0222 z m 0.169333,-0.0423 c -0.01407,-0.0141 -0.05058,-0.0156 -0.08114,-0.003 -0.03377,0.0135 -0.02374,0.0235 0.02558,0.0256 0.04463,0.002 0.06963,-0.008 0.05556,-0.0222 z m -1.877242,0.99199 c -0.171986,-0.12943 -0.221328,-0.1804 -0.122126,-0.12614 0.110117,0.0602 0.303911,0.2159 0.270292,0.21711 -0.01432,5.2e-4 -0.081,-0.0404 -0.148166,-0.091 z m 0.375291,0.0627 c 0.04075,-0.0106 0.10742,-0.0106 0.148166,0 0.04075,0.0106 0.0074,0.0194 -0.07408,0.0194 -0.08149,0 -0.114829,-0.009 -0.07408,-0.0194 z m 4.466166,-0.0835 c 0.0291,-0.0117 0.07673,-0.0117 0.105833,0 0.0291,0.0117 0.0053,0.0214 -0.05292,0.0214 -0.05821,0 -0.08202,-0.01 -0.05292,-0.0214 z M 19.92285,148.08547 c -0.07697,-0.0803 -0.132333,-0.11002 -0.150472,-0.0807 -0.04022,0.0651 -0.27712,-0.5237 -0.332591,-0.82659 -0.0253,-0.13815 -0.04341,-0.31913 -0.04024,-0.40216 0.0042,-0.10921 0.01038,-0.1217 0.02243,-0.0451 0.04235,0.26891 0.15038,0.72453 0.167683,0.70723 0.01059,-0.0106 -0.01152,-0.27106 -0.04913,-0.57882 -0.03761,-0.30776 -0.05984,-0.56811 -0.0494,-0.57854 0.01044,-0.0104 0.05341,0.20058 0.0955,0.46894 0.04209,0.26836 0.08406,0.48038 0.09328,0.47117 0.01796,-0.018 -0.06355,-1.27315 -0.09642,-1.48482 -0.01085,-0.0699 0.0088,-0.0317 0.04373,0.0847 0.0349,0.11642 0.08387,0.46884 0.108819,0.78317 0.08052,1.01435 0.107201,1.11139 0.09312,0.33866 -0.01388,-0.76201 -0.06354,-1.20713 -0.167614,-1.50243 -0.03274,-0.0929 -0.0415,-0.15006 -0.01945,-0.127 0.08412,0.088 0.222864,0.64879 0.240794,0.97327 0.01029,0.18626 0.02592,0.64925 0.03473,1.02886 0.01509,0.65046 0.02162,0.69617 0.113296,0.79375 0.0535,0.057 0.07847,0.10355 0.05549,0.10355 -0.02298,0 -0.09659,-0.0572 -0.163566,-0.1271 z m 1.185433,-0.15011 c 0.298355,-0.13782 1.190011,-0.40475 1.675983,-0.50172 0.564556,-0.11264 1.375792,-0.21996 1.922351,-0.2543 0.397484,-0.025 0.354311,-0.005 -0.169334,0.0782 l -0.381,0.0606 0.4445,-0.0183 c 0.244475,-0.0101 0.42545,-0.01 0.402167,9.9e-4 -0.02328,0.0106 -0.347133,0.0586 -0.719667,0.10657 -0.658203,0.0848 -1.734384,0.28127 -2.237766,0.40857 -0.136455,0.0345 -0.25663,0.0542 -0.267057,0.0438 -0.02187,-0.0219 1.07495,-0.29358 1.64977,-0.40868 0.526467,-0.10542 0.343101,-0.10503 -0.309113,6.6e-4 -0.559525,0.0907 -1.253216,0.26331 -1.774832,0.44172 -0.343303,0.11742 -0.43441,0.13363 -0.236002,0.042 z m 2.974411,-0.59854 c -0.04048,-0.0106 -0.116675,-0.011 -0.169334,-8.6e-4 -0.05266,0.0101 -0.01954,0.0188 0.07359,0.0193 0.09313,4.7e-4 0.136218,-0.008 0.09574,-0.0184 z m -1.678418,0.56048 c 0.04994,-0.0499 1.754015,-0.36748 2.169435,-0.40426 0.589761,-0.0522 0.66288,-0.0526 0.577406,-0.003 -0.03492,0.0202 -0.396341,0.0783 -0.803147,0.12903 -0.406805,0.0508 -1.002644,0.13842 -1.324086,0.1948 -0.623643,0.1094 -0.648817,0.11279 -0.619608,0.0836 z m 16.060673,-0.0259 c 0.204192,-0.0693 0.736723,-0.1672 0.882141,-0.16215 0.130288,0.005 -0.435662,0.12889 -0.818641,0.17989 -0.16648,0.0222 -0.174487,0.0199 -0.0635,-0.0177 z M 23.915513,147.845 c 0.03056,-0.0122 0.06707,-0.0107 0.08114,0.003 0.01407,0.0141 -0.01094,0.0241 -0.05556,0.0222 -0.04932,-0.002 -0.05935,-0.0121 -0.02558,-0.0256 z m 0.239677,-0.0583 c 0.174323,-0.052 0.997903,-0.17895 1.019696,-0.15716 0.0181,0.0181 -1.025988,0.20625 -1.103269,0.19881 -0.02328,-0.002 0.01432,-0.021 0.08357,-0.0417 z m 17.369629,-0.15568 c -0.366005,-0.0851 -0.65822,-0.16206 -0.649366,-0.17091 0.0089,-0.009 0.340863,0.033 0.737799,0.093 0.396937,0.06 0.898702,0.10969 1.115033,0.1104 0.321259,0.001 0.377817,0.0104 0.308664,0.051 -0.04657,0.0273 -0.256117,0.0546 -0.465667,0.0605 -0.314663,0.009 -0.496865,-0.0161 -1.046463,-0.14398 z m 0.43263,-0.15663 c -0.244475,-0.0535 -0.625475,-0.13694 -0.846667,-0.18537 -0.221191,-0.0484 -0.513308,-0.10014 -0.649147,-0.11492 -0.421701,-0.0459 -0.234809,-0.0656 0.229951,-0.0243 0.369376,0.0328 1.9257,0.3551 1.982002,0.4104 0.04603,0.0452 -0.315549,0.002 -0.716139,-0.0858 z m -9.630833,0.0188 c -0.2794,-0.0182 -0.822325,-0.0242 -1.2065,-0.0133 -0.831897,0.0236 -0.863636,-0.045 -0.0461,-0.0996 l 0.532929,-0.0356 -0.402167,-0.0262 c -0.221192,-0.0144 0.228697,-0.0235 0.999753,-0.0202 l 1.40192,0.006 0.04034,-0.10683 0.04034,-0.10683 -1.421093,0.004 c -0.818083,0.002 -1.187571,-0.007 -0.87076,-0.0212 l 0.550333,-0.0248 -0.783166,-0.0423 c -0.430742,-0.0233 -0.826029,-0.0416 -0.878417,-0.0407 -0.125628,0.002 -0.120249,-0.0337 0.03079,-0.20577 0.06932,-0.079 0.113769,-0.15581 0.09878,-0.17081 -0.01499,-0.015 0.01232,-0.0273 0.0607,-0.0273 0.09674,0 0.321993,-0.23807 0.28377,-0.29991 -0.01393,-0.0225 -0.840616,-0.0387 -1.975839,-0.0387 -1.07354,0 -1.943434,-0.008 -1.933099,-0.0188 0.01033,-0.0103 0.928727,-0.023 2.040871,-0.0281 1.112145,-0.005 1.997451,-0.025 1.967348,-0.0441 -0.03791,-0.024 -0.02546,-0.0349 0.04052,-0.0354 0.05239,-3.3e-4 0.09525,-0.0164 0.09525,-0.0357 0,-0.0697 -0.671931,-0.13488 -1.387776,-0.13461 -0.800926,3e-4 -0.942742,-0.0297 -1.102782,-0.23313 -0.110266,-0.14018 -0.118452,-0.34992 -0.02738,-0.70139 0.130449,-0.50342 0.188045,-1.11356 0.188825,-2.00031 5.8e-4,-0.65833 0.01344,-0.87772 0.05071,-0.8653 0.03596,0.012 0.04913,0.22327 0.04707,0.75495 -0.0037,0.95049 -0.06552,1.65954 -0.185487,2.12691 -0.108029,0.42088 -0.09092,0.53762 0.09955,0.67944 0.10122,0.0754 0.209082,0.0916 0.804333,0.12093 0.378091,0.0187 0.894984,0.0635 1.148653,0.0996 l 0.461215,0.0657 0.136856,-0.13265 0.136856,-0.13264 0.883595,-0.059 c 0.485978,-0.0325 1.147221,-0.0595 1.46943,-0.0602 l 0.585834,-0.001 -0.02339,0.22963 c -0.02977,0.29223 -0.153085,0.66103 -0.3868,1.15678 -0.13339,0.28295 -0.167735,0.39159 -0.123792,0.39159 0.07772,0 0.07916,0.0686 0.0021,0.0982 -0.116678,0.0448 -0.947019,0.0615 -1.444077,0.0292 z m 1.654485,-1.05935 c 0.279774,-0.57479 0.307498,-0.64472 0.221527,-0.55875 -0.06791,0.0679 -0.570895,1.10961 -0.547213,1.1333 0.03001,0.03 0.04006,0.0123 0.325686,-0.57455 z m -1.713153,0.0517 c -0.102118,-0.008 -0.20121,0.001 -0.220205,0.0204 -0.01899,0.019 0.06456,0.0253 0.185668,0.0141 l 0.220205,-0.0204 z m 0.472224,-0.0364 c -0.02866,-0.0116 -0.08581,-0.0123 -0.127,-0.002 -0.04119,0.0107 -0.01774,0.0202 0.05211,0.0211 0.06985,8.7e-4 0.10355,-0.008 0.07489,-0.0195 z m 0.231146,-0.0401 c -0.01407,-0.0141 -0.05058,-0.0156 -0.08114,-0.003 -0.03377,0.0135 -0.02374,0.0235 0.02558,0.0256 0.04463,0.002 0.06963,-0.008 0.05556,-0.0222 z m -2.737184,0.88178 c 0.02621,-0.0752 0.06497,-0.1474 0.08614,-0.16048 0.02117,-0.0131 0.01567,0.0298 -0.01221,0.0953 -0.07478,0.17569 -0.129178,0.22364 -0.07393,0.0651 z m 1.319899,-0.12587 c 0.343429,-0.007 0.905404,-0.007 1.248833,0 0.343429,0.007 0.06244,0.0129 -0.624416,0.0129 -0.686859,0 -0.967846,-0.006 -0.624417,-0.0129 z m -13.402785,-0.19176 c -0.01746,-0.088 -0.0477,-0.15007 -0.06719,-0.13802 -0.05072,0.0314 -0.07622,-0.1892 -0.0781,-0.67572 -0.0019,-0.50229 0.01987,-0.45837 0.0736,0.14816 l 0.03938,0.4445 -0.01494,-0.55033 c -0.01797,-0.66194 0.03864,-0.58152 0.08194,0.11642 0.01698,0.27358 0.04327,0.49742 0.05844,0.49743 0.01517,1e-5 0.02523,-0.2524 0.02236,-0.56092 -0.0043,-0.46174 -2.9e-5,-0.50479 0.02412,-0.24343 l 0.02934,0.3175 0.01359,-0.381 c 0.01329,-0.37282 0.01428,-0.376 0.04577,-0.14817 0.0177,0.12806 0.03407,0.38365 0.03637,0.56798 0.0023,0.18432 0.01749,0.32183 0.03375,0.30557 0.01626,-0.0163 0.02755,-0.28137 0.02508,-0.58914 -0.0034,-0.42284 0.004,-0.50785 0.03023,-0.34791 0.01909,0.11642 0.03638,0.32914 0.03842,0.47273 0.0022,0.1543 0.02339,0.26761 0.05185,0.2771 0.03275,0.0109 0.02049,0.0786 -0.03835,0.21157 -0.09413,0.2128 -0.234676,0.3257 -0.292071,0.23463 -0.02211,-0.0351 -0.04162,-0.01 -0.05763,0.074 l -0.02421,0.127 z m 11.068606,0.008 c -0.10217,-0.0201 -0.19742,-0.0483 -0.211667,-0.0628 -0.02601,-0.0264 0.250715,0.006 0.566763,0.0668 l 0.169333,0.0325 H 29.57495 c -0.09313,0 -0.252927,-0.0164 -0.355096,-0.0365 z m 17.14091,-0.0118 c -3.39e-4,-0.0433 -0.04291,-0.12261 -0.09457,-0.17628 -0.1004,-0.10432 -0.0996,-0.0853 -0.0339,-0.80336 0.0303,-0.33116 0.03112,-0.32676 0.03707,0.19859 0.0084,0.74222 0.08481,0.74543 0.101426,0.004 l 0.01309,-0.58384 0.0099,0.61384 c 0.01162,0.71805 0.08659,0.74942 0.10117,0.0423 l 0.0092,-0.4445 0.02323,0.508 0.02324,0.508 0.03442,-0.508 c 0.0464,-0.68475 0.114994,-1.04517 0.08862,-0.46567 -0.0106,0.23284 -0.02819,0.54716 -0.03909,0.6985 -0.01266,0.17574 -0.0066,0.24457 0.0169,0.1905 0.0202,-0.0466 0.0521,-0.32279 0.07089,-0.61383 0.02311,-0.35782 0.04376,-0.48804 0.06379,-0.40217 0.02866,0.12289 0.02997,0.12151 0.04039,-0.0423 0.0059,-0.0931 0.01831,-0.13123 0.02753,-0.0847 0.0092,0.0466 -0.0088,0.30812 -0.04008,0.58123 -0.03951,0.3452 -0.04315,0.50119 -0.01194,0.51175 0.02869,0.01 0.0184,0.0712 -0.0285,0.17019 -0.07399,0.15625 -0.162722,0.19178 -0.285317,0.11425 -0.04114,-0.026 -0.07335,-0.0222 -0.0946,0.0112 -0.0214,0.0337 -0.03244,0.0243 -0.03287,-0.028 z m -28.430563,-0.4644 c -0.01187,-0.0309 -0.01588,-0.22621 -0.0089,-0.43392 l 0.01269,-0.37765 0.02081,0.43401 c 0.02064,0.43049 0.01702,0.48603 -0.02461,0.37756 z m 0.665933,-0.1554 c 0,-0.0582 0.0096,-0.082 0.02135,-0.0529 0.01174,0.0291 0.01174,0.0767 0,0.10583 -0.01174,0.0291 -0.02135,0.005 -0.02135,-0.0529 z m 27.428657,0.0176 c 0.002,-0.0493 0.01206,-0.0594 0.02558,-0.0256 0.01223,0.0306 0.01073,0.0671 -0.0033,0.0811 -0.01407,0.0141 -0.02407,-0.0109 -0.02223,-0.0556 z m 0.0033,-0.18698 c 0,-0.0582 0.0096,-0.082 0.02135,-0.0529 0.01174,0.0291 0.01174,0.0767 0,0.10583 -0.01174,0.0291 -0.02135,0.005 -0.02135,-0.0529 z m -26.585293,-0.0423 c 0,-0.0582 0.0096,-0.082 0.02135,-0.0529 0.01174,0.0291 0.01174,0.0767 0,0.10584 -0.01174,0.0291 -0.02135,0.005 -0.02135,-0.0529 z m -0.843529,-0.0847 c 0,-0.0815 0.0087,-0.11483 0.01936,-0.0741 0.01065,0.0408 0.01065,0.10742 0,0.14817 -0.01065,0.0407 -0.01936,0.007 -0.01936,-0.0741 z m 8.097011,-0.13377 c -0.186266,-0.0469 -0.472016,-0.1105 -0.635,-0.14128 -0.18029,-0.0341 -0.243795,-0.0575 -0.162169,-0.0598 0.07379,-0.002 0.37859,0.0454 0.677333,0.10561 0.659015,0.13278 0.936568,0.12109 1.278642,-0.0539 0.135098,-0.0691 0.277055,-0.18174 0.33228,-0.26369 0.109915,-0.1631 0.126964,-0.14309 0.03296,0.0387 -0.0349,0.0675 -0.126696,0.17094 -0.203991,0.2299 -0.325087,0.24795 -0.732205,0.29249 -1.320054,0.14441 z m -1.152777,-0.23423 c 0.04119,-0.0107 0.09834,-0.01 0.127,0.002 0.02866,0.0116 -0.005,0.0204 -0.07489,0.0195 -0.06985,-8.7e-4 -0.0933,-0.0103 -0.05211,-0.0211 z m -7.67038,-0.16469 c 0.002,-0.0493 0.01206,-0.0593 0.02558,-0.0256 0.01223,0.0306 0.01073,0.0671 -0.0033,0.0811 -0.01407,0.0141 -0.02407,-0.0109 -0.02223,-0.0556 z m 16.264046,-0.047 c 0.04119,-0.0107 0.09834,-0.01 0.127,0.002 0.02866,0.0116 -0.005,0.0204 -0.07489,0.0195 -0.06985,-8.6e-4 -0.0933,-0.0103 -0.05211,-0.0211 z m -1.789389,-0.0847 c -0.05821,-0.01 -0.401108,-0.0679 -0.762,-0.12906 -0.519596,-0.0881 -0.797143,-0.1112 -1.3335,-0.11121 -0.602552,-2e-5 -0.64228,-0.004 -0.359833,-0.0373 0.523367,-0.0615 1.554872,-0.009 2.243666,0.11426 0.769747,0.13765 0.923249,0.18697 0.5715,0.18362 -0.1397,-0.001 -0.301625,-0.0105 -0.359833,-0.0203 z m -4.783667,-1.06211 c 0,-0.0676 -0.04286,-0.19905 -0.09525,-0.29221 -0.08898,-0.15823 -1.534034,-1.59828 -1.767416,-1.7613 -0.08221,-0.0574 -0.06656,-0.0551 0.07014,0.0104 0.424895,0.2036 1.631375,1.34804 1.790197,1.69813 0.09225,0.20334 0.11213,0.39996 0.04466,0.44166 -0.02451,0.0152 -0.04233,-0.0256 -0.04233,-0.0967 z m -0.169333,-1.2473 c -0.193257,-0.21121 -0.264105,-0.30937 -0.18105,-0.25085 0.113889,0.0803 0.305039,0.29311 0.491279,0.54708 0.09823,0.13395 -0.01923,0.0218 -0.310229,-0.29623 z m 6.902187,-0.62296 c 0.590571,-0.72404 1.363032,-1.35261 1.82509,-1.48512 0.224029,-0.0643 0.07765,0.0638 -0.484295,0.42371 -0.408917,0.2619 -0.689998,0.48405 -1.044462,0.8255 -0.343529,0.33092 -0.429959,0.39973 -0.296333,0.23591 z m -5.163178,-1.16925 c 0.002,-0.0493 0.01206,-0.0593 0.02558,-0.0256 0.01223,0.0306 0.01072,0.0671 -0.0033,0.0811 -0.01407,0.0141 -0.02407,-0.0109 -0.02223,-0.0556 z m -1.261953,-0.005 c 0.04119,-0.0107 0.09834,-0.01 0.127,0.002 0.02866,0.0116 -0.005,0.0204 -0.07489,0.0195 -0.06985,-8.6e-4 -0.0933,-0.0103 -0.05211,-0.0211 z m 1.158069,-0.10295 c -0.03529,-0.17646 -0.0011,-0.21066 0.03704,-0.037 0.01607,0.0732 0.0204,0.14187 0.0096,0.15266 -0.01078,0.0108 -0.03178,-0.0412 -0.04666,-0.11562 z m -1.412069,0.0606 c 0.04119,-0.0107 0.09834,-0.01 0.127,0.002 0.02866,0.0116 -0.005,0.0204 -0.07489,0.0195 -0.06985,-8.7e-4 -0.0933,-0.0103 -0.05211,-0.0211 z m 0.147361,-0.1257 c 0.0291,-0.0117 0.07673,-0.0117 0.105833,0 0.0291,0.0117 0.0053,0.0213 -0.05292,0.0213 -0.05821,0 -0.08202,-0.01 -0.05292,-0.0213 z m -0.275167,-0.0435 c 0.04075,-0.0106 0.107421,-0.0106 0.148167,0 0.04075,0.0106 0.0074,0.0194 -0.07408,0.0194 -0.08149,0 -0.114829,-0.009 -0.07408,-0.0194 z m -0.941916,-0.0767 c -0.05821,-0.0333 -0.210609,-0.0639 -0.338667,-0.068 -0.223194,-0.007 -0.225823,-0.009 -0.0635,-0.0334 0.128848,-0.0197 0.150793,-0.0334 0.09179,-0.0575 -0.04265,-0.0174 -0.115211,-0.0316 -0.161248,-0.0316 -0.04604,0 -0.07193,-0.0191 -0.05754,-0.0423 0.01439,-0.0233 0.0028,-0.0423 -0.02572,-0.0423 -0.02854,0 -0.04188,-0.01 -0.02966,-0.0222 0.04188,-0.0419 0.711548,0.267 0.711548,0.32819 0,0.0416 -7.24e-4,0.0414 -0.127,-0.0308 z m 1.196722,-0.008 c 0.04119,-0.0107 0.09834,-0.01 0.127,0.002 0.02866,0.0116 -0.005,0.0204 -0.07489,0.0195 -0.06985,-8.7e-4 -0.0933,-0.0104 -0.05211,-0.0211 z m -0.540556,-0.0553 c -0.204482,-0.028 -0.205918,-0.0292 -0.04233,-0.0332 0.09313,-0.002 0.245533,0.0115 0.338666,0.0308 0.138672,0.0287 0.146338,0.0347 0.04233,0.0332 -0.06985,-9.8e-4 -0.22225,-0.0148 -0.338666,-0.0308 z m -1.681992,-0.073 c 0.07609,-0.009 0.190388,-0.009 0.254,4.3e-4 0.06361,0.01 0.0014,0.0174 -0.138341,0.0171 -0.1397,-2.6e-4 -0.191746,-0.008 -0.115659,-0.0176 z m 1.724326,-0.0349 -0.381,-0.0545 0.338666,0.0219 c 0.371065,0.024 0.778889,0.089 0.550333,0.0877 -0.06985,-3.8e-4 -0.29845,-0.0252 -0.507999,-0.0551 z m -2.125705,-0.0927 c 0.134729,-0.008 0.344279,-0.008 0.465667,1.7e-4 0.121387,0.009 0.01115,0.0154 -0.244962,0.0153 -0.256117,-9e-5 -0.355434,-0.007 -0.220705,-0.0155 z m 1.52326,0.002 c 0.04119,-0.0107 0.09834,-0.01 0.127,0.002 0.02866,0.0116 -0.005,0.0204 -0.07489,0.0195 -0.06985,-8.7e-4 -0.0933,-0.0104 -0.05211,-0.0211 z m -1.650045,-0.1291 c 0.158131,-0.008 0.405781,-0.008 0.550334,1.3e-4 0.144552,0.008 0.01517,0.0149 -0.287511,0.0149 -0.302683,-8e-5 -0.420954,-0.007 -0.262823,-0.015 z m -2.213677,-0.2624 c 0,-0.0219 0.01905,-0.0516 0.04233,-0.066 0.02328,-0.0144 0.04233,0.004 0.04233,0.0398 0,0.0363 -0.01905,0.066 -0.04233,0.066 -0.02328,0 -0.04233,-0.0179 -0.04233,-0.0398 z m -0.164695,-0.2396 c -0.0055,-0.1565 0.07212,-0.3979 0.127992,-0.3979 0.02251,0 0.01962,0.0375 -0.0067,0.0866 -0.0255,0.0477 -0.06218,0.16671 -0.08152,0.26458 -0.0311,0.15743 -0.03569,0.16281 -0.03979,0.0467 z m 0.164695,-0.45621 c 0,-0.009 0.02901,-0.0401 0.06447,-0.0695 0.05391,-0.0447 0.0601,-0.0421 0.0378,0.016 -0.02277,0.0593 -0.102273,0.10093 -0.102273,0.0535 z m -1.872078,8.19202 c 0.462186,-0.20971 0.929112,-0.37441 1.385245,-0.4886 0.766172,-0.19182 2.309988,-0.3826 2.967702,-0.36674 0.832089,0.0201 0.902833,-0.20799 0.268277,-0.86487 -0.232505,-0.24068 -0.314112,-0.36391 -0.434544,-0.65616 -0.08155,-0.19791 -0.161345,-0.43604 -0.177317,-0.52917 -0.05932,-0.34592 -0.370878,-1.35927 -0.45813,-1.49008 -0.08302,-0.12447 -0.104289,-0.1335 -0.263184,-0.11172 -0.131562,0.018 -0.190814,0.006 -0.24799,-0.0514 -0.09365,-0.0937 -0.06312,-0.29039 0.06649,-0.42835 l 0.09017,-0.096 -0.09082,-0.26887 c -0.04995,-0.14788 -0.08892,-0.2961 -0.0866,-0.32939 0.0023,-0.0333 0.01831,-0.0129 0.03552,0.0453 0.02962,0.10014 0.03393,0.0967 0.08021,-0.0635 0.07161,-0.24792 0.06225,-0.34659 -0.03528,-0.3721 -0.07269,-0.019 -0.08538,-2.5e-4 -0.08967,0.13265 -0.0048,0.14851 -0.0061,0.14978 -0.03175,0.0313 -0.01471,-0.0679 -0.04772,-0.13049 -0.07336,-0.13902 -0.02564,-0.009 -0.196434,0.0639 -0.379539,0.16089 -0.472324,0.25024 -0.870378,0.3768 -1.185137,0.3768 -0.164034,0 -0.483756,-0.057 -0.849835,-0.15145 -0.631335,-0.16292 -0.790911,-0.16957 -1.395727,-0.0582 -0.268636,0.0495 -0.332112,0.0472 -0.592667,-0.0217 -0.622557,-0.16446 -0.712454,-0.094 -0.472459,0.37014 0.167352,0.32368 0.649122,1.50273 0.79256,1.93967 0.125909,0.38353 0.417237,1.90578 0.448843,2.34528 0.01988,0.27652 0.0082,0.48217 -0.04271,0.74994 -0.118437,0.62324 0.01209,0.67995 0.771713,0.33527 z m 0.136411,-0.4715 c 0.05821,-0.0503 0.249984,-0.21386 0.426168,-0.36352 0.176185,-0.14966 0.410645,-0.37671 0.521023,-0.50456 0.206248,-0.2389 0.324107,-0.30845 0.232501,-0.13721 -0.104881,0.19606 -0.526788,0.58936 -0.8998,0.83878 -0.212149,0.14186 -0.3381,0.21679 -0.279892,0.16651 z m 1.421326,-0.87706 c 0.135439,-0.19141 0.253643,-0.34062 0.262676,-0.33159 0.02787,0.0279 -0.268773,0.46184 -0.392215,0.57378 -0.0715,0.0648 -0.02133,-0.029 0.129539,-0.24219 z m 2.409841,0.0478 c -0.20955,-0.0551 -0.398463,-0.10059 -0.419806,-0.10108 -0.02134,-4.9e-4 -0.02831,-0.0114 -0.01549,-0.0242 0.01282,-0.0128 0.180131,0.0167 0.371791,0.0657 0.191659,0.0489 0.355663,0.0818 0.364452,0.073 0.0088,-0.009 -0.179154,-0.18955 -0.417652,-0.40168 -0.238498,-0.21213 -0.547933,-0.50411 -0.687633,-0.64884 -0.232145,-0.2405 -0.204826,-0.22385 0.3175,0.19353 0.829921,0.66318 1.016677,0.85519 0.899583,0.9249 -0.01746,0.0104 -0.2032,-0.0262 -0.41275,-0.0813 z m -0.579438,-0.17322 c 0.03056,-0.0122 0.06707,-0.0107 0.08114,0.003 0.01407,0.0141 -0.01094,0.0241 -0.05556,0.0222 -0.04932,-0.002 -0.05935,-0.0121 -0.02558,-0.0256 z m -1.791229,-1.92549 c -0.116416,-0.0954 -0.506941,-0.37171 -0.867833,-0.6141 -0.360892,-0.24239 -0.774643,-0.5244 -0.919447,-0.62668 -0.144805,-0.10229 -0.34483,-0.2058 -0.4445,-0.23002 l -0.181219,-0.044 0.180967,0.0162 c 0.09953,0.009 0.280507,0.0678 0.402166,0.13091 0.462945,0.24001 1.451301,0.9302 1.761907,1.23038 0.177077,0.17113 0.312434,0.31105 0.300793,0.31092 -0.01164,-1.2e-4 -0.116417,-0.0782 -0.232834,-0.17361 z m 20.206133,2.78614 c 0.142154,-0.0789 0.261433,-0.28131 0.261754,-0.44421 1.69e-4,-0.0779 -0.02886,-0.24188 -0.06447,-0.36438 -0.08361,-0.28761 -0.04617,-0.38474 0.239553,-0.62156 0.960635,-0.79618 1.519933,-1.59144 1.792455,-2.54866 0.0586,-0.20584 0.184047,-0.84401 0.278767,-1.41817 0.09472,-0.57415 0.204375,-1.11022 0.243679,-1.19125 0.0599,-0.12351 0.124957,-0.16924 0.402263,-0.28282 0.38028,-0.15576 0.452364,-0.20592 0.452364,-0.31478 0,-0.17746 -0.535489,-0.30156 -1.3335,-0.30904 -0.432044,-0.004 -0.491034,0.006 -0.817011,0.13456 -0.415246,0.16418 -0.799841,0.21021 -1.468989,0.1758 -0.435616,-0.0224 -0.523034,-0.0434 -1.354666,-0.3256 -0.957448,-0.32489 -1.278947,-0.39959 -1.660575,-0.38584 -0.134434,0.005 -0.416199,-0.006 -0.626145,-0.0251 -0.337117,-0.03 -0.388883,-0.0253 -0.443024,0.0399 -0.0546,0.0658 -0.0455,0.10345 0.08319,0.3443 0.07947,0.14875 0.169295,0.27044 0.199607,0.27044 0.07839,0 0.07057,0.0258 -0.06964,0.22957 -0.09382,0.13637 -0.112716,0.19336 -0.0762,0.22988 0.03652,0.0365 0.03093,0.0486 -0.02255,0.0486 -0.03996,0 -0.107775,0.0719 -0.154815,0.16409 -0.138733,0.27193 -0.484642,1.16546 -0.763125,1.97124 -0.397232,1.14937 -0.501371,1.32632 -1.027726,1.74629 -0.308084,0.24582 -0.455072,0.43745 -0.455336,0.59364 -1.69e-4,0.11064 0.09064,0.16559 0.412155,0.24933 0.342266,0.0891 0.663251,0.27548 1.040799,0.60417 0.376279,0.32759 0.77943,0.58147 1.150388,0.72443 0.330327,0.12731 1.136301,0.16684 1.52892,0.075 0.191877,-0.0449 0.339856,-0.0511 0.5715,-0.0241 0.448892,0.0524 0.54383,0.093 0.882058,0.37696 0.406932,0.34168 0.576319,0.40052 0.798322,0.27733 z m -0.7963,-1.1704 c -0.128059,-0.0676 -0.219067,-0.1239 -0.202241,-0.125 0.03961,-0.003 0.498574,0.21448 0.498574,0.23579 0,0.0346 -0.0722,0.008 -0.296333,-0.11079 z m -4.094944,-1.08767 c 0.04119,-0.0107 0.09834,-0.01 0.127,0.002 0.02866,0.0116 -0.005,0.0204 -0.07489,0.0195 -0.06985,-8.6e-4 -0.0933,-0.0104 -0.05211,-0.0211 z m -0.477056,-0.0509 c -0.258193,-0.0718 0.0031,-0.29854 0.465289,-0.40365 0.352919,-0.0803 0.896146,-0.0828 1.270378,-0.006 l 0.275166,0.0565 -0.601166,0.005 c -0.330642,0.003 -0.702117,0.0255 -0.8255,0.0504 -0.319148,0.0645 -0.6265,0.16697 -0.6265,0.20881 0,0.0196 0.100012,0.0539 0.22225,0.0762 0.179286,0.0327 0.193607,0.0407 0.07408,0.0413 -0.08149,4.4e-4 -0.195792,-0.0124 -0.254,-0.0286 z m 1.981729,-0.58371 c 0.03056,-0.0122 0.06707,-0.0107 0.08114,0.003 0.01407,0.0141 -0.01094,0.0241 -0.05556,0.0222 -0.04932,-0.002 -0.05935,-0.0121 -0.02558,-0.0256 z m -0.256646,-0.0414 c 0.0291,-0.0117 0.07673,-0.0117 0.105834,0 0.0291,0.0117 0.0053,0.0214 -0.05292,0.0214 -0.05821,0 -0.08202,-0.01 -0.05292,-0.0214 z m -0.211666,-0.0423 c 0.0291,-0.0118 0.07673,-0.0118 0.105833,0 0.0291,0.0117 0.0053,0.0213 -0.05292,0.0213 -0.05821,0 -0.08202,-0.01 -0.05292,-0.0213 z m 2.457979,-0.12789 c 0.03056,-0.0122 0.06707,-0.0107 0.08114,0.003 0.01407,0.0141 -0.01094,0.0241 -0.05556,0.0222 -0.04932,-0.002 -0.05935,-0.0121 -0.02558,-0.0256 z m 0.515937,-0.12665 c 0.30681,-0.0794 0.542692,-0.10793 0.994833,-0.12029 l 0.592667,-0.0162 -0.618757,0.0571 c -0.340317,0.0314 -0.766217,0.0876 -0.946445,0.12487 -0.47584,0.0984 -0.487369,0.0749 -0.0223,-0.0455 z m 0.169333,-0.57959 c 0,-0.0296 0.615875,-0.23571 0.9525,-0.31874 0.372167,-0.0918 0.996633,-0.18608 1.027564,-0.15514 0.02276,0.0228 -0.07531,0.0464 -0.456064,0.11016 -0.317058,0.053 -1.192091,0.2665 -1.368005,0.33369 -0.12802,0.0489 -0.155995,0.0543 -0.155995,0.03 z m -1.81208,-1.953 c 8.64e-4,-0.0699 0.01035,-0.0933 0.02108,-0.0521 0.01073,0.0412 0.01003,0.0983 -0.0016,0.127 -0.0116,0.0287 -0.02038,-0.005 -0.01951,-0.0749 z m 0.164423,0.0388 c 0.002,-0.0493 0.01206,-0.0593 0.02558,-0.0256 0.01223,0.0306 0.01073,0.0671 -0.0033,0.0811 -0.01407,0.0141 -0.02407,-0.0109 -0.02224,-0.0556 z m -0.208325,-0.27164 c 0,-0.0582 0.0096,-0.082 0.02135,-0.0529 0.01174,0.0291 0.01174,0.0767 0,0.10583 -0.01174,0.0291 -0.02135,0.005 -0.02135,-0.0529 z m -0.10112,-0.32889 c -0.09239,-0.25692 -0.06397,-0.28534 0.03256,-0.0326 0.04075,0.10671 0.06605,0.20206 0.05622,0.21189 -0.0098,0.01 -0.04978,-0.0709 -0.08879,-0.17932 z m 4.581769,-0.83655 c 0.358923,-0.11938 1.227667,-0.16401 1.227667,-0.0631 0,0.0533 -0.20336,0.0787 -0.827577,0.10321 -0.565078,0.0222 -0.582361,0.0205 -0.40009,-0.0401 z m -24.903464,4.69587 c -0.01407,-0.0141 -0.05058,-0.0156 -0.08114,-0.003 -0.03377,0.0135 -0.02374,0.0235 0.02558,0.0256 0.04463,0.002 0.06963,-0.008 0.05556,-0.0222 z m 25.538464,-0.52476 c -0.03493,-0.0226 -0.08255,-0.041 -0.105833,-0.041 -0.02328,0 -0.01376,0.0185 0.02117,0.041 0.03492,0.0226 0.08255,0.041 0.105834,0.041 0.02328,0 0.01376,-0.0185 -0.02117,-0.041 z m -7.801289,-1.30117 c -0.0097,-0.0643 -0.01795,-0.0217 -0.01827,0.0947 -2.96e-4,0.11642 0.0076,0.16907 0.01769,0.117 0.01005,-0.0521 0.01031,-0.14732 5.76e-4,-0.21167 z M 24.304911,142.4865 c 0.116564,-0.19118 0.114572,-0.54753 -0.004,-0.71404 -0.04851,-0.0681 -0.158044,-0.15348 -0.243417,-0.1897 -0.16028,-0.068 -0.263899,-0.0674 -1.213555,0.007 -0.750465,0.0591 -1.017158,0.0492 -1.117468,-0.0417 -0.174877,-0.15841 -0.08861,-0.41369 0.237632,-0.7032 l 0.202502,-0.1797 -0.148166,0.0259 c -0.08149,0.0142 -0.286279,0.0385 -0.455084,0.054 -0.168804,0.0154 -0.306916,0.0383 -0.306916,0.0506 0,0.0124 0.06191,0.0773 0.137583,0.14413 0.101904,0.09 0.112124,0.10926 0.03941,0.0741 -0.054,-0.0261 -0.200845,-0.14043 -0.32633,-0.25407 -0.305936,-0.27706 -0.468123,-0.35919 -0.595079,-0.30135 -0.21214,0.0967 -0.180128,0.49934 0.08518,1.0714 0.149509,0.32238 0.151833,0.32478 0.356607,0.3687 0.113365,0.0243 0.365946,0.10345 0.561293,0.17585 0.22686,0.0841 0.471045,0.14024 0.6759,0.15543 l 0.320726,0.0238 0.525941,-0.26512 c 0.439401,-0.2215 0.496518,-0.26067 0.347124,-0.23806 -0.09835,0.0149 -0.408407,0.0458 -0.689016,0.0688 -0.280609,0.0229 -0.590666,0.0526 -0.689016,0.0659 -0.12287,0.0166 -0.15895,0.0114 -0.115317,-0.0166 0.07376,-0.0474 0.551339,-0.11835 1.037166,-0.15406 0.483459,-0.0355 0.65999,-0.0664 0.632682,-0.11058 -0.01341,-0.0217 0.07453,-0.0353 0.200903,-0.0312 0.213852,0.007 0.215979,0.008 0.04387,0.0236 -0.09948,0.009 -0.170392,0.0332 -0.15757,0.054 0.01282,0.0208 0.116064,0.0267 0.229429,0.0133 0.183071,-0.0217 0.211777,-0.0138 0.256715,0.0701 0.03793,0.0709 0.03902,0.1405 0.0044,0.27812 -0.05711,0.22681 -0.05844,0.36246 -0.0049,0.50317 0.05313,0.13974 0.06968,0.13693 0.170846,-0.029 z m 13.06712,-0.33602 c -0.01351,-0.0338 -0.02355,-0.0237 -0.02558,0.0256 -0.0018,0.0446 0.0082,0.0696 0.02224,0.0556 0.01407,-0.0141 0.01557,-0.0506 0.0033,-0.0811 z m -8.760139,-0.11985 0.108633,-0.0855 0.07961,0.0855 c 0.04379,0.047 0.107443,0.0855 0.141461,0.0855 0.06035,0 0.07283,-0.0395 0.07968,-0.25191 0.0024,-0.0735 0.03331,-0.11088 0.106037,-0.12817 0.05648,-0.0134 0.110116,-0.0467 0.119187,-0.0739 0.0174,-0.0522 -0.279692,-0.22336 -0.387736,-0.22336 -0.04209,0 -0.09405,-0.10316 -0.154609,-0.30692 -0.154582,-0.52012 -0.268168,-0.68037 -0.700034,-0.98759 -0.228978,-0.16289 -0.577267,-0.57386 -0.732638,-0.86449 -0.06846,-0.12806 -0.191754,-0.30903 -0.273989,-0.40217 l -0.149518,-0.16933 -0.0061,0.127 -0.0061,0.127 -0.03589,-0.127 c -0.01974,-0.0699 -0.04636,-0.17792 -0.05917,-0.24015 -0.0128,-0.0622 -0.0726,-0.17178 -0.132888,-0.24342 -0.09657,-0.11477 -0.135599,-0.13017 -0.328096,-0.12945 -0.120168,4.5e-4 -0.313737,0.0289 -0.430153,0.0633 l -0.211667,0.0625 0.183032,-0.0219 c 0.111967,-0.0134 0.173249,-0.006 0.157835,0.0188 -0.01386,0.0224 0.01332,0.0379 0.06039,0.0343 0.04707,-0.004 0.08558,-0.0214 0.08558,-0.0398 0,-0.0183 0.02109,-0.0333 0.04686,-0.0333 0.02577,0 0.03552,0.0296 0.02165,0.0657 -0.01446,0.0377 -0.0074,0.0547 0.01664,0.0398 0.05856,-0.0362 0.05226,0.006 -0.02274,0.15057 -0.06013,0.11627 -0.05925,0.12489 0.01267,0.12489 0.06336,0 0.07414,0.0266 0.05996,0.14817 -0.0195,0.167 0.03951,0.19432 0.132612,0.0614 0.06005,-0.0857 0.06111,-0.0855 0.08787,0.0212 0.03054,0.12168 0.08847,0.14081 0.126484,0.0418 0.01397,-0.0364 0.04553,-0.0537 0.07013,-0.0385 0.02758,0.017 0.0083,0.0592 -0.0503,0.11007 -0.09419,0.0817 -0.09543,0.0817 -0.139683,-5.5e-4 -0.03972,-0.0738 -0.05374,-0.0763 -0.126823,-0.0227 -0.09599,0.0704 -0.148946,0.0191 -0.150015,-0.14536 -4.87e-4,-0.0748 -0.01795,-0.0931 -0.06984,-0.0732 -0.05904,0.0227 -0.06584,0.002 -0.04634,-0.14384 0.02581,-0.19246 0.04789,-0.17956 -0.434809,-0.25394 -0.151342,-0.0233 -0.386166,-0.0426 -0.521832,-0.0427 l -0.246664,-3.3e-4 0.128085,0.10777 c 0.07045,0.0593 0.178349,0.21051 0.239782,0.33608 0.135489,0.27693 0.150385,0.6843 0.03438,0.94012 -0.0402,0.0887 -0.07448,0.18427 -0.07616,0.21248 -0.0041,0.0685 -0.0919,0.15306 -0.17099,0.16467 -0.08811,0.0129 -0.08177,-0.008 0.05784,-0.18669 0.232996,-0.29901 0.28171,-0.68632 0.128807,-1.0241 -0.156668,-0.3461 -0.379019,-0.52069 -0.753627,-0.59173 -0.274921,-0.0521 -0.480509,0.008 -0.616384,0.18044 -0.134133,0.17018 -0.134096,0.13502 3.81e-4,-0.37024 0.136228,-0.51182 0.115408,-0.82229 -0.06777,-1.01058 -0.140294,-0.1442 -0.272903,-0.13827 -0.388659,0.0174 -0.127704,0.17173 -0.153114,0.36803 -0.08725,0.67406 0.08088,0.37584 0.04432,1.01131 -0.0891,1.5484 -0.206597,0.83166 -0.183443,1.06561 0.103344,1.04425 0.09838,-0.007 0.126647,10e-4 0.08708,0.0272 -0.03738,0.0242 0.136614,0.0493 0.480753,0.0691 0.515035,0.0297 0.572975,0.0239 0.91132,-0.0914 0.04924,-0.0168 0.051,-0.0128 0.0078,0.0175 -0.07053,0.0496 0.36568,0.0935 0.933173,0.094 0.226507,1.7e-4 0.645607,0.0373 0.931333,0.0825 0.285727,0.0452 0.686191,0.0951 0.88992,0.11084 0.203729,0.0157 0.370417,0.0442 0.370417,0.0633 0,0.0191 0.13335,0.18946 0.296333,0.37869 0.162983,0.18922 0.296333,0.35437 0.296333,0.36701 0,0.0126 -0.04762,0.0604 -0.105833,0.10622 -0.119949,0.0943 -0.14116,0.17266 -0.03582,0.13224 0.0602,-0.0231 0.06675,-0.003 0.04672,0.14683 -0.03273,0.244 -9.01e-4,0.26959 0.169043,0.13591 z M 27.01378,140.4689 c -0.10242,-0.0291 -0.101262,-0.031 0.03589,-0.059 0.174431,-0.0357 0.381172,0.006 0.296221,0.0602 -0.06606,0.0419 -0.182184,0.0415 -0.332106,-0.001 z m 0.22225,-0.0318 c -0.0291,-0.0118 -0.07673,-0.0118 -0.105833,0 -0.0291,0.0117 -0.0053,0.0214 0.05292,0.0214 0.05821,0 0.08202,-0.01 0.05292,-0.0214 z m -4.067142,-0.43763 c -0.0012,-0.27081 0.07536,-0.51983 0.145913,-0.47482 0.02683,0.0171 0.03859,0.09 0.02701,0.16747 -0.01128,0.0754 -0.03743,0.12669 -0.0581,0.11392 -0.02068,-0.0128 -0.03949,0.0303 -0.04181,0.0957 -0.0023,0.0654 -0.01947,0.16654 -0.03811,0.22475 -0.02583,0.0806 -0.03413,0.0504 -0.03489,-0.127 z m 3.548559,-0.94797 c 0,-0.009 0.02956,-0.028 0.0657,-0.0418 0.03767,-0.0145 0.05467,-0.007 0.03983,0.0166 -0.02486,0.0402 -0.105533,0.0595 -0.105533,0.0252 z m 10.611369,2.84238 c -0.01174,-0.0291 -0.02135,-0.005 -0.02135,0.0529 0,0.0582 0.0096,0.082 0.02135,0.0529 0.01174,-0.0291 0.01174,-0.0767 0,-0.10584 z m -0.04233,-0.21166 c -0.01174,-0.0291 -0.02135,-0.005 -0.02135,0.0529 0,0.0582 0.0096,0.082 0.02135,0.0529 0.01174,-0.0291 0.01174,-0.0767 0,-0.10583 z m -8.589455,-1.05925 c -0.116647,-0.0438 -0.124326,-0.0276 -0.06337,0.13388 l 0.05208,0.13797 0.04908,-0.1196 c 0.04349,-0.10596 0.03919,-0.12331 -0.03779,-0.15225 z m -0.05342,-0.15784 c 0.01439,-0.0233 0.04521,-0.0423 0.0685,-0.0423 0.02328,0 0.03056,0.019 0.01617,0.0423 -0.03847,0.0623 0.07706,0.0515 0.168966,-0.0157 0.07016,-0.0513 0.05032,-0.0572 -0.171826,-0.0512 -0.138127,0.004 -0.271088,-0.003 -0.295468,-0.0161 -0.02438,-0.0126 -0.008,0.0104 0.03644,0.0512 0.09181,0.0842 0.139517,0.0928 0.177222,0.0317 z m 0.400572,-0.28956 c 0.190716,-0.10228 0.196893,-0.13982 0.0379,-0.23034 -0.07284,-0.0415 -0.121991,-0.0859 -0.109216,-0.0986 0.01278,-0.0128 0.07167,0.009 0.130872,0.0473 0.162682,0.10659 0.230641,0.0318 0.08421,-0.0926 -0.116945,-0.0994 -0.11723,-0.10056 -0.0085,-0.0347 0.149949,0.0908 0.179901,0.0345 0.145122,-0.27288 -0.02698,-0.23851 -0.02397,-0.248 0.14276,-0.44977 0.178042,-0.21545 0.268755,-0.38245 0.315038,-0.57998 0.06107,-0.26063 -0.253152,-0.17835 -0.540827,0.14161 l -0.183031,0.20358 -0.184431,-0.18792 c -0.101437,-0.10336 -0.218586,-0.19877 -0.260331,-0.21202 -0.05947,-0.0189 -0.06674,-0.0412 -0.0336,-0.10313 0.05222,-0.0976 0.05635,-0.74826 0.0049,-0.78003 -0.0701,-0.0433 -0.237605,0.13481 -0.382428,0.4067 l -0.144619,0.27152 -0.271035,-0.0132 c -0.173122,-0.008 -0.261579,0.002 -0.244859,0.0291 0.01622,0.0263 -0.01889,0.0336 -0.09235,0.0194 -0.0902,-0.0175 -0.153693,0.007 -0.265725,0.10103 -0.125255,0.10554 -0.147205,0.1507 -0.147205,0.3029 0,0.14498 0.02138,0.19445 0.112852,0.26108 0.06207,0.0452 0.192823,0.20053 0.290565,0.34515 0.09774,0.14463 0.289414,0.38037 0.425936,0.52387 0.136523,0.14351 0.248223,0.2902 0.248223,0.32598 0,0.10813 0.131879,0.1513 0.466327,0.15265 0.230032,9.3e-4 0.358394,-0.0203 0.463411,-0.0766 z m -1.044461,-0.47094 c -0.07474,-0.0456 -0.187353,-0.16456 -0.250254,-0.26443 -0.0629,-0.0999 -0.177963,-0.28129 -0.255694,-0.40317 -0.151757,-0.23794 -0.178047,-0.39372 -0.08016,-0.47496 0.100235,-0.0832 0.247067,-0.0325 0.350125,0.12074 0.09458,0.14069 0.139935,0.29906 0.04973,0.17366 -0.03799,-0.0528 -0.04144,-0.0504 -0.02052,0.014 0.01384,0.0426 0.02516,0.0866 0.02516,0.0977 0,0.0111 0.01905,0.008 0.04233,-0.006 0.02328,-0.0144 0.04261,-10e-4 0.04295,0.0292 3.39e-4,0.0305 0.100354,0.10329 0.22225,0.1618 0.155571,0.0747 0.246153,0.15202 0.303909,0.2595 0.07833,0.14578 0.07879,0.15844 0.0096,0.26404 -0.08878,0.1355 -0.246395,0.14545 -0.439444,0.0277 z m 0.276354,-0.10733 c -0.02652,-0.0582 -0.07374,-0.10583 -0.104927,-0.10583 -0.03119,0 -0.05674,-0.0238 -0.05679,-0.0529 -8.5e-5,-0.0492 -0.368106,-0.32808 -0.432961,-0.32808 -0.05091,0 0.234372,0.42741 0.341563,0.51172 0.05659,0.0445 0.147545,0.0809 0.202115,0.0809 0.09047,0 0.09496,-0.009 0.051,-0.10583 z m 0.03852,-0.21938 c 0.0092,-0.0275 -0.02259,-0.0711 -0.07058,-0.0967 -0.07773,-0.0416 -0.08724,-0.0347 -0.08724,0.0637 0,0.0803 0.01924,0.1067 0.07057,0.0967 0.03882,-0.008 0.07807,-0.0362 0.08724,-0.0637 z m -0.559982,-0.64845 c -0.01439,-0.0233 -0.04409,-0.0423 -0.066,-0.0423 -0.02191,0 -0.03984,0.019 -0.03984,0.0423 0,0.0233 0.0297,0.0423 0.066,0.0423 0.0363,0 0.05422,-0.019 0.03983,-0.0423 z m 0.706967,0.37253 c -0.110288,-0.11029 -0.0038,-0.24283 0.245533,-0.30575 0.07414,-0.0187 0.06162,-0.004 -0.04178,0.0486 -0.08119,0.0414 -0.154488,0.11105 -0.162891,0.15468 -0.01389,0.0721 0.0082,0.0776 0.242863,0.0607 0.256655,-0.0186 0.34487,0.0171 0.162892,0.0659 -0.15847,0.0425 -0.392678,0.0298 -0.446617,-0.0241 z m 0.797389,0.0416 c -8.38e-4,-0.0167 0.07468,-0.14821 0.167811,-0.29231 0.256305,-0.39655 0.20689,-0.51239 -0.09347,-0.21911 -0.08829,0.0862 -0.160535,0.13741 -0.160535,0.11376 0,-0.0542 0.201872,-0.24424 0.328712,-0.3095 0.145397,-0.0748 0.16766,0.0467 0.0533,0.29082 -0.0917,0.19578 -0.292695,0.47866 -0.295824,0.41634 z m -1.296328,-0.13322 c -0.0512,-0.13344 4.53e-4,-0.25942 0.111681,-0.27237 0.144688,-0.0169 0.288531,0.13514 0.224576,0.23731 -0.05916,0.0945 -0.303659,0.12 -0.336257,0.0351 z m 0.172972,-0.0269 -0.127,-0.0323 0.144145,-0.005 c 0.141391,-0.005 0.142681,-0.007 0.06752,-0.0897 -0.107326,-0.1186 -0.232833,-0.11099 -0.232833,0.0141 0,0.12748 0.03186,0.15635 0.165805,0.15021 0.105136,-0.005 0.104455,-0.006 -0.01764,-0.0373 z m -0.165217,-0.35025 c -0.0443,-0.0331 -0.06699,-0.0822 -0.05042,-0.109 0.04547,-0.0736 0.110874,-0.0585 0.08123,0.0188 -0.02282,0.0595 0.0089,0.064 0.265912,0.0376 0.203371,-0.0209 0.278991,-0.0165 0.249488,0.0145 -0.07502,0.0788 -0.456246,0.10538 -0.546217,0.0381 z m 0.489401,-0.36942 c 0,-0.0582 0.0096,-0.082 0.02135,-0.0529 0.01174,0.0291 0.01174,0.0767 0,0.10584 -0.01174,0.0291 -0.02135,0.005 -0.02135,-0.0529 z m 0.0439,-0.23283 c 8.63e-4,-0.0699 0.01035,-0.0933 0.02108,-0.0521 0.01073,0.0412 0.01003,0.0983 -0.0016,0.127 -0.0116,0.0287 -0.02038,-0.005 -0.01951,-0.0749 z m -0.302097,0.01 c -0.0055,-0.0721 0.214423,-0.36958 0.273208,-0.36958 0.03463,0 0.06297,0.0202 0.06297,0.0448 0,0.0246 -0.01752,0.034 -0.03894,0.0208 -0.03624,-0.0224 -0.124074,0.0703 -0.244316,0.2579 -0.02773,0.0433 -0.05155,0.064 -0.05292,0.0461 z m -3.045089,1.96934 c 0.05266,-0.0671 0.05116,-0.0686 -0.01598,-0.016 -0.04075,0.0319 -0.07408,0.0653 -0.07408,0.0741 0,0.0348 0.03476,0.0124 0.09007,-0.0581 z m 24.743716,15.32263 c -0.01038,-0.0168 -0.0024,-0.17323 0.01781,-0.34763 0.02018,-0.1744 0.03753,-0.34023 0.03855,-0.36851 0.0029,-0.0801 0.16771,-0.14913 0.285404,-0.11959 0.08012,0.0201 0.100931,0.0473 0.08444,0.11038 -0.01204,0.046 0.0055,0.13853 0.0389,0.20555 0.09923,0.1989 -0.03026,0.3922 -0.342151,0.51078 -0.05724,0.0218 -0.112569,0.0258 -0.122953,0.009 z m 0.314999,-0.2217 c 0.108771,-0.0582 0.111678,-0.25251 0.0038,-0.25251 -0.1036,0 -0.234981,0.14928 -0.203524,0.23125 0.02919,0.0761 0.08603,0.0821 0.199746,0.0213 z m -0.01809,-0.48534 c -0.04366,-0.11378 -0.13174,-0.048 -0.146147,0.10909 l -0.01329,0.1449 0.09325,-0.0917 c 0.05799,-0.057 0.08302,-0.1184 0.06618,-0.16227 z m -0.89604,0.59266 c 0.082,-0.43295 0.03916,-0.53871 -0.08574,-0.21167 -0.04001,0.10478 -0.08921,0.1905 -0.109334,0.1905 -0.06086,0 -0.04209,-0.0788 0.07655,-0.32103 0.134834,-0.27537 0.215197,-0.35686 0.267871,-0.27163 0.02858,0.0462 0.04861,0.0475 0.09849,0.006 0.04969,-0.0412 0.06716,-0.0407 0.08467,0.003 0.01764,0.0437 0.03024,0.043 0.06288,-0.004 0.02245,-0.0321 0.06331,-0.0444 0.0908,-0.0275 0.05598,0.0346 0.02037,0.5381 -0.04723,0.66788 -0.07538,0.14471 -0.106931,0.0707 -0.07007,-0.16434 0.04642,-0.29599 0.02153,-0.33528 -0.05017,-0.0792 -0.05598,0.19992 -0.159673,0.32987 -0.114933,0.14402 0.01345,-0.0559 0.03637,-0.17776 0.05094,-0.2709 0.03351,-0.21424 -0.04001,-0.1102 -0.08013,0.1134 -0.01537,0.0857 -0.06635,0.19995 -0.113294,0.254 l -0.08535,0.0983 0.02405,-0.127 z m -0.82432,-2.6035 c -0.04948,-0.032 -0.0378,-0.0412 0.05292,-0.0417 0.06403,-3.3e-4 0.116416,0.0184 0.116416,0.0417 0,0.0535 -0.08651,0.0535 -0.169333,0 z m -0.05392,-6.35 c 0.01249,-3.20146 0.04107,-6.82096 0.0635,-8.04333 0.07301,-3.97727 0.06767,-4.16897 -0.143958,-5.16467 -0.325547,-1.53171 -0.945409,-2.57088 -1.778618,-2.98178 -0.550808,-0.27163 -1.056786,-0.24542 -1.690481,0.0876 -0.159957,0.0841 -0.409976,0.2627 -0.555598,0.39699 l -0.264767,0.24416 0.19813,0.17502 c 0.184844,0.16329 0.308537,0.39105 0.28226,0.51973 -0.0062,0.0305 0.122948,0.18882 0.287062,0.3518 0.352855,0.35042 0.541465,0.70796 0.641605,1.21626 0.08216,0.41701 0.03614,0.82557 -0.135301,1.2012 -0.105762,0.23174 -0.41767,0.60937 -0.50331,0.60937 -0.02058,0 -0.08586,0.0381 -0.145061,0.0847 -0.215345,0.16939 -1.034251,0.0855 -1.856832,-0.19027 -0.479584,-0.16076 -0.988286,-0.40772 -1.171849,-0.56889 -0.145874,-0.12808 -0.188822,-0.19794 -0.31975,-0.52011 -0.08041,-0.19786 -0.03802,-0.94942 0.06881,-1.22019 0.254856,-0.64593 0.923862,-1.14572 1.667787,-1.24594 0.15027,-0.0203 0.193111,-0.0418 0.175262,-0.0884 -0.06563,-0.17102 0.270983,-0.38339 0.555415,-0.35042 0.103094,0.012 0.158996,-0.0231 0.335577,-0.21014 0.473248,-0.50142 1.146512,-0.8251 1.71936,-0.82661 1.477857,-0.004 2.537976,1.63473 2.751666,4.25321 0.04867,0.59639 0.02565,1.87241 -0.03923,2.17422 -0.02002,0.0931 -0.05042,3.49356 -0.06756,7.5565 -0.01714,4.06294 -0.04594,7.60624 -0.064,7.874 -0.01806,0.26776 -0.02262,-2.13254 -0.01013,-5.334 z m -4.41225,-11.39422 c -0.47199,-0.0464 -1.117148,-0.20353 -1.469365,-0.35778 -0.317793,-0.13918 -0.964802,-0.54717 -0.964802,-0.60838 0,-0.0238 -0.01905,-0.0433 -0.04233,-0.0433 -0.02328,0 -0.04233,0.0371 -0.04233,0.0825 0,0.324 1.768371,0.97561 2.624667,0.96714 0.266984,-0.003 0.263836,-0.004 -0.105833,-0.0402 z m 0.987457,-0.31046 c 0.249177,-0.33001 0.321022,-0.57526 0.322587,-1.10115 0.002,-0.68055 -0.175123,-1.14844 -0.60588,-1.60027 -0.28881,-0.30293 -0.447273,-0.38786 -0.972104,-0.521 -0.361742,-0.0918 -0.429954,-0.0973 -0.654896,-0.053 -0.247413,0.0487 -0.249316,0.0501 -0.129796,0.0996 0.109216,0.0452 0.0976,0.0483 -0.11666,0.0311 -0.294355,-0.0237 -0.369663,0.0535 -0.08932,0.0916 0.110153,0.015 0.228852,0.0472 0.263777,0.0716 0.05176,0.0362 0.04785,0.0406 -0.02117,0.0236 -0.219202,-0.0541 -0.518272,-0.0705 -0.6139,-0.0337 -0.09497,0.0365 -0.08199,0.0442 0.127066,0.075 l 0.232834,0.0343 -0.312446,0.0328 c -0.288426,0.0303 -0.428388,0.0826 -0.428388,0.16007 0,0.0171 0.09403,0.0125 0.208959,-0.0103 0.137382,-0.0272 0.278766,-0.0268 0.41275,0.001 l 0.203791,0.0424 -0.211666,0.005 c -0.385172,0.01 -0.710341,0.0822 -0.802335,0.17916 -0.08533,0.09 -0.08536,0.0909 -0.002,0.06 0.149685,-0.0555 0.587526,-0.0729 0.762,-0.0303 l 0.169334,0.0414 -0.254,0.006 c -0.356573,0.008 -0.789549,0.108 -0.85486,0.19732 -0.07191,0.0983 -0.05672,0.10647 0.116407,0.0623 0.23829,-0.0608 0.590286,-0.0931 0.590286,-0.0542 0,0.0199 -0.13965,0.0579 -0.310334,0.0845 -0.391679,0.0609 -0.536333,0.11571 -0.536333,0.20324 0,0.0494 0.02116,0.0602 0.07408,0.0382 0.04075,-0.017 0.274108,-0.0379 0.518583,-0.0464 l 0.4445,-0.0155 -0.423333,0.0778 c -0.498327,0.0916 -0.624038,0.12778 -0.666102,0.19163 -0.06016,0.0913 -0.03039,0.0978 0.188494,0.041 0.121491,-0.0315 0.316753,-0.0554 0.433917,-0.053 l 0.213024,0.004 -0.169333,0.0372 c -0.492373,0.10809 -0.6985,0.17854 -0.6985,0.23871 0,0.045 0.02147,0.0535 0.07408,0.0295 0.04075,-0.0186 0.283633,-0.0386 0.53975,-0.0444 0.49992,-0.0113 0.503325,-0.0131 -0.264583,0.13815 -0.249074,0.0491 -0.34925,0.0868 -0.34925,0.13142 0,0.0445 0.02144,0.0527 0.07408,0.0283 0.113594,-0.0526 0.655568,-0.0704 0.818244,-0.0268 0.142151,0.0381 0.140125,0.0394 -0.109161,0.0699 -0.1397,0.0171 -0.358775,0.0548 -0.486833,0.0837 -0.194387,0.0439 -0.235252,0.0693 -0.247482,0.15342 -0.01332,0.0916 -0.0079,0.0952 0.05955,0.0393 0.101314,-0.0839 0.657705,-0.0741 1.108581,0.0196 0.788909,0.16399 1.72902,0.55501 1.99974,0.83173 0.08183,0.0836 0.16783,0.14504 0.191113,0.13642 0.02328,-0.009 0.105689,-0.0996 0.183124,-0.20212 z m -0.331291,-0.38168 c 0,-0.0367 0.0381,-0.14136 0.08467,-0.23264 0.107389,-0.2105 0.107713,-0.44797 9.31e-4,-0.68329 -0.08767,-0.19321 -0.110232,-0.6316 -0.04326,-0.84071 0.02421,-0.0756 0.0351,-0.0195 0.03811,0.19633 0.0034,0.24559 0.02949,0.35616 0.139177,0.59056 0.164611,0.35177 0.176612,0.62202 0.03637,0.81898 -0.117659,0.16524 -0.255992,0.24671 -0.255992,0.15077 z m -0.619263,-0.16803 c -0.01155,-0.0301 0.0088,-0.12595 0.04513,-0.213 0.09621,-0.23028 0.08599,-0.27843 -0.124368,-0.58565 -0.149449,-0.21826 -0.1905,-0.31556 -0.1905,-0.45152 0,-0.21876 0.0834,-0.38101 0.278545,-0.54186 0.186143,-0.15343 0.173914,-0.22882 -0.08227,-0.50716 l -0.175108,-0.19025 0.211667,0.10797 c 0.116416,0.0594 0.274779,0.17372 0.351916,0.2541 0.19519,0.20337 0.193123,0.35824 -0.0077,0.58058 -0.175398,0.19414 -0.176081,0.18994 0.09136,0.56219 0.236822,0.32964 0.23357,0.79979 -0.0064,0.92823 -0.161259,0.0863 -0.369247,0.1162 -0.392203,0.0564 z m -0.417903,0.65506 -0.08467,-0.0364 0.08467,-0.007 c 0.05497,-0.005 0.02527,-0.028 -0.08467,-0.066 l -0.169333,-0.0586 0.1905,0.0202 0.1905,0.0202 -0.169334,-0.0619 -0.169333,-0.0619 0.169333,0.0188 0.169334,0.0188 -0.148167,-0.0619 -0.148167,-0.0619 0.148167,0.0234 c 0.115892,0.0183 0.134335,0.013 0.08467,-0.0243 -0.06548,-0.0492 -0.03166,-0.0451 0.216968,0.0259 0.05549,0.0159 0.07981,0.009 0.06347,-0.0172 -0.02204,-0.0357 -0.703726,-0.30486 -0.771982,-0.30486 -0.0118,0 -0.0084,0.0211 0.0075,0.0469 0.02016,0.0326 -0.0016,0.0363 -0.07158,0.012 -0.11677,-0.0404 -0.268059,-0.0398 -0.418051,0.002 l -0.105833,0.0293 0.105833,-0.0647 c 0.154722,-0.0945 0.04298,-0.0819 -0.151191,0.0171 -0.151687,0.0773 -0.155143,0.0826 -0.03931,0.0601 0.07499,-0.0146 0.106349,-0.01 0.07657,0.0114 -0.0316,0.0226 0.0079,0.0369 0.105834,0.0383 0.178646,0.002 0.526498,0.14176 0.437224,0.17513 -0.04872,0.0182 -0.04872,0.0279 0,0.0622 0.03851,0.0271 -0.0057,0.0321 -0.132794,0.0151 -0.175699,-0.0236 -0.182277,-0.0212 -0.08467,0.03 0.12166,0.0638 0.446904,0.18541 0.5715,0.21369 0.146015,0.0331 0.217607,0.0256 0.127,-0.0133 z M 42.84644,134.1154 c 0.03492,-0.0226 0.08255,-0.041 0.105833,-0.041 0.02328,0 0.01376,0.0185 -0.02117,0.041 -0.03493,0.0226 -0.08255,0.041 -0.105834,0.041 -0.02328,0 -0.01376,-0.0185 0.02117,-0.041 z m -0.381,-0.0635 c 0.05821,-0.0333 0.08678,-0.0605 0.0635,-0.0605 -0.02328,0 -0.08996,0.0272 -0.148167,0.0605 -0.05821,0.0333 -0.08678,0.0605 -0.0635,0.0605 0.02328,0 0.08996,-0.0272 0.148167,-0.0605 z m -0.127,-0.0423 c 0.141062,-0.0806 0.04298,-0.0809 -0.111577,-2.5e-4 -0.06669,0.0348 -0.09268,0.0627 -0.05776,0.062 0.03493,-6.9e-4 0.111125,-0.0285 0.169333,-0.0617 z m 2.077944,-2.69822 c -0.04353,-0.21283 -0.212335,-0.3049 -0.588552,-0.32099 -0.233222,-0.01 -0.348012,0.003 -0.405776,0.0463 -0.104766,0.0783 -0.0531,0.15773 0.102628,0.15773 0.124439,0 0.447849,0.11117 0.718756,0.24708 0.169831,0.0852 0.210693,0.0545 0.172944,-0.13013 z m 4.228321,18.61555 c -0.02723,-3.71045 0.0097,-13.92589 0.05046,-13.96964 0.02572,-0.0276 0.04942,-0.0254 0.06912,0.006 0.0384,0.0621 -0.02122,12.69739 -0.06878,14.57699 l -0.03589,1.41816 z m -3.395848,-5.46404 c -0.164136,-0.089 -0.145546,-0.11978 0.02117,-0.035 0.159577,0.0812 0.187818,0.10219 0.134056,0.0998 -0.02134,-9.3e-4 -0.09119,-0.0301 -0.155222,-0.0649 z m -7.394408,-3.04848 c 0.002,-0.0493 0.01206,-0.0593 0.02558,-0.0256 0.01223,0.0306 0.01073,0.0671 -0.0033,0.0811 -0.01407,0.0141 -0.02407,-0.0109 -0.02223,-0.0556 z m 0.09487,-0.44098 c 0,-0.15134 0.0077,-0.21325 0.01707,-0.13758 0.0094,0.0757 0.0094,0.1995 0,0.27517 -0.0094,0.0757 -0.01707,0.0137 -0.01707,-0.13759 z m -0.132296,0.0635 c 8.63e-4,-0.0698 0.01035,-0.0933 0.02108,-0.0521 0.01073,0.0412 0.01003,0.0983 -0.0016,0.127 -0.0116,0.0287 -0.02038,-0.005 -0.01952,-0.0749 z m -0.509569,-0.0635 c 0,-0.0582 0.0096,-0.082 0.02135,-0.0529 0.01174,0.0291 0.01174,0.0767 0,0.10583 -0.01174,0.0291 -0.02135,0.005 -0.02135,-0.0529 z m 0.104379,-0.1498 c -0.01452,-0.0378 -0.02519,-0.091 -0.02371,-0.11824 0.0015,-0.0272 0.02094,-0.004 0.04324,0.0519 0.02231,0.0558 0.03298,0.10898 0.02371,0.11824 -0.0093,0.009 -0.02872,-0.0141 -0.04324,-0.0519 z m 0.06571,-0.18573 c -0.07025,-0.20151 -0.05885,-0.26454 0.01645,-0.091 0.0346,0.0797 0.05625,0.16495 0.04811,0.18936 -0.0081,0.0244 -0.03719,-0.0198 -0.06456,-0.0984 z m -0.131093,-0.0702 c 0.002,-0.0493 0.01206,-0.0593 0.02558,-0.0256 0.01223,0.0306 0.01073,0.0671 -0.0033,0.0811 -0.01407,0.0141 -0.02407,-0.0109 -0.02223,-0.0556 z m 0.270084,0.0219 c -0.01535,-0.0248 -0.01882,-0.0542 -0.0077,-0.0653 0.0111,-0.0111 0.03146,0.009 0.04524,0.0451 0.02862,0.0746 0.0042,0.0877 -0.03752,0.0202 z m -8.567972,-1.96569 c 3.81e-4,-0.0747 0.09759,-0.21415 0.327705,-0.46994 0.123562,-0.13735 0.211387,-0.21162 0.195166,-0.16506 -0.01622,0.0466 -0.119674,0.17992 -0.229896,0.29634 -0.110222,0.11641 -0.221279,0.24976 -0.246795,0.29633 -0.02552,0.0466 -0.0463,0.0656 -0.04618,0.0423 z m -0.176506,-0.63647 c 0.07226,-0.0823 0.131386,-0.17643 0.131386,-0.20917 0,-0.0327 0.02183,-0.073 0.04851,-0.0895 0.0914,-0.0565 -0.0075,0.21056 -0.122947,0.3319 -0.162302,0.17063 -0.210991,0.14223 -0.05695,-0.0332 z"
       id="path3346" />
  </g>
</svg>
