<?xml version="1.0" encoding="UTF-8" standalone="no"?>
<!-- Created with Inkscape (http://www.inkscape.org/) -->

<svg
   width="16.817566mm"
   height="27.06172mm"
   viewBox="0 0 16.817566 27.06172"
   version="1.1"
   id="svg5"
   inkscape:version="1.1.2 (b8e25be833, 2022-02-05)"
   sodipodi:docname="stars.svg"
   xmlns:inkscape="http://www.inkscape.org/namespaces/inkscape"
   xmlns:sodipodi="http://sodipodi.sourceforge.net/DTD/sodipodi-0.dtd"
   xmlns="http://www.w3.org/2000/svg"
   xmlns:svg="http://www.w3.org/2000/svg">
  <sodipodi:namedview
     id="namedview7"
     pagecolor="#ffffff"
     bordercolor="#666666"
     borderopacity="1.0"
     inkscape:pageshadow="2"
     inkscape:pageopacity="0.0"
     inkscape:pagecheckerboard="0"
     inkscape:document-units="mm"
     showgrid="false"
     fit-margin-top="1"
     fit-margin-left="1"
     fit-margin-bottom="1"
     fit-margin-right="1"
     inkscape:zoom="4.1877625"
     inkscape:cx="6.5667525"
     inkscape:cy="69.965763"
     inkscape:window-width="1920"
     inkscape:window-height="1017"
     inkscape:window-x="-8"
     inkscape:window-y="-8"
     inkscape:window-maximized="1"
     inkscape:current-layer="layer1" />
  <defs
     id="defs2" />
  <g
     inkscape:label="Layer 1"
     inkscape:groupmode="layer"
     id="layer1"
     transform="translate(-57.509517,-155.03077)">
    <path
       style="fill:#000000;stroke-width:0.0423333"
       d="m 72.938667,181.07886 c -0.01138,-0.0114 -0.0074,-0.12092 0.0088,-0.24342 0.01622,-0.1225 0.02175,-0.23617 0.01229,-0.25261 -0.0095,-0.0164 0.032,-0.0621 0.09214,-0.10154 0.127664,-0.0836 0.222138,-0.0291 0.167578,0.0968 -0.03122,0.072 -0.03446,0.0722 -0.05106,0.003 -0.02408,-0.10069 -0.08125,-0.0934 -0.109319,0.0139 -0.01603,0.0613 -0.0062,0.0815 0.03254,0.0667 0.06378,-0.0245 0.234605,0.0828 0.234605,0.14728 0,0.11935 -0.317241,0.34033 -0.387583,0.26999 z m 0.281749,-0.23847 c 0,-0.0321 -0.0381,-0.0583 -0.08467,-0.0583 -0.06217,0 -0.08842,0.0329 -0.09879,0.12393 -0.01379,0.12104 -0.01182,0.1224 0.08467,0.0583 0.05433,-0.0361 0.09879,-0.0918 0.09879,-0.12393 z m -0.844797,0.023 0.0234,-0.20832 -0.109184,0.1905 c -0.111006,0.19368 -0.106414,0.0828 0.0057,-0.13758 0.05728,-0.1126 0.156439,-0.15301 0.200504,-0.0817 0.02423,0.0392 -0.0647,0.36632 -0.112604,0.41422 -0.01717,0.0172 -0.02068,-0.0625 -0.0078,-0.17711 z m 0.352629,-0.0533 c -0.01063,-0.18017 0.0015,-0.28269 0.03708,-0.3121 0.04125,-0.0342 0.05226,0.006 0.04994,0.18363 -0.0047,0.35594 -0.06808,0.44956 -0.08703,0.12847 z m -0.187543,-0.0207 c 0.0013,-0.13205 0.01667,-0.24012 0.03413,-0.24014 0.01746,-2e-5 0.03175,0.0201 0.03175,0.0448 0,0.0247 0.01905,0.0331 0.04233,0.0187 0.06137,-0.0379 0.04675,0.0604 -0.03727,0.25072 l -0.07332,0.16606 0.0024,-0.2401 z m -13.748899,-0.73407 c -0.03714,-0.0371 -0.02845,-0.85167 0.01053,-0.98778 0.02153,-0.0752 0.03898,-0.005 0.06025,0.24323 0.01647,0.19198 0.04577,0.392 0.0651,0.4445 0.06581,0.17863 0.09637,0.35521 0.04949,0.28594 -0.0289,-0.0427 -0.04318,-0.0462 -0.04362,-0.0106 -6.86e-4,0.056 -0.09416,0.0723 -0.141759,0.0247 z m 0.987778,-0.006 c 0,-0.0187 0.04621,-0.16638 0.102682,-0.32808 0.09112,-0.26088 0.102932,-0.27731 0.104903,-0.14583 0.0012,0.0815 -0.03453,0.22913 -0.07944,0.32809 -0.07588,0.16717 -0.12814,0.22664 -0.12814,0.14582 z m 0.272277,-0.18592 c 0.04297,-0.3239 0.105853,-0.40158 0.107435,-0.1327 0.0014,0.24208 -0.02786,0.35271 -0.09336,0.35271 -0.02765,0 -0.03273,-0.0794 -0.01407,-0.22001 z m 0.278056,-0.16099 v -0.381 h -0.139879 c -0.183497,0 -0.499733,-0.20266 -0.65873,-0.42215 -0.06861,-0.0947 -0.177873,-0.31947 -0.242795,-0.49945 -0.06492,-0.17998 -0.129265,-0.33676 -0.142984,-0.3484 -0.03684,-0.0313 -0.02755,-0.24928 0.0096,-0.22629 0.01746,0.0108 0.03175,0.049 0.03175,0.085 0,0.11937 0.321728,0.75408 0.464872,0.91712 0.172299,0.19623 0.387017,0.30654 0.624066,0.32058 0.182557,0.0108 0.477395,-0.0702 0.477395,-0.13122 0,-0.0186 0.02636,-0.0338 0.05857,-0.0338 0.147459,0 0.568859,-0.63123 0.579355,-0.86784 0.0022,-0.0501 0.01285,-0.0619 0.02601,-0.029 0.01224,0.0306 -0.02116,0.19068 -0.07423,0.35573 -0.125311,0.38971 -0.467578,0.76279 -0.7753,0.8451 l -0.197093,0.0527 0.02808,0.372 c 0.02018,0.26726 0.01445,0.37199 -0.02033,0.37199 -0.03274,0 -0.04841,-0.12335 -0.04841,-0.381 z m 0.242494,0.3543 c -0.01486,-0.024 -0.03673,-0.1755 -0.04862,-0.33658 l -0.02161,-0.29288 0.0622,0.29584 c 0.06059,0.28818 0.06386,0.42394 0.008,0.33362 z m 0.168491,-0.20707 c -0.162434,-0.3312 -0.139962,-0.3861 0.03427,-0.0837 0.151369,0.2627 0.171028,0.3175 0.1139,0.3175 -0.01843,0 -0.08511,-0.1052 -0.148167,-0.23377 z m 0.308681,0.19144 c -0.03493,-0.0226 -0.04859,-0.0413 -0.03038,-0.0417 0.01822,-3.4e-4 -0.0437,-0.10239 -0.137584,-0.22674 -0.233569,-0.30936 -0.214091,-0.34195 0.05155,-0.0862 0.122237,0.11767 0.277207,0.25513 0.344376,0.30547 l 0.122125,0.0915 -0.143292,-6.5e-4 c -0.07881,-3.5e-4 -0.171868,-0.0191 -0.206793,-0.0417 z m 0.853856,-0.0317 c -0.102876,-0.19992 -0.395335,-1.21211 -0.333313,-1.15358 0.03856,0.0364 0.269938,0.64272 0.359426,0.94191 0.07881,0.26349 0.06368,0.38615 -0.02611,0.21167 z m 1.137202,-0.15345 c -0.122742,-0.12514 -0.260853,-0.29183 -0.306914,-0.37041 l -0.08375,-0.14289 0.135241,0.15875 c 0.154371,0.1812 0.21162,0.20075 0.185967,0.0635 -0.0098,-0.0524 0.0063,-0.0338 0.03571,0.0412 0.02943,0.0751 0.09339,0.17633 0.142125,0.22501 l 0.08861,0.0885 -0.05235,-0.26735 c -0.02879,-0.14704 -0.0632,-0.35307 -0.07646,-0.45785 -0.04149,-0.32779 0.05179,-0.0328 0.126018,0.39851 0.03641,0.21156 0.08583,0.40847 0.109818,0.43758 0.03142,0.0381 0.02621,0.0529 -0.01862,0.0529 -0.03423,0 -0.162663,-0.10239 -0.285405,-0.22753 z m 0.423091,-0.16195 c -0.05064,-0.21653 -0.100536,-0.46036 -0.110882,-0.54185 -0.01035,-0.0815 -0.03746,-0.25141 -0.06026,-0.37759 -0.0228,-0.12618 -0.03522,-0.23565 -0.0276,-0.24327 0.01931,-0.0193 0.227512,0.74813 0.302091,1.11354 0.03392,0.1662 0.06715,0.32575 0.07383,0.35454 0.0067,0.0288 -0.0097,0.0605 -0.03648,0.0703 -0.03078,0.0114 -0.08245,-0.1266 -0.140711,-0.37571 z m 0.280101,0.11415 c -0.08582,-0.35477 -0.200933,-1.00443 -0.181434,-1.02393 0.02359,-0.0236 0.185816,0.5842 0.240575,0.90133 0.07018,0.40643 0.02978,0.49018 -0.05914,0.1226 z m 1.253426,0.12717 c 4.7e-4,-0.0931 0.0091,-0.12625 0.01926,-0.0736 0.01013,0.0526 0.0097,0.12885 -8.55e-4,0.16933 -0.0106,0.0405 -0.01888,-0.003 -0.01841,-0.0957 z m 0.250008,0.0635 c 0,-0.0582 0.0096,-0.082 0.02135,-0.0529 0.01174,0.0291 0.01174,0.0767 0,0.10583 -0.01174,0.0291 -0.02135,0.005 -0.02135,-0.0529 z m 0.182405,-0.14676 c -0.03846,-0.13229 -0.05976,-0.25068 -0.04734,-0.2631 0.01242,-0.0124 0.05404,0.0857 0.0925,0.21794 0.03846,0.13229 0.05976,0.25069 0.04734,0.2631 -0.01242,0.0124 -0.05404,-0.0857 -0.0925,-0.21794 z m 0.244523,0.0163 c -0.04865,-0.12998 -0.100276,-0.31095 -0.114737,-0.40217 l -0.02629,-0.16584 0.05866,0.127 c 0.100884,0.2184 0.206801,0.56952 0.188414,0.6246 -0.0097,0.029 -0.0574,-0.0536 -0.106049,-0.18359 z m 0.190532,-0.007 c -0.03776,-0.12224 -0.08014,-0.29845 -0.09419,-0.39158 -0.02526,-0.1675 -0.02442,-0.16682 0.0782,0.0635 0.118556,0.26608 0.182579,0.55033 0.123952,0.55033 -0.02162,0 -0.07021,-0.10001 -0.107965,-0.22225 z m 0.22999,-0.0635 c -0.139802,-0.4549 -0.142463,-0.51547 -0.01069,-0.24341 0.136578,0.28197 0.201461,0.52916 0.138898,0.52916 -0.02221,0 -0.07991,-0.12859 -0.128205,-0.28575 z m 0.546209,0.21872 c 0.002,-0.0493 0.01206,-0.0593 0.02558,-0.0256 0.01223,0.0306 0.01073,0.0671 -0.0033,0.0811 -0.01407,0.0141 -0.02407,-0.0109 -0.02224,-0.0556 z m 0.178098,-0.12347 c 3.39e-4,-0.11641 0.0085,-0.15902 0.01827,-0.0947 0.0097,0.0643 0.0095,0.1596 -5.76e-4,0.21167 -0.01005,0.0521 -0.01801,-5.8e-4 -0.01769,-0.117 z m 0.07256,-0.0847 v -0.27517 h -0.128686 c -0.165005,0 -0.408686,-0.12566 -0.56715,-0.29246 -0.15549,-0.16367 -0.123296,-0.16524 0.127431,-0.006 0.238928,0.15153 0.389041,0.18799 0.616057,0.14963 0.167168,-0.0282 0.171941,-0.0335 0.146122,-0.16231 -0.05972,-0.29783 -0.06157,-0.45562 -0.0024,-0.19996 0.03463,0.14951 0.06903,0.2779 0.07645,0.28532 0.0074,0.007 0.04815,-0.0119 0.09053,-0.0429 0.07078,-0.0517 0.07276,-0.0791 0.02432,-0.3358 -0.029,-0.1537 -0.04409,-0.30437 -0.03353,-0.3348 0.01056,-0.0304 0.04294,0.0836 0.07196,0.25333 0.0432,0.25276 0.06323,0.3 0.11054,0.26073 0.07286,-0.0605 0.228428,-0.4716 0.236075,-0.62391 0.005,-0.10004 0.0081,-0.10254 0.02413,-0.0194 0.03239,0.16825 -0.07315,0.54931 -0.201023,0.72584 -0.06824,0.0942 -0.201604,0.21083 -0.296362,0.25917 l -0.172289,0.0879 0.214054,0.24708 c 0.117731,0.1359 0.214055,0.26038 0.214055,0.27662 0,0.06 -0.07926,-0.003 -0.228135,-0.18262 -0.157524,-0.18952 -0.195548,-0.19232 -0.08937,-0.007 0.03328,0.0582 0.06041,0.1344 0.0603,0.16933 -3.39e-4,0.10403 -0.126845,-0.16158 -0.14489,-0.30416 -0.0092,-0.0723 -0.03773,-0.15254 -0.06349,-0.17826 -0.03424,-0.0342 -0.03898,0.0302 -0.01762,0.239 0.02071,0.20251 0.01519,0.28575 -0.01895,0.28575 -0.03107,0 -0.04818,-0.0977 -0.04818,-0.27516 z m 1.045573,-0.0106 c -0.141464,-0.60749 -0.145297,-0.89693 -0.0046,-0.34697 0.04261,0.16656 0.117326,0.32707 0.191752,0.41195 0.06706,0.0765 0.121936,0.13039 0.121936,0.1198 0,-0.0106 -0.04882,-0.22184 -0.108492,-0.46945 -0.05967,-0.24761 -0.101795,-0.4825 -0.09361,-0.52197 0.01908,-0.092 0.188515,0.57474 0.223819,0.88073 l 0.02686,0.23283 -0.129528,-0.13758 c -0.159754,-0.16969 -0.177619,-0.17099 -0.145538,-0.0106 0.05018,0.25092 -0.0175,0.12086 -0.08261,-0.15875 z m 0.439236,-0.16933 c -0.05091,-0.2503 -0.10111,-0.51223 -0.11156,-0.58208 -0.05631,-0.37643 0.167362,0.42416 0.251334,0.89958 0.01337,0.0757 0.0082,0.13758 -0.01146,0.13758 -0.01967,0 -0.07741,-0.20479 -0.128318,-0.45508 z m 0.251969,0.16533 c -0.02739,-0.1624 -0.04327,-0.34938 -0.03529,-0.41551 0.008,-0.0661 0.03875,0.0584 0.06836,0.27672 0.06321,0.46605 0.03916,0.56701 -0.03307,0.13879 z m 0.407877,-0.0807 c 0.0222,-0.37262 0.01918,-0.39159 -0.06236,-0.39159 -0.04713,0 -0.11803,-0.0124 -0.157546,-0.0276 -0.05583,-0.0214 -0.06658,-0.01 -0.04821,0.0529 0.013,0.0443 0.03345,0.17574 0.04544,0.29215 0.01921,0.18656 0.01487,0.17887 -0.03657,-0.0648 -0.05234,-0.24791 -0.08407,-0.30255 -0.307312,-0.52917 -0.178996,-0.1817 -0.294356,-0.35142 -0.410552,-0.60399 -0.08888,-0.1932 -0.154198,-0.35868 -0.145145,-0.36773 0.0091,-0.009 0.08965,0.12572 0.179106,0.2995 0.178677,0.34709 0.465404,0.68468 0.597668,0.70368 0.04657,0.007 0.09828,0.0312 0.114914,0.0545 0.05066,0.0709 0.425651,0.0434 0.553878,-0.0406 0.133621,-0.0876 0.322437,-0.38716 0.370098,-0.58726 l 0.03194,-0.13411 0.0034,0.14817 c 0.0019,0.0815 -0.03335,0.22913 -0.07826,0.32808 -0.04492,0.099 -0.07161,0.17992 -0.05932,0.17992 0.01229,0 -0.03627,0.0493 -0.107903,0.10959 -0.07164,0.0603 -0.130248,0.12605 -0.130248,0.14615 0,0.0201 0.113791,0.20415 0.25287,0.40899 0.139078,0.20484 0.234498,0.37873 0.212044,0.38642 -0.04466,0.0153 -0.168013,-0.0928 -0.169522,-0.14854 -5.17e-4,-0.0191 -0.03669,-0.0813 -0.08038,-0.13813 l -0.07944,-0.10336 0.02239,0.19861 c 0.0136,0.12066 0.0055,0.1986 -0.02052,0.1986 -0.06031,0 -0.09386,-0.1511 -0.09453,-0.42582 -3.81e-4,-0.15002 -0.02468,-0.26512 -0.06706,-0.3175 -0.06238,-0.0771 -0.06486,-0.0717 -0.04029,0.0872 0.07505,0.48524 0.0777,0.65616 0.01018,0.65616 -0.0911,0 -0.128936,-0.20621 -0.09363,-0.51036 0.02746,-0.23662 0.0239,-0.25164 -0.05962,-0.25164 -0.0802,0 -0.08931,0.0257 -0.09383,0.26459 -0.0028,0.14552 -0.02076,0.32173 -0.04001,0.39158 -0.02126,0.0772 -0.02584,-0.0267 -0.01166,-0.26458 z m 0.84892,-0.11821 c -0.132794,-0.26677 -0.232182,-0.48504 -0.220863,-0.48504 0.02807,0 0.495939,0.93646 0.477222,0.95517 -0.0082,0.008 -0.123565,-0.20335 -0.256359,-0.47013 z m 0.433066,0.14526 c -0.188164,-0.37424 -0.2604,-0.54564 -0.229959,-0.54564 0.02238,0 0.27423,0.4925 0.373428,0.73025 0.113971,0.27316 0.0367,0.17372 -0.143469,-0.18461 z m 1.106368,0.27633 c 0.002,-0.0493 0.01206,-0.0593 0.02558,-0.0256 0.01223,0.0306 0.01073,0.0671 -0.0033,0.0811 -0.01407,0.0141 -0.02407,-0.0109 -0.02223,-0.0556 z m 0.45504,-0.0969 c -0.133263,-0.15512 -0.156337,-0.16496 -0.426632,-0.18193 -0.181859,-0.0114 -0.286218,-0.002 -0.287038,0.0264 -7.06e-4,0.0244 -0.01931,0.0135 -0.04133,-0.0242 -0.02202,-0.0377 -0.102406,-0.0942 -0.178629,-0.12558 -0.273891,-0.11274 -0.647354,-0.54855 -0.898374,-1.04834 -0.160748,-0.32006 -0.112415,-0.31014 0.07842,0.0161 0.191444,0.32727 0.601198,0.74575 0.846441,0.86447 0.565997,0.274 1.011254,0.162 1.240795,-0.3121 0.09251,-0.19106 0.101334,-0.19905 0.07928,-0.0717 -0.03477,0.20075 -0.17764,0.41582 -0.367675,0.55348 l -0.161783,0.11719 0.14987,0.17509 c 0.08243,0.0963 0.140345,0.17509 0.128704,0.17509 -0.01164,0 -0.08456,-0.0738 -0.162049,-0.16398 z m -9.575324,0.0263 c 0.01349,-0.0641 0.06114,-0.22603 0.105894,-0.35983 0.07476,-0.22353 0.07988,-0.22953 0.06308,-0.0739 -0.01006,0.0931 -0.05771,0.25506 -0.105893,0.35984 -0.05564,0.12099 -0.07866,0.14797 -0.06308,0.0739 z m 1.730168,0.0213 c -0.01641,-0.0408 -0.03651,-0.19791 -0.04468,-0.34925 -0.01819,-0.33724 0.0462,-0.2177 0.08966,0.16645 0.0289,0.25548 0.01198,0.32425 -0.04498,0.1828 z m 3.664968,-0.11995 c -0.02732,-0.1085 -0.04174,-0.20521 -0.03203,-0.21491 0.0097,-0.01 0.03999,0.0711 0.06731,0.17963 0.02732,0.1085 0.04174,0.20521 0.03204,0.21491 -0.0097,0.01 -0.03999,-0.0711 -0.06731,-0.17963 z m 1.146157,0.10936 c 0,-0.0582 0.0096,-0.082 0.02135,-0.0529 0.01174,0.0291 0.01174,0.0767 0,0.10583 -0.01174,0.0291 -0.02135,0.005 -0.02135,-0.0529 z m 2.029164,-0.0885 c -0.02863,-0.0956 -0.04426,-0.18152 -0.03473,-0.19105 0.0095,-0.01 0.04074,0.0609 0.06937,0.15641 0.02863,0.0956 0.04426,0.18152 0.03473,0.19105 -0.0095,0.01 -0.04074,-0.0609 -0.06937,-0.15641 z m -11.425435,-0.19533 c -0.106695,-0.40677 -0.152556,-0.63312 -0.122576,-0.60501 0.03397,0.0319 0.248068,0.89606 0.227163,0.91696 -0.0099,0.01 -0.05698,-0.13046 -0.104587,-0.31195 z m -0.812746,0.009 c -0.02895,-0.15344 -0.04407,-0.28755 -0.0336,-0.29802 0.01047,-0.0105 0.04226,0.10696 0.07064,0.26097 0.02838,0.15401 0.0435,0.28812 0.0336,0.29802 -0.0099,0.01 -0.04169,-0.10754 -0.07064,-0.26097 z m 2.89056,0.0146 c -0.13058,-0.38431 -0.231664,-0.76144 -0.209921,-0.78318 0.02709,-0.0271 0.334918,0.95058 0.316604,1.00552 -0.0085,0.0254 -0.05649,-0.0746 -0.106683,-0.22234 z m 0.458582,-0.17607 c -0.233695,-0.49367 -0.258946,-0.57327 -0.09357,-0.29496 0.130567,0.21973 0.315283,0.64619 0.290587,0.67088 -0.0071,0.007 -0.09578,-0.16204 -0.19702,-0.37592 z m 3.215866,0.28495 c 0.002,-0.0493 0.01206,-0.0593 0.02558,-0.0256 0.01223,0.0306 0.01073,0.0671 -0.0033,0.0811 -0.01407,0.0141 -0.02407,-0.0109 -0.02223,-0.0556 z m -6.114641,-0.37499 c -0.04069,-0.22778 -0.06591,-0.42222 -0.05605,-0.43208 0.02682,-0.0268 0.168054,0.73215 0.147637,0.7934 -0.0097,0.0291 -0.0509,-0.13353 -0.09159,-0.36132 z m 4.825362,0.24988 c -0.04085,-0.10646 -0.0288,-0.13392 0.0211,-0.0481 0.02471,0.0425 0.03601,0.0862 0.02511,0.0971 -0.0109,0.0109 -0.0317,-0.0111 -0.04621,-0.049 z m 0.527279,-0.0442 c 0.002,-0.0493 0.01206,-0.0593 0.02558,-0.0256 0.01223,0.0306 0.01073,0.0671 -0.0033,0.0811 -0.01407,0.0141 -0.02407,-0.0109 -0.02223,-0.0556 z m 3.175,-0.127 c 0.002,-0.0493 0.01206,-0.0593 0.02558,-0.0256 0.01223,0.0306 0.01073,0.0671 -0.0033,0.0811 -0.01407,0.0141 -0.02407,-0.0109 -0.02223,-0.0556 z m 5.507325,0.003 c -0.181232,-0.0787 -0.266146,-0.18385 -0.450108,-0.55732 -0.209704,-0.42574 -0.186914,-0.45516 0.07236,-0.0934 0.122238,0.17055 0.303213,0.36441 0.402167,0.43079 0.108038,0.0725 0.179917,0.1534 0.179917,0.20256 0,0.0966 -0.01845,0.0981 -0.204333,0.0174 z m -10.206326,-0.1304 c 0.002,-0.0493 0.01206,-0.0593 0.02558,-0.0256 0.01223,0.0306 0.01073,0.0671 -0.0033,0.0811 -0.01407,0.0141 -0.02407,-0.0109 -0.02223,-0.0556 z m 1.403716,-0.0647 c -0.348305,-0.17241 -0.725152,-0.7162 -0.900411,-1.29929 -0.05111,-0.17004 -0.08402,-0.31807 -0.07313,-0.32896 0.01089,-0.0109 0.09116,0.15037 0.178381,0.35836 0.219343,0.52306 0.610525,1.09733 0.706908,1.03777 0.01972,-0.0122 0.03586,0.004 0.03586,0.037 0,0.057 0.204365,0.17887 0.240111,0.14313 0.0096,-0.01 -0.02457,-0.1605 -0.07599,-0.33527 -0.07315,-0.24864 -0.118804,-0.33272 -0.209859,-0.38651 -0.08942,-0.0528 -0.121337,-0.0564 -0.13781,-0.0156 -0.01262,0.0313 -0.02281,0.0218 -0.02478,-0.023 -0.0018,-0.0419 -0.02927,-0.12762 -0.06095,-0.1905 -0.03169,-0.0629 -0.06878,-0.20004 -0.08242,-0.30481 -0.01364,-0.10478 -0.01572,-0.16974 -0.0046,-0.14436 0.02456,0.0561 0.313712,-0.20736 0.314635,-0.28671 5.03e-4,-0.0433 0.0081,-0.044 0.03391,-0.003 0.02431,0.0383 0.07114,0.0415 0.173943,0.012 0.07737,-0.0222 0.352624,-0.038 0.611669,-0.0352 0.426274,0.005 1.099776,-0.0883 1.232992,-0.17012 0.02328,-0.0143 0.06649,-0.0297 0.09601,-0.0341 0.11668,-0.0177 0.619706,-0.27592 0.771173,-0.39589 0.21728,-0.17209 0.339316,-0.44345 0.339316,-0.75451 0,-0.32609 -0.09807,-0.60618 -0.324812,-0.92761 -0.297808,-0.42218 -0.478261,-0.5307 -1.389688,-0.83574 -0.325967,-0.10909 -0.615078,-0.20756 -0.642471,-0.21883 -0.02739,-0.0113 0.06012,0.14734 0.194479,0.35244 0.261647,0.39941 0.482942,0.77507 0.456581,0.77507 -0.03284,0 -0.4901,-0.66453 -0.626292,-0.91017 -0.07745,-0.1397 -0.157637,-0.26093 -0.178184,-0.2694 -0.02055,-0.008 -0.158554,-0.0967 -0.306681,-0.196 -0.148127,-0.0993 -0.336449,-0.1932 -0.418493,-0.20859 -0.178067,-0.0334 -0.48587,-0.25476 -0.731562,-0.5261 -0.252,-0.27831 -0.224518,-0.29786 0.04286,-0.0305 0.216124,0.21613 0.627926,0.48853 0.739771,0.48935 0.04136,3e-4 0.03889,-0.0288 -0.01058,-0.1245 -0.03552,-0.0687 -0.06459,-0.17099 -0.06459,-0.22732 0,-0.0908 -0.0276,-0.10797 -0.243416,-0.15125 -0.133879,-0.0269 -0.329142,-0.0895 -0.433917,-0.13928 -0.104775,-0.0498 -0.203429,-0.0879 -0.219232,-0.0847 -0.05335,0.0107 -0.426243,-0.43534 -0.512979,-0.61362 -0.08011,-0.16467 -0.100955,-0.17892 -0.301344,-0.20604 -0.118403,-0.016 -0.253378,-0.0363 -0.299945,-0.0452 -0.295491,-0.056 -0.593172,-0.10783 -0.71048,-0.12371 -0.0749,-0.0101 -0.176157,-0.0266 -0.225009,-0.0365 -0.04885,-0.01 -0.191728,-0.0304 -0.3175,-0.0454 -0.125773,-0.015 -0.262015,-0.037 -0.302761,-0.0489 -0.04075,-0.0119 -0.07408,-0.011 -0.07408,0.002 0,0.0649 0.518806,0.74248 0.552523,0.72164 0.02181,-0.0135 0.02682,0.008 0.0113,0.0484 -0.02041,0.0532 -0.01286,0.0634 0.02819,0.038 0.03571,-0.0221 0.04591,-0.0182 0.0281,0.0106 -0.01538,0.0249 -0.01356,0.0516 0.004,0.0595 0.01761,0.008 0.08494,0.0904 0.149626,0.18353 0.154077,0.22184 0.5149,0.61812 0.459224,0.50436 -0.02377,-0.0486 -0.136687,-0.23907 -0.250926,-0.42333 -0.224388,-0.36193 -0.402678,-0.69486 -0.372111,-0.69486 0.02948,0 0.379787,0.57515 0.585373,0.96108 0.116319,0.21836 0.246996,0.39674 0.352069,0.48059 0.193352,0.1543 0.518108,0.31692 0.556408,0.27862 0.01442,-0.0144 0.0508,-0.006 0.08084,0.0191 0.03923,0.0326 0.0876,0.0295 0.171706,-0.011 0.150076,-0.0721 0.227235,-0.33864 0.130263,-0.44992 -0.07099,-0.0815 -0.496403,-0.78909 -0.705008,-1.17269 l -0.138128,-0.254 0.134603,0.14817 c 0.07403,0.0815 0.123943,0.11483 0.110915,0.0741 -0.01303,-0.0407 -0.01672,-0.0741 -0.0082,-0.0741 0.0283,0 0.540682,0.80995 0.523348,0.82729 -0.0094,0.009 -0.08053,-0.0877 -0.158139,-0.21581 -0.229528,-0.37872 -0.189329,-0.2374 0.06172,0.21697 0.127745,0.2312 0.232263,0.38609 0.232263,0.34419 0,-0.0419 -0.02781,-0.12997 -0.06181,-0.19571 -0.034,-0.0657 -0.05184,-0.1295 -0.03966,-0.14168 0.01218,-0.0122 -0.05546,-0.17653 -0.150328,-0.3652 -0.09486,-0.18868 -0.16441,-0.34305 -0.154546,-0.34305 0.0447,0 0.40989,0.69053 0.488332,0.92338 0.109088,0.32382 0.110164,0.49917 0.0041,0.67307 -0.15672,0.25704 -0.506422,0.24934 -0.895588,-0.0197 -0.32507,-0.22473 -1.173476,-1.18459 -1.550154,-1.75379 -0.05832,-0.0881 -0.124043,-0.14911 -0.146042,-0.13552 -0.022,0.0136 -0.03499,-0.001 -0.02887,-0.0324 0.0255,-0.13094 -0.05216,-0.23871 -0.186778,-0.25922 -0.0749,-0.0114 -0.142648,-0.015 -0.150541,-0.008 -0.0079,0.007 0.109016,0.32391 0.259799,0.70407 0.150783,0.38016 0.295526,0.74836 0.321652,0.81821 0.04567,0.12209 0.04658,0.12046 0.0235,-0.0423 -0.0132,-0.0931 -0.03077,-0.25506 -0.03903,-0.35983 -0.0083,-0.10478 -0.05402,-0.31351 -0.101671,-0.46385 -0.04765,-0.15034 -0.07977,-0.28022 -0.07137,-0.28862 0.02305,-0.023 0.270002,0.63435 0.341702,0.90962 0.115838,0.44473 0.06339,0.76256 -0.165947,1.00574 -0.09194,0.0975 -0.179685,0.14944 -0.252362,0.14944 -0.06128,0 -0.111418,0.008 -0.111418,0.0186 0,0.0479 0.581617,1.08996 0.733954,1.31495 0.445042,0.65731 0.887114,0.87612 1.178157,0.58316 l 0.116721,-0.11749 -0.08755,-0.1905 c -0.146731,-0.31926 -0.799612,-2.00245 -0.783114,-2.01894 0.02618,-0.0262 0.427038,0.90642 0.665806,1.54898 l 0.226498,0.60953 0.06017,-0.14387 c 0.03309,-0.0791 0.06495,-0.20102 0.0708,-0.27087 0.0058,-0.0699 0.02431,-0.16043 0.04104,-0.20129 0.01672,-0.0409 0.02263,-0.14087 0.01313,-0.22225 -0.0095,-0.0814 -0.002,-0.14796 0.01656,-0.14796 0.04718,0 0.04223,0.32482 -0.0091,0.59747 -0.201172,1.06867 -0.965646,1.06551 -1.694321,-0.007 -0.201246,-0.29621 -0.533089,-0.99642 -0.573611,-1.21037 -0.01899,-0.10025 -0.05295,-0.13905 -0.137756,-0.15737 -0.09829,-0.0212 -0.369526,-0.16895 -0.613705,-0.33422 -0.266627,-0.18047 -1.128681,-1.1803 -1.128681,-1.30907 0,-0.0691 0.235974,0.18857 0.318021,0.34724 0.09835,0.19019 0.772504,0.87673 1.02639,1.04525 0.15849,0.1052 0.292461,0.15828 0.433776,0.17186 0.185884,0.0179 0.21632,0.008 0.334971,-0.11387 0.07178,-0.0734 0.130509,-0.16352 0.130509,-0.2002 0,-0.0367 -0.05498,-0.17414 -0.12218,-0.30546 -0.161253,-0.31511 -0.644842,-1.45435 -0.625544,-1.47365 0.02109,-0.0211 0.414275,0.82408 0.604564,1.29951 0.11291,0.2821 0.16574,0.37269 0.185123,0.31744 0.01638,-0.0467 -0.05244,-0.27654 -0.173723,-0.58024 -0.110465,-0.2766 -0.262688,-0.67854 -0.338273,-0.8932 -0.07558,-0.21465 -0.138862,-0.39237 -0.140614,-0.39491 -0.0018,-0.003 -0.05798,-0.0178 -0.124958,-0.0339 -0.09127,-0.0219 -0.116146,-0.0155 -0.09931,0.0258 0.06564,0.16093 0.06674,0.20693 0.002,0.0842 -0.05195,-0.0985 -0.09646,-0.1343 -0.149688,-0.12038 -0.04166,0.0109 -0.07575,0.005 -0.07575,-0.0131 0,-0.0317 -0.235956,-0.073 -0.635,-0.11098 -0.104775,-0.01 -0.2286,-0.0261 -0.275166,-0.0358 -0.04657,-0.01 -0.12753,-0.0191 -0.179917,-0.0208 -0.07379,-0.003 -0.09525,-0.0283 -0.09525,-0.11446 0,-0.10778 0.0065,-0.11059 0.209238,-0.0911 l 0.209237,0.0201 -0.0831,-0.16288 c -0.0457,-0.0896 -0.07357,-0.16289 -0.06193,-0.16289 0.01164,0 0.05912,0.0744 0.1055,0.16531 0.08153,0.15982 0.09456,0.16695 0.392444,0.21481 0.16946,0.0272 0.343833,0.0597 0.387495,0.0721 0.05482,0.0156 0.06958,0.007 0.0477,-0.0287 -0.01742,-0.0282 0.01829,-0.0185 0.07937,0.0215 0.130581,0.0856 0.134544,0.0728 0.03944,-0.12659 -0.05678,-0.11908 -0.107165,-0.15891 -0.243417,-0.19248 -0.0945,-0.0233 -0.30916,-0.0804 -0.477028,-0.12701 -0.167869,-0.0466 -0.320269,-0.0815 -0.338667,-0.0775 -0.0184,0.004 -0.08108,-0.0152 -0.139285,-0.0426 -0.08738,-0.0411 -0.03939,-0.0466 0.275167,-0.0317 l 0.381,0.0181 -0.384958,-0.0659 -0.384958,-0.0659 -0.02779,-1.08007 c -0.01529,-0.59404 -0.02779,-3.90591 -0.02779,-7.3597 v -6.27964 h 2.28358 c 2.256791,0 2.28538,0.001 2.437009,0.0905 l 0.15343,0.0905 0.113984,-0.0843 c 0.111651,-0.0825 0.213424,-0.0849 4.971324,-0.11557 l 4.857339,-0.0313 v 8.61872 c 0,8.3 -0.0028,8.61872 -0.07689,8.61872 -0.04229,0 -0.180403,-0.0175 -0.306917,-0.0389 -0.47612,-0.0804 -0.589858,-0.0892 -0.589858,-0.0457 0,0.0918 0.279071,0.20636 0.621041,0.2549 0.230123,0.0327 0.350874,0.0677 0.340491,0.0989 -0.02055,0.0617 -0.02869,0.0611 -0.432365,-0.0319 -0.529006,-0.12187 -0.553858,-0.13585 -0.653689,-0.36792 -0.06448,-0.14988 -0.113142,-0.20804 -0.174075,-0.20804 -0.07969,0 -0.08091,0.007 -0.02111,0.12274 0.09653,0.18666 0.01315,0.23368 -0.346779,0.19554 -0.15731,-0.0167 -0.276494,-0.0213 -0.264852,-0.0102 0.03167,0.0301 1.388948,0.3571 1.608666,0.38761 0.205323,0.0285 0.38175,0.10679 0.243417,0.108 -0.09086,8e-4 -0.09554,0.0572 -0.01058,0.12765 0.03493,0.029 0.06287,0.0837 0.06209,0.1216 -0.0011,0.0531 -0.02086,0.0455 -0.08635,-0.0331 -0.04672,-0.0561 -0.09847,-0.12506 -0.115009,-0.15321 -0.01653,-0.0282 -0.07493,-0.0651 -0.129757,-0.0822 -0.0845,-0.0263 -0.06646,0.0124 0.11838,0.25354 0.119941,0.15649 0.207666,0.29493 0.194945,0.30766 -0.01272,0.0127 -0.0294,0.0152 -0.03707,0.005 -0.0077,-0.01 -0.120616,-0.15304 -0.250994,-0.31853 -0.186114,-0.23624 -0.267261,-0.30638 -0.37764,-0.32644 -0.07732,-0.014 -0.188214,-0.039 -0.246423,-0.0555 -0.0857,-0.0243 -0.05641,0.023 0.154013,0.24884 0.467961,0.50215 0.607808,1.01052 0.35269,1.28208 -0.258077,0.27471 -0.742435,9.3e-4 -1.54439,-0.87295 -0.278914,-0.30392 -0.805172,-0.96993 -0.766411,-0.96993 0.01102,0 0.21907,0.24288 0.462327,0.53975 0.431922,0.5271 0.662543,0.77427 0.734565,0.78729 0.01964,0.004 0.03131,0.0197 0.02593,0.0358 -0.01494,0.0448 0.294493,0.28726 0.334821,0.26234 0.01946,-0.012 0.04709,0.009 0.06139,0.0459 0.05742,0.14965 0.516134,0.26434 0.588555,0.14716 0.01511,-0.0245 -0.06725,-0.18162 -0.183031,-0.34925 -0.242101,-0.35052 -0.482135,-0.74929 -0.45103,-0.74929 0.01167,0 0.165978,0.22384 0.342897,0.49742 0.371988,0.57522 0.34577,0.54027 0.379763,0.50628 0.01453,-0.0145 -0.09586,-0.21297 -0.245309,-0.44097 -0.296526,-0.4524 -0.514004,-0.81673 -0.487525,-0.81673 0.0093,0 0.09954,0.11906 0.200635,0.26459 0.1011,0.14552 0.196535,0.2741 0.212078,0.28575 0.01554,0.0116 0.0898,0.1307 0.165023,0.26458 0.181869,0.32369 0.233793,0.35094 0.200081,0.10499 -0.02096,-0.15289 -0.09708,-0.29107 -0.359306,-0.6522 -0.381324,-0.52515 -0.296672,-0.48222 -1.320759,-0.66976 -0.967972,-0.17726 -0.872525,-0.17047 -0.790877,-0.0563 0.209563,0.29295 0.41096,0.67249 0.449797,0.84766 0.14807,0.66784 -0.493942,0.87078 -1.362837,0.43079 -0.293518,-0.14863 -0.246029,-0.1604 0.06112,-0.0151 0.469944,0.22225 0.860647,0.26156 1.064455,0.10709 0.106301,-0.0806 0.154218,-0.32441 0.106412,-0.54151 -0.04236,-0.19235 -0.363325,-0.86646 -0.43308,-0.90957 -0.02302,-0.0142 -0.157424,-0.0504 -0.298673,-0.0804 l -0.256816,-0.0546 0.232833,0.0238 c 0.128058,0.0131 0.347133,0.0301 0.486833,0.0377 0.1397,0.008 0.282575,0.0234 0.3175,0.0351 0.145763,0.0486 0.550333,0.0963 0.550333,0.0649 0,-0.0187 -0.07144,-0.046 -0.158749,-0.0606 -0.08731,-0.0147 -0.218436,-0.0448 -0.291385,-0.0671 -0.07295,-0.0222 -0.149148,-0.0376 -0.169333,-0.0342 -0.115846,0.0197 -0.23575,-0.0736 -0.309715,-0.24076 -0.05741,-0.12979 -0.107445,-0.1855 -0.166593,-0.1855 -0.07766,0 -0.07985,0.009 -0.0269,0.1111 0.08503,0.16389 0.02577,0.25539 -0.151926,0.23457 -0.01417,-0.002 -0.166571,-0.0144 -0.338667,-0.0283 -0.172095,-0.0139 -0.379576,-0.0414 -0.461068,-0.0612 -0.132962,-0.0322 -0.121015,-0.0363 0.116417,-0.0402 0.145521,-0.002 0.264583,-0.0211 0.264583,-0.0415 0,-0.0826 -0.119311,-0.11413 -0.372423,-0.0985 -0.239845,0.0148 -0.265327,0.0251 -0.254,0.10272 0.01911,0.131 -0.112432,0.19608 -0.237745,0.11764 -0.353217,-0.22111 -0.475711,-0.29205 -0.524972,-0.304 -0.03297,-0.008 -0.08724,0.0681 -0.133196,0.1868 l -0.07756,0.20031 0.154364,0.0431 c 0.0849,0.0237 0.325813,0.063 0.535363,0.0872 0.521418,0.0604 0.58017,0.0698 0.677333,0.10787 0.0753,0.0295 0.07824,0.0253 0.02657,-0.0382 -0.03196,-0.0393 -0.04888,-0.0714 -0.03762,-0.0714 0.02399,0 0.397681,0.49048 0.685369,0.89958 0.110521,0.15716 0.191423,0.28575 0.179782,0.28575 -0.01164,0 -0.106502,-0.11906 -0.2108,-0.26458 -0.260263,-0.36313 -0.362252,-0.44849 -0.649441,-0.54351 -0.244422,-0.0809 -0.245413,-0.0819 -0.0715,-0.0701 0.097,0.007 0.168493,-8.1e-4 0.158881,-0.0164 -0.01969,-0.0319 -0.277742,-0.0908 -0.716236,-0.16347 -0.162983,-0.027 -0.410633,-0.0925 -0.550333,-0.1455 -0.300461,-0.11399 -0.294812,-0.0498 -0.08228,-0.93431 0.228312,-0.95012 0.285386,-1.36991 0.287777,-2.11667 0.0016,-0.49047 -0.01681,-0.75318 -0.06664,-0.95225 -0.03784,-0.15121 -0.06287,-0.28086 -0.0556,-0.28812 0.0073,-0.007 0.05595,0.10693 0.108191,0.25375 0.07478,0.21016 0.09931,0.39063 0.115304,0.84832 0.02425,0.69412 -0.08218,1.75416 -0.225832,2.24924 -0.08181,0.28196 -0.07904,0.29218 0.101965,0.37547 0.08775,0.0404 0.200758,0.11181 0.251138,0.15875 0.05038,0.0469 0.101922,0.0853 0.114537,0.0853 0.01262,0 0.01983,-0.16669 0.01604,-0.37042 -0.0066,-0.35177 -0.0084,-0.35869 -0.03729,-0.13758 -0.02645,0.20262 -0.0284,0.19163 -0.01505,-0.0847 0.0084,-0.17462 0.03385,-0.55562 0.05648,-0.84666 0.06628,-0.85253 0.100827,-2.95498 0.05286,-3.21734 -0.02341,-0.12806 -0.09901,-0.45297 -0.168003,-0.72204 -0.178219,-0.69506 -0.30283,-0.9198 -0.630272,-1.13669 -0.233127,-0.15441 -0.196047,-0.17359 0.05646,-0.0292 l 0.17612,0.10071 0.27685,-0.1658 c 0.361823,-0.21669 0.464059,-0.36261 0.485052,-0.6923 0.01594,-0.25031 0.01151,-0.26306 -0.167886,-0.48305 -0.331355,-0.40634 -0.376828,-0.49453 -0.550088,-1.06682 -0.250667,-0.82798 -0.362168,-1.01181 -0.613725,-1.01181 -0.206484,0 -0.242925,0.10255 -0.217284,0.61148 0.02048,0.40646 0.01902,0.41613 -0.03238,0.21402 -0.08837,-0.34751 -0.07725,-0.70996 0.02579,-0.84095 0.167128,-0.21247 0.539643,-0.11666 0.691826,0.17794 0.03201,0.062 0.108712,0.34128 0.170441,0.62068 0.166851,0.75522 0.166742,0.75499 0.470866,0.99699 0.149727,0.11914 0.289975,0.24832 0.311663,0.28708 0.03371,0.0602 0.102817,0.0683 0.476365,0.0555 0.266201,-0.009 0.486558,-0.039 0.563933,-0.0764 l 0.127,-0.0615 -0.144199,0.13473 -0.144199,0.13473 -0.387813,-0.0285 -0.387812,-0.0285 0.01835,0.25363 c 0.0332,0.45905 -0.188055,0.76044 -0.679414,0.92546 -0.232453,0.0781 -0.239888,0.085 -0.164971,0.15275 0.208512,0.1887 0.393397,0.70967 0.445192,1.25447 0.01218,0.12806 0.04338,0.37571 0.06934,0.55033 0.05922,0.39839 0.05937,2.09165 2.54e-4,2.794 -0.08039,0.95486 -0.103209,1.778 -0.0493,1.778 0.02682,0 0.04876,-0.0343 0.04876,-0.0762 0,-0.1249 0.0813,-0.16996 0.268497,-0.14879 l 0.176003,0.0199 -0.105833,-0.087 c -0.05821,-0.0479 -0.118083,-0.0874 -0.133054,-0.088 -0.07955,-0.003 -0.06163,-0.14163 0.03275,-0.25379 0.10211,-0.12135 0.103284,-0.12815 0.02215,-0.12815 -0.04712,0 -0.134539,0.0186 -0.194263,0.0413 -0.185025,0.0703 -0.119358,0.001 0.08443,-0.0891 0.152316,-0.0674 0.205876,-0.0747 0.254,-0.0348 0.08656,0.0718 0.07637,0.12539 -0.04873,0.25597 l -0.109714,0.11451 0.130881,0.0254 c 0.405187,0.0786 0.408077,0.0787 0.353131,0.0214 -0.0291,-0.0304 -0.05292,-0.14562 -0.05292,-0.25606 0,-0.24973 -0.09727,-0.3326 -0.390419,-0.3326 -0.233119,0 -0.224698,0.0297 -0.137921,-0.48683 0.09698,-0.57728 0.121271,-1.43272 0.06672,-2.3495 -0.07057,-1.18618 -0.114433,-1.48583 -0.295831,-2.02105 l -0.161284,-0.47588 0.20665,-0.13261 c 0.218634,-0.14029 0.371164,-0.3572 0.483951,-0.68821 0.08409,-0.24678 0.190989,-0.32292 0.453401,-0.32292 0.444104,0 0.667724,-0.25617 0.508345,-0.58233 l -0.07747,-0.1585 -0.617914,-0.006 c -0.685893,-0.007 -0.83717,-0.0489 -0.920608,-0.25646 -0.02619,-0.0651 -0.114521,-0.37194 -0.196297,-0.6818 -0.08178,-0.30986 -0.170135,-0.60514 -0.196354,-0.65617 -0.09629,-0.18738 -0.266071,-0.32734 -0.428652,-0.35334 -0.105013,-0.0168 -0.178311,-0.0575 -0.20817,-0.11551 -0.07655,-0.1488 -0.215016,-0.28009 -0.295425,-0.28009 -0.04171,0 -0.135702,0.0585 -0.208881,0.13006 l -0.133054,0.13007 -0.0971,-0.0912 c -0.141011,-0.13247 -0.279282,-0.097 -0.373453,0.0957 -0.08802,0.18014 -0.105744,0.18467 -0.353011,0.0902 -0.169194,-0.0646 -0.187358,-0.064 -0.318916,0.0113 -0.08559,0.049 -0.18028,0.16133 -0.245018,0.29077 -0.09578,0.19149 -0.106936,0.27038 -0.12091,0.85523 l -0.0154,0.64428 -0.224508,0.19181 c -0.12348,0.10549 -0.249408,0.1918 -0.279842,0.1918 -0.03043,0 -0.136105,-0.0308 -0.234828,-0.0685 -0.220607,-0.0842 -0.32358,-0.0608 -0.567458,0.1292 -0.120381,0.0938 -0.29043,0.17332 -0.463805,0.21694 -0.337734,0.085 -0.409125,0.1419 -0.332242,0.26501 0.04668,0.0747 0.04315,0.10048 -0.02402,0.1747 -0.07683,0.0849 -0.07678,0.0892 0.0018,0.17603 0.117539,0.12988 0.465211,0.0962 0.831646,-0.0805 0.427744,-0.20629 0.517225,-0.18647 0.726028,0.16085 0.06299,0.10477 0.162427,0.25695 0.220971,0.33818 l 0.106443,0.14768 -0.225673,0.21215 c -0.536113,0.50399 -0.793601,0.94771 -0.948193,1.63397 -0.127627,0.56655 -0.123975,0.55894 -0.566919,1.18168 -0.529113,0.74389 -0.739753,1.12634 -0.998308,1.81259 -0.09906,0.26293 -0.09931,0.26719 -0.0147,0.254 0.06623,-0.0103 0.112345,-0.0917 0.200254,-0.35346 0.12811,-0.38145 0.340802,-0.75859 0.72738,-1.28979 0.4527,-0.62206 0.734366,-1.06835 0.745838,-1.18174 0.02312,-0.22857 0.05655,-0.37438 0.165803,-0.72326 0.177184,-0.56582 0.414124,-0.92814 0.800691,-1.22439 0.234929,-0.18004 0.7791,-0.48995 0.808565,-0.46049 0.01017,0.0102 -0.103036,0.10771 -0.251558,0.21676 -0.728678,0.53504 -1.103499,1.00076 -1.377451,1.71153 -0.09282,0.24082 -0.08513,0.29204 0.01589,0.10584 0.03474,-0.064 0.06392,-0.0915 0.06485,-0.061 9.32e-4,0.0305 0.02265,0.0425 0.04825,0.0266 0.03226,-0.0199 0.03161,-8.5e-4 -0.0021,0.0622 -0.02714,0.0507 -0.06966,0.078 -0.09608,0.0617 -0.03077,-0.019 -0.03804,-0.005 -0.02073,0.0402 0.04457,0.11614 -0.321128,0.77459 -0.756746,1.36255 -0.65641,0.88596 -0.894567,1.44916 -0.85379,2.01908 0.03973,0.55527 0.306538,0.91112 0.90943,1.21291 0.478922,0.23975 0.506738,0.24509 0.538515,0.10342 0.01457,-0.0649 0.06153,-0.16404 0.104358,-0.22022 0.07634,-0.10013 0.07661,-0.0972 0.01387,0.14817 -0.165635,0.64783 0.216192,1.00919 1.543427,1.46071 0.344565,0.11722 0.704858,0.25883 0.800652,0.31469 0.275891,0.16089 0.558384,0.47834 0.72418,0.81381 0.126207,0.25536 0.156374,0.36837 0.172447,0.64602 0.01743,0.30102 0.0076,0.36086 -0.09344,0.56732 -0.141034,0.28826 -0.341381,0.46635 -0.722506,0.64224 -0.403556,0.18624 -0.823158,0.26511 -1.641228,0.3085 -0.575188,0.0305 -0.720198,0.0518 -0.868459,0.12741 -0.206402,0.1053 -0.258348,0.2347 -0.165945,0.41339 0.07866,0.15211 0.174024,0.23646 0.388779,0.34388 0.501764,0.25098 1.642847,0.27333 2.255325,0.0442 0.457863,-0.17131 0.860133,-0.70367 1.009591,-1.33609 0.08327,-0.35235 0.0935,-1.09426 0.0194,-1.40758 -0.07878,-0.33314 -0.308753,-0.79681 -0.506774,-1.02177 -0.190994,-0.21698 -0.587149,-0.44045 -1.041873,-0.58772 -0.640142,-0.20731 -1.070315,-0.46376 -1.294828,-0.77192 -0.111458,-0.15298 -0.127949,-0.20721 -0.110696,-0.36404 0.01115,-0.10135 0.05303,-0.21565 0.09306,-0.254 0.06854,-0.0657 0.0717,-0.0555 0.05414,0.1737 l -0.01864,0.24342 h 0.363316 c 0.39413,1e-5 0.933058,0.0789 2.31065,0.33824 0.48895,0.0921 1.0033,0.18318 1.143,0.2025 0.1397,0.0193 0.250229,0.055 0.245619,0.0793 -0.0096,0.0505 0.496543,0.269 0.623055,0.269 0.111065,0 0.106211,-0.0635 -0.01142,-0.14945 -0.09463,-0.0691 -0.09438,-0.0694 0.0383,-0.0422 0.07345,0.015 0.144373,0.01 0.157596,-0.0116 0.02632,-0.0426 -0.18361,-0.14598 -0.481649,-0.23721 l -0.1905,-0.0583 0.232833,0.0222 c 0.128058,0.0122 0.295014,0.0474 0.371012,0.0782 0.14441,0.0585 0.231424,0.19059 0.144604,0.21953 -0.07071,0.0236 -0.06197,0.0946 0.02413,0.19603 0.04947,0.0583 0.05251,0.0707 0.0092,0.0375 -0.04188,-0.0321 -0.08695,-0.0358 -0.127,-0.0105 -0.110709,0.07 -0.26725,0.0424 -0.611978,-0.10812 -0.186028,-0.0812 -0.391203,-0.14765 -0.455944,-0.14765 H 68.62554 l 0.08553,0.16765 c 0.269849,0.52894 -0.09452,0.84071 -0.669649,0.57297 -0.124305,-0.0579 -0.278855,-0.14284 -0.343445,-0.18883 -0.06459,-0.046 -0.129573,-0.0715 -0.144407,-0.0567 -0.01483,0.0148 -0.02697,0.005 -0.02697,-0.0209 0,-0.0263 -0.0404,-0.0695 -0.08978,-0.0959 -0.10205,-0.0546 -0.0915,-0.0248 0.0684,0.19324 0.190713,0.26006 0.76869,1.22011 0.637144,1.05833 -0.03786,-0.0466 -0.101416,-0.12278 -0.141224,-0.16936 -0.03981,-0.0466 -0.260384,-0.36352 -0.490166,-0.7043 -0.330903,-0.49075 -0.467361,-0.65554 -0.656167,-0.79237 -0.131109,-0.095 -0.31458,-0.23509 -0.407714,-0.31127 -0.09313,-0.0762 -0.145928,-0.10866 -0.117321,-0.0722 0.0286,0.0365 0.07934,0.13173 0.112748,0.21168 0.04969,0.11892 0.05102,0.16353 0.0073,0.2452 -0.04955,0.0926 -0.05313,0.0859 -0.04925,-0.0926 0.0055,-0.25291 -0.116178,-0.42203 -0.328468,-0.45657 -0.182968,-0.0298 -0.191642,-0.003 -0.04421,0.13412 0.06048,0.0565 0.147695,0.15978 0.193802,0.22963 0.04611,0.0699 -0.0127,0.0222 -0.130672,-0.10583 -0.117976,-0.12806 -0.214712,-0.2449 -0.214969,-0.25965 -2.54e-4,-0.0148 -0.129054,-0.0395 -0.286217,-0.055 -0.157162,-0.0155 -0.357187,-0.0377 -0.4445,-0.0493 -0.08731,-0.0117 -0.15875,-0.004 -0.15875,0.0169 0,0.0209 0.05421,0.11286 0.120473,0.20433 0.152695,0.21079 0.480195,0.3845 1.096181,0.58142 0.261701,0.0837 0.576026,0.20481 0.6985,0.26922 0.122474,0.0644 0.24085,0.12486 0.263059,0.13433 0.02221,0.009 -0.02418,-0.0666 -0.103097,-0.16909 -0.207376,-0.2693 -0.242011,-0.33543 -0.0865,-0.16515 0.123309,0.13502 0.217695,0.26174 0.621976,0.83509 0.07375,0.10459 0.188048,0.35477 0.254,0.55595 0.109328,0.33351 0.119911,0.41997 0.119911,0.97963 0,0.68801 -0.03926,0.88444 -0.263866,1.32014 -0.148881,0.28881 -0.666388,0.83921 -0.759782,0.80808 -0.02531,-0.008 -0.07681,0.0154 -0.114438,0.0531 -0.03763,0.0376 -0.06841,0.06 -0.06841,0.0498 0,-0.0102 -0.109537,0.007 -0.243416,0.0386 -0.294574,0.0693 -0.98125,0.0742 -1.386417,0.01 -0.162983,-0.0259 -0.343958,-0.0493 -0.402167,-0.0521 -0.05821,-0.003 -0.131006,-0.0288 -0.161773,-0.0579 -0.06216,-0.0588 -0.134367,-0.0701 -0.134916,-0.0212 -2.11e-4,0.0175 0.0326,0.16034 0.07288,0.3175 l 0.07323,0.28575 h 0.225559 c 0.124057,0 0.283533,-0.03 0.354391,-0.0666 0.07086,-0.0366 0.137581,-0.0579 0.148274,-0.0472 0.01069,0.0107 -0.06377,0.0597 -0.165466,0.10896 -0.245838,0.119 -0.585181,0.11906 -0.825453,1.2e-4 z m 4.248002,-4.67911 c -0.02218,-0.0578 -0.01594,-0.0606 0.0371,-0.0166 0.05349,0.0444 0.07116,0.0335 0.109612,-0.0677 0.05509,-0.14489 0.02555,-0.32972 -0.08044,-0.50345 -0.06927,-0.11354 -0.118281,-0.136 -0.433793,-0.19879 -0.195637,-0.0389 -0.631929,-0.12967 -0.969537,-0.20163 -0.337608,-0.072 -0.647215,-0.12538 -0.688015,-0.11871 -0.06977,0.0114 0.13112,0.16838 0.934706,0.73041 0.371811,0.26005 0.768833,0.4456 0.953755,0.44575 0.134025,1.3e-4 0.158502,-0.0123 0.136614,-0.0694 z m -0.44806,-0.32098 c -0.313204,-0.3635 -0.405212,-0.49344 -0.17315,-0.24453 0.209998,0.22524 0.404731,0.46569 0.377116,0.46564 -0.0074,-10e-6 -0.09919,-0.0995 -0.203966,-0.22111 z m 0.184934,-0.0435 c -0.110558,-0.14552 -0.157079,-0.22648 -0.10338,-0.17991 0.100721,0.0873 0.361956,0.4445 0.325121,0.4445 -0.0114,0 -0.111183,-0.11907 -0.221741,-0.26459 z m -0.601023,-0.14842 c -0.245872,-0.29335 -0.26255,-0.32064 -0.08037,-0.13152 0.207035,0.21491 0.438632,0.50259 0.404091,0.50194 -0.0074,-1.3e-4 -0.153081,-0.16683 -0.323721,-0.37042 z m 0.855544,0.14842 c -0.06157,-0.099 -0.133243,-0.20738 -0.159281,-0.24096 -0.03542,-0.0457 -0.03487,-0.0536 0.0022,-0.0313 0.0538,0.0323 0.322433,0.45222 0.289269,0.45222 -0.01113,0 -0.07062,-0.081 -0.132185,-0.17992 z M 67.35185,174.0404 c -0.05266,-0.0671 -0.05116,-0.0686 0.01598,-0.016 0.04075,0.0319 0.07408,0.0653 0.07408,0.0741 0,0.0348 -0.03476,0.0124 -0.09007,-0.0581 z m -0.169333,-0.21167 c -0.05266,-0.0671 -0.05116,-0.0686 0.01598,-0.016 0.07052,0.0553 0.09294,0.0901 0.0581,0.0901 -0.0088,0 -0.04213,-0.0333 -0.07408,-0.0741 z m 4.778297,-0.6985 c -0.0098,-0.0291 -0.05428,-0.0536 -0.09883,-0.0545 -0.04455,-8.7e-4 -0.102308,-0.0147 -0.128347,-0.0308 -0.02604,-0.0161 -0.147608,-0.0415 -0.270156,-0.0564 -0.180866,-0.022 -0.217179,-0.0162 -0.192884,0.0308 0.01646,0.0319 0.0038,0.0262 -0.02823,-0.0126 -0.06726,-0.0816 -0.401971,-0.16122 -0.354423,-0.0843 0.0161,0.026 -0.02754,0.0148 -0.09698,-0.0251 -0.06944,-0.0399 -0.140501,-0.0582 -0.157914,-0.0408 -0.06321,0.0632 0.06156,0.11832 0.494697,0.21851 0.498412,0.11528 0.861411,0.13931 0.833062,0.0551 z m -1.724897,-0.28627 c 0,-0.0466 -0.03406,-0.0654 -0.183464,-0.10115 -0.07384,-0.0177 -0.110187,-0.0129 -0.09454,0.0124 0.01398,0.0226 -0.03323,0.0119 -0.104925,-0.0239 -0.151843,-0.0757 -0.192623,-0.0554 -0.128633,0.0642 0.03725,0.0696 0.08841,0.0853 0.278597,0.0853 0.128129,0 0.232962,-0.0166 0.232962,-0.0368 z m -7.643519,-0.31463 c -0.03994,-0.0609 -0.08108,-0.10236 -0.09143,-0.092 -0.01035,0.0103 0.01386,0.0687 0.0538,0.12964 0.03994,0.061 0.08108,0.10236 0.09143,0.092 0.01035,-0.0103 -0.01386,-0.0687 -0.0538,-0.12965 z m -0.188148,-0.72002 c 0,-0.10599 -0.0957,-0.27716 -0.154962,-0.27716 -0.03119,0 -0.057,0.0238 -0.05735,0.0529 -4.82e-4,0.0395 -0.0097,0.0386 -0.03654,-0.004 -0.01974,-0.0311 -0.0785,-0.0502 -0.130578,-0.0423 l -0.09469,0.0143 0.08889,0.11251 c 0.04889,0.0619 0.08889,0.12612 0.08889,0.14276 0,0.0564 -0.132258,-0.0791 -0.194379,-0.19927 -0.03399,-0.0657 -0.08988,-0.1195 -0.124208,-0.1195 -0.08048,0 -0.07906,0.0131 0.02311,0.21335 0.08524,0.16708 0.08638,0.16765 0.338666,0.16765 0.193148,0 0.25314,-0.0146 0.25314,-0.0615 z m -0.18527,-0.046 c -0.04085,-0.10646 -0.0288,-0.13393 0.0211,-0.0481 0.02471,0.0425 0.03601,0.0862 0.02511,0.0971 -0.0109,0.0109 -0.0317,-0.0111 -0.04621,-0.049 z m -0.691968,-0.17613 c -0.06877,-0.11178 -0.151942,-0.20374 -0.184819,-0.20436 -0.03288,-6.1e-4 -0.08064,-0.0142 -0.106147,-0.0302 -0.0255,-0.016 -0.127149,-0.042 -0.225878,-0.0578 -0.09873,-0.0158 -0.189437,-0.0546 -0.201575,-0.0862 -0.01214,-0.0316 -0.06675,-0.0575 -0.121351,-0.0575 h -0.09928 l 0.107176,0.11564 c 0.07618,0.0822 0.10216,0.14983 0.08983,0.23383 -0.01804,0.12291 -0.008,0.12955 0.264616,0.17548 0.05821,0.01 0.141387,0.0319 0.184842,0.0492 0.07127,0.0283 0.07401,0.0214 0.02799,-0.0703 -0.0426,-0.0849 -0.03409,-0.0813 0.05157,0.0216 0.05642,0.0678 0.120937,0.11191 0.143365,0.098 0.02243,-0.0139 0.06789,-0.008 0.101031,0.012 0.105802,0.0654 0.09695,0.009 -0.03137,-0.19942 z m -0.159929,-0.0127 c -0.03612,-0.0699 -0.05615,-0.127 -0.04451,-0.127 0.01164,0 0.05072,0.0572 0.08684,0.127 0.03612,0.0699 0.05615,0.127 0.04451,0.127 -0.01164,0 -0.05072,-0.0571 -0.08684,-0.127 z m -0.232833,-0.127 c -0.02492,-0.0466 -0.03579,-0.0847 -0.02415,-0.0847 0.01164,0 0.04156,0.0381 0.06648,0.0847 0.02492,0.0466 0.03579,0.0847 0.02415,0.0847 -0.01164,0 -0.04156,-0.0381 -0.06648,-0.0847 z m 0.677333,0.35815 c 0,-0.0126 -0.03729,-0.0959 -0.08286,-0.18528 -0.06973,-0.13668 -0.156598,-0.2152 -0.238087,-0.2152 -0.0097,0 0.03469,0.095 0.09871,0.21106 0.06402,0.11608 0.140217,0.21133 0.169321,0.21166 0.0291,3.4e-4 0.05292,-0.01 0.05292,-0.0222 z m 0.846667,-0.23115 c 0,-0.0479 -0.02822,-0.0847 -0.06499,-0.0847 -0.05187,0 -0.05584,0.0171 -0.01968,0.0847 0.02492,0.0466 0.05417,0.0847 0.06499,0.0847 0.01082,0 0.01968,-0.0381 0.01968,-0.0847 z m -2.34687,-0.0529 -0.02424,-0.0953 0.04903,0.0953 c 0.04528,0.088 0.205421,0.13689 0.205421,0.0627 0,-0.0576 -0.213323,-0.34849 -0.255527,-0.34849 -0.02244,0 -0.04081,0.017 -0.04081,0.0378 0,0.022 -0.07327,0.0214 -0.17492,-0.001 -0.09621,-0.0216 -0.184104,-0.0301 -0.195329,-0.0189 -0.01122,0.0112 0.02393,0.0922 0.07813,0.17984 0.0966,0.15631 0.09903,0.15739 0.123866,0.0551 l 0.02533,-0.10429 0.02994,0.11642 c 0.02041,0.0794 0.05753,0.11642 0.116648,0.11642 0.06889,0 0.08173,-0.0196 0.06247,-0.0952 z m 11.871235,-0.24461 c -0.02527,-0.0472 -0.06321,-0.0752 -0.08431,-0.0621 -0.05533,0.0342 -0.0017,0.148 0.06979,0.148 0.04762,0 0.0507,-0.0182 0.01451,-0.0859 z M 60.9755,171.20777 c -0.0291,-0.0117 -0.07673,-0.0117 -0.105833,0 -0.0291,0.0117 -0.0053,0.0214 0.05292,0.0214 0.05821,0 0.08202,-0.01 0.05292,-0.0214 z m 10.085917,-0.2683 c 0.01439,-0.0233 -0.0035,-0.0423 -0.03983,-0.0423 -0.0363,0 -0.066,0.0191 -0.066,0.0423 0,0.0233 0.01793,0.0423 0.03984,0.0423 0.02191,0 0.05161,-0.0191 0.066,-0.0423 z m 2.17118,-0.86752 c -0.0084,-0.0584 -0.0502,-0.0893 -0.133754,-0.0989 -0.187344,-0.0214 -0.215949,0.0471 -0.08476,0.20301 0.109818,0.13051 0.118962,0.13364 0.173316,0.0593 0.03156,-0.0432 0.0519,-0.11671 0.0452,-0.16344 z m -13.085428,-0.41042 c -0.01351,-0.0338 -0.02354,-0.0237 -0.02558,0.0256 -0.0018,0.0446 0.0082,0.0696 0.02224,0.0556 0.01407,-0.0141 0.01557,-0.0506 0.0033,-0.0811 z m 1.749081,-0.0531 c 0,-0.0103 -0.01905,-0.0304 -0.04233,-0.0448 -0.02328,-0.0144 -0.04233,-0.006 -0.04233,0.0187 0,0.0247 0.01905,0.0448 0.04233,0.0448 0.02328,0 0.04233,-0.008 0.04233,-0.0187 z m 9.929446,-0.65498 c -0.03282,-0.0531 -0.150446,-0.0626 -0.150446,-0.0121 0,0.0186 0.02286,0.0567 0.0508,0.0847 0.05918,0.0592 0.143235,-0.002 0.09965,-0.0725 z m 1.246554,-0.35833 c 0,-0.0855 -0.105752,-0.15885 -0.185134,-0.12839 -0.03788,0.0145 -0.06887,0.0428 -0.06887,0.0629 0,0.0201 0.02841,0.0256 0.06314,0.0122 0.03605,-0.0138 0.07432,0.005 0.0892,0.0437 0.03189,0.0831 0.101661,0.0897 0.101661,0.01 z m -8.746847,-0.13439 c 0.01446,-0.0377 0.0074,-0.0547 -0.01664,-0.0398 -0.02302,0.0142 -0.04185,0.0438 -0.04185,0.0657 0,0.0609 0.03034,0.0475 0.05849,-0.0259 z m -3.487486,-0.0175 c 0,-0.0641 -0.15947,-0.13637 -0.190429,-0.0863 -0.01443,0.0234 -0.01446,0.0615 -8.5e-5,0.0848 0.03351,0.0542 0.1905,0.0555 0.1905,0.001 z m -1.778,-0.0887 c 0,-0.0219 -0.02798,-0.0398 -0.06217,-0.0398 -0.03777,0 -0.05264,0.0248 -0.0379,0.0632 0.02499,0.0651 0.100069,0.0476 0.100069,-0.0234 z m 2.709333,-0.20571 c 0,-0.0868 -0.0549,-0.17279 -0.110362,-0.17279 -0.07237,0 -0.07705,0.092 -0.0082,0.16087 0.06038,0.0604 0.118533,0.0662 0.118533,0.0119 z m 8.839765,-0.69137 c -0.01561,-0.1619 -0.08702,-0.18465 -0.09966,-0.0317 -0.01004,0.12146 0.0099,0.16933 0.07041,0.16933 0.02338,0 0.03655,-0.0619 0.02925,-0.13758 z m 0.685235,-0.50584 c 0,-0.0473 -0.123912,-0.15719 -0.179917,-0.15957 -0.05526,-0.002 -0.03438,0.0949 0.03741,0.17424 0.06982,0.0771 0.142509,0.0697 0.142509,-0.0147 z m 0.973666,-0.74871 c 0,-0.0206 -0.04763,-0.0687 -0.105833,-0.10681 -0.11824,-0.0775 -0.130583,-0.0635 -0.05332,0.0602 0.05299,0.0848 0.15915,0.11595 0.15915,0.0466 z M 61.32475,165.77117 c 0,-0.033 -0.04286,-0.0661 -0.09525,-0.0735 -0.102765,-0.0146 -0.137637,0.0953 -0.04233,0.13347 0.08007,0.032 0.137583,0.007 0.137583,-0.06 z m 11.6205,-0.45964 c 0,-0.0499 -0.08257,-0.10338 -0.112889,-0.0731 -0.03032,0.0303 0.02311,0.11289 0.07305,0.11289 0.02191,0 0.03984,-0.0179 0.03984,-0.0398 z m -10.498667,-0.508 c 0,-0.0499 -0.08256,-0.10338 -0.112889,-0.0731 -0.03032,0.0303 0.02311,0.11289 0.07305,0.11289 0.02191,0 0.03983,-0.0179 0.03983,-0.0398 z m -3.682999,-0.55283 c 0,-0.0181 -0.03747,-0.0779 -0.08326,-0.1329 l -0.08326,-0.0999 v 0.23284 0.23283 l 0.08326,-0.0999 c 0.04579,-0.055 0.08326,-0.11477 0.08326,-0.13289 z m 13.127727,-0.0549 c -0.05434,-0.0543 -0.109434,-0.0123 -0.06921,0.0528 0.01558,0.0252 0.04772,0.0339 0.07143,0.0192 0.02891,-0.0179 0.02818,-0.0415 -0.0022,-0.072 z m -11.603727,-0.49525 c 0,-0.0233 -0.0084,-0.0423 -0.01867,-0.0423 -0.01027,0 -0.03044,0.0191 -0.04483,0.0423 -0.01439,0.0233 -0.006,0.0423 0.01867,0.0423 0.02466,0 0.04483,-0.019 0.04483,-0.0423 z m 12.699999,-0.2565 c 0,-0.0219 -0.02858,-0.0398 -0.0635,-0.0398 -0.06546,0 -0.0841,0.0499 -0.03643,0.0976 0.03382,0.0338 0.09993,-0.004 0.09993,-0.0578 z m -1.778,-0.58498 c 0,-0.0204 -0.02858,-0.0609 -0.0635,-0.0898 -0.06893,-0.0572 -0.07754,-0.0435 -0.0378,0.06 0.0272,0.0709 0.101304,0.0927 0.101304,0.0298 z m -7.112,-0.10649 c 0,-0.0783 -0.129183,-0.12511 -0.186641,-0.0677 -0.03242,0.0324 -0.02735,0.057 0.01766,0.0854 0.0919,0.0581 0.168979,0.05 0.168979,-0.0177 z m -2.162095,-0.47972 c 0.110532,-0.20484 0.200553,-0.25734 0.564012,-0.32898 0.173162,-0.0341 0.143286,-0.13783 -0.0551,-0.19125 -0.208098,-0.056 -0.243315,-0.13069 -0.151992,-0.32219 0.03823,-0.0802 0.06951,-0.15464 0.06951,-0.16549 0,-0.0572 -0.103374,-0.003 -0.255828,0.13512 l -0.171405,0.15486 -0.164397,-0.16053 c -0.202132,-0.19738 -0.313844,-0.1849 -0.252718,0.0282 0.06247,0.2178 0.04837,0.31416 -0.06582,0.44986 -0.05821,0.0692 -0.105833,0.13622 -0.105833,0.14898 0,0.0128 0.08096,0.0291 0.179916,0.0362 l 0.179917,0.013 -0.0122,0.1875 c -0.02431,0.37354 0.04597,0.37779 0.241942,0.0146 z m -2.240571,0.007 c 0,-0.0336 -0.01905,-0.061 -0.04233,-0.061 -0.02328,0 -0.04233,0.0392 -0.04233,0.0872 0,0.0479 0.01905,0.0754 0.04233,0.061 0.02328,-0.0144 0.04233,-0.0536 0.04233,-0.0872 z m 12.293304,-0.1703 c 0.04363,-0.1137 0.02959,-0.14532 -0.08369,-0.18839 -0.161602,-0.0614 -0.19824,-0.0105 -0.09392,0.13061 0.10469,0.1416 0.140925,0.15339 0.177612,0.0578 z m -1.413638,-0.86437 c 0,-0.0233 -0.01905,-0.0423 -0.04233,-0.0423 -0.02328,0 -0.04233,0.019 -0.04233,0.0423 0,0.0233 0.01905,0.0423 0.04233,0.0423 0.02328,0 0.04233,-0.019 0.04233,-0.0423 z m -2.143691,-0.10583 c 0.0134,-0.0349 0.0059,-0.0635 -0.01664,-0.0635 -0.02255,0 -0.041,0.0286 -0.041,0.0635 0,0.0349 0.0075,0.0635 0.01664,0.0635 0.0092,0 0.0276,-0.0286 0.041,-0.0635 z m -2.044134,-0.45615 c -0.0052,-0.0506 -0.0633,-0.0408 -0.08149,0.0138 -0.0093,0.0279 0.0059,0.0432 0.03387,0.0339 0.02794,-0.009 0.04937,-0.0308 0.04763,-0.0476 z m 2.330661,-0.92517 c 0.44319,-0.25578 0.524602,-0.25698 0.905387,-0.0134 0.294908,0.18865 0.594365,0.24597 0.622542,0.11917 0.03003,-0.13513 -0.04808,-0.27928 -0.287127,-0.52989 -0.126667,-0.1328 -0.230022,-0.25716 -0.229676,-0.27635 3.38e-4,-0.0192 0.146059,-0.11109 0.323808,-0.20422 0.345173,-0.18086 0.458685,-0.29353 0.358618,-0.35596 -0.03178,-0.0198 -0.225256,-0.0491 -0.429951,-0.0652 -0.443504,-0.0347 -0.484856,-0.0681 -0.526765,-0.42555 -0.04988,-0.42539 -0.110192,-0.65617 -0.171494,-0.65617 -0.07324,0 -0.09447,0.0763 -0.129505,0.46567 -0.01572,0.17462 -0.05475,0.38169 -0.08674,0.46014 l -0.05817,0.14265 -0.441379,-0.0301 c -0.426236,-0.0291 -0.617046,-0.0108 -0.617046,0.059 0,0.0183 0.119062,0.11542 0.264583,0.21574 0.446843,0.30803 0.427232,0.26731 0.261252,0.54245 -0.243989,0.40447 -0.330924,0.76909 -0.183369,0.76909 0.02683,0 0.218101,-0.0977 0.425036,-0.21715 z m -3.139708,-0.69116 c 0.06403,-0.0771 0.02243,-0.15002 -0.08563,-0.15002 -0.05146,0 -0.08217,0.029 -0.08217,0.0776 0,0.13862 0.08309,0.17447 0.167794,0.0724 z m -2.057392,-0.21328 c -0.01335,-0.0348 -0.04336,-0.0515 -0.06669,-0.037 -0.02608,0.0161 -0.0203,0.0402 0.01502,0.0626 0.07708,0.0488 0.07972,0.0475 0.05167,-0.0256 z m -2.521034,-0.28648 c 0.0105,-0.0545 -0.01407,-0.0736 -0.09476,-0.0736 -0.118844,0 -0.121321,0.003 -0.08244,0.10445 0.03373,0.0879 0.158525,0.0662 0.177208,-0.0309 z m 11.691965,-0.18193 c 0,-0.0363 -0.01936,-0.054 -0.04302,-0.0394 -0.02366,0.0146 -0.03206,0.0443 -0.01867,0.066 0.03629,0.0587 0.06169,0.0478 0.06169,-0.0266 z m -13.292666,-0.2938 c 0,-0.0349 -0.02858,-0.0635 -0.0635,-0.0635 -0.06611,0 -0.08399,0.0501 -0.03528,0.0988 0.04871,0.0487 0.09878,0.0308 0.09878,-0.0353 z m 6.984999,-0.74084 c 0,-0.0233 -0.01905,-0.0423 -0.04233,-0.0423 -0.02328,0 -0.04233,0.019 -0.04233,0.0423 0,0.0233 0.01905,0.0423 0.04233,0.0423 0.02328,0 0.04233,-0.0191 0.04233,-0.0423 z m -0.931333,-0.0423 c 0,-0.0233 -0.0084,-0.0423 -0.01867,-0.0423 -0.01027,0 -0.03044,0.019 -0.04483,0.0423 -0.01439,0.0233 -0.006,0.0423 0.01867,0.0423 0.02466,0 0.04483,-0.019 0.04483,-0.0423 z m 6.582108,-0.23816 c 0.107538,-0.10753 0.06546,-0.27706 -0.0808,-0.3255 -0.105388,-0.0349 -0.135285,-0.0269 -0.200468,0.0536 -0.06197,0.0765 -0.06743,0.11206 -0.02855,0.18593 0.08805,0.16732 0.197984,0.19783 0.309823,0.086 z M 59.61025,156.82142 c 0,-0.0727 -0.07047,-0.11961 -0.127114,-0.0846 -0.02817,0.0174 -0.02745,0.0542 0.0021,0.10952 0.04734,0.0884 0.12499,0.073 0.12499,-0.0249 z m 6.54745,-0.17218 c 0.03528,-0.0919 -0.05429,-0.17842 -0.118404,-0.1143 -0.05419,0.0542 -0.02062,0.18064 0.04795,0.18064 0.02475,0 0.05645,-0.0298 0.07045,-0.0663 z m 2.737804,-0.23827 c 0.02574,-0.0162 0.03202,-0.0442 0.01397,-0.0623 -0.04361,-0.0436 -0.11269,0.0699 -0.10733,0.17639 l 0.0043,0.0847 0.02115,-0.0847 c 0.01163,-0.0466 0.04221,-0.0979 0.06795,-0.11411 z m 1.310844,-0.1928 c 0.0262,-0.0347 0.02338,-0.0529 -0.0082,-0.0529 -0.04828,0 -0.215773,0.24234 -0.21607,0.31263 -8.5e-5,0.0206 0.04135,-0.0175 0.09209,-0.0847 0.05074,-0.0672 0.110219,-0.14594 0.132184,-0.17504 z m -11.651089,23.03635 c 0.002,-0.0493 0.01206,-0.0593 0.02558,-0.0256 0.01223,0.0306 0.01073,0.0671 -0.0033,0.0811 -0.01407,0.0141 -0.02407,-0.0109 -0.02223,-0.0556 z m 8.293991,-0.14463 c -0.02853,-0.11893 -0.04346,-0.22466 -0.03317,-0.23495 0.01029,-0.0103 0.04133,0.0793 0.06899,0.19912 0.02766,0.11981 0.04258,0.22554 0.03317,0.23495 -0.0094,0.009 -0.04046,-0.0802 -0.06899,-0.19912 z m 4.32079,-0.22225 c -0.138639,-0.30061 -0.307171,-0.72906 -0.403816,-1.02659 -0.05071,-0.1561 0.142229,0.20835 0.268925,0.508 0.18681,0.44183 0.342897,0.86784 0.317969,0.86784 -0.0121,0 -0.09449,-0.15717 -0.183078,-0.34925 z m -4.571448,0.23988 c 0.002,-0.0493 0.01206,-0.0593 0.02558,-0.0256 0.01223,0.0306 0.01073,0.0671 -0.0033,0.0811 -0.01407,0.0141 -0.02407,-0.0109 -0.02223,-0.0556 z m -4.189119,-0.0225 c -0.204328,-0.061 -0.552435,-0.43178 -0.736413,-0.78447 -0.0868,-0.16639 -0.15781,-0.31661 -0.15781,-0.33383 0,-0.0172 0.119225,0.14749 0.264944,0.36602 0.325343,0.48791 0.590896,0.69347 0.85103,0.65876 0.29286,-0.0391 0.486981,-0.3124 0.577362,-0.81296 l 0.038,-0.21047 -0.0098,0.27598 c -0.02159,0.60779 -0.381751,0.9739 -0.827312,0.84097 z m 2.459932,-0.0798 c 0,-0.0815 0.0087,-0.11483 0.01936,-0.0741 0.01065,0.0407 0.01065,0.10742 0,0.14816 -0.01065,0.0408 -0.01936,0.007 -0.01936,-0.0741 z m -4.534784,-0.047 c -0.02608,-0.0748 -0.04001,-0.14343 -0.03096,-0.15249 0.0091,-0.009 0.0378,0.0447 0.06388,0.11957 0.02608,0.0748 0.04001,0.14343 0.03095,0.15248 -0.0091,0.009 -0.0378,-0.0447 -0.06388,-0.11956 z m 12.760999,-0.26447 c -0.108701,-0.22953 -0.188192,-0.42678 -0.176646,-0.43833 0.03251,-0.0325 0.414308,0.75084 0.39307,0.80647 -0.01033,0.0271 -0.107723,-0.1386 -0.216424,-0.36814 z m -2.16511,0.11043 c -0.15049,-0.33709 -0.317653,-0.78264 -0.300186,-0.80011 0.008,-0.008 0.08303,0.15211 0.166781,0.35576 0.08375,0.20364 0.182498,0.4417 0.219443,0.52901 0.10837,0.25612 0.03298,0.18193 -0.08604,-0.0847 z m -6.744918,0.13405 c 0.002,-0.0493 0.01206,-0.0593 0.02558,-0.0256 0.01223,0.0306 0.01073,0.0671 -0.0033,0.0811 -0.01407,0.0141 -0.02407,-0.0109 -0.02223,-0.0556 z m 2.370667,0 c 0.002,-0.0493 0.01206,-0.0593 0.02558,-0.0256 0.01223,0.0306 0.01073,0.0671 -0.0033,0.0811 -0.01407,0.0141 -0.02407,-0.0109 -0.02223,-0.0556 z m 2.127933,0.002 c -0.01379,-0.0359 -0.01561,-0.0748 -0.004,-0.0863 0.01156,-0.0116 0.03118,0.0178 0.0436,0.0653 0.02638,0.10088 -0.0029,0.11646 -0.03955,0.021 z m 0.350454,1.7e-4 c -0.04085,-0.10645 -0.0288,-0.13392 0.0211,-0.0481 0.02471,0.0425 0.03601,0.0862 0.02511,0.0971 -0.0109,0.0109 -0.0317,-0.0111 -0.04621,-0.049 z m -9.016999,-0.0847 c -0.04085,-0.10646 -0.0288,-0.13393 0.0211,-0.0481 0.02471,0.0425 0.03601,0.0862 0.02511,0.0971 -0.0109,0.0109 -0.03169,-0.0111 -0.04621,-0.049 z m 7.977945,-0.0442 c 0.002,-0.0493 0.01206,-0.0593 0.02558,-0.0256 0.01223,0.0306 0.01073,0.0671 -0.0033,0.0811 -0.01407,0.0141 -0.02407,-0.0109 -0.02223,-0.0556 z m -9.443675,-0.0285 c 0,-0.0319 0.05793,-0.11349 0.128737,-0.18132 0.07081,-0.0678 0.187557,-0.215 0.259446,-0.32703 0.16692,-0.26012 0.210436,-0.22749 0.05471,0.041 -0.148434,0.25595 -0.25398,0.39297 -0.359787,0.46708 -0.07025,0.0492 -0.08311,0.0492 -0.08311,2.4e-4 z m 5.569857,-0.0557 c -0.01557,-0.062 -0.02015,-0.12097 -0.01017,-0.13094 0.01,-0.01 0.03088,0.0326 0.04645,0.0947 0.01557,0.062 0.02015,0.12097 0.01017,0.13095 -0.01,0.01 -0.03088,-0.0326 -0.04645,-0.0947 z m 4.76512,-0.15079 c -0.05013,-0.12062 -0.08415,-0.22629 -0.07562,-0.23483 0.0085,-0.009 0.05653,0.0832 0.106661,0.20379 0.05013,0.12061 0.08415,0.22629 0.07562,0.23482 -0.0085,0.009 -0.05653,-0.0832 -0.106661,-0.20378 z m 2.322689,-0.20602 c -0.116841,-0.23283 -0.202913,-0.42333 -0.191272,-0.42333 0.01164,0 0.116764,0.1905 0.233606,0.42333 0.116841,0.23283 0.202913,0.42333 0.191271,0.42333 -0.01164,0 -0.116764,-0.1905 -0.233605,-0.42333 z m -11.065796,0.0555 c -0.06061,-0.18201 -0.108769,-0.3499 -0.107017,-0.37311 0.0018,-0.0232 0.05872,0.11834 0.126595,0.31453 0.06787,0.19619 0.116032,0.36408 0.107017,0.3731 -0.009,0.009 -0.06598,-0.13252 -0.126595,-0.31452 z m 8.425193,0.21807 c -0.04085,-0.10646 -0.0288,-0.13392 0.0211,-0.0481 0.02471,0.0425 0.03601,0.0862 0.02511,0.0971 -0.0109,0.0109 -0.03169,-0.0111 -0.04621,-0.049 z m -8.678333,-0.127 c -0.04085,-0.10646 -0.0288,-0.13392 0.0211,-0.0481 0.02471,0.0425 0.03601,0.0862 0.02511,0.0971 -0.0109,0.0109 -0.03169,-0.0111 -0.04621,-0.049 z m 2.695283,-0.40094 c -0.194406,-0.50379 -0.278912,-0.82344 -0.134195,-0.50759 0.147247,0.32137 0.337071,0.85716 0.320886,0.90572 -0.0084,0.0253 -0.09244,-0.15387 -0.186691,-0.39813 z m 10.636461,0.23324 c -0.04356,-0.11641 -0.104933,-0.2765 -0.136391,-0.35575 -0.03146,-0.0792 -0.05016,-0.15111 -0.04157,-0.15971 0.03008,-0.0301 0.285917,0.58986 0.271606,0.65816 -0.008,0.038 -0.05005,-0.0262 -0.09365,-0.1427 z m -10.83326,-0.11188 c -0.0417,-0.1174 -0.06849,-0.22079 -0.05953,-0.22975 0.009,-0.009 0.05071,0.0795 0.09279,0.19649 0.04208,0.11702 0.06887,0.22041 0.05953,0.22975 -0.0093,0.009 -0.05109,-0.0791 -0.09279,-0.19649 z m -3.794042,-0.0328 c -0.02807,-0.11701 -0.04347,-0.23544 -0.03422,-0.26319 0.0092,-0.0277 0.04129,0.0589 0.0712,0.19258 0.02991,0.13366 0.04531,0.25209 0.03422,0.26318 -0.01109,0.0111 -0.04313,-0.0756 -0.0712,-0.19257 z m 2.265878,0.0489 c -0.163822,-0.33754 -0.274961,-0.60272 -0.252604,-0.60272 0.03177,0 0.368279,0.72205 0.346612,0.74372 -0.0095,0.009 -0.05177,-0.054 -0.09401,-0.141 z m 10.962449,0.0229 c -0.205773,-0.073 -0.559611,-0.32393 -0.730509,-0.51808 -0.08739,-0.0993 -0.263573,-0.35757 -0.391522,-0.57397 l -0.232635,-0.39346 -0.02732,0.38416 c -0.03256,0.45781 -0.0874,0.64243 -0.234505,0.78954 -0.11829,0.11829 -0.301424,0.14278 -0.500814,0.067 -0.276294,-0.10505 -0.878702,-0.83247 -1.305715,-1.57667 -0.207755,-0.36209 -0.08196,-0.21139 0.282711,0.33866 0.302264,0.45592 0.579147,0.80226 0.579147,0.72442 0,-0.0113 -0.03864,-0.10056 -0.08586,-0.1983 -0.102156,-0.21144 -0.423983,-1.07814 -0.406742,-1.09538 0.01913,-0.0191 0.35628,0.74532 0.449291,1.01873 0.04647,0.13661 0.07539,0.26312 0.06425,0.28114 -0.01113,0.018 0.05585,0.10151 0.14886,0.18553 0.154557,0.13964 0.217188,0.17188 0.306444,0.15779 0.01746,-0.003 0.03175,0.014 0.03175,0.0373 0,0.054 0.132248,0.0543 0.273606,5.9e-4 l 0.109784,-0.0417 -0.130308,-0.22284 c -0.166558,-0.28483 -0.640049,-1.21767 -0.618066,-1.21767 0.02476,0 0.35365,0.56069 0.579866,0.98856 0.117159,0.22159 0.210511,0.35468 0.228436,0.32568 0.01667,-0.027 -0.03662,-0.17655 -0.118425,-0.3324 -0.187636,-0.35745 -0.355042,-0.78597 -0.259531,-0.66434 0.03657,0.0466 0.151038,0.25312 0.254379,0.45902 0.103342,0.20589 0.195807,0.34877 0.205479,0.3175 0.06041,-0.19531 0.04864,-0.26438 -0.08928,-0.52412 -0.08151,-0.1535 -0.139629,-0.28766 -0.129157,-0.29813 0.01047,-0.0105 0.07788,0.0997 0.149789,0.24476 l 0.13075,0.2638 0.02929,-0.22083 c 0.01611,-0.12146 0.04484,-0.22084 0.06385,-0.22084 0.019,0 0.151749,0.17111 0.294988,0.38025 0.456516,0.66653 0.981314,1.05909 1.415864,1.05909 0.406835,0 0.568156,-0.19787 0.576998,-0.70773 l 0.005,-0.28711 0.03632,0.21167 c 0.09445,0.5505 -0.152992,0.91366 -0.617774,0.90666 -0.116417,-0.002 -0.268817,-0.0234 -0.338667,-0.0482 z m -3.085103,-0.0557 c -0.04085,-0.10646 -0.0288,-0.13393 0.0211,-0.0481 0.02471,0.0425 0.03601,0.0862 0.02511,0.0971 -0.0109,0.0109 -0.0317,-0.0111 -0.04621,-0.049 z m -4.976054,-0.0442 c 0.002,-0.0493 0.01206,-0.0593 0.02558,-0.0256 0.01223,0.0306 0.01073,0.0671 -0.0033,0.0811 -0.01407,0.0141 -0.02407,-0.0109 -0.02223,-0.0556 z m 8.175406,-0.4643 c -0.07448,-0.15103 -0.134478,-0.28853 -0.133333,-0.30556 0.0011,-0.017 0.06906,0.0996 0.150919,0.25911 0.08186,0.15953 0.141861,0.29703 0.133334,0.30555 -0.0085,0.009 -0.07644,-0.10806 -0.15092,-0.2591 z m -2.379838,-0.58975 c -0.21573,-0.43232 -0.383849,-0.79443 -0.3736,-0.80468 0.01025,-0.0103 0.195379,0.33485 0.411398,0.76688 0.216018,0.43204 0.384138,0.79414 0.3736,0.80468 -0.01054,0.0105 -0.195668,-0.33456 -0.411398,-0.76688 z m -8.571744,0.60722 c -0.276552,-0.14959 -0.635627,-0.55056 -0.799376,-0.89265 -0.24152,-0.50456 -0.218828,-0.59699 0.03041,-0.12388 0.443662,0.84215 0.982528,1.20161 1.410313,0.94076 0.160227,-0.0977 0.376415,-0.40196 0.512784,-0.72168 0.09631,-0.22582 0.09881,-0.22803 0.07248,-0.0645 -0.03621,0.22491 -0.245363,0.61168 -0.424859,0.78566 -0.124056,0.12024 -0.179375,0.14217 -0.388539,0.15405 -0.188273,0.0107 -0.282501,-0.007 -0.413221,-0.0777 z m 8.514237,-0.28005 c -0.17088,-0.34024 -0.511328,-1.11636 -0.561666,-1.28042 -0.01071,-0.0349 0.06084,0.0889 0.159004,0.27516 0.239481,0.4544 0.637326,1.34055 0.612845,1.36503 -0.0108,0.0108 -0.105382,-0.1511 -0.210183,-0.35977 z m -5.653394,0.26121 c 0.002,-0.0493 0.01206,-0.0593 0.02558,-0.0256 0.01223,0.0306 0.01073,0.0671 -0.0033,0.0811 -0.01407,0.0141 -0.02407,-0.0109 -0.02223,-0.0556 z m 7.687744,-0.12544 c -0.09945,-0.20854 -0.08546,-0.24403 0.01851,-0.047 0.04722,0.0895 0.07837,0.17023 0.06922,0.17939 -0.0092,0.009 -0.04863,-0.0505 -0.08773,-0.13244 z m -12.797823,-0.0771 c -0.247574,-0.24758 -0.236689,-0.3335 0.01427,-0.1126 0.233369,0.20542 0.315208,0.20252 0.587768,-0.0208 0.183197,-0.15012 0.451147,-0.60721 0.523802,-0.89355 0.04047,-0.1595 0.04127,-0.15764 0.02955,0.0689 -0.02128,0.4112 -0.316394,0.91927 -0.629126,1.08311 -0.200784,0.10519 -0.325707,0.0755 -0.526255,-0.12504 z m 5.233736,-0.0267 c -0.02853,-0.11893 -0.04346,-0.22466 -0.03317,-0.23494 0.01029,-0.0103 0.04133,0.0793 0.06899,0.19912 0.02765,0.1198 0.04258,0.22553 0.03317,0.23494 -0.0094,0.009 -0.04046,-0.0802 -0.06899,-0.19912 z m 4.321342,0.06 c 0.002,-0.0493 0.01206,-0.0593 0.02558,-0.0256 0.01223,0.0306 0.01073,0.0671 -0.0033,0.0811 -0.01407,0.0141 -0.02407,-0.0109 -0.02223,-0.0556 z m 0.276485,-0.007 c -0.09799,-0.32683 -0.19087,-0.70632 -0.176413,-0.72078 0.01652,-0.0165 0.15255,0.42179 0.210555,0.67844 0.02882,0.12752 0.0015,0.16135 -0.03414,0.0423 z m 2.984316,-0.32397 c -0.224604,-0.40543 -0.552786,-1.13933 -0.475108,-1.06245 0.02353,0.0233 0.184379,0.3159 0.357451,0.65026 0.173071,0.33436 0.322679,0.58391 0.332461,0.55456 0.0098,-0.0293 0.01779,0.0162 0.01779,0.10116 0,0.085 -0.0027,0.15452 -0.006,0.15452 -0.0033,0 -0.10527,-0.17912 -0.22655,-0.39805 z m -8.560029,0.27143 c -0.200557,-0.106 -0.390463,-0.32704 -0.546429,-0.63601 -0.190907,-0.37818 -0.152264,-0.39906 0.0772,-0.0417 0.343267,0.53458 0.645566,0.72329 0.926172,0.57819 0.165321,-0.0855 0.341821,-0.34762 0.433431,-0.6437 0.04857,-0.15698 0.08363,-0.21733 0.100586,-0.17315 0.01432,0.0373 -0.0017,0.14637 -0.03555,0.24236 -0.03387,0.096 -0.05497,0.21538 -0.04689,0.26532 0.0081,0.0499 0.0063,0.0658 -0.0039,0.0353 -0.01075,-0.0321 -0.06969,0.025 -0.139581,0.13525 -0.199507,0.31459 -0.464396,0.39705 -0.765027,0.23815 z m 1.383077,-0.0669 c -0.01557,-0.062 -0.02015,-0.12096 -0.01017,-0.13094 0.01,-0.01 0.03088,0.0326 0.04645,0.0947 0.01557,0.062 0.02015,0.12096 0.01017,0.13094 -0.01,0.01 -0.03088,-0.0326 -0.04645,-0.0947 z m 7.494997,-0.009 c -0.03967,-0.0764 -0.09015,-0.12783 -0.112172,-0.11422 -0.0228,0.0141 -0.02804,-0.007 -0.01217,-0.0479 0.01879,-0.049 0.01188,-0.0628 -0.02117,-0.0423 -0.03305,0.0204 -0.03995,0.007 -0.02117,-0.0423 0.02041,-0.0532 0.01286,-0.0634 -0.02819,-0.038 -0.03524,0.0218 -0.0459,0.0182 -0.02869,-0.01 0.01506,-0.0244 -0.03915,-0.19029 -0.120459,-0.36872 -0.168682,-0.37015 -0.184752,-0.43811 -0.06058,-0.25622 0.149804,0.21944 0.510728,0.95774 0.493342,1.00917 -0.0091,0.027 -0.04907,-0.0134 -0.08874,-0.0898 z m 1.170576,-0.1069 c -0.116884,-0.12359 -0.244611,-0.28677 -0.283838,-0.36263 -0.05125,-0.0991 0.01576,-0.0465 0.238126,0.1869 0.170197,0.17864 0.315798,0.34182 0.323559,0.36262 0.03689,0.0988 -0.08542,0.0166 -0.277847,-0.18689 z m -8.855755,0.11534 c 0.002,-0.0493 0.01206,-0.0593 0.02558,-0.0256 0.01223,0.0306 0.01073,0.0671 -0.0033,0.0811 -0.01407,0.0141 -0.02407,-0.0109 -0.02223,-0.0556 z m 0.253594,-0.34397 c -0.180189,-0.51844 -0.193358,-0.5642 -0.13755,-0.478 0.06175,0.0954 0.308276,0.81251 0.294017,0.85529 -0.0068,0.0205 -0.07723,-0.14932 -0.156467,-0.37729 z m 6.809561,0.0477 c -0.127598,-0.28099 -0.420264,-1.03206 -0.419275,-1.07598 2.54e-4,-0.0117 0.143513,0.27268 0.318336,0.63184 0.210099,0.43162 0.303629,0.66723 0.275884,0.69498 -0.02774,0.0277 -0.08705,-0.0573 -0.174945,-0.25084 z m -6.322942,0.16409 c -0.02297,-0.0603 -0.01811,-0.0652 0.0237,-0.0237 0.02893,0.0287 0.04194,0.0629 0.02891,0.0759 -0.01303,0.013 -0.03671,-0.0105 -0.0526,-0.0522 z m 7.045778,-0.26641 c -0.09608,-0.19108 -0.165158,-0.35695 -0.153517,-0.36859 0.01164,-0.0116 0.09977,0.13517 0.19585,0.32626 0.09608,0.19108 0.165159,0.35695 0.153517,0.36859 -0.01164,0.0117 -0.09977,-0.13517 -0.19585,-0.32626 z m -7.828324,0.22931 c 0.002,-0.0493 0.01206,-0.0593 0.02558,-0.0256 0.01223,0.0306 0.01073,0.0671 -0.0033,0.0811 -0.01407,0.0141 -0.02407,-0.0109 -0.02223,-0.0556 z m 0.899322,-0.0629 c -0.236306,-0.11697 -0.527987,-0.43614 -0.687685,-0.7525 -0.166632,-0.3301 -0.166632,-0.38957 -10e-7,-0.10375 0.181706,0.31168 0.467511,0.61603 0.688647,0.73334 0.160299,0.085 0.21402,0.0942 0.351862,0.0602 0.136511,-0.0337 0.178802,-0.0727 0.262906,-0.24227 0.08637,-0.17415 0.100071,-0.26301 0.09909,-0.64278 -0.0013,-0.50623 0.01998,-0.52051 0.24518,-0.16455 0.08149,0.12881 0.298211,0.37779 0.481598,0.55328 0.220249,0.21077 0.28587,0.29205 0.193318,0.23944 -0.07706,-0.0438 -0.287789,-0.22251 -0.468283,-0.39713 l -0.328171,-0.3175 -0.02763,0.3175 c -0.03466,0.39831 -0.140589,0.64987 -0.310686,0.73783 -0.171548,0.0887 -0.288263,0.0838 -0.500148,-0.0211 z m -0.772137,-0.14876 c -0.02732,-0.1085 -0.04173,-0.20521 -0.03203,-0.21491 0.0097,-0.01 0.03999,0.0711 0.06731,0.17963 0.02732,0.1085 0.04174,0.20521 0.03204,0.21491 -0.0097,0.01 -0.03999,-0.0711 -0.06731,-0.17963 z m 2.117843,0.0623 c -0.02608,-0.0748 -0.04001,-0.14344 -0.03096,-0.15249 0.0091,-0.009 0.0378,0.0448 0.06388,0.11956 0.02608,0.0748 0.04001,0.14343 0.03096,0.15249 -0.0091,0.009 -0.0378,-0.0447 -0.06388,-0.11956 z m -5.234385,-0.14241 c -0.08288,-0.28508 -0.231329,-0.98996 -0.227575,-1.08056 0.0054,-0.13015 0.245723,0.64505 0.295343,0.95264 0.06277,0.38913 0.02752,0.45569 -0.06777,0.12792 z m 7.053357,0.16475 c 0.002,-0.0493 0.01206,-0.0593 0.02558,-0.0256 0.01223,0.0306 0.01073,0.0671 -0.0033,0.0811 -0.01407,0.0141 -0.02407,-0.0109 -0.02223,-0.0556 z m 0.785054,0.002 c -0.04085,-0.10646 -0.0288,-0.13392 0.02111,-0.0481 0.02471,0.0425 0.03601,0.0862 0.02511,0.0971 -0.0109,0.0109 -0.0317,-0.0111 -0.04621,-0.049 z m -4.891387,-0.0442 c 0.002,-0.0493 0.01206,-0.0594 0.02558,-0.0256 0.01223,0.0306 0.01072,0.0671 -0.0033,0.0811 -0.01407,0.0141 -0.02407,-0.0109 -0.02224,-0.0556 z m 2.074839,-0.10616 c -0.02863,-0.0956 -0.04426,-0.18152 -0.03473,-0.19104 0.0095,-0.01 0.04074,0.0609 0.06937,0.15641 0.02863,0.0956 0.04426,0.18152 0.03473,0.19104 -0.0095,0.01 -0.04074,-0.0609 -0.06937,-0.15641 z m 4.765707,-0.0879 c -0.06199,-0.14368 -0.105926,-0.26802 -0.09763,-0.27632 0.0083,-0.008 0.06599,0.10229 0.128203,0.24574 0.06222,0.14346 0.106148,0.2678 0.09763,0.27632 -0.0085,0.009 -0.06621,-0.10207 -0.128203,-0.24574 z m -10.044252,0.0811 c -0.01709,-0.0524 -0.03483,-0.13335 -0.03943,-0.17992 -0.0046,-0.0466 -0.04041,-0.2727 -0.07958,-0.50251 -0.03917,-0.22982 -0.06332,-0.42575 -0.05366,-0.4354 0.0288,-0.0288 0.197626,0.68877 0.226067,0.96089 0.02687,0.25703 0.0026,0.32848 -0.0534,0.15694 z m 12.26236,-0.0579 c -0.09784,-0.16583 -0.219283,-0.43951 -0.195026,-0.43951 0.02327,0 0.229162,0.36093 0.275669,0.48325 0.05852,0.15394 0.02538,0.13596 -0.08064,-0.0437 z m -11.770835,-0.11963 c -0.02708,-0.13044 -0.0416,-0.26008 -0.03226,-0.2881 0.0093,-0.028 0.04068,0.0695 0.06964,0.21676 0.02897,0.14723 0.04348,0.27687 0.03226,0.2881 -0.01122,0.0112 -0.04256,-0.0863 -0.06964,-0.21676 z m 1.894889,0.0886 c -0.07158,-0.1501 -0.265189,-0.91008 -0.303589,-1.19168 -0.01859,-0.1363 -0.0022,-0.11152 0.08381,0.127 0.100975,0.27991 0.323229,1.16911 0.298418,1.19392 -0.0063,0.006 -0.04172,-0.0518 -0.07864,-0.12924 z m 4.805968,-0.0698 c 0,-0.12806 0.0079,-0.18045 0.01764,-0.11642 0.0097,0.064 0.0097,0.1688 0,0.23283 -0.0097,0.064 -0.01764,0.0116 -0.01764,-0.11641 z m 4.091707,0.12337 c -0.02599,-0.0486 -0.03928,-0.0963 -0.02953,-0.10601 0.0097,-0.01 0.03946,0.03 0.06602,0.0883 0.05834,0.12804 0.02993,0.14183 -0.03649,0.0177 z m -13.309577,-0.0268 c -0.03151,-0.0821 -0.150727,-1.2038 -0.145245,-1.3666 0.0084,-0.24996 0.168682,0.56996 0.192384,0.98425 0.02503,0.43742 0.01262,0.53807 -0.04714,0.38235 z m 0.236057,-0.34289 c -0.02633,-0.2053 -0.04565,-0.44819 -0.04293,-0.53975 0.0043,-0.14571 0.01165,-0.13216 0.05877,0.1087 0.06513,0.33299 0.100852,0.80434 0.06095,0.80434 -0.0159,0 -0.05045,-0.16798 -0.07678,-0.37329 z m 1.575626,0.0611 c -0.04738,-0.17756 -0.0701,-0.32283 -0.05049,-0.32283 0.01961,0 0.03608,0.0333 0.03659,0.0741 5.12e-4,0.0407 0.03567,0.15056 0.07813,0.24403 0.04266,0.0939 0.06483,0.20521 0.04956,0.24876 -0.01909,0.0544 -0.05429,-0.0211 -0.113792,-0.24404 z m -2.039601,0.0158 c -0.06107,-0.32638 -0.114573,-0.96237 -0.07819,-0.92936 0.03478,0.0316 0.164551,1.0446 0.145184,1.13341 -0.0085,0.0391 -0.03868,-0.0527 -0.06699,-0.20405 z m 10.221499,0.18887 c -0.04085,-0.10646 -0.0288,-0.13393 0.0211,-0.0481 0.02471,0.0425 0.03601,0.0862 0.02511,0.0971 -0.0109,0.0109 -0.0317,-0.0111 -0.04621,-0.049 z m -5.905098,-0.15428 c -0.02483,-0.0772 -0.06553,-0.23567 -0.09044,-0.35209 -0.02491,-0.11641 -0.05416,-0.24976 -0.06498,-0.29633 -0.01082,-0.0466 0.01655,-0.006 0.06084,0.0894 0.08626,0.1865 0.194501,0.64463 0.160364,0.67877 -0.01136,0.0114 -0.04096,-0.0425 -0.06579,-0.11977 z m 0.426602,-0.12692 c -0.136436,-0.36558 -0.250878,-0.76207 -0.27882,-0.966 l -0.0261,-0.1905 0.0661,0.16933 c 0.09834,0.25193 0.361315,1.17389 0.34071,1.19449 -0.0098,0.01 -0.05567,-0.0835 -0.101888,-0.20732 z m 0.798775,0.1523 c 0.002,-0.0493 0.01206,-0.0593 0.02558,-0.0256 0.01223,0.0306 0.01073,0.0671 -0.0033,0.0811 -0.01407,0.0141 -0.02407,-0.0109 -0.02223,-0.0556 z m 3.021751,0.0219 c -0.01535,-0.0248 -0.01882,-0.0542 -0.0077,-0.0653 0.0111,-0.0111 0.03146,0.009 0.04524,0.0452 0.02862,0.0746 0.0042,0.0877 -0.03751,0.0202 z m -0.394782,-0.44733 c -0.09778,-0.24759 -0.169935,-0.45801 -0.160353,-0.46759 0.0096,-0.01 0.09634,0.18623 0.192809,0.43514 0.09646,0.2489 0.168622,0.45932 0.160353,0.46759 -0.0083,0.008 -0.09503,-0.18754 -0.192809,-0.43514 z m -4.574302,0.34079 c 0.002,-0.0493 0.01206,-0.0593 0.02558,-0.0256 0.01223,0.0306 0.01073,0.0671 -0.0033,0.0811 -0.01407,0.0141 -0.02407,-0.0109 -0.02223,-0.0556 z m 2.815578,-0.007 c -0.0759,-0.24321 -0.274079,-1.04553 -0.261393,-1.05822 0.03086,-0.0309 0.276093,0.71051 0.303588,0.91777 0.02778,0.20941 0.004,0.28852 -0.04219,0.14045 z m 0.15193,-0.33866 c -0.04631,-0.20373 -0.09509,-0.44662 -0.108403,-0.53975 -0.02128,-0.14891 -0.01127,-0.13649 0.08299,0.10297 0.09784,0.24856 0.190147,0.80719 0.133377,0.80719 -0.01307,0 -0.06165,-0.16669 -0.107964,-0.37041 z m 1.363937,-0.1496 c -0.09554,-0.28443 -0.186255,-0.55525 -0.201584,-0.60182 -0.01533,-0.0466 0.03871,0.0487 0.120082,0.21167 0.170302,0.3411 0.288389,0.70311 0.268761,0.82393 -0.0075,0.0459 -0.09172,-0.14934 -0.187259,-0.43378 z m 0.388793,0.0298 c -0.108732,-0.24827 -0.190085,-0.45902 -0.180785,-0.46832 0.0093,-0.009 0.105403,0.1867 0.21356,0.43555 0.108156,0.24885 0.189509,0.4596 0.180784,0.46833 -0.0087,0.009 -0.104826,-0.18728 -0.213559,-0.43556 z m 1.779816,0.38278 c -0.04085,-0.10645 -0.0288,-0.13392 0.0211,-0.0481 0.02471,0.0425 0.03601,0.0862 0.02511,0.0971 -0.0109,0.0109 -0.0317,-0.0111 -0.04621,-0.049 z m 3.19106,-0.0887 c -0.387955,-0.19409 -0.890158,-0.6843 -1.262691,-1.23254 -0.146346,-0.21537 -0.25791,-0.39158 -0.247922,-0.39158 0.01,0 0.184419,0.19526 0.387622,0.43392 0.696293,0.81776 1.385837,1.3193 1.704181,1.23953 0.14468,-0.0363 0.228529,-0.23902 0.206269,-0.49881 -0.01242,-0.14492 -0.0065,-0.19271 0.01705,-0.13747 0.01985,0.0466 0.03742,0.18554 0.03906,0.30884 0.0024,0.1839 -0.01569,0.24284 -0.100934,0.32808 -0.152494,0.15249 -0.36675,0.13808 -0.742634,-0.05 z m -7.168307,-0.10511 c -0.09158,-0.31883 -0.128394,-0.53062 -0.05432,-0.31251 0.03163,0.0931 0.100367,0.24158 0.152755,0.32989 0.05239,0.0883 0.08336,0.17244 0.06883,0.18697 -0.01453,0.0145 -0.02671,-5.7e-4 -0.02706,-0.0336 -5.47e-4,-0.0506 -0.0064,-0.0509 -0.03771,-0.001 -0.02624,0.0414 -0.05615,-0.008 -0.102498,-0.16933 z m 6.009247,0.15152 c -0.04085,-0.10646 -0.0288,-0.13392 0.0211,-0.0481 0.02471,0.0425 0.03601,0.0862 0.02511,0.0971 -0.0109,0.0109 -0.0317,-0.0111 -0.04621,-0.049 z m -3.466648,-0.11531 c -0.03782,-0.0754 -0.147301,-0.27993 -0.243297,-0.45455 -0.096,-0.17463 -0.136379,-0.27008 -0.08974,-0.21211 0.10841,0.13475 0.443503,0.762 0.419762,0.78574 -0.0099,0.01 -0.04891,-0.0437 -0.08672,-0.11908 z m 2.487752,0.0464 c -0.263756,-0.13708 -0.503643,-0.34952 -0.720658,-0.63821 -0.176653,-0.235 -0.485842,-0.7848 -0.485842,-0.86393 0,-0.0163 0.117165,0.1482 0.260367,0.36557 0.461324,0.70025 0.992688,1.14365 1.370557,1.14365 0.08943,0 0.141418,-0.0172 0.126209,-0.0418 -0.01423,-0.023 6.47e-4,-0.0317 0.03305,-0.0192 0.15806,0.0607 0.250788,-0.36063 0.177573,-0.80675 -0.01907,-0.11622 -0.01722,-0.11858 0.02179,-0.0278 0.134087,0.31195 0.08337,0.7902 -0.09721,0.91668 -0.131613,0.0922 -0.482001,0.0778 -0.685841,-0.0281 z m -10.428483,-0.16296 c 0,-0.0582 0.0096,-0.082 0.02135,-0.0529 0.01174,0.0291 0.01174,0.0767 0,0.10583 -0.01174,0.0291 -0.02135,0.005 -0.02135,-0.0529 z m 7.131713,0.0195 c -0.04085,-0.10645 -0.0288,-0.13392 0.0211,-0.0481 0.02471,0.0425 0.03601,0.0862 0.02511,0.0971 -0.0109,0.0109 -0.0317,-0.0111 -0.04621,-0.049 z m -1.101136,-0.29994 c -0.03754,-0.11019 -0.06687,-0.22076 -0.06517,-0.24571 0.0017,-0.025 0.03974,0.0579 0.08453,0.18406 0.04479,0.12619 0.07412,0.23676 0.06517,0.24571 -0.0089,0.009 -0.04699,-0.0739 -0.08453,-0.18406 z m -5.743223,0.0336 c -0.273237,-0.17393 -0.62157,-0.57236 -0.876121,-1.00212 -0.320512,-0.54111 -0.273287,-0.57873 0.07668,-0.0611 0.553306,0.81843 1.016494,1.19196 1.329245,1.07195 0.102535,-0.0394 0.233296,-0.32619 0.273401,-0.59975 0.03428,-0.23381 0.0356,-0.23575 0.0406,-0.0594 0.01877,0.66294 -0.362454,0.95676 -0.8438,0.65036 z m 2.168977,-0.27117 c -0.19892,-0.44697 -0.225371,-0.44336 -0.07127,0.01 0.05816,0.171 0.09789,0.31875 0.0883,0.32835 -0.01789,0.0179 -0.491405,-1.39234 -0.489084,-1.4566 7.07e-4,-0.0196 0.0235,0.002 0.05065,0.049 0.07893,0.13539 0.625333,1.43235 0.60993,1.44775 -0.0077,0.008 -0.09252,-0.16252 -0.188516,-0.37822 z m 7.977033,0.11596 c -0.08916,-0.15242 -0.14592,-0.29494 -0.128612,-0.32294 0.01919,-0.0311 0.01284,-0.0389 -0.01669,-0.0207 -0.03044,0.0188 -0.14002,-0.15477 -0.303201,-0.48029 -0.140542,-0.28037 -0.246696,-0.50975 -0.235897,-0.50975 0.0108,0 0.1175,0.19052 0.237114,0.42338 0.119613,0.23287 0.234532,0.41285 0.255374,0.39997 0.02084,-0.0129 0.02555,0.0109 0.01047,0.0529 -0.01537,0.0427 -0.01111,0.0614 0.0097,0.0424 0.03326,-0.0304 0.376991,0.64223 0.344705,0.67451 -0.0073,0.007 -0.08517,-0.10941 -0.172944,-0.25946 z m -7.681235,-0.15267 c -0.09667,-0.21224 -0.16346,-0.4058 -0.148416,-0.43014 0.01676,-0.0271 0.0067,-0.0315 -0.02606,-0.0112 -0.03973,0.0245 -0.04566,0.009 -0.02317,-0.0623 0.02044,-0.0644 0.0152,-0.086 -0.01615,-0.0666 -0.03002,0.0185 -0.03655,0.003 -0.01851,-0.044 0.01879,-0.049 0.01188,-0.0628 -0.02117,-0.0423 -0.02999,0.0185 -0.04089,0.009 -0.02807,-0.0248 0.01154,-0.0303 -0.0458,-0.22501 -0.12742,-0.43265 -0.08161,-0.20765 -0.140905,-0.38503 -0.131754,-0.39418 0.0092,-0.009 0.131659,0.27504 0.272241,0.63154 0.356048,0.9029 0.476526,1.23025 0.459164,1.24761 -0.0082,0.008 -0.09402,-0.15872 -0.190695,-0.37095 z m 11.097095,0.2901 c -0.128255,-0.1412 -0.351575,-0.46221 -0.351575,-0.50537 0,-0.0207 0.104775,0.0798 0.232833,0.22336 0.128059,0.14352 0.232834,0.28711 0.232834,0.3191 0,0.0783 -0.01314,0.074 -0.114092,-0.0371 z m -5.071741,0.0106 c -0.06382,-0.0274 -0.03553,-0.0371 0.114927,-0.0394 0.249577,-0.004 0.307316,-0.0887 0.272241,-0.40049 -0.01618,-0.14381 -0.01164,-0.18794 0.01352,-0.13165 0.05269,0.11783 0.05268,0.4335 -1.5e-5,0.53195 -0.04695,0.0877 -0.243439,0.10712 -0.400677,0.0395 z m 2.331054,-0.0547 c 0.0159,-0.0417 0.03957,-0.0652 0.0526,-0.0522 0.01303,0.013 2.7e-5,0.0472 -0.0289,0.0759 -0.04181,0.0415 -0.04667,0.0366 -0.0237,-0.0237 z m 1.615556,-0.52734 c -0.395927,-0.6436 -0.468325,-0.77258 -0.433653,-0.77258 0.04019,0 0.531355,0.76874 0.682957,1.06891 0.07937,0.15716 0.13632,0.28575 0.126547,0.28575 -0.0098,0 -0.178906,-0.26194 -0.375851,-0.58208 z m -10.314873,-0.23325 c -0.342972,-0.85892 -0.374444,-0.94642 -0.28537,-0.79335 0.08451,0.14521 0.629198,1.53004 0.609539,1.5497 -0.0087,0.009 -0.154583,-0.33165 -0.324169,-0.75635 z m 9.826247,0.21206 c -0.349028,-0.58256 -0.487995,-0.83608 -0.458288,-0.83608 0.02043,0 0.662815,1.05871 0.764167,1.25942 0.15228,0.30155 0.01261,0.10825 -0.305879,-0.42334 z m 0.342205,0.16934 c -0.395765,-0.61658 -0.699406,-1.13582 -0.677192,-1.15803 0.02835,-0.0284 0.652105,0.96392 0.914238,1.45436 0.116389,0.21776 -0.0023,0.0694 -0.237046,-0.29633 z m -2.066591,-0.0212 c -0.109683,-0.20373 -0.255499,-0.47043 -0.324035,-0.59267 -0.06854,-0.12224 -0.115355,-0.22225 -0.104042,-0.22225 0.02588,0 0.354797,0.57022 0.531114,0.92075 0.198042,0.39373 0.126173,0.31991 -0.103037,-0.10583 z m 0.351754,0.0818 c -0.187855,-0.28251 -0.419286,-0.70534 -0.340206,-0.62157 0.02198,0.0233 0.145208,0.21378 0.273841,0.42333 0.284281,0.46311 0.297717,0.48684 0.275722,0.48684 -0.0096,0 -0.10381,-0.12987 -0.209357,-0.2886 z m -6.365855,0.12129 c -0.292516,-0.16777 -0.652558,-0.57615 -0.860729,-0.97628 -0.21101,-0.40559 -0.22662,-0.54329 -0.02033,-0.17933 0.08248,0.14552 0.166629,0.26458 0.186995,0.26458 0.02037,0 0.04952,0.0394 0.06478,0.0874 0.0415,0.13076 0.276274,0.38199 0.327423,0.35037 0.02475,-0.0153 0.03222,-0.008 0.01679,0.0174 -0.03325,0.0538 0.17427,0.23608 0.399706,0.35109 0.516118,0.2633 0.6831,-0.0807 0.48396,-0.99686 -0.01921,-0.0884 -0.01532,-0.10768 0.01279,-0.0635 0.07584,0.11922 0.186862,0.72639 0.163995,0.89688 -0.051,0.38022 -0.36815,0.48172 -0.775382,0.24815 z m 7.726799,0.0297 c -0.02705,-0.0524 -0.134036,-0.25717 -0.237745,-0.45508 -0.103708,-0.19791 -0.15861,-0.32308 -0.122003,-0.27816 0.08235,0.10106 0.460428,0.82849 0.4306,0.82849 -0.01192,0 -0.0438,-0.0429 -0.07085,-0.0952 z m 0.83293,-0.19989 c -0.08599,-0.16364 -0.146712,-0.29752 -0.13494,-0.29752 0.0343,0 0.333695,0.55262 0.311448,0.57487 -0.01109,0.0111 -0.09052,-0.11372 -0.176508,-0.27735 z m -2.067111,-0.0323 c -0.0593,-0.15753 -0.138626,-0.35786 -0.176284,-0.44517 -0.03766,-0.0873 -0.05764,-0.15875 -0.0444,-0.15875 0.05387,0 0.380497,0.83835 0.341735,0.87711 -0.0073,0.007 -0.06175,-0.11566 -0.121048,-0.27319 z m 2.856977,0.0972 c -0.0516,-0.10622 -0.0861,-0.19312 -0.07666,-0.19312 0.03702,0 0.199524,0.29914 0.185447,0.34137 -0.0082,0.0247 -0.05718,-0.042 -0.108785,-0.14825 z m -12.987989,0.0144 c -0.03564,-0.0577 -0.569858,-1.60607 -0.566498,-1.64197 0.0051,-0.0548 0.220754,0.45725 0.357198,0.84818 0.235238,0.67399 0.309627,0.95612 0.2093,0.79379 z m 9.042423,-0.28882 c -0.214364,-0.42635 -0.3841,-0.8077 -0.3595,-0.8077 0.03261,0 0.575434,1.10882 0.553539,1.13071 -0.01158,0.0116 -0.09889,-0.13378 -0.194039,-0.32301 z m -3.759965,0.2453 c -0.182688,-0.0527 -0.623275,-0.49208 -0.853451,-0.8511 -0.100471,-0.15671 -0.19931,-0.27465 -0.219643,-0.26208 -0.02033,0.0126 -0.03715,-0.002 -0.03738,-0.0326 -2.12e-4,-0.0305 -0.04826,-0.1582 -0.106736,-0.28382 -0.05848,-0.12562 -0.09945,-0.23527 -0.09106,-0.24367 0.0084,-0.008 0.169208,0.21842 0.357362,0.50403 0.402555,0.61106 0.699229,0.93537 0.961995,1.0516 0.214724,0.095 0.310192,0.0698 0.430382,-0.11366 0.06806,-0.10387 0.06595,-0.11067 -0.08177,-0.2631 -0.153729,-0.15863 -0.454937,-0.65311 -0.452356,-0.74261 0.0022,-0.078 0.162161,0.13591 0.36701,0.4909 0.104129,0.18044 0.206708,0.32808 0.227953,0.32808 0.02125,0 0.04013,-0.0619 0.04197,-0.13758 0.0018,-0.0757 0.01335,-0.11258 0.02558,-0.082 0.05082,0.127 -0.03749,0.44635 -0.156288,0.56515 -0.126603,0.1266 -0.188351,0.13742 -0.413569,0.0725 z m -3.070451,-0.15166 c -0.405027,-0.98516 -0.494702,-1.20938 -0.493249,-1.23329 0.0036,-0.0599 0.137658,0.22896 0.361967,0.78023 0.128979,0.31698 0.22613,0.58471 0.215889,0.59495 -0.01024,0.0102 -0.04831,-0.0536 -0.08461,-0.14189 z m -2.590396,-0.27506 c -0.254882,-0.63271 -0.488775,-1.2735 -0.471237,-1.29104 0.01833,-0.0183 0.152582,0.3073 0.455607,1.10505 0.114094,0.30037 0.199948,0.55362 0.190786,0.56278 -0.0092,0.009 -0.08798,-0.16039 -0.175156,-0.37679 z m 4.07895,0.0193 c -0.288197,-0.62201 -0.502499,-1.12469 -0.486355,-1.14083 0.0084,-0.008 0.121981,0.19956 0.252336,0.46221 0.238472,0.48049 0.470646,1.04904 0.428386,1.04904 -0.01251,0 -0.09997,-0.16669 -0.194367,-0.37042 z m -4.441198,0.16973 c -0.02834,-0.0875 -0.09388,-0.24487 -0.145652,-0.34964 -0.05177,-0.10478 -0.0848,-0.21697 -0.07339,-0.24931 0.01387,-0.0394 0.0027,-0.0477 -0.03364,-0.0252 -0.03463,0.0214 -0.04395,0.0167 -0.02566,-0.0128 0.01579,-0.0256 -0.04822,-0.26952 -0.142228,-0.54217 -0.09401,-0.27264 -0.163943,-0.5027 -0.155402,-0.51124 0.0085,-0.009 0.135916,0.32297 0.283055,0.7367 0.147138,0.41373 0.302204,0.82263 0.344591,0.90868 0.04239,0.086 0.05969,0.16718 0.03846,0.1803 -0.02123,0.0131 -0.06179,-0.0477 -0.09013,-0.13527 z m 0.158595,-0.0193 c -0.359747,-1.00905 -0.57904,-1.65734 -0.565278,-1.6711 0.0092,-0.009 0.07951,0.16015 0.156309,0.37627 0.0768,0.21613 0.181463,0.47868 0.232592,0.58346 0.05113,0.10477 0.08363,0.21696 0.07223,0.2493 -0.01255,0.0356 -0.0021,0.0473 0.02661,0.0296 0.02845,-0.0176 0.03871,-0.007 0.02572,0.0271 -0.01189,0.031 0.01695,0.16845 0.06409,0.30548 0.04714,0.13702 0.07828,0.25657 0.0692,0.26565 -0.0091,0.009 -0.04575,-0.0655 -0.08148,-0.1657 z m 4.213182,0.093 c -0.02384,-0.0582 -0.121363,-0.27442 -0.216713,-0.48047 -0.09535,-0.20604 -0.17269,-0.39654 -0.171868,-0.42333 8.21e-4,-0.0268 0.106002,0.16916 0.233733,0.43544 0.12773,0.26627 0.224577,0.50439 0.215217,0.52916 -0.0094,0.0248 -0.03653,-0.003 -0.06037,-0.0608 z m 3.267735,-0.0529 -0.08065,-0.0952 0.09525,0.0806 c 0.08951,0.0758 0.114522,0.10985 0.08065,0.10985 -0.008,0 -0.0509,-0.0429 -0.09525,-0.0952 z m 0.968992,-0.127 c -0.143129,-0.19044 -0.367545,-0.5282 -0.499254,-0.75141 -0.107903,-0.18287 0.120146,0.0788 0.305978,0.35111 0.401822,0.58878 0.52201,0.8377 0.193276,0.4003 z m -1.325192,-0.10583 c -0.144039,-0.15716 -0.281968,-0.32385 -0.306508,-0.37042 -0.04097,-0.0777 0.122711,0.0941 0.473807,0.49742 0.235467,0.27049 0.10905,0.17453 -0.167299,-0.127 z m -8.078594,0.15875 c 0,-0.0582 0.0096,-0.082 0.02135,-0.0529 0.01174,0.0291 0.01174,0.0767 0,0.10584 -0.01174,0.0291 -0.02135,0.005 -0.02135,-0.0529 z m 5.537042,-0.004 c -0.02599,-0.0486 -0.03928,-0.0963 -0.02953,-0.10602 0.0097,-0.01 0.03946,0.03 0.06602,0.0883 0.05834,0.12803 0.02993,0.14183 -0.03649,0.0177 z m 0.170653,-0.0402 c -0.04063,-0.0981 -0.06415,-0.11713 -0.09314,-0.0754 -0.02563,0.0369 -0.02913,0.0217 -0.01031,-0.0448 0.01921,-0.0678 0.01339,-0.0912 -0.01791,-0.0719 -0.03002,0.0186 -0.03655,0.003 -0.01851,-0.044 0.01879,-0.049 0.01188,-0.0628 -0.02117,-0.0423 -0.03204,0.0198 -0.0403,0.008 -0.02383,-0.0354 0.01387,-0.0361 0.0041,-0.0657 -0.02165,-0.0657 -0.02577,0 -0.04686,-0.0259 -0.04686,-0.0576 0,-0.0317 -0.09601,-0.26269 -0.213359,-0.51336 -0.117347,-0.25067 -0.205225,-0.4639 -0.195284,-0.47384 0.02197,-0.022 0.431672,0.77775 0.618565,1.2074 0.07435,0.17091 0.126768,0.31916 0.116492,0.32944 -0.01028,0.0103 -0.04314,-0.0404 -0.07303,-0.11253 z m 1.889684,0.0634 c -0.04085,-0.10645 -0.0288,-0.13392 0.0211,-0.0481 0.02471,0.0425 0.03601,0.0862 0.02511,0.0971 -0.0109,0.0109 -0.03169,-0.0111 -0.04621,-0.049 z m -3.804019,-0.21447 c -0.166355,-0.37168 -0.457265,-1.12995 -0.440094,-1.14712 0.05671,-0.0567 0.601347,1.248 0.565656,1.35508 -0.0076,0.0229 -0.06413,-0.0707 -0.125562,-0.20796 z m 2.719134,-0.19311 c -0.333586,-0.49871 -0.61472,-1.04335 -0.387181,-0.75007 0.07573,0.0976 0.534289,0.84898 0.636458,1.04287 0.109256,0.20734 -0.0027,0.0758 -0.249277,-0.2928 z m 5.842155,0.30338 c -0.02492,-0.0466 -0.03579,-0.0847 -0.02415,-0.0847 0.01164,0 0.04156,0.0381 0.06648,0.0847 0.02492,0.0466 0.03579,0.0847 0.02415,0.0847 -0.01164,0 -0.04156,-0.0381 -0.06648,-0.0847 z m -4.089189,-0.0529 -0.08064,-0.0952 0.09525,0.0806 c 0.08951,0.0758 0.114521,0.10986 0.08064,0.10986 -0.008,0 -0.05089,-0.0429 -0.09525,-0.0952 z m -3.590783,-0.28928 c -0.08643,-0.18909 -0.149268,-0.35168 -0.139632,-0.36132 0.0096,-0.01 0.08755,0.13788 0.173146,0.3278 0.08559,0.18993 0.148428,0.35252 0.139631,0.36132 -0.0088,0.009 -0.08671,-0.13872 -0.173145,-0.3278 z m -4.267699,0.15792 c -0.04679,-0.0981 -0.0543,-0.15899 -0.02476,-0.20055 0.0336,-0.0473 0.03746,-0.0443 0.01859,0.0144 -0.01311,0.0407 -0.0074,0.0741 0.01258,0.0741 0.0373,0 0.104622,0.20908 0.07641,0.2373 -0.0086,0.009 -0.04587,-0.0478 -0.08282,-0.12524 z m 4.884435,-0.27744 c -0.09667,-0.20806 -0.174444,-0.39408 -0.172829,-0.41337 0.0016,-0.0193 0.08756,0.14408 0.190989,0.36307 0.10343,0.21898 0.181203,0.405 0.172829,0.41337 -0.0084,0.008 -0.09432,-0.15501 -0.190989,-0.36307 z m -2.943713,0.097 c -0.03748,-0.10998 -0.06081,-0.2073 -0.05186,-0.21625 0.009,-0.009 0.04694,0.0737 0.08442,0.18369 0.03748,0.10999 0.06081,0.2073 0.05185,0.21626 -0.009,0.009 -0.04694,-0.0737 -0.08442,-0.1837 z m 11.231081,-0.29671 c -0.165969,-0.24737 -0.278223,-0.43522 -0.249455,-0.41744 0.03421,0.0211 0.04491,0.012 0.03094,-0.0265 -0.01175,-0.0324 -0.04421,-0.0536 -0.07214,-0.0472 -0.02792,0.006 -0.03819,-0.009 -0.02281,-0.0336 0.01538,-0.0249 0.0025,-0.0766 -0.0286,-0.115 -0.03131,-0.0386 -0.03479,-0.0567 -0.0078,-0.0405 0.02682,0.0161 0.187709,0.23404 0.357526,0.48438 0.169818,0.25033 0.276461,0.429 0.236984,0.39705 -0.09732,-0.0788 -0.09037,-0.0234 0.01577,0.12564 0.04815,0.0676 0.07715,0.12296 0.06445,0.12296 -0.01271,0 -0.158895,-0.2024 -0.324864,-0.44977 z m 0.0019,-0.14034 c -0.179611,-0.25606 -0.287356,-0.36074 -0.144241,-0.14014 0.237298,0.36576 0.287111,0.43379 0.304736,0.41616 0.01071,-0.0107 -0.06151,-0.13492 -0.160495,-0.27602 z m -13.287405,0.39961 c 0.0044,-0.0802 0.07496,-0.21522 0.07742,-0.14817 0.0013,0.0349 -0.01614,0.0921 -0.03871,0.127 -0.02257,0.0349 -0.03999,0.0444 -0.03871,0.0212 z m 3.68606,-0.0635 c 0,-0.0582 0.0096,-0.082 0.02135,-0.0529 0.01174,0.0291 0.01174,0.0767 0,0.10583 -0.01174,0.0291 -0.02135,0.005 -0.02135,-0.0529 z m 3.168316,-0.0847 c -0.04974,-0.0699 -0.08091,-0.127 -0.06927,-0.127 0.01164,0 0.06186,0.0571 0.111598,0.127 0.04974,0.0699 0.08091,0.127 0.06927,0.127 -0.01164,0 -0.06186,-0.0572 -0.111598,-0.127 z m -1.66357,-0.28575 c -0.104121,-0.18045 -0.231496,-0.39952 -0.283052,-0.48683 -0.05156,-0.0873 -0.08361,-0.15875 -0.07123,-0.15875 0.02402,0 0.394671,0.60645 0.510999,0.83608 0.129864,0.25635 0.03363,0.13937 -0.156713,-0.1905 z m 7.787629,0.1905 c -0.169295,-0.22559 -0.596679,-0.92075 -0.566078,-0.92075 0.01629,0 0.590988,0.84733 0.681913,1.00542 0.06032,0.10487 -0.0148,0.05 -0.115835,-0.0847 z m 0.08967,-0.14817 c -0.265222,-0.40689 -0.381777,-0.60325 -0.35809,-0.60325 0.0113,0 0.120837,0.15716 0.243418,0.34925 0.122582,0.19209 0.250432,0.39211 0.284112,0.4445 0.03368,0.0524 0.05124,0.0952 0.03903,0.0952 -0.01221,0 -0.106025,-0.12859 -0.208466,-0.28575 z m 0.982938,-0.13758 c -0.140901,-0.20955 -0.248475,-0.381 -0.239054,-0.381 0.02589,0 0.49284,0.62751 0.520413,0.69937 0.05748,0.14979 -0.04308,0.036 -0.281359,-0.31837 z m -3.219612,0.13758 -0.145887,-0.15875 0.15875,0.14589 c 0.08731,0.0802 0.15875,0.15168 0.15875,0.15875 0,0.0323 -0.03582,0.002 -0.171613,-0.14589 z m -10.874045,-0.0353 c 0.002,-0.0493 0.01206,-0.0593 0.02558,-0.0256 0.01223,0.0306 0.01073,0.0671 -0.0033,0.0811 -0.01407,0.0141 -0.02407,-0.0109 -0.02223,-0.0556 z m -0.362545,-0.1023 c 0.01469,-0.0815 0.03008,-0.19874 0.0342,-0.26054 0.0041,-0.0618 0.02179,-0.10355 0.03925,-0.0927 0.05059,0.0313 0.03569,-0.19641 -0.0309,-0.47221 -0.09345,-0.387 -0.06832,-0.3786 0.05986,0.02 0.09371,0.29144 0.108831,0.39352 0.08064,0.54444 -0.01909,0.10216 -0.02394,0.20316 -0.01079,0.22444 0.01315,0.0213 0.0048,0.0334 -0.01858,0.0271 -0.02337,-0.006 -0.07352,0.0265 -0.111434,0.073 -0.06606,0.0811 -0.06782,0.0785 -0.04224,-0.0635 z m 11.46768,0.0318 -0.08064,-0.0953 0.09525,0.0806 c 0.08951,0.0758 0.114522,0.10986 0.08064,0.10986 -0.008,0 -0.05089,-0.0429 -0.09525,-0.0952 z m -0.826877,-0.0212 c -0.05266,-0.0671 -0.05116,-0.0686 0.01598,-0.016 0.07052,0.0553 0.09294,0.0901 0.0581,0.0901 -0.0088,0 -0.04213,-0.0333 -0.07408,-0.0741 z m 2.291399,-0.15875 c -0.07209,-0.10477 -0.121542,-0.1905 -0.1099,-0.1905 0.01164,0 0.08015,0.0857 0.152234,0.1905 0.07209,0.10478 0.121542,0.1905 0.109901,0.1905 -0.01164,0 -0.08015,-0.0857 -0.152235,-0.1905 z m -10.133603,0.0407 c -0.04085,-0.10646 -0.0288,-0.13392 0.0211,-0.0481 0.02471,0.0425 0.03601,0.0862 0.02511,0.0971 -0.0109,0.0109 -0.0317,-0.0111 -0.04621,-0.049 z m 7.653081,-0.0301 -0.08064,-0.0953 0.09525,0.0806 c 0.05239,0.0444 0.09525,0.0872 0.09525,0.0952 0,0.0339 -0.03407,0.009 -0.109856,-0.0806 z m -7.145081,-0.0546 c -0.04085,-0.10645 -0.0288,-0.13392 0.0211,-0.0481 0.02471,0.0425 0.03601,0.0862 0.02511,0.0971 -0.0109,0.0109 -0.0317,-0.0111 -0.04621,-0.049 z m 8.37677,-0.18886 c -0.107496,-0.1397 -0.185923,-0.254 -0.174281,-0.254 0.01164,0 0.109118,0.1143 0.216615,0.254 0.107496,0.1397 0.185923,0.254 0.174281,0.254 -0.01164,0 -0.109118,-0.1143 -0.216615,-0.254 z m -10.261213,-0.23875 c -0.142243,-0.22737 -0.258624,-0.40231 -0.258624,-0.38876 0,0.0136 0.02878,0.1062 0.06395,0.2059 0.09174,0.26001 0.0499,0.25265 -0.06177,-0.0109 -0.25305,-0.59719 -0.719711,-1.78467 -0.706529,-1.79785 0.0082,-0.008 0.0541,0.076 0.10202,0.18719 0.04792,0.11114 0.174674,0.40646 0.281674,0.65626 0.157523,0.36774 0.701649,1.34101 0.701649,1.25503 0,-0.0123 -0.07828,-0.20194 -0.173961,-0.42133 -0.256284,-0.58764 -0.547314,-1.32155 -0.530661,-1.3382 0.02136,-0.0214 0.47421,0.99134 0.691655,1.54673 0.103448,0.26423 0.179341,0.48916 0.168651,0.49985 -0.01069,0.0107 -0.135817,-0.16659 -0.27806,-0.39395 z m 0.37606,0.14073 c -0.08132,-0.14376 -0.145239,-0.28498 -0.142047,-0.31384 0.0032,-0.0289 -0.0091,-0.0433 -0.02731,-0.032 -0.01822,0.0113 -0.04442,-0.009 -0.05824,-0.045 -0.01639,-0.0427 -0.0081,-0.0549 0.02392,-0.0351 0.0315,0.0195 0.03974,0.009 0.02304,-0.0296 -0.190049,-0.43753 -0.537636,-1.32389 -0.524365,-1.33716 0.0205,-0.0205 0.45644,0.96333 0.704317,1.5895 0.09562,0.24156 0.168164,0.4449 0.161197,0.45187 -0.007,0.007 -0.0792,-0.10495 -0.160518,-0.2487 z m 2.190076,-0.014 c -0.493973,-0.78546 -0.847678,-1.36713 -0.967619,-1.59124 -0.206187,-0.38526 0.595307,0.81634 0.933841,1.40002 0.18651,0.32157 0.214147,0.47803 0.03378,0.19122 z m 3.248482,-0.10794 -0.210075,-0.22037 0.211666,0.187 c 0.192395,0.16997 0.266399,0.25373 0.224187,0.25373 -0.0086,0 -0.110237,-0.0992 -0.225778,-0.22036 z m -3.583763,-0.16141 c -0.247751,-0.38924 -0.317162,-0.42338 -0.114713,-0.0564 0.341992,0.61989 -0.315987,-0.3745 -0.921547,-1.39272 -0.01038,-0.0175 -0.0099,-0.0318 0.0011,-0.0318 0.01099,0 0.186452,0.25746 0.389921,0.57214 0.392123,0.60643 0.548254,0.76709 0.198839,0.2046 -0.2987,-0.48084 -0.411625,-0.67677 -0.362286,-0.62857 0.07952,0.0777 0.560064,0.81865 0.981492,1.51342 0.186122,0.30684 0.04077,0.15485 -0.172799,-0.18069 z m 8.110999,0.24419 -0.08064,-0.0953 0.09525,0.0806 c 0.08951,0.0758 0.114522,0.10986 0.08064,0.10986 -0.008,0 -0.0509,-0.0429 -0.09525,-0.0952 z M 59.29798,173.7954 c -0.04085,-0.10646 -0.0288,-0.13393 0.02111,-0.0481 0.02471,0.0425 0.03601,0.0862 0.02511,0.0971 -0.0109,0.0109 -0.0317,-0.0111 -0.04621,-0.049 z m 1.203344,-0.15612 c -0.270316,-0.63718 -0.682106,-1.69516 -0.666046,-1.71122 0.0101,-0.0101 0.04834,0.0538 0.08497,0.14213 0.03663,0.0883 0.1414,0.33196 0.232829,0.54151 0.21467,0.49201 0.483038,1.21075 0.460494,1.23329 -0.0096,0.01 -0.06015,-0.0829 -0.112244,-0.20571 z m 1.807283,-0.48783 c -0.538547,-0.86998 -0.505917,-0.81492 -0.482953,-0.81492 0.02313,0 0.54441,0.80352 0.76898,1.18534 0.203674,0.34628 0.199755,0.33866 0.174268,0.33866 -0.01174,0 -0.218872,-0.31909 -0.460295,-0.70908 z m 0.29129,0.23283 c -0.310903,-0.47827 -0.797572,-1.30175 -0.769325,-1.30175 0.06617,0 1.124011,1.64053 1.124011,1.74315 0,0.0853 -0.06444,0.005 -0.354686,-0.4414 z m -1.05825,0.32645 c -0.04085,-0.10646 -0.0288,-0.13392 0.0211,-0.0481 0.02471,0.0425 0.03601,0.0862 0.02511,0.0971 -0.0109,0.0109 -0.0317,-0.0111 -0.04621,-0.049 z m 1.345369,-0.17477 c -0.288258,-0.44675 -0.774512,-1.24176 -0.759501,-1.24176 0.03638,0 0.461188,0.61174 0.699985,1.00799 0.280269,0.46507 0.326873,0.64812 0.05952,0.23377 z m 7.281378,0.06 -0.08064,-0.0953 0.09525,0.0806 c 0.08951,0.0758 0.114522,0.10986 0.08064,0.10986 -0.008,0 -0.05089,-0.0429 -0.09525,-0.0952 z m -11.166747,-0.0122 c -0.04085,-0.10646 -0.0288,-0.13392 0.0211,-0.0481 0.02471,0.0425 0.03601,0.0862 0.02511,0.0971 -0.0109,0.0109 -0.03169,-0.0111 -0.04621,-0.049 z m 10.895603,-0.1042 c -0.07376,-0.0931 -0.12459,-0.16933 -0.112948,-0.16933 0.01164,0 0.08152,0.0762 0.155281,0.16933 0.07376,0.0931 0.12459,0.16934 0.112948,0.16934 -0.01164,0 -0.08152,-0.0762 -0.155281,-0.16934 z m -10.541332,-0.24049 c -0.249172,-0.65811 -0.4653,-1.29765 -0.445291,-1.31766 0.01226,-0.0123 0.02229,-0.0125 0.02229,-5.4e-4 0,0.012 0.0869,0.24849 0.193111,0.52563 0.219222,0.57203 0.361072,1.00099 0.338479,1.02358 -0.0084,0.008 -0.05729,-0.0955 -0.108589,-0.23101 z m 10.662932,0.16641 c -0.05266,-0.0671 -0.05116,-0.0686 0.01598,-0.016 0.07052,0.0553 0.09294,0.0901 0.0581,0.0901 -0.0088,0 -0.04213,-0.0333 -0.07408,-0.0741 z m -3.98734,-0.51858 c 0.01385,-0.10478 0.03206,-0.19844 0.04046,-0.20814 0.03185,-0.0368 0.0076,0.23312 -0.02816,0.31397 -0.02503,0.0565 -0.02912,0.0214 -0.0123,-0.10583 z m 3.527073,0.15269 c 0,-0.0402 0.12672,-0.0604 0.149309,-0.0238 0.01376,0.0223 -0.0142,0.0405 -0.06214,0.0405 -0.04794,0 -0.08716,-0.007 -0.08716,-0.0166 z m -8.92222,-0.41625 c -0.186865,-0.50764 -0.195062,-0.53381 -0.14125,-0.45097 0.06201,0.0955 0.306363,0.76508 0.286453,0.78499 -0.0089,0.009 -0.07429,-0.14136 -0.145203,-0.33402 z m 7.813616,0.3193 c 0.03056,-0.0122 0.06707,-0.0107 0.08114,0.003 0.01407,0.0141 -0.01094,0.0241 -0.05556,0.0222 -0.04932,-0.002 -0.05935,-0.0121 -0.02558,-0.0256 z m -9.582939,-0.42359 c -0.04116,-0.11201 -0.100582,-0.26849 -0.132039,-0.34774 -0.03146,-0.0792 -0.0495,-0.15177 -0.0401,-0.16117 0.0094,-0.009 0.07675,0.13915 0.149673,0.3301 0.07292,0.19096 0.124647,0.35513 0.114948,0.36483 -0.0097,0.01 -0.05131,-0.074 -0.09248,-0.18602 z m 9.707293,-0.24131 c -0.01746,-0.11385 -0.02984,-0.27577 -0.0275,-0.35984 l 0.0043,-0.15284 0.0398,0.16934 c 0.02189,0.0931 0.03426,0.25505 0.0275,0.35983 l -0.0123,0.1905 z m -4.219247,-0.0344 c -0.152817,-0.2078 -0.289824,-0.55229 -0.320868,-0.8068 l -0.02189,-0.17948 0.06527,0.127 0.06527,0.127 -0.02467,-0.19733 c -0.02933,-0.23456 0.04255,-0.31365 0.100969,-0.11109 0.03815,0.13227 0.0403,0.13351 0.04393,0.0252 0.0021,-0.0626 0.02287,-0.12569 0.04615,-0.14008 0.02649,-0.0164 0.04399,0.0817 0.04675,0.26208 0.0061,0.39751 0.01942,0.56668 0.05438,0.69042 0.02772,0.0981 0.02604,0.0996 -0.023,0.0212 -0.0291,-0.0466 -0.09792,-0.18945 -0.152939,-0.3175 -0.05931,-0.13805 -0.08987,-0.18114 -0.07509,-0.10584 0.01372,0.0699 0.09703,0.27464 0.185136,0.45509 0.08811,0.18044 0.155968,0.32808 0.150804,0.32808 -0.0052,0 -0.06826,-0.08 -0.140211,-0.17789 z m 4.327615,-0.0973 c 2.54e-4,-0.1397 0.0081,-0.19174 0.01756,-0.11566 0.0094,0.0761 0.0092,0.19039 -4.31e-4,0.254 -0.0097,0.0636 -0.01737,0.001 -0.01713,-0.13834 z m -7.719725,0.10221 c -0.02599,-0.0486 -0.03928,-0.0963 -0.02953,-0.10601 0.0097,-0.01 0.03946,0.03 0.06602,0.0883 0.05834,0.12804 0.02993,0.14183 -0.03649,0.0177 z m -1.368663,-0.31551 c -0.04085,-0.10646 -0.0288,-0.13392 0.0211,-0.0481 0.02471,0.0425 0.03601,0.0862 0.02511,0.0971 -0.0109,0.0109 -0.0317,-0.0111 -0.04621,-0.049 z m 9.088388,-0.76036 c 2.54e-4,-0.1397 0.0081,-0.19175 0.01756,-0.11566 0.0094,0.0761 0.0092,0.19039 -4.31e-4,0.254 -0.0097,0.0636 -0.01737,0.001 -0.01713,-0.13834 z m -0.08568,-0.0423 c 3.39e-4,-0.11641 0.0085,-0.15901 0.01827,-0.0947 0.0097,0.0644 0.0095,0.1596 -5.76e-4,0.21167 -0.01005,0.0521 -0.01801,-5.8e-4 -0.01769,-0.117 z m 0.170344,-0.0847 c 2.54e-4,-0.1397 0.0081,-0.19175 0.01756,-0.11566 0.0094,0.0761 0.0092,0.19039 -4.32e-4,0.254 -0.0097,0.0636 -0.01737,0.001 -0.01713,-0.13834 z m -0.125326,-0.61384 c 0,-0.19791 0.0073,-0.27887 0.0162,-0.17991 0.0089,0.099 0.0089,0.26087 0,0.35983 -0.0089,0.0989 -0.0162,0.018 -0.0162,-0.17992 z m 0.167659,0.10584 c 2.54e-4,-0.1397 0.0081,-0.19175 0.01756,-0.11566 0.0094,0.0761 0.0092,0.19039 -4.31e-4,0.254 -0.0097,0.0636 -0.01737,10e-4 -0.01713,-0.13834 z m -0.08626,-0.0635 c 0,-0.10478 0.0083,-0.14764 0.01835,-0.0952 0.01009,0.0524 0.01009,0.13811 0,0.1905 -0.01009,0.0524 -0.01835,0.01 -0.01835,-0.0952 z M 65.473409,166.107 c -0.260042,-0.13432 -0.442932,-0.33074 -0.492961,-0.52942 -0.03383,-0.13435 -0.074,-0.18909 -0.167079,-0.22764 -0.139718,-0.0579 -0.145066,-0.0566 -0.631127,0.14629 -0.197908,0.0826 -0.407458,0.14947 -0.465667,0.14854 -0.101764,-0.002 -0.10095,-0.004 0.02117,-0.0525 0.06985,-0.028 0.275693,-0.12213 0.457429,-0.20928 0.356237,-0.17081 0.510521,-0.19372 0.649424,-0.0964 0.0919,0.0644 0.14198,0.048 0.14198,-0.0464 0,-0.0742 -0.293931,-0.26964 -0.405432,-0.26964 -0.04919,0 -0.125691,0.0401 -0.16999,0.089 -0.128716,0.14223 -0.292452,0.20699 -0.577099,0.22825 l -0.265645,0.0199 0.304494,-0.0774 c 0.207452,-0.0527 0.352955,-0.11992 0.456556,-0.21088 0.195863,-0.17197 0.385388,-0.17859 0.573821,-0.02 0.129853,0.10926 0.13653,0.11044 0.179573,0.0318 0.02459,-0.045 0.111062,-0.13888 0.192164,-0.20873 0.0811,-0.0699 0.225594,-0.19704 0.321092,-0.28265 l 0.173633,-0.15565 0.02395,-0.64868 c 0.01317,-0.35678 0.03988,-0.68679 0.05935,-0.73336 0.102418,-0.24493 0.30407,-0.34922 0.48967,-0.25324 0.08944,0.0463 0.169777,0.16054 0.290019,0.41261 0.169109,0.3545 0.34456,0.83098 0.342225,0.92938 -0.0022,0.0923 -0.08062,-0.0745 -0.251317,-0.53465 -0.177722,-0.47907 -0.266794,-0.6404 -0.38999,-0.70633 -0.123041,-0.0659 -0.221779,-0.012 -0.329506,0.17966 -0.07949,0.14144 -0.105614,0.27629 -0.137269,0.70863 -0.05582,0.76241 -0.07189,0.80559 -0.43692,1.17419 -0.463288,0.46782 -0.471052,0.70917 -0.03397,1.05598 0.344079,0.27301 0.346785,0.27786 0.07743,0.13873 z m 1.397,0.003 c -0.211622,-0.0815 -0.211631,-0.0815 -0.04319,-0.0565 0.09266,0.0138 0.216485,0.0512 0.275166,0.0831 0.155019,0.0844 0.01428,0.0682 -0.231972,-0.0266 z m -0.119567,-0.14271 c -0.08904,-0.0317 -0.17477,-0.0715 -0.1905,-0.0884 -0.04151,-0.0445 0.284977,0.0203 0.435736,0.0866 0.123885,0.0544 0.124665,0.0564 0.0225,0.058 -0.05821,8.8e-4 -0.178688,-0.0244 -0.267733,-0.0561 z m 2.807733,-1.13175 c -0.08149,-0.0234 -0.221911,-0.0327 -0.312042,-0.0207 -0.112272,0.015 -0.150166,0.008 -0.120339,-0.0217 0.07677,-0.0768 0.312606,-0.10114 0.568733,-0.0588 0.177994,0.0294 0.2878,0.0271 0.384482,-0.008 l 0.135333,-0.0495 -0.118777,0.10457 c -0.127951,0.11265 -0.280741,0.12811 -0.53739,0.0544 z m -1.3335,-0.36878 c -0.202759,-0.12774 -0.438405,-0.35388 -0.338666,-0.32502 0.07731,0.0224 0.07637,0.0174 -0.01082,-0.0566 -0.0646,-0.0549 -0.07829,-0.0872 -0.04233,-0.10004 0.07268,-0.0258 0.379477,0.13249 0.349795,0.18052 -0.01312,0.0212 0.01642,0.0601 0.06563,0.0865 0.04921,0.0263 0.07815,0.0592 0.0643,0.0731 -0.01385,0.0138 0.01642,0.0694 0.06725,0.12357 0.11589,0.12336 0.02819,0.13357 -0.155159,0.0181 z m -0.0635,-0.31732 c 0,-0.009 -0.02956,-0.028 -0.0657,-0.0419 -0.03767,-0.0144 -0.05466,-0.007 -0.03983,0.0166 0.02486,0.0402 0.105533,0.0595 0.105533,0.0252 z m -1.862666,0.12242 c 0,-0.0123 0.06191,-0.0601 0.137583,-0.10624 0.179002,-0.10914 0.119355,-0.10783 -0.10752,0.002 -0.121972,0.0592 -0.151505,0.065 -0.09356,0.0182 0.04657,-0.0376 0.08009,-0.0855 0.0745,-0.10647 -0.0056,-0.0209 0.03005,-0.0596 0.07919,-0.0859 0.07045,-0.0377 0.08232,-0.0365 0.05613,0.006 -0.02459,0.0398 -0.01216,0.0451 0.04781,0.0206 0.04457,-0.0182 0.119127,-0.0419 0.165694,-0.0527 l 0.08467,-0.0195 -0.08467,0.0694 c -0.08191,0.0672 -0.08053,0.0686 0.04233,0.0433 l 0.127,-0.0262 -0.124031,0.071 c -0.168524,0.0965 -0.405135,0.19355 -0.405135,0.16614 z m 0.780589,-0.19832 c 0.103342,-0.06 0.44128,-0.0572 0.50259,0.004 0.03323,0.0332 -0.04192,0.0457 -0.269296,0.0448 -0.25446,-0.001 -0.299526,-0.0105 -0.233294,-0.0489 z m -0.226036,-1.14571 c -0.0026,-0.24976 0.0125,-0.41275 0.03811,-0.41275 0.05004,0 0.05004,0.56341 0,0.71967 -0.02233,0.0697 -0.03533,-0.035 -0.03811,-0.30692 z m 0.450863,0.20576 c -0.01746,-0.11385 -0.02984,-0.31387 -0.0275,-0.4445 l 0.0043,-0.23751 0.0397,0.16933 c 0.02183,0.0931 0.03421,0.29316 0.0275,0.4445 l -0.0122,0.27517 z m -0.592298,-0.11051 c -0.01726,-0.12806 -0.03097,-0.29951 -0.03046,-0.381 7.49e-4,-0.12054 0.0089,-0.13443 0.04383,-0.0745 0.0236,0.0405 0.03731,0.21196 0.03046,0.381 l -0.01245,0.30734 z m 0.742567,-0.381 c 0,-0.12806 0.0079,-0.18045 0.01764,-0.11642 0.0097,0.064 0.0097,0.16881 0,0.23284 -0.0097,0.064 -0.01764,0.0116 -0.01764,-0.11642 z"
       id="path854" />
  </g>
</svg>
