<svg width="66.344" height="112.044" viewBox="0 0 17.553 29.645" xmlns="http://www.w3.org/2000/svg"><path style="fill:#000;stroke-width:.0423333" d="M44.502 165.63a4.157 4.157 0 0 1-.04-.334c-.018-.215-.01-.243.077-.29.104-.056.26-.042.25.022-.003.022-.02.088-.037.146-.017.058-.017.092 0 .076.05-.046.191.045.191.122 0 .081-.278.352-.362.352-.033 0-.068-.042-.079-.095zm.26-.097c.123-.086.08-.198-.068-.181-.085.01-.114.04-.124.13-.016.133.05.15.193.05zm-.088-.341c.06-.091.062-.116.014-.146-.085-.052-.126-.01-.126.13 0 .154.02.156.112.016zm-.665.3a1.16 1.16 0 0 0-.037-.297c-.026-.066-.045-.033-.088.16-.03.133-.07.242-.087.242-.045 0 .068-.463.128-.522.038-.037.065-.03.11.033.036.048.061.06.061.027 0-.03.027-.045.059-.032.032.012.08 0 .105-.025.026-.025.06-.033.076-.017.054.054.07.54.02.59-.036.036-.049-.017-.051-.204-.004-.257-.02-.244-.108.087-.031.12-.035.115-.06-.085-.027-.207-.027-.208-.035-.042-.011.269-.088.339-.093.085zm-.886-.965c-.195-.068-.2-.18-.008-.172.182.008.396.098.376.158-.022.067-.196.074-.368.014zm-1.176-.138c-.116-.082-.123-.254-.014-.323.104-.065.073-.139-.106-.25-.275-.17-.139-.273.273-.206.32.051.69.243.762.394.052.108.048.128-.037.22-.19.2-.692.295-.878.165zm1.356-.145c-.053-.023-.096-.07-.096-.106 0-.05.051-.065.225-.065.216 0 .423.087.36.15-.05.05-.388.064-.49.02zm-11.97-.051c-.454-.087-1.19-.55-1.601-1.009-.411-.458-.437-.65-.158-1.185.155-.296.192-.415.215-.677l.028-.318.007.28c.005.253-.012.317-.181.657-.249.5-.261.561-.159.792.126.285.4.555.89.879.801.529 1.309.63 2.208.44.058-.012.034.006-.053.04-.16.062-.723.155-.892.146a3.287 3.287 0 0 1-.304-.045zm9.006-.079c-.052-.02-.095-.07-.095-.108 0-.057.029-.066.152-.046.252.041.379.2.155.195a.71.71 0 0 1-.212-.04zm-.942-.095c-.125-.063-.158-.206-.065-.283.096-.08.082-.137-.068-.26-.077-.063-.12-.13-.103-.158.074-.12.604-.006.852.183.244.186.174.385-.179.511-.203.073-.303.074-.437.007zm-6.519-.073a.254.254 0 0 1 .106-.04c.023 0 .014.018-.021.04a.254.254 0 0 1-.106.041c-.023 0-.014-.018.021-.04zm10.204.002c-.099-.062-.027-.094.265-.117.19-.015.282-.006.304.03.019.03.008.069-.025.09-.078.049-.466.047-.544-.002zm-2.578-.11c-.119-.085-.06-.144.145-.145.133 0 .314.099.267.146-.068.068-.317.067-.412 0zm-7.27-.096a.525.525 0 0 0 .11-.26c0-.1-.025-.13-.148-.17a.514.514 0 0 0-.243-.022c-.075.021-.082.018-.033-.017.082-.057.237-.058.342-.002.104.056.104.04-.008-.436-.158-.673-.068-.984.317-1.1l.169-.05-.272-.052c-.34-.064-1.065-.114-.953-.065.064.028.024.048-.183.092-.159.033-.243.069-.211.088.029.018-.07.026-.22.017-.197-.012-.237-.007-.145.02.07.019.102.037.071.04-.031.003-.001.051.069.11.157.132.19.251.096.337-.102.092-.442.148-.63.104-.256-.06-.253-.044.02.11.304.174.353.252.192.308-.08.028-.204.019-.415-.031-.52-.123-.759-.33-.67-.58.04-.115.054-.12.379-.141l.338-.021-.487-.247c-.658-.333-.758-.4-.789-.522a.377.377 0 0 1 .029-.219c.03-.062.05-.132.044-.155-.006-.024.002-.03.018-.014.04.04 1.07-.829 1.434-1.207.208-.217.242-.243.12-.092a6.368 6.368 0 0 1-.406.441c-.129.127-.225.244-.214.262.01.018-.161.18-.383.36-.325.265-.392.339-.353.387.121.145.409.227 1.008.287.128.013.376.04.55.06.175.02.346.035.381.035.162-.001.935.103 1.176.16.347.08.574.078.86-.007.163-.048.305-.06.495-.04l.266.026-.03-.117c-.047-.188-.037-.597.024-.977.031-.193.064-.343.074-.333.01.01-.006.224-.034.477-.028.26-.037.567-.02.704.028.213.044.244.124.244.09 0 .092-.01.088-.646-.007-.959-.02-1.246-.052-1.166-.016.04-.028-.34-.028-.843 0-1.127.044-.927.102.453.024.585.072 1.192.11 1.391.037.195.06.362.05.372-.01.01-.048-.12-.083-.29l-.064-.308-.005.495c-.003.308.012.505.04.522.025.016.103.004.173-.025.1-.042.122-.071.102-.142l-.092-.321c-.05-.173-.076-.555-.1-1.482-.035-1.301-.06-1.508-.294-2.54a23.556 23.556 0 0 1-.149-.692c-.016-.09-.04-.152-.053-.14-.032.033.062.766.16 1.25.1.487.1.642.002.238l-.073-.296-.03.398c-.016.22-.03.62-.03.89s-.028.661-.063.871c-.062.367-.348 1.526-.356 1.44-.002-.024.073-.414.166-.868.093-.453.178-.977.19-1.164.022-.339.022-.338-.125.303-.08.353-.176.82-.211 1.037-.063.388-.064.39-.045.097.011-.165.109-.726.217-1.25l.196-.95-.028-.889c-.015-.489-.045-.955-.066-1.037-.024-.094-.03.197-.015.805l.023.952-.191.868c-.106.477-.206.934-.223 1.016a7.957 7.957 0 0 0-.064.677l-.033.53.017-.614c.012-.458.044-.738.126-1.101.328-1.465.328-1.468.293-1.99a24.07 24.07 0 0 1-.043-.907l-.009-.42-.226-.115c-.182-.092-.21-.119-.142-.139.046-.013.022-.018-.054-.012-.076.007-.138-.004-.138-.023s-.025-.035-.055-.035c-.031 0-.08.092-.109.208-.03.115-.111.3-.182.413-.116.184-.12.196-.03.12a.861.861 0 0 0 .136-.138c.019-.03.053-.042.077-.027.026.015.001.072-.06.138a1.971 1.971 0 0 0-.182.235l-.078.122.096-.051a.289.289 0 0 0 .12-.112c.012-.033.042-.048.067-.033.024.015.034.01.02-.01-.012-.022.022-.125.076-.23l.1-.19-.023.17c-.012.092-.04.224-.06.291-.022.068-.04.201-.04.297-.001.095-.057.392-.124.66a4.392 4.392 0 0 0-.109.5c.007.007.073-.166.146-.386a3.38 3.38 0 0 0 .162-.775c.027-.336.033-.356.056-.186.023.171.027.176.032.045.006-.137.01-.14.069-.063.059.077.062.073.07-.066.005-.104.016-.073.038.105.036.306.024.443-.114 1.292-.096.59-.305 1.362-.434 1.602-.027.05-.04.091-.03.091.02 0 .324-.512.402-.677.028-.059.04-.068.025-.022a2.757 2.757 0 0 0-.049.202c-.013.064-.041.116-.063.116s-.028.043-.013.095c.022.077.018.083-.021.032-.037-.05-.043-.031-.024.085.012.081.011.123-.002.092-.016-.034-.064.027-.122.153-.148.318-.165.444-.022.157.127-.254.127-.254.127-.102 0 .12-.144.777-.312 1.414-.069.263.038-.408.121-.762.055-.233.095-.428.088-.435-.019-.019-.242.496-.373.858-.147.41-.119.162.036-.313.057-.173.095-.32.087-.33-.027-.026-.162.203-.265.45-.054.13-.099.198-.1.151-.004-.083-.005-.083-.066-.002-.105.138-.07.038.112-.326.205-.413.174-.39-.133.096a4.727 4.727 0 0 1-.307.444c-.079.083-.079.082-.003-.084.101-.225.676-1.267.817-1.482.162-.249.244-.445.34-.821.12-.475.105-.469-.086.034a9.109 9.109 0 0 1-.715 1.461c-.1.162-.256.438-.349.614-.092.176-.156.273-.142.215.029-.113.263-.59.816-1.658.309-.597.629-1.42.594-1.527-.008-.023-.06.06-.118.185a1.683 1.683 0 0 1-.13.248c-.048.04-.242.403-.27.508-.017.058-.14.354-.276.656a23.08 23.08 0 0 0-.297.688c-.029.075-.072.125-.096.11-.024-.015-.032-.008-.017.017.027.043-.308.831-.34.8-.01-.01.062-.186.157-.393.203-.44.18-.425-.154.095-.137.212-.272.422-.302.466-.136.205.269-.572.48-.922.312-.515.312-.515.09-.268-.105.116-.181.226-.17.244.01.018 0 .028-.023.022-.024-.006-.16.112-.303.263-.142.151-.246.247-.23.212.015-.035-.06.026-.167.135-.226.23-.25.21-.066-.055.119-.171.11-.166-.113.068-.14.148-.2.194-.143.11.054-.078.234-.287.4-.465.341-.367.959-1.11 1.14-1.374.12-.175.535-1.01.534-1.074 0-.018-.055.062-.12.178-.278.493-.705 1.164-.916 1.44-.213.279-1.451 1.58-1.33 1.397.108-.162.399-.51.789-.945.6-.669.913-1.12 1.268-1.828.184-.367.095-.272-.119.127-.196.366-.848 1.327-.937 1.383-.02.012.085-.156.234-.373.345-.504.368-.544.268-.462-.042.034-.244.31-.45.614-.27.398-.501.676-.829.997l-.453.444.384-.434c.556-.627.724-.86.345-.476-.173.175-.447.441-.609.593l-.295.275.259-.296c.142-.163.3-.335.352-.381.114-.103.292-.346.22-.302-.084.053-.056-.04.04-.126a2.29 2.29 0 0 0 .217-.25l.128-.17-.156.164c-.19.2-.247.176-.086-.036.064-.084.1-.15.078-.145-.087.016-.102-.007-.059-.09.025-.046.064-.074.087-.06.022.014.028.046.012.072-.017.027-.008.033.022.015.027-.017.038-.049.025-.07-.014-.022-.006-.04.017-.04s.118-.138.212-.306c.094-.17.185-.3.204-.291.018.009.141-.182.273-.423.131-.242.326-.588.432-.768.106-.18.185-.328.176-.328-.042 0-.365.522-.569.92-.122.24-.24.424-.26.411-.02-.013-.025.01-.01.05.017.043.011.062-.015.046-.023-.015-.115.086-.204.224-.09.137-.178.24-.197.229-.02-.012-.025.004-.014.034.012.031-.008.094-.045.14-.064.08-.065.08-.02-.013.026-.053-.185.142-.469.434-.284.292-.529.53-.544.53-.016 0 .154-.186.376-.413.482-.493.764-.892 1.177-1.66.169-.315.306-.553.305-.53 0 .023-.028.09-.061.148a.5.5 0 0 0-.062.148c-.001.024.093-.126.209-.333.116-.206.28-.464.364-.571.142-.183.138-.18-.065.036-.12.128-.252.305-.294.392-.041.087-.086.148-.099.135-.034-.035-.162.165-.408.638-.121.232-.26.47-.308.529-.085.104-.085.103.002-.053.05-.087.127-.223.173-.3.107-.18.303-.62.276-.62-.01 0-.078.113-.148.253-.07.14-.138.254-.15.254-.01 0 .066-.172.172-.383.106-.21.21-.371.233-.357.022.014.03 0 .02-.03-.03-.078.406-.817.444-.754.022.035.039.03.058-.02.017-.044.01-.059-.021-.04-.029.018-.04.006-.028-.03a.094.094 0 0 1 .08-.06c.033-.001.054-.027.048-.057-.007-.031.037-.125.098-.21l.11-.154-.135.148c-.074.081-.249.3-.388.487-.264.352-.324.424-.266.317.09-.167.529-.775.768-1.067l.268-.325-.072-.126c-.067-.116-.067-.133-.005-.204a.79.79 0 0 0 .116-.23c.083-.258.19-.316.534-.29.32.026.372.022.236-.022-.108-.034-.113-.088-.014-.145.068-.04.068-.044-.009-.045-.064 0-.07-.012-.031-.052.08-.08.06-.119-.066-.118-.22.001-.3.045-.333.184-.03.126-.034.12-.067-.098-.054-.348-.046-.355.337-.32.432.04.603.111.603.25 0 .059-.025.122-.055.14-.03.019-.076.124-.1.234-.025.11-.03.19-.01.179.06-.038.13.156.105.293-.02.103-.005.152.06.207.046.04.084.108.084.151 0 .085-.124.219-.203.219-.034 0-.037.03-.01.095.05.127.232.747.32 1.09.184.717.198.86.23 2.307.027 1.292.04 1.467.118 1.706l.088.266-.112.073c-.092.06-.21.071-.684.068-.326-.002-.508.01-.424.026l.148.03-.19.007c-.262.01-.816.112-.925.17-.23.124-.261.401-.117 1.041.037.163.067.396.067.518.001.19-.017.24-.13.36l-.132.138.11-.14zm-.833-2.234c-.014-.014-.05-.015-.081-.003-.034.014-.024.024.025.026.045.002.07-.008.056-.022zm-1.856-.903c.21-.174.376-.323.366-.333-.02-.02-.827.617-.827.652 0 .049.086-.011.46-.32zm2.464-.902c.182-.257.546-.95.546-1.04 0-.029-.308.495-.518.881-.07.128-.164.285-.21.35-.045.063-.071.116-.059.116.013 0 .121-.138.24-.307zm-.591-.19c.052-.068.05-.07-.016-.017-.041.032-.074.066-.074.074 0 .035.034.013.09-.058zm.164-.577c0-.054-.02-.03-.082.1-.047.1-.046.101.016.024.036-.045.066-.101.066-.124zm.441-.556c.118-.234.358-.783.342-.783-.03 0-.277.459-.424.788-.142.316-.077.312.082-.005zm.574-.54c.052-.145.123-.296.158-.335a.2.2 0 0 0 .046-.148c-.014-.07-.224.377-.307.653-.062.203.013.081.103-.17zm.05-.422c.055-.087.123-.158.152-.159.043 0 .083-.17.04-.17-.024 0-.313.404-.409.571l-.097.17.109-.127c.059-.07.152-.198.206-.285zm-.357-.551c.187-.262.363-.524.392-.583.072-.143.014-.077-.25.286-.123.169-.239.298-.258.286-.038-.024-.226.274-.193.307.011.012.002.057-.021.1-.096.18.009.054.33-.396zm-.176.082c.015-.041.04-.065.052-.052.013.013 0 .047-.029.076-.042.042-.046.037-.023-.024zm.53.156.078-.011c.062-.008.172-.133.172-.195 0-.148-.26.038-.395.282l-.077.14.093-.105a.411.411 0 0 1 .13-.111zm.037-.099a.347.347 0 0 1 .09-.11c.026-.016.014.02-.026.082-.084.129-.128.149-.064.028zm1.268-1.12c.053-.064.005-.123-.062-.075-.054.039-.071.135-.024.135.02 0 .059-.027.086-.06zm-.707-.153c.33.053.34.053.308 0-.014-.023-.068-.043-.119-.044-.087-.003-.087-.005.013-.045.135-.055.072-.094-.26-.162-.307-.063-.455-.03-.44.1.017.157.06.2.152.15.055-.029.165-.03.346 0zm.641-.306c.036-.132.033-.159-.015-.159-.024 0-.043.03-.043.066 0 .037-.017.056-.038.042-.03-.018-.034.048-.007.136.014.047.083-.008.103-.085zm-.4-.059c.01-.008-.028-.015-.084-.016-.082 0-.09-.009-.04-.041.057-.037.057-.042 0-.045-.034-.002.004-.031.085-.065.141-.058.142-.06.022-.038-.115.02-.12.016-.052-.037.07-.056.069-.06-.022-.085-.176-.047-.281-.028-.39.073-.128.119-.132.142-.034.167.056.015.05.021-.021.025-.052.003-.095.025-.095.05 0 .024.014.036.031.025a.536.536 0 0 1 .202.013c.15.028.35.015.398-.026zm.342-.49c0-.017-.027-.02-.06-.007a.067.067 0 0 0-.037.087c.02.052.031.053.06.007a.237.237 0 0 0 .037-.087zm.094-.337c-.064-.065-.112-.017-.076.076.02.056.04.061.077.023.038-.037.037-.06 0-.1zm-.31-.073c.072-.046-.01-.076-.302-.11-.155-.019-.201-.01-.201.035 0 .036.05.06.131.062.072.002.142.014.155.027.036.036.15.028.217-.014zm3.422 9.348c-.09-.052-.058-.123.055-.123.102 0 .295.087.295.133 0 .05-.26.042-.35-.01zm-3.186-.186c-.086-.105-.173-.18-.194-.167-.105.065.014-.22.128-.309.103-.078.39-.064.54.028.238.145.24.41.003.554-.21.128-.303.107-.477-.106zm.448.062c.11-.06.178-.197.146-.298-.065-.203-.511-.28-.684-.118l-.097.091.178.184c.182.188.3.224.457.14zm.464.043c-.087-.028-.091-.034-.021-.037a.296.296 0 0 1 .148.037c.074.048.022.048-.127 0zm1.45-.005c-.072-.074-.067-.164.015-.254.064-.07.059-.085-.069-.2-.158-.145-.138-.218.06-.218a.99.99 0 0 1 .568.2c.17.126.17.278 0 .405-.138.103-.499.145-.574.067zm5.511-.097c-.117-.086-.063-.115.229-.123.255-.007.382.046.326.137-.041.067-.458.056-.555-.014zm-2.262-.012c-.189-.06-.193-.063-.106-.1.121-.05.435-.048.466.003.014.023.001.05-.03.06-.129.04-.271.056-.33.037zm-2.283-.073c-.045-.053-.035-.068.062-.093.127-.031.33.023.334.09.005.072-.337.075-.396.003zm-2.395-.067c-.034-.054.107-.054.19 0 .05.032.04.041-.05.042-.063 0-.126-.019-.14-.042zm-4.631-.15a1.387 1.387 0 0 1-.298-.203l-.155-.14.235.017c.479.034.96.201.922.32-.026.077-.533.082-.704.007zm6.917.013c-.082-.048-.081-.05.021-.079.189-.053.381-.043.381.02 0 .104-.26.142-.402.06zm1.93-.05c-.045-.053-.037-.068.05-.09.176-.044.433-.005.433.065 0 .092-.41.113-.484.025zm-2.2-.19c-.102-.064-.007-.131.185-.131.193 0 .287.067.186.131a.434.434 0 0 1-.186.037.432.432 0 0 1-.185-.037zm3.92-.008c-.096-.056-.055-.123.076-.123.12 0 .317.083.317.134 0 .05-.302.042-.393-.011zm-.938-.063c-.083-.083-.084-.162-.003-.23.097-.08.077-.156-.063-.239-.266-.157-.082-.267.311-.185.241.05.472.179.552.308.066.105-.005.203-.23.318-.216.11-.472.123-.567.028zm-8.427-.06c.014-.023.068-.041.119-.04.09.004.09.005.008.04-.117.05-.158.05-.127 0zm1.358-.113c-.015-.039-.01-.088.01-.109.024-.022.047.006.06.07.023.122-.028.15-.07.039zm5.552.024c-.041-.024-.064-.061-.05-.083.041-.068.216-.044.321.043l.1.084h-.148a.548.548 0 0 1-.223-.044zm-3.62-.047c-.029-.027-.05-.147-.049-.264.002-.185.008-.2.045-.11a.59.59 0 0 1 .029.234c-.013.123-.007.128.177.141l.19.014-.124-.131-.125-.13.135.047a.421.421 0 0 1 .16.085c.044.072.145.038.145-.048 0-.126-.129-.245-.364-.337-.139-.054-.175-.082-.11-.083.118-.002.382.105.483.197a.292.292 0 0 1 .076.19c0 .1-.027.135-.147.185-.178.074-.452.08-.522.01zm2.809-.015c-.083-.084-.083-.103.004-.227.068-.098.066-.105-.042-.191-.17-.136-.144-.193.088-.192.212 0 .502.109.596.223.102.123.042.256-.16.358-.222.112-.393.122-.486.029zm3.447.023c-.056-.037-.056-.046 0-.083.146-.096.542-.007.437.098-.043.043-.366.032-.437-.015zm-7.774-.087c.062-.048.112-.115.112-.149 0-.143-.497-.308-.57-.189-.014.022.017.079.069.127.07.066.077.087.028.087-.092 0-.215-.149-.197-.24.01-.059.06-.08.204-.089.21-.012.426.09.507.243.04.073.029.104-.067.192-.062.058-.132.106-.156.106-.023 0 .009-.04.07-.088zm2.422-.077c-.013-.02.007-.05.045-.065.084-.032.227.008.227.063 0 .05-.241.052-.272.002zm2.96.003c-.14-.028-.158-.11-.03-.136.158-.031.305 0 .305.065 0 .06-.145.097-.275.07zm-3.545-.116c-.11-.058-.201-.114-.201-.126 0-.011.095.027.211.086.117.06.212.117.212.128 0 .028.004.03-.222-.088zm5.842.08c-.116-.03-.088-.085.058-.114.32-.064.512.009.267.101a.475.475 0 0 1-.325.012zm-2.546-.219c-.03-.047.113-.09.306-.09.094-.001.135.016.123.052-.02.062-.394.096-.43.038zm2.202-.055c-.064-.037-.068-.053-.021-.083.084-.053.45-.046.484.01.068.11-.3.168-.463.073zm-2.438-.162c-.09-.056-.033-.093.181-.117.195-.022.307.048.193.12-.077.049-.296.047-.374-.002zm-6.997-.283a.164.164 0 0 1 .106 0c.029.012.005.021-.053.021-.059 0-.082-.01-.053-.021zm.222-.025-.233-.043.14-.048c.077-.027.125-.064.106-.083-.019-.019.021-.02.089-.003.08.02.113.016.096-.012-.027-.044.187-.095.399-.096.096 0 .25.11.25.178 0 .048-.345.16-.477.155a3.319 3.319 0 0 1-.37-.048zm1.062-.48c.002-.05.012-.06.025-.025.013.03.011.067-.003.08-.014.015-.024-.01-.022-.055zm1.294-.152c.012-.1.08-.478.15-.84.07-.36.152-.932.182-1.27.049-.565.054-.585.058-.262.008.485-.06 1.042-.223 1.834-.137.666-.207.893-.167.538zm3.042.134a6.774 6.774 0 0 1-.572-.06c-.232-.047-.942-.287-1.05-.356-.16-.102-.22-.279-.265-.78-.023-.262-.08-.742-.125-1.068-.088-.638-.182-1.643-.176-1.884a2.157 2.157 0 0 0-.035-.36c-.02-.116-.06-.41-.086-.654-.026-.243-.075-.48-.108-.528-.111-.159-.061-.187.08-.045.281.28 1.039.427 2.564.494 1.78.078 3.04-.09 3.222-.429.139-.26-.635-.537-1.777-.636-1.285-.112-2.715-.024-3.81.234-.09.02-.095.017-.033-.022.117-.075.771-.203 1.323-.258.655-.066 2.506-.029 3.082.062.497.079.85.175 1.037.283.18.103.22.028.095-.183a4.334 4.334 0 0 1-.23-.574c-.312-.924-.649-1.373-1.358-1.809a6.378 6.378 0 0 1-.59-.415c-.238-.196-.262-.206-.454-.188-.152.015-.285.074-.532.235-.181.118-.506.31-.723.427-.525.283-.876.54-1.158.844-.26.28-.363.473-.502.94a1.987 1.987 0 0 1-.181.44l-.087.123.096.078c.084.068.087.081.026.104-.042.017-.091-.003-.125-.049-.036-.049-.082-.065-.13-.046-.067.025-.07.02-.017-.042a.214.214 0 0 0 .045-.15c-.009-.053.006-.07.05-.053.09.035.143-.088.24-.56.115-.558.242-.82.541-1.109.312-.302.602-.474 1.227-.73.273-.11.644-.279.826-.374.456-.238.581-.229.928.072.107.092.39.284.632.428.795.474 1.164.928 1.518 1.865.096.253.176.405.214.405.035 0 .066.05.074.116.017.151.143.155.358.009.191-.13.206-.074.027.104-.142.143-.286.195-.429.158-.132-.035-.213.043-.156.15.032.059.032.118.001.197-.049.123-.166.728-.218 1.128-.066.51-.124.874-.144.906a2.21 2.21 0 0 0-.063.325c-.077.529-.447 2.43-.473 2.43-.013.001-.01-.108.007-.242s.043-.339.056-.455c.064-.543.31-1.843.391-2.058.038-.102.074-.272.08-.377a5.19 5.19 0 0 1 .127-.91 4.2 4.2 0 0 0 .08-.39l.025-.177-.142.06c-.29.12-.881.162-2.292.16-1.406-.002-2.063-.051-2.7-.2-.242-.055-.244-.055-.217.034.015.05.03.091.033.093l.111.078c.1.07.1.073.01.047-.128-.038-.12.034.011.105.058.03.098.064.088.074-.01.01-.057-.004-.105-.03-.072-.038-.089-.035-.089.018 0 .144-.07.046-.19-.264-.136-.355-.182-.329-.105.062.026.135.056.406.066.602.01.197.026.364.035.373.008.009.06.018.115.02.055.002.28.05.498.104.408.102 1.353.242 1.477.218.038-.007-.149-.05-.416-.094-.267-.045-.462-.089-.433-.098.028-.01.238.011.466.047.227.035.642.079.921.097.462.03.487.037.276.063-.133.016-.014.021.28.012.682-.023 1.33-.17 1.839-.418l.145-.07-.094.082c-.113.098-.721.324-1.111.413-.397.09-1.469.123-2.042.06-.563-.06-1.198-.19-1.484-.302-.257-.101-.258-.101-.175.025.038.058.056.137.042.176-.024.061-.046.054-.16-.052l-.131-.123.031.105c.017.059.042.344.054.635.024.554.023.552.252.71.069.048.067.05-.015.01-.126-.058-.16-.053-.104.015a.806.806 0 0 0 .218.133c.093.043.162.085.152.095-.01.01-.096-.023-.19-.071-.096-.05-.174-.07-.174-.047 0 .024.09.09.2.147.227.118.225.141-.003.046-.19-.08-.194-.08-.17.011.012.045.122.115.274.174.14.054.246.107.236.116-.01.01-.107-.02-.217-.068-.238-.102-.236-.101-.236-.025 0 .035.124.107.3.174.163.062.29.122.28.132-.016.016-.232-.059-.498-.172-.059-.025-.062-.005-.023.16.043.187.046.189.312.26.147.04.26.082.25.092-.011.01-.12-.01-.243-.047-.122-.036-.231-.058-.242-.047-.062.062.066.156.33.24.167.054.286.104.265.11-.021.008-.156-.023-.3-.068-.249-.077-.261-.077-.261-.006 0 .058.085.104.349.191.192.064.359.125.37.137.044.046-.325-.041-.5-.118-.17-.075-.182-.075-.17-.007.01.05.15.12.459.229.244.086.406.157.36.158a2.409 2.409 0 0 1-.434-.117c-.255-.086-.35-.103-.35-.063 0 .033.18.11.448.192.246.076.43.144.406.151-.06.02-.552-.112-.697-.187-.113-.059-.12-.058-.107.012.018.096.482.245.97.312.194.027.37.06.391.072.053.033-.057.094-.183.102-.268.017.415.071.868.069.354-.002.444-.011.296-.03-.13-.017.135-.035.682-.046.708-.015.91-.032.973-.083.075-.058.076-.058.022.011-.094.12-.448.198-1.105.243-.668.045-.785.045-1.419 0zm-1.083-.312c-.066-.058-.293-.148-.293-.115 0 .021.052.059.116.082.122.044.207.06.177.033zm-.858-2.069c-.012-.029-.021-.005-.021.053 0 .058.01.082.021.053a.163.163 0 0 0 0-.106zm-1.929 2.357a6.358 6.358 0 0 1 .077-.508c.045-.254.094-.567.11-.695.015-.128.071-.443.124-.699.054-.256.097-.513.097-.571 0-.202.093-1.111.115-1.134.033-.032.03.699-.004.94-.02.141-.039.184-.067.144-.028-.039-.033-.024-.017.048.013.058-.025.343-.084.635a9.17 9.17 0 0 0-.14 1.124c-.018.326-.038.488-.044.36l-.01-.233-.038.158-.076.318c-.021.087-.04.138-.043.113zm.602-.441c0-.151.008-.213.017-.138.01.076.01.2 0 .275-.01.076-.017.014-.017-.137zm-.217.106c.001-.07.01-.094.021-.052.011.04.01.098-.001.127-.012.028-.02-.005-.02-.075zm4.403.07c-.056-.036.82-.095 1.262-.086l.233.005-.276.056c-.305.063-1.133.08-1.219.024zm-6.4-.091c.067-.131.423-.635.449-.635.021 0-.396.633-.46.698-.024.023-.018-.005.012-.063zm-1.595-.136c.089-.109.284-.306.433-.437.15-.132.264-.253.253-.27-.01-.018.12-.17.291-.34.171-.17.322-.29.336-.266.015.023-.013.091-.06.152-.048.06-.077.127-.064.148.013.021-.048.113-.135.204-.145.153-.141.142.034-.089.034-.044-.193.17-.505.477-.312.307-.577.549-.589.537-.012-.012-.052.002-.088.03-.036.03.006-.036.094-.146zm.24-.14c.126-.128.22-.233.208-.233-.011 0-.124.105-.25.233-.127.128-.221.233-.21.233.012 0 .125-.105.252-.233zm.91-.952c.042-.047.067-.085.055-.085a.334.334 0 0 0-.097.085c-.043.046-.068.085-.056.085a.334.334 0 0 0 .098-.085zm-1.037 1.257c0-.007.062-.07.137-.138l.138-.124-.124.137c-.116.128-.151.157-.151.125zm1.27-.046c0-.009.033-.042.074-.074.067-.052.068-.05.016.016-.056.07-.09.093-.09.058zm-1.651-.045c0-.025.881-.785.91-.785.049 0-.003.049-.445.417-.256.214-.465.38-.465.368zm8.89-.066c.128-.017.375-.042.55-.054l.318-.021-.212.055c-.117.03-.364.054-.55.054-.333-.001-.335-.002-.106-.034zm-5.059-.529c.014-.486.083-.947.135-.894.01.01-.004.1-.032.202a5.274 5.274 0 0 0-.084.713l-.033.53zm6.085.402c0-.081.008-.114.019-.074.01.041.01.108 0 .149-.01.04-.02.007-.02-.075zm-10.255-.004c0-.087.117-.187.559-.476.22-.144.499-.38.694-.59.18-.19.25-.252.156-.136a4.406 4.406 0 0 1-.951.86c-.179.12-.355.261-.392.313-.047.068-.066.076-.066.03zm1.216-.167c.121-.127.22-.246.219-.266a.092.092 0 0 1 .029-.063c.017-.016.018-.004 0 .025-.051.09.028.058.16-.064.068-.064.113-.095.098-.068a4.537 4.537 0 0 1-.377.357c-.299.264-.318.275-.13.079zm8.034.096c.023-.025.223-.055.444-.068.285-.016.36-.012.254.016-.248.065-.746.102-.698.051zm.211-.265c.07-.021.241-.047.381-.059l.255-.02-.276.06c-.151.033-.322.059-.38.058-.1-.002-.098-.004.02-.04zm.106-.237c.105-.033.286-.069.403-.079.206-.017.204-.016-.085.062-.358.097-.607.11-.318.017zm-4.48-.226c0-.059.01-.082.021-.053a.163.163 0 0 1 0 .105c-.012.03-.021.005-.021-.052zm4.523-.021a3.95 3.95 0 0 1 .423-.084l.19-.023-.159.062a1.89 1.89 0 0 1-.423.083l-.264.022zm-3.514-.233c-.085-.028-.09-.035-.021-.036.046 0 .123.016.17.036.107.046-.004.046-.149 0zm3.704-.043c.163-.045.325-.081.36-.08.098.006-.256.11-.468.137-.142.02-.116.005.108-.057zm-.071-.198c.03-.012.067-.01.08.003.015.014-.01.024-.055.022-.049-.002-.059-.012-.025-.025zm.198-.05c.124-.052.395-.097.318-.053a.925.925 0 0 1-.233.062c-.107.017-.138.013-.085-.009zm-5.606-.073c.002-.049.012-.059.026-.025.012.03.01.067-.003.08-.014.015-.024-.01-.023-.055zm-2.67-.144c.05-.07.1-.127.112-.127.011 0-.02.057-.07.127s-.1.127-.111.127c-.012 0 .02-.058.069-.127zm.127.11c0-.008.033-.041.074-.073.067-.053.069-.052.016.016-.055.07-.09.092-.09.058zm8.043-.042c0-.021.152-.068.445-.135.07-.017.114-.016.098 0a.695.695 0 0 1-.211.072c-.101.022-.217.05-.258.062-.04.012-.074.013-.074 0zm-7.916-.127c0-.009.033-.042.074-.074.067-.052.069-.051.016.016-.055.07-.09.093-.09.058zm8.086-.105c.035-.021.13-.05.211-.065.1-.017.121-.014.064.01-.131.056-.35.1-.275.055zm-8.04-.28c.052-.094.113-.19.135-.213.063-.066-.082.202-.16.297-.039.046-.028.008.024-.085zm2.502 0c.001-.07.01-.094.021-.053.011.041.01.098-.001.127-.012.029-.02-.005-.02-.075zm-2.29-.17a1.63 1.63 0 0 1 .135-.212c.063-.066-.082.202-.16.296-.04.047-.028.008.024-.084zm8.103.02a.826.826 0 0 1 .233-.08c.09 0-.123.106-.275.137-.112.022-.107.015.042-.057zm-5.765-.507c.004-.291-.006-.882-.023-1.312l-.03-.783.085.677c.084.68.083 1.285-.004 1.757-.026.14-.033.048-.028-.339zm4.485.436a.238.238 0 0 1 .127.002c.029.012-.005.02-.075.02-.07-.001-.093-.01-.052-.021zm.235-.042c.03-.012.067-.01.08.003.015.015-.01.025-.055.023-.049-.002-.059-.012-.025-.026zm-6.99-.245c.039-.081.078-.14.087-.131.02.02-.11.278-.138.278-.01 0 .012-.066.05-.147zm8.035.089c.07-.032.174-.07.233-.084.085-.021.08-.015-.021.032-.07.032-.175.07-.233.084-.085.02-.081.014.02-.032zm-2.692-.24a5.028 5.028 0 0 1-1.436-.374c-.337-.157-.318-.163.082-.027.703.239 1.101.297 2.014.295.629 0 .944-.02 1.228-.076.475-.093.882-.212 1.092-.32.124-.063.148-.067.106-.016-.122.148-.903.39-1.516.472a8.415 8.415 0 0 1-1.57.046zm-.06-.25c-.116-.015.141-.02.572-.01.43.01.79.026.8.035.03.025-1.144.004-1.372-.025zm-.433-.074a.238.238 0 0 1 .127.002c.029.012-.005.02-.075.02-.07-.001-.093-.01-.052-.021zm3.37-.292c.149-.058.278-.097.287-.088.021.02-.442.199-.508.195-.027-.002.073-.05.221-.107zm-3.878-.173a.238.238 0 0 1 .127.002c.029.011-.005.02-.075.02-.07-.002-.093-.011-.052-.022zm-.273-.042c.03-.012.067-.01.08.003.015.014-.01.024-.055.022-.049-.002-.059-.012-.025-.026zm1.193 0c-.575-.063-1.787-.357-1.725-.42.011-.01.075.001.141.027.224.085.813.208 1.309.273 1.397.183 2.782-.025 3.512-.528.106-.072.192-.114.192-.093 0 .112-.69.462-1.142.579-.592.153-1.66.229-2.287.161zm-1.77-.214c-.1-.101-.105-.117-.038-.13.097-.02.284.101.284.183 0 .1-.12.073-.245-.053zm4.564-.456a.855.855 0 0 1 .212-.057c.035 0-.003.026-.085.057a.855.855 0 0 1-.212.057c-.035 0 .004-.025.085-.057zm-6.087-.233c0-.104.015-.238.033-.296.033-.103.034-.103.036.021.001.07-.014.203-.033.297l-.035.169v-.19zm5.939.085c.07-.018.165-.033.212-.033.066 0 .061.007-.022.033a.818.818 0 0 1-.211.033c-.095 0-.093-.004.02-.033zm.085-.109c.116-.032.23-.057.254-.055.071.006-.291.115-.381.115-.047 0 .01-.027.127-.06zm-6.212-.295c.04-.106.077-.176.084-.156.014.04-.107.348-.136.348-.01 0 .013-.086.052-.192zm2.82-.083c-1.006-.084-1.537-.266-1.368-.468.21-.254 2.02-.443 3.428-.359 1.23.074 1.992.245 2.022.454.017.121-.13.198-.544.283-.758.155-2.29.194-3.537.09zm3.201-.081c.475-.076.673-.13.783-.21.076-.055.074-.061-.047-.124-.255-.132-1.128-.246-2.281-.298l-.423-.02.296.053c.286.05.274.052-.339.038-.349-.008-.816-.02-1.037-.028-.221-.007-.35-.005-.286.003.064.01.117.03.117.045 0 .016.376.034.836.04.46.004.903.026.984.047.098.025-.1.033-.593.024l-.74-.013.529.04a8.1 8.1 0 0 1 .698.078l.17.037-.212.011-.212.012.233.03c.17.022.072.03-.36.032-.847 0-.874.023-.063.051l.698.024-.762.016-.762.016.762.05.762.05-.592.01c-.326.005-.631.027-.678.05-.141.066 2.057.01 2.519-.064zm.582-.264a.163.163 0 0 1 .106 0c.03.011.005.021-.053.021-.058 0-.082-.01-.053-.021zm-.423-.045a.458.458 0 0 1 .17.001c.04.01-.003.02-.096.019-.093 0-.126-.01-.074-.02zm.338-.04a.164.164 0 0 1 .106 0c.03.012.006.021-.053.021-.058 0-.082-.01-.053-.02zm-.274-.044a.238.238 0 0 1 .127.002c.029.012-.005.02-.075.02-.07 0-.093-.01-.052-.021zm-2.222.083a5.43 5.43 0 0 0-.508 0c-.146.008-.037.015.242.015.28 0 .4-.007.266-.015zm-3.67-1.501c-.004-.075.5-2.673 1.287-6.638.243-1.222.738-3.727 1.1-5.567.363-1.839.679-3.415.702-3.501.072-.268.365-.382.526-.204.06.066.07.13.053.307-.044.44-2.965 15.342-3.018 15.395-.033.033-.023-.03.195-1.22.276-1.5 1.806-9.423 2.545-13.168.152-.772.179-1.24.072-1.26-.038-.009-.12.029-.182.083-.109.093-.171.39-1.676 7.925-.86 4.305-1.571 7.848-1.582 7.873-.01.026-.02.014-.022-.025zm.402-.14c.047-.462.289-1.709.327-1.685.062.038.006.438-.157 1.115-.198.825-.194.81-.17.57zm.19.081c.002-.049.012-.059.026-.025.012.03.01.067-.003.081-.014.014-.024-.01-.023-.056zm.124-1.954c0-.023.029-.066.064-.095.035-.03.063-.034.063-.01 0 .023-.029.065-.063.094-.036.03-.064.034-.064.01zm.087-.395c.026-.049.057-.078.07-.065.035.034-.021.153-.072.153-.032 0-.031-.027.002-.088zm2.006-10.268c.011-.073.05-.365.087-.65.037-.284.145-.824.239-1.2.25-.998.27-.952.052.12-.056.28-.15.756-.207 1.058a9.11 9.11 0 0 1-.147.678l-.043.127z" transform="translate(-28.39 -137.08)"/></svg>