<svg width="95.678" height="94.756" viewBox="0 0 25.315 25.071" xmlns="http://www.w3.org/2000/svg"><path style="fill:#000;stroke-width:.0423333" d="M48.748 146.499c-.15-.096-.172-.168-.074-.25.05-.041.09-.041.192.001.142.06.307.243.27.301-.04.066-.246.039-.388-.052zm.519-.28c-.122-.03-.233-.14-.233-.23 0-.098.23-.107.446-.017.3.126.123.33-.213.247zm-1.688-.1c-.063-.048-.112-.13-.112-.184 0-.118.14-.305.256-.342.115-.036.11-.243-.01-.405-.074-.099-.085-.143-.05-.2.078-.123.275-.108.57.044.495.255.684.705.4.952-.247.214-.854.293-1.054.136zm1.584-.367c-.24-.122-.214-.18.082-.18.275 0 .424.051.424.145 0 .12-.297.141-.506.035zm1.932-.332c-.13-.07-.147-.238-.027-.261.089-.017.354.166.371.256.018.094-.175.097-.344.005zm-5.22-.055c-.197-.09-.253-.185-.161-.277.075-.075.237-.028.388.114.112.104.122.182.029.218-.082.031-.05.038-.255-.055zm3.088-.073c-.249-.122-.231-.27.032-.27.233 0 .462.102.462.205 0 .146-.261.18-.494.065zm2.59-.131c-.124-.03-.19-.096-.19-.186 0-.063.03-.08.145-.08.193 0 .362.08.362.172 0 .109-.116.143-.317.094zm-1.503-.067c-.195-.098-.132-.395.108-.504.127-.058.13-.12.011-.325-.168-.293.004-.387.389-.213.458.207.668.597.463.858-.155.197-.73.306-.971.184zm-5.26-.065c-.153-.037-.286-.156-.286-.257 0-.103.187-.329.303-.366.072-.023.082-.05.06-.158a.5.5 0 0 0-.088-.2c-.094-.103-.08-.285.022-.317.125-.04.473.089.689.254.336.257.425.615.203.822-.18.168-.647.283-.902.222zm1.395-.05c-.205-.162-.113-.28.177-.227.23.041.308.094.293.199-.02.135-.312.152-.47.028zm5.307-.224c-.198-.069-.21-.145-.03-.18.188-.034.407.013.438.096.05.131-.152.173-.408.084zm-5.275-.154a.42.42 0 0 1-.14-.1c-.108-.13.464-.148.618-.02.145.12-.239.217-.478.12zm-3.271-.3c-.161-.098-.177-.265-.028-.286.12-.017.377.165.393.278.011.078-.007.094-.106.094a.614.614 0 0 1-.26-.086zm8.348.026c-.11-.048-.186-.138-.186-.219 0-.05.458-.01.541.049.24.167-.046.304-.355.17zm-3.097-.046c-.159-.069-.211-.164-.138-.252.091-.11.424.076.424.238 0 .093-.093.098-.286.014zm-17.16-.053a20.391 20.391 0 0 1-.01-.608l-.006-.577.172-.064c.275-.102.39.017.255.262-.054.097-.049.108.073.17a.303.303 0 0 1 .167.208c.03.12.018.168-.078.307-.063.091-.176.203-.25.25-.137.084-.313.113-.323.052zm.384-.282c.072-.087.038-.366-.05-.422-.132-.082-.221.018-.236.264-.012.216-.011.218.111.218.069 0 .147-.027.175-.06zm-.064-.627c.142-.202.042-.39-.159-.298-.08.037-.09.07-.078.259.013.196.022.213.093.175a.515.515 0 0 0 .144-.136zm-1.195.534c.012-.207.009-.48-.007-.609l-.03-.233-.108.236c-.06.129-.134.315-.163.412-.029.098-.069.178-.089.178-.05 0-.048-.007.07-.321.134-.356.277-.61.342-.61.055 0 .1.128.104.296l.003.106.06-.112c.082-.151.191-.19.22-.077.022.08.03.077.102-.042.156-.256.196-.167.219.49.015.43-.013.608-.096.608-.027 0-.044-.177-.044-.476-.002-.555-.077-.546-.115.014-.014.206-.046.354-.08.383-.048.04-.059-.017-.062-.328a2.782 2.782 0 0 0-.037-.482l-.032-.105-.055.127c-.03.07-.067.297-.08.504-.018.27-.042.383-.085.398-.049.016-.055-.046-.037-.357zm15.818.259c-.11-.06-.187-.181-.143-.225.03-.03.426-.02.531.014.118.037.195.19.12.237-.09.056-.384.04-.508-.026zm-4.193-.17a.322.322 0 0 1-.14-.145c-.037-.117.084-.328.233-.405.15-.078.163-.19.039-.364-.193-.27-.005-.413.362-.273.557.212.834.729.54 1.007-.22.208-.796.308-1.034.18zm1.521.018c-.04-.023-.074-.09-.074-.146 0-.095.017-.104.188-.104.205 0 .446.153.388.247-.037.06-.4.063-.502.004zm3.875 0c-.263-.077-.27-.32-.015-.502.151-.108.165-.22.045-.372-.101-.13-.106-.194-.018-.267.117-.097.502.058.744.3.17.17.206.232.206.359a.62.62 0 0 1-.046.239c-.096.178-.641.323-.916.242zm1.31-.02c-.14-.098-.125-.23.026-.23.258 0 .48.14.407.258-.039.062-.331.044-.433-.028zm-5.062-.357a.66.66 0 0 1-.206-.114c-.084-.076-.082-.077.1-.099.313-.037.624.065.52.17-.064.063-.279.085-.414.043zm5.056-.012c-.057-.028-.11-.076-.12-.105-.028-.084.514-.072.585.014.046.055.045.073-.006.105-.087.055-.34.048-.46-.014zm-3.21-.369c-.153-.093-.168-.134-.074-.212.08-.066.29.011.38.14.12.17-.071.215-.306.072zm3.037-.055c-.059-.03-.106-.09-.106-.137 0-.073.028-.083.227-.077.243.007.375.087.33.202-.03.082-.298.09-.45.012zm-5.11-.033c-.138-.042-.28-.194-.24-.258.031-.052.419-.043.541.013.115.052.175.157.12.212-.058.058-.278.076-.42.033zm-4.604-.262c-.14-.198-.204-.545-.209-1.134l-.004-.573-.27.074c-.892.248-2.376.183-3.191-.138a2.941 2.941 0 0 0-.218-.08c-.007 0-.027.147-.043.327-.078.863-.328 1.366-.679 1.366-.505 0-1.101-.972-1.61-2.625l-.177-.572-.244-.137a3.831 3.831 0 0 1-.399-.26 18.832 18.832 0 0 0-.726-.503c-1.627-1.09-2.41-2.11-2.204-2.876.087-.324.294-.501.885-.758l.321-.14-.012-.355c-.02-.593.119-.798.562-.826.281-.018.458.041.649.216.092.084.098.084.261.01.28-.125.37-.256.442-.644.078-.417.156-.548.36-.605.315-.087.428-.051.718.227l.183.175.076-.093c.05-.061.083-.196.1-.408.025-.343.065-.45.236-.636.19-.205.505-.315.695-.243.092.035.103.017.227-.38.071-.23.11-.406.088-.392a9.948 9.948 0 0 0-.307.226c-.328.249-.61.365-.73.3-.124-.066-.151-.235-.066-.419.104-.224.611-.713 1.017-.981l.346-.229-.096-.114c-.142-.169-.41-1.013-.437-1.378-.043-.562.12-1.074.435-1.37.185-.175.185-.176-.087.356l-.211.415.004.471c.006.562.145 1.072.354 1.296a.772.772 0 0 1 .123.153c-.004.093.08.067.429-.133.44-.251 1.434-.7 1.968-.887.187-.065.363-.148.392-.184.029-.035.053-.043.053-.017 0 .03.113.01.307-.056l.307-.103-.014-.36a2.154 2.154 0 0 0-.03-.36c-.007 0-.068.023-.134.05a1.004 1.004 0 0 1-.182.056 3.472 3.472 0 0 0-.206.04c-.136.032-.141.04-.117.187.014.085.026.19.026.232 0 .053.024.07.075.056.04-.012.16-.033.264-.048.273-.038.145.037-.29.171-.194.06-.404.13-.465.155-.062.025-.141.052-.176.06-.057.011-.59.227-1.027.414-.279.12-.17.04.158-.116l.316-.15-.088-.204a1.557 1.557 0 0 0-.12-.239c-.019-.019-.15.024-.293.097-.237.12-.256.139-.214.218.026.048.038.097.026.108-.011.012-.034-.02-.05-.07-.021-.069-.052-.087-.12-.07-.084.021-.085.019-.016-.033.07-.053.07-.068-.02-.304a1.813 1.813 0 0 0-.116-.27c-.013-.012-.027-.07-.03-.13a1.89 1.89 0 0 0-.056-.29c-.043-.16-.056-.173-.12-.124-.067.051-.067.05-.003-.029.053-.064.064-.141.048-.327-.021-.24-.04-.274-.12-.212-.022.018-.01.003.027-.032.06-.058.146-.38.101-.38a.791.791 0 0 0-.126.163c-.132.2-.168.56-.106 1.073.065.531.082.612.236 1.09.079.243.137.449.129.457-.03.03-.329-.779-.407-1.105a3.705 3.705 0 0 1-.088-.662c-.007-.39-.068-.217-.074.211-.005.324.066.68.24 1.207l.155.465c.09.278-.21-.377-.339-.742-.365-1.032-.183-2.043.484-2.68l.242-.23-.246-.018c-.233-.017-.45-.12-.487-.229-.027-.08.097-.19.255-.226.176-.04.431.011.54.109.06.053.086.043.214-.078.08-.077.196-.208.258-.291.185-.252.498-.328.498-.122 0 .113-.067.244-.197.384l-.103.11.315-.02c.895-.057 1.41.537 1.622 1.871.04.248.059.564.048.773-.01.194-.005.352.01.352.017 0 .05-.204.075-.455l.045-.455-.016.453c-.013.381-.006.449.045.43.05-.02.061-.14.061-.62 0-.327.013-.582.028-.566.057.056.088.48.058.79a2.327 2.327 0 0 0-.019.332c.011.014 1.124-.25 1.155-.273.03-.024-.413-.904-.578-1.147-.32-.472-.872-.937-1.196-1.008-.276-.06-.039-.32.319-.35.324-.027.623.128 1.043.541.537.529.908 1.196.946 1.702l.013.177.405-.011c.751-.022 1.258.161 1.358.491.047.152-.09.382-.3.505-.232.135-.774.311-.962.311-.076 0-.151.012-.166.027-.014.014.073.114.194.22.122.108.29.267.373.354.131.139.161.152.226.105.068-.05.066-.058-.036-.104-.265-.121-.023-.313.282-.224.336.098.804.35.98.526.352.352.377.958.05 1.196l-.114.083.198.295c.386.575.722 1.345.847 1.937.08.38.078 1.047-.004 1.365-.224.873-.857 1.425-1.873 1.636-.94.195-2.38-.03-3.375-.526a4.993 4.993 0 0 1-1.037-.707l-.233-.212.614.289c.87.41 1.698.746 2.116.859.304.082.466.097 1.038.098.583 0 .718-.012.975-.093.51-.16 1.032-.556 1.269-.962l.1-.172-.08-.233a1.7 1.7 0 0 1-.083-.452 3.33 3.33 0 0 1 .192-.981c.066-.166.065-.189-.022-.482-.19-.634-.619-1.386-1.143-2.002-.222-.26-.3-.32-.51-.398-.356-.13-.497-.335-.38-.554.036-.067.022-.091-.081-.145-.109-.056-.416-.373-.843-.87l-.127-.146-.391.095c-.215.052-.399.088-.408.079-.01-.01.155-.062.366-.117.21-.055.382-.113.382-.13 0-.121-.399-.053-.928.16-.196.079-.363.136-.372.128-.034-.034.705-.32.952-.367.206-.04.255-.064.22-.106-.057-.069-.432.014-.861.191-1.046.433-1.24.508-1.297.507-.034 0 .099-.064.297-.142.198-.078.55-.227.783-.331.233-.105.528-.214.656-.242.342-.075.36-.083.309-.134-.055-.054-.241 0-1.05.301-1.17.438-2.547.876-2.784.886-.041.002-.136.091-.212.198-.185.266-.267.361-.177.207.041-.07.1-.164.132-.21.08-.118.07-.152-.03-.115-.049.018-.172.175-.275.348-.257.435-.292.481-.162.21.061-.128.149-.286.195-.352.046-.065.073-.13.06-.143-.045-.045-.208.182-.435.604-.125.231-.226.401-.226.378 0-.023.103-.238.229-.476.222-.422.24-.491.099-.381-.102.079-.555.95-.778 1.496-.108.263-.228.507-.267.543-.04.035-.197.103-.351.15-.388.12-.52.275-.561.654-.023.209-.058.313-.137.407-.127.15-.252.16-.522.037a1.547 1.547 0 0 0-.38-.11c-.26-.03-.355.077-.421.47-.058.34-.116.466-.292.633-.162.154-.345.167-.621.042-.419-.19-.657-.167-.84.08-.069.092-.084.174-.08.414l.005.299-.431.203c-.528.247-.69.379-.752.606-.103.384.15.876.76 1.473.701.688 2.49 2.202 2.602 2.202.01 0 .01-.043 0-.096-.011-.052.093.21.23.582.53 1.433.869 2.087 1.258 2.43.36.316.608.027.777-.908.124-.682.172-.853.22-.777.021.033.039.11.04.172 0 .15.129.192.825.27.969.108 1.829.061 2.61-.143.171-.044.392-.094.491-.11.158-.027.18-.021.18.048 0 .044-.057.113-.127.155-.122.072-.127.086-.127.38.001.652.117 1.28.23 1.243.133-.044.47-.958.805-2.188.214-.784.352-1.23.358-1.158.007.085-.2 1.46-.27 1.793-.147.698-.435 1.465-.658 1.749-.115.145-.305.154-.4.018zm3.983-11.954c.053-.127.055-.161.009-.19-.042-.026-.034-.037.028-.041.058-.004.044-.016-.042-.038l-.127-.033.116-.005c.11-.005.117-.017.117-.192 0-.146-.03-.227-.14-.37-.18-.237-.672-.543-.873-.543-.114 0-.136.01-.096.05.086.087.057.15-.108.235-.43.223.008.613.698.622.146.002.265.017.265.035 0 .017-.02.031-.045.031-.025 0-.034.017-.022.038.013.02 0 .037-.029.036-.146-.005-.248.015-.236.047.018.045.384.472.405.472.009 0 .045-.07.08-.154zm-.08-.424a.163.163 0 0 1 .107 0c.029.011.005.021-.053.021-.058 0-.082-.01-.053-.021zm-6.113-1.204a26.046 26.046 0 0 0 2.225-.735c.389-.147.868-.308 1.065-.359.449-.116 1.328-.161 1.771-.091.172.027.321.04.33.03.046-.044-.424-.162-.732-.183-.638-.044-1.624.182-3.34.766-.877.299-2.03.737-1.954.743.02 0 .305-.075.635-.17zm.44-.86c.18-.08.412-.17.512-.202l.183-.056-.027-.19a.703.703 0 0 0-.058-.222c-.016-.017-.14 0-.275.038-.222.064-.242.08-.22.17.058.24.06.316.003.145a1.4 1.4 0 0 0-.078-.202c-.03-.03-.547.177-.567.228-.024.063.114.435.161.435.02 0 .184-.065.365-.145zm-.672-.347c.008-.006-.017-.112-.056-.236l-.088-.28c-.012-.038-.088-.017-.272.076-.14.07-.255.142-.254.16 0 .03.107.4.145.504.013.034.1.007.265-.08a7.7 7.7 0 0 0 .26-.144zm.403-.186c.154-.07.28-.134.28-.14 0-.029-.136-.475-.153-.504-.017-.028-.505.159-.578.221-.038.032.094.55.14.55.016 0 .156-.057.31-.127zm3.615-.126c.07-.001.066-.108-.013-.374-.058-.198-.086-.23-.273-.326a1.81 1.81 0 0 0-.232-.105c-.013 0 .032.11.099.243.067.134.136.326.153.427.027.162.042.18.122.16a.76.76 0 0 1 .144-.025zm-4.45-.173c.245-.141.248-.147.182-.4-.078-.297-.066-.29-.262-.17l-.236.144c-.047.028-.048.08-.006.295.029.143.061.26.073.26.011 0 .123-.058.248-.13zm1.468.062c.115-.039.198-.093.198-.13 0-.14-.1-.446-.154-.467-.031-.012-.152.013-.269.055-.153.055-.207.095-.193.142.01.036.042.156.069.267.027.11.072.2.1.2.028 0 .14-.03.25-.067zm.78-.17c.122-.016.222-.05.22-.075-.002-.096-.112-.62-.134-.642-.012-.012-.074.001-.137.03-.102.046-.113.07-.09.192.065.362.062.443-.007.196a1.59 1.59 0 0 0-.099-.286c-.031-.03-.358.08-.35.119.002.016.027.144.055.286l.05.257.135-.025a8.03 8.03 0 0 1 .357-.052zm-1.597-.229c.14-.07.253-.15.253-.176 0-.08-.14-.5-.166-.5-.014.001-.139.064-.278.14-.216.116-.253.152-.242.241.022.196.096.423.139.423.023 0 .155-.057.294-.128zm-.662-.358c.094-.081.096-.098.052-.328l-.047-.243-.201.131-.201.132v.242c0 .133.012.254.027.269.03.03.22-.074.37-.203zm4.237-.017c-.098-.18-.146-.22-.36-.306-.137-.054-.24-.107-.23-.117.01-.01.096.016.19.058.093.042.178.068.188.058.01-.01-.056-.106-.148-.213-.14-.165-.208-.206-.443-.27-.152-.04-.284-.067-.293-.058-.01.01.088.108.215.218.128.111.222.202.208.202-.013 0 .045.09.13.2.104.138.227.237.39.315.132.062.245.114.252.116a1.21 1.21 0 0 0-.1-.203zm-2.934.09c.233-.083.234-.09.08-.45l-.083-.192-.213.088c-.118.05-.214.109-.214.133 0 .1.145.495.182.495.021 0 .133-.033.248-.074zm.64-.218c.018-.017-.01-.15-.062-.293-.099-.275-.137-.299-.334-.207l-.109.051.082.269.082.268.154-.028a.554.554 0 0 0 .187-.06zm-1.266-.259c.045-.042-.1-.465-.158-.465-.023 0-.126.05-.23.111l-.189.11.028.234c.015.129.037.25.049.269.019.03.406-.17.5-.259zm1.594.213c.077 0 .077-.006.002-.223-.11-.319-.315-.633-.497-.764-.087-.061-.165-.104-.174-.096-.008.01.035.115.096.236.098.194.124.216.215.194.056-.015.103-.01.103.012 0 .02-.036.047-.08.059-.075.02-.074.032.02.312.055.16.1.298.101.306 0 .008.031.004.068-.01a.49.49 0 0 1 .146-.026zm-2.386-.37c.121-.106.132-.133.106-.279l-.028-.161-.18.154c-.156.133-.18.177-.18.322 0 .189.03.185.282-.036zm1.178-.02c.106-.052.187-.105.18-.118l-.095-.224c-.047-.11-.104-.2-.127-.199a1.09 1.09 0 0 0-.218.081l-.176.08.091.236c.05.13.105.236.122.237.017 0 .117-.042.223-.093zm-.756-.277c.198-.125.21-.151.13-.295l-.052-.093-.166.093c-.092.052-.163.108-.159.125.005.018.008.09.008.16s.013.126.028.126a1.2 1.2 0 0 0 .211-.116zm1.406.052c.008-.008-.034-.123-.095-.255-.083-.181-.126-.234-.177-.214a1.808 1.808 0 0 1-.17.051c-.056.014-.102.034-.102.044 0 .01.049.114.109.232.107.212.11.214.264.186a.8.8 0 0 0 .171-.044zm1.78-.172c-.162-.162-.29-.204-.779-.252l-.296-.03.296.156c.252.132.632.252.867.272.036.003-.002-.06-.088-.145zm-2.503-.254c.007-.003-.001-.039-.017-.08-.03-.08-.177-.074-.408.016-.114.044-.116.049-.05.15l.068.103.198-.092.21-.097zm2.037-.104c-.268-.176-.584-.214-.711-.087-.121.121-.077.179.115.15.086-.012.27-.005.41.016.39.06.395.057.186-.08zm-1.71.002c.066-.028.043-.037-.097-.04-.112-.002-.173.014-.157.04.031.05.137.05.254 0zm-1.238-.101c.074-.057.106-.136.038-.094-.02.013-.11-.015-.2-.06-.188-.097-.493-.11-.564-.026-.133.161.533.326.726.18zm.534-.47c.16-.174.216-.276.148-.276-.123 0-.511.379-.45.44.058.058.137.016.302-.164zm7.923 17.915c-.188-.095-.165-.359.042-.481.142-.085.173-.262.06-.355-.036-.03-.06-.103-.052-.164.02-.166.246-.169.529-.005.417.241.568.596.352.827-.182.193-.704.293-.931.178zm1.34-.023c-.117-.128-.086-.176.115-.176.2 0 .401.118.348.205-.05.08-.384.06-.464-.029zm.152-.303a.608.608 0 0 1-.206-.088c-.061-.051-.06-.06.01-.087.135-.053.419-.04.505.024.145.107-.063.21-.31.151zm-6.986-.317c0-.058.014-.096.031-.086.017.01.083-.157.147-.371.15-.507.143-.488.147-.39.006.21-.22.952-.292.952-.018 0-.033-.047-.033-.105zm-5.086-.138a2.768 2.768 0 0 1-.301-.455c-.071-.14-.105-.218-.075-.174l.214.317c.087.13.209.3.27.375.17.213.085.163-.108-.063zm.132-.055c-.106-.185-.187-.38-.157-.38.027 0 .284.514.266.531-.007.008-.057-.06-.109-.151zm11.746.087c-.15-.046-.24-.12-.24-.196 0-.043.063-.059.232-.059.18 0 .253.02.322.09.049.048.073.104.053.123-.06.06-.242.08-.367.041zm-11.644-.108a.356.356 0 0 1-.024-.118c.002-.028.021-.004.043.052.023.055.033.109.024.118-.01.009-.029-.014-.043-.052zm4.89-.104c0-.059.01-.082.022-.053a.163.163 0 0 1 0 .106c-.012.029-.021.005-.021-.053zm-4.824-.148c.001-.07.01-.094.021-.053.011.042.01.099-.001.127-.012.03-.02-.005-.02-.074zm-.132.035a.694.694 0 0 0-.027-.127c-.023-.074-.022-.074.024-.002.027.041.04.099.028.127-.015.037-.022.037-.025.002zm5-.205c.002-.07.011-.093.022-.052.01.041.01.098-.002.127-.011.029-.02-.005-.02-.075zm-5.696-.382c-.041-.107-.029-.134.021-.049.025.043.036.087.025.098-.01.01-.032-.012-.046-.05zm9.088-.825c-.77-.112-1.414-.456-1.742-.929a2.37 2.37 0 0 1-.189-.308c-.02-.055-.056-.067-.147-.049-.067.013-.33-.008-.584-.046-.254-.04-.53-.081-.612-.093-.127-.019-.157-.007-.206.084-.054.102-.071.106-.422.098-.282-.006-.414-.03-.577-.107-.182-.085-.271-.098-.635-.092-.366.006-.449-.006-.612-.09-.226-.116-.248-.168-.127-.29.08-.079.128-.09.342-.074l.25.018-.304-.16c-.371-.195-.513-.329-.779-.735-.184-.281-.229-.323-.412-.384-.113-.038-.196-.078-.184-.09.012-.01.09.003.175.03.085.028.162.043.171.034.01-.01 0-.083-.023-.162-.023-.08-.025-.16-.005-.18.04-.04.122.084.366.555.252.486.477.706.942.922.218.101.485.262.594.359.196.172.468.335.56.335.057 0-.096-.267-.252-.439l-.11-.121.17.085c.194.098.337.242.379.38.03.096.204.136.253.058.024-.04-.17-.333-.352-.527-.094-.1-.098-.114-.026-.088.118.042.226.139.361.324.092.125.122.144.143.09.038-.1-.045-.365-.15-.478-.05-.054-.255-.173-.455-.265-.2-.092-.438-.237-.527-.323-.149-.143-.463-.7-.637-1.13l-.069-.17.086.106c.048.059.212.293.365.522.378.566.486.68.836.884.353.205.593.42.665.593.04.097.07.12.14.1.049-.012.302-.023.563-.024h.474l.023-.138.13-.857c.15-.983.18-1.101.185-.72.007.596-.086 1.419-.193 1.696-.015.04.005.061.061.061.046 0 .106.026.132.058.081.098-.307.12-.846.049-.632-.084-.623-.084-.6.03.017.095.027.096.66.096.353 0 .725.013.827.03.197.032.316.104.278.167-.047.075.2.419.42.585.501.378 1.011.531 1.764.528.803-.003 1.391-.196 1.799-.593.46-.447.471-.86.036-1.33-.298-.322-.84-.612-1.073-.576-.105.016-.124.012-.064-.014.08-.034.079-.038-.022-.064a.482.482 0 0 0-.269.04c-.09.037-.171.06-.181.05-.01-.011.044-.044.12-.074l.14-.055-.117-.017c-.108-.015-.581.164-.581.22 0 .014.08.022.18.02.556-.016 1.387.291 1.674.618.21.238.245.397.14.629-.14.314-.48.542-1.026.692-.385.106-1.43.104-1.815-.004-.61-.17-1.004-.448-1.102-.776-.108-.363.103-.738.526-.937.236-.111.719-.233.886-.224a.365.365 0 0 0 .169-.024.324.324 0 0 1 .163-.02c.062.008.222-.044.36-.115l.247-.127-.55.013c-.466.01-.603.03-.89.127-.667.227-1.029.553-1.118 1.006l-.036.183-.004-.17c-.01-.352.359-.855.785-1.072.881-.45 2.103-.427 3.062.057.392.198.65.44.809.764.118.24.131.302.112.52-.027.294-.106.458-.343.717-.532.58-1.56.874-2.554.729zm.848-.962c.485-.252.386-.289-.205-.077-.23.082-.425.142-.433.133-.026-.026.72-.286.888-.31.095-.013.16-.005.16.021 0 .049-.323.265-.551.37-.147.067-.145.068.211.047.948-.056 1.55-.56 1.194-1l-.078-.096-.984.328c-.54.18-.993.319-1.004.308-.021-.022.946-.37 1.568-.563.242-.076.351-.127.313-.149-.087-.049-.714-.208-.818-.208-.07 0-1.377.413-1.82.575-.047.017-.072.016-.056-.001.016-.018.405-.16.864-.318l.834-.285-.355-.029c-.41-.033-1.142.032-1.43.127-.26.086-.64.316-.64.387 0 .318.591.73 1.252.872.518.11.655.094 1.09-.132zm-1.792-.561a.254.254 0 0 1 .106-.041c.023 0 .013.018-.022.04a.254.254 0 0 1-.105.042c-.024 0-.014-.019.02-.041zm-4.1-.213c-.106-.088-.412-.11-.578-.043-.072.029-.063.038.063.06a4.4 4.4 0 0 0 .508.06l.106.006zm-1.314-.623c-.213-.243-.455-.633-.416-.672.011-.011.082.08.158.204.076.123.222.334.325.468.103.133.178.243.167.243-.011 0-.116-.11-.234-.243zm.135-.064a2.532 2.532 0 0 1-.325-.402c-.097-.188-.056-.174.063.021.054.087.201.268.328.402s.221.244.21.244c-.012 0-.136-.12-.276-.265zm-4.303-.275c-.033-.351-.028-1.003.01-1.175.016-.07.029.23.03.667.001.436-.001.794-.006.794-.004 0-.02-.129-.034-.286zm.19.159c0-.059.01-.082.022-.053a.163.163 0 0 1 0 .106c-.012.029-.022.005-.022-.053zm-1.7-.285c-.664-.523-1.172-1.12-1.25-1.472-.022-.097.01-.064.134.135.237.379.693.896 1.124 1.27.337.294.397.353.363.351a9.08 9.08 0 0 1-.37-.284zm1.346.02a2.183 2.183 0 0 1 .01-.434c.025-.176.031-.139.036.222.003.24-.001.434-.01.434a.86.86 0 0 1-.036-.222zm10.465.162c0-.012.039-.042.085-.067.047-.025.085-.035.085-.024 0 .012-.038.042-.085.067-.046.025-.085.035-.085.024zm-6.554-.132c-.071-.156-.058-.189.019-.047.036.066.057.128.048.137-.01.01-.04-.03-.067-.09zm-3.43-.421c-.014-1.23.257-2.705.652-3.543.13-.274.117-.203-.084.45-.277.904-.446 1.894-.527 3.093l-.035.508zm10.426.425c.046-.036.101-.066.124-.066.054 0 .03.02-.1.082-.1.047-.101.046-.024-.016zM31.871 137c.01-.373.035-.754.058-.847.037-.149.039-.138.017.085-.014.14-.04.52-.059.847l-.033.592zm7.607-.262a.238.238 0 0 1 .127.002c.029.011-.005.02-.075.02-.07-.002-.093-.011-.052-.022zm-.596-.12c-.292-.1-.813-.341-.813-.377 0-.009.19.067.42.169.231.101.521.212.646.246.124.033.188.062.141.064a1.938 1.938 0 0 1-.394-.103zm.808.035a.238.238 0 0 1 .127.002c.028.012-.005.02-.075.02-.07-.001-.094-.01-.052-.022zm-10.331-.172c-.127-.162-.301-.43-.255-.391.045.037.415.55.396.55a.911.911 0 0 1-.141-.159zm10.055.131a.164.164 0 0 1 .105 0c.03.012.006.021-.053.021-.058 0-.082-.01-.052-.02zm-.512-.122c-.332-.116-.846-.366-1.002-.487-.058-.046.083.015.313.135.23.12.583.272.783.338.2.065.327.118.28.117-.047 0-.215-.047-.374-.103zm.788-.007a.238.238 0 0 1 .127.002c.028.012-.005.02-.075.02-.07-.001-.094-.01-.052-.021zm-.626-.095a3.076 3.076 0 0 1-.804-.306c-.24-.12-.91-.576-.91-.618 0-.01.043.009.095.043.905.593 1.262.762 1.894.898.154.033.22.059.149.059-.07 0-.26-.034-.424-.075zm-9.717-.237c-.05-.083-.082-.161-.07-.174.013-.013.063.055.112.15.109.214.084.227-.042.024zm11.06-.203c-.223-.124-.423-.575-.462-1.046-.06-.707.355-1.191.741-.866.182.153.27.408.294.856.028.496-.09.927-.285 1.042-.141.083-.161.084-.287.014zm.487-.902c-.023-.39-.17-.778-.326-.861-.051-.028-.1-.042-.11-.032-.01.01.03.129.09.263.117.267.27.856.276 1.06l.003.127.043-.106c.024-.06.035-.26.024-.451zm-8.914.832c0-.059.01-.082.022-.053a.163.163 0 0 1 0 .106c-.012.029-.022.005-.022-.053zm-1.837-.956c-.018-.018-.032-.11-.032-.205 0-.347.246-.626.472-.536.093.038.09.04-.038.043-.24.005-.301.112-.36.631-.006.055-.025.085-.042.067zm11.906-.586c0-.255-.008-.278-.132-.37a4.214 4.214 0 0 1-.28-.238c-.15-.14-.15-.14-.118-.403.061-.494.044-.534-.296-.692l-.211-.099h.179c.476-.001.667.227.543.651-.102.351-.092.385.165.575.128.094.252.208.276.253.056.105.056.407 0 .513-.082.151-.126.084-.126-.19zm-4.657-.006c0-.183-.22-.573-.479-.85-.39-.419-.689-.516-1.153-.377-.113.034-.214.054-.224.044-.01-.01.05-.086.132-.168.17-.17.356-.195.661-.088.53.187.887.622 1.218 1.487.016.04-.006.06-.066.06-.067 0-.089-.026-.089-.108zm-5.43-.553c-.05-.05-.035-.22.034-.386.076-.18.127-.222.274-.22.101.003.102.005.015.04a.414.414 0 0 0-.23.337c-.004.141-.055.267-.093.23zm3.293-.231c-.27-.368-.443-.74-.468-1.013-.022-.23-.021-.231.043-.106.035.07.123.294.195.497.072.203.205.484.296.624.09.14.155.255.144.255-.011 0-.106-.116-.21-.257zm-.44-.458c-.124-.29-.109-.332.019-.05.057.125.097.235.088.244-.009.009-.057-.079-.106-.194zm-1.411-.183a.704.704 0 0 1 .139-.548l.086-.099-.069.141a1.571 1.571 0 0 0-.099.402c-.029.248-.031.254-.057.104zm5.394-1.44c.018-.216.052-.436.075-.488.049-.111.23-.193.345-.156.188.06.016.577-.292.877l-.162.158zm1.092-.09c0-.367.06-.571.185-.618.315-.12.316.377.002.79-.059.077-.125.14-.147.14-.022 0-.04-.14-.04-.312zm-2.075-.386c0-.08.119-.234.262-.34a1.86 1.86 0 0 0 .34-.372c.193-.285.34-.377.44-.276.091.09.04.329-.118.546a.902.902 0 0 1-.387.292c-.242.11-.537.192-.537.15zm.572-.324c.173-.152.294-.314.336-.45.06-.192-.092-.094-.313.203-.122.164-.268.328-.324.365-.055.037-.101.084-.101.105 0 .056.229-.07.402-.223zm1.885-.552a3.501 3.501 0 0 0-.18-.32c-.07-.088-.19-.062-.344.073-.179.157-.344.175-.3.032.116-.376.332-.624.542-.624.283 0 .493.336.492.788-.001.34-.055.352-.21.05zm-.563-.353c.158-.178.282-.188.44-.036.095.09.113.096.096.031-.042-.158-.17-.28-.295-.28-.09 0-.163.047-.281.18-.088.099-.16.196-.16.217 0 .073.072.033.2-.112zm-4.921-.538c-.134-.298-.234-.605-.23-.707.003-.05.013-.045.04.018l.037.084.005-.084c.004-.079.164.29.229.529.02.078.007.067-.056-.042-.116-.203-.109-.134.018.177.14.344.108.362-.043.025zm-.114.02c-.093-.21-.21-.61-.186-.635.008-.008.08.178.16.411.082.234.14.425.131.425a.912.912 0 0 1-.105-.201zm-.092.009c-.04-.106-.029-.134.021-.048.025.042.036.086.025.097-.01.01-.031-.011-.046-.049zm.315-.317c-.074-.19-.127-.366-.119-.392.009-.025.075.124.148.332.072.208.125.384.118.392-.008.008-.074-.142-.147-.332zm3.723.086a.254.254 0 0 1 .106-.041c.023 0 .013.018-.022.04a.254.254 0 0 1-.105.042c-.024 0-.014-.019.02-.041zm4.097-.27c.271-.286.39-.462.39-.572a1.5 1.5 0 0 0-.172-.262c-.142-.19-.17-.257-.158-.385.012-.135-.002-.165-.114-.23-.8-.462-1.213-1.434-.958-2.255.114-.365.26-.593.555-.866.768-.712 1.99-.869 2.985-.384.925.45 1.39 1.412 1.142 2.365-.264 1.012-1.293 1.692-2.45 1.618a3.298 3.298 0 0 1-.595-.088.928.928 0 0 0-.222-.053.948.948 0 0 0 .078.225c.13.308.089.474-.185.735a4.495 4.495 0 0 1-.41.343c-.18.128-.172.114.114-.19zm2.051-1.29c.373-.104.71-.311.985-.608 1.201-1.292.172-3.122-1.757-3.122-.916 0-1.738.474-2.105 1.215-.145.295-.156.344-.154.683.003.44.102.73.375 1.102.226.306.616.611.8.625.072.005.255.047.407.093.375.115 1.058.12 1.45.012zm-1.529-.434c-.068-.073-.075-.108-.038-.189.054-.119.109-.144.255-.116.143.028.181.13.087.235-.137.15-.213.168-.304.07zm.207-.67c0-.22.12-.283.74-.387.616-.104.995-.343.995-.628 0-.403-.751-.66-1.259-.429-.162.074-.18.097-.18.23 0 .1.032.18.095.241l.096.092-.127-.029c-.192-.043-.276-.169-.276-.415 0-.189.018-.23.16-.371.357-.358 1.109-.305 1.486.104.27.293.284.615.038.895-.187.213-.422.334-.9.462-.233.062-.511.168-.618.236a1.287 1.287 0 0 1-.222.123c-.016 0-.028-.056-.028-.124zm-4.71 1.225a7.265 7.265 0 0 1-.029-.55c.003-.167.008-.178.044-.089.022.057.035.304.029.55l-.012.448zm-.79.229c.002-.05.012-.06.025-.026.013.03.011.067-.003.081-.014.014-.024-.01-.022-.055zm.957-.367a6.512 6.512 0 0 0-.055-.54c-.023-.121-.018-.139.028-.096.038.035.062.212.074.54.01.268.01.487 0 .487-.012 0-.033-.176-.047-.391zm.465-.018c-.118-.405-.125-.577-.012-.306.061.146.17.67.144.696-.007.008-.067-.168-.132-.39zm-.277.283a20.23 20.23 0 0 0-.064-.477c-.029-.203-.038-.37-.021-.37.056 0 .127.452.11.705-.008.136-.02.2-.025.142zm.506-.025c.002-.05.012-.06.025-.026.013.03.011.067-.003.081-.014.014-.024-.01-.022-.055zm-.396-.373c-.088-.425-.09-.53-.005-.301.06.163.132.656.096.656-.01 0-.05-.16-.091-.355z" transform="translate(-27.593 -122.517)"/></svg>