<svg width="131.231" height="106.88" viewBox="0 0 34.722 28.279" xmlns="http://www.w3.org/2000/svg"><path style="fill:#292929;stroke-width:.0423333" d="M19.765 155.98c.02-.046.079-.18.132-.296.174-.382.851-2.466.851-2.621 0-.014-.247-.025-.55-.025h-.55v.103c0 .056.017.242.039.413.022.17.048.757.06 1.305l.02.994-.1-.486c-.174-.847-.248-1.556-.2-1.933.023-.183.035-.34.026-.351-.01-.01-.13.005-.268.033-.259.053-.9.007-1.056-.076-.1-.054-.162-.414-.235-1.378-.189-2.49-.306-5.487-.238-6.086.042-.367.158-.57.397-.693.202-.105.994-.38 1.269-.44.134-.03.243-.07.243-.09 0-.019-.083-.22-.184-.448a9.804 9.804 0 0 1-.296-.752 3.53 3.53 0 0 0-.266-.592 1.426 1.426 0 0 1-.174-.41c-.019-.139-.008-.161.109-.222.17-.087.282-.084.607.017.338.106.393.106.872-.005l.393-.09-.109-.175c-.294-.47-.38-.865-.245-1.126.123-.238.338-.23.673.026.186.142.217.152.42.13.12-.012.39-.064.6-.116l.382-.093-.04-.187c-.03-.145-.02-.284.049-.62.142-.693.126-.864-.124-1.356-.287-.567-.28-.815.03-.982l.15-.08.12.134c.135.152.232.439.3.888.044.3.047.305.135.244a.394.394 0 0 1 .19-.063c.103 0 .103-.002.066-.286a6.25 6.25 0 0 1-.038-.653c0-.307.014-.387.089-.487.128-.172.327-.183.493-.027.27.254.316.644.14 1.194-.032.099-.03.1.066.032.124-.087.455-.09.657-.006.178.075.85.063 1.053-.019.201-.08.518-.129.657-.101.168.034.374.229.405.384a.3.3 0 0 0 .105.173c.075.047.081.038.081-.102 0-.116.034-.186.138-.29a.862.862 0 0 1 .193-.155c.044-.015.037-.062-.029-.216-.073-.17-.106-.202-.238-.227-.152-.028-.275-.114-.275-.193 0-.023.042-.012.094.024a.365.365 0 0 0 .163.066c.122 0 .276.158.33.336.028.095.077.172.11.172.114 0-.11-.425-.284-.54-.088-.059-.16-.122-.16-.142 0-.02.086.024.19.098.132.093.212.19.26.316.088.23.116.251.387.282.193.021.222.015.222-.05 0-.123.215-.514.32-.583.123-.08.257-.043.288.08.039.16.042.65.004.712-.02.032.063-.025.184-.128.121-.102.22-.198.22-.213 0-.015.028-.064.062-.11.062-.08.062-.08.064 0 0 .047-.11.185-.262.325l-.262.243.104.087c.115.095.167.11.167.046 0-.023.064-.113.143-.2.079-.088.185-.226.237-.308l.094-.148-.029.127c-.015.07-.122.225-.237.346-.114.122-.208.24-.208.262 0 .114.127.053.322-.152.198-.21.23-.228.38-.215.152.012.167.025.179.147.015.154-.178.567-.366.785-.112.13-.119.16-.101.422.017.258.028.285.124.309a.587.587 0 0 1 .216.137c.061.062.16.137.218.168l.108.055h-.106c-.062 0-.176-.062-.273-.147-.091-.082-.205-.147-.254-.145-.06.002-.068.01-.024.026.035.013.145.1.243.196.099.094.232.195.297.224l.117.052-.122.003c-.093.003-.17-.047-.327-.208a1.882 1.882 0 0 0-.224-.212c-.084 0-.435.452-.388.499.012.011.522.027 1.134.034.611.007 1.283.034 1.493.059 1.666.2 2.814.105 4.624-.379.346-.092.504-.116.577-.089.13.05.239.323.239.6 0 .117.02.25.044.296a.795.795 0 0 1 .063.223c.01.077.036.186.058.242.039.096.041.093.047-.046.01-.251.208.652.239 1.094l.028.396.208-.608c.115-.333.22-.692.232-.797.015-.124.033-.165.05-.116.02.053.097-.081.261-.446l.234-.522-.108-.009a1.827 1.827 0 0 1-.298-.068 1.458 1.458 0 0 0-.254-.06c-.035-.001-.168-.014-.296-.028-.314-.035-.34-.01-.29.269.023.124.031.236.02.248-.013.012-.036-.08-.052-.204-.023-.17-.039-.205-.063-.143-.05.129-.04.363.022.539.03.087.043.159.026.159-.054 0-.129-.32-.129-.547 0-.18.02-.24.11-.33.106-.106.12-.108.476-.08.202.014.487.05.635.077l.268.049.14-.166.14-.167-.122-.138c-.173-.198-.26-.385-.232-.499.03-.12.273-.212.44-.165.062.018.456.035.876.04.843.007.823.002 1.905.435.59.237.845.279 1.536.253.552-.02.6-.03.982-.186.383-.156.424-.164.847-.16.77.006 1.271.155 1.305.389.019.131-.143.262-.498.404-.165.066-.32.157-.343.201-.024.045-.08.381-.126.748-.163 1.305-.342 2.053-.628 2.63l-.132.265.322.147c.177.08.36.167.407.192.06.032.076.032.056-.001-.016-.026-.004-.047.026-.047s-.078-.079-.24-.174c-.346-.2-.377-.226-.234-.191.088.021.085.015-.02-.035-.213-.103.006-.08.341.035.388.133 1.61.697 1.672.771.167.202.144 6.404-.027 7.167-.02.091-.012.098.096.073.266-.06 1.094-.078 1.28-.027.265.072.142.122-.175.071-.296-.047-1.173.025-1.22.1a1.94 1.94 0 0 0-.08.328c-.028.156-.072.308-.097.337-.027.033-.153.056-.325.058l-.28.003.14.06c.305.134.747.199 1.384.203.654.005 1.023-.044 1.457-.192.568-.195.505-.463-.169-.716-.21-.078-.216-.084-.063-.06.238.039.633.25.687.367.025.054.048.274.052.488.008.441.022.422-.42.571-.137.047-.176.07-.094.057.075-.011.137-.014.137-.005 0 .022-.731.263-.974.32a2.1 2.1 0 0 0-.338.097 2.56 2.56 0 0 1-.36.055c-.23.024-.273.038-.19.063.158.049-.36-.003-.678-.067a2.844 2.844 0 0 1-.437-.125c-.172-.073-.513-.365-.586-.502-.04-.073-.033-.08.045-.06.11.029.11-.003.003-.132-.073-.087-.107-.097-.267-.073l-.184.028-.027.644a11.025 11.025 0 0 1-.181 1.613c-.026.122-.03.12-.206-.156-.21-.327-.605-1.189-.744-1.624-.115-.359-.047-.332-1.003-.395-.89-.058-1.003-.075-1.13-.175-.128-.1-.138-.174-.035-.254.067-.052.069-.051.018.013-.109.14.081.188.945.242.443.028.87.062.949.075.124.022.14.015.116-.048a.755.755 0 0 1-.028-.212v-.139l-.412-.026c-1.448-.093-3.618-.117-6.423-.073-1.63.026-3.244.06-3.588.074l-.626.027v.116c0 .153-.157.912-.208 1.009-.124.231-.273.2-.445-.092-.085-.145-.276-.787-.278-.932 0-.098.11.064.298.44.116.23.22.42.23.42.062 0 .359-.91.31-.952-.04-.034-6.583-.037-8.995-.004l-2.843.039-.048.275c-.106.604-.475 1.57-.826 2.161-.198.333-.434.647-.37.492zm25.267-1.005c-.015-.378-.04-.865-.054-1.08l-.027-.394-.258.028c-.143.015-.273.04-.29.055-.032.03.247 1.147.382 1.529.095.266.227.55.256.55.01 0 .007-.31-.009-.688zm2.98-1.134c.499-.044 1.22-.203 1.44-.317.085-.044.125-.097.125-.164 0-.055.013-.164.028-.242.027-.14.025-.141-.054-.07-.538.474-2.58.496-3.479.037-.248-.127-.265-.118-.256.127.007.198.021.226.168.333.088.064.278.149.423.19.221.062.41.087 1.054.144.035.003.282-.014.55-.038zm-3.271-.407.222-.027v-.464l-.132.026a2.785 2.785 0 0 1-.408.027c-.214 0-.265.012-.231.053.023.029.067.134.096.233.059.198.063.199.453.152zm.976-.3c.008-.076.036-.138.064-.139.03 0 .025-.017-.014-.043-.046-.032-.031-.036.057-.015.147.034.9.047.932.015.013-.012.044-.153.07-.313.036-.233.035-.3-.009-.327-.044-.029-.043-.043.005-.074.043-.028.07-.187.095-.561.038-.558.109-5.89.085-6.333-.013-.237-.024-.265-.106-.27-.072-.003-.075-.008-.017-.024.116-.03.087-.096-.073-.163-.19-.08-.228-.078-.126.005.081.066.081.066-.002.047a1.604 1.604 0 0 1-.17-.051l-.084-.032.084.071c.083.07.083.071-.02.043a5.284 5.284 0 0 1-.52-.236c-.227-.113-.412-.197-.412-.185 0 .012.137.09.304.174.168.085.377.2.465.255a.656.656 0 0 0 .274.101c.063 0 .103.011.09.025-.014.013-.187.026-.385.027-.358.003-.364.001-.946-.274-.322-.153-.63-.29-.684-.307-.054-.016-.089-.039-.077-.05.038-.038.454.116.954.352.309.145.538.227.635.226.102 0 .134-.012.095-.037a.192.192 0 0 0-.132-.017c-.086.023-.344-.1-1.007-.483-.392-.227-.488-.266-.54-.223-.034.028-.062.077-.062.107s-.015.06-.033.069a2.18 2.18 0 0 0-.228.289 3.895 3.895 0 0 1-.861.888c-.516.38-.549.435-.423.735.035.084.063.242.063.351 0 .29.04.204.104-.228.032-.21.088-.44.125-.512.038-.072.247-.284.465-.47.218-.187.47-.435.559-.552.183-.24.227-.272.116-.085-.097.165-.477.559-.792.822-.297.248-.358.378-.403.869-.034.37-.1.53-.278.678-.086.071-.083.026.008-.116.066-.105.058-.102-.096.033-.153.135-.161.15-.084.175.047.016.115.03.15.032.105.007.325-.41.42-.795.048-.195.124-.414.17-.487.045-.072.315-.36.6-.64.515-.506.455-.415-.204.31-.27.299-.361.431-.413.605a1.89 1.89 0 0 0-.068.289 1.163 1.163 0 0 1-.061.236c-.053.151-.053.16.004.084.035-.046.15-.244.256-.438.118-.216.3-.464.469-.635l.275-.281-.22.254a3.645 3.645 0 0 0-.431.689c-.116.24-.307.55-.424.69-.117.141-.206.261-.198.267.008.006.167.065.353.13.62.215 1.112.503 1.56.914.32.292.418.438.434.648.008.096.033.309.057.472.059.404.054.758-.013 1.046-.052.22-.05.248.017.31.126.113.13.22.01.25-.142.037-1.119.107-1.409.102-.21-.003-.065-.021 1.185-.145l.274-.027-.122-.105c-.143-.123-.07-.128-1.315.083-1.727.293-1.946.306-4.869.304a128.583 128.583 0 0 1-5.249-.1c-2.223-.083-2.984-.095-4.974-.075-1.292.013-2.826.046-3.408.073-1.013.047-4.097.03-4.487-.026-.114-.016-.15-.01-.111.017.047.033.043.045-.021.063-.114.033-.509.044-1.096.03-.618-.014-.44-.062.423-.112l.55-.033-.316-.054a5.673 5.673 0 0 1-.92-.252c-.028-.012-.136.064-.24.168-.164.163-.185.174-.148.077a.73.73 0 0 1 .125-.2c.075-.08.077-.1.022-.212-.18-.367-.193-1.365-.022-1.733.101-.217.464-.61.801-.867.132-.1.067-.016-.214.277-.222.231-.445.507-.495.611-.145.302-.201.746-.145 1.143.075.53.117.599.435.709.936.322 2.64.371 7.637.22 1.696-.05 4.706-.031 6.583.043 3.843.152 7.432.163 8.636.026.734-.084 2.218-.3 2.53-.37l.221-.048.01-.343c.013-.553-.013-1.22-.056-1.386-.09-.35-.729-.863-1.58-1.266a7.754 7.754 0 0 0-.635-.271c-.252-.084-.399-.164-.23-.126.061.014.124.006.138-.018.015-.024-.007-.041-.048-.039-.073.004-.532-.11-.964-.241l-.212-.064.106.083c.156.123.058.104-.329-.063a2.155 2.155 0 0 0-.776-.19c-.238-.023-.442-.051-.454-.063-.012-.012.13-.023.314-.026.232-.003.303-.014.23-.038-.061-.02-.077-.036-.038-.038.038-.002.292.064.566.146.273.083.505.142.515.132.03-.03-.214-.19-.435-.289a1.745 1.745 0 0 0-.553-.11c-.194-.012-.352-.038-.352-.057 0-.02-.053-.016-.117.009-.384.146-1.146.126-1.682-.044a8.344 8.344 0 0 0-.91-.178c-.361-.054-.622-.105-.58-.113.068-.014.573.042.936.104.11.018.095.002-.097-.108a3.669 3.669 0 0 1-.463-.331l-.237-.202-.531.005c-.567.005-.771.042-1.573.285-.476.144-1.058.244-.926.16.072-.046.942-.31 1.438-.438.329-.084 1.244-.117 1.448-.052.088.028.091.024.036-.043-.11-.133-.417-.32-.683-.415-.157-.057-.296-.139-.344-.204-.15-.203-.069-.33.626-.973.115-.107.254-.285.31-.397.1-.204.1-.207.05-.844-.058-.73-.141-1.297-.24-1.635a3.678 3.678 0 0 1-.1-.522c-.024-.21-.057-.315-.122-.38-.086-.085-.105-.087-.39-.038-.164.028-.35.089-.413.134-.076.056-.381.135-.918.239-.689.132-.896.155-1.44.16a19.574 19.574 0 0 1-2.265-.116c-.461-.05-1.798-.065-2.529-.03-.1.005-.167.26-.125.472.036.183.052.2.21.249.17.05.412.248.412.337 0 .025-.048.045-.107.045s-.114.024-.122.053l-.063.229c-.04.152-.06.172-.142.153a.48.48 0 0 1-.169-.087c-.067-.058-.083-.054-.178.048-.057.062-.121.112-.143.112-.056 0-.092-.108-.092-.279 0-.1-.019-.144-.063-.144-.099 0-.075-.155.038-.243l.102-.08-.134-.176c-.1-.132-.164-.177-.26-.181-.125-.006-.126-.006-.021-.04l.106-.035-.1-.03c-.06-.02-.08-.043-.05-.06.033-.021.024-.058-.028-.122-.064-.077-.149-.099-.52-.137-.245-.024-.645-.08-.89-.124a7.284 7.284 0 0 0-1.143-.088c-1.08-.013-1.097-.009-.676.191.247.117.689.405.622.405-.018 0-.19-.079-.38-.175-.603-.303-.73-.332-1.446-.336-.563-.003-.669.008-.893.091-.236.088-.529.316-.529.41 0 .084.134.15.371.183l.243.035-.273-.016c-.2-.012-.289-.036-.329-.09-.088-.121-.065-.19.121-.362.187-.172.524-.32.824-.36l.183-.026-.104-.082c-.093-.073-.105-.114-.105-.372 0-.16.049-.514.108-.789.06-.274.102-.54.096-.591-.012-.086-.023-.09-.161-.045-.124.04-.152.073-.17.195-.016.115-.037.053-.097-.297-.138-.796-.162-.888-.263-1.004-.096-.11-.105-.113-.22-.05a.327.327 0 0 0-.157.222c-.035.141-.02.199.161.575.247.514.28.795.178 1.549-.096.722-.097.716.07.686.105-.02.075.007-.128.108-.472.236-.817.647-.699.834.046.072-.004.07 1.515.039.61-.013.694-.006.844.07.204.104.314.248.348.454.041.256-.02.442-.241.73-.296.386-.273.62.046.488.282-.117.718-.78.718-1.09 0-.337-.25-.619-.671-.757-.195-.064-.364-.078-.917-.075-.584.003-.636-.002-.38-.035.484-.063 1.192-.02 1.427.085.444.198.625.429.625.797 0 .251-.103.47-.378.8-.117.14-.213.274-.213.298 0 .024.068.214.153.422.15.366.362 1.024.592 1.83.097.341.13.403.248.477.19.118.521.48.553.606.042.167.006.29-.11.375-.085.064-.253.092-.846.141-1.414.117-2.14.22-3.004.43-.451.109-1.391.444-1.544.55-.117.08-.38.073-.451-.013-.046-.055-.058-.275-.058-1.005 0-.861-.01-.985-.122-1.55-.068-.337-.128-.62-.136-.629-.024-.028-.59.206-.759.314l-.169.109.188-.174c.164-.152.173-.168.068-.128-.066.025-.126.038-.135.03-.009-.01.157-.097.37-.196.211-.098.375-.188.364-.2-.012-.011-.082.01-.157.05-.2.103-.895.366-.915.346-.017-.017.465-.243.842-.394.11-.044.2-.094.2-.112 0-.045 0-.044-.277.09a8.96 8.96 0 0 1-.929.364c-.046.015.04-.042.19-.126.152-.084.247-.144.212-.134-.19.055-.763.293-.783.325-.013.021.11.077.273.126.162.048.307.107.32.13.017.026-.008.027-.071.001a5.387 5.387 0 0 0-.348-.113l-.25-.075-.105.123-.106.123.029 1.25c.049 2.18.15 4.438.24 5.357.047.489.093.91.102.936.013.04.282.092.862.164.077.01.24 0 .36-.022.342-.062 7.151-.18 9.362-.163 3.366.027 5.081.018 8.446-.042 2.591-.046 3.517-.047 4.635-.006 1.61.06 3.224.07 3.615.023.314-.037.334.035.022.082-.191.029-.195.032-.17.159.014.07.026.15.026.178 0 .034.062.042.2.027.191-.022.203-.03.215-.161zm-26.547-.36a86.447 86.447 0 0 1-.114-1.62c-.284-4.38-.358-5.66-.332-5.677.045-.028.064.196.204 2.418.071 1.14.157 2.455.19 2.92.073 1.046.122 2.139.094 2.139-.012 0-.03-.081-.042-.18zm26.62-3.26c.02-2.05.05-3.41.085-3.768l.054-.56-.014.486c-.007.268-.032 1.95-.055 3.74-.023 1.788-.056 3.264-.072 3.28-.016.016-.016-1.415.001-3.179zm-6.182 2.379c-.35-.02-2.064-.056-3.81-.08l-6.689-.095c-4.119-.059-6.068-.067-6.625-.027l-.402.029.423-.066c.555-.086 2.266-.092 6.435-.023 1.746.03 4.632.07 6.413.092 1.782.022 3.715.062 4.297.09 1.48.07 2.695.035 3.553-.104.371-.06.695-.108.72-.106.101.008-.244.086-.844.19-.554.097-.775.112-1.735.123a33.37 33.37 0 0 1-1.736-.023zm-18.066-.11a.164.164 0 0 1 .106 0c.03.011.005.02-.053.02-.058 0-.082-.01-.053-.02zm.318-.044a.35.35 0 0 1 .148 0c.04.01.007.02-.074.02-.082 0-.115-.01-.074-.02zm-1.26-.86c-.226-.02-.146-.028.339-.03.35-.002.806.01 1.016.028.329.027.282.03-.339.03-.396 0-.853-.013-1.016-.028zm23.114.014a2.824 2.824 0 0 1-.402-.043c-.1-.026-.098-.03.042-.057l.149-.03-.138-.006c-.076-.003-.138-.024-.138-.047 0-.024.062-.044.138-.046.115-.002.124-.009.053-.04-.066-.027-.043-.038.106-.045.143-.007.159-.013.063-.026-.464-.06-.14-.128.762-.157.771-.026.776-.006.02.08l-.528.061.614-.012c.656-.013.582.03-.148.085-.379.03-.403.036-.233.063.105.017.353.034.55.038.448.01.371.034-.256.079l-.484.034.546.006c.301.003.54.013.53.022-.03.026-.93.055-1.246.04zm-23.262-.187a7.078 7.078 0 0 1-.508-.054c-.035-.01.527-.018 1.249-.02.722 0 1.274.014 1.228.032-.135.054-1.482.082-1.969.042zm.23-.17c-.831-.073-.783-.102.155-.09.522.005 1.13.024 1.35.04l.403.03-.318.028a10.77 10.77 0 0 1-1.59-.007zm-.124-.207c-.116-.016.35-.03 1.037-.032.687 0 1.201.013 1.143.032-.128.04-1.882.04-2.18 0zm22.352-.078c.085-.038 1.881-.15 1.912-.12.009.01-.18.04-.419.067-.566.067-1.606.103-1.493.052zm-22.437-.085c-.263-.024-.22-.031.381-.06.932-.043 2.003-.033 1.778.016-.217.048-1.771.08-2.159.044zm22.606-.12a.51.51 0 0 1-.21-.059c-.024-.024.153-.04.466-.041.279-.001.783-.019 1.12-.039.338-.02.619-.03.625-.025a3.68 3.68 0 0 1-.423.083c-.445.074-1.275.117-1.578.082zm-22.817-.073c-.453-.053-.427-.055.93-.057.93-.002 1.355.01 1.27.037-.211.066-1.687.08-2.2.02zm.084-.15-.508-.027.72-.01c.396-.004.996-.018 1.333-.03.404-.015.583-.008.524.018-.12.053-1.431.085-2.069.05zm22.726.01c.014-.023.354-.055.757-.071.403-.016.818-.037.922-.046.158-.015.143-.006-.084.045-.33.076-1.634.134-1.595.072zm-23.022-.182c-.117-.016.214-.03.74-.03.605 0 .876.012.742.032-.255.04-1.187.039-1.482-.002zm24.948.014c.03-.012.067-.01.08.003.015.014-.01.024-.055.022-.05-.002-.06-.012-.025-.026zm-25.318-.084a.163.163 0 0 1 .105 0c.03.012.006.021-.053.021-.058 0-.082-.01-.052-.021zm20.351-.1a194.212 194.212 0 0 1-4.339-.079 203.629 203.629 0 0 0-7.09-.177c-2.31-.002-6.16.074-7.134.14-1.134.077-1.606.072-1.748-.022-.063-.04-.115-.095-.115-.119 0-.024.03-.014.067.022a.447.447 0 0 0 .176.094c.114.029.947.002 2.107-.068 1.302-.078 4.121-.147 5.927-.146 1.615.001 7.081.148 7.747.208.357.032 9.333.104 9.407.075.034-.013.077-.064.097-.113.024-.06.037-.067.04-.023a.293.293 0 0 1-.058.148c-.056.076-.12.083-.921.087-.473.002-2.347-.01-4.163-.027zm4.255-.638c-.268-.21-.549-.42-.625-.467-.194-.122-.17-.14.043-.032.465.235 1.132.737 1.132.85 0 .07-.076.021-.55-.35zm-8.894.242c-.01-.01-.435-.028-.944-.042-.51-.014-.939-.038-.953-.053-.033-.036 1.903.022 2.176.066l.212.034-.237.006a1.14 1.14 0 0 1-.254-.01zm2.282-.013c.03-.012.067-.01.081.003.014.014-.011.024-.056.022-.049-.002-.059-.012-.025-.025zm7.099-.146c-.29-.222-.79-.554-1.122-.743-.44-.252-.327-.229.165.034.344.183 1.19.77 1.19.824 0 .043-.077.005-.233-.115zm-14.527.032a29.458 29.458 0 0 1 1.947 0c.762.033.644.037-1.094.037-1.92 0-1.932 0-.853-.037zm7.012-.276c0-.035.335-.014.378.023.01.008-.071.015-.18.015s-.198-.017-.198-.038zm-1.185-.138c-.524-.115-.622-.124-1.185-.106-.526.016-.568.013-.297-.021.494-.063 1.176-.013 1.757.13.658.161.466.159-.275-.003zm.804.01c-.3-.045-.446-.081-.38-.095.058-.013-.01-.017-.149-.01-.18.009-.217.003-.127-.02.237-.06-.502-.103-1.397-.08l-.846.022.698-.054.752-.058c.029-.002.052-.019.052-.037 0-.017-.157-.019-.349-.003-.192.016-.55.027-.794.025l-.444-.005.444-.026.445-.026-.572-.015c-.414-.01-.519-.022-.38-.044.179-.028.173-.03-.106-.038l-.297-.008.19-.157c.472-.393 1.263-1.111 1.285-1.168.013-.035.082-.094.153-.13.121-.063.158-.06.563.038.239.058.605.126.815.152.21.025.421.072.47.104.064.041.136.048.254.023.224-.047 1.463-.088 1.33-.044-.086.027-.063.035.113.039.12.002.232.024.247.048.015.024-.095.229-.245.455s-.345.555-.434.73l-.161.32-.258-.029c-.142-.015-.43-.038-.639-.05-.39-.023-.34-.006.268.096.17.028.303.056.296.062-.06.05-.39.044-.797-.017zm.243-.028c-.014-.014-.05-.016-.081-.003-.034.013-.024.023.025.025.045.002.07-.008.056-.022zm-.274-.045a.164.164 0 0 0-.106 0c-.03.012-.005.021.053.021.058 0 .082-.01.053-.021zm-.169-.127a.246.246 0 0 0-.127-.002c-.041.01-.018.02.052.021.07.001.104-.008.075-.02zm-.297-.042a.163.163 0 0 0-.106 0c-.029.011-.005.02.053.02.058 0 .082-.01.053-.02zm-.253-.043a.246.246 0 0 0-.127-.002c-.041.011-.018.02.052.022.07 0 .103-.008.075-.02zm-.33-.042c-.023-.008.21-.273.52-.588.529-.541.618-.654.518-.654-.045 0-1.27 1.18-1.27 1.223 0 .014.062.028.138.03.075.002.118-.002.095-.01zm-.413-.76c-.014-.014-.05-.015-.08-.003-.035.014-.025.024.025.026.044.002.07-.008.055-.022zm.17-.042c-.014-.014-.05-.016-.081-.003-.034.014-.024.024.025.026.045.002.07-.008.056-.023zm-1.878.992c-.172-.13-.22-.18-.122-.126.11.06.304.216.27.217a.577.577 0 0 1-.148-.091zm.376.063a.35.35 0 0 1 .148 0c.04.01.007.02-.074.02-.082 0-.115-.01-.074-.02zm4.466-.084a.164.164 0 0 1 .106 0c.029.012.005.022-.053.022-.058 0-.082-.01-.053-.022zm-18.595-.31c-.077-.08-.132-.11-.15-.081-.04.065-.278-.524-.333-.827a2.361 2.361 0 0 1-.04-.402c.004-.11.01-.122.022-.045.042.269.15.724.168.707.01-.01-.012-.27-.05-.579-.037-.307-.06-.568-.049-.578.01-.01.054.2.096.469.042.268.084.48.093.47.018-.017-.064-1.272-.097-1.484-.01-.07.01-.032.044.085.035.116.084.469.109.783.08 1.014.107 1.111.093.339-.014-.762-.063-1.208-.167-1.503-.033-.093-.042-.15-.02-.127.084.088.223.649.24.973.011.187.027.65.036 1.03.015.65.021.695.113.793.053.057.078.104.055.104s-.096-.058-.163-.127zm1.185-.15c.299-.138 1.19-.405 1.676-.502.565-.113 1.376-.22 1.923-.255.397-.025.354-.005-.17.079l-.38.06.444-.018c.244-.01.425-.01.402 0-.023.011-.347.06-.72.107-.658.085-1.734.282-2.237.409-.137.034-.257.054-.268.044-.021-.022 1.075-.294 1.65-.409.527-.105.343-.105-.309 0-.56.091-1.253.264-1.775.442-.343.118-.434.134-.236.042zm2.975-.6a.462.462 0 0 0-.17 0c-.052.01-.02.019.074.02.093 0 .136-.009.096-.02zm-1.679.561c.05-.05 1.754-.367 2.17-.404.59-.052.663-.053.577-.003-.035.02-.396.078-.803.13a33.2 33.2 0 0 0-1.324.194c-.624.11-.649.113-.62.083zm16.06-.026c.205-.069.738-.167.883-.162.13.005-.436.13-.819.18-.166.022-.174.02-.063-.018zm-14.548-.026c.03-.012.067-.01.08.003.015.014-.01.024-.055.022-.05-.002-.06-.012-.025-.025zm.24-.058c.174-.052.997-.18 1.019-.157.018.018-1.026.206-1.103.198-.024-.002.014-.02.083-.041zm17.369-.156c-.366-.085-.658-.162-.65-.17.01-.01.341.032.738.092.397.06.899.11 1.115.11.322.002.378.01.309.052-.047.027-.256.054-.466.06-.314.009-.497-.016-1.046-.144zm.432-.157-.846-.185a7.868 7.868 0 0 0-.65-.115c-.421-.046-.234-.066.23-.024.37.033 1.926.355 1.983.41.046.045-.316.002-.717-.086zm-9.63.02c-.28-.019-.823-.025-1.207-.014-.832.023-.864-.045-.046-.1l.533-.035-.402-.027c-.221-.014.228-.023 1-.02l1.401.006.04-.107.041-.106-1.421.004c-.818.002-1.188-.007-.87-.022l.55-.024-.784-.043c-.43-.023-.826-.041-.878-.04-.126.002-.12-.034.03-.206.07-.08.115-.156.1-.17-.015-.016.012-.028.06-.028.097 0 .322-.238.284-.3-.014-.023-.84-.039-1.976-.039-1.073 0-1.943-.008-1.933-.019.01-.01.929-.023 2.041-.028 1.112-.005 1.997-.025 1.967-.044-.038-.024-.025-.035.04-.035.053 0 .096-.017.096-.036 0-.07-.672-.135-1.388-.135-.8 0-.942-.03-1.102-.233-.11-.14-.119-.35-.028-.701.13-.504.188-1.114.189-2 0-.659.013-.878.05-.866.037.012.05.224.048.755-.004.95-.066 1.66-.186 2.127-.108.421-.09.538.1.68.101.075.209.091.804.12.378.02.895.064 1.149.1l.461.066.137-.133.137-.132.883-.06a28.56 28.56 0 0 1 1.47-.06h.586l-.024.229c-.03.292-.153.661-.387 1.157-.133.283-.167.391-.123.391.077 0 .079.069.002.099-.117.044-.947.061-1.444.029zm1.654-1.06c.28-.575.308-.645.222-.559-.068.068-.571 1.11-.548 1.133.03.03.04.013.326-.574zm-1.713.052c-.102-.008-.201 0-.22.02-.02.019.064.025.185.014l.22-.02zm.472-.037a.246.246 0 0 0-.127-.002c-.041.01-.018.02.052.021.07.001.104-.008.075-.02zm.231-.04c-.014-.014-.05-.016-.08-.003-.035.014-.025.024.025.026.044.002.07-.008.055-.023zm-2.737.882a.424.424 0 0 1 .086-.16c.021-.014.016.03-.012.095-.075.175-.13.223-.074.065zm1.32-.126c.343-.007.905-.007 1.249 0 .343.007.062.013-.625.013-.686 0-.967-.006-.624-.013zm-13.403-.192c-.017-.088-.047-.15-.067-.138-.05.032-.076-.189-.078-.676-.002-.502.02-.458.074.149l.039.444-.015-.55c-.018-.662.039-.582.082.116.017.274.043.498.058.498.016 0 .026-.253.023-.561-.005-.462 0-.505.024-.244l.03.318.013-.381c.013-.373.014-.376.046-.148.017.128.034.383.036.568.002.184.017.321.034.305.016-.016.027-.281.025-.589-.004-.423.004-.508.03-.348.02.117.036.33.038.473.003.154.024.267.052.277.033.01.02.079-.038.212-.094.212-.235.325-.292.234-.022-.035-.042-.01-.058.074l-.024.127zm11.069.008a.761.761 0 0 1-.212-.063c-.026-.026.25.006.567.067l.17.033h-.17a2.23 2.23 0 0 1-.355-.037zm17.14-.012c0-.043-.042-.122-.094-.176-.1-.104-.1-.085-.034-.803.03-.331.031-.327.037.198.009.743.085.746.102.004l.013-.583.01.613c.011.718.086.75.101.043l.01-.445.022.508.024.508.034-.508c.046-.685.115-1.045.089-.466-.01.233-.029.548-.04.699-.012.176-.006.245.017.19.02-.046.053-.322.071-.613.023-.358.044-.488.064-.403.029.123.03.122.04-.042.006-.093.019-.131.028-.085.01.047-.009.309-.04.582-.04.345-.043.5-.012.511.029.01.018.072-.028.17-.074.157-.163.192-.286.115-.04-.026-.073-.022-.094.011-.022.034-.033.024-.033-.028zm-28.43-.464a2.54 2.54 0 0 1-.009-.434l.013-.378.02.434c.021.43.018.486-.024.378zm.666-.155c0-.059.01-.082.021-.053a.163.163 0 0 1 0 .106c-.011.029-.02.005-.02-.053zm27.429.017c.002-.05.012-.06.025-.025.013.03.011.067-.003.08-.014.015-.024-.01-.022-.055zm.003-.187c0-.058.01-.082.021-.053a.163.163 0 0 1 0 .106c-.011.03-.02.005-.02-.053zm-26.585-.042c0-.058.01-.082.021-.053a.163.163 0 0 1 0 .106c-.012.029-.021.005-.021-.053zm-.844-.085c0-.081.009-.115.02-.074.01.04.01.108 0 .148-.011.041-.02.007-.02-.074zm8.097-.134a13.2 13.2 0 0 0-.635-.14c-.18-.035-.244-.058-.162-.06.074-.003.379.045.677.105.66.133.937.121 1.28-.054.134-.069.276-.182.331-.264.11-.163.127-.143.033.04a.847.847 0 0 1-.204.229c-.325.248-.732.292-1.32.144zm-1.152-.234a.238.238 0 0 1 .127.002c.028.012-.005.02-.075.02-.07-.001-.094-.01-.052-.021zm-7.67-.164c.001-.05.011-.06.025-.026.012.03.01.067-.004.081-.014.014-.024-.01-.022-.056zm16.263-.047a.238.238 0 0 1 .127.002c.029.011-.005.02-.075.019-.07 0-.093-.01-.052-.021zm-1.79-.085-.761-.13a6.71 6.71 0 0 0-1.334-.11c-.602 0-.642-.004-.36-.038.524-.061 1.555-.009 2.244.115.77.137.923.186.572.183a3.148 3.148 0 0 1-.36-.02zm-4.783-1.062a.752.752 0 0 0-.095-.292c-.09-.159-1.534-1.599-1.768-1.762-.082-.057-.066-.055.07.01.425.204 1.632 1.349 1.79 1.699.093.203.113.4.045.441-.024.016-.042-.025-.042-.096zm-.17-1.248c-.192-.21-.263-.309-.18-.25.114.08.305.293.491.547.098.134-.02.021-.31-.297zm6.903-.623c.59-.724 1.363-1.352 1.825-1.485.224-.064.078.064-.484.424a6.16 6.16 0 0 0-1.045.826c-.343.33-.43.4-.296.235zm-5.163-1.169c.002-.05.012-.06.025-.025.013.03.011.067-.003.08-.014.015-.024-.01-.022-.055zm-1.262-.005a.238.238 0 0 1 .127.002c.028.012-.005.02-.075.02-.07-.001-.093-.01-.052-.021zm1.158-.103c-.035-.176-.001-.21.037-.037.016.073.02.142.01.153-.011.01-.032-.041-.047-.116zm-1.412.06a.238.238 0 0 1 .127.003c.028.011-.005.02-.075.02-.07-.002-.093-.01-.052-.022zm.147-.125a.164.164 0 0 1 .106 0c.03.012.005.021-.053.021-.058 0-.082-.01-.053-.02zm-.275-.043a.35.35 0 0 1 .148 0c.04.01.008.02-.074.02-.081 0-.115-.01-.074-.02zm-.942-.077a.93.93 0 0 0-.339-.068c-.223-.007-.225-.009-.063-.033.129-.02.15-.034.092-.058a.511.511 0 0 0-.162-.032c-.046 0-.071-.019-.057-.042.014-.023.003-.042-.026-.042-.028 0-.042-.01-.03-.022.042-.042.712.267.712.328 0 .041 0 .041-.127-.031zm1.197-.008a.238.238 0 0 1 .127.002c.028.012-.005.02-.075.02-.07-.001-.093-.01-.052-.022zm-.54-.055c-.205-.028-.207-.03-.043-.034.093-.002.245.012.339.031.138.029.146.035.042.033a3.551 3.551 0 0 1-.339-.03zm-1.683-.073c.076-.01.19-.01.254 0s.002.017-.138.017-.192-.008-.116-.017zm1.725-.035-.381-.055.338.022c.371.024.78.09.55.088-.07 0-.298-.025-.507-.055zm-2.126-.093a4.47 4.47 0 0 1 .466 0c.121.01.01.016-.245.016-.257 0-.356-.007-.221-.016zm1.523.002a.238.238 0 0 1 .127.002c.029.012-.005.02-.075.02-.07-.001-.093-.01-.052-.022zm-1.65-.129c.158-.008.406-.008.55 0 .145.008.016.015-.287.015s-.421-.007-.263-.015zm-2.214-.262c0-.022.02-.052.043-.066.023-.015.042.004.042.04 0 .036-.019.065-.042.065-.024 0-.043-.018-.043-.04zm-.164-.24c-.006-.157.072-.398.128-.398.022 0 .02.038-.007.087a1.221 1.221 0 0 0-.081.264c-.032.158-.036.163-.04.047zm.164-.456c0-.01.03-.04.065-.07.054-.044.06-.042.038.016-.023.06-.103.101-.103.054zm-1.872 8.192a8.18 8.18 0 0 1 1.386-.489c.766-.192 2.31-.382 2.967-.367.832.02.903-.208.269-.864a1.716 1.716 0 0 1-.435-.657 3.506 3.506 0 0 1-.177-.529c-.06-.346-.371-1.359-.458-1.49-.083-.124-.105-.133-.264-.112-.131.018-.19.006-.248-.051-.093-.094-.063-.29.067-.428l.09-.096-.09-.27a1.675 1.675 0 0 1-.087-.329c.002-.033.018-.012.035.046.03.1.034.096.08-.064.072-.248.063-.346-.035-.372-.073-.019-.085 0-.09.133-.004.148-.006.15-.031.031-.015-.068-.048-.13-.074-.139-.025-.009-.196.064-.38.16-.472.251-.87.378-1.184.378-.164 0-.484-.057-.85-.152-.632-.163-.791-.17-1.396-.058-.269.05-.332.047-.593-.022-.622-.164-.712-.094-.472.37.167.324.65 1.503.793 1.94.125.384.417 1.906.448 2.345.02.277.009.483-.042.75-.119.624.012.68.771.336zm.137-.472.426-.363c.176-.15.41-.377.521-.505.206-.239.324-.308.232-.137-.104.196-.526.59-.9.839-.211.142-.337.217-.28.166zm1.421-.877c.136-.191.254-.34.263-.331.028.028-.269.461-.392.573-.072.065-.022-.029.13-.242zm2.41.048c-.21-.055-.399-.1-.42-.101-.021 0-.028-.011-.015-.024.012-.013.18.016.371.065.192.05.356.082.365.073.009-.009-.18-.19-.418-.401a15.727 15.727 0 0 1-.687-.65c-.233-.24-.205-.223.317.194.83.664 1.017.856.9.925-.018.01-.204-.026-.413-.081zm-.58-.173c.031-.012.068-.01.082.003.014.014-.011.024-.056.022-.05-.002-.06-.012-.025-.026zm-1.79-1.926a17.036 17.036 0 0 0-.869-.614c-.36-.242-.774-.524-.919-.626a1.705 1.705 0 0 0-.444-.23l-.182-.045.181.017c.1.009.28.067.402.13.463.24 1.452.93 1.762 1.231.177.171.313.311.301.31-.012 0-.116-.077-.233-.173zm20.205 2.786a.568.568 0 0 0 .262-.444 1.65 1.65 0 0 0-.064-.364c-.084-.288-.046-.385.24-.622.96-.796 1.52-1.591 1.792-2.548.058-.206.184-.844.278-1.419.095-.574.205-1.11.244-1.19.06-.124.125-.17.402-.284.38-.155.453-.206.453-.314 0-.178-.536-.302-1.334-.31-.432-.003-.49.007-.817.135-.415.164-.8.21-1.469.176-.435-.022-.523-.043-1.354-.326-.958-.325-1.28-.4-1.661-.386a6.169 6.169 0 0 1-.626-.025c-.337-.03-.389-.025-.443.04-.055.066-.046.104.083.345.08.148.17.27.2.27.078 0 .07.026-.07.23-.094.136-.113.193-.076.23.036.036.03.048-.023.048-.04 0-.107.072-.155.164-.138.272-.484 1.166-.763 1.971-.397 1.15-.501 1.327-1.027 1.747-.308.246-.455.437-.456.593 0 .111.09.166.412.25.343.089.664.275 1.041.604.377.327.78.581 1.15.724.33.128 1.137.167 1.53.075.191-.045.34-.05.571-.024.449.053.544.093.882.377.407.342.576.4.798.277zm-.796-1.17c-.128-.068-.219-.124-.202-.125.04-.003.498.215.498.236 0 .034-.072.008-.296-.111zm-4.095-1.088a.238.238 0 0 1 .127.002c.029.012-.005.02-.075.02-.07-.001-.093-.01-.052-.021zm-.477-.05c-.258-.072.003-.3.465-.404.353-.08.897-.083 1.27-.006l.276.056-.601.005c-.33.003-.702.026-.826.05-.319.065-.626.168-.626.21 0 .02.1.053.222.076.18.032.194.04.074.041-.081 0-.196-.012-.254-.029zm1.982-.584c.03-.012.067-.01.081.003.014.014-.011.024-.056.022-.049-.002-.059-.012-.025-.026zm-.257-.042a.164.164 0 0 1 .106 0c.03.012.005.022-.053.022-.058 0-.082-.01-.053-.022zm-.211-.042a.163.163 0 0 1 .105 0c.03.012.006.021-.053.021-.058 0-.082-.01-.052-.02zm2.458-.128c.03-.012.067-.01.08.003.015.014-.01.024-.055.022-.05-.002-.06-.012-.025-.025zm.515-.126c.307-.08.543-.108.995-.12l.593-.017-.619.057c-.34.032-.766.088-.946.125-.476.098-.488.075-.023-.046zm.17-.58c0-.03.616-.236.952-.319.372-.092.997-.186 1.028-.155.023.023-.075.046-.456.11-.317.053-1.192.267-1.368.334-.128.049-.156.054-.156.03zm-1.812-1.953c0-.07.01-.093.02-.052.012.041.01.098 0 .127-.012.029-.021-.005-.02-.075zm.164.039c.002-.05.012-.06.026-.026.012.03.01.067-.004.081-.014.014-.024-.01-.022-.055zm-.208-.272c0-.058.01-.082.021-.053a.163.163 0 0 1 0 .106c-.012.03-.021.005-.021-.053zm-.101-.329c-.093-.257-.064-.285.032-.032.041.106.066.202.056.211-.01.01-.05-.07-.088-.179zm4.581-.836c.36-.12 1.228-.164 1.228-.063 0 .053-.203.078-.827.103-.566.022-.583.02-.4-.04zm-24.903 4.696c-.014-.015-.05-.016-.081-.003-.034.013-.024.023.025.025.045.002.07-.008.056-.022zm25.538-.525a.254.254 0 0 0-.105-.041c-.024 0-.014.018.02.04a.254.254 0 0 0 .107.042c.023 0 .013-.019-.022-.041zm-7.8-1.301c-.01-.065-.019-.022-.02.094 0 .117.008.17.019.117a.756.756 0 0 0 0-.211zm-13.154-.445c.116-.192.114-.548-.004-.715a.673.673 0 0 0-.244-.19c-.16-.067-.263-.067-1.213.008-.75.059-1.017.049-1.118-.042-.174-.158-.088-.414.238-.703l.203-.18-.149.026a7.625 7.625 0 0 1-.455.054c-.168.015-.307.038-.307.05 0 .013.062.078.138.145.102.09.112.11.04.074a2.18 2.18 0 0 1-.327-.254c-.306-.277-.468-.36-.595-.302-.212.097-.18.5.085 1.072.15.322.152.325.357.369.113.024.366.103.561.175.227.085.471.14.676.156l.32.024.527-.265c.44-.222.496-.261.347-.239-.099.015-.409.046-.69.07-.28.022-.59.052-.688.065-.123.017-.16.012-.116-.016.074-.048.552-.119 1.038-.154.483-.036.66-.067.632-.111-.013-.022.075-.035.201-.031.214.007.216.008.044.023-.1.01-.17.034-.158.054.013.021.117.027.23.014.183-.022.212-.014.257.07.038.07.039.14.004.278-.057.227-.058.362-.005.503.053.14.07.137.171-.029zm13.067-.337c-.013-.033-.024-.023-.026.026-.001.045.009.07.023.056.014-.014.015-.05.003-.081zm-8.76-.12.109-.085.08.086c.043.047.107.085.14.085.06 0 .073-.04.08-.252.003-.073.034-.11.106-.128.057-.013.11-.047.12-.074.017-.052-.28-.223-.388-.223-.042 0-.094-.103-.155-.307-.154-.52-.268-.68-.7-.988-.229-.163-.577-.574-.733-.864a2.546 2.546 0 0 0-.274-.402l-.149-.17-.006.127-.006.127-.036-.127a4.164 4.164 0 0 1-.06-.24.692.692 0 0 0-.132-.243c-.097-.115-.136-.13-.328-.13-.12 0-.314.03-.43.064l-.212.062.183-.022c.112-.013.173-.006.158.019-.014.022.013.038.06.034.047-.004.086-.021.086-.04 0-.018.02-.033.047-.033.025 0 .035.03.021.066-.014.038-.007.055.017.04.058-.037.052.006-.023.15-.06.117-.06.125.013.125.063 0 .074.027.06.148-.02.167.04.195.132.062.06-.086.062-.086.088.02.03.123.089.142.127.043.014-.037.045-.054.07-.039.027.017.008.06-.05.11-.095.082-.096.082-.14 0-.04-.074-.054-.077-.127-.023-.096.07-.149.02-.15-.145 0-.075-.018-.093-.07-.074-.059.023-.066.002-.046-.143.026-.193.048-.18-.435-.254a4.185 4.185 0 0 0-.522-.043h-.246l.128.107c.07.06.178.21.24.336.135.277.15.685.034.94-.04.09-.075.185-.076.213-.004.069-.092.153-.171.165-.088.013-.082-.008.058-.187a.989.989 0 0 0 .128-1.024c-.156-.346-.379-.52-.753-.592-.275-.052-.48.008-.617.18-.134.17-.134.136 0-.37.137-.511.116-.822-.067-1.01-.14-.144-.273-.138-.389.017-.127.172-.153.368-.087.674.08.376.044 1.012-.09 1.549-.206.831-.183 1.065.104 1.044.099-.007.127.001.087.027-.037.024.137.05.481.07.515.029.573.023.911-.092.05-.017.051-.013.008.017-.07.05.366.094.933.094.227 0 .646.038.932.083.285.045.686.095.89.11.203.016.37.045.37.064 0 .02.133.19.296.379.163.189.297.354.297.367 0 .012-.048.06-.106.106-.12.094-.141.173-.036.132.06-.023.067-.003.047.147-.033.244-.001.27.169.136zm-1.598-1.561c-.103-.03-.101-.031.036-.06.174-.035.38.007.296.061-.066.042-.182.042-.332 0zm.222-.032a.163.163 0 0 0-.106 0c-.029.012-.005.021.053.021.058 0 .082-.01.053-.02zM23.169 140c-.001-.27.075-.52.146-.474.027.017.038.09.027.167-.011.076-.038.127-.058.114-.021-.013-.04.03-.042.096-.002.065-.02.166-.038.224-.026.081-.034.05-.035-.127zm3.548-.948c0-.009.03-.028.066-.041.038-.015.055-.007.04.016-.025.04-.106.06-.106.025zm10.612 2.843c-.012-.03-.022-.005-.022.053 0 .058.01.082.022.053a.163.163 0 0 0 0-.106zm-.043-.212c-.011-.029-.02-.005-.02.053 0 .058.009.082.02.053a.163.163 0 0 0 0-.106zm-8.589-1.059c-.117-.044-.124-.028-.063.134l.052.138.049-.12c.043-.106.039-.123-.038-.152zm-.053-.158c.014-.023.045-.042.068-.042.023 0 .03.019.016.042-.038.062.077.052.17-.016.07-.05.05-.057-.173-.05a1.157 1.157 0 0 1-.295-.017c-.024-.012-.008.01.036.051.092.085.14.093.178.032zm.4-.29c.19-.102.197-.14.038-.23-.073-.041-.122-.086-.11-.098.014-.013.073.009.132.047.162.107.23.032.084-.093-.117-.1-.117-.1-.009-.034.15.09.18.034.146-.273-.027-.239-.024-.248.142-.45.178-.215.27-.382.315-.58.061-.26-.253-.178-.54.142l-.183.203-.185-.188c-.101-.103-.219-.198-.26-.212-.06-.019-.067-.04-.034-.103.052-.097.056-.748.005-.78-.07-.043-.238.135-.382.407l-.145.271-.271-.013c-.173-.008-.262.002-.245.03.016.026-.019.033-.092.019-.09-.018-.154.007-.266.1-.125.106-.147.151-.147.304 0 .145.021.194.113.26.062.046.193.201.29.346.098.144.29.38.426.524.137.143.248.29.248.326 0 .108.132.15.467.152.23.001.358-.02.463-.076zm-1.044-.47a.967.967 0 0 1-.25-.265l-.256-.403c-.152-.238-.178-.394-.08-.475.1-.083.247-.032.35.12.094.142.14.3.05.174-.039-.052-.042-.05-.021.014a.574.574 0 0 1 .025.098c0 .011.02.008.042-.006.024-.014.043 0 .043.03s.1.103.223.161c.155.075.246.152.304.26.078.145.078.158.01.264-.09.135-.247.145-.44.027zm.276-.108c-.026-.058-.074-.106-.105-.106s-.057-.023-.057-.052c0-.05-.368-.329-.433-.329-.05 0 .235.428.342.512.057.045.148.081.202.081.09 0 .095-.009.051-.106zm.039-.22c.009-.027-.023-.07-.071-.096-.078-.041-.087-.034-.087.064 0 .08.019.107.07.097.04-.008.078-.037.088-.064zm-.56-.648c-.015-.023-.044-.042-.066-.042-.022 0-.04.02-.04.042 0 .024.03.043.066.043.036 0 .054-.02.04-.043zm.707.373c-.11-.11-.004-.243.245-.306.074-.018.062-.004-.042.049-.08.041-.154.11-.163.155-.013.072.009.077.243.06.257-.018.345.017.163.066-.158.043-.392.03-.446-.024zm.797.042c0-.017.075-.149.168-.293.256-.396.207-.512-.094-.219-.088.086-.16.138-.16.114 0-.054.202-.244.328-.31.146-.074.168.047.054.291-.092.196-.293.479-.296.417zm-1.296-.134c-.052-.133 0-.259.111-.272.145-.017.289.135.225.237-.06.095-.304.12-.336.035zm.173-.027-.127-.032.144-.005c.141-.005.142-.007.067-.09-.107-.118-.233-.11-.233.015 0 .127.032.156.166.15.105-.005.105-.006-.017-.038zm-.166-.35c-.044-.033-.067-.082-.05-.109.045-.073.11-.058.081.019-.023.06.01.064.266.038.203-.021.28-.017.25.014-.075.079-.457.106-.547.038zm.49-.37c0-.057.01-.081.021-.052a.163.163 0 0 1 0 .106c-.012.029-.021.005-.021-.053zm.044-.232c0-.07.01-.093.02-.052.012.041.01.098 0 .127-.012.029-.021-.005-.02-.075zm-.302.01c-.006-.072.214-.37.273-.37.034 0 .063.02.063.045 0 .025-.018.034-.04.021-.035-.022-.123.07-.243.258-.028.043-.052.064-.053.046zm-3.045 1.97c.052-.068.05-.07-.016-.017-.041.032-.075.066-.075.074 0 .035.035.013.09-.058zM49.9 155.332c-.01-.017-.002-.173.018-.348.02-.174.038-.34.039-.368.002-.08.167-.15.285-.12.08.02.1.048.084.11a.362.362 0 0 0 .04.206c.099.199-.03.392-.343.51-.057.023-.112.027-.123.01zm.315-.222c.109-.058.112-.252.004-.252-.104 0-.235.149-.203.231.029.076.086.082.2.021zm-.018-.485c-.044-.114-.132-.048-.146.109l-.013.145.093-.092c.058-.057.083-.118.066-.162zm-.896.593c.082-.433.04-.54-.086-.212-.04.105-.089.19-.109.19-.06 0-.042-.078.077-.32.134-.276.215-.357.267-.272.029.046.05.047.099.006.05-.041.067-.041.085.003.017.043.03.043.062-.004.023-.032.064-.045.091-.028.056.035.02.538-.047.668-.075.145-.107.07-.07-.164.046-.296.022-.336-.05-.08-.056.2-.16.33-.115.145.013-.056.036-.178.05-.271.034-.215-.04-.11-.08.113a.625.625 0 0 1-.113.254l-.085.098.024-.127zm-.824-2.604c-.05-.032-.038-.041.053-.042.064 0 .116.019.116.042 0 .054-.086.054-.17 0zm-.054-6.35c.012-3.201.04-6.82.063-8.043.073-3.978.068-4.17-.144-5.165-.325-1.532-.945-2.57-1.778-2.982-.551-.271-1.057-.245-1.69.088a3.17 3.17 0 0 0-.556.397l-.265.244.198.175c.185.163.309.391.282.52-.006.03.123.189.287.352.353.35.542.708.642 1.216.082.417.036.825-.135 1.201-.106.232-.418.61-.504.61a.428.428 0 0 0-.145.084c-.215.17-1.034.086-1.857-.19-.48-.16-.988-.408-1.171-.569-.146-.128-.19-.198-.32-.52-.08-.198-.038-.95.069-1.22.255-.646.924-1.146 1.667-1.246.15-.02.194-.042.176-.089-.066-.17.27-.383.555-.35.103.012.16-.023.336-.21.473-.502 1.146-.825 1.72-.827 1.477-.004 2.537 1.635 2.75 4.253.05.597.026 1.873-.038 2.175-.02.093-.05 3.493-.068 7.556-.017 4.063-.046 7.606-.064 7.874-.018.268-.023-2.132-.01-5.334zm-4.412-11.394c-.472-.047-1.118-.204-1.47-.358-.318-.14-.965-.547-.965-.608a.043.043 0 0 0-.042-.044c-.023 0-.042.037-.042.083 0 .324 1.768.976 2.624.967.267-.003.264-.004-.105-.04zm.987-.31c.25-.33.321-.576.323-1.102.002-.68-.175-1.148-.606-1.6-.289-.303-.448-.388-.972-.521-.362-.092-.43-.097-.655-.053-.248.049-.25.05-.13.1.11.045.098.048-.117.03-.294-.023-.37.054-.089.092.11.015.229.047.264.072.052.036.048.04-.021.023-.22-.054-.519-.07-.614-.033-.095.036-.082.044.127.075l.233.034-.313.033c-.288.03-.428.082-.428.16 0 .017.094.012.209-.01.137-.028.278-.027.412 0l.204.043-.211.005c-.386.01-.71.082-.803.18-.085.09-.085.09-.002.06.15-.056.588-.074.762-.031l.17.041-.254.006c-.357.008-.79.108-.855.198-.072.098-.057.106.116.062.238-.06.59-.093.59-.054 0 .02-.14.058-.31.084-.392.061-.536.116-.536.203 0 .05.02.06.074.039.04-.017.274-.038.518-.047l.445-.015-.423.078c-.499.091-.624.127-.667.191-.06.091-.03.098.189.041.121-.031.317-.055.434-.053l.213.004-.17.037c-.492.108-.698.179-.698.24 0 .044.022.053.074.029.04-.019.284-.039.54-.045.5-.011.503-.013-.265.138-.249.05-.349.087-.349.132 0 .044.022.052.074.028.114-.053.656-.07.818-.027.143.038.14.04-.109.07-.14.017-.359.055-.487.084-.194.044-.235.07-.247.153-.013.092-.008.095.06.04.1-.084.657-.075 1.108.02.789.163 1.73.554 2 .83.082.085.168.146.19.137.024-.009.107-.1.184-.202zm-.331-.382c0-.037.038-.142.084-.233a.766.766 0 0 0 .001-.683c-.087-.193-.11-.632-.043-.84.024-.077.035-.02.038.195.004.246.03.357.14.591.164.352.176.622.036.819-.118.165-.256.247-.256.15zm-.62-.168c-.011-.03.01-.126.046-.213.096-.23.086-.279-.125-.586-.15-.218-.19-.316-.19-.451 0-.22.083-.381.278-.542.186-.154.174-.23-.082-.508l-.175-.19.212.108c.116.06.274.174.352.254.195.204.193.359-.008.58-.176.195-.176.19.091.563.237.33.234.8-.006.928-.161.087-.37.117-.392.057zm-.417.655-.085-.037.085-.007c.055-.005.025-.028-.085-.066l-.17-.058.191.02.19.02-.169-.062-.17-.062.17.02.17.018-.149-.062-.148-.062.148.024c.116.018.135.013.085-.025-.065-.049-.032-.045.217.026.056.016.08.01.064-.017-.022-.036-.704-.305-.772-.305-.012 0-.009.021.007.047.02.033-.002.036-.072.012a.723.723 0 0 0-.418.002l-.105.03.105-.065c.155-.095.043-.082-.15.017-.152.077-.156.082-.04.06.075-.015.106-.01.077.011-.032.023.007.037.105.038.179.002.527.142.438.176-.05.018-.05.028 0 .062.038.027-.006.032-.133.015-.176-.024-.183-.021-.085.03.122.064.447.185.572.214.146.033.217.025.127-.014zm-.784-.55a.254.254 0 0 1 .106-.042c.024 0 .014.019-.02.041a.254.254 0 0 1-.107.041c-.023 0-.013-.018.021-.04zm-.38-.064c.058-.033.086-.06.063-.06a.467.467 0 0 0-.148.06c-.058.033-.087.06-.064.06.024 0 .09-.027.148-.06zm-.128-.042c.142-.081.043-.081-.111 0-.067.034-.093.062-.058.061a.475.475 0 0 0 .17-.061zm2.078-2.699c-.043-.212-.212-.305-.588-.32-.233-.01-.348.002-.406.046-.105.078-.053.157.103.157.124 0 .448.112.718.247.17.086.211.055.173-.13zm4.229 18.616c-.028-3.71.01-13.926.05-13.97.026-.027.05-.025.07.006.038.062-.022 12.698-.07 14.577l-.035 1.418zm-3.396-5.464c-.164-.09-.146-.12.021-.035.16.081.188.102.134.1a.607.607 0 0 1-.155-.065zm-7.395-3.049c.002-.049.013-.059.026-.025.012.03.01.067-.003.08-.014.015-.024-.01-.023-.055zm.095-.44c0-.152.008-.214.017-.138.01.076.01.2 0 .275-.009.076-.017.014-.017-.138zm-.132.063c0-.07.01-.093.021-.052.01.041.01.098-.001.127-.012.029-.02-.005-.02-.075zm-.51-.064c0-.058.01-.082.022-.052a.163.163 0 0 1 0 .105c-.012.03-.022.005-.022-.053zm.105-.15a.356.356 0 0 1-.024-.118c.002-.027.021-.004.043.052.023.056.033.11.024.119-.01.009-.029-.015-.043-.052zm.066-.185c-.07-.202-.06-.265.016-.091.035.08.056.165.048.19-.008.024-.037-.02-.064-.1zm-.132-.07c.002-.05.013-.06.026-.026.012.03.01.067-.003.081-.014.014-.024-.01-.022-.055zm.27.022c-.015-.025-.018-.055-.007-.066.01-.01.031.01.045.045.029.075.004.088-.037.02zm-8.567-1.966c0-.075.097-.214.327-.47.124-.137.212-.212.195-.165-.016.047-.12.18-.23.296-.11.117-.22.25-.246.297-.026.046-.047.065-.046.042zm-.177-.637c.072-.082.131-.176.131-.209 0-.032.022-.073.049-.09.091-.056-.008.211-.123.333-.162.17-.211.142-.057-.034z" transform="translate(-16.676 -128.741)"/></svg>