<svg width="102.541" height="105.787" viewBox="0 0 27.131 27.99" xmlns="http://www.w3.org/2000/svg"><path style="fill:#282828;stroke-width:.0423333" d="m92.128 156.197-.006-.216-.025.187c-.015.105-.052.196-.085.207-.046.015-.055-.013-.037-.124a.564.564 0 0 0-.008-.227c-.022-.06-.039-.023-.06.138-.044.336-.123.28-.091-.065.025-.262.021-.279-.038-.204a.603.603 0 0 0-.092.223c-.015.077-.046.153-.069.167-.056.034-.003-.203.098-.438.07-.163.166-.245.166-.142 0 .062.227.03.281-.04.041-.051.054-.036.074.086.014.08.031.233.04.338.008.128.015.091.02-.11.006-.231.026-.317.085-.37.127-.115.22-.09.22.06 0 .07.028.159.064.194.087.088.045.21-.139.403-.107.112-.183.154-.27.152-.117-.003-.122-.012-.128-.22zm.428-.08c.072-.126.032-.197-.075-.13-.088.055-.127.287-.043.26.03-.01.084-.069.118-.13zm-.05-.381c-.023-.145-.097-.093-.108.075-.01.16-.008.165.055.085.036-.046.06-.118.053-.16zm-1.572-.795c-.525-.583-.596-1.31-.129-1.31.23 0 .45.237.709.764.12.243.237.443.26.443.024 0 .105-.172.181-.381.08-.22.128-.315.115-.226-.06.407-.22.751-.32.69-.021-.014-.136-.206-.256-.427a4.562 4.562 0 0 0-.318-.523c-.193-.23-.485-.243-.54-.024-.053.208.145.717.407 1.05.179.227.116.195-.11-.056zm-.59-.221c-.406-.383-.483-.496-.339-.496.094 0 .556.483.68.712a.93.93 0 0 1 .085.176c-.007-.001-.198-.177-.426-.392zm2.206.133-.014-.185-.072.127c-.098.173-.095.1.004-.096.074-.146.083-.356.128-2.867.027-1.49.077-3.643.112-4.784.034-1.14.071-2.493.082-3.005.01-.512.03-1.046.042-1.186.022-.246.052-1.31.087-3.038.009-.46.025-.851.035-.868a.427.427 0 0 0 .017-.144c0-.11-.004-.112-.101-.048-.126.082-.129.112-.005.075.087-.027.084-.017-.032.108-.12.13-.122.135-.026.106.162-.05.07.043-.142.143-.24.113-.352.114-.139.002.225-.119.197-.128-.069-.024l-.228.09-.033 1.926c-.042 2.454-.043 3.044-.002 3.175.024.078.021.09-.01.044-.034-.047-.043-.027-.04.085.004.141-.065 2.686-.116 4.253-.061 1.914-.218 5.491-.248 5.673-.033.196-.022-3.86.016-5.948.053-2.87.16-7.364.211-8.93.023-.663.033-1.213.023-1.222-.01-.01-.229-.004-.487.013-.388.025-.457.04-.398.083.115.084.047.338-.307 1.139-.384.87-1.164 2.47-1.261 2.588-.039.046.01-.077.107-.275s.353-.75.57-1.228c.215-.477.498-1.1.628-1.384.243-.53.284-.725.173-.817-.054-.045-.063-.032-.063.093 0 .223-.102.518-.383 1.111-.142.299-.41.888-.598 1.31-.186.422-.409.9-.494 1.062-.085.163-.15.32-.142.35.007.029-.025.053-.07.053-.21 0-3.61-1.322-3.55-1.38.012-.013 1.683.586 3.202 1.148.268.099.342.102.342.013 0-.024.331-.744.737-1.6.74-1.56.871-1.885.871-2.148 0-.112-.023-.152-.113-.193-.09-.04-.117-.04-.13.001-.027.08-.32.063-.615-.036-.366-.123-.42-.16-.192-.135.19.021.193.02.173-.086-.015-.08-.056-.117-.154-.139-.252-.056-.023-.067.34-.016.374.053.554.152.505.278-.019.049.046.06.357.06.374 0 .38-.001.38-.104 0-.108.004-.106-.487-.165-.07-.008.01-.018.18-.021.376-.008.412-.09.042-.095a4.154 4.154 0 0 1-.476-.037l-.212-.033.212-.01.211-.011-.23-.034a11.75 11.75 0 0 0-.72-.063c-.658-.04-.74-.1-.15-.11l.465-.008-.38-.031c-.21-.017-.553-.035-.763-.04-.44-.01-.353-.07.127-.087.268-.01.245-.015-.24-.057-.295-.026-.549-.059-.564-.074-.05-.052.217-.082.334-.038a.846.846 0 0 0 .272.04c.115-.005.062-.025-.204-.08l-.36-.075.445-.01c.394-.01.418-.015.212-.041a2.379 2.379 0 0 1-.34-.067l-.105-.036.127-.027c.07-.016.25-.022.402-.015.267.013.262.01-.148-.068l-.423-.08.592.012c.637.014.552-.031-.157-.083-.227-.017-.402-.047-.39-.067.013-.02-.054-.036-.149-.036h-.171v.333c0 .184-.012.39-.026.46-.024.123-.02.126.177.153.207.029.357.123.357.225 0 .035.05.057.137.058.076 0 .214.02.307.044.093.024.198.048.233.052.065.01.125.068.126.125.001.058-.229.03-.465-.056-.382-.14-.385-.14-.357-.07.013.035-.052.214-.145.397-.209.408-.596 1.066-.597 1.013-.001-.021.151-.331.337-.689.186-.357.339-.659.339-.67 0-.011-.019-.02-.042-.02-.023 0-.072.071-.108.158-.085.204-.698 1.323-.725 1.323-.01 0 .151-.333.36-.74.208-.408.357-.74.33-.74-.026 0-.104.127-.173.281-.132.294-.767 1.444-.838 1.517-.023.023.166-.367.419-.868.652-1.292.645-1.318-.032-.106-.503.9-.632 1.073-.23.307.156-.297.275-.54.264-.54-.01 0-.195.295-.41.656-.229.384-.41.644-.436.628-.029-.018-.034.001-.014.054.023.059.019.068-.016.034-.034-.034.065-.274.372-.896.432-.876.692-1.327.718-1.246.008.025.043.036.077.023.08-.031.08-.226 0-.226a.118.118 0 0 1-.092-.05c-.016-.026-.012-.037.01-.024.038.024.026-1.365-.012-1.406-.01-.01-.084.016-.165.06l-.147.078-.009.576-.009.575-.013-.54c-.007-.296-.029-.54-.048-.54-.033 0-.09.693-.09 1.103 0 .197.004.201.146.218.115.013.155-.001.188-.07.038-.078.042-.073.045.042.003.125-.002.128-.17.112-.157-.015-.187 0-.349.169-.115.12-.31.445-.554.925-.45.882-.606 1.138-1.077 1.768-.58.776-.504.563.218-.61.242-.392.609-1.01.815-1.37.205-.361.447-.731.538-.823l.164-.167-.03-.416c-.055-.782-.015-.777-.55-.074-.681.892-1.06 1.16-1.632 1.156-.305-.002-.507-.121-.627-.369a.912.912 0 0 1-.088-.244c0-.189.163-.55.428-.947.345-.52.459-.752.46-.937.002-.172-.094-.192-.56-.116-.486.079-.684.072-.884-.03-.126-.064-.262-.089-.516-.095-.263-.006-.371-.026-.452-.087-.08-.06-.085-.071-.02-.047.179.067.43.1.585.076.142-.022.158-.036.131-.114-.071-.207-.069-.628.005-.82.205-.539.791-.824.972-.474.18.347-.05.928-.497 1.263-.313.233-.092.286.552.132.46-.11.685-.11.804.002.211.196.053.703-.374 1.2-.302.35-.447.572-.508.774-.173.58.373.9 1.025.598.324-.15.546-.364 1.158-1.118l.52-.64-.042-1.138c-.023-.626-.03-1.262-.015-1.414.032-.335.163-.864.296-1.19.272-.669.895-1.223 1.401-1.247.121-.006.278-.04.35-.078.183-.094.183-.088-.012.115-.23.24-.387.71-.287.86.052.077.209.143.342.143.119 0 .132-.017.22-.285.129-.398.267-.624.42-.687.07-.03.115-.073.1-.097-.018-.03.02-.034.117-.013.08.018 1.02.03 2.092.03a75.74 75.74 0 0 1 2.603.03c.528.026.685.021.803-.027.558-.228 1.434.466 1.774 1.407.31.857.423 1.982.347 3.47-.057 1.138-.113 1.738-.17 1.84-.021.038-.092.07-.158.072-.584.015-2.37.168-2.394.205-.019.027-.031.029-.032.003 0-.044-2.154.036-2.28.084-.038.015-.048.04-.024.063.074.074-.205 10.893-.363 14.098l-.068 1.376-.028.55.215-.28c.32-.42.612-.576.773-.415.08.081.09.125.07.364-.023.292-.21.737-.369.881-.153.138-.139.036.034-.251.269-.445.338-.912.136-.912a.162.162 0 0 0-.125.074c-.024.04-.044.059-.044.04-.003-.079-.191.082-.449.383-.265.312-.277.335-.267.527.014.254-.038.319-.056.07zm-5.225-15.266c.039-.076.06-.137.049-.137-.024 0-.15.234-.15.28 0 .044.023.012.101-.143zm5.192-.583a1.16 1.16 0 0 0 .21-.121c0-.008-.09.014-.201.05-.11.035-.225.07-.254.078-.064.015-.071.1-.01.1.025 0 .14-.048.255-.107zm-.086-.554c.058-.035.07-.054.028-.04a.646.646 0 0 1-.159.024c-.045 0-.081.019-.081.042 0 .06.089.05.212-.026zm.506.028c.035-.022.054-.049.043-.06-.011-.01-.057.007-.102.04-.09.066-.04.083.06.02zm-4.637-.41c.06-.109.102-.206.091-.217-.01-.01-.068.079-.128.197-.137.27-.11.284.037.02zm3.9.164c.066-.013.108-.068.145-.194.076-.253.187-.39.382-.467.255-.102.509-.089.694.037.129.087.16.094.18.042.013-.035.044-.063.068-.063.025 0 .014.034-.023.075-.047.051-.056.095-.029.138a.49.49 0 0 1 .04.204c.001.112.015.137.068.117a1.15 1.15 0 0 1 .275-.026c.18 0 .208-.012.208-.085a.706.706 0 0 0-.084-.243.712.712 0 0 1-.085-.259c0-.09-.008-.094-.074-.044-.04.031-.029.006.027-.056.079-.09.105-.176.122-.408.02-.275.013-.303-.089-.404-.188-.188-.3-.16-.811.212-.206.15-.219.152-.466.12-.422-.055-.547-.044-.68.06-.225.178-.256.266-.267.756-.006.25-.02.464-.03.474-.034.035-.018-1.489.028-2.514.101-2.28-.13-3.402-.856-4.139-.17-.173-.317-.286-.37-.286-.05 0-.09.007-.09.015s.14.158.311.332c.342.347.572.705.714 1.107.086.244.091.34.094 1.53.001.7-.012 1.733-.03 2.297-.022.727-.018 1.027.014 1.027.025 0 .016.03-.02.066-.084.084-.095.55-.014.584.06.026.506.022.647-.005zm-.156-.38c-.053-.068-.051-.07.016-.017.07.056.093.09.058.09-.009 0-.042-.033-.074-.074zm1.826.058c0-.01.033-.043.074-.075.067-.052.069-.05.016.016-.055.071-.09.093-.09.059zm-1.736-.387c-.103-.104-.177-.19-.166-.19.012 0 .106.086.209.19.102.105.177.19.165.19-.011 0-.105-.085-.208-.19zm.291-.01c-.053-.067-.051-.069.016-.016.07.055.093.09.058.09-.009 0-.042-.033-.074-.074zm1.265.004c.03-.012.045-.036.034-.053-.011-.018.008-.032.041-.032.046 0 .05.014.014.056-.025.031-.068.055-.094.053-.03-.002-.028-.01.005-.024zm-1.496-.279-.08-.095.094.08a.473.473 0 0 1 .096.096c0 .034-.034.009-.11-.081zm.729-.012c-.041-.107-.03-.134.02-.048.025.042.037.086.026.097-.011.01-.032-.011-.046-.05zm.99.007c0-.01.033-.042.073-.074.067-.053.069-.051.016.016-.055.07-.09.093-.09.058zm-3.393.841a.492.492 0 0 0-.196-.084c-.119-.025-.137-.017-.137.057 0 .067.04.094.18.122.19.039.252 0 .153-.095zm2.725.08c.299-.025.329-.036.329-.118 0-.315-.507-.511-.872-.338-.142.067-.276.241-.335.435l-.03.101.29-.026c.16-.015.438-.04.619-.054zm-3.118-.217c-.045-.046-.07.018-.038.1.03.076.033.076.048.002.009-.042.004-.088-.01-.102zm5.315.049c.024-.015.174-.758.22-1.097.01-.07.01.031.002.225-.016.33-.062.62-.125.784-.032.083-.142.081 1.15.02l.977-.047.049-.555c.11-1.258.111-1.3.03-1.268-.041.015-.127.146-.192.29-.126.281-.268.423-.468.467-.28.061-.605-.172-.74-.53-.102-.268-.197-.339-.458-.339-.484 0-.747-.185-.747-.526 0-.363.317-.624.845-.695.196-.027.286-.06.318-.115.024-.043.094-.132.157-.197.203-.212.608-.138.893.163.107.114.167.143.298.143h.163l-.027-.328c-.03-.358-.1-.907-.136-1.059-.015-.062-.054-.095-.114-.095-.11 0-.27-.105-.386-.252-.19-.244-.256-.284-.503-.313-.296-.035-.444-.107-.597-.289-.1-.117-.113-.164-.094-.328.017-.15.054-.22.173-.33.083-.076.173-.139.198-.139.025 0-.01.047-.079.105a.746.746 0 0 0-.179.236c-.11.267.134.54.565.632.266.057.422.15.514.306.076.127.296.287.397.287.07 0 .036-.186-.087-.474-.076-.18-.097-.2-.219-.195-.147.006-.323-.071-.379-.165-.026-.044-.08-.053-.199-.033-.095.016-.195.008-.24-.02-.064-.039-.052-.045.073-.04.277.01.346-.003.326-.057-.01-.029.006-.114.036-.19.055-.134.053-.139-.125-.284-.381-.313-.349-.308-2.376-.34l-1.82-.03-.053.142c-.06.166-.21.247-.455.247-.138 0-.202-.027-.31-.133-.093-.09-.128-.158-.11-.211.022-.073-.005-.08-.367-.08h-.392l.214.216c.124.124.292.365.4.57.156.3.198.352.268.33.15-.047.514-.31.612-.443.088-.12.111-.128.293-.109.108.012.254.034.324.048.102.022.088.006-.074-.081-.296-.16-.245-.17.07-.014.234.115.283.126.342.077.054-.045.057-.064.013-.094-.039-.026-.03-.034.03-.025.073.011.086-.015.098-.192.01-.172.022-.196.074-.153.151.126.015.444-.234.548-.108.044-.177.04-.431-.026-.294-.076-.305-.076-.35 0-.152.255-.488.492-.698.492-.129 0-.137.054-.047.316.15.435.184.895.155 2.097a92.94 92.94 0 0 1-.055 1.71l-.029.59.17-.17c.2-.2.325-.233.65-.172.303.056.39.032.675-.18.298-.222.498-.285.658-.206.277.135.348.413.227.887-.048.187-.046.24.017.418.04.112.072.237.072.277 0 .068.044.072.561.043.309-.017.573-.038.588-.047zm.251-.123c0-.024.027-.09.06-.149.034-.058.061-.086.061-.063 0 .023-.027.09-.06.148-.034.058-.06.087-.06.064zm-1.4-3.285a3.543 3.543 0 0 0-.524-.164c-.396-.093-.53-.201-.564-.46-.016-.117-.007-.177.024-.177.027 0 .048.055.048.123 0 .195.117.29.473.383.178.047.416.135.529.196a.598.598 0 0 0 .435.088c.255-.026.397-.11.546-.328.083-.12.095-.18.076-.35a.877.877 0 0 0-.046-.23.853.853 0 0 0-.23-.04c-.185-.019-.21-.01-.237.07-.021.07.011.142.13.291.198.248.246.33.093.159-.064-.071-.116-.109-.117-.084 0 .024.023.07.052.101.036.039.037.048.003.029-.027-.015-.062-.008-.077.016-.041.067-.105.006-.075-.072.019-.05.01-.06-.03-.035-.038.024-.046.019-.025-.014.016-.028.05-.037.076-.022.028.018.034.01.014-.023-.017-.029-.055-.043-.082-.032-.03.01-.054-.024-.06-.085-.005-.068.009-.093.04-.073.031.019.038.011.019-.02-.023-.036-.055-.032-.122.015-.105.074-.378.085-.498.02-.069-.036-.09-.022-.146.096-.035.076-.056.106-.045.066.011-.04 0-.086-.027-.102-.026-.016-.035-.01-.02.014.014.023-.002.079-.036.123-.06.078-.062.078-.035-.004l.028-.085-.104.085c-.058.046-.023.006.077-.091.145-.14.17-.185.125-.222-.042-.035-.073-.028-.126.03-.038.043-.06.087-.049.1.012.01-.03.066-.095.123-.104.092-.108.093-.035.007.044-.053.065-.096.046-.096-.02 0-.002-.035.037-.079.07-.077.062-.08-.237-.094-.17-.008-.53-.015-.803-.016-.469-.001-.49-.005-.427-.076.09-.1.443-.2.7-.2.114 0 .2-.015.192-.032l-.094-.186c-.149-.292.011-.493.469-.588.191-.04.246-.077.422-.282.327-.384.734-.5 1.036-.297.142.095.18.173.289.603.024.094.121.275.217.402.171.229.19.32.107.512-.024.057.025.083.28.147.38.096.242.132-.153.04a4.388 4.388 0 0 0-.315-.065c-.017 0-.023.12-.014.266.015.243.007.28-.102.409-.243.288-.67.375-1.033.21zm.591-.635c-.026-.048-.058-.077-.071-.064-.013.013 0 .052.03.088.076.092.096.08.041-.024zm-.22-.19c.169-.117.115-.16-.17-.132-.146.013-.3.038-.344.054-.072.028-.07.035.022.086.137.076.379.073.493-.007zm.9-.272c.047-.116.041-.144-.067-.3a1.3 1.3 0 0 0-.185-.222.254.254 0 0 1-.083-.113l-.078-.296a.96.96 0 0 0-.147-.326c-.11-.118-.326-.171-.377-.092-.026.043-.036.044-.037.005 0-.065-.144-.068-.268-.006-.05.026-.197.158-.325.293-.185.195-.28.259-.462.313-.28.082-.385.17-.385.325 0 .154.125.367.233.396.046.012.175.023.286.023.18 0 .2-.009.201-.094 0-.274.331-.53.588-.457.118.034.134.028.157-.065.014-.057.044-.103.066-.103.022 0 .027.022.01.05-.018.03-.011.036.02.017.036-.022.032-.054-.015-.121a.342.342 0 0 1-.063-.135c0-.024.019-.015.041.02.037.056.041.056.043 0 .001-.049.012-.046.047.013.037.064.055.068.115.021.063-.05.064-.048.012.019-.031.04-.042.074-.023.074.02 0-.03.067-.109.148-.151.156-.132.193.044.081l.104-.067-.099.088c-.09.08-.093.093-.032.154.037.037.08.142.094.234.025.157.036.166.18.17.085.002.201.02.26.039.174.056.199.047.254-.086zm-.286.013a.238.238 0 0 1 .127.002c.029.012-.005.02-.075.02-.07-.001-.093-.01-.052-.021zm-.318-.04a.164.164 0 0 1 .106 0c.029.01.005.02-.053.02-.058 0-.082-.01-.053-.02zm.276-.044a.238.238 0 0 1 .127.002c.029.011-.005.02-.075.019-.07 0-.093-.01-.052-.021zm-.212-.085a.238.238 0 0 1 .127.002c.029.011-.005.02-.075.02-.07-.002-.093-.011-.052-.022zm-.085-.085a.35.35 0 0 1 .148 0c.04.01.007.02-.074.02-.082 0-.115-.01-.074-.02zm.362-.042c.03-.012.067-.01.081.003.014.014-.01.024-.055.022-.05-.002-.06-.012-.026-.025zm-.341-.041a.163.163 0 0 1 .106 0c.029.012.005.021-.053.021-.058 0-.082-.01-.053-.021zm.257-.043c.03-.013.067-.011.08.003.015.014-.01.024-.055.022-.05-.002-.06-.012-.025-.026zm-.282-.05c-.044-.03-.041-.042.017-.065.04-.015.083-.018.095-.006.012.012 0 .022-.03.022-.028 0-.04.02-.025.043.031.05.018.052-.057.005zm.016-.173c-.013-.021-.008-.049.012-.061.02-.012.036.005.036.04 0 .07-.014.077-.048.021zm-.42-.322a.356.356 0 0 1-.023-.118c0-.027.02-.004.043.052.022.056.033.109.023.118-.009.01-.028-.014-.043-.052zm.23-.083c0-.023.018-.07.04-.105.023-.035.041-.045.041-.022 0 .024-.018.071-.04.106-.023.035-.042.045-.042.021zm-.334-.105c0-.059.01-.082.021-.053a.164.164 0 0 1 0 .105c-.012.03-.021.005-.021-.052zm-.088-.067c.002-.05.012-.06.025-.026.013.03.011.067-.003.081-.014.014-.024-.01-.022-.056zm.212 0c.002-.05.012-.06.025-.026.012.03.01.067-.003.081-.014.014-.024-.01-.022-.056zm.084 0c.002-.05.012-.06.026-.026.012.03.01.067-.003.081-.014.014-.024-.01-.022-.056zm.16 1.144c.008-.008-.003-.067-.024-.133a.48.48 0 0 0-.478-.293c-.18.028-.38.235-.38.391v.11l.433-.03a4.3 4.3 0 0 0 .45-.045zm.005-.76c-.03-.036-.065-.054-.078-.04-.013.013.004.041.038.063.09.057.101.05.04-.024zm-.422 1.648c0-.045.02-.11.044-.145.031-.046.035-.03.014.063-.034.156-.059.19-.058.082zm.195-.078c-.022-.085-.012-.142.03-.184.055-.055.069-.05.113.032.028.053.032.083.008.069-.023-.015-.06.025-.081.09l-.04.116zm.1-.173c0-.023-.019-.014-.041.021a.253.253 0 0 0-.041.106c0 .023.018.014.04-.021a.253.253 0 0 0 .042-.106zm-.338.045c0-.034.017-.072.039-.085.02-.013.028.015.016.061-.026.099-.055.112-.055.024zm-.085-.064c0-.045.017-.092.037-.104.02-.012.027.025.016.082-.024.125-.053.137-.053.022zm-.74-.044a.334.334 0 0 1 .097-.085c.012 0-.013.038-.055.085a.333.333 0 0 1-.098.084c-.011 0 .013-.038.056-.084zm2.878-.22c-.093-.05-.147-.098-.12-.107.05-.017.395.14.395.18 0 .042-.112.012-.275-.074zm.508.01c-.114-.054-.142-.08-.084-.082a.782.782 0 0 1 .254.078c.114.054.142.08.084.082a.782.782 0 0 1-.254-.078zm-1.818-.059c-.061-.045-.066-.065-.023-.091.04-.024.045-.018.02.022-.024.04-.015.049.03.031.037-.014.063 0 .063.035 0 .073.005.073-.09.002zm-.17-.025c-.013-.021-.008-.05.012-.061.02-.013.036.006.036.04 0 .07-.013.077-.048.021zm-2.985-1.59c0-.023.019-.071.041-.106.023-.035.041-.044.041-.021 0 .023-.018.07-.04.106-.023.035-.042.044-.042.02zm-.223-.15c.03-.038.043-.078.031-.09-.011-.012.017-.056.064-.099.126-.114.103-.016-.032.131-.064.07-.092.097-.063.059zm4.575.057c.03-.012.067-.01.08.003.015.015-.01.025-.055.023-.05-.002-.06-.012-.026-.026zm.293-.04a.163.163 0 0 1 .106 0c.03.01.005.02-.053.02-.058 0-.082-.01-.053-.02zm-.254-.043a.164.164 0 0 1 .106 0c.03.012.005.021-.053.021-.058 0-.082-.01-.053-.021zm.257-.043c.03-.013.067-.011.081.003.014.014-.01.024-.056.022-.049-.002-.059-.012-.025-.026zm-.212-.043c.03-.012.067-.01.081.003.014.014-.01.024-.055.022-.05-.002-.06-.012-.026-.025zm.17-.042c.03-.012.067-.01.08.003.015.014-.01.024-.055.022-.05-.002-.06-.012-.026-.025zm-.17-.042c.03-.013.067-.011.081.003.014.014-.01.024-.055.022-.05-.002-.06-.012-.026-.026zm.212-.043c.03-.012.067-.01.081.003.014.014-.01.024-.056.023-.049-.002-.059-.013-.025-.026zm-3.654-.075c-.227-.075-.138-.078.127-.004.116.032.174.059.127.059-.047 0-.16-.025-.254-.055zm-.387-.09c-.072-.056-.068-.059.048-.033.158.034.167.042.09.07-.033.014-.095-.003-.138-.037zm-1.422-.259a.458.458 0 0 1 .17 0c.04.011-.004.02-.097.02-.093-.001-.126-.01-.073-.02zm6.797 6.454c.06-.24.174-2.033.173-2.699-.004-1.95-.472-3.216-1.364-3.696-.238-.129-.686-.207-.686-.12 0 .027.063.049.14.049.363 0 .992.518 1.266 1.042.347.664.458 1.27.487 2.662.02.948-.01 1.755-.099 2.593-.018.172-.012.264.016.264.024 0 .054-.043.067-.095zm-9.116-.018c0-.042-.134-.183-.175-.183-.07 0-.035.163.038.182.118.031.137.031.137.001zm-.254-.143c0-.045-.019-.082-.042-.082-.023 0-.042.048-.042.108 0 .061.018.097.042.082.023-.014.042-.063.042-.108zm2.921.087c0-.024-.111-.04-.264-.035l-.265.007.254.028c.14.015.26.031.265.035.006.004.01-.012.01-.035zm0-.212c0-.023-.048-.042-.108-.042-.061 0-.097.018-.082.042.014.024.063.043.108.043s.082-.02.082-.043zm0-.21c0-.023-.028-.03-.063-.017-.035.014-.064.032-.064.041 0 .01.03.017.064.017.035 0 .063-.018.063-.041zm-.042-.423c0-.023-.028-.03-.063-.017-.035.013-.064.032-.064.041 0 .01.029.017.064.017s.063-.019.063-.041zm0-.171c0-.023-.008-.042-.019-.042-.01 0-.03.019-.044.042-.015.023-.006.042.018.042.025 0 .045-.019.045-.042zm5.876-.147a.734.734 0 0 0 .18-.244c.065-.167.203-.329.28-.329.044 0 .056-.132.056-.614v-.615l-.137.01c-.076.004-.152.029-.169.053-.019.027-.031.017-.032-.024 0-.093-.23-.275-.453-.36-.26-.1-.496-.03-.594.176-.075.157-.103.172-.393.208-.645.081-.918.353-.763.76.055.145.233.227.555.257.344.032.425.087.596.408.08.15.193.295.267.34.188.114.453.103.607-.027zm-.366-.107c0-.058.01-.082.021-.053a.164.164 0 0 1 0 .106c-.011.03-.02.005-.02-.053zm-.125-.197c-.008-.252-.013-.263-.167-.357-.088-.053-.178-.092-.201-.085-.024.006-.03-.001-.014-.017.015-.016.008-.085-.016-.154-.033-.095-.06-.119-.113-.095-.086.04-.211.034-.535-.02l-.254-.044.285.01c.347.013.333-.025-.023-.065-.163-.017-.098-.02.172-.009.4.019.434.014.434-.057 0-.042.03-.12.066-.171.051-.073.053-.095.01-.098-.03-.002-.007-.02.051-.038.099-.032.1-.035.013-.039-.05-.002-.104-.023-.119-.046-.016-.026.03-.039.12-.032.081.006.137.027.125.047-.012.02.017.015.065-.011.121-.065.244-.058.4.022.206.107.254.176.275.394.032.325-.174.596-.451.596-.074 0-.087.033-.1.264l-.015.265zm.3-.439c.14-.11.216-.332.161-.475-.097-.257-.45-.326-.678-.134-.384.323.123.92.517.61zm-1.375-.155c.03-.012.067-.01.081.003.014.014-.01.024-.055.022-.05-.002-.06-.012-.026-.025zm.008-.056c-.143-.03-.144-.03-.021-.032a.89.89 0 0 1 .233.032c.139.045 0 .045-.212 0zm.053-.283a.35.35 0 0 1 .148 0c.041.01.007.02-.074.02s-.115-.01-.074-.02zm.021-.086c.076-.009.2-.009.276 0 .075.01.013.017-.138.017-.151 0-.213-.008-.138-.017zm.057-.07c.01-.009.13-.03.266-.046.174-.021.24-.016.22.016-.016.025-.136.046-.267.046-.13 0-.229-.007-.22-.016zm-.1-.098a.603.603 0 0 1 .191 0c.053.01.01.018-.095.018s-.147-.008-.095-.018zm.404-.042a.238.238 0 0 1 .127.002c.029.011-.005.02-.075.02-.07-.002-.093-.011-.052-.022zm-.276-.041a.164.164 0 0 1 .106 0c.029.011.005.021-.053.021-.058 0-.082-.01-.053-.021zm.307-.057c.083-.053.139-.053.106 0-.015.023-.059.042-.098.042-.062 0-.063-.006-.008-.042zm.491-.035c-.012-.02.005-.035.038-.035s.05.015.038.035c-.012.02-.029.035-.038.035-.009 0-.026-.016-.038-.035zm-5.275 1.627c0-.04-.03-.052-.093-.036-.089.024-.089.026-.01.057.045.018.087.034.093.035.006.002.01-.024.01-.056zm-1.841-.048a1.296 1.296 0 0 0-.36-.036c-.058.01-.22 0-.36-.023l-.254-.042.286.018c.157.01.286.01.286.003 0-.008-.148-.05-.329-.091l-.328-.075.17-.033c.093-.017.245-.035.338-.039.155-.006.146-.01-.105-.063a3.088 3.088 0 0 0-.394-.06c-.117-.002-.119.002-.106.22l.013.223.508.023c.28.013.593.025.698.027.19.004.189.004-.063-.051zm1.841-.147c0-.023-.052-.04-.116-.038l-.117.004.106.034.117.038c.006.002.01-.015.01-.038zm-1.748-.085a1.644 1.644 0 0 0-.538-.039c-.097.01.305.062.55.07.102.005.101.003-.012-.031zm1.748-.169c0-.023-.071-.04-.159-.04-.127.003-.142.01-.074.04.118.05.233.05.233 0zm-3.55-1.452c-.012-1.384.004-1.62.145-2.138.01-.04-.029.027-.089.148-.146.298-.225.863-.185 1.325.018.198.033.627.036.953.004.637.042 1.18.081 1.142.014-.013.019-.657.012-1.43zm1.518 1.381a6.835 6.835 0 0 1-.37-.08c-.22-.054-.293-.055-.444-.01l-.18.054.296.025c.34.029.857.037.698.012zm-1.12-1.21c-.003-.541.007-1.06.022-1.153l.028-.17.01.17.022.296c.006.07.014.245.017.388l.005.261.158.023c.088.013.34.033.561.046l.403.022-.503-.104c-.277-.057-.515-.116-.53-.131-.014-.016.098-.017.25-.002.15.014.436.035.634.046l.36.02-.558-.1c-.672-.122-.788-.153-.479-.13.82.064.836.062.275-.038-.303-.055-.531-.101-.508-.104.102-.013 1.228.085 1.67.145.569.078.731.14.383.148l-.232.005.29.058c.16.032.302.068.315.08.012.013-.11.025-.27.027-.323.004-.321.006.046.082.22.046.24.058.153.09a.943.943 0 0 1-.318.017l-.216-.02.211.042c.728.144.69.131.556.188l-.122.05.175.029c.254.04.213.11-.069.117-.234.005-.237.006-.074.035l.328.063.159.033v-1.153h-.117c-.114 0-.3-.082-.19-.084.122 0 .038-.071-.148-.124-.183-.052-.192-.06-.096-.088.1-.029.098-.032-.042-.053-.081-.012.019-.016.222-.009.265.01.37 0 .37-.036 0-.033-.1-.053-.295-.059a14.058 14.058 0 0 1-.878-.072c-.389-.042-.675-.052-.858-.029-.255.032-.261.035-.085.043.105.005.267.024.36.043l.17.035-.17.002a8.07 8.07 0 0 1-.656-.053c-.417-.048-.454-.057-.254-.068l.233-.013-.254-.03c-.182-.022-.11-.027.254-.02l.508.012-.593-.06c-.862-.087-1.034-.13-.546-.136l.385-.005.073-.162c.11-.244.076-.43-.095-.53-.123-.071-.162-.075-.309-.031a.898.898 0 0 0-.293.164c-.112.102-.129.154-.167.495-.048.437-.055 1.364-.015 2.145l.027.536.156-.103.155-.103zm1.65-.586a32.68 32.68 0 0 1-.826-.117l-.53-.08.318-.01.318-.01-.402-.077-.403-.077.424.017.423.017-.423-.081-.424-.081.339.02c.852.05 1.553.174 1.08.19-.19.006-.19.007.063.045.348.054.412.084.254.122l-.127.031.127.006c.176.008.318.05.318.094 0 .043-.112.04-.53-.009zm-.518-.193a.246.246 0 0 0-.127-.002c-.042.011-.018.02.052.021.07.001.103-.008.075-.02zm.105-.128a.462.462 0 0 0-.17 0c-.052.01-.019.018.074.018s.137-.008.096-.018zm-1.133-.749c0-.009.033-.042.074-.074.067-.053.069-.051.016.016-.055.07-.09.093-.09.058zm.27-.254a.195.195 0 0 1 .036-.092c.015-.015.022.003.017.04a.195.195 0 0 1-.036.092c-.015.014-.022-.004-.017-.04zm2.778 2.895c0-.12-.01-.127-.159-.123l-.158.004.137.04c.127.036.194.121.096.121a.042.042 0 0 0-.043.043c0 .023.029.042.064.042.042 0 .063-.042.063-.127zm-1.937.014a.164.164 0 0 0-.105 0c-.03.012-.005.021.053.021.058 0 .082-.01.052-.02zm-1.005-.141c-.015-.025.031-.043.114-.043.11 0 .127-.01.077-.046-.049-.035-.032-.04.072-.022.075.013.147.006.16-.015.012-.02-.03-.047-.094-.057-.15-.025.56.008.92.041.151.015.263.013.249-.003-.015-.015-.32-.054-.677-.085-.359-.031-.575-.061-.482-.067l.169-.01-.17-.035a1.972 1.972 0 0 0-.285-.037c-.112-.002-.116.006-.116.209 0 .12.019.212.044.212.025 0 .033-.02.019-.043zm1.334.012a8.638 8.638 0 0 1-.265-.053c-.087-.02-.159-.019-.159 0 0 .037.183.069.402.07.108.001.111-.001.022-.017zm1.608-.182c0-.023-.062-.04-.137-.039-.116.002-.124.01-.053.04.117.05.19.05.19 0zm-7.118-.23c.166-.086.464-.422.559-.63.154-.34.074-.707-.155-.707-.239 0-.554.278-.655.578-.08.235-.072.572.016.707.086.13.083.13.235.052zm5.605.032a.164.164 0 0 0-.106 0c-.03.012-.005.021.053.021.058 0 .082-.01.053-.021zm-.234-.04c-.014-.014-.05-.016-.081-.003-.034.013-.024.024.026.026.044.002.07-.008.055-.023zm-.628-.127-.44-.09.397-.004c.473-.005.58-.048.129-.053-.228-.002-.291-.014-.23-.042.067-.031.052-.037-.07-.027-.086.007-.147-.003-.136-.021.012-.019-.042-.035-.12-.037l-.14-.003.118-.043c.084-.03.236-.024.541.025.71.112.74.067.04-.061-.36-.067-.681-.122-.712-.123-.042-.002-.05.04-.034.156.013.087.024.22.025.294l.002.136.536-.008.535-.008-.44-.09zm-.323.039a.238.238 0 0 1 .127.002c.029.011-.005.02-.075.02-.07-.002-.093-.011-.052-.022zm1.905 0a.754.754 0 0 0-.212-.001c-.064.01-.021.018.095.018.117 0 .17-.008.117-.018zm-.932-.465a.164.164 0 0 0-.106 0c-.029.012-.005.022.053.022.058 0 .082-.01.053-.022zm.508-.127a.163.163 0 0 0-.106 0c-.029.012-.005.022.053.022.058 0 .082-.01.053-.022zm-.295-.042a.246.246 0 0 0-.127-.002c-.042.01-.018.02.052.021.07.001.103-.008.075-.02zm1.48-.466a.163.163 0 0 0-.105 0c-.03.012-.005.022.053.022.058 0 .082-.01.052-.022zm.032-.141c0-.023-.071-.04-.159-.037-.158.005-.158.005-.031.037.183.046.19.046.19 0zm-.02-.392a96.554 96.554 0 0 0-.14-.56l-.115-.463-.216.012c-.194.01-.23-.002-.35-.122a.443.443 0 0 1-.024-.621l.109-.119-.07.115c-.116.189-.1.408.037.525.123.107.45.145.45.054 0-.165-.564-.97-.68-.97-.11 0-.326.269-.397.496-.137.436-.159.48-.256.503a.684.684 0 0 1-.27-.023c-.317-.085-.401-.378-.224-.778l.088-.2-.214.118c-.118.065-.36.251-.538.414-.277.254-.302.269-.171.106.139-.174.45-.45.655-.581.069-.044.063-.046-.038-.01-.16.055-.442.253-.61.43-.141.147-.328.562-.375.834-.024.133-.02.143.03.082a.798.798 0 0 1 .517-.247c.343 0 .523.385.328.703l-.08.132.451.028c.789.05 1.459.115 1.742.172.39.078.386.079.36-.03zm5.886-1.205c-.037-.095-.29-.432-.327-.434-.056-.003-.083.25-.036.337.082.153.418.242.363.097zm-4.961-.82c.061-.047.111-.105.111-.126 0-.022-.171-.04-.38-.04-.305 0-.382.013-.382.062 0 .187.453.26.65.105zm-1.161 23.114c-.095-.19-.166-.35-.157-.359.008-.008.095.146.193.343.097.197.168.359.157.359-.011 0-.098-.155-.193-.343zm1.615.1c.267-.444.516-.817.533-.8.02.02-.575.958-.608.958-.011 0 .022-.072.075-.159zm-.634.039c-.008-.085.086-.43.123-.453.018-.011.008.06-.021.16-.03.1-.064.218-.076.264-.012.047-.024.06-.026.029zm.9-.197c.038-.058.156-.248.262-.424.211-.347.31-.444.121-.117-.203.35-.397.645-.425.645-.014 0 .004-.047.042-.104zm-2.126-.13c-.07-.156-.057-.19.02-.048.035.066.057.128.047.138-.01.01-.04-.031-.067-.09zm-13.723.025a.237.237 0 0 1-.143-.11c-.034-.076-.07-.083-.326-.069-.263.015-.297.007-.395-.092-.095-.094-.108-.14-.101-.366.006-.242.017-.268.167-.403.242-.218.575-.367 1.37-.61.395-.122.898-.291 1.116-.377l.396-.156-.248-.045a2.44 2.44 0 0 1-.934-.352c-.27-.175-.411-.322-.688-.716-.18-.257-.188-.262-.379-.262-.228 0-1.469-.258-1.867-.388-.992-.324-1.736-.978-2.017-1.771-.192-.543-.106-1.009.256-1.38.276-.283.478-.345 1.317-.405.62-.044.91-.11.91-.206 0-.189-.3-.4-.868-.609-.438-.162-.567-.24-.65-.395-.068-.127.002-.287.173-.395.116-.073.19-.084.46-.07.845.043 1.71.825 1.763 1.593.017.242.006.299-.081.427-.205.304-.527.361-1.178.212-.644-.148-.947-.099-1.167.19-.166.218-.188.543-.06.886.122.322.507.71.915.921.295.154 1.41.581 1.743.669.1.026.212.06.249.073.056.022.061-.006.035-.192a1.84 1.84 0 0 1 .195-1.019c.16-.28.346-.373.618-.311.099.022.187.033.196.023.01-.009-.02-.116-.067-.237-.069-.18-.08-.288-.064-.6.011-.21.048-.448.082-.529.056-.137.06-.11.042.372-.015.433-.006.551.06.718.042.11.074.214.069.23-.005.017.063.04.15.054.391.06 1.138.361 1.218.491.037.06-.034.04-.616-.173-.638-.234-.726-.252-1.023-.21-.218.03-.286.062-.423.196-.21.205-.332.528-.332.879 0 .23.025.319.177.623.141.284.256.435.582.763.37.374.429.416.68.492.158.047.488.096.771.114.482.03.616.072.55.178-.016.026-.11.068-.208.095-.098.026-.365.14-.593.254-.485.241-.874.385-1.514.559-.556.15-.776.244-1 .422-.188.148-.194.22-.008.092.143-.098.331-.176.544-.224.198-.044.142.007-.108.1-.264.097-.448.216-.532.343-.064.099-.065.117-.004.21.05.074.138.117.327.158l.26.057.163-.154c.09-.086.269-.195.4-.244.327-.123.395-.11.087.017-.28.115-.562.362-.51.446.024.039.1.043.291.017.143-.02.383-.036.536-.037.327-.002.429-.058.635-.343.287-.396.686-.699 1.39-1.054.224-.113.872-.254 1.361-.297.459-.04 1.046-.267 1.452-.563.549-.4.721-.897.725-2.093l.002-.749.07.284c.04.156.145.426.235.6.287.558.375.953.267 1.207-.024.055-.03.004-.019-.148l.017-.233-.062.186c-.125.377-.14.346.136.26.135-.043.36-.126.502-.185.321-.134.872-.273 1.88-.474.9-.179 1.15-.262 1.353-.447l.145-.132-.103-.084c-.101-.082-.101-.083-.01-.063.124.027.405-.271.386-.408-.02-.131-.327-.147-.63-.032-.338.129-.3.074.074-.107.182-.089.34-.167.35-.175.01-.008-.024-.056-.076-.108-.126-.126-.441-.124-.657.003-.168.1-.212.057-.059-.057.071-.053.076-.064.018-.045a.566.566 0 0 1-.151.027c-.04 0-.444.235-.896.523-.752.478-1.561.948-1.458.845.061-.06 1.208-.85 1.63-1.124.807-.522.776-.505.91-.478.07.014.237.036.372.05.193.02.261.047.328.131a.383.383 0 0 1 .083.176c0 .039.057.091.127.118.11.041.127.07.127.206 0 .13-.03.188-.173.323-.134.128-.162.177-.125.222.062.075-.11.283-.313.38-.08.038-.504.163-.942.277-.438.114-1.053.296-1.368.403-.636.217-.985.325-1.27.394a2.75 2.75 0 0 0-.317.097c-.07.029-.211.057-.314.064-.117.007-.201.036-.225.078-.02.036-.06.067-.088.067-.028 0-.113.077-.19.17-.077.092-.129.168-.114.168.014 0 .111-.021.216-.048.133-.033.205-.034.235-.004.031.03-.044.054-.246.075-.16.016-.365.06-.456.096-.144.057-.155.07-.085.1.06.027.052.03-.034.014a.334.334 0 0 0-.19.019 2.346 2.346 0 0 1-.33.111c-.204.057-.237.078-.169.105.07.028.06.035-.053.037-.076.002-.505.157-.953.344-.448.188-.843.35-.878.36-.18.057.512-.262.942-.433.273-.109.49-.204.483-.212a2.023 2.023 0 0 0-.35.033c-.282.04-.425.095-.927.354-.325.168-.73.394-.9.503-.168.108-.306.187-.306.175 0-.042.7-.477 1.185-.736.268-.143.43-.248.36-.233-.07.015-.289.115-.487.222s-.489.26-.647.339c-.278.139-.538.35-.538.436 0 .023.022.028.049.011.031-.019.037-.011.017.022-.018.028-.041.043-.052.031-.011-.01-.119.075-.24.191-.263.254-.428.347-.557.314-.053-.013-.18.012-.281.055-.22.094-.441.13-.587.093zm6.453-3.221c.11-.37.158-.69.14-.93l-.015-.233-.016.275-.015.275-.03-.296c-.028-.286-.029-.283-.018.085.01.351-.037.612-.178.978-.012.033-.002.059.023.059s.074-.096.109-.213zm.084.181a.131.131 0 0 1 .081-.032c.059 0 .151-.25.149-.402-.001-.069-.028-.024-.078.127-.094.285-.103.236-.02-.106.033-.14.06-.33.058-.423-.002-.159-.006-.154-.06.085a5.289 5.289 0 0 1-.21.709c-.031.074.02.102.08.042zm-6.56-.639c-.022-.02-.183-.062-.358-.094-.303-.055-.31-.058-.148-.08.168-.023.166-.024-.118-.08-.415-.084-.32-.108.121-.03.205.035.38.056.39.047.01-.01-.056-.03-.145-.046-.26-.044-.825-.198-.804-.219.01-.01.092.001.182.027.31.085.246.038-.113-.084-.198-.068-.307-.114-.243-.103l.233.042c.185.034.067-.008-.477-.17-.996-.299-1.538-.657-1.824-1.208-.1-.194-.12-.283-.122-.555 0-.294.011-.342.128-.508.283-.404.576-.482 1.225-.33.51.12.893.148 1.034.073.438-.233.34-.918-.21-1.468a1.914 1.914 0 0 0-.926-.536c-.306-.078-.553-.052-.664.072-.12.132-.042.203.529.482.563.276.87.532.844.705-.028.186-.187.243-.86.309-.35.034-.74.093-.868.131a.99.99 0 0 0-.683 1.128c.096.522.297.87.752 1.306.454.434.803.647 1.413.861.623.22 1.854.455 1.712.328zm-.061-.133c0-.024-.062-.04-.138-.038l-.138.005.127.033c.07.017.132.034.138.037.006.003.01-.014.01-.037zm-.117-.24a.164.164 0 0 0-.106 0c-.029.012-.005.021.053.021.058 0 .082-.01.053-.021zm1.505 3.86c.16-.119.73-.307 1.21-.4.594-.115.742-.104.259.019-.21.053-.352.098-.317.1.14.01 1.1-.198 2.942-.636.663-.158.921-.209.968-.19.026.011.01.023-.037.026-.06.005-.042.022.06.06.139.05.13.052-.19.056-.344.005-1.413.233-1.288.275.035.012.01.015-.054.007s-.37.051-.677.131c-.678.177-1.29.28-1.746.297-.307.01-.65.099-1.143.295-.07.028-.068.021.013-.04zm12.312-.087c-.041-.107-.03-.134.02-.048.025.042.037.086.026.097-.011.01-.032-.011-.046-.05zm.544-.496a10.437 10.437 0 0 1-.342-.83 5.719 5.719 0 0 0-.151-.407 1.107 1.107 0 0 0-.205-.033 1.419 1.419 0 0 1-.34-.083c-.162-.07-.38-.297-.38-.398 0-.126.257-.562.4-.68.202-.167.676-.255.89-.166.203.085.288.236.286.508a.887.887 0 0 1-.33.695l-.155.127.132.448c.073.246.198.623.279.837.08.215.14.396.134.404-.007.007-.106-.183-.218-.422zm-.486-1.469c0-.146-.063-.2-.151-.127-.051.043-.058.04-.038-.012.014-.038-.021-.114-.084-.182-.06-.064-.108-.146-.108-.182 0-.119.175-.261.322-.261.26 0 .424.383.224.523-.071.05-.083.088-.06.193.016.072.052.13.081.13.085 0 .25-.199.214-.257-.02-.032-.015-.041.015-.023.116.072.192-.466.092-.653-.072-.134-.272-.21-.552-.21-.247 0-.269.009-.405.157-.12.132-.312.526-.312.642 0 .05.173.198.316.271.114.058.131.058.183-.005.032-.038.044-.043.028-.012-.033.065.048.132.16.133.055 0 .075-.034.075-.124zm.104-.297a.193.193 0 0 0 .048-.19c-.035-.142-.21-.188-.323-.085-.107.097-.105.129.02.254.126.126.158.128.255.021zm-5.615 2.086c.03-.012.067-.01.08.003.015.014-.01.024-.055.022-.05-.002-.06-.012-.025-.025zm-4.744-.041a.164.164 0 0 1 .105 0c.03.012.006.021-.052.021-.059 0-.083-.01-.053-.021zm.276-.044a.238.238 0 0 1 .127.002c.028.012-.005.02-.075.02-.07-.001-.094-.01-.052-.021zm.253-.042a.35.35 0 0 1 .148 0c.04.01.007.02-.074.02-.082 0-.115-.01-.074-.02zm.264-.036c.024-.009.795-.122 1.715-.253 1.593-.226 2.037-.3 1.524-.255-.128.011-.376.03-.55.041-.443.029.35-.072 1.481-.189.747-.076.881-.101.962-.177.052-.048.084-.104.072-.124-.013-.02 0-.036.026-.036.076 0 .507-.384.507-.452 0-.195-.799-.28-1.364-.146-.203.049-.432.079-.508.067-.101-.015-.116-.011-.056.015.078.034.077.038-.021.059-1.02.217-1.404.296-1.544.316a17.43 17.43 0 0 0-.655.123c-.267.054-.492.092-.5.083-.008-.008.143-.054.337-.103.313-.078.326-.085.12-.063-.379.042-.23-.01.36-.124.713-.139.783-.15.762-.115-.01.016-.212.064-.45.108-.238.043-.412.086-.387.094.047.016 1.628-.28 1.658-.31.01-.01-.103-.013-.252-.007-.257.01-.273.005-.327-.106-.031-.064-.077-.117-.101-.117-.024 0-.453.078-.954.172-.5.095-.929.165-.952.157-.024-.008.287-.076.69-.152 1.188-.224 1.191-.225 1.152-.264-.022-.022-.299.015-.665.09-.344.071-.648.122-.676.113-.027-.01.132-.05.353-.09.221-.04.507-.1.635-.132l.233-.06-.292.01c-.18.005-.298-.01-.308-.037-.01-.028.055-.05.163-.053a1.34 1.34 0 0 0 .256-.031c.041-.014.075-.006.075.015 0 .022.053.03.117.02.094-.014.104-.008.053.03-.05.038-.028.045.105.03.093-.01.135-.008.093.002-.11.026-.06.119.06.11.061-.006.072 0 .027.013-.094.027-.093.067.005.188.078.096.085.097.37.042.364-.07.64-.115 1.188-.19.669-.093 1.284.017 1.284.229 0 .05-.11.17-.286.31a3.794 3.794 0 0 0-.349.304c-.06.073-.054.076.126.047.103-.016.177-.018.163-.004-.075.075-1.392.287-3.661.591-1.617.217-1.924.253-1.814.212zm3.716-.555a.246.246 0 0 0-.127-.002c-.041.01-.018.02.052.02.07.002.104-.007.075-.019zm-.043-.932a.163.163 0 0 0-.106 0c-.03.012-.005.021.053.021.058 0 .082-.01.053-.02zm-1.377-.378c-.014-.015-.05-.016-.081-.003-.034.013-.024.023.025.025.045.002.07-.008.056-.022zm.933 1.858a.458.458 0 0 1 .17 0c.04.011-.004.02-.097.02-.093-.001-.126-.01-.073-.02zm.687-.075c.245-.031.53-.056.635-.055h.19l-.232.035a9.021 9.021 0 0 1-.635.055l-.402.021.444-.056zm-5.596-.01c.03-.011.067-.01.081.004.014.014-.01.024-.055.022-.05-.002-.06-.012-.026-.025zm.167-.04a.164.164 0 0 1 .106 0c.029.011.005.02-.053.02-.058 0-.082-.01-.053-.02zm4.044-.002a.238.238 0 0 1 .127.002c.028.012-.005.02-.075.02-.07 0-.094-.01-.052-.021zm-4.21-.041c.03-.013.066-.011.08.003.014.014-.01.024-.055.022-.05-.002-.06-.012-.026-.026zm.4 0a.238.238 0 0 1 .127.001c.028.012-.005.02-.075.02-.07-.001-.094-.01-.052-.021zm4.148 0a.238.238 0 0 1 .127.001c.029.012-.005.02-.075.02-.07-.001-.093-.01-.052-.021zm-4.33-.056c.176-.058 1.033-.254 1.112-.254.04 0 .074-.02.074-.045 0-.026.036-.034.083-.02.045.015.25-.014.455-.064.205-.05.506-.096.669-.102.338-.013.361-.019-.741.188-.384.073-.916.178-1.182.235-.484.104-.668.128-.47.062zm.424.016c.035-.009.626-.122 1.313-.251.686-.13 1.296-.247 1.354-.26.058-.014.096-.014.083 0-.051.057-2.568.545-2.745.532-.056-.004-.057-.008-.005-.02zm4.202-.003a.35.35 0 0 1 .148 0c.04.01.007.02-.074.02-.082 0-.115-.01-.074-.02zm.338-.042a.35.35 0 0 1 .149 0c.04.01.007.02-.074.02-.082 0-.115-.01-.075-.02zm-2.496-.043a.238.238 0 0 1 .127.002c.028.012-.005.02-.075.02-.07 0-.094-.01-.052-.021zm2.814 0a.458.458 0 0 1 .17 0c.04.011-.003.02-.096.02-.093-.001-.126-.01-.074-.02zm-5.662-.033c0-.03.344-.2.363-.181.009.009-.07.058-.174.108-.104.051-.19.083-.19.073zm3.207-.01a.457.457 0 0 1 .17.001c.04.011-.003.02-.096.019-.093 0-.127-.01-.074-.02zm2.794 0a.457.457 0 0 1 .17.001c.04.011-.003.02-.096.019-.093 0-.127-.01-.074-.02zm-2.456-.042a.603.603 0 0 1 .19 0c.053.01.01.019-.094.019-.105 0-.148-.008-.096-.019zm2.816 0a.238.238 0 0 1 .127.003c.029.011-.005.02-.075.02-.07-.002-.093-.011-.052-.022zm-2.435-.042a.603.603 0 0 1 .19 0c.053.01.01.018-.094.018-.105 0-.148-.008-.096-.018zm-3.291-.097a.254.254 0 0 1 .106-.041c.023 0 .013.018-.021.04a.254.254 0 0 1-.106.042c-.024 0-.014-.019.02-.041zm.17-.055c0-.062 1.805-.668 1.891-.635.04.016.059.01.043-.015-.015-.025.03-.042.11-.041.074 0 .43-.05.792-.112.36-.062.75-.123.867-.135.446-.047-.05.058-1.1.233-1.028.17-1.5.301-2.53.698-.04.016-.074.019-.074.007zm.38-.002c0-.05 1.934-.649 1.972-.61.009.008-.169.07-.396.135-.382.11-1.38.423-1.516.475-.033.013-.06.013-.06 0zm2.964-.028c-.096-.03-.092-.034.042-.034.081 0 .196.015.254.034.096.03.092.034-.042.034-.082 0-.196-.016-.254-.034zm.317-.046c-.092-.026-.05-.031.148-.02.206.013.243.008.148-.02-.093-.027-.047-.033.17-.021.178.01.237.004.148-.014-.121-.023-.066-.038.3-.082.248-.03.48-.042.516-.028.036.014.268-.005.515-.041.544-.08.729-.08.256.002-.443.076-1.922.271-2.007.265a1.374 1.374 0 0 1-.194-.04zm1.027-.11a.35.35 0 0 0-.148 0c-.04.01-.008.019.074.019.081 0 .115-.01.074-.02zm.318-.041a.246.246 0 0 0-.127-.002c-.04.01-.017.02.052.02.07.002.104-.007.075-.019zm-3.787.125c.03-.012.067-.01.081.003.015.015-.01.025-.055.023-.05-.002-.06-.012-.026-.026zm.368-.098c.14-.045.311-.092.381-.103.07-.012.013.016-.127.061s-.311.092-.38.104c-.07.011-.014-.016.126-.062zm1.768.056a.238.238 0 0 1 .127.002c.029.011-.005.02-.075.02-.07-.002-.093-.011-.052-.022zm-1.458-.042c.03-.012.067-.01.08.003.015.014-.01.024-.055.022-.05-.002-.06-.012-.025-.026zm.423 0c.03-.012.067-.01.081.003.014.014-.01.024-.055.022-.05-.002-.06-.012-.026-.026zm1.332 0a.238.238 0 0 1 .127.001c.028.012-.005.02-.075.02-.07 0-.094-.01-.052-.021zm-1.586-.042c.03-.013.067-.011.081.003.014.014-.01.024-.055.022-.05-.002-.06-.012-.026-.026zm.431-.01a.825.825 0 0 1 .233-.063c.12-.018.139-.015.064.01-.195.065-.365.095-.297.053zm1.451.01a.238.238 0 0 1 .127.002c.029.011-.005.02-.075.02-.07-.002-.093-.011-.052-.022zm-1.713-.042c.03-.013.067-.011.081.003.015.014-.01.024-.055.022-.05-.002-.06-.012-.026-.026zm1.967 0a.238.238 0 0 1 .127.001c.029.012-.005.02-.075.02-.07-.001-.093-.01-.052-.021zm-1.797-.043c.03-.012.067-.01.08.003.015.014-.01.024-.055.023-.05-.002-.06-.013-.025-.026zm2.051 0a.238.238 0 0 1 .127.002c.029.012-.005.02-.075.02-.07-.001-.093-.01-.052-.022zm-1.882-.042c.03-.012.067-.01.081.003.014.014-.01.024-.055.022-.05-.002-.06-.012-.026-.025zm.558-.02c.128-.022.322-.065.43-.096a.93.93 0 0 1 .318-.037c.093.015.106.009.057-.026-.035-.024-.045-.045-.021-.045.023 0 .258-.05.522-.11.264-.059.5-.1.526-.092.025.008-.167.06-.428.115-.26.054-.467.105-.46.113.02.02.919-.103 1.801-.246.427-.07.788-.115.801-.102.013.014.006.025-.016.025s-.344.057-.716.127c-1.767.335-2.035.381-2.094.365-.035-.009-.008-.02.06-.022.068-.003.112-.016.099-.03-.014-.013-.227.007-.474.043a5.229 5.229 0 0 1-.544.061c-.051-.003.011-.023.14-.044zm1.047-.104c-.014-.014-.05-.015-.081-.003-.034.014-.024.024.026.026.044.002.07-.008.055-.022zm-.504.124c.03-.012.067-.01.08.003.015.014-.01.024-.055.022-.05-.002-.06-.012-.025-.025zm1.035 0a.238.238 0 0 1 .127.002c.029.011-.005.02-.075.02-.07-.002-.093-.011-.052-.022zm-1.967-.042c.03-.012.067-.011.081.003.015.014-.01.024-.055.022-.05-.002-.06-.012-.026-.026zm2.221 0a.238.238 0 0 1 .127.001c.029.012-.005.02-.075.02-.07-.001-.093-.01-.052-.021zm-2.051-.043c.03-.012.067-.01.08.003.015.014-.01.024-.055.023-.05-.002-.06-.013-.025-.026zm2.283.001a.164.164 0 0 1 .106 0c.029.012.005.022-.053.022-.058 0-.082-.01-.053-.022zm-6.382-.141a.254.254 0 0 1 .106-.041c.023 0 .014.018-.021.041a.254.254 0 0 1-.106.041c-.023 0-.014-.019.021-.041zm2.89-.156a.238.238 0 0 1 .127.002c.029.011-.005.02-.075.02-.07-.002-.093-.011-.052-.022zm3.365-.084a.164.164 0 0 1 .106 0c.029.012.005.022-.053.022-.058 0-.082-.01-.053-.022zm.212-.042a.164.164 0 0 1 .106 0c.029.012.005.021-.053.021-.059 0-.082-.01-.053-.021zm.254-.042a.163.163 0 0 1 .106 0c.029.011.005.02-.053.02-.059 0-.082-.01-.053-.02zm.211-.043a.164.164 0 0 1 .106 0c.03.012.005.022-.053.022-.058 0-.082-.01-.053-.022zm.212-.042a.164.164 0 0 1 .106 0c.029.012.005.021-.053.021-.058 0-.082-.01-.053-.021zm-5.662-.596c-.092-.467-.212-.899-.318-1.138-.059-.132-.1-.248-.09-.256.02-.022.226.452.351.812.097.279.183.825.13.825-.014 0-.046-.11-.073-.243zm3.548.214c.03-.012.067-.01.081.003.014.014-.01.024-.055.022-.05-.002-.06-.012-.026-.025zm-6.187-1.281c-.117-.13-.41-.606-.314-.51.03.03.437.571.473.629.06.098-.012.043-.16-.12zm-.218-.05c-.157-.174-.316-.468-.317-.587 0-.035.045.032.1.148.054.116.18.302.278.413.098.11.16.2.137.2-.022 0-.111-.078-.198-.173zm.402.006c-.059-.046-.085-.084-.06-.084.026 0 .081.037.123.084.097.106.073.106-.063 0zm5.055-.19c.023-.408-.054-1.056-.165-1.408-.057-.179-.096-.332-.088-.34.022-.022.187.43.26.708.064.249.074.955.015 1.166-.027.096-.032.064-.022-.127zm1.366.168a12.49 12.49 0 0 1-.093-.867c-.1-1.167-.179-1.533-.387-1.81-.209-.277-.421-.32-.882-.177-.156.048-.294.078-.306.066-.036-.036.233-.182.48-.26.219-.068.244-.068.42-.002.445.17.71.775.821 1.88.052.504.054 1.047.006 1.17l-.033.085-.026-.085zm-5.061-1.353c-.096-.104-.175-.203-.175-.22 0-.043.294.245.344.335.065.12.017.087-.17-.115zm4.55-.352a4.955 4.955 0 0 1-.13-.326c-.06-.16-.159-.36-.219-.443-.108-.15-.108-.15.054.02.09.092.175.164.19.16.015-.006.019.032.007.084-.016.076-.011.082.025.03.025-.035.047-.044.048-.02.001.022.028.151.06.285.032.134.042.243.022.243a.076.076 0 0 1-.056-.033zm-5.045-.506c-.097-.232-.24-.768-.22-.828.01-.028.043.054.074.182.03.128.1.361.152.519.105.31.102.382-.006.127zm3.745-.464a3.763 3.763 0 0 1-.434-.525c-.096-.165-.325-.76-.323-.84 0-.013.102.166.227.398s.32.528.435.656c.528.593.6.834.095.311zm-1.433.066c.047-.12.114-.267.149-.328.059-.102.061-.103.036-.011-.038.141-.225.557-.25.557-.011 0 .018-.098.065-.218zm-.13-.177c0-.033.06-.249.13-.479.072-.23.141-.517.155-.64l.024-.222h-.145c-.382 0-1.616.199-1.581.255.012.019-.06.064-.159.101l-.18.068.162-.024a1.5 1.5 0 0 0 .232-.05c.065-.025.065-.021-.002.046-.09.092-.598.268-.868.3-.162.02-.14.009.116-.06.395-.107.45-.133.233-.111a3.1 3.1 0 0 1-.487-.015l-.318-.032.318-.015c.175-.008.394-.013.487-.01.113.004.142-.005.088-.026-.065-.024-.04-.042.118-.086.109-.031.19-.064.18-.074-.009-.01-.138.015-.286.055-.347.094-1.015.1-1.222.01-.14-.06-.113-.063.508-.06.63.003.68-.003 1.27-.159.697-.183 1.385-.293 2.307-.367.752-.06.741-.058.741-.168 0-.048.067-.295.15-.549.126-.39.453-1.776.621-2.635l.047-.24.16.082c.327.166.418.072.25-.257a.883.883 0 0 1-.085-.21c0-.024.067-.118.148-.208.154-.17.175-.237.107-.344-.03-.047-.121-.064-.349-.064-.347 0-.333.02-.264-.391.026-.15.02-.18-.039-.18-.088 0-.185.098-.344.349-.186.295-.21.294-.446-.01-.069-.09-.088-.097-.124-.043-.117.175.043.712.256.862.09.062.09.066.021.404a7.377 7.377 0 0 1-.22.776c-.148.426-.62 1.5-.692 1.572-.02.02.065-.238.188-.572.33-.896.33-.861-.025-.521-.172.163-.381.354-.465.423l-.152.125.045.286.044.286.15.004.15.004-.148.039c-.193.05-.698.055-2.096.019-.936-.025-1.207-.018-1.5.034-.198.036-.366.058-.374.05-.008-.008.162-.058.38-.111.537-.13 1.288-.152 2.257-.064.813.073 1.052.06 1.02-.055a6.585 6.585 0 0 1-.043-.598l-.023-.53.063.273c.034.15.067.276.073.28.005.006.239-.24.518-.545l.508-.554.157-.489.157-.488-.12-.127a1.41 1.41 0 0 1-.196-.275c-.085-.169-.1-.487-.026-.56a.206.206 0 0 0 .05-.128c0-.066.01-.07.067-.023.133.108.25.23.295.308.04.07.066.048.234-.193.138-.2.228-.285.336-.32.134-.044.15-.04.182.042.035.092.02.315-.034.475-.027.085-.015.089.243.085.183-.003.296.017.347.059a.318.318 0 0 0 .124.068c.157.015.169.025.079.06-.055.023-.096.076-.096.124 0 .046-.057.15-.127.229-.07.08-.127.17-.127.202 0 .064.117.441.171.55.054.109-.377.108-.516-.001l-.105-.083-.048.452c-.05.479-.116.748-.51 2.1-.193.662-.266.857-.34.906-.13.087-.779.218-1.086.22-.14 0-.273.015-.296.032-.023.017-.045.174-.047.348-.004.25-.034.393-.14.666-.13.334-.215.467-.215.337zm-1.62-.859c-.014-.014-.05-.015-.08-.003-.034.014-.024.024.025.026.045.002.07-.008.055-.022zm-1.677.28a11.073 11.073 0 0 0-.132-.334c-.07-.173-.12-.322-.11-.331.036-.037.287.533.268.608-.012.043-.023.069-.026.057zm.705-.028a.163.163 0 0 1 .106 0c.029.012.005.021-.053.021-.059 0-.082-.01-.053-.021zm.233-.17a.238.238 0 0 1 .127.001c.029.012-.005.02-.075.02-.07-.001-.093-.01-.052-.021zm-1.357-.286c-.501-.398-.6-.803-.332-1.359.078-.162.185-.333.237-.38l.096-.084-.093.158a1.85 1.85 0 0 0-.212.752c0 .181.167.551.353.781.26.323.245.366-.05.132zm4.233-.7c.3-.054.897-.093.711-.045-.081.021-.32.048-.529.06-.287.017-.332.013-.182-.014zm-.397-.072c.03-.013.067-.011.08.003.015.014-.01.024-.055.022-.05-.002-.06-.012-.025-.026zm.251-.042a.163.163 0 0 1 .106 0c.029.012.005.021-.053.021-.058 0-.082-.01-.053-.02zm10.724-.97c.002-.05.012-.06.026-.026.012.03.01.067-.003.081-.014.014-.024-.01-.022-.055zm.043-.17c.002-.049.012-.059.025-.025.012.03.01.067-.003.081-.014.014-.024-.01-.022-.056zm-14.957-.058a3.658 3.658 0 0 1-.613-.19c-.388-.177-.69-.51-.69-.762 0-.143-.055-.138-.441.046-.322.152-.326.153-.78.134-.25-.01-.478-.033-.507-.05-.123-.076.03-.11.493-.11.433 0 .539-.016.854-.123.342-.115.36-.128.373-.254l.014-.134-.225.09c-.506.2-.59.217-1.008.192-.448-.027-.593-.057-.593-.121 0-.03.101-.032.307-.007.604.071.825.051 1.21-.109.288-.12.362-.17.406-.275.108-.259.285-.596.365-.7.046-.057-.003.078-.108.302-.22.472-.232.546-.087.546.208 0 .534.193.53.314 0 .025-.026.012-.057-.028-.13-.17-.585-.267-.635-.135-.056.145-.024.182.196.228.122.025.251.066.286.091.05.036.046.04-.021.015a1.735 1.735 0 0 0-.29-.052c-.202-.021-.206-.02-.175.08.059.19.146.327.263.409.567.4 1.53.506 2.258.249.366-.129.435-.139.314-.044-.082.065-.081.066.022.037.12-.034.744-.384.859-.482a.344.344 0 0 1 .13-.072 1.32 1.32 0 0 0 .259-.136c.212-.132.738-.787.91-1.133.28-.566.164-1.221-.256-1.438-.153-.08-.166-.078-.17.012-.001.056-.011.05-.04-.022-.04-.1-.23-.198-.299-.156-.021.013-.039.004-.039-.021s-.019-.045-.042-.045c-.083 0-1.208-.431-1.27-.487-.173-.155-.747-.494-.908-.537-.216-.058-.46-.005-.481.103-.008.04.096.188.243.347.271.291.303.383.183.525-.077.09-.584.333-.537.257.014-.024-.002-.076-.036-.115a2.34 2.34 0 0 1-.194-.334 1.14 1.14 0 0 0-.329-.413c-.186-.142-.481-.489-.416-.489.017 0 .179.15.36.333.228.23.377.427.482.635.084.166.166.302.184.301.073-.002.433-.302.433-.36 0-.035-.114-.187-.254-.337-.272-.292-.313-.42-.175-.546.098-.088.333-.13.527-.094.08.015.298.12.485.234l.34.207.03-.29c.04-.41.006-.516-.241-.738-.222-.2-.184-.273.055-.103.22.156.264.3.234.762-.023.344-.016.418.04.465.06.05.065.005.053-.471-.014-.519-.017-.53-.156-.731-.178-.256-.152-.296.048-.075.187.207.219.36.186.901-.028.45.009.627.129.627.04 0 .292.067.558.149.265.081.486.143.49.137.057-.089.192-.755.173-.855-.013-.072-.113-.232-.22-.355-.222-.254-.219-.33.008-.157.351.269.408.52.232 1.024-.07.203-.124.372-.118.377a.706.706 0 0 0 .105.037c.083.026.096.014.096-.09 0-.065.029-.224.063-.352.101-.377.084-.629-.06-.856-.131-.206-.13-.27.004-.198.241.13.313.55.167.976a3.158 3.158 0 0 0-.109.403c-.026.157-.02.175.07.197.219.055.493.285.603.505.202.406.124 1.033-.184 1.465-.052.073-.087.133-.078.133.008 0 .097-.04.196-.087.099-.048.232-.094.296-.102.205-.026.48-.122.5-.175.01-.028-.031-.39-.093-.807-.123-.831-.19-1.865-.117-1.82.06.037.13.556.183 1.382.025.384.063.813.085.953.073.468.082.452-.329.529a4.44 4.44 0 0 0-.499.14c-.295.101-.297.103-.347.302-.15.594-.985 1.214-1.875 1.392-.542.109-1.358.122-1.788.03zm1.2-.02c.758-.102 1.539-.447 2.022-.894.232-.215.386-.443.386-.574 0-.03-.081.024-.18.12-.208.203-.916.685-1.268.863a3.7 3.7 0 0 1-.571.212 3.34 3.34 0 0 0-.446.149 2.22 2.22 0 0 1-.339.12c-.288.077-.165.078.396.003zm13.802-.066c0-.035.016-.102.036-.148.023-.054.036-.062.036-.022a.466.466 0 0 1-.036.149c-.023.053-.036.06-.036.02zm-11.005-.106c.001-.07.01-.093.021-.052.011.041.01.098-.001.127-.012.029-.02-.005-.02-.075zm11.084-.173c.002-.076.246-.969.25-.914.003.064-.206.908-.233.935-.01.01-.017 0-.017-.02zm-.31-.076a.446.446 0 0 1-.027-.146c.002-.047.017-.036.044.032.022.056.034.121.026.146-.008.024-.028.01-.044-.032zm.034-.238c-.016-.073-.02-.142-.01-.153.01-.01.032.042.047.116.035.177 0 .21-.037.037zm-14.478.036c-.454-.167-.661-.592-.426-.872.12-.142.306-.205.722-.244.163-.016.419-.055.568-.089.149-.033.279-.052.288-.042.03.03-.418.148-.677.178-.25.03-.284.07-.216.247.027.072.143.093.143.025 0-.076.202-.174.515-.25.522-.125.612-.185.96-.638.07-.092.134-.129.223-.129.168 0 .21-.114.08-.22-.096-.078-.099-.077-.201.018a1.665 1.665 0 0 0-.231.319c-.124.219-.296.391-.388.391-.026 0 .01-.049.08-.108l.126-.107-.14.068c-.392.19-.655-.228-.34-.542.082-.083.112-.14.08-.15a1.043 1.043 0 0 1-.197-.145l-.145-.127.043.114a.82.82 0 0 1-.037.6c-.222.488-.909.527-1.208.068-.266-.407-.114-.877.34-1.05.155-.06.213-.062.406-.017.127.029.276.1.342.161l.117.11-.047-.137c-.152-.435.319-.918.791-.811.304.068.525.413.466.725-.04.213-.177.41-.341.488-.12.057-.14.083-.106.145.022.04.04.137.04.213v.138l.12-.188c.25-.395.598-.597.871-.507.254.084.364.367.279.722-.07.293-.244.51-.602.756-.17.116-.451.326-.626.468-.411.333-.673.434-1.164.452-.21.008-.438-.007-.508-.033zm1.122-.16a2.13 2.13 0 0 0 .496-.31l.262-.222-.194-.013c-.467-.032-1.361.165-1.702.375-.172.106-.142.154.151.236.265.075.69.047.987-.066zm-.61-1.395c.18-.11.286-.35.26-.586-.012-.104-.045-.21-.073-.237-.04-.039-.046-.03-.024.042.065.218-.174.519-.486.612-.197.06-.355.023-.489-.11-.12-.12-.126-.107-.036.066.141.275.57.382.848.213zm.864.042c0-.051-.189-.095-.272-.063-.123.047-.068.1.103.1.093 0 .169-.016.169-.037zm.16-.27c.016-.227-.076-.315-.258-.246-.125.048-.283.24-.283.345 0 .063.025.073.143.053a.403.403 0 0 1 .223.023c.124.072.162.035.176-.175zm.251-.598a.53.53 0 0 0-.243-.878c-.138-.04-.197-.037-.357.024a.662.662 0 0 0-.256.164c-.109.156-.069.178.069.038.184-.189.398-.247.598-.164.123.052.16.093.182.212.035.19-.077.433-.238.517-.156.08-.42.078-.538-.004-.122-.086-.121-.016.002.095.166.15.26.185.453.167.15-.015.218-.05.328-.17zm-1.863-.182c.18-.108.16-.132-.028-.035-.117.06-.298.271-.298.346 0 .02.037-.02.083-.089a.903.903 0 0 1 .243-.222zm.542-.055a.099.099 0 0 0-.077-.042c-.03 0-.025.017.013.042.082.052.096.052.064 0zm14.104 2.414c.014-.081.05-.224.082-.318.054-.162.055-.163.031-.023-.014.081-.05.224-.082.318-.054.162-.055.163-.031.023zm-.062-.107c0-.047.015-.132.034-.19.026-.084.034-.089.034-.022a.763.763 0 0 1-.034.19c-.027.085-.034.089-.034.022zm-12.2-.006c0-.037.171-.312.194-.312.01 0-.02.076-.068.17-.08.155-.127.209-.127.142zm12.113-.1c0-.058.01-.082.022-.053a.164.164 0 0 1 0 .106c-.012.029-.022.005-.022-.053zm.044-.233c.001-.07.01-.093.021-.052.011.041.01.098-.002.127-.011.029-.02-.005-.02-.075zm.126-.064c0-.058.01-.082.021-.052a.164.164 0 0 1 0 .105c-.012.03-.021.005-.021-.053zm.123-.067c.002-.049.012-.059.026-.025.012.03.01.067-.003.08-.014.015-.024-.01-.022-.055zm-.206-.123c0-.07.01-.093.02-.052.011.041.01.098-.001.127-.012.029-.02-.005-.02-.075zm.127 0c0-.047.024-.18.054-.296.03-.117.055-.174.055-.127 0 .046-.023.18-.053.296-.03.116-.055.173-.056.127zm-15.291.005c0-.01.033-.042.074-.074.067-.053.069-.051.016.016-.055.07-.09.093-.09.058zm15.413-.051c.002-.05.012-.06.025-.026.012.03.011.067-.003.081-.014.015-.024-.01-.022-.055zm-.21-.145c-.009-.095.434-2.514.45-2.465.012.035-.372 2.238-.43 2.465-.014.057-.016.057-.02 0zm.252-.024c.002-.05.012-.06.026-.026.012.03.01.067-.003.081-.015.014-.025-.01-.023-.056zm.042-.17c.002-.05.012-.06.026-.025.012.03.01.067-.003.08-.014.015-.024-.01-.022-.055zm-.333-.208c0-.07.01-.093.02-.052.011.041.01.098-.001.127-.012.029-.02-.005-.02-.075zm.376.039c.002-.05.012-.06.025-.026.012.03.01.067-.003.081-.014.015-.024-.01-.022-.055zm-.124-.06c0-.058.01-.082.021-.053a.164.164 0 0 1 0 .106c-.011.029-.021.005-.021-.053zm.166-.11c.002-.049.012-.059.026-.025.012.03.01.067-.003.081-.015.014-.025-.01-.023-.056zm-.124-.06a3.48 3.48 0 0 1 .08-.423c.044-.198.071-.274.06-.17-.026.22-.136.689-.14.594zm-.252-.105c0-.07.01-.094.021-.052.01.04.01.098-.002.127-.012.028-.02-.005-.02-.075zm-15.768-.498c-.548-.73-.634-1.066-.3-1.176.212-.07.536.016 1.087.29.02.009-.014-.08-.075-.2-.096-.19-.14-.23-.382-.339-.192-.087-.299-.166-.36-.265-.134-.22-.1-.287.054-.104.076.09.243.224.37.298.206.12.254.177.432.511.11.207.196.38.19.385a3.784 3.784 0 0 1-.363-.196c-.357-.206-.702-.315-.841-.265-.19.068-.187.088.138.737.174.347.308.631.298.631-.01 0-.121-.138-.248-.307zm15.81.16c.001-.07.01-.094.021-.053.011.041.01.098-.002.127-.011.029-.02-.005-.02-.075zm-15.477-.091c-.016-.042-.016-.063 0-.046.017.016.096-.105.176-.27.08-.165.138-.305.13-.312a4.043 4.043 0 0 0-.234-.123c-.417-.21-.488-.126-.266.313.07.14.118.253.107.253-.012 0-.08-.116-.152-.258-.22-.435-.111-.562.31-.362.362.172.353.15.184.476-.208.407-.22.421-.255.329zm11.924-.13a.238.238 0 0 1 .127.002c.029.012-.005.02-.075.02-.07-.001-.093-.01-.052-.021zm3.597-.097c0-.082.01-.115.02-.075a.35.35 0 0 1 0 .149c-.011.04-.02.007-.02-.074zm-4.116-.082c-.69-.186-1.536-.487-1.695-.602-.252-.182-.36-.473-.118-.318.054.035.27.115.48.178.288.087 1.596.704 1.71.808.036.031-.107.007-.377-.066zm4.452-.045c0-.059.01-.082.02-.053a.164.164 0 0 1 0 .105c-.01.03-.02.005-.02-.052zm-12.495.026c0-.01.033-.042.074-.074.067-.053.068-.051.016.016-.056.07-.09.093-.09.058zm12.201-.238c0-.082.01-.115.02-.074a.35.35 0 0 1 0 .148c-.01.04-.02.007-.02-.074zm-.133.017c.002-.049.012-.059.026-.025.012.03.01.067-.003.08-.015.015-.025-.01-.023-.055zm.466 0c.002-.049.012-.059.025-.025.012.03.01.067-.003.08-.014.015-.024-.01-.022-.055zm-9.69-.26c-.086-.292-.22-.94-.22-1.067v-.125l.243.084c.351.12.38.095.182-.167-.094-.124-.17-.27-.17-.324 0-.054.065-.176.145-.273.084-.099.136-.201.123-.237-.041-.107-.206-.116-.394-.02a.669.669 0 0 1-.312.078l-.134-.013-.013-.286c-.01-.247-.023-.286-.092-.286-.124 0-.24.184-.319.51-.084.342-.148.399-.354.312-.432-.182-.463.087-.056.482l.241.234-.185-.102c-.262-.145-.429-.348-.429-.522 0-.22.142-.288.48-.229.058.01.1-.044.176-.23.134-.325.258-.491.391-.525.155-.038.266.107.266.347 0 .101.017.194.037.207.021.013.106-.005.19-.04.21-.088.463-.081.55.015.097.108.087.22-.037.388-.136.185-.132.276.024.506.169.249.154.363-.045.359a1.31 1.31 0 0 1-.27-.038c-.088-.025-.115-.021-.094.012.031.051.16 1.073.137 1.095-.007.007-.034-.058-.06-.145zm9.732.049c.002-.05.012-.06.026-.026.012.03.01.067-.003.081-.015.014-.025-.01-.023-.055zm-.331-.166c0-.093.009-.126.019-.074.01.053.01.13 0 .17-.012.04-.02-.003-.02-.096zm-.13-.042c.001-.07.01-.094.021-.052.011.04.01.098-.002.127-.011.028-.02-.005-.02-.075zm-4.238-.064c.062-.13.081-.153.081-.1 0 .023-.03.079-.065.124-.063.077-.063.076-.016-.024zm4.41-.254c0-.081.008-.115.019-.074a.35.35 0 0 1 0 .148c-.011.041-.02.007-.02-.074zm-.128-.042c0-.082.01-.115.02-.074a.35.35 0 0 1 0 .148c-.011.04-.02.007-.02-.074zm-13.853.057c0-.01.075-.052.166-.093l.166-.075-.256-.16c-.282-.176-.541-.246-.541-.147 0 .033.058.136.13.228l.13.169-.15-.166c-.275-.3-.163-.433.216-.26.224.103.583.356.55.388-.027.028-.41.136-.41.116zm7.876-.133c0-.03.025-.119.059-.198.072-.174 1.033-1.8 1.063-1.8.012 0-.178.395-.422.878-.4.792-.695 1.266-.7 1.12zm6.357-.115c0-.07.01-.093.02-.052.011.041.01.099-.001.127-.012.029-.02-.005-.02-.075zm-.212-.127c0-.07.01-.093.021-.052.01.041.01.099-.002.127-.012.029-.02-.005-.02-.075zm-.127-.042c0-.07.01-.093.021-.052.01.041.01.098-.002.127-.012.029-.02-.005-.02-.075zm.38-.063c0-.059.01-.082.02-.053a.164.164 0 0 1 0 .105c-.011.03-.02.005-.02-.052zm-5.877-.257c.307-.671 1.124-2.134 1.127-2.018.002.07-1.162 2.225-1.248 2.31-.013.013.041-.118.12-.292zm-4.787.101c-.18-.19-.188-.365-.022-.43.166-.064.448-.135.466-.116.033.033.062.488.037.588-.022.088-.051.105-.184.105-.126 0-.187-.03-.297-.147zm10.453-.077c.001-.07.01-.094.021-.052.011.04.01.098-.002.127-.011.028-.02-.005-.02-.075zm.253.02c0-.057.01-.081.02-.052a.164.164 0 0 1 0 .106c-.01.029-.02.005-.02-.053zm-9.953-.164c-.032-.06-.028-.086.014-.103.067-.025.153.047.153.128 0 .084-.118.066-.167-.025zm7.043-.332c.306-.709.375-.86.39-.845.038.038-.458 1.173-.513 1.173-.01 0 .045-.148.123-.328zm-8.29.078c-.041-.046-.056-.091-.033-.106.039-.023.086.018.152.133.047.082-.038.063-.12-.027zm8.141-.28c.172-.345.342-.621.342-.556 0 .047-.358.703-.443.81-.037.047.009-.067.101-.254zm-7.003.104c-.039-.061.059-.167.154-.167.09 0 .105.085.029.16-.063.063-.147.066-.183.008zm6.884-.188c0-.024.065-.166.144-.318.08-.151.144-.256.144-.233 0 .024-.065.167-.144.318-.08.151-.144.256-.144.233zm-7.428-.05c-.048-.05-.028-.171.037-.225.054-.045.063-.034.063.077 0 .128-.048.2-.1.147zm6.402-.374c.253-.493.426-.782.428-.712.001.056-.532 1.027-.6 1.093-.025.024.053-.148.172-.38zm1.052.086c.062-.127.12-.224.13-.216.018.02-.195.448-.224.448-.01 0 .031-.104.094-.232zm-.157.023c0-.022.019-.052.042-.066.024-.015.03.002.016.04-.028.073-.058.087-.058.026zm-10.1-1.774a.861.861 0 0 1-.265-.198c-.117-.148-.218-.49-.218-.732 0-.161.021-.21.15-.331l.152-.143h-.162c-.244-.002-.488-.134-.672-.365-.09-.113-.237-.287-.326-.386-.284-.318-.293-.495-.032-.603.214-.089.49-.028.952.21.233.119.472.255.53.302.063.05-.02.023-.2-.066-.26-.128-.349-.15-.598-.15-.413 0-.45.059-.225.35.324.419.529.589.739.612a.789.789 0 0 0 .596-.17l.121-.097-.09-.146a.607.607 0 0 1-.089-.24c0-.05-.019-.104-.042-.118-.068-.042-.049-.18.028-.209.047-.018.112.014.187.09.064.065.176.163.247.217l.131.099.286-.223c.493-.384.56-.46.56-.63 0-.13-.035-.187-.228-.373-.27-.26-.386-.28-.576-.093-.173.168-.295.464-.303.733-.006.196-.01.186-.037-.098-.058-.62-.049-.78.055-.935.143-.212.35-.335.564-.335.205 0 .278.052.586.42.153.183.193.263.193.387 0 .213-.26.592-.59.862-.141.115-.256.216-.256.224 0 .045.212-.113.468-.348.361-.331.604-.437.843-.365.414.124.743.949.556 1.394-.122.288-.595.388-1.068.225a3.567 3.567 0 0 1-.834-.417c-.168-.125-.24-.094-.077.034.257.201.338.657.1.566-.077-.03-.243-.324-.24-.427 0-.053.027-.03.081.072.044.083.11.176.147.207.117.097.079-.052-.063-.248-.094-.13-.155-.176-.223-.168a.363.363 0 0 1-.183-.038c-.074-.04-.102-.038-.146.016-.03.037-.209.143-.396.237-.388.193-.532.309-.532.427 0 .072.01.076.074.025.07-.054.07-.052 0 .03-.073.086-.069.094.176.328.276.263.396.324.634.324.294 0 .323-.055.319-.6l-.004-.48.058.34c.087.502.058.758-.104.92-.17.17-.49.204-.754.081zm2.614-1.362a.827.827 0 0 0 .105-.324c.03-.257-.075-.519-.318-.787-.217-.24-.28-.264-.444-.162-.15.092-.35.295-.24.242.036-.017.017.004-.04.045-.058.042-.14.111-.184.154-.09.089-.507.213-.466.138.016-.027.004-.026-.028.004-.112.104-.011.252.295.434.65.386 1.151.483 1.32.257zm-.356-.027a.163.163 0 0 1 .106 0c.029.011.005.021-.053.021-.059 0-.082-.01-.053-.021zm-.21-.043c.031-.013.068-.011.082.003.014.014-.011.024-.056.022-.05-.002-.06-.012-.025-.026zm-.169-.043c.03-.012.067-.01.081.003.015.014-.01.024-.055.022-.05-.002-.06-.012-.026-.025zm.466 0c.03-.012.067-.01.081.003.014.014-.01.024-.055.022-.05-.002-.06-.012-.026-.025zm-.17-.042c.031-.012.068-.01.082.003.014.014-.011.024-.056.022-.05-.002-.06-.012-.025-.025zm-.169-.042c.03-.013.067-.011.081.003.015.014-.01.024-.055.022-.05-.002-.06-.012-.026-.026zm-.22-.048c-.011-.019.06-.036.157-.04.147-.003.159.002.071.03-.143.048-.202.05-.228.01zm.45.005a.35.35 0 0 1 .149 0c.04.01.007.02-.074.02-.082 0-.115-.01-.074-.02zm-.211-.171c.11-.01.291-.01.402 0 .11.009.02.016-.201.016s-.312-.007-.201-.016zm-.381-.083a.35.35 0 0 1 .148 0c.04.01.007.02-.074.02-.082 0-.115-.01-.074-.02zm.508-.043a.764.764 0 0 1 .212 0c.052.01 0 .018-.117.018-.116 0-.159-.01-.095-.018zm-.569-.084c.03-.012.067-.01.081.003.014.014-.01.024-.055.023-.05-.002-.06-.013-.026-.026zm.209-.041a.163.163 0 0 1 .106 0c.029.012.005.021-.053.021-.058 0-.082-.01-.053-.021zm.232 0c-.066-.027.119-.184.216-.184.107 0 .198.049.198.106 0 .092-.258.14-.414.078zm-.314-.128c.03-.012.067-.01.081.003.014.014-.01.024-.055.022-.05-.002-.06-.012-.026-.025zm.135-.053c0-.022.02-.052.043-.067.024-.014.034-.04.023-.059-.011-.017.043-.062.12-.1.138-.065.143-.064.187.033.041.09.031.104-.122.166-.193.077-.251.083-.251.027zm-.17-.066a.467.467 0 0 1 .149-.06c.023 0-.006.027-.064.06a.467.467 0 0 1-.148.06c-.023 0 .005-.027.064-.06zm-.762.434c0-.047-.053-.037-.137.027-.108.082-.09.11.031.053.058-.026.106-.063.106-.08zm-.042-.117c0-.023-.008-.042-.018-.042-.01 0-.03.019-.045.042-.015.024-.006.043.018.043.025 0 .045-.02.045-.043zm-.19-.042c.014-.024-.003-.03-.04-.016-.074.028-.087.058-.026.058.022 0 .051-.018.065-.042zm.01-.153c-.03-.03-.158.03-.158.074 0 .022.04.018.088-.008.048-.026.08-.055.07-.066zm-.558 1.47c-.013-.022-.011-.073.004-.114.022-.056.014-.065-.031-.039-.036.021-.03.001.015-.05a.18.18 0 0 1 .18-.066c.119.023.12.028.061.14-.054.1-.197.18-.23.128zm-.239-.275c.074-.132.245-.251.306-.213.065.04-.019.144-.197.243l-.183.103zm-.039-.175a.501.501 0 0 1 .12-.106c.012 0-.023.048-.077.106a.501.501 0 0 1-.121.106c-.012 0 .024-.048.078-.106zm-.571-.995c-.015-.023-.013-.063.003-.09.016-.025.002-.063-.03-.083-.034-.021.01-.025.111-.01.094.015.205.05.248.08.075.052.075.055-.008.1-.108.057-.29.06-.324.004zm.796-.379c-.153-.093-.296-.329-.236-.389.023-.023.064-.008.101.037.073.087.298.435.281.435-.006 0-.072-.038-.146-.083zm.329-.074c-.002-.029-.063-.12-.136-.203-.15-.17-.136-.238.025-.132.109.071.176.234.136.331-.016.04-.023.04-.025.003zm.674-.453c0-.167.045-.237.154-.237.134 0 .17.101.082.233-.091.14-.236.142-.236.003zm9.063-1.87c.002-.05.012-.06.025-.026.012.03.01.067-.003.081-.014.015-.024-.01-.022-.055zm-.066-.154c.033-.223.12-.415.29-.636l.145-.191-.1-.046c-.143-.065-.24-.271-.19-.404.045-.119.142-.182.298-.196.226-.019.307.005.427.124.16.16.175.428.03.53-.155.109-.222.083-.121-.045.114-.145.11-.208-.016-.335-.13-.13-.358-.14-.464-.023-.067.074-.068.091-.008.206.066.13.173.197.24.155.06-.037.054-.02-.193.466-.241.474-.306.522-.131.097.055-.133.093-.243.084-.243-.026 0-.197.351-.257.53l-.057.169z" transform="translate(-72.041 -129.426)"/></svg>