<svg width="63.562" height="102.281" viewBox="0 0 16.818 27.062" xmlns="http://www.w3.org/2000/svg"><path style="fill:#000;stroke-width:.0423333" d="M72.939 181.079c-.012-.012-.008-.121.008-.244a.94.94 0 0 0 .013-.252c-.01-.017.032-.062.092-.102.128-.083.222-.029.167.097-.03.072-.034.072-.05.003-.025-.1-.082-.093-.11.014-.016.061-.006.081.033.067.063-.025.234.082.234.147 0 .12-.317.34-.387.27zm.281-.239c0-.032-.038-.058-.084-.058-.062 0-.089.033-.099.124-.014.121-.012.122.085.058.054-.036.098-.091.098-.124zm-.844.023.023-.208-.11.19c-.11.194-.106.083.007-.137.057-.113.156-.153.2-.082.024.04-.065.367-.113.415-.017.017-.02-.063-.007-.178zm.352-.053c-.01-.18.002-.283.037-.312.042-.034.053.006.05.184-.004.356-.068.45-.087.128zm-.187-.02c.001-.133.016-.24.034-.24.017 0 .032.02.032.044 0 .025.019.033.042.019.061-.038.047.06-.037.25l-.074.167.003-.24zm-13.75-.735c-.036-.037-.028-.851.011-.987.022-.076.04-.005.06.243.017.192.046.392.066.444.065.179.096.355.05.286-.03-.042-.044-.046-.044-.01-.001.056-.095.072-.142.024zm.989-.006c0-.018.046-.166.102-.328.091-.26.103-.277.105-.146a.937.937 0 0 1-.08.328c-.075.168-.127.227-.127.146zm.272-.186c.043-.324.106-.401.107-.132.002.242-.028.352-.093.352-.028 0-.033-.079-.014-.22zm.278-.16v-.382h-.14c-.183 0-.5-.202-.659-.422a2.514 2.514 0 0 1-.242-.5 2.513 2.513 0 0 0-.143-.348c-.037-.03-.028-.249.01-.226.017.01.03.05.03.085 0 .12.323.754.466.917a.891.891 0 0 0 .624.32c.182.012.477-.07.477-.13 0-.019.027-.034.059-.034.147 0 .569-.631.58-.868.001-.05.012-.062.025-.029.012.03-.021.19-.074.356-.125.39-.468.762-.775.845l-.197.052.028.372c.02.268.014.372-.02.372-.033 0-.05-.123-.05-.38zm.242.354a1.563 1.563 0 0 1-.048-.337l-.022-.293.062.296c.061.288.064.424.008.334zm.169-.207c-.163-.332-.14-.386.034-.084.152.263.171.317.114.317-.018 0-.085-.105-.148-.233zm.309.191c-.035-.023-.049-.041-.03-.042.017 0-.044-.102-.138-.226-.234-.31-.214-.342.051-.087.122.118.277.256.345.306l.122.091h-.144a.483.483 0 0 1-.206-.042zm.853-.032c-.102-.2-.395-1.212-.333-1.153.039.036.27.643.36.942.078.263.063.386-.027.211zm1.138-.153a2.589 2.589 0 0 1-.307-.37l-.084-.143.135.158c.155.182.212.201.186.064-.01-.053.006-.034.036.041a.78.78 0 0 0 .142.225l.089.089-.053-.268a8.552 8.552 0 0 1-.076-.458c-.042-.327.052-.032.126.399.036.211.086.408.11.437.031.039.026.053-.019.053-.034 0-.163-.102-.285-.227zm.423-.162c-.05-.217-.1-.46-.111-.542a9.203 9.203 0 0 0-.06-.377 1.026 1.026 0 0 1-.028-.244c.02-.019.228.748.302 1.114.034.166.067.326.074.354a.062.062 0 0 1-.037.07c-.03.012-.082-.126-.14-.375zm.28.114c-.086-.355-.201-1.004-.182-1.024.024-.023.186.584.241.902.07.406.03.49-.06.122zm1.253.127c0-.093.01-.126.02-.073.01.052.01.129-.001.169-.01.04-.02-.003-.019-.096zm.25.064c0-.058.01-.082.022-.053a.163.163 0 0 1 0 .106c-.012.029-.022.005-.022-.053zm.183-.147c-.039-.132-.06-.25-.048-.263.013-.012.054.086.093.218.038.132.06.25.047.263-.012.012-.054-.086-.092-.218zm.244.016c-.048-.13-.1-.31-.115-.402l-.026-.166.059.127c.1.219.207.57.188.625-.01.029-.057-.054-.106-.184zm.19-.007a3.318 3.318 0 0 1-.093-.391c-.026-.168-.025-.167.078.063.118.266.182.55.124.55-.022 0-.07-.1-.108-.222zm.23-.063c-.14-.455-.142-.516-.01-.244.137.282.201.53.139.53-.022 0-.08-.129-.128-.286zm.547.219c.002-.05.012-.06.026-.026.012.03.01.067-.004.081-.014.014-.024-.01-.022-.056zm.178-.124c0-.116.009-.159.018-.095.01.065.01.16 0 .212-.01.052-.018 0-.018-.117zm.073-.085v-.275h-.13c-.164 0-.408-.125-.566-.292-.156-.164-.124-.165.127-.006.24.151.39.188.616.15.167-.029.172-.034.146-.163-.06-.298-.061-.456-.002-.2.035.15.069.278.076.285.008.007.049-.011.09-.042.072-.052.074-.08.025-.336-.029-.154-.044-.305-.033-.335.01-.03.043.084.072.253.043.253.063.3.11.261.073-.06.229-.472.236-.624.005-.1.008-.102.024-.02.033.169-.073.55-.2.727-.069.094-.202.21-.297.259l-.172.088.214.247c.118.136.214.26.214.276 0 .06-.08-.003-.228-.182-.158-.19-.196-.193-.09-.007.034.058.06.134.06.169 0 .104-.126-.162-.144-.304a.38.38 0 0 0-.064-.178c-.034-.035-.039.03-.017.239.02.202.015.285-.02.285-.03 0-.047-.097-.047-.275zm1.045-.01c-.141-.608-.145-.897-.004-.347.042.166.117.327.191.412.067.076.122.13.122.12 0-.011-.049-.222-.108-.47-.06-.247-.102-.482-.094-.522.02-.092.189.575.224.88l.027.234-.13-.138c-.16-.17-.177-.17-.145-.01.05.25-.018.12-.083-.16zm.44-.17c-.052-.25-.102-.512-.112-.582-.056-.376.167.425.251.9.014.076.008.138-.011.138-.02 0-.078-.205-.129-.456zm.251.166a2.077 2.077 0 0 1-.035-.416c.008-.066.039.059.068.277.064.466.04.567-.033.139zm.408-.08c.022-.374.02-.393-.062-.393a.526.526 0 0 1-.158-.027c-.055-.022-.066-.01-.048.053.013.044.034.176.046.292.019.187.014.179-.037-.065-.052-.248-.084-.302-.307-.529a1.953 1.953 0 0 1-.41-.604c-.09-.193-.155-.359-.146-.368.01-.009.09.126.18.3.178.347.464.684.597.703.046.007.098.032.115.055.05.07.425.043.554-.04.133-.088.322-.388.37-.588l.032-.134.003.148a.918.918 0 0 1-.078.328c-.045.1-.072.18-.06.18.013 0-.036.05-.107.11-.072.06-.13.126-.13.146 0 .02.113.204.252.409.14.205.235.379.212.386-.044.016-.168-.093-.17-.148a.438.438 0 0 0-.08-.138l-.08-.104.023.199c.014.12.006.198-.02.198-.06 0-.094-.15-.095-.425 0-.15-.025-.265-.067-.318-.062-.077-.065-.072-.04.087.075.486.078.657.01.657-.091 0-.129-.207-.094-.51.028-.237.024-.252-.06-.252-.08 0-.089.025-.093.264a2.11 2.11 0 0 1-.04.392c-.021.077-.026-.027-.012-.265zm.85-.12c-.134-.266-.233-.484-.222-.484.028 0 .496.936.478.955-.009.008-.124-.203-.257-.47zm.432.146c-.188-.374-.26-.546-.23-.546.023 0 .274.493.374.73.114.274.036.174-.144-.184zm1.107.276c.002-.049.012-.059.025-.025.012.03.01.067-.003.081-.014.014-.024-.01-.022-.056zm.455-.096c-.134-.156-.157-.165-.427-.182-.182-.012-.286-.002-.287.026 0 .024-.02.014-.041-.024a.436.436 0 0 0-.179-.126c-.274-.112-.647-.548-.898-1.048-.161-.32-.113-.31.078.016.191.327.601.746.846.864.566.274 1.012.162 1.241-.312.093-.19.102-.199.08-.071a.926.926 0 0 1-.368.553l-.162.117.15.175c.082.097.14.176.129.176a.936.936 0 0 1-.162-.164zm-9.576.026c.014-.064.061-.226.106-.36.075-.223.08-.23.063-.074-.01.093-.057.255-.106.36-.055.121-.078.148-.063.074zm1.73.021a1.766 1.766 0 0 1-.044-.35c-.018-.336.046-.217.09.167.028.256.011.325-.046.183zm3.665-.12c-.027-.108-.041-.205-.032-.215.01-.01.04.071.068.18.027.108.041.205.032.215-.01.01-.04-.071-.068-.18zm1.147.11c0-.059.01-.082.021-.053a.163.163 0 0 1 0 .106c-.012.029-.021.005-.021-.053zm2.029-.089c-.029-.096-.044-.181-.035-.191.01-.01.04.06.07.156.028.096.044.182.034.191-.01.01-.04-.06-.07-.156zm-11.426-.195c-.106-.407-.152-.633-.122-.605.034.032.248.896.227.917-.01.01-.057-.13-.105-.312zm-.812.009c-.03-.154-.044-.288-.034-.298.01-.01.042.107.07.26.029.155.044.289.034.299-.01.01-.041-.108-.07-.261zm2.89.014c-.13-.384-.232-.761-.21-.783.027-.027.335.95.317 1.006-.009.025-.057-.075-.107-.223zm.459-.176c-.234-.493-.26-.573-.094-.295.13.22.315.647.29.671-.006.007-.095-.162-.196-.376zm3.216.285c.002-.05.012-.06.025-.025.012.03.01.067-.003.08-.014.015-.024-.01-.022-.055zm-6.115-.375c-.04-.228-.066-.422-.056-.432.027-.027.168.732.148.794-.01.029-.051-.134-.092-.362zm4.825.25c-.04-.106-.028-.134.021-.048.025.043.036.086.026.097-.011.011-.032-.011-.047-.049zm.528-.044c.002-.05.012-.06.025-.026.012.03.01.067-.003.081-.014.015-.024-.01-.022-.055zm3.175-.127c.002-.05.012-.06.025-.026.012.03.01.067-.003.081-.014.015-.024-.01-.022-.055zm5.507.003c-.181-.079-.266-.184-.45-.557-.21-.426-.187-.456.072-.094.122.17.303.365.402.431.108.072.18.153.18.203 0 .096-.018.098-.204.017zm-10.206-.13c.002-.05.012-.06.025-.026.012.03.01.067-.003.081-.014.014-.024-.01-.022-.056zm1.403-.065c-.348-.173-.725-.716-.9-1.3-.051-.17-.084-.318-.073-.328.01-.011.09.15.178.358.22.523.61 1.097.707 1.038.02-.013.036.004.036.037 0 .057.204.179.24.143.01-.01-.025-.16-.076-.335-.073-.25-.119-.333-.21-.387-.09-.053-.121-.056-.138-.016-.012.032-.022.022-.024-.023a.601.601 0 0 0-.061-.19 1.17 1.17 0 0 1-.083-.305c-.013-.105-.016-.17-.004-.144.024.056.313-.208.314-.287 0-.043.008-.044.034-.003.024.038.071.042.174.012.077-.022.353-.038.612-.035.426.005 1.1-.088 1.233-.17a.305.305 0 0 1 .096-.034c.116-.018.62-.276.771-.396.217-.172.34-.444.34-.755 0-.326-.099-.606-.326-.927-.297-.423-.478-.531-1.39-.836-.325-.11-.614-.208-.642-.219-.027-.011.06.147.195.353.261.399.483.775.456.775-.032 0-.49-.665-.626-.91-.077-.14-.158-.262-.178-.27a4.809 4.809 0 0 1-.307-.196c-.148-.1-.336-.193-.418-.209-.178-.033-.486-.254-.732-.526-.252-.278-.224-.298.043-.03.216.216.628.488.74.49.041 0 .039-.03-.01-.125a.608.608 0 0 1-.065-.228c0-.09-.028-.108-.244-.15a2.26 2.26 0 0 1-.434-.14.951.951 0 0 0-.219-.085c-.053.01-.426-.435-.513-.614-.08-.164-.1-.178-.301-.206a8.062 8.062 0 0 1-.3-.045 18.655 18.655 0 0 0-.71-.123 4.329 4.329 0 0 1-.226-.037 5.588 5.588 0 0 0-.317-.045 2.862 2.862 0 0 1-.303-.05c-.04-.011-.074-.01-.074.003 0 .065.519.742.552.721.022-.013.027.008.012.049-.02.053-.013.063.028.038.036-.022.046-.018.028.01-.015.025-.014.052.004.06.018.008.085.09.15.183.154.222.515.619.459.505a8.758 8.758 0 0 0-.251-.424c-.224-.361-.403-.694-.372-.694.03 0 .38.575.585.96.117.219.247.397.352.481.194.155.518.317.557.279.014-.015.05-.006.08.019.04.033.088.03.172-.011.15-.072.227-.339.13-.45-.07-.081-.496-.789-.704-1.173l-.139-.254.135.149c.074.081.124.114.11.074-.012-.041-.016-.074-.007-.074.028 0 .54.81.523.827-.01.009-.08-.088-.158-.216-.23-.379-.19-.237.062.217.127.231.232.386.232.344a.553.553 0 0 0-.062-.196c-.034-.065-.052-.129-.04-.141.013-.012-.055-.177-.15-.365-.095-.19-.164-.343-.154-.343.044 0 .41.69.488.923.109.324.11.5.004.673-.157.257-.506.25-.896-.02-.325-.224-1.173-1.184-1.55-1.753-.058-.089-.124-.15-.146-.136-.022.014-.035-.001-.029-.032.026-.131-.052-.24-.186-.26a.456.456 0 0 0-.151-.008c-.008.007.109.324.26.704.15.38.295.749.321.819.046.122.047.12.024-.043a7.075 7.075 0 0 1-.04-.36 2.608 2.608 0 0 0-.1-.463c-.048-.15-.08-.28-.072-.289.023-.023.27.634.342.91.115.444.063.762-.166 1.005-.092.098-.18.15-.253.15-.061 0-.111.008-.111.018 0 .048.581 1.09.734 1.315.445.658.887.877 1.178.584l.117-.118-.088-.19c-.147-.32-.8-2.003-.783-2.02.026-.026.427.907.666 1.55l.226.61.06-.145a1.09 1.09 0 0 0 .071-.27.847.847 0 0 1 .041-.202.574.574 0 0 0 .013-.222c-.009-.082-.002-.148.017-.148.047 0 .042.325-.01.597-.2 1.069-.965 1.066-1.693-.007-.202-.296-.533-.996-.574-1.21-.019-.1-.053-.14-.138-.157-.098-.022-.37-.17-.613-.335-.267-.18-1.13-1.18-1.13-1.309 0-.069.237.189.319.348.098.19.772.876 1.026 1.045a.93.93 0 0 0 .434.172c.186.018.216.008.335-.114.072-.074.13-.164.13-.2 0-.037-.054-.175-.122-.306-.16-.315-.644-1.454-.625-1.473.02-.022.414.824.604 1.299.113.282.166.373.185.317.017-.046-.052-.276-.173-.58a28.383 28.383 0 0 1-.48-1.288 1.078 1.078 0 0 0-.124-.034c-.091-.022-.116-.015-.1.026.066.16.067.207.003.084-.052-.098-.097-.134-.15-.12-.042.01-.076.005-.076-.013 0-.032-.236-.073-.635-.111a3.473 3.473 0 0 1-.275-.036 1.228 1.228 0 0 0-.18-.02c-.074-.004-.095-.03-.095-.115 0-.108.006-.11.21-.091l.208.02-.083-.163c-.045-.09-.073-.163-.062-.163.012 0 .06.074.106.165.081.16.094.167.392.215.17.027.344.06.388.072.055.016.07.007.047-.029-.017-.028.019-.018.08.022.13.086.134.073.04-.127-.058-.119-.108-.159-.244-.192a21.96 21.96 0 0 1-.477-.127 2.232 2.232 0 0 0-.339-.078.366.366 0 0 1-.14-.042c-.087-.041-.039-.047.276-.032l.381.018-.385-.066-.385-.066-.028-1.08c-.015-.594-.027-3.906-.027-7.36v-6.28h2.283c2.257 0 2.285.002 2.437.091l.154.09.114-.083c.111-.083.213-.085 4.97-.116l4.858-.031v8.618c0 8.3-.003 8.62-.077 8.62a2.87 2.87 0 0 1-.307-.04c-.476-.08-.59-.089-.59-.045 0 .091.28.206.622.255.23.032.35.067.34.098-.02.062-.029.062-.432-.031-.53-.122-.554-.136-.654-.368-.064-.15-.113-.208-.174-.208-.08 0-.081.007-.021.122.096.187.013.234-.347.196-.157-.017-.276-.021-.265-.01.032.03 1.39.357 1.609.387.205.029.382.107.243.108-.09.001-.095.057-.01.128a.18.18 0 0 1 .062.121c-.001.054-.021.046-.087-.033a1.622 1.622 0 0 1-.115-.153c-.016-.028-.075-.065-.13-.082-.084-.026-.066.012.119.254.12.156.208.294.195.307-.013.013-.03.015-.037.005l-.251-.318c-.186-.237-.267-.307-.378-.327a3.196 3.196 0 0 1-.246-.055c-.086-.025-.057.023.154.249.468.502.608 1.01.353 1.282-.259.274-.743 0-1.545-.873-.279-.304-.805-.97-.766-.97.01 0 .219.243.462.54.432.527.663.774.735.787.02.004.031.02.026.036-.015.044.294.287.334.262.02-.012.047.009.062.046.057.15.516.264.588.147.015-.025-.067-.182-.183-.35-.242-.35-.482-.749-.45-.749.011 0 .165.224.342.498.372.575.346.54.38.506.014-.014-.096-.213-.245-.44-.297-.453-.514-.818-.488-.818.01 0 .1.12.2.265.102.146.197.274.213.286.015.011.09.13.165.264.182.324.234.351.2.105-.021-.153-.097-.29-.36-.652-.38-.525-.296-.482-1.32-.67-.968-.177-.873-.17-.791-.056.21.293.41.673.45.848.148.668-.494.87-1.363.43-.294-.148-.246-.16.061-.015.47.223.86.262 1.065.108.106-.081.154-.325.106-.542-.042-.192-.363-.866-.433-.91a1.895 1.895 0 0 0-.299-.08l-.257-.055.233.024c.128.013.347.03.487.038s.283.023.318.035c.145.049.55.096.55.065 0-.019-.072-.046-.159-.06a2.803 2.803 0 0 1-.291-.068.641.641 0 0 0-.17-.034c-.115.02-.235-.074-.31-.24-.057-.13-.107-.186-.166-.186-.078 0-.08.009-.027.11.085.165.026.256-.152.235a26.153 26.153 0 0 0-.338-.028 3.978 3.978 0 0 1-.461-.061c-.133-.032-.121-.036.116-.04.145-.002.265-.021.265-.042 0-.082-.12-.114-.373-.098-.24.015-.265.025-.254.102.02.131-.112.197-.238.118-.353-.221-.475-.292-.525-.304-.033-.008-.087.068-.133.187l-.077.2.154.043c.085.024.326.063.535.088.522.06.58.07.678.107.075.03.078.026.026-.038-.032-.04-.049-.071-.037-.071.024 0 .397.49.685.9.11.157.191.285.18.285-.012 0-.107-.119-.211-.264-.26-.364-.362-.449-.65-.544-.244-.08-.245-.082-.071-.07.097.007.169 0 .159-.016-.02-.032-.278-.091-.716-.164a3.479 3.479 0 0 1-.55-.145c-.301-.114-.295-.05-.083-.935.228-.95.285-1.37.288-2.116.001-.49-.017-.754-.067-.953a1.443 1.443 0 0 1-.055-.288c.007-.007.056.107.108.254.075.21.1.39.115.848.024.694-.082 1.754-.226 2.25-.082.281-.079.292.102.375.088.04.201.112.251.159.05.047.102.085.115.085.013 0 .02-.167.016-.37-.007-.352-.008-.36-.037-.138-.027.203-.029.192-.015-.085.008-.174.033-.555.056-.846.066-.853.1-2.955.053-3.218a14.399 14.399 0 0 0-.168-.722c-.178-.695-.303-.92-.63-1.136-.233-.155-.196-.174.056-.03l.176.101.277-.166c.362-.216.464-.362.485-.692.016-.25.012-.263-.168-.483-.331-.406-.377-.495-.55-1.067-.25-.828-.362-1.012-.614-1.012-.206 0-.242.103-.217.612.02.406.02.416-.032.214-.089-.348-.077-.71.026-.841.167-.213.54-.117.691.178.032.062.11.341.17.62.168.756.168.756.472.998.15.119.29.248.311.287.034.06.103.068.477.055.266-.009.486-.039.564-.076l.127-.062-.145.135-.144.135-.388-.029-.387-.028.018.253c.033.46-.188.76-.68.926-.232.078-.24.085-.164.152.208.19.393.71.445 1.255.012.128.043.376.07.55.058.399.059 2.092 0 2.794-.081.955-.104 1.778-.05 1.778.027 0 .049-.034.049-.076 0-.125.081-.17.268-.149l.176.02-.105-.087a.5.5 0 0 0-.134-.088c-.08-.003-.061-.141.033-.254.102-.12.104-.128.022-.128a.672.672 0 0 0-.194.042c-.185.07-.12 0 .085-.09.152-.067.205-.074.254-.034.086.071.076.125-.05.256l-.109.114.131.026c.405.078.408.078.353.02-.029-.03-.053-.145-.053-.255 0-.25-.097-.333-.39-.333-.233 0-.225.03-.138-.487.097-.577.121-1.432.067-2.349-.071-1.186-.115-1.486-.296-2.021l-.162-.476.207-.133c.219-.14.371-.357.484-.688.084-.247.191-.323.453-.323.445 0 .668-.256.509-.582l-.078-.159-.618-.006c-.685-.007-.837-.048-.92-.256a10.912 10.912 0 0 1-.196-.682 6.838 6.838 0 0 0-.197-.656c-.096-.187-.266-.327-.428-.353-.105-.017-.179-.058-.209-.116-.076-.149-.215-.28-.295-.28-.042 0-.136.059-.209.13l-.133.13-.097-.091c-.141-.132-.28-.097-.374.096-.088.18-.105.184-.353.09-.169-.065-.187-.064-.318.011a.718.718 0 0 0-.246.291c-.095.191-.106.27-.12.855l-.016.644-.224.192c-.124.106-.25.192-.28.192-.03 0-.136-.03-.235-.068-.22-.085-.324-.061-.567.129-.12.094-.29.173-.464.217-.338.085-.41.142-.332.265.046.074.043.1-.025.174-.076.085-.076.09.002.176.118.13.465.097.832-.08.428-.206.517-.186.726.16.063.106.162.258.22.339l.107.148-.225.212c-.536.504-.794.948-.948 1.634-.128.566-.124.559-.567 1.181-.53.744-.74 1.127-.999 1.813-.099.263-.099.267-.014.254.066-.01.112-.092.2-.353.128-.382.34-.759.727-1.29.453-.622.735-1.069.746-1.182.023-.228.057-.374.166-.723.177-.566.414-.928.8-1.225.235-.18.78-.49.81-.46.01.01-.104.108-.252.217-.73.535-1.104 1-1.378 1.711-.093.241-.085.292.016.106.035-.064.064-.091.065-.06 0 .03.022.042.048.026.032-.02.032-.001-.002.062-.027.05-.07.078-.096.062-.03-.02-.038-.005-.02.04.044.116-.322.774-.758 1.362-.656.886-.894 1.45-.853 2.02.04.555.306.91.91 1.212.478.24.506.245.538.104a.682.682 0 0 1 .104-.22c.076-.1.077-.098.014.148-.166.648.216 1.009 1.543 1.46.345.118.705.26.8.315.277.161.56.478.725.814.126.255.156.368.173.646.017.3.007.36-.094.567-.141.289-.341.467-.722.642-.404.187-.824.266-1.642.309-.575.03-.72.052-.868.127-.207.106-.258.235-.166.414.079.152.174.236.389.344.501.25 1.643.273 2.255.044.458-.171.86-.704 1.01-1.336.083-.353.093-1.094.019-1.408-.079-.333-.309-.797-.507-1.022-.19-.217-.587-.44-1.042-.587-.64-.208-1.07-.464-1.294-.772-.112-.153-.128-.207-.111-.364a.5.5 0 0 1 .093-.254c.068-.066.072-.056.054.173l-.019.244h.364c.394 0 .933.079 2.31.338a39.61 39.61 0 0 0 1.143.203c.14.019.25.055.246.079-.01.05.497.269.623.269.111 0 .106-.064-.011-.15-.095-.069-.095-.069.038-.042.073.015.144.01.158-.011.026-.043-.184-.146-.482-.238l-.19-.058.232.022c.128.013.295.048.371.079.145.058.232.19.145.22-.07.023-.062.094.024.195.05.058.052.07.01.038-.043-.032-.088-.036-.128-.01-.11.07-.267.042-.612-.109-.186-.081-.391-.148-.456-.148h-.117l.085.168c.27.529-.094.84-.67.573a2.762 2.762 0 0 1-.343-.189c-.065-.046-.13-.071-.144-.057-.015.015-.027.005-.027-.02 0-.027-.04-.07-.09-.096-.102-.055-.092-.025.068.193.19.26.769 1.22.637 1.058a10.742 10.742 0 0 0-.14-.17c-.04-.046-.261-.363-.491-.703-.33-.491-.467-.656-.656-.793a10.81 10.81 0 0 1-.408-.311c-.093-.076-.146-.109-.117-.072.028.036.08.131.113.211.05.12.05.164.007.246-.05.092-.053.085-.05-.093.006-.253-.116-.422-.328-.457-.183-.03-.192-.003-.044.135.06.056.148.16.194.23.046.07-.013.021-.131-.107a1.793 1.793 0 0 1-.215-.26c0-.014-.129-.039-.286-.054a17.198 17.198 0 0 1-.445-.05c-.087-.011-.158-.004-.158.017s.054.113.12.205c.153.21.48.384 1.096.581.262.084.576.205.699.27.122.064.24.124.263.134.022.009-.024-.067-.103-.17-.208-.269-.242-.335-.087-.165.124.135.218.262.622.835.074.105.188.355.254.556.11.334.12.42.12.98 0 .688-.04.884-.264 1.32-.149.289-.666.84-.76.808-.025-.008-.076.016-.114.053-.038.038-.068.06-.068.05 0-.01-.11.007-.244.039-.294.069-.981.074-1.386.01a5.577 5.577 0 0 0-.402-.052.296.296 0 0 1-.162-.058c-.062-.06-.135-.07-.135-.021 0 .017.033.16.073.317l.073.286h.226c.124 0 .283-.03.354-.067.07-.036.138-.058.148-.047.01.01-.064.06-.165.109a1 1 0 0 1-.826 0zm4.248-4.68c-.022-.057-.016-.06.037-.016.054.045.072.034.11-.068.055-.144.026-.33-.08-.503-.07-.114-.119-.136-.434-.199a93.3 93.3 0 0 1-.97-.201c-.337-.072-.647-.126-.688-.12-.07.012.131.17.935.731.372.26.769.446.954.446.134 0 .158-.012.136-.07zm-.448-.32c-.313-.364-.405-.494-.173-.245.21.225.405.466.377.466-.007 0-.099-.1-.204-.221zm.185-.044c-.11-.145-.157-.226-.103-.18.1.088.362.445.325.445-.011 0-.111-.12-.222-.265zm-.6-.148c-.247-.294-.263-.32-.081-.132.207.215.438.503.404.502-.008 0-.153-.167-.324-.37zm.855.148a4.164 4.164 0 0 0-.16-.24c-.035-.046-.034-.054.003-.032.053.032.322.452.289.452a.806.806 0 0 1-.132-.18zm-1.207-.233c-.053-.067-.051-.068.016-.016.04.032.074.066.074.075 0 .034-.035.012-.09-.059zm-.17-.211c-.052-.067-.05-.069.016-.016.071.055.093.09.059.09-.01 0-.043-.033-.074-.074zm4.779-.699c-.01-.029-.054-.053-.099-.054a.305.305 0 0 1-.128-.031 1.14 1.14 0 0 0-.27-.056c-.181-.022-.218-.017-.193.03.016.032.003.027-.029-.012-.067-.082-.402-.161-.354-.085.016.026-.028.015-.097-.025-.07-.04-.14-.058-.158-.04-.063.063.062.118.495.218.498.115.861.14.833.055zm-1.725-.286c0-.047-.034-.065-.184-.101-.073-.018-.11-.013-.094.012.014.023-.033.012-.105-.024-.152-.075-.193-.055-.129.065.038.07.089.085.279.085.128 0 .233-.017.233-.037zm-7.644-.315c-.04-.06-.08-.102-.091-.092-.01.01.014.069.054.13s.08.102.091.092c.01-.01-.014-.069-.054-.13zm-.188-.72c0-.106-.095-.277-.155-.277-.03 0-.057.024-.057.053 0 .04-.01.039-.037-.004-.02-.031-.078-.05-.13-.042l-.095.014.089.113a.496.496 0 0 1 .089.142c0 .057-.132-.079-.194-.199-.034-.066-.09-.12-.125-.12-.08 0-.079.014.023.214.086.167.087.168.34.168.192 0 .252-.015.252-.062zm-.185-.046c-.04-.106-.029-.134.021-.048.025.043.036.086.025.097-.01.011-.032-.01-.046-.049zm-.692-.176c-.069-.112-.152-.204-.185-.204a.244.244 0 0 1-.106-.03.94.94 0 0 0-.226-.058c-.099-.016-.19-.055-.201-.086-.013-.032-.067-.058-.122-.058h-.099l.107.116c.076.082.102.15.09.234-.018.123-.008.13.265.175.058.01.141.032.184.05.072.028.074.02.028-.071-.042-.085-.034-.081.052.022.056.067.12.111.143.098.023-.014.068-.008.101.012.106.065.097.009-.031-.2zm-.16-.013c-.036-.07-.056-.127-.044-.127.011 0 .05.058.086.127.037.07.057.127.045.127-.012 0-.05-.057-.087-.127zm-.233-.127c-.025-.046-.036-.084-.024-.084.012 0 .042.038.067.084.025.047.035.085.024.085-.012 0-.042-.038-.067-.085zm.678.359c0-.013-.038-.096-.083-.186-.07-.136-.157-.215-.238-.215-.01 0 .034.095.098.211.064.116.14.212.17.212.029 0 .053-.01.053-.022zm.846-.232c0-.047-.028-.084-.065-.084-.052 0-.056.017-.02.084.025.047.055.085.066.085.01 0 .02-.038.02-.085zm-2.347-.052-.024-.096.05.096c.044.088.205.136.205.062 0-.057-.214-.348-.256-.348-.022 0-.04.017-.04.038 0 .022-.074.021-.176-.001-.096-.022-.184-.03-.195-.02-.011.012.024.093.078.18.097.157.1.158.124.056l.025-.105.03.117c.02.08.058.116.117.116.069 0 .082-.02.062-.095zm11.872-.245c-.026-.047-.064-.075-.085-.062-.055.034-.001.148.07.148.048 0 .05-.018.015-.086zm-11.208-.07a.164.164 0 0 0-.105 0c-.03.012-.006.022.053.022.058 0 .082-.01.053-.021zm10.086-.268c.015-.023-.003-.042-.04-.042-.036 0-.065.02-.065.042 0 .024.018.043.04.043.021 0 .051-.02.065-.043zm2.172-.867c-.009-.058-.05-.09-.134-.099-.188-.021-.216.047-.085.203.11.13.119.134.173.06a.26.26 0 0 0 .046-.164zm-13.086-.41c-.013-.034-.023-.024-.025.025-.002.045.008.07.022.056.014-.014.015-.05.003-.081zm1.75-.054c0-.01-.02-.03-.043-.044-.023-.015-.042-.006-.042.018 0 .025.019.045.042.045.023 0 .042-.008.042-.019zm9.929-.655c-.033-.053-.15-.062-.15-.012 0 .019.022.057.05.085.06.06.143-.002.1-.072zm1.246-.358c0-.085-.106-.159-.185-.128-.038.014-.069.043-.069.063 0 .02.029.025.063.012.036-.014.075.005.09.044.031.083.101.09.101.01zm-8.747-.134c.015-.038.008-.055-.016-.04-.023.014-.042.044-.042.066 0 .06.03.047.058-.026zm-3.487-.018c0-.064-.16-.136-.19-.086a.089.089 0 0 0 0 .085c.033.054.19.055.19 0zm-1.778-.088c0-.022-.028-.04-.062-.04-.038 0-.053.025-.038.063.025.065.1.048.1-.023zm2.71-.206c0-.087-.056-.173-.111-.173-.072 0-.077.092-.008.16.06.061.118.067.118.013zm8.839-.692c-.016-.161-.087-.184-.1-.031-.01.121.01.17.07.17.024 0 .037-.063.03-.139zm.685-.505c0-.048-.124-.158-.18-.16-.055-.002-.034.095.038.174.07.077.142.07.142-.014zm.974-.75c0-.02-.048-.068-.106-.106-.118-.077-.13-.063-.053.06.053.085.159.116.159.047zm-10.943-.43c0-.034-.043-.067-.096-.074-.102-.015-.137.095-.042.133.08.032.138.007.138-.06zm11.62-.46c0-.05-.082-.104-.113-.074-.03.03.023.113.073.113a.04.04 0 0 0 .04-.04zm-10.498-.508c0-.05-.083-.104-.113-.074s.023.113.073.113a.04.04 0 0 0 .04-.04zm-3.683-.553a.4.4 0 0 0-.084-.133l-.083-.1v.466l.083-.1a.4.4 0 0 0 .084-.133zm13.127-.055c-.054-.055-.11-.013-.069.053.016.025.048.033.072.019.028-.018.028-.042-.003-.072zm-11.603-.495c0-.024-.009-.043-.02-.043-.01 0-.03.02-.044.043-.014.023-.006.042.019.042.024 0 .045-.02.045-.042zm12.7-.257c0-.022-.029-.04-.064-.04-.065 0-.084.05-.036.098.033.034.1-.004.1-.058zm-1.778-.585c0-.02-.029-.06-.064-.09-.069-.057-.077-.043-.038.06.027.071.102.093.102.03zm-7.112-.106c0-.079-.13-.126-.187-.068-.032.032-.027.057.018.085.092.058.169.05.169-.017zm-2.163-.48c.111-.205.201-.257.564-.33.174-.033.144-.137-.055-.19-.208-.056-.243-.131-.152-.323.039-.08.07-.154.07-.165 0-.057-.103-.003-.256.135l-.171.155-.165-.16c-.202-.198-.314-.185-.252.028.062.217.048.314-.066.45a.676.676 0 0 0-.106.148c0 .013.08.03.18.037l.18.013-.012.187c-.025.374.046.378.241.015zm-2.24.007c0-.034-.02-.061-.042-.061-.024 0-.043.04-.043.087 0 .048.02.075.043.061.023-.014.042-.054.042-.087zm12.293-.17c.044-.114.03-.146-.083-.189-.162-.061-.199-.01-.094.13.104.142.14.154.177.059zm-1.413-.865a.042.042 0 0 0-.085 0 .042.042 0 0 0 .085 0zm-2.144-.106c.013-.035.006-.063-.017-.063-.022 0-.04.028-.04.063s.007.064.016.064c.01 0 .027-.029.04-.064zm-2.044-.456c-.005-.05-.064-.04-.082.014-.009.028.006.043.034.034.028-.01.05-.03.048-.048zm2.33-.925c.444-.256.525-.257.906-.013.295.188.594.246.622.119.03-.135-.048-.28-.287-.53-.126-.133-.23-.257-.23-.276 0-.02.147-.112.324-.205.346-.18.459-.293.359-.356-.032-.02-.225-.049-.43-.065-.443-.035-.485-.068-.527-.425-.05-.426-.11-.657-.171-.657-.073 0-.095.077-.13.466a2.122 2.122 0 0 1-.086.46l-.059.143-.441-.03c-.426-.03-.617-.011-.617.059 0 .018.119.115.265.216.446.308.427.267.26.542-.243.404-.33.77-.183.77.027 0 .218-.099.425-.218zm-3.14-.691c.065-.077.023-.15-.085-.15-.051 0-.082.029-.082.077 0 .14.083.175.168.073zm-2.057-.213c-.013-.035-.043-.052-.066-.037-.026.016-.02.04.015.062.077.049.08.048.051-.025zm-2.52-.287c.01-.054-.015-.073-.095-.073-.12 0-.122.003-.083.104.034.088.159.066.177-.03zm11.691-.182c0-.036-.02-.054-.043-.04-.023.015-.032.045-.018.067.036.058.061.048.061-.027zm-13.292-.294a.064.064 0 0 0-.064-.063c-.066 0-.084.05-.035.099.049.048.099.03.099-.036zm6.985-.74a.042.042 0 0 0-.085 0 .042.042 0 0 0 .085 0zm-.932-.043c0-.023-.008-.042-.018-.042-.01 0-.03.019-.045.042-.015.024-.006.043.018.043.025 0 .045-.02.045-.043zm6.582-.238c.108-.107.066-.277-.08-.325-.106-.035-.136-.027-.2.053-.063.077-.068.112-.03.186.089.167.199.198.31.086zm-12.424-.249c0-.072-.07-.12-.127-.084-.028.017-.027.054.002.11.048.088.125.072.125-.026zm6.548-.172c.035-.092-.055-.178-.119-.114-.054.054-.02.18.048.18.025 0 .057-.03.07-.066zm2.738-.238c.025-.016.032-.044.013-.062-.043-.044-.112.07-.107.176l.004.085.022-.085c.011-.047.042-.098.068-.114zm1.31-.193c.027-.035.024-.053-.008-.053-.048 0-.216.243-.216.313 0 .02.041-.018.092-.085l.132-.175zm-11.65 23.037c.001-.05.011-.06.025-.026.012.03.01.067-.003.081-.015.014-.025-.01-.023-.056zm8.293-.145c-.028-.119-.043-.225-.033-.235.01-.01.041.08.07.2.027.119.042.225.032.234-.01.009-.04-.08-.069-.2zm4.321-.222c-.139-.301-.307-.73-.404-1.027-.05-.156.142.208.27.508.186.442.342.868.317.868-.012 0-.094-.157-.183-.35zm-4.571.24c.002-.05.012-.06.025-.026.012.03.01.067-.003.081-.014.014-.024-.01-.022-.056zm-4.19-.023c-.204-.061-.552-.432-.736-.784a2.714 2.714 0 0 1-.158-.334c0-.017.12.147.265.366.326.488.591.693.851.658.293-.039.487-.312.578-.812l.038-.21-.01.275c-.022.608-.382.974-.828.841zm2.46-.08c0-.081.01-.115.02-.074.01.04.01.108 0 .148-.01.041-.02.007-.02-.074zm-4.534-.047c-.026-.075-.04-.143-.031-.152.009-.01.037.044.064.12.026.074.04.143.03.152-.009.009-.037-.045-.063-.12zm12.76-.264c-.108-.23-.188-.427-.176-.439.032-.032.414.751.393.807-.01.027-.108-.139-.216-.368zm-2.164.11c-.151-.337-.318-.782-.3-.8.007-.008.082.152.166.356l.22.529c.108.256.033.182-.086-.085zm-6.745.134c.002-.05.012-.06.025-.025.012.03.01.067-.003.08-.014.015-.024-.01-.022-.055zm2.37 0c.002-.05.012-.06.026-.025.012.03.01.067-.003.08-.015.015-.025-.01-.023-.055zm2.128.002c-.014-.036-.015-.075-.004-.086.012-.012.031.018.044.065.026.101-.003.117-.04.021zm.35 0c-.04-.106-.028-.134.022-.048.024.043.036.086.025.097-.011.011-.032-.01-.046-.049zm-9.016-.084c-.041-.107-.03-.134.02-.048.025.042.037.086.026.097-.011.01-.032-.011-.046-.05zm7.978-.045c.002-.049.012-.059.025-.025.012.03.01.067-.003.081-.014.014-.024-.01-.022-.056zm-9.444-.028c0-.032.058-.113.129-.181.07-.068.187-.215.26-.327.166-.26.21-.228.054.04-.149.257-.254.394-.36.468-.07.049-.083.049-.083 0zm5.57-.056c-.016-.062-.02-.12-.01-.13.01-.01.03.032.046.094s.02.121.01.131c-.01.01-.03-.033-.046-.095zm4.765-.15c-.05-.121-.084-.227-.076-.235.009-.01.057.083.107.203.05.121.084.227.076.235-.009.01-.057-.083-.107-.203zm2.323-.207c-.117-.232-.203-.423-.192-.423.012 0 .117.19.234.423.117.233.203.424.191.424-.011 0-.117-.19-.233-.424zm-11.066.056a2.776 2.776 0 0 1-.107-.373c.002-.023.058.118.126.314.068.197.116.364.107.374-.009.009-.066-.133-.126-.315zm8.425.218c-.04-.106-.029-.134.021-.048.025.042.036.086.025.097-.01.011-.031-.011-.046-.049zm-8.678-.127c-.041-.106-.03-.134.02-.048.025.042.037.086.026.097-.011.011-.032-.011-.046-.049zm2.695-.4c-.194-.505-.279-.824-.134-.508.147.32.337.857.32.905-.008.026-.092-.154-.186-.398zm10.636.232a24.02 24.02 0 0 0-.136-.355c-.031-.08-.05-.152-.042-.16.03-.03.286.59.272.658-.008.038-.05-.026-.094-.143zm-10.833-.112c-.042-.117-.068-.22-.06-.23.01-.008.051.08.093.197s.07.22.06.23c-.01.009-.051-.08-.093-.197zm-3.794-.032a.862.862 0 0 1-.034-.264c.01-.027.041.06.071.193.03.134.045.252.034.263-.01.011-.043-.075-.07-.192zm2.266.049c-.164-.338-.275-.603-.253-.603.032 0 .369.722.347.744-.01.009-.052-.054-.094-.141zm10.962.022c-.205-.073-.56-.323-.73-.518a4.878 4.878 0 0 1-.392-.574l-.232-.393-.028.384c-.032.458-.087.643-.234.79-.118.118-.301.142-.5.067-.277-.105-.88-.833-1.307-1.577-.207-.362-.082-.211.283.339.302.456.58.802.58.724 0-.011-.04-.1-.087-.198-.102-.212-.424-1.078-.406-1.096.019-.019.356.746.449 1.02.046.136.075.262.064.28-.01.018.056.102.15.186.154.14.216.172.305.158.018-.003.032.014.032.037 0 .054.132.054.274 0l.11-.041-.13-.223c-.167-.285-.64-1.218-.619-1.218.025 0 .354.561.58.989.117.221.21.355.229.326.016-.027-.037-.177-.119-.333-.187-.357-.355-.786-.26-.664.037.046.152.253.255.459.103.206.196.349.205.317.06-.195.05-.264-.089-.524-.081-.153-.14-.287-.129-.298.01-.01.078.1.15.245l.13.264.03-.221c.016-.122.045-.221.064-.221.019 0 .151.171.295.38.456.667.981 1.06 1.416 1.06.406 0 .568-.199.577-.708l.005-.288.036.212c.094.55-.153.914-.618.907a1.333 1.333 0 0 1-.339-.048zm-3.085-.055c-.04-.107-.028-.134.021-.048.025.042.036.086.026.097-.011.01-.032-.011-.047-.05zm-4.976-.044c.002-.05.012-.06.026-.026.012.03.01.067-.003.081-.015.014-.025-.01-.023-.056zm8.176-.465a2.08 2.08 0 0 1-.134-.305c.001-.017.07.1.151.259.082.16.142.297.134.305-.009.01-.077-.108-.151-.259zm-2.38-.59c-.216-.432-.384-.794-.374-.804.01-.01.196.335.412.767.216.432.384.794.373.804-.01.01-.195-.334-.411-.766zm-8.572.608c-.276-.15-.636-.55-.8-.893-.24-.504-.218-.597.031-.124.444.842.983 1.202 1.41.941.16-.098.377-.402.513-.722.097-.226.099-.228.073-.064-.037.225-.246.611-.425.785-.124.12-.18.143-.389.155-.188.01-.282-.007-.413-.078zm8.514-.28c-.17-.34-.511-1.117-.561-1.28-.011-.036.06.088.159.274.24.455.637 1.341.613 1.365-.011.011-.106-.15-.21-.36zm-5.653.26c.002-.048.012-.058.026-.025.012.03.01.067-.004.081-.014.015-.024-.01-.022-.055zm7.688-.125c-.1-.208-.086-.244.018-.047.047.09.079.17.07.18-.01.009-.05-.05-.088-.133zm-12.798-.077c-.248-.247-.237-.333.014-.112.233.205.315.202.588-.021.183-.15.451-.607.524-.894.04-.16.041-.157.03.07-.022.41-.317.919-.63 1.082-.2.106-.326.076-.526-.125zm5.234-.026c-.029-.12-.044-.225-.034-.235.01-.01.042.079.07.199.027.12.042.225.033.235-.01.009-.04-.08-.07-.2zm4.32.06c.003-.05.013-.06.027-.026.012.03.01.067-.004.081-.014.014-.024-.01-.022-.055zm.277-.007c-.098-.327-.19-.707-.176-.721.017-.017.153.422.21.678.03.128.002.162-.034.043zm2.985-.324c-.225-.406-.553-1.14-.475-1.063.023.024.184.316.357.65.173.335.323.584.333.555.01-.03.017.016.017.101s-.002.155-.006.155c-.003 0-.105-.18-.226-.398zm-8.56.271c-.2-.106-.39-.327-.547-.636-.19-.378-.152-.399.077-.042.344.535.646.724.927.579.165-.086.341-.348.433-.644.049-.157.084-.217.1-.173.015.037-.001.146-.035.242a.718.718 0 0 0-.047.265c.008.05.007.066-.004.036-.01-.032-.07.025-.14.135-.199.315-.464.397-.764.238zm1.383-.067c-.016-.062-.02-.12-.01-.13.01-.01.03.032.046.094s.02.12.01.13c-.01.01-.03-.032-.046-.094zm7.495-.009c-.04-.076-.09-.128-.112-.114-.023.014-.028-.007-.013-.048.02-.049.012-.063-.02-.042-.034.02-.04.007-.022-.042.02-.054.013-.064-.028-.038-.035.021-.046.018-.029-.01.015-.025-.039-.19-.12-.37-.169-.37-.185-.437-.06-.255.149.219.51.957.493 1.009-.01.027-.05-.014-.09-.09zm1.17-.107a2.19 2.19 0 0 1-.283-.362c-.052-.1.015-.047.238.187.17.178.315.341.323.362.037.099-.085.017-.278-.187zm-8.855.116c.002-.05.012-.06.025-.026.012.03.01.067-.003.081-.014.014-.024-.01-.022-.055zm.253-.344c-.18-.519-.193-.565-.137-.478.061.095.308.812.294.855-.007.02-.078-.15-.157-.377zm6.81.047c-.128-.28-.42-1.032-.42-1.076 0-.011.144.273.319.632.21.432.303.667.276.695-.028.028-.087-.057-.175-.25zm-6.323.164c-.023-.06-.018-.065.024-.023.028.028.041.063.028.076-.013.013-.036-.01-.052-.053zm7.046-.266c-.096-.191-.166-.357-.154-.369.012-.011.1.136.196.327.096.19.165.357.153.368-.011.012-.1-.135-.195-.326zm-7.829.23c.002-.05.012-.06.026-.026.012.03.01.067-.003.08-.015.015-.025-.01-.023-.055zm.9-.064c-.237-.116-.528-.436-.688-.752-.167-.33-.167-.39 0-.104.182.312.467.616.689.734.16.085.214.094.351.06.137-.034.18-.073.263-.242.087-.175.1-.264.1-.643-.002-.507.02-.52.245-.165.081.129.298.378.481.553.22.211.286.293.193.24a3.677 3.677 0 0 1-.468-.397l-.328-.318-.028.318c-.034.398-.14.65-.31.738-.172.088-.289.083-.5-.021zm-.773-.148c-.027-.109-.041-.205-.032-.215.01-.01.04.07.068.18.027.108.041.205.032.214-.01.01-.04-.07-.068-.18zm2.118.062c-.026-.075-.04-.143-.03-.152.008-.01.037.044.063.12.026.074.04.143.031.152-.009.009-.038-.045-.064-.12zm-5.234-.142c-.083-.285-.231-.99-.228-1.08.006-.131.246.644.296.952.062.389.027.455-.068.128zm7.053.164c.002-.049.012-.059.026-.025.012.03.01.067-.003.08-.015.015-.025-.01-.023-.055zm.785.002c-.04-.106-.028-.134.021-.048.025.043.036.086.026.097-.011.011-.032-.01-.047-.049zm-4.891-.044c.002-.05.012-.06.026-.025.012.03.01.067-.004.08-.014.015-.024-.01-.022-.055zm2.075-.106c-.029-.096-.044-.182-.035-.191.01-.01.04.06.07.156.028.096.044.182.034.191-.01.01-.04-.06-.07-.156zm4.765-.088c-.062-.144-.105-.268-.097-.276.008-.008.066.102.128.246.062.143.106.267.098.276-.009.009-.067-.102-.129-.246zm-10.044.081a1.033 1.033 0 0 1-.04-.18c-.004-.046-.04-.272-.079-.502-.039-.23-.063-.426-.053-.436.028-.028.197.69.226.961.026.257.002.329-.054.157zm12.263-.058c-.098-.166-.22-.44-.195-.44.023 0 .229.362.275.484.059.154.026.136-.08-.044zm-11.771-.12a1.05 1.05 0 0 1-.033-.287c.01-.028.041.07.07.216.03.148.044.277.032.288-.01.012-.042-.086-.07-.216zm1.895.09c-.072-.15-.266-.91-.304-1.192-.019-.137-.002-.112.084.127.1.28.323 1.169.298 1.194-.006.006-.041-.052-.078-.13zm4.806-.07c0-.129.008-.181.017-.117.01.064.01.169 0 .233s-.017.011-.017-.117zm4.091.123c-.026-.049-.039-.096-.03-.106.01-.01.04.03.067.088.058.128.03.142-.037.018zm-13.31-.027c-.03-.082-.15-1.204-.145-1.367.009-.25.17.57.193.985.025.437.012.538-.047.382zm.237-.343a4.779 4.779 0 0 1-.043-.54c.004-.145.012-.132.059.11.065.332.1.803.06.803-.015 0-.05-.168-.076-.373zm1.575.061c-.047-.177-.07-.323-.05-.323.02 0 .036.034.037.075 0 .04.035.15.078.244.042.093.064.205.05.248-.02.055-.055-.02-.115-.244zm-2.04.016c-.06-.326-.114-.962-.077-.93.034.032.164 1.045.145 1.134-.009.04-.039-.053-.067-.204zm10.222.189c-.04-.107-.028-.134.021-.048.025.042.036.086.026.097-.011.01-.032-.011-.047-.05zm-5.905-.154a4.524 4.524 0 0 1-.09-.352 24.85 24.85 0 0 0-.065-.297c-.011-.046.016-.006.06.09.087.186.195.644.161.678-.011.012-.041-.042-.066-.12zm.427-.127c-.137-.366-.251-.762-.279-.966l-.026-.19.066.169c.098.251.361 1.173.34 1.194-.01.01-.055-.083-.101-.207zm.799.152c.002-.05.012-.06.025-.026.012.031.01.068-.003.082-.014.014-.024-.011-.022-.056zm3.021.022c-.015-.025-.018-.054-.007-.065.01-.011.031.009.045.045.029.074.004.088-.038.02zm-.394-.447c-.098-.248-.17-.458-.16-.468.009-.01.096.186.192.435s.169.46.16.468c-.008.008-.095-.188-.192-.435zm-4.575.34c.002-.049.012-.059.026-.025.012.03.01.067-.003.08-.015.015-.025-.01-.023-.055zm2.816-.007c-.076-.243-.274-1.045-.262-1.058.031-.03.277.71.304.918.028.21.004.288-.042.14zm.152-.338a9.323 9.323 0 0 1-.109-.54c-.02-.149-.01-.137.083.103.098.249.19.807.134.807-.013 0-.062-.167-.108-.37zm1.364-.15-.202-.602c-.015-.046.039.049.12.212.17.341.289.703.269.824-.008.046-.092-.15-.187-.434zm.388.03c-.108-.248-.19-.46-.18-.468.009-.01.105.186.213.435s.19.46.181.468c-.009.01-.105-.187-.214-.435zm1.78.383c-.04-.107-.028-.134.021-.048.025.042.036.086.026.097-.011.01-.032-.011-.047-.05zm3.191-.089c-.388-.194-.89-.684-1.262-1.233-.147-.215-.258-.391-.248-.391.01 0 .184.195.387.434.697.818 1.386 1.32 1.705 1.24.144-.037.228-.24.206-.5-.013-.144-.007-.192.017-.137.02.047.037.186.039.309.002.184-.016.243-.101.328-.152.152-.367.138-.743-.05zm-7.168-.105c-.092-.319-.128-.53-.054-.313.031.093.1.242.153.33.052.089.083.173.068.187-.014.015-.026 0-.027-.033 0-.051-.006-.051-.037-.001-.027.041-.057-.008-.103-.17zm6.01.151c-.042-.106-.03-.134.02-.048.025.043.036.087.026.097-.011.011-.032-.01-.047-.049zm-3.467-.115c-.038-.075-.148-.28-.244-.454-.096-.175-.136-.27-.09-.213.109.135.444.762.42.786-.01.01-.049-.044-.086-.119zm2.487.047a2.16 2.16 0 0 1-.72-.639c-.177-.235-.486-.784-.486-.864 0-.016.117.149.26.366.462.7.993 1.144 1.37 1.144.09 0 .142-.018.127-.042-.014-.023 0-.032.033-.02.158.061.25-.36.178-.806-.02-.116-.018-.119.021-.028.135.312.084.79-.097.917-.131.092-.482.078-.686-.028zm-10.428-.163c0-.059.01-.082.021-.053a.163.163 0 0 1 0 .105c-.011.03-.021.005-.021-.052zm7.132.019c-.041-.106-.03-.134.02-.048.025.042.037.086.026.097-.011.01-.032-.011-.046-.049zm-1.101-.3a1.244 1.244 0 0 1-.066-.246c.002-.025.04.058.085.184.045.127.074.237.065.246-.009.01-.047-.074-.084-.184zm-5.744.034c-.273-.174-.621-.573-.876-1.002-.32-.542-.273-.58.077-.062.553.819 1.016 1.192 1.33 1.072.102-.039.232-.326.272-.6.035-.233.036-.235.041-.059.019.663-.362.957-.844.65zm2.17-.271c-.2-.447-.226-.444-.072.01.058.17.098.318.088.328-.018.018-.491-1.392-.489-1.457 0-.02.024.002.05.05.08.135.626 1.432.61 1.447-.007.008-.092-.162-.188-.378zm7.976.115c-.089-.152-.146-.294-.128-.322.019-.032.013-.04-.017-.021s-.14-.155-.303-.48c-.14-.28-.247-.51-.236-.51.01 0 .117.19.237.423.12.233.235.413.255.4.021-.013.026.011.01.053-.015.043-.01.061.01.042.034-.03.378.643.345.675-.007.007-.085-.11-.173-.26zm-7.68-.152c-.098-.212-.164-.406-.15-.43.017-.027.007-.032-.025-.012-.04.025-.046.01-.024-.062.02-.064.016-.086-.016-.066-.03.018-.036.003-.018-.044.019-.05.012-.063-.021-.043-.03.019-.041.01-.028-.025.011-.03-.046-.225-.128-.432-.082-.208-.14-.385-.132-.394.01-.01.132.275.273.631.356.903.476 1.23.459 1.248-.008.008-.094-.159-.19-.371zm11.096.29c-.128-.141-.351-.462-.351-.505 0-.021.104.08.232.223.128.143.233.287.233.319 0 .078-.013.074-.114-.037zm-5.072.01c-.063-.027-.035-.037.115-.039.25-.004.308-.089.273-.4-.017-.144-.012-.188.013-.132.053.118.053.433 0 .532-.047.088-.243.107-.4.04zm2.331-.054c.016-.042.04-.065.053-.052.013.013 0 .047-.029.076-.042.041-.046.036-.024-.024zm1.616-.528c-.396-.643-.468-.772-.434-.772.04 0 .532.769.683 1.069.08.157.137.286.127.286-.01 0-.179-.262-.376-.583zm-10.315-.233c-.343-.859-.374-.946-.285-.793.084.145.629 1.53.61 1.55-.01.009-.155-.332-.325-.757zm9.826.212c-.349-.582-.488-.836-.458-.836.02 0 .663 1.059.764 1.26.153.301.013.108-.306-.424zm.343.17c-.396-.617-.7-1.136-.678-1.158.029-.029.653.964.915 1.454.116.218-.003.07-.237-.296zm-2.067-.022c-.11-.203-.255-.47-.324-.592s-.115-.222-.104-.222c.026 0 .355.57.531.92.198.394.126.32-.103-.106zm.352.082c-.188-.282-.42-.705-.34-.621.022.023.145.213.273.423.285.463.298.487.276.487-.01 0-.104-.13-.21-.289zm-6.366.122c-.293-.168-.653-.577-.86-.977-.212-.405-.227-.543-.021-.18.082.146.166.266.187.266.02 0 .05.039.065.087.041.13.276.382.327.35.025-.015.032-.008.017.018-.033.053.174.236.4.35.516.264.683-.08.484-.996-.02-.089-.016-.108.012-.064.076.12.187.727.164.897-.05.38-.368.482-.775.248zm7.727.03-.238-.456c-.104-.198-.159-.323-.122-.278.082.101.46.828.43.828-.011 0-.043-.042-.07-.095zm.833-.2c-.086-.164-.147-.298-.135-.298.034 0 .333.552.311.575-.01.01-.09-.114-.176-.278zm-2.067-.033c-.06-.157-.14-.358-.177-.445-.037-.087-.057-.159-.044-.159.054 0 .38.838.342.877-.008.007-.062-.115-.121-.273zm2.857.097c-.052-.106-.087-.193-.077-.193.037 0 .2.3.185.341-.008.025-.057-.042-.108-.148zm-12.988.015a33.794 33.794 0 0 1-.567-1.642c.005-.055.22.457.357.848.235.674.31.956.21.794zm9.042-.29c-.214-.426-.384-.807-.36-.807.033 0 .576 1.109.554 1.13-.012.012-.099-.133-.194-.322zm-3.76.246c-.183-.053-.623-.492-.853-.851-.1-.157-.2-.275-.22-.262-.02.013-.037-.002-.037-.033 0-.03-.049-.158-.107-.283-.059-.126-.1-.236-.091-.244.008-.008.169.218.357.504.403.61.7.935.962 1.051.215.095.31.07.43-.113.069-.104.066-.11-.081-.263-.154-.159-.455-.653-.453-.743.003-.078.162.136.367.491.104.18.207.328.228.328.022 0 .04-.062.042-.137.002-.076.014-.113.026-.082.05.127-.038.446-.156.565-.127.126-.189.137-.414.072zm-3.07-.152c-.405-.985-.495-1.209-.494-1.233.004-.06.138.23.362.78.13.317.226.585.216.595-.01.01-.048-.053-.084-.142zm-2.59-.275c-.256-.632-.49-1.273-.472-1.29.018-.019.152.307.456 1.104.114.3.2.554.19.563-.009.01-.088-.16-.175-.377zm4.078.02c-.288-.622-.502-1.125-.486-1.141.008-.008.122.2.252.462.239.48.47 1.05.428 1.05-.012 0-.1-.168-.194-.371zm-4.441.17a3.185 3.185 0 0 0-.146-.35c-.052-.105-.085-.217-.073-.25.014-.039.003-.047-.034-.025-.034.022-.044.017-.025-.013.015-.025-.049-.269-.143-.542-.094-.272-.164-.502-.155-.51.008-.01.136.322.283.736.147.413.302.822.345.908.042.086.06.168.038.18-.021.014-.062-.047-.09-.135zm.158-.02c-.36-1.009-.579-1.657-.565-1.671.01-.009.08.16.157.376.076.216.181.479.232.584.051.105.084.217.072.25-.012.035-.002.046.027.029.028-.018.039-.007.026.027-.012.03.017.168.064.305.047.137.078.257.069.266-.01.009-.046-.066-.082-.166zm4.214.093a19.914 19.914 0 0 0-.217-.48c-.095-.206-.173-.397-.172-.424 0-.026.106.17.234.436s.224.504.215.529c-.01.025-.037-.003-.06-.06zm3.267-.053-.08-.095.095.08c.09.076.115.11.08.11a.473.473 0 0 1-.095-.095zm.97-.127a9.815 9.815 0 0 1-.5-.751c-.108-.183.12.079.306.35.402.59.522.839.193.401zm-1.326-.106a3.351 3.351 0 0 1-.306-.37c-.041-.078.122.094.473.497.236.27.11.175-.167-.127zm-8.078.16c0-.06.01-.083.021-.054a.163.163 0 0 1 0 .106c-.012.03-.021.005-.021-.053zm5.537-.005c-.026-.048-.04-.096-.03-.106.01-.01.04.03.066.088.058.128.03.142-.036.018zm.17-.04c-.04-.098-.064-.117-.093-.075-.025.036-.029.021-.01-.045.02-.068.013-.091-.018-.072-.03.018-.037.003-.019-.044.02-.05.012-.063-.02-.042-.033.02-.041.008-.025-.036.014-.036.005-.066-.021-.066-.026 0-.047-.025-.047-.057s-.096-.263-.213-.514c-.118-.25-.206-.463-.196-.473.022-.022.432.777.619 1.207.074.171.127.32.116.33-.01.01-.043-.04-.073-.113zm1.89.063c-.04-.106-.029-.134.021-.048.025.043.036.086.025.097-.01.011-.031-.01-.046-.049zm-3.804-.214c-.166-.372-.457-1.13-.44-1.147.057-.057.601 1.248.566 1.355-.008.023-.065-.07-.126-.208zm2.72-.193c-.334-.499-.616-1.044-.388-.75.076.097.534.849.636 1.043.11.207-.002.075-.249-.293zm5.841.303c-.025-.046-.036-.085-.024-.085.012 0 .042.039.067.085.025.047.035.085.024.085-.012 0-.042-.038-.067-.085zm-4.089-.053-.08-.095.095.08c.09.076.114.11.08.11a.473.473 0 0 1-.095-.095zm-3.59-.289c-.087-.19-.15-.352-.14-.361.01-.01.087.138.173.327.085.19.148.353.14.362-.01.009-.087-.139-.174-.328zm-4.268.158c-.047-.098-.055-.16-.025-.2.033-.048.037-.045.018.014-.013.04-.007.074.013.074.037 0 .105.209.076.237-.008.01-.045-.048-.082-.125zm4.884-.278a3.278 3.278 0 0 1-.173-.413c.002-.02.088.144.191.363.104.22.181.405.173.414-.008.008-.094-.155-.191-.364zm-2.944.097c-.037-.11-.06-.207-.052-.216.01-.009.047.074.085.184.037.11.06.207.052.216-.01.01-.047-.074-.085-.184zm11.231-.296c-.166-.248-.278-.435-.25-.418.035.021.046.012.032-.026-.012-.033-.044-.054-.072-.047-.028.006-.038-.01-.023-.034.015-.025.002-.077-.029-.115-.031-.039-.034-.057-.007-.04.026.016.187.234.357.484.17.25.277.429.237.397-.097-.079-.09-.023.016.126.048.067.077.123.064.123-.012 0-.159-.203-.325-.45zm.002-.14c-.18-.257-.287-.361-.144-.14.237.365.287.433.305.415.01-.01-.062-.135-.16-.276zm-13.287.399c.004-.08.075-.215.077-.148a.261.261 0 0 1-.038.127c-.023.035-.04.044-.04.021zm3.686-.063c0-.059.01-.082.021-.053a.163.163 0 0 1 0 .105c-.011.03-.021.005-.021-.052zm3.168-.085c-.05-.07-.08-.127-.069-.127.012 0 .062.057.112.127s.08.127.069.127a.485.485 0 0 1-.112-.127zm-1.663-.286-.283-.487c-.052-.087-.084-.159-.072-.159.024 0 .395.607.511.837.13.256.034.139-.156-.19zm7.787.19c-.169-.225-.596-.92-.566-.92.017 0 .591.847.682 1.005.06.105-.015.05-.116-.084zm.09-.148c-.265-.407-.382-.603-.358-.603.011 0 .12.157.243.35l.284.444c.034.052.052.095.04.095-.013 0-.107-.129-.209-.286zm.983-.137c-.141-.21-.249-.381-.24-.381.027 0 .494.627.521.7.058.149-.043.035-.281-.32zm-3.22.137-.146-.158.16.146c.086.08.158.151.158.158 0 .033-.036.002-.172-.146zm-10.874-.035c.002-.05.012-.06.026-.026.012.031.01.068-.003.082-.015.014-.025-.011-.023-.056zm-.362-.102c.014-.082.03-.199.034-.26.004-.063.022-.104.04-.093.05.03.035-.197-.032-.473-.093-.387-.068-.378.06.02.094.292.109.394.08.545-.018.102-.023.203-.01.224.013.022.005.034-.019.027-.023-.006-.073.027-.111.073-.066.081-.068.079-.042-.063zm11.467.032-.08-.096.095.08c.09.077.115.11.08.11a.473.473 0 0 1-.095-.094zm-.826-.022c-.053-.067-.052-.068.016-.016.07.056.092.09.058.09-.01 0-.043-.033-.074-.074zm2.29-.158c-.071-.105-.12-.19-.109-.19.012 0 .08.085.152.19.072.104.122.19.11.19a.946.946 0 0 1-.152-.19zm-10.133.04c-.04-.106-.028-.134.021-.048.025.043.036.086.026.097-.011.011-.032-.01-.047-.049zm7.653-.03-.08-.095.095.08a.473.473 0 0 1 .095.096c0 .034-.034.009-.11-.08zm-7.145-.054c-.04-.107-.028-.134.021-.048.025.042.036.086.026.097-.011.01-.032-.011-.047-.05zm8.377-.19c-.107-.139-.186-.253-.174-.253.011 0 .109.114.216.254.108.14.186.254.175.254a1.8 1.8 0 0 1-.217-.254zm-10.261-.238c-.142-.227-.259-.402-.259-.389 0 .014.029.106.064.206.092.26.05.253-.062-.01-.253-.598-.72-1.785-.706-1.799.008-.008.054.076.102.188l.282.656c.157.368.701 1.34.701 1.255a6.33 6.33 0 0 0-.174-.421c-.256-.588-.547-1.322-.53-1.339.021-.021.474.992.691 1.547.104.264.18.49.169.5-.01.01-.136-.167-.278-.394zm.376.14c-.081-.143-.145-.284-.142-.313.003-.029-.01-.043-.027-.032-.019.011-.045-.01-.059-.045-.016-.043-.008-.055.024-.035.032.02.04.009.023-.03-.19-.437-.537-1.324-.524-1.337.02-.02.456.963.704 1.59.096.241.168.444.161.451-.007.007-.079-.105-.16-.248zm2.19-.013a38.36 38.36 0 0 1-.968-1.591c-.206-.386.596.816.934 1.4.187.321.214.478.034.19zm3.248-.108-.21-.22.212.186c.192.17.266.254.224.254-.008 0-.11-.099-.226-.22zm-3.583-.162c-.248-.389-.317-.423-.115-.056.342.62-.316-.374-.922-1.393-.01-.017-.01-.032.002-.032.01 0 .186.258.39.573.392.606.548.767.198.204-.298-.48-.411-.677-.362-.628.08.077.56.818.982 1.513.186.307.04.155-.173-.18zm8.11.245-.08-.096.095.08c.09.077.115.11.081.11a.473.473 0 0 1-.095-.094zm-11.039-.013c-.04-.106-.029-.134.021-.048.025.043.036.086.025.097-.01.011-.032-.01-.046-.049zm1.203-.156c-.27-.637-.682-1.695-.666-1.71.01-.011.049.053.085.141l.233.542c.215.492.483 1.21.46 1.233-.009.01-.06-.083-.112-.206zm1.808-.488c-.539-.87-.506-.814-.483-.814.023 0 .544.803.769 1.185.203.346.2.339.174.339-.012 0-.219-.32-.46-.71zm.29.233c-.31-.478-.797-1.301-.768-1.301.066 0 1.124 1.64 1.124 1.743 0 .085-.065.005-.355-.442zm-1.057.327c-.041-.107-.03-.134.02-.048.025.042.037.086.026.097-.011.01-.032-.011-.046-.05zm1.345-.175c-.288-.447-.774-1.242-.76-1.242.037 0 .462.612.7 1.008.28.465.327.648.06.234zm7.281.06-.08-.095.095.08c.09.076.115.11.08.11a.473.473 0 0 1-.095-.095zm-11.166-.012c-.041-.107-.03-.134.02-.048.025.042.037.086.026.097-.011.01-.032-.011-.046-.05zm10.895-.104c-.074-.094-.124-.17-.113-.17.012 0 .082.076.156.17.073.093.124.169.113.169a.896.896 0 0 1-.156-.17zm-10.541-.24c-.25-.659-.465-1.299-.445-1.319.012-.012.022-.012.022 0s.087.248.193.526c.22.572.361 1 .339 1.023-.009.008-.058-.095-.11-.23zm10.663.165c-.053-.067-.051-.068.016-.016.07.056.093.09.058.09-.009 0-.042-.033-.074-.074zm-3.987-.518c.013-.105.032-.199.04-.208.032-.037.008.233-.028.314-.025.056-.03.021-.012-.106zm3.527.153c0-.04.126-.06.149-.024.014.022-.014.04-.062.04s-.087-.007-.087-.016zm-8.923-.417c-.187-.507-.195-.533-.14-.45.061.095.305.764.286.784-.01.01-.075-.141-.146-.334zm7.814.32c.03-.013.067-.011.081.003.014.014-.01.024-.055.022-.05-.002-.06-.012-.026-.026zm-9.583-.424c-.041-.112-.1-.268-.132-.348-.031-.079-.05-.151-.04-.16.01-.01.077.138.15.33.072.19.124.354.115.364-.01.01-.052-.074-.093-.186zm9.707-.241a2.477 2.477 0 0 1-.027-.36l.004-.153.04.17c.022.093.034.254.027.36l-.012.19zm-4.219-.035a1.951 1.951 0 0 1-.32-.806l-.023-.18.066.127.065.127-.025-.197c-.03-.235.043-.314.101-.111.038.132.04.133.044.025.002-.063.023-.126.046-.14.027-.017.044.081.047.262.006.397.02.567.054.69.028.098.026.1-.023.021a3.341 3.341 0 0 1-.153-.317c-.059-.138-.09-.181-.075-.106.014.07.097.275.185.455.089.18.156.328.151.328-.005 0-.068-.08-.14-.178zm4.328-.097c0-.14.008-.192.017-.116.01.076.01.19 0 .254s-.018.001-.017-.138zm-7.72.102c-.026-.048-.04-.096-.03-.106.01-.01.04.03.066.089.059.128.03.141-.036.017zm-1.369-.315c-.04-.107-.028-.134.021-.048.025.042.036.086.026.097-.011.01-.032-.011-.047-.05zm9.089-.76c0-.14.008-.192.017-.116.01.076.01.19 0 .254-.01.063-.018 0-.017-.139zm-.086-.043c0-.116.009-.159.018-.095.01.065.01.16 0 .212-.01.052-.018 0-.018-.117zm.17-.085c0-.14.008-.191.018-.115.01.076.01.19 0 .254-.01.063-.018 0-.018-.139zm-.125-.613c0-.198.007-.28.016-.18.01.099.01.26 0 .36-.009.098-.016.017-.016-.18zm.168.105c0-.14.008-.191.017-.115.01.076.01.19 0 .254-.01.063-.018 0-.017-.139zm-.087-.063c0-.105.009-.148.019-.095.01.052.01.138 0 .19-.01.053-.019.01-.019-.095zm-3.25-4.367c-.26-.134-.443-.33-.493-.53-.033-.134-.074-.189-.167-.227-.14-.058-.145-.057-.63.146-.199.083-.408.15-.466.149-.102-.002-.101-.004.02-.053.07-.028.276-.122.458-.209.356-.17.51-.194.65-.096.091.064.142.048.142-.047 0-.074-.294-.27-.406-.27-.049 0-.126.04-.17.09-.129.142-.292.207-.577.228l-.266.02.305-.078c.207-.052.353-.12.456-.21.196-.173.386-.18.574-.02.13.109.137.11.18.031.024-.045.11-.139.192-.209.081-.07.226-.197.321-.282l.174-.156.024-.648c.013-.357.04-.687.059-.734.102-.245.304-.35.49-.253.09.046.17.16.29.413.169.354.344.83.342.929-.002.092-.08-.075-.251-.535-.178-.479-.267-.64-.39-.706-.123-.066-.222-.012-.33.18-.08.141-.105.276-.137.708-.056.763-.072.806-.437 1.174-.463.468-.471.71-.034 1.056.344.273.347.278.077.14zm1.397.003c-.211-.082-.211-.082-.043-.057.093.014.217.052.275.084.155.084.015.068-.232-.027zm-.12-.143a.79.79 0 0 1-.19-.088c-.041-.045.285.02.436.086.124.055.125.057.023.058a.97.97 0 0 1-.268-.056zm2.809-1.131a.915.915 0 0 0-.312-.021c-.113.015-.15.008-.12-.022.076-.077.312-.101.568-.059.178.03.288.027.384-.008l.136-.05-.119.105c-.128.113-.28.129-.537.055zm-1.334-.37c-.203-.127-.438-.353-.339-.324.078.022.077.017-.01-.057-.065-.055-.079-.087-.043-.1.073-.026.38.133.35.18-.013.022.016.06.066.087.049.026.078.06.064.073-.014.014.016.07.067.124.116.123.028.133-.155.018zm-.063-.317c0-.009-.03-.028-.066-.041-.038-.015-.055-.007-.04.016.025.04.106.06.106.025zm-1.863.123c0-.012.062-.06.137-.106.18-.11.12-.108-.107.002-.122.059-.152.065-.094.018.047-.038.08-.086.075-.107-.006-.02.03-.06.08-.086.07-.037.081-.036.055.006-.024.04-.012.046.048.021.045-.018.12-.042.166-.053l.084-.02-.084.07c-.082.067-.08.069.042.044l.127-.027-.124.071c-.168.097-.405.194-.405.166zm.78-.198c.104-.06.442-.058.503.004.033.033-.042.045-.27.044-.254 0-.299-.01-.233-.049zm-.226-1.146c-.002-.25.013-.413.039-.413.05 0 .05.563 0 .72-.023.07-.036-.035-.039-.307zm.451.206a3.18 3.18 0 0 1-.027-.445l.004-.237.04.169c.022.093.034.293.027.444l-.012.276zm-.592-.11a3.45 3.45 0 0 1-.03-.382c0-.12.008-.134.043-.074.024.04.038.212.03.38l-.012.308zm.743-.382c0-.128.007-.18.017-.116.01.064.01.168 0 .232s-.017.012-.017-.116z" transform="translate(-57.51 -155.03)"/></svg>