<?xml version="1.0" standalone="no"?>
<!DOCTYPE svg PUBLIC "-//W3C//DTD SVG 20010904//EN"
 "http://www.w3.org/TR/2001/REC-SVG-20010904/DTD/svg10.dtd">
<svg version="1.0" xmlns="http://www.w3.org/2000/svg"
 width="700.000000pt" height="700.000000pt" viewBox="0 0 700.000000 700.000000"
 preserveAspectRatio="xMidYMid meet">
<metadata>
Created by potrace 1.11, written by Peter Selinger 2001-2013
</metadata>
<g transform="translate(0.000000,700.000000) scale(0.100000,-0.100000)"
fill="#000000" stroke="none">
<path d="M6407 6594 c-1 -1 -65 -4 -142 -8 -77 -3 -151 -8 -165 -10 -14 -3
-59 -7 -100 -10 -41 -4 -86 -8 -100 -11 -14 -2 -45 -7 -70 -9 -84 -9 -135 -17
-225 -32 -49 -9 -103 -18 -120 -21 -115 -18 -406 -85 -570 -132 -60 -17 -117
-33 -126 -36 -9 -2 -84 -26 -165 -53 -478 -161 -925 -373 -1359 -645 -71 -45
-134 -86 -140 -90 -5 -4 -69 -49 -140 -100 -116 -81 -352 -260 -365 -276 -3
-4 -32 -29 -65 -56 -278 -233 -570 -532 -826 -849 -304 -377 -618 -879 -784
-1256 -15 -36 -45 -101 -66 -145 -54 -117 -165 -408 -204 -535 -72 -235 -101
-338 -135 -475 -41 -169 -91 -433 -110 -575 -6 -47 -13 -103 -16 -125 -3 -22
-7 -47 -9 -55 -2 -8 -7 -64 -11 -125 -3 -60 -8 -119 -10 -130 -3 -11 -7 -113
-11 -227 l-6 -207 627 0 626 0 1 37 c3 142 8 249 14 322 4 47 7 92 7 100 0 30
38 316 48 365 6 28 13 66 16 85 3 19 17 85 30 145 14 61 27 121 30 135 18 97
129 442 194 605 217 544 505 1018 875 1440 90 104 77 89 182 196 240 247 436
414 713 611 98 70 265 178 335 218 280 159 502 266 743 359 307 118 662 216
962 266 126 21 136 23 200 30 30 3 62 8 70 10 8 2 48 6 88 9 39 3 102 8 140
11 37 3 132 8 210 10 79 2 146 6 149 9 4 4 7 994 4 1188 l-1 46 -111 -1 c-61
-1 -111 -3 -112 -3z"/>
<path d="M6340 4498 c-41 -3 -109 -9 -150 -13 -41 -3 -84 -8 -95 -10 -11 -2
-42 -7 -70 -10 -113 -13 -332 -60 -520 -111 -588 -161 -1150 -465 -1620 -875
-605 -529 -1037 -1210 -1254 -1979 -29 -106 -69 -271 -76 -319 -2 -14 -11 -64
-19 -111 -8 -47 -18 -107 -21 -135 -3 -27 -7 -68 -10 -90 -12 -107 -16 -161
-21 -297 l-5 -146 609 0 609 -1 0 32 c0 58 14 274 18 298 3 13 7 44 10 69 2
25 7 56 10 70 2 14 7 39 10 55 9 53 14 78 41 184 29 115 110 361 125 376 5 5
9 15 9 22 0 43 264 523 309 563 3 3 40 50 81 105 70 93 307 342 410 430 248
212 589 410 900 521 189 68 439 131 595 149 28 3 61 8 75 10 37 6 206 18 278
18 59 1 62 2 63 27 1 27 0 1147 0 1168 -1 14 -138 14 -291 0z"/>
<path d="M5611 2085 c-89 -20 -156 -43 -226 -78 -378 -188 -560 -630 -425
-1027 24 -70 38 -97 85 -175 122 -201 360 -360 590 -393 91 -13 256 -7 335 13
328 79 578 336 645 660 19 94 19 251 -1 339 -72 318 -297 555 -616 647 -94 27
-293 34 -387 14z"/>
</g>
</svg>
