<?xml version="1.0" standalone="no"?>
<!DOCTYPE svg PUBLIC "-//W3C//DTD SVG 20010904//EN"
 "http://www.w3.org/TR/2001/REC-SVG-20010904/DTD/svg10.dtd">
<svg version="1.0" xmlns="http://www.w3.org/2000/svg"
 width="220.000000pt" height="220.000000pt" viewBox="0 0 220.000000 220.000000"
 preserveAspectRatio="xMidYMid meet">
<metadata>
Created by potrace 1.11, written by Peter Selinger 2001-2013
</metadata>
<g transform="translate(0.000000,220.000000) scale(0.100000,-0.100000)"
fill="#000000" stroke="none">
<path d="M1927 2164 c-1 -1 -42 -5 -92 -8 -49 -4 -123 -14 -165 -22 -41 -8
-86 -17 -100 -20 -72 -14 -259 -82 -365 -134 -598 -291 -983 -885 -999 -1540
l-1 -45 178 -1 c97 -1 177 1 178 5 0 3 2 33 4 65 17 300 122 574 313 816 112
141 327 311 491 387 186 86 403 139 581 142 l45 1 0 177 0 176 -34 1 c-18 1
-33 0 -34 0z"/>
<path d="M1897 1564 c-1 -1 -28 -5 -61 -9 -111 -12 -250 -54 -362 -110 -303
-148 -526 -410 -617 -725 -31 -106 -36 -133 -44 -241 l-6 -86 159 0 c88 -1
166 1 175 3 12 3 17 23 22 82 6 80 34 184 70 262 55 120 176 261 290 339 111
76 281 134 407 140 30 1 57 6 60 11 4 7 5 309 1 332 -1 5 -88 7 -94 2z"/>
<path d="M1689 872 c-182 -52 -243 -269 -114 -405 67 -71 185 -93 272 -52 164
77 196 283 64 403 -53 48 -156 73 -222 54z"/>
<path d="M1004 358 c-4 -7 -7 -34 -6 -60 1 -52 0 -53 -27 -37 -11 7 -32 9 -54
5 -46 -9 -69 -48 -69 -119 1 -89 57 -133 126 -97 21 10 34 13 33 6 -1 -6 9
-11 23 -11 l25 0 0 160 c0 156 -1 160 -22 163 -11 2 -25 -3 -29 -10z m-22
-155 c8 -10 15 -34 16 -53 2 -29 -3 -38 -26 -53 -28 -16 -30 -16 -47 3 -20 23
-23 84 -4 106 16 19 43 18 61 -3z"/>
<path d="M1173 360 c-21 -9 -40 -50 -35 -76 1 -7 -7 -14 -18 -17 -25 -6 -27
-44 -2 -49 14 -3 17 -15 18 -73 2 -111 1 -107 32 -103 l27 3 0 88 c0 85 0 87
23 87 19 0 23 5 20 23 -2 12 -9 22 -16 22 -17 0 -32 25 -25 42 3 7 20 13 39
13 30 0 34 -3 35 -27 0 -16 1 -77 2 -138 l2 -110 28 -3 28 -3 -3 163 -3 163
-65 2 c-36 1 -75 -2 -87 -7z"/>
<path d="M217 263 c-2 -5 -3 -55 -3 -113 l1 -105 28 -3 c17 -2 27 2 28 10 0 7
2 41 2 75 2 67 12 85 49 87 16 1 24 8 26 24 5 30 -24 40 -60 19 -24 -14 -28
-14 -28 -2 0 15 -36 21 -43 8z"/>
<path d="M400 240 c-48 -52 -41 -160 14 -189 26 -15 80 -18 119 -8 20 5 27 14
27 31 0 22 -2 23 -39 13 -49 -13 -91 2 -91 33 0 18 6 20 70 20 l70 0 0 31 c0
63 -35 98 -98 99 -36 0 -49 -5 -72 -30z m108 -35 c9 -19 9 -25 -1 -26 -71 -4
-77 -3 -77 12 0 42 60 54 78 14z"/>
<path d="M643 258 c-13 -6 -23 -20 -23 -31 0 -16 4 -18 28 -12 49 13 72 12 83
-1 15 -18 3 -48 -15 -41 -23 9 -85 -12 -96 -33 -37 -68 36 -130 108 -91 14 8
22 8 22 1 0 -5 11 -10 24 -10 24 0 25 3 25 73 1 103 -6 133 -35 146 -31 14
-92 13 -121 -1z m97 -137 c0 -37 -46 -55 -69 -27 -9 11 -8 17 3 29 21 20 66
19 66 -2z"/>
<path d="M1429 255 c-35 -19 -53 -65 -46 -121 7 -64 38 -94 100 -96 81 -1 117
38 117 128 0 64 -40 104 -102 104 -24 -1 -55 -7 -69 -15z m99 -48 c6 -5 12
-27 12 -48 0 -49 -30 -83 -63 -73 -30 9 -29 7 -34 57 -8 70 35 103 85 64z"/>
<path d="M1630 253 c0 -13 24 -101 56 -201 5 -18 65 -11 75 8 5 8 14 38 22 65
l14 50 12 -45 c21 -80 28 -90 61 -90 34 0 36 4 68 110 30 97 31 114 6 118 -28
4 -38 -12 -53 -83 -8 -33 -16 -64 -19 -69 -3 -5 -13 20 -22 57 -24 93 -27 97
-53 97 -21 0 -27 -8 -41 -58 -9 -32 -16 -66 -16 -75 0 -38 -17 -12 -35 55 -18
64 -23 72 -47 75 -21 3 -28 -1 -28 -14z"/>
</g>
</svg>
